<?xml version="1.0" encoding="UTF-8" standalone="no"?><svg xmlns="http://www.w3.org/2000/svg" xmlns:xlink="http://www.w3.org/1999/xlink" clip-rule="evenodd" stroke-miterlimit="10" viewBox="0 0 741 102"><desc>SVG generated by Keynote</desc><defs></defs><g transform="matrix(1.00, 0.00, -0.00, -1.00, 0.0, 102.0)"><text xml:space="preserve" font-family="Courier,Courier" font-size="30.0" fill="#000000" transform="matrix(1.00, 0.00, -0.00, -1.00, 1.4, 80.5)">i</text><text xml:space="preserve" font-family="Courier,Courier" font-size="30.0" fill="#000000" transform="matrix(1.00, 0.00, -0.00, -1.00, 19.4, 80.5)">m</text><text xml:space="preserve" font-family="Courier,Courier" font-size="30.0" fill="#000000" transform="matrix(1.00, 0.00, -0.00, -1.00, 37.4, 80.5)">a</text><text xml:space="preserve" font-family="Courier,Courier" font-size="30.0" fill="#000000" transform="matrix(1.00, 0.00, -0.00, -1.00, 55.4, 80.5)">g</text><text xml:space="preserve" font-family="Courier,Courier" font-size="30.0" fill="#000000" transform="matrix(1.00, 0.00, -0.00, -1.00, 73.5, 80.5)">e</text><text xml:space="preserve" font-family="Courier,Courier" font-size="30.0" fill="#000000" transform="matrix(1.00, 0.00, -0.00, -1.00, 91.5, 80.5)"> </text><text xml:space="preserve" font-family="Courier,Courier" font-size="30.0" fill="#000000" transform="matrix(1.00, 0.00, -0.00, -1.00, 109.5, 80.5)">=</text><text xml:space="preserve" font-family="Courier,Courier" font-size="30.0" fill="#000000" transform="matrix(1.00, 0.00, -0.00, -1.00, 127.5, 80.5)"> </text><text xml:space="preserve" font-family="Courier,Courier" font-size="30.0" fill="#000000" transform="matrix(1.00, 0.00, -0.00, -1.00, 145.5, 80.5)">i</text><text xml:space="preserve" font-family="Courier,Courier" font-size="30.0" fill="#000000" transform="matrix(1.00, 0.00, -0.00, -1.00, 163.5, 80.5)">m</text><text xml:space="preserve" font-family="Courier,Courier" font-size="30.0" fill="#000000" transform="matrix(1.00, 0.00, -0.00, -1.00, 181.5, 80.5)">a</text><text xml:space="preserve" font-family="Courier,Courier" font-size="30.0" fill="#000000" transform="matrix(1.00, 0.00, -0.00, -1.00, 199.5, 80.5)">g</text><text xml:space="preserve" font-family="Courier,Courier" font-size="30.0" fill="#000000" transform="matrix(1.00, 0.00, -0.00, -1.00, 217.5, 80.5)">e</text><text xml:space="preserve" font-family="Courier,Courier" font-size="30.0" fill="#000000" transform="matrix(1.00, 0.00, -0.00, -1.00, 235.5, 80.5)">.</text><text xml:space="preserve" font-family="Courier,Courier" font-size="30.0" fill="#021993" transform="matrix(1.00, 0.00, -0.00, -1.00, 253.5, 80.5)">c</text><text xml:space="preserve" font-family="Courier,Courier" font-size="30.0" fill="#021993" transform="matrix(1.00, 0.00, -0.00, -1.00, 271.5, 80.5)">o</text><text xml:space="preserve" font-family="Courier,Courier" font-size="30.0" fill="#021993" transform="matrix(1.00, 0.00, -0.00, -1.00, 289.5, 80.5)">n</text><text xml:space="preserve" font-family="Courier,Courier" font-size="30.0" fill="#021993" transform="matrix(1.00, 0.00, -0.00, -1.00, 307.5, 80.5)">v</text><text xml:space="preserve" font-family="Courier,Courier" font-size="30.0" fill="#021993" transform="matrix(1.00, 0.00, -0.00, -1.00, 325.5, 80.5)">e</text><text xml:space="preserve" font-family="Courier,Courier" font-size="30.0" fill="#021993" transform="matrix(1.00, 0.00, -0.00, -1.00, 343.5, 80.5)">r</text><text xml:space="preserve" font-family="Courier,Courier" font-size="30.0" fill="#021993" transform="matrix(1.00, 0.00, -0.00, -1.00, 361.5, 80.5)">t</text><text xml:space="preserve" font-family="Courier,Courier" font-size="30.0" fill="#000000" transform="matrix(1.00, 0.00, -0.00, -1.00, 379.5, 80.5)">(</text><text xml:space="preserve" font-family="Courier,Courier" font-size="30.0" fill="#CC1C00" transform="matrix(1.00, 0.00, -0.00, -1.00, 397.5, 80.5)">'</text><text xml:space="preserve" font-family="Courier,Courier" font-size="30.0" fill="#CC1C00" transform="matrix(1.00, 0.00, -0.00, -1.00, 415.5, 80.5)">L</text><text xml:space="preserve" font-family="Courier,Courier" font-size="30.0" fill="#CC1C00" transform="matrix(1.00, 0.00, -0.00, -1.00, 433.5, 80.5)">'</text><text xml:space="preserve" font-family="Courier,Courier" font-size="30.0" fill="#000000" transform="matrix(1.00, 0.00, -0.00, -1.00, 451.5, 80.5)">)</text><text xml:space="preserve" font-family="Courier,Courier" font-size="30.0" fill="#000000" transform="matrix(1.00, 0.00, -0.00, -1.00, 469.5, 80.5)">.</text><text xml:space="preserve" font-family="Courier,Courier" font-size="30.0" fill="#021993" transform="matrix(1.00, 0.00, -0.00, -1.00, 487.5, 80.5)">r</text><text xml:space="preserve" font-family="Courier,Courier" font-size="30.0" fill="#021993" transform="matrix(1.00, 0.00, -0.00, -1.00, 505.5, 80.5)">e</text><text xml:space="preserve" font-family="Courier,Courier" font-size="30.0" fill="#021993" transform="matrix(1.00, 0.00, -0.00, -1.00, 523.5, 80.5)">s</text><text xml:space="preserve" font-family="Courier,Courier" font-size="30.0" fill="#021993" transform="matrix(1.00, 0.00, -0.00, -1.00, 541.5, 80.5)">i</text><text xml:space="preserve" font-family="Courier,Courier" font-size="30.0" fill="#021993" transform="matrix(1.00, 0.00, -0.00, -1.00, 559.5, 80.5)">z</text><text xml:space="preserve" font-family="Courier,Courier" font-size="30.0" fill="#021993" transform="matrix(1.00, 0.00, -0.00, -1.00, 577.5, 80.5)">e</text><text xml:space="preserve" font-family="Courier,Courier" font-size="30.0" fill="#000000" transform="matrix(1.00, 0.00, -0.00, -1.00, 595.5, 80.5)">(</text><text xml:space="preserve" font-family="Courier,Courier" font-size="30.0" fill="#000000" transform="matrix(1.00, 0.00, -0.00, -1.00, 613.5, 80.5)">(</text><text xml:space="preserve" font-family="Courier,Courier" font-size="30.0" fill="#BE8F00" transform="matrix(1.00, 0.00, -0.00, -1.00, 631.5, 80.5)">8</text><text xml:space="preserve" font-family="Courier,Courier" font-size="30.0" fill="#000000" transform="matrix(1.00, 0.00, -0.00, -1.00, 649.5, 80.5)">,</text><text xml:space="preserve" font-family="Courier,Courier" font-size="30.0" fill="#000000" transform="matrix(1.00, 0.00, -0.00, -1.00, 667.5, 80.5)"> </text><text xml:space="preserve" font-family="Courier,Courier" font-size="30.0" fill="#BE8F00" transform="matrix(1.00, 0.00, -0.00, -1.00, 685.5, 80.5)">9</text><text xml:space="preserve" font-family="Courier,Courier" font-size="30.0" fill="#000000" transform="matrix(1.00, 0.00, -0.00, -1.00, 703.6, 80.5)">)</text><text xml:space="preserve" font-family="Courier,Courier" font-size="30.0" fill="#000000" transform="matrix(1.00, 0.00, -0.00, -1.00, 721.6, 80.5)">)</text><text xml:space="preserve" font-family="Courier,Courier" font-size="30.0" fill="#000000" transform="matrix(1.00, 0.00, -0.00, -1.00, 1.4, 44.5)">p</text><text xml:space="preserve" font-family="Courier,Courier" font-size="30.0" fill="#000000" transform="matrix(1.00, 0.00, -0.00, -1.00, 19.4, 44.5)">i</text><text xml:space="preserve" font-family="Courier,Courier" font-size="30.0" fill="#000000" transform="matrix(1.00, 0.00, -0.00, -1.00, 37.4, 44.5)">x</text><text xml:space="preserve" font-family="Courier,Courier" font-size="30.0" fill="#000000" transform="matrix(1.00, 0.00, -0.00, -1.00, 55.4, 44.5)">e</text><text xml:space="preserve" font-family="Courier,Courier" font-size="30.0" fill="#000000" transform="matrix(1.00, 0.00, -0.00, -1.00, 73.5, 44.5)">l</text><text xml:space="preserve" font-family="Courier,Courier" font-size="30.0" fill="#000000" transform="matrix(1.00, 0.00, -0.00, -1.00, 91.5, 44.5)">s</text><text xml:space="preserve" font-family="Courier,Courier" font-size="30.0" fill="#000000" transform="matrix(1.00, 0.00, -0.00, -1.00, 109.5, 44.5)"> </text><text xml:space="preserve" font-family="Courier,Courier" font-size="30.0" fill="#000000" transform="matrix(1.00, 0.00, -0.00, -1.00, 127.5, 44.5)">=</text><text xml:space="preserve" font-family="Courier,Courier" font-size="30.0" fill="#000000" transform="matrix(1.00, 0.00, -0.00, -1.00, 145.5, 44.5)"> </text><text xml:space="preserve" font-family="Courier,Courier" font-size="30.0" fill="#000000" transform="matrix(1.00, 0.00, -0.00, -1.00, 163.5, 44.5)">n</text><text xml:space="preserve" font-family="Courier,Courier" font-size="30.0" fill="#000000" transform="matrix(1.00, 0.00, -0.00, -1.00, 181.5, 44.5)">u</text><text xml:space="preserve" font-family="Courier,Courier" font-size="30.0" fill="#000000" transform="matrix(1.00, 0.00, -0.00, -1.00, 199.5, 44.5)">m</text><text xml:space="preserve" font-family="Courier,Courier" font-size="30.0" fill="#000000" transform="matrix(1.00, 0.00, -0.00, -1.00, 217.5, 44.5)">p</text><text xml:space="preserve" font-family="Courier,Courier" font-size="30.0" fill="#000000" transform="matrix(1.00, 0.00, -0.00, -1.00, 235.5, 44.5)">y</text><text xml:space="preserve" font-family="Courier,Courier" font-size="30.0" fill="#000000" transform="matrix(1.00, 0.00, -0.00, -1.00, 253.5, 44.5)">.</text><text xml:space="preserve" font-family="Courier,Courier" font-size="30.0" fill="#021993" transform="matrix(1.00, 0.00, -0.00, -1.00, 271.5, 44.5)">a</text><text xml:space="preserve" font-family="Courier,Courier" font-size="30.0" fill="#021993" transform="matrix(1.00, 0.00, -0.00, -1.00, 289.5, 44.5)">r</text><text xml:space="preserve" font-family="Courier,Courier" font-size="30.0" fill="#021993" transform="matrix(1.00, 0.00, -0.00, -1.00, 307.5, 44.5)">r</text><text xml:space="preserve" font-family="Courier,Courier" font-size="30.0" fill="#021993" transform="matrix(1.00, 0.00, -0.00, -1.00, 325.5, 44.5)">a</text><text xml:space="preserve" font-family="Courier,Courier" font-size="30.0" fill="#021993" transform="matrix(1.00, 0.00, -0.00, -1.00, 343.5, 44.5)">y</text><text xml:space="preserve" font-family="Courier,Courier" font-size="30.0" fill="#000000" transform="matrix(1.00, 0.00, -0.00, -1.00, 361.5, 44.5)">(</text><text xml:space="preserve" font-family="Courier,Courier" font-size="30.0" fill="#000000" transform="matrix(1.00, 0.00, -0.00, -1.00, 379.5, 44.5)">i</text><text xml:space="preserve" font-family="Courier,Courier" font-size="30.0" fill="#000000" transform="matrix(1.00, 0.00, -0.00, -1.00, 397.5, 44.5)">m</text><text xml:space="preserve" font-family="Courier,Courier" font-size="30.0" fill="#000000" transform="matrix(1.00, 0.00, -0.00, -1.00, 415.5, 44.5)">a</text><text xml:space="preserve" font-family="Courier,Courier" font-size="30.0" fill="#000000" transform="matrix(1.00, 0.00, -0.00, -1.00, 433.5, 44.5)">g</text><text xml:space="preserve" font-family="Courier,Courier" font-size="30.0" fill="#000000" transform="matrix(1.00, 0.00, -0.00, -1.00, 451.5, 44.5)">e</text><text xml:space="preserve" font-family="Courier,Courier" font-size="30.0" fill="#000000" transform="matrix(1.00, 0.00, -0.00, -1.00, 469.5, 44.5)">)</text><text xml:space="preserve" font-family="Courier,Courier" font-size="30.0" fill="#000000" transform="matrix(1.00, 0.00, -0.00, -1.00, 1.4, 8.5)">d</text><text xml:space="preserve" font-family="Courier,Courier" font-size="30.0" fill="#000000" transform="matrix(1.00, 0.00, -0.00, -1.00, 19.4, 8.5)">i</text><text xml:space="preserve" font-family="Courier,Courier" font-size="30.0" fill="#000000" transform="matrix(1.00, 0.00, -0.00, -1.00, 37.4, 8.5)">f</text><text xml:space="preserve" font-family="Courier,Courier" font-size="30.0" fill="#000000" transform="matrix(1.00, 0.00, -0.00, -1.00, 55.4, 8.5)">f</text><text xml:space="preserve" font-family="Courier,Courier" font-size="30.0" fill="#000000" transform="matrix(1.00, 0.00, -0.00, -1.00, 73.5, 8.5)"> </text><text xml:space="preserve" font-family="Courier,Courier" font-size="30.0" fill="#000000" transform="matrix(1.00, 0.00, -0.00, -1.00, 91.5, 8.5)">=</text><text xml:space="preserve" font-family="Courier,Courier" font-size="30.0" fill="#000000" transform="matrix(1.00, 0.00, -0.00, -1.00, 109.5, 8.5)"> </text><text xml:space="preserve" font-family="Courier,Courier" font-size="30.0" fill="#000000" transform="matrix(1.00, 0.00, -0.00, -1.00, 127.5, 8.5)">p</text><text xml:space="preserve" font-family="Courier,Courier" font-size="30.0" fill="#000000" transform="matrix(1.00, 0.00, -0.00, -1.00, 145.5, 8.5)">i</text><text xml:space="preserve" font-family="Courier,Courier" font-size="30.0" fill="#000000" transform="matrix(1.00, 0.00, -0.00, -1.00, 163.5, 8.5)">x</text><text xml:space="preserve" font-family="Courier,Courier" font-size="30.0" fill="#000000" transform="matrix(1.00, 0.00, -0.00, -1.00, 181.5, 8.5)">e</text><text xml:space="preserve" font-family="Courier,Courier" font-size="30.0" fill="#000000" transform="matrix(1.00, 0.00, -0.00, -1.00, 199.5, 8.5)">l</text><text xml:space="preserve" font-family="Courier,Courier" font-size="30.0" fill="#000000" transform="matrix(1.00, 0.00, -0.00, -1.00, 217.5, 8.5)">s</text><text xml:space="preserve" font-family="Courier,Courier" font-size="30.0" fill="#000000" transform="matrix(1.00, 0.00, -0.00, -1.00, 235.5, 8.5)">[</text><text xml:space="preserve" font-family="Courier,Courier" font-size="30.0" fill="#BE8F00" transform="matrix(1.00, 0.00, -0.00, -1.00, 253.5, 8.5)">1</text><text xml:space="preserve" font-family="Courier,Courier" font-size="30.0" fill="#000000" transform="matrix(1.00, 0.00, -0.00, -1.00, 271.5, 8.5)">:</text><text xml:space="preserve" font-family="Courier,Courier" font-size="30.0" fill="#000000" transform="matrix(1.00, 0.00, -0.00, -1.00, 289.5, 8.5)">,</text><text xml:space="preserve" font-family="Courier,Courier" font-size="30.0" fill="#000000" transform="matrix(1.00, 0.00, -0.00, -1.00, 307.5, 8.5)">:</text><text xml:space="preserve" font-family="Courier,Courier" font-size="30.0" fill="#000000" transform="matrix(1.00, 0.00, -0.00, -1.00, 325.5, 8.5)">]</text><text xml:space="preserve" font-family="Courier,Courier" font-size="30.0" fill="#000000" transform="matrix(1.00, 0.00, -0.00, -1.00, 343.5, 8.5)"> </text><text xml:space="preserve" font-family="Courier,Courier" font-size="30.0" fill="#000000" transform="matrix(1.00, 0.00, -0.00, -1.00, 361.5, 8.5)">&gt;</text><text xml:space="preserve" font-family="Courier,Courier" font-size="30.0" fill="#000000" transform="matrix(1.00, 0.00, -0.00, -1.00, 379.5, 8.5)"> </text><text xml:space="preserve" font-family="Courier,Courier" font-size="30.0" fill="#000000" transform="matrix(1.00, 0.00, -0.00, -1.00, 397.5, 8.5)">p</text><text xml:space="preserve" font-family="Courier,Courier" font-size="30.0" fill="#000000" transform="matrix(1.00, 0.00, -0.00, -1.00, 415.5, 8.5)">i</text><text xml:space="preserve" font-family="Courier,Courier" font-size="30.0" fill="#000000" transform="matrix(1.00, 0.00, -0.00, -1.00, 433.5, 8.5)">x</text><text xml:space="preserve" font-family="Courier,Courier" font-size="30.0" fill="#000000" transform="matrix(1.00, 0.00, -0.00, -1.00, 451.5, 8.5)">e</text><text xml:space="preserve" font-family="Courier,Courier" font-size="30.0" fill="#000000" transform="matrix(1.00, 0.00, -0.00, -1.00, 469.5, 8.5)">l</text><text xml:space="preserve" font-family="Courier,Courier" font-size="30.0" fill="#000000" transform="matrix(1.00, 0.00, -0.00, -1.00, 487.5, 8.5)">s</text><text xml:space="preserve" font-family="Courier,Courier" font-size="30.0" fill="#000000" transform="matrix(1.00, 0.00, -0.00, -1.00, 505.5, 8.5)">[</text><text xml:space="preserve" font-family="Courier,Courier" font-size="30.0" fill="#000000" transform="matrix(1.00, 0.00, -0.00, -1.00, 523.5, 8.5)">:</text><text xml:space="preserve" font-family="Courier,Courier" font-size="30.0" fill="#000000" transform="matrix(1.00, 0.00, -0.00, -1.00, 541.5, 8.5)">-</text><text xml:space="preserve" font-family="Courier,Courier" font-size="30.0" fill="#BE8F00" transform="matrix(1.00, 0.00, -0.00, -1.00, 559.5, 8.5)">1</text><text xml:space="preserve" font-family="Courier,Courier" font-size="30.0" fill="#000000" transform="matrix(1.00, 0.00, -0.00, -1.00, 577.5, 8.5)">,</text><text xml:space="preserve" font-family="Courier,Courier" font-size="30.0" fill="#000000" transform="matrix(1.00, 0.00, -0.00, -1.00, 595.5, 8.5)">:</text><text xml:space="preserve" font-family="Courier,Courier" font-size="30.0" fill="#000000" transform="matrix(1.00, 0.00, -0.00, -1.00, 613.5, 8.5)">]</text></g></svg>