<?xml version="1.0" encoding="UTF-8" standalone="no"?><svg xmlns="http://www.w3.org/2000/svg" xmlns:xlink="http://www.w3.org/1999/xlink" clip-rule="evenodd" stroke-miterlimit="10" viewBox="0 0 1024 768"><desc>SVG generated by Keynote</desc><defs></defs><g transform="matrix(1.00, 0.00, -0.00, -1.00, 0.0, 768.0)"><path d="M 0.0 768.0 L 1024.0 768.0 L 1024.0 0.0 L 0.0 0.0 Z M 0.0 768.0 " fill="#FFFFFF"></path><image xlink:href="../../2228AE9C-3706-437F-8379-D21BA5B8F0CA/assets/C2129A3EE7512E75FEE2A48785F9B6A3.png" width="1033.00" height="179.00" transform="matrix(0.21, 0.00, -0.00, -0.21, 39.9, 95.6)"></image><image xlink:href="../../A622F7B0-0AE2-42B6-950D-23B25EBBEB2F/assets/D7FADDA8D5E9133FAA5EDB7F920B460F.png" width="590.00" height="48.00" transform="matrix(1.00, 0.00, -0.00, -1.00, 100.0, 668.0)"></image><text xml:space="preserve" font-family="CenturyGothic,Century Gothic" font-size="56.8" fill="#000000" transform="matrix(1.00, 0.00, -0.00, -1.00, 99.8, 621.7)">D</text><text xml:space="preserve" font-family="CenturyGothic,Century Gothic" font-size="56.8" fill="#000000" transform="matrix(1.00, 0.00, -0.00, -1.00, 142.1, 621.7)">I</text><text xml:space="preserve" font-family="CenturyGothic,Century Gothic" font-size="56.8" fill="#000000" transform="matrix(1.00, 0.00, -0.00, -1.00, 155.0, 621.7)">F</text><text xml:space="preserve" font-family="CenturyGothic,Century Gothic" font-size="56.8" fill="#000000" transform="matrix(1.00, 0.00, -0.00, -1.00, 182.6, 621.7)">F</text><text xml:space="preserve" font-family="CenturyGothic,Century Gothic" font-size="56.8" fill="#000000" transform="matrix(1.00, 0.00, -0.00, -1.00, 210.1, 621.7)">E</text><text xml:space="preserve" font-family="CenturyGothic,Century Gothic" font-size="56.8" fill="#000000" transform="matrix(1.00, 0.00, -0.00, -1.00, 240.6, 621.7)">R</text><text xml:space="preserve" font-family="CenturyGothic,Century Gothic" font-size="56.8" fill="#000000" transform="matrix(1.00, 0.00, -0.00, -1.00, 275.1, 621.7)">E</text><text xml:space="preserve" font-family="CenturyGothic,Century Gothic" font-size="56.8" fill="#000000" transform="matrix(1.00, 0.00, -0.00, -1.00, 305.6, 621.7)">N</text><text xml:space="preserve" font-family="CenturyGothic,Century Gothic" font-size="56.8" fill="#000000" transform="matrix(1.00, 0.00, -0.00, -1.00, 347.6, 621.7)">C</text><text xml:space="preserve" font-family="CenturyGothic,Century Gothic" font-size="56.8" fill="#000000" transform="matrix(1.00, 0.00, -0.00, -1.00, 393.8, 621.7)">E</text><text xml:space="preserve" font-family="CenturyGothic,Century Gothic" font-size="56.8" fill="#000000" transform="matrix(1.00, 0.00, -0.00, -1.00, 424.3, 621.7)"> </text><text xml:space="preserve" font-family="CenturyGothic,Century Gothic" font-size="56.8" fill="#000000" transform="matrix(1.00, 0.00, -0.00, -1.00, 440.0, 621.7)">H</text><text xml:space="preserve" font-family="CenturyGothic,Century Gothic" font-size="56.8" fill="#000000" transform="matrix(1.00, 0.00, -0.00, -1.00, 478.8, 621.7)">A</text><text xml:space="preserve" font-family="CenturyGothic,Century Gothic" font-size="56.8" fill="#000000" transform="matrix(1.00, 0.00, -0.00, -1.00, 520.9, 621.7)">S</text><text xml:space="preserve" font-family="CenturyGothic,Century Gothic" font-size="56.8" fill="#000000" transform="matrix(1.00, 0.00, -0.00, -1.00, 549.2, 621.7)">H</text><text xml:space="preserve" font-family="CenturyGothic,Century Gothic" font-size="56.8" fill="#000000" transform="matrix(1.00, 0.00, -0.00, -1.00, 588.0, 621.7)">I</text><text xml:space="preserve" font-family="CenturyGothic,Century Gothic" font-size="56.8" fill="#000000" transform="matrix(1.00, 0.00, -0.00, -1.00, 600.9, 621.7)">N</text><text xml:space="preserve" font-family="CenturyGothic,Century Gothic" font-size="56.8" fill="#000000" transform="matrix(1.00, 0.00, -0.00, -1.00, 642.9, 621.7)">G</text><text xml:space="preserve" font-family="CenturyGothic-Bold,Century Gothic" font-weight="bold" font-size="28.0" fill="#525252" transform="matrix(1.00, 0.00, -0.00, -1.00, 933.5, 65.6)">2</text><text xml:space="preserve" font-family="CenturyGothic-Bold,Century Gothic" font-weight="bold" font-size="28.0" fill="#525252" transform="matrix(1.00, 0.00, -0.00, -1.00, 949.2, 65.6)">0</text><text xml:space="preserve" font-family="Courier,Courier" font-size="30.0" fill="#000000" transform="matrix(1.00, 0.00, -0.00, -1.00, 133.4, 559.5)">i</text><text xml:space="preserve" font-family="Courier,Courier" font-size="30.0" fill="#000000" transform="matrix(1.00, 0.00, -0.00, -1.00, 151.4, 559.5)">m</text><text xml:space="preserve" font-family="Courier,Courier" font-size="30.0" fill="#000000" transform="matrix(1.00, 0.00, -0.00, -1.00, 169.4, 559.5)">a</text><text xml:space="preserve" font-family="Courier,Courier" font-size="30.0" fill="#000000" transform="matrix(1.00, 0.00, -0.00, -1.00, 187.4, 559.5)">g</text><text xml:space="preserve" font-family="Courier,Courier" font-size="30.0" fill="#000000" transform="matrix(1.00, 0.00, -0.00, -1.00, 205.5, 559.5)">e</text><text xml:space="preserve" font-family="Courier,Courier" font-size="30.0" fill="#000000" transform="matrix(1.00, 0.00, -0.00, -1.00, 223.5, 559.5)"> </text><text xml:space="preserve" font-family="Courier,Courier" font-size="30.0" fill="#000000" transform="matrix(1.00, 0.00, -0.00, -1.00, 241.5, 559.5)">=</text><text xml:space="preserve" font-family="Courier,Courier" font-size="30.0" fill="#000000" transform="matrix(1.00, 0.00, -0.00, -1.00, 259.5, 559.5)"> </text><text xml:space="preserve" font-family="Courier,Courier" font-size="30.0" fill="#000000" transform="matrix(1.00, 0.00, -0.00, -1.00, 277.5, 559.5)">i</text><text xml:space="preserve" font-family="Courier,Courier" font-size="30.0" fill="#000000" transform="matrix(1.00, 0.00, -0.00, -1.00, 295.5, 559.5)">m</text><text xml:space="preserve" font-family="Courier,Courier" font-size="30.0" fill="#000000" transform="matrix(1.00, 0.00, -0.00, -1.00, 313.5, 559.5)">a</text><text xml:space="preserve" font-family="Courier,Courier" font-size="30.0" fill="#000000" transform="matrix(1.00, 0.00, -0.00, -1.00, 331.5, 559.5)">g</text><text xml:space="preserve" font-family="Courier,Courier" font-size="30.0" fill="#000000" transform="matrix(1.00, 0.00, -0.00, -1.00, 349.5, 559.5)">e</text><text xml:space="preserve" font-family="Courier,Courier" font-size="30.0" fill="#000000" transform="matrix(1.00, 0.00, -0.00, -1.00, 367.5, 559.5)">.</text><text xml:space="preserve" font-family="Courier,Courier" font-size="30.0" fill="#021993" transform="matrix(1.00, 0.00, -0.00, -1.00, 385.5, 559.5)">c</text><text xml:space="preserve" font-family="Courier,Courier" font-size="30.0" fill="#021993" transform="matrix(1.00, 0.00, -0.00, -1.00, 403.5, 559.5)">o</text><text xml:space="preserve" font-family="Courier,Courier" font-size="30.0" fill="#021993" transform="matrix(1.00, 0.00, -0.00, -1.00, 421.5, 559.5)">n</text><text xml:space="preserve" font-family="Courier,Courier" font-size="30.0" fill="#021993" transform="matrix(1.00, 0.00, -0.00, -1.00, 439.5, 559.5)">v</text><text xml:space="preserve" font-family="Courier,Courier" font-size="30.0" fill="#021993" transform="matrix(1.00, 0.00, -0.00, -1.00, 457.5, 559.5)">e</text><text xml:space="preserve" font-family="Courier,Courier" font-size="30.0" fill="#021993" transform="matrix(1.00, 0.00, -0.00, -1.00, 475.5, 559.5)">r</text><text xml:space="preserve" font-family="Courier,Courier" font-size="30.0" fill="#021993" transform="matrix(1.00, 0.00, -0.00, -1.00, 493.5, 559.5)">t</text><text xml:space="preserve" font-family="Courier,Courier" font-size="30.0" fill="#000000" transform="matrix(1.00, 0.00, -0.00, -1.00, 511.5, 559.5)">(</text><text xml:space="preserve" font-family="Courier,Courier" font-size="30.0" fill="#CC1C00" transform="matrix(1.00, 0.00, -0.00, -1.00, 529.5, 559.5)">'</text><text xml:space="preserve" font-family="Courier,Courier" font-size="30.0" fill="#CC1C00" transform="matrix(1.00, 0.00, -0.00, -1.00, 547.5, 559.5)">L</text><text xml:space="preserve" font-family="Courier,Courier" font-size="30.0" fill="#CC1C00" transform="matrix(1.00, 0.00, -0.00, -1.00, 565.5, 559.5)">'</text><text xml:space="preserve" font-family="Courier,Courier" font-size="30.0" fill="#000000" transform="matrix(1.00, 0.00, -0.00, -1.00, 583.5, 559.5)">)</text><text xml:space="preserve" font-family="Courier,Courier" font-size="30.0" fill="#000000" transform="matrix(1.00, 0.00, -0.00, -1.00, 601.5, 559.5)">.</text><text xml:space="preserve" font-family="Courier,Courier" font-size="30.0" fill="#021993" transform="matrix(1.00, 0.00, -0.00, -1.00, 619.5, 559.5)">r</text><text xml:space="preserve" font-family="Courier,Courier" font-size="30.0" fill="#021993" transform="matrix(1.00, 0.00, -0.00, -1.00, 637.5, 559.5)">e</text><text xml:space="preserve" font-family="Courier,Courier" font-size="30.0" fill="#021993" transform="matrix(1.00, 0.00, -0.00, -1.00, 655.5, 559.5)">s</text><text xml:space="preserve" font-family="Courier,Courier" font-size="30.0" fill="#021993" transform="matrix(1.00, 0.00, -0.00, -1.00, 673.5, 559.5)">i</text><text xml:space="preserve" font-family="Courier,Courier" font-size="30.0" fill="#021993" transform="matrix(1.00, 0.00, -0.00, -1.00, 691.5, 559.5)">z</text><text xml:space="preserve" font-family="Courier,Courier" font-size="30.0" fill="#021993" transform="matrix(1.00, 0.00, -0.00, -1.00, 709.5, 559.5)">e</text><text xml:space="preserve" font-family="Courier,Courier" font-size="30.0" fill="#000000" transform="matrix(1.00, 0.00, -0.00, -1.00, 727.5, 559.5)">(</text><text xml:space="preserve" font-family="Courier,Courier" font-size="30.0" fill="#000000" transform="matrix(1.00, 0.00, -0.00, -1.00, 745.5, 559.5)">(</text><text xml:space="preserve" font-family="Courier,Courier" font-size="30.0" fill="#BE8F00" transform="matrix(1.00, 0.00, -0.00, -1.00, 763.5, 559.5)">8</text><text xml:space="preserve" font-family="Courier,Courier" font-size="30.0" fill="#000000" transform="matrix(1.00, 0.00, -0.00, -1.00, 781.5, 559.5)">,</text><text xml:space="preserve" font-family="Courier,Courier" font-size="30.0" fill="#000000" transform="matrix(1.00, 0.00, -0.00, -1.00, 799.5, 559.5)"> </text><text xml:space="preserve" font-family="Courier,Courier" font-size="30.0" fill="#BE8F00" transform="matrix(1.00, 0.00, -0.00, -1.00, 817.5, 559.5)">9</text><text xml:space="preserve" font-family="Courier,Courier" font-size="30.0" fill="#000000" transform="matrix(1.00, 0.00, -0.00, -1.00, 835.6, 559.5)">)</text><text xml:space="preserve" font-family="Courier,Courier" font-size="30.0" fill="#000000" transform="matrix(1.00, 0.00, -0.00, -1.00, 853.6, 559.5)">)</text><text xml:space="preserve" font-family="Courier,Courier" font-size="30.0" fill="#000000" transform="matrix(1.00, 0.00, -0.00, -1.00, 133.4, 523.5)">p</text><text xml:space="preserve" font-family="Courier,Courier" font-size="30.0" fill="#000000" transform="matrix(1.00, 0.00, -0.00, -1.00, 151.4, 523.5)">i</text><text xml:space="preserve" font-family="Courier,Courier" font-size="30.0" fill="#000000" transform="matrix(1.00, 0.00, -0.00, -1.00, 169.4, 523.5)">x</text><text xml:space="preserve" font-family="Courier,Courier" font-size="30.0" fill="#000000" transform="matrix(1.00, 0.00, -0.00, -1.00, 187.4, 523.5)">e</text><text xml:space="preserve" font-family="Courier,Courier" font-size="30.0" fill="#000000" transform="matrix(1.00, 0.00, -0.00, -1.00, 205.5, 523.5)">l</text><text xml:space="preserve" font-family="Courier,Courier" font-size="30.0" fill="#000000" transform="matrix(1.00, 0.00, -0.00, -1.00, 223.5, 523.5)">s</text><text xml:space="preserve" font-family="Courier,Courier" font-size="30.0" fill="#000000" transform="matrix(1.00, 0.00, -0.00, -1.00, 241.5, 523.5)"> </text><text xml:space="preserve" font-family="Courier,Courier" font-size="30.0" fill="#000000" transform="matrix(1.00, 0.00, -0.00, -1.00, 259.5, 523.5)">=</text><text xml:space="preserve" font-family="Courier,Courier" font-size="30.0" fill="#000000" transform="matrix(1.00, 0.00, -0.00, -1.00, 277.5, 523.5)"> </text><text xml:space="preserve" font-family="Courier,Courier" font-size="30.0" fill="#000000" transform="matrix(1.00, 0.00, -0.00, -1.00, 295.5, 523.5)">n</text><text xml:space="preserve" font-family="Courier,Courier" font-size="30.0" fill="#000000" transform="matrix(1.00, 0.00, -0.00, -1.00, 313.5, 523.5)">u</text><text xml:space="preserve" font-family="Courier,Courier" font-size="30.0" fill="#000000" transform="matrix(1.00, 0.00, -0.00, -1.00, 331.5, 523.5)">m</text><text xml:space="preserve" font-family="Courier,Courier" font-size="30.0" fill="#000000" transform="matrix(1.00, 0.00, -0.00, -1.00, 349.5, 523.5)">p</text><text xml:space="preserve" font-family="Courier,Courier" font-size="30.0" fill="#000000" transform="matrix(1.00, 0.00, -0.00, -1.00, 367.5, 523.5)">y</text><text xml:space="preserve" font-family="Courier,Courier" font-size="30.0" fill="#000000" transform="matrix(1.00, 0.00, -0.00, -1.00, 385.5, 523.5)">.</text><text xml:space="preserve" font-family="Courier,Courier" font-size="30.0" fill="#021993" transform="matrix(1.00, 0.00, -0.00, -1.00, 403.5, 523.5)">a</text><text xml:space="preserve" font-family="Courier,Courier" font-size="30.0" fill="#021993" transform="matrix(1.00, 0.00, -0.00, -1.00, 421.5, 523.5)">r</text><text xml:space="preserve" font-family="Courier,Courier" font-size="30.0" fill="#021993" transform="matrix(1.00, 0.00, -0.00, -1.00, 439.5, 523.5)">r</text><text xml:space="preserve" font-family="Courier,Courier" font-size="30.0" fill="#021993" transform="matrix(1.00, 0.00, -0.00, -1.00, 457.5, 523.5)">a</text><text xml:space="preserve" font-family="Courier,Courier" font-size="30.0" fill="#021993" transform="matrix(1.00, 0.00, -0.00, -1.00, 475.5, 523.5)">y</text><text xml:space="preserve" font-family="Courier,Courier" font-size="30.0" fill="#000000" transform="matrix(1.00, 0.00, -0.00, -1.00, 493.5, 523.5)">(</text><text xml:space="preserve" font-family="Courier,Courier" font-size="30.0" fill="#000000" transform="matrix(1.00, 0.00, -0.00, -1.00, 511.5, 523.5)">i</text><text xml:space="preserve" font-family="Courier,Courier" font-size="30.0" fill="#000000" transform="matrix(1.00, 0.00, -0.00, -1.00, 529.5, 523.5)">m</text><text xml:space="preserve" font-family="Courier,Courier" font-size="30.0" fill="#000000" transform="matrix(1.00, 0.00, -0.00, -1.00, 547.5, 523.5)">a</text><text xml:space="preserve" font-family="Courier,Courier" font-size="30.0" fill="#000000" transform="matrix(1.00, 0.00, -0.00, -1.00, 565.5, 523.5)">g</text><text xml:space="preserve" font-family="Courier,Courier" font-size="30.0" fill="#000000" transform="matrix(1.00, 0.00, -0.00, -1.00, 583.5, 523.5)">e</text><text xml:space="preserve" font-family="Courier,Courier" font-size="30.0" fill="#000000" transform="matrix(1.00, 0.00, -0.00, -1.00, 601.5, 523.5)">)</text><text xml:space="preserve" font-family="Courier,Courier" font-size="30.0" fill="#000000" transform="matrix(1.00, 0.00, -0.00, -1.00, 133.4, 487.5)">d</text><text xml:space="preserve" font-family="Courier,Courier" font-size="30.0" fill="#000000" transform="matrix(1.00, 0.00, -0.00, -1.00, 151.4, 487.5)">i</text><text xml:space="preserve" font-family="Courier,Courier" font-size="30.0" fill="#000000" transform="matrix(1.00, 0.00, -0.00, -1.00, 169.4, 487.5)">f</text><text xml:space="preserve" font-family="Courier,Courier" font-size="30.0" fill="#000000" transform="matrix(1.00, 0.00, -0.00, -1.00, 187.4, 487.5)">f</text><text xml:space="preserve" font-family="Courier,Courier" font-size="30.0" fill="#000000" transform="matrix(1.00, 0.00, -0.00, -1.00, 205.5, 487.5)"> </text><text xml:space="preserve" font-family="Courier,Courier" font-size="30.0" fill="#000000" transform="matrix(1.00, 0.00, -0.00, -1.00, 223.5, 487.5)">=</text><text xml:space="preserve" font-family="Courier,Courier" font-size="30.0" fill="#000000" transform="matrix(1.00, 0.00, -0.00, -1.00, 241.5, 487.5)"> </text><text xml:space="preserve" font-family="Courier,Courier" font-size="30.0" fill="#000000" transform="matrix(1.00, 0.00, -0.00, -1.00, 259.5, 487.5)">p</text><text xml:space="preserve" font-family="Courier,Courier" font-size="30.0" fill="#000000" transform="matrix(1.00, 0.00, -0.00, -1.00, 277.5, 487.5)">i</text><text xml:space="preserve" font-family="Courier,Courier" font-size="30.0" fill="#000000" transform="matrix(1.00, 0.00, -0.00, -1.00, 295.5, 487.5)">x</text><text xml:space="preserve" font-family="Courier,Courier" font-size="30.0" fill="#000000" transform="matrix(1.00, 0.00, -0.00, -1.00, 313.5, 487.5)">e</text><text xml:space="preserve" font-family="Courier,Courier" font-size="30.0" fill="#000000" transform="matrix(1.00, 0.00, -0.00, -1.00, 331.5, 487.5)">l</text><text xml:space="preserve" font-family="Courier,Courier" font-size="30.0" fill="#000000" transform="matrix(1.00, 0.00, -0.00, -1.00, 349.5, 487.5)">s</text><text xml:space="preserve" font-family="Courier,Courier" font-size="30.0" fill="#000000" transform="matrix(1.00, 0.00, -0.00, -1.00, 367.5, 487.5)">[</text><text xml:space="preserve" font-family="Courier,Courier" font-size="30.0" fill="#BE8F00" transform="matrix(1.00, 0.00, -0.00, -1.00, 385.5, 487.5)">1</text><text xml:space="preserve" font-family="Courier,Courier" font-size="30.0" fill="#000000" transform="matrix(1.00, 0.00, -0.00, -1.00, 403.5, 487.5)">:</text><text xml:space="preserve" font-family="Courier,Courier" font-size="30.0" fill="#000000" transform="matrix(1.00, 0.00, -0.00, -1.00, 421.5, 487.5)">,</text><text xml:space="preserve" font-family="Courier,Courier" font-size="30.0" fill="#000000" transform="matrix(1.00, 0.00, -0.00, -1.00, 439.5, 487.5)">:</text><text xml:space="preserve" font-family="Courier,Courier" font-size="30.0" fill="#000000" transform="matrix(1.00, 0.00, -0.00, -1.00, 457.5, 487.5)">]</text><text xml:space="preserve" font-family="Courier,Courier" font-size="30.0" fill="#000000" transform="matrix(1.00, 0.00, -0.00, -1.00, 475.5, 487.5)"> </text><text xml:space="preserve" font-family="Courier,Courier" font-size="30.0" fill="#000000" transform="matrix(1.00, 0.00, -0.00, -1.00, 493.5, 487.5)">&gt;</text><text xml:space="preserve" font-family="Courier,Courier" font-size="30.0" fill="#000000" transform="matrix(1.00, 0.00, -0.00, -1.00, 511.5, 487.5)"> </text><text xml:space="preserve" font-family="Courier,Courier" font-size="30.0" fill="#000000" transform="matrix(1.00, 0.00, -0.00, -1.00, 529.5, 487.5)">p</text><text xml:space="preserve" font-family="Courier,Courier" font-size="30.0" fill="#000000" transform="matrix(1.00, 0.00, -0.00, -1.00, 547.5, 487.5)">i</text><text xml:space="preserve" font-family="Courier,Courier" font-size="30.0" fill="#000000" transform="matrix(1.00, 0.00, -0.00, -1.00, 565.5, 487.5)">x</text><text xml:space="preserve" font-family="Courier,Courier" font-size="30.0" fill="#000000" transform="matrix(1.00, 0.00, -0.00, -1.00, 583.5, 487.5)">e</text><text xml:space="preserve" font-family="Courier,Courier" font-size="30.0" fill="#000000" transform="matrix(1.00, 0.00, -0.00, -1.00, 601.5, 487.5)">l</text><text xml:space="preserve" font-family="Courier,Courier" font-size="30.0" fill="#000000" transform="matrix(1.00, 0.00, -0.00, -1.00, 619.5, 487.5)">s</text><text xml:space="preserve" font-family="Courier,Courier" font-size="30.0" fill="#000000" transform="matrix(1.00, 0.00, -0.00, -1.00, 637.5, 487.5)">[</text><text xml:space="preserve" font-family="Courier,Courier" font-size="30.0" fill="#000000" transform="matrix(1.00, 0.00, -0.00, -1.00, 655.5, 487.5)">:</text><text xml:space="preserve" font-family="Courier,Courier" font-size="30.0" fill="#000000" transform="matrix(1.00, 0.00, -0.00, -1.00, 673.5, 487.5)">-</text><text xml:space="preserve" font-family="Courier,Courier" font-size="30.0" fill="#BE8F00" transform="matrix(1.00, 0.00, -0.00, -1.00, 691.5, 487.5)">1</text><text xml:space="preserve" font-family="Courier,Courier" font-size="30.0" fill="#000000" transform="matrix(1.00, 0.00, -0.00, -1.00, 709.5, 487.5)">,</text><text xml:space="preserve" font-family="Courier,Courier" font-size="30.0" fill="#000000" transform="matrix(1.00, 0.00, -0.00, -1.00, 727.5, 487.5)">:</text><text xml:space="preserve" font-family="Courier,Courier" font-size="30.0" fill="#000000" transform="matrix(1.00, 0.00, -0.00, -1.00, 745.5, 487.5)">]</text><image xlink:href="../../DCA5EDCF-A707-4532-9D8E-E8536424EA90/assets/7B39EF43ABECDC44E1C67F266BE75F02.jpeg" width="256.00" height="256.00" transform="matrix(1.07, 0.00, -0.00, -1.07, 577.7, 427.6)"></image><image xlink:href="../../DCA5EDCF-A707-4532-9D8E-E8536424EA90/assets/DD68C3BA0FF2151406DEA7FC5D2F9D05.jpeg" width="256.00" height="256.00" transform="matrix(1.07, 0.00, -0.00, -1.07, 146.0, 427.6)"></image></g></svg>