<?xml version="1.0" encoding="UTF-8" standalone="no"?><svg xmlns="http://www.w3.org/2000/svg" xmlns:xlink="http://www.w3.org/1999/xlink" clip-rule="evenodd" stroke-miterlimit="10" viewBox="0 0 1024 768"><desc>SVG generated by Keynote</desc><defs></defs><g transform="matrix(1.00, 0.00, -0.00, -1.00, 0.0, 768.0)"><path d="M 0.0 768.0 L 1024.0 768.0 L 1024.0 0.0 L 0.0 0.0 Z M 0.0 768.0 " fill="#FFFFFF"></path><image xlink:href="../../2228AE9C-3706-437F-8379-D21BA5B8F0CA/assets/C2129A3EE7512E75FEE2A48785F9B6A3.png" width="1033.00" height="179.00" transform="matrix(0.21, 0.00, -0.00, -0.21, 39.9, 95.6)"></image><image xlink:href="042CEC31DB2D0E9AA4A291816078B76D.png" width="495.00" height="53.00" transform="matrix(1.00, 0.00, -0.00, -1.00, 100.0, 668.0)"></image><text xml:space="preserve" font-family="CenturyGothic,Century Gothic" font-size="56.8" fill="#000000" transform="matrix(1.00, 0.00, -0.00, -1.00, 99.8, 621.7)">П</text><text xml:space="preserve" font-family="CenturyGothic,Century Gothic" font-size="56.8" fill="#000000" transform="matrix(1.00, 0.00, -0.00, -1.00, 138.7, 621.7)">Р</text><text xml:space="preserve" font-family="CenturyGothic,Century Gothic" font-size="56.8" fill="#000000" transform="matrix(1.00, 0.00, -0.00, -1.00, 172.3, 621.7)">Е</text><text xml:space="preserve" font-family="CenturyGothic,Century Gothic" font-size="56.8" fill="#000000" transform="matrix(1.00, 0.00, -0.00, -1.00, 202.8, 621.7)">П</text><text xml:space="preserve" font-family="CenturyGothic,Century Gothic" font-size="56.8" fill="#000000" transform="matrix(1.00, 0.00, -0.00, -1.00, 241.6, 621.7)">Р</text><text xml:space="preserve" font-family="CenturyGothic,Century Gothic" font-size="56.8" fill="#000000" transform="matrix(1.00, 0.00, -0.00, -1.00, 275.2, 621.7)">О</text><text xml:space="preserve" font-family="CenturyGothic,Century Gothic" font-size="56.8" fill="#000000" transform="matrix(1.00, 0.00, -0.00, -1.00, 324.6, 621.7)">Ц</text><text xml:space="preserve" font-family="CenturyGothic,Century Gothic" font-size="56.8" fill="#000000" transform="matrix(1.00, 0.00, -0.00, -1.00, 364.9, 621.7)">Е</text><text xml:space="preserve" font-family="CenturyGothic,Century Gothic" font-size="56.8" fill="#000000" transform="matrix(1.00, 0.00, -0.00, -1.00, 395.4, 621.7)">С</text><text xml:space="preserve" font-family="CenturyGothic,Century Gothic" font-size="56.8" fill="#000000" transform="matrix(1.00, 0.00, -0.00, -1.00, 441.6, 621.7)">С</text><text xml:space="preserve" font-family="CenturyGothic,Century Gothic" font-size="56.8" fill="#000000" transform="matrix(1.00, 0.00, -0.00, -1.00, 487.8, 621.7)">И</text><text xml:space="preserve" font-family="CenturyGothic,Century Gothic" font-size="56.8" fill="#000000" transform="matrix(1.00, 0.00, -0.00, -1.00, 529.8, 621.7)">Н</text><text xml:space="preserve" font-family="CenturyGothic,Century Gothic" font-size="56.8" fill="#000000" transform="matrix(1.00, 0.00, -0.00, -1.00, 568.7, 621.7)">Г</text><text xml:space="preserve" font-family="CenturyGothic-Bold,Century Gothic" font-weight="bold" font-size="28.0" fill="#525252" transform="matrix(1.00, 0.00, -0.00, -1.00, 933.5, 65.6)">1</text><text xml:space="preserve" font-family="CenturyGothic-Bold,Century Gothic" font-weight="bold" font-size="28.0" fill="#525252" transform="matrix(1.00, 0.00, -0.00, -1.00, 949.2, 65.6)">6</text></g></svg>