<?xml version="1.0" encoding="UTF-8" standalone="no"?><svg xmlns="http://www.w3.org/2000/svg" xmlns:xlink="http://www.w3.org/1999/xlink" clip-rule="evenodd" stroke-miterlimit="10" viewBox="0 0 828 89"><desc>SVG generated by Keynote</desc><defs></defs><g transform="matrix(1.00, 0.00, -0.00, -1.00, 0.0, 89.0)"><image xlink:href="../../2657F215-79A6-45A0-A9D9-E27E91A56954/assets/3CDB03855CC2C0FD3C0508A0189021A0.png" width="18.00" height="18.00" transform="matrix(1.00, 0.00, -0.00, -1.00, 1.0, 74.0)"></image><text xml:space="preserve" font-family="ArialMT,Arial" font-size="36.0" fill="#000000" transform="matrix(1.00, 0.00, -0.00, -1.00, 4.7, 51.0)">•</text><image xlink:href="C383E686EBC605777E41E33239F4FA9E.png" width="38.00" height="35.00" transform="matrix(1.00, 0.00, -0.00, -1.00, 33.0, 81.0)"></image><text xml:space="preserve" font-family="CenturyGothic,Century Gothic" font-size="36.0" fill="#000000" transform="matrix(1.00, 0.00, -0.00, -1.00, 36.6, 49.7)">М</text><image xlink:href="24C58F6E3DF5E271D91208B95199721E.png" width="102.00" height="30.00" transform="matrix(1.00, 0.00, -0.00, -1.00, 66.0, 76.0)"></image><text xml:space="preserve" font-family="CenturyGothic,Century Gothic" font-size="28.8" fill="#000000" transform="matrix(1.00, 0.00, -0.00, -1.00, 69.6, 49.7)">О</text><text xml:space="preserve" font-family="CenturyGothic,Century Gothic" font-size="28.8" fill="#000000" transform="matrix(1.00, 0.00, -0.00, -1.00, 94.7, 49.7)">Ж</text><text xml:space="preserve" font-family="CenturyGothic,Century Gothic" font-size="28.8" fill="#000000" transform="matrix(1.00, 0.00, -0.00, -1.00, 121.6, 49.7)">Н</text><text xml:space="preserve" font-family="CenturyGothic,Century Gothic" font-size="28.8" fill="#000000" transform="matrix(1.00, 0.00, -0.00, -1.00, 141.3, 49.7)">О</text><text xml:space="preserve" font-family="CenturyGothic,Century Gothic" font-size="36.0" fill="#000000" transform="matrix(1.00, 0.00, -0.00, -1.00, 166.3, 49.7)"> </text><image xlink:href="69FCD3184191070567CEEC29CF6945B1.png" width="118.00" height="30.00" transform="matrix(1.00, 0.00, -0.00, -1.00, 173.0, 76.0)"></image><text xml:space="preserve" font-family="CenturyGothic,Century Gothic" font-size="28.8" fill="#000000" transform="matrix(1.00, 0.00, -0.00, -1.00, 176.3, 49.7)">И</text><text xml:space="preserve" font-family="CenturyGothic,Century Gothic" font-size="28.8" fill="#000000" transform="matrix(1.00, 0.00, -0.00, -1.00, 197.6, 49.7)">С</text><text xml:space="preserve" font-family="CenturyGothic,Century Gothic" font-size="28.8" fill="#000000" transform="matrix(1.00, 0.00, -0.00, -1.00, 221.0, 49.7)">К</text><text xml:space="preserve" font-family="CenturyGothic,Century Gothic" font-size="28.8" fill="#000000" transform="matrix(1.00, 0.00, -0.00, -1.00, 238.0, 49.7)">А</text><text xml:space="preserve" font-family="CenturyGothic,Century Gothic" font-size="28.8" fill="#000000" transform="matrix(1.00, 0.00, -0.00, -1.00, 259.3, 49.7)">Т</text><text xml:space="preserve" font-family="CenturyGothic,Century Gothic" font-size="28.8" fill="#000000" transform="matrix(1.00, 0.00, -0.00, -1.00, 271.6, 49.7)">Ь</text><image xlink:href="257F30FA5BBC22AD257C49D5DB31ACCA.png" width="93.00" height="43.00" transform="matrix(1.00, 0.00, -0.00, -1.00, 298.0, 82.0)"></image><text xml:space="preserve" font-family="CenturyGothic,Century Gothic" font-size="36.0" fill="#000000" transform="matrix(1.00, 0.00, -0.00, -1.00, 289.0, 49.7)"> </text><text xml:space="preserve" font-family="CenturyGothic,Century Gothic" font-size="36.0" fill="#000000" transform="matrix(1.00, 0.00, -0.00, -1.00, 299.0, 49.7)">(</text><text xml:space="preserve" font-family="CenturyGothic,Century Gothic" font-size="36.0" fill="#000000" transform="matrix(1.00, 0.00, -0.00, -1.00, 312.3, 49.7)">K</text><text xml:space="preserve" font-family="CenturyGothic,Century Gothic" font-size="36.0" fill="#000000" transform="matrix(1.00, 0.00, -0.00, -1.00, 333.6, 49.7)">D</text><text xml:space="preserve" font-family="CenturyGothic,Century Gothic" font-size="36.0" fill="#000000" transform="matrix(1.00, 0.00, -0.00, -1.00, 360.3, 49.7)">-</text><text xml:space="preserve" font-family="CenturyGothic,Century Gothic" font-size="36.0" fill="#000000" transform="matrix(1.00, 0.00, -0.00, -1.00, 372.3, 49.7)">T</text><image xlink:href="3C558DB2D2F607D9236A46EB39C0FA07.png" width="53.00" height="30.00" transform="matrix(1.00, 0.00, -0.00, -1.00, 385.0, 76.0)"></image><text xml:space="preserve" font-family="CenturyGothic,Century Gothic" font-size="28.8" fill="#000000" transform="matrix(1.00, 0.00, -0.00, -1.00, 387.6, 49.7)">R</text><text xml:space="preserve" font-family="CenturyGothic,Century Gothic" font-size="28.8" fill="#000000" transform="matrix(1.00, 0.00, -0.00, -1.00, 405.1, 49.7)">E</text><text xml:space="preserve" font-family="CenturyGothic,Century Gothic" font-size="28.8" fill="#000000" transform="matrix(1.00, 0.00, -0.00, -1.00, 420.5, 49.7)">E</text><image xlink:href="C4E12010E60BB10EEAFBB820EAE84968.png" width="133.00" height="38.00" transform="matrix(1.00, 0.00, -0.00, -1.00, 433.0, 81.0)"></image><text xml:space="preserve" font-family="CenturyGothic,Century Gothic" font-size="36.0" fill="#000000" transform="matrix(1.00, 0.00, -0.00, -1.00, 436.0, 49.7)">,</text><text xml:space="preserve" font-family="CenturyGothic,Century Gothic" font-size="36.0" fill="#000000" transform="matrix(1.00, 0.00, -0.00, -1.00, 446.0, 49.7)"> </text><text xml:space="preserve" font-family="CenturyGothic,Century Gothic" font-size="36.0" fill="#000000" transform="matrix(1.00, 0.00, -0.00, -1.00, 455.9, 49.7)">M</text><text xml:space="preserve" font-family="CenturyGothic,Century Gothic" font-size="36.0" fill="#000000" transform="matrix(1.00, 0.00, -0.00, -1.00, 489.0, 49.7)">V</text><text xml:space="preserve" font-family="CenturyGothic,Century Gothic" font-size="36.0" fill="#000000" transform="matrix(1.00, 0.00, -0.00, -1.00, 514.3, 49.7)">P</text><text xml:space="preserve" font-family="CenturyGothic,Century Gothic" font-size="36.0" fill="#000000" transform="matrix(1.00, 0.00, -0.00, -1.00, 535.6, 49.7)">-</text><text xml:space="preserve" font-family="CenturyGothic,Century Gothic" font-size="36.0" fill="#000000" transform="matrix(1.00, 0.00, -0.00, -1.00, 547.5, 49.7)">T</text><image xlink:href="52E22AFFD1C3DB346BBC9A82942554CC.png" width="54.00" height="30.00" transform="matrix(1.00, 0.00, -0.00, -1.00, 560.0, 76.0)"></image><text xml:space="preserve" font-family="CenturyGothic,Century Gothic" font-size="28.8" fill="#000000" transform="matrix(1.00, 0.00, -0.00, -1.00, 562.9, 49.7)">R</text><text xml:space="preserve" font-family="CenturyGothic,Century Gothic" font-size="28.8" fill="#000000" transform="matrix(1.00, 0.00, -0.00, -1.00, 580.3, 49.7)">E</text><text xml:space="preserve" font-family="CenturyGothic,Century Gothic" font-size="28.8" fill="#000000" transform="matrix(1.00, 0.00, -0.00, -1.00, 595.8, 49.7)">E</text><image xlink:href="0FAA1BFF24532D132AC1706766E9D1A2.png" width="14.00" height="17.00" transform="matrix(1.00, 0.00, -0.00, -1.00, 608.0, 60.0)"></image><text xml:space="preserve" font-family="CenturyGothic,Century Gothic" font-size="36.0" fill="#000000" transform="matrix(1.00, 0.00, -0.00, -1.00, 611.2, 49.7)">,</text><text xml:space="preserve" font-family="CenturyGothic,Century Gothic" font-size="36.0" fill="#000000" transform="matrix(1.00, 0.00, -0.00, -1.00, 621.2, 49.7)"> </text><image xlink:href="0ED96F29518076950C33461B7FC22068.png" width="56.00" height="30.00" transform="matrix(1.00, 0.00, -0.00, -1.00, 628.0, 76.0)"></image><text xml:space="preserve" font-family="CenturyGothic,Century Gothic" font-size="28.8" fill="#000000" transform="matrix(1.00, 0.00, -0.00, -1.00, 631.2, 49.7)">E</text><text xml:space="preserve" font-family="CenturyGothic,Century Gothic" font-size="28.8" fill="#000000" transform="matrix(1.00, 0.00, -0.00, -1.00, 646.6, 49.7)">T</text><text xml:space="preserve" font-family="CenturyGothic,Century Gothic" font-size="28.8" fill="#000000" transform="matrix(1.00, 0.00, -0.00, -1.00, 658.9, 49.7)">C</text><image xlink:href="1F866741BFDA337F7833FE615432E70C.png" width="120.00" height="43.00" transform="matrix(1.00, 0.00, -0.00, -1.00, 679.0, 82.0)"></image><text xml:space="preserve" font-family="CenturyGothic,Century Gothic" font-size="36.0" fill="#000000" transform="matrix(1.00, 0.00, -0.00, -1.00, 682.3, 49.7)">)</text><text xml:space="preserve" font-family="CenturyGothic,Century Gothic" font-size="36.0" fill="#000000" transform="matrix(1.00, 0.00, -0.00, -1.00, 695.6, 49.7)">.</text><text xml:space="preserve" font-family="CenturyGothic,Century Gothic" font-size="36.0" fill="#000000" transform="matrix(1.00, 0.00, -0.00, -1.00, 705.5, 49.7)"> </text><text xml:space="preserve" font-family="CenturyGothic,Century Gothic" font-size="36.0" fill="#000000" transform="matrix(1.00, 0.00, -0.00, -1.00, 715.5, 49.7)">O</text><text xml:space="preserve" font-family="CenturyGothic,Century Gothic" font-size="36.0" fill="#000000" transform="matrix(1.00, 0.00, -0.00, -1.00, 746.8, 49.7)">(</text><text xml:space="preserve" font-family="CenturyGothic,Century Gothic" font-size="36.0" fill="#000000" transform="matrix(1.00, 0.00, -0.00, -1.00, 760.1, 49.7)">N</text><text xml:space="preserve" font-family="CenturyGothic,Century Gothic" font-size="36.0" fill="#000000" transform="matrix(1.00, 0.00, -0.00, -1.00, 786.7, 49.7)">)</text><text xml:space="preserve" font-family="CenturyGothic,Century Gothic" font-size="36.0" fill="#000000" transform="matrix(1.00, 0.00, -0.00, -1.00, 800.0, 49.7)"> </text><image xlink:href="46008CEB16EB55EEAEA602A7E2C013EC.png" width="21.00" height="30.00" transform="matrix(1.00, 0.00, -0.00, -1.00, 807.0, 76.0)"></image><text xml:space="preserve" font-family="CenturyGothic,Century Gothic" font-size="28.8" fill="#000000" transform="matrix(1.00, 0.00, -0.00, -1.00, 810.0, 49.7)">В</text><text xml:space="preserve" font-family="CenturyGothic,Century Gothic" font-size="36.0" fill="#000000" transform="matrix(1.00, 0.00, -0.00, -1.00, 826.5, 49.7)"> </text><image xlink:href="D4CC6DB80D1393E82D5092C784E14806.png" width="136.00" height="33.00" transform="matrix(1.00, 0.00, -0.00, -1.00, 32.0, 32.0)"></image><text xml:space="preserve" font-family="CenturyGothic-Bold,Century Gothic" font-weight="bold" font-size="28.8" fill="#000000" transform="matrix(1.00, 0.00, -0.00, -1.00, 36.6, 5.7)">Х</text><text xml:space="preserve" font-family="CenturyGothic-Bold,Century Gothic" font-weight="bold" font-size="28.8" fill="#000000" transform="matrix(1.00, 0.00, -0.00, -1.00, 56.2, 5.7)">У</text><text xml:space="preserve" font-family="CenturyGothic-Bold,Century Gothic" font-weight="bold" font-size="28.8" fill="#000000" transform="matrix(1.00, 0.00, -0.00, -1.00, 74.6, 5.7)">Д</text><text xml:space="preserve" font-family="CenturyGothic-Bold,Century Gothic" font-weight="bold" font-size="28.8" fill="#000000" transform="matrix(1.00, 0.00, -0.00, -1.00, 96.8, 5.7)">Ш</text><text xml:space="preserve" font-family="CenturyGothic-Bold,Century Gothic" font-weight="bold" font-size="28.8" fill="#000000" transform="matrix(1.00, 0.00, -0.00, -1.00, 124.6, 5.7)">Е</text><text xml:space="preserve" font-family="CenturyGothic-Bold,Century Gothic" font-weight="bold" font-size="28.8" fill="#000000" transform="matrix(1.00, 0.00, -0.00, -1.00, 139.6, 5.7)">М</text><text xml:space="preserve" font-family="CenturyGothic,Century Gothic" font-size="36.0" fill="#000000" transform="matrix(1.00, 0.00, -0.00, -1.00, 165.5, 5.7)"> </text><image xlink:href="E16771C67C2E6668801C3120EB06B1F5.png" width="120.00" height="30.00" transform="matrix(1.00, 0.00, -0.00, -1.00, 172.0, 32.0)"></image><text xml:space="preserve" font-family="CenturyGothic,Century Gothic" font-size="28.8" fill="#000000" transform="matrix(1.00, 0.00, -0.00, -1.00, 175.5, 5.7)">С</text><text xml:space="preserve" font-family="CenturyGothic,Century Gothic" font-size="28.8" fill="#000000" transform="matrix(1.00, 0.00, -0.00, -1.00, 198.9, 5.7)">Л</text><text xml:space="preserve" font-family="CenturyGothic,Century Gothic" font-size="28.8" fill="#000000" transform="matrix(1.00, 0.00, -0.00, -1.00, 219.1, 5.7)">У</text><text xml:space="preserve" font-family="CenturyGothic,Century Gothic" font-size="28.8" fill="#000000" transform="matrix(1.00, 0.00, -0.00, -1.00, 237.7, 5.7)">Ч</text><text xml:space="preserve" font-family="CenturyGothic,Century Gothic" font-size="28.8" fill="#000000" transform="matrix(1.00, 0.00, -0.00, -1.00, 253.2, 5.7)">А</text><text xml:space="preserve" font-family="CenturyGothic,Century Gothic" font-size="28.8" fill="#000000" transform="matrix(1.00, 0.00, -0.00, -1.00, 274.5, 5.7)">Е</text><image xlink:href="6766EE8A71C04FF1E6C0B725C14886CD.png" width="13.00" height="13.00" transform="matrix(1.00, 0.00, -0.00, -1.00, 288.0, 15.0)"></image><text xml:space="preserve" font-family="CenturyGothic,Century Gothic" font-size="36.0" fill="#000000" transform="matrix(1.00, 0.00, -0.00, -1.00, 290.0, 5.7)">.</text></g></svg>