<?xml version="1.0" encoding="UTF-8" standalone="no"?><svg xmlns="http://www.w3.org/2000/svg" xmlns:xlink="http://www.w3.org/1999/xlink" clip-rule="evenodd" stroke-miterlimit="10" viewBox="0 0 351 49"><desc>SVG generated by Keynote</desc><defs></defs><g transform="matrix(1.00, 0.00, -0.00, -1.00, 0.0, 49.0)"><image xlink:href="3CDB03855CC2C0FD3C0508A0189021A0.png" width="18.00" height="18.00" transform="matrix(1.00, 0.00, -0.00, -1.00, 1.0, 34.0)"></image><text xml:space="preserve" font-family="ArialMT,Arial" font-size="36.0" fill="#000000" transform="matrix(1.00, 0.00, -0.00, -1.00, 4.7, 11.0)">•</text><image xlink:href="CCD0861E09A6418CF486F1A920B5806A.png" width="27.00" height="35.00" transform="matrix(1.00, 0.00, -0.00, -1.00, 34.0, 41.0)"></image><text xml:space="preserve" font-family="CenturyGothic,Century Gothic" font-size="36.0" fill="#000000" transform="matrix(1.00, 0.00, -0.00, -1.00, 36.6, 9.7)">К</text><image xlink:href="8B4985FBAC34616E885DA69F41B99C86.png" width="120.00" height="38.00" transform="matrix(1.00, 0.00, -0.00, -1.00, 53.0, 41.0)"></image><text xml:space="preserve" font-family="CenturyGothic,Century Gothic" font-size="28.8" fill="#000000" transform="matrix(1.00, 0.00, -0.00, -1.00, 57.8, 9.7)">А</text><text xml:space="preserve" font-family="CenturyGothic,Century Gothic" font-size="28.8" fill="#000000" transform="matrix(1.00, 0.00, -0.00, -1.00, 79.1, 9.7)">Ж</text><text xml:space="preserve" font-family="CenturyGothic,Century Gothic" font-size="28.8" fill="#000000" transform="matrix(1.00, 0.00, -0.00, -1.00, 106.1, 9.7)">Д</text><text xml:space="preserve" font-family="CenturyGothic,Century Gothic" font-size="28.8" fill="#000000" transform="matrix(1.00, 0.00, -0.00, -1.00, 127.6, 9.7)">Ы</text><text xml:space="preserve" font-family="CenturyGothic,Century Gothic" font-size="28.8" fill="#000000" transform="matrix(1.00, 0.00, -0.00, -1.00, 150.4, 9.7)">Й</text><text xml:space="preserve" font-family="CenturyGothic,Century Gothic" font-size="36.0" fill="#000000" transform="matrix(1.00, 0.00, -0.00, -1.00, 171.8, 9.7)"> </text><image xlink:href="F39A4DF3BE0A9C28F6C6E3B80E2C4FF6.png" width="29.00" height="30.00" transform="matrix(1.00, 0.00, -0.00, -1.00, 178.0, 36.0)"></image><text xml:space="preserve" font-family="CenturyGothic,Century Gothic" font-size="28.8" fill="#000000" transform="matrix(1.00, 0.00, -0.00, -1.00, 181.7, 9.7)">С</text><text xml:space="preserve" font-family="CenturyGothic,Century Gothic" font-size="36.0" fill="#000000" transform="matrix(1.00, 0.00, -0.00, -1.00, 205.1, 9.7)"> </text><image xlink:href="806B89BDA78DD283838F1E039BAE37E3.png" width="141.00" height="33.00" transform="matrix(1.00, 0.00, -0.00, -1.00, 212.0, 36.0)"></image><text xml:space="preserve" font-family="CenturyGothic,Century Gothic" font-size="28.8" fill="#000000" transform="matrix(1.00, 0.00, -0.00, -1.00, 215.1, 9.7)">К</text><text xml:space="preserve" font-family="CenturyGothic,Century Gothic" font-size="28.8" fill="#000000" transform="matrix(1.00, 0.00, -0.00, -1.00, 232.1, 9.7)">А</text><text xml:space="preserve" font-family="CenturyGothic,Century Gothic" font-size="28.8" fill="#000000" transform="matrix(1.00, 0.00, -0.00, -1.00, 253.4, 9.7)">Ж</text><text xml:space="preserve" font-family="CenturyGothic,Century Gothic" font-size="28.8" fill="#000000" transform="matrix(1.00, 0.00, -0.00, -1.00, 280.3, 9.7)">Д</text><text xml:space="preserve" font-family="CenturyGothic,Century Gothic" font-size="28.8" fill="#000000" transform="matrix(1.00, 0.00, -0.00, -1.00, 301.9, 9.7)">Ы</text><text xml:space="preserve" font-family="CenturyGothic,Century Gothic" font-size="28.8" fill="#000000" transform="matrix(1.00, 0.00, -0.00, -1.00, 324.7, 9.7)">М</text></g></svg>