<?xml version="1.0" encoding="UTF-8" standalone="no"?><svg xmlns="http://www.w3.org/2000/svg" xmlns:xlink="http://www.w3.org/1999/xlink" clip-rule="evenodd" stroke-miterlimit="10" viewBox="0 0 1024 768"><desc>SVG generated by Keynote</desc><defs></defs><g transform="matrix(1.00, 0.00, -0.00, -1.00, 0.0, 768.0)"><path d="M 0.0 768.0 L 1024.0 768.0 L 1024.0 0.0 L 0.0 0.0 Z M 0.0 768.0 " fill="#FFFFFF"></path><image xlink:href="../../2228AE9C-3706-437F-8379-D21BA5B8F0CA/assets/C2129A3EE7512E75FEE2A48785F9B6A3.png" width="1033.00" height="179.00" transform="matrix(0.21, 0.00, -0.00, -0.21, 39.9, 95.6)"></image><image xlink:href="D7FADDA8D5E9133FAA5EDB7F920B460F.png" width="590.00" height="48.00" transform="matrix(1.00, 0.00, -0.00, -1.00, 100.0, 668.0)"></image><text xml:space="preserve" font-family="CenturyGothic,Century Gothic" font-size="56.8" fill="#000000" transform="matrix(1.00, 0.00, -0.00, -1.00, 99.8, 621.7)">D</text><text xml:space="preserve" font-family="CenturyGothic,Century Gothic" font-size="56.8" fill="#000000" transform="matrix(1.00, 0.00, -0.00, -1.00, 142.1, 621.7)">I</text><text xml:space="preserve" font-family="CenturyGothic,Century Gothic" font-size="56.8" fill="#000000" transform="matrix(1.00, 0.00, -0.00, -1.00, 155.0, 621.7)">F</text><text xml:space="preserve" font-family="CenturyGothic,Century Gothic" font-size="56.8" fill="#000000" transform="matrix(1.00, 0.00, -0.00, -1.00, 182.6, 621.7)">F</text><text xml:space="preserve" font-family="CenturyGothic,Century Gothic" font-size="56.8" fill="#000000" transform="matrix(1.00, 0.00, -0.00, -1.00, 210.1, 621.7)">E</text><text xml:space="preserve" font-family="CenturyGothic,Century Gothic" font-size="56.8" fill="#000000" transform="matrix(1.00, 0.00, -0.00, -1.00, 240.6, 621.7)">R</text><text xml:space="preserve" font-family="CenturyGothic,Century Gothic" font-size="56.8" fill="#000000" transform="matrix(1.00, 0.00, -0.00, -1.00, 275.1, 621.7)">E</text><text xml:space="preserve" font-family="CenturyGothic,Century Gothic" font-size="56.8" fill="#000000" transform="matrix(1.00, 0.00, -0.00, -1.00, 305.6, 621.7)">N</text><text xml:space="preserve" font-family="CenturyGothic,Century Gothic" font-size="56.8" fill="#000000" transform="matrix(1.00, 0.00, -0.00, -1.00, 347.6, 621.7)">C</text><text xml:space="preserve" font-family="CenturyGothic,Century Gothic" font-size="56.8" fill="#000000" transform="matrix(1.00, 0.00, -0.00, -1.00, 393.8, 621.7)">E</text><text xml:space="preserve" font-family="CenturyGothic,Century Gothic" font-size="56.8" fill="#000000" transform="matrix(1.00, 0.00, -0.00, -1.00, 424.3, 621.7)"> </text><text xml:space="preserve" font-family="CenturyGothic,Century Gothic" font-size="56.8" fill="#000000" transform="matrix(1.00, 0.00, -0.00, -1.00, 440.0, 621.7)">H</text><text xml:space="preserve" font-family="CenturyGothic,Century Gothic" font-size="56.8" fill="#000000" transform="matrix(1.00, 0.00, -0.00, -1.00, 478.8, 621.7)">A</text><text xml:space="preserve" font-family="CenturyGothic,Century Gothic" font-size="56.8" fill="#000000" transform="matrix(1.00, 0.00, -0.00, -1.00, 520.9, 621.7)">S</text><text xml:space="preserve" font-family="CenturyGothic,Century Gothic" font-size="56.8" fill="#000000" transform="matrix(1.00, 0.00, -0.00, -1.00, 549.2, 621.7)">H</text><text xml:space="preserve" font-family="CenturyGothic,Century Gothic" font-size="56.8" fill="#000000" transform="matrix(1.00, 0.00, -0.00, -1.00, 588.0, 621.7)">I</text><text xml:space="preserve" font-family="CenturyGothic,Century Gothic" font-size="56.8" fill="#000000" transform="matrix(1.00, 0.00, -0.00, -1.00, 600.9, 621.7)">N</text><text xml:space="preserve" font-family="CenturyGothic,Century Gothic" font-size="56.8" fill="#000000" transform="matrix(1.00, 0.00, -0.00, -1.00, 642.9, 621.7)">G</text><text xml:space="preserve" font-family="CenturyGothic-Bold,Century Gothic" font-weight="bold" font-size="28.0" fill="#525252" transform="matrix(1.00, 0.00, -0.00, -1.00, 933.5, 65.6)">2</text><text xml:space="preserve" font-family="CenturyGothic-Bold,Century Gothic" font-weight="bold" font-size="28.0" fill="#525252" transform="matrix(1.00, 0.00, -0.00, -1.00, 949.2, 65.6)">0</text></g></svg>