<?xml version="1.0" encoding="UTF-8" standalone="no"?><svg xmlns="http://www.w3.org/2000/svg" xmlns:xlink="http://www.w3.org/1999/xlink" clip-rule="evenodd" stroke-miterlimit="10" viewBox="0 0 692 130"><desc>SVG generated by Keynote</desc><defs></defs><g transform="matrix(1.00, 0.00, -0.00, -1.00, 0.0, 130.0)"><text xml:space="preserve" font-family="Courier,Courier" font-size="28.0" fill="#000000" transform="matrix(1.00, 0.00, -0.00, -1.00, 1.1, 109.7)">i</text><text xml:space="preserve" font-family="Courier,Courier" font-size="28.0" fill="#000000" transform="matrix(1.00, 0.00, -0.00, -1.00, 17.9, 109.7)">m</text><text xml:space="preserve" font-family="Courier,Courier" font-size="28.0" fill="#000000" transform="matrix(1.00, 0.00, -0.00, -1.00, 34.7, 109.7)">a</text><text xml:space="preserve" font-family="Courier,Courier" font-size="28.0" fill="#000000" transform="matrix(1.00, 0.00, -0.00, -1.00, 51.5, 109.7)">g</text><text xml:space="preserve" font-family="Courier,Courier" font-size="28.0" fill="#000000" transform="matrix(1.00, 0.00, -0.00, -1.00, 68.3, 109.7)">e</text><text xml:space="preserve" font-family="Courier,Courier" font-size="28.0" fill="#000000" transform="matrix(1.00, 0.00, -0.00, -1.00, 85.1, 109.7)"> </text><text xml:space="preserve" font-family="Courier,Courier" font-size="28.0" fill="#000000" transform="matrix(1.00, 0.00, -0.00, -1.00, 101.9, 109.7)">=</text><text xml:space="preserve" font-family="Courier,Courier" font-size="28.0" fill="#000000" transform="matrix(1.00, 0.00, -0.00, -1.00, 118.7, 109.7)"> </text><text xml:space="preserve" font-family="Courier,Courier" font-size="28.0" fill="#000000" transform="matrix(1.00, 0.00, -0.00, -1.00, 135.5, 109.7)">i</text><text xml:space="preserve" font-family="Courier,Courier" font-size="28.0" fill="#000000" transform="matrix(1.00, 0.00, -0.00, -1.00, 152.3, 109.7)">m</text><text xml:space="preserve" font-family="Courier,Courier" font-size="28.0" fill="#000000" transform="matrix(1.00, 0.00, -0.00, -1.00, 169.1, 109.7)">a</text><text xml:space="preserve" font-family="Courier,Courier" font-size="28.0" fill="#000000" transform="matrix(1.00, 0.00, -0.00, -1.00, 185.9, 109.7)">g</text><text xml:space="preserve" font-family="Courier,Courier" font-size="28.0" fill="#000000" transform="matrix(1.00, 0.00, -0.00, -1.00, 202.7, 109.7)">e</text><text xml:space="preserve" font-family="Courier,Courier" font-size="28.0" fill="#000000" transform="matrix(1.00, 0.00, -0.00, -1.00, 219.5, 109.7)">.</text><text xml:space="preserve" font-family="Courier,Courier" font-size="28.0" fill="#021993" transform="matrix(1.00, 0.00, -0.00, -1.00, 236.3, 109.7)">c</text><text xml:space="preserve" font-family="Courier,Courier" font-size="28.0" fill="#021993" transform="matrix(1.00, 0.00, -0.00, -1.00, 253.1, 109.7)">o</text><text xml:space="preserve" font-family="Courier,Courier" font-size="28.0" fill="#021993" transform="matrix(1.00, 0.00, -0.00, -1.00, 269.9, 109.7)">n</text><text xml:space="preserve" font-family="Courier,Courier" font-size="28.0" fill="#021993" transform="matrix(1.00, 0.00, -0.00, -1.00, 286.7, 109.7)">v</text><text xml:space="preserve" font-family="Courier,Courier" font-size="28.0" fill="#021993" transform="matrix(1.00, 0.00, -0.00, -1.00, 303.5, 109.7)">e</text><text xml:space="preserve" font-family="Courier,Courier" font-size="28.0" fill="#021993" transform="matrix(1.00, 0.00, -0.00, -1.00, 320.4, 109.7)">r</text><text xml:space="preserve" font-family="Courier,Courier" font-size="28.0" fill="#021993" transform="matrix(1.00, 0.00, -0.00, -1.00, 337.2, 109.7)">t</text><text xml:space="preserve" font-family="Courier,Courier" font-size="28.0" fill="#000000" transform="matrix(1.00, 0.00, -0.00, -1.00, 354.0, 109.7)">(</text><text xml:space="preserve" font-family="Courier,Courier" font-size="28.0" fill="#CC1C00" transform="matrix(1.00, 0.00, -0.00, -1.00, 370.8, 109.7)">'</text><text xml:space="preserve" font-family="Courier,Courier" font-size="28.0" fill="#CC1C00" transform="matrix(1.00, 0.00, -0.00, -1.00, 387.6, 109.7)">L</text><text xml:space="preserve" font-family="Courier,Courier" font-size="28.0" fill="#CC1C00" transform="matrix(1.00, 0.00, -0.00, -1.00, 404.4, 109.7)">'</text><text xml:space="preserve" font-family="Courier,Courier" font-size="28.0" fill="#000000" transform="matrix(1.00, 0.00, -0.00, -1.00, 421.2, 109.7)">)</text><text xml:space="preserve" font-family="Courier,Courier" font-size="28.0" fill="#000000" transform="matrix(1.00, 0.00, -0.00, -1.00, 438.0, 109.7)">.</text><text xml:space="preserve" font-family="Courier,Courier" font-size="28.0" fill="#021993" transform="matrix(1.00, 0.00, -0.00, -1.00, 454.8, 109.7)">r</text><text xml:space="preserve" font-family="Courier,Courier" font-size="28.0" fill="#021993" transform="matrix(1.00, 0.00, -0.00, -1.00, 471.6, 109.7)">e</text><text xml:space="preserve" font-family="Courier,Courier" font-size="28.0" fill="#021993" transform="matrix(1.00, 0.00, -0.00, -1.00, 488.4, 109.7)">s</text><text xml:space="preserve" font-family="Courier,Courier" font-size="28.0" fill="#021993" transform="matrix(1.00, 0.00, -0.00, -1.00, 505.2, 109.7)">i</text><text xml:space="preserve" font-family="Courier,Courier" font-size="28.0" fill="#021993" transform="matrix(1.00, 0.00, -0.00, -1.00, 522.0, 109.7)">z</text><text xml:space="preserve" font-family="Courier,Courier" font-size="28.0" fill="#021993" transform="matrix(1.00, 0.00, -0.00, -1.00, 538.8, 109.7)">e</text><text xml:space="preserve" font-family="Courier,Courier" font-size="28.0" fill="#000000" transform="matrix(1.00, 0.00, -0.00, -1.00, 555.6, 109.7)">(</text><text xml:space="preserve" font-family="Courier,Courier" font-size="28.0" fill="#000000" transform="matrix(1.00, 0.00, -0.00, -1.00, 572.4, 109.7)">(</text><text xml:space="preserve" font-family="Courier,Courier" font-size="28.0" fill="#BE8F00" transform="matrix(1.00, 0.00, -0.00, -1.00, 589.2, 109.7)">8</text><text xml:space="preserve" font-family="Courier,Courier" font-size="28.0" fill="#000000" transform="matrix(1.00, 0.00, -0.00, -1.00, 606.0, 109.7)">,</text><text xml:space="preserve" font-family="Courier,Courier" font-size="28.0" fill="#000000" transform="matrix(1.00, 0.00, -0.00, -1.00, 622.8, 109.7)"> </text><text xml:space="preserve" font-family="Courier,Courier" font-size="28.0" fill="#BE8F00" transform="matrix(1.00, 0.00, -0.00, -1.00, 639.6, 109.7)">8</text><text xml:space="preserve" font-family="Courier,Courier" font-size="28.0" fill="#000000" transform="matrix(1.00, 0.00, -0.00, -1.00, 656.4, 109.7)">)</text><text xml:space="preserve" font-family="Courier,Courier" font-size="28.0" fill="#000000" transform="matrix(1.00, 0.00, -0.00, -1.00, 673.2, 109.7)">)</text><text xml:space="preserve" font-family="Courier,Courier" font-size="28.0" fill="#000000" transform="matrix(1.00, 0.00, -0.00, -1.00, 1.1, 75.7)">p</text><text xml:space="preserve" font-family="Courier,Courier" font-size="28.0" fill="#000000" transform="matrix(1.00, 0.00, -0.00, -1.00, 17.9, 75.7)">i</text><text xml:space="preserve" font-family="Courier,Courier" font-size="28.0" fill="#000000" transform="matrix(1.00, 0.00, -0.00, -1.00, 34.7, 75.7)">x</text><text xml:space="preserve" font-family="Courier,Courier" font-size="28.0" fill="#000000" transform="matrix(1.00, 0.00, -0.00, -1.00, 51.5, 75.7)">e</text><text xml:space="preserve" font-family="Courier,Courier" font-size="28.0" fill="#000000" transform="matrix(1.00, 0.00, -0.00, -1.00, 68.3, 75.7)">l</text><text xml:space="preserve" font-family="Courier,Courier" font-size="28.0" fill="#000000" transform="matrix(1.00, 0.00, -0.00, -1.00, 85.1, 75.7)">s</text><text xml:space="preserve" font-family="Courier,Courier" font-size="28.0" fill="#000000" transform="matrix(1.00, 0.00, -0.00, -1.00, 101.9, 75.7)"> </text><text xml:space="preserve" font-family="Courier,Courier" font-size="28.0" fill="#000000" transform="matrix(1.00, 0.00, -0.00, -1.00, 118.7, 75.7)">=</text><text xml:space="preserve" font-family="Courier,Courier" font-size="28.0" fill="#000000" transform="matrix(1.00, 0.00, -0.00, -1.00, 135.5, 75.7)"> </text><text xml:space="preserve" font-family="Courier,Courier" font-size="28.0" fill="#000000" transform="matrix(1.00, 0.00, -0.00, -1.00, 152.3, 75.7)">n</text><text xml:space="preserve" font-family="Courier,Courier" font-size="28.0" fill="#000000" transform="matrix(1.00, 0.00, -0.00, -1.00, 169.1, 75.7)">u</text><text xml:space="preserve" font-family="Courier,Courier" font-size="28.0" fill="#000000" transform="matrix(1.00, 0.00, -0.00, -1.00, 185.9, 75.7)">m</text><text xml:space="preserve" font-family="Courier,Courier" font-size="28.0" fill="#000000" transform="matrix(1.00, 0.00, -0.00, -1.00, 202.7, 75.7)">p</text><text xml:space="preserve" font-family="Courier,Courier" font-size="28.0" fill="#000000" transform="matrix(1.00, 0.00, -0.00, -1.00, 219.5, 75.7)">y</text><text xml:space="preserve" font-family="Courier,Courier" font-size="28.0" fill="#000000" transform="matrix(1.00, 0.00, -0.00, -1.00, 236.3, 75.7)">.</text><text xml:space="preserve" font-family="Courier,Courier" font-size="28.0" fill="#021993" transform="matrix(1.00, 0.00, -0.00, -1.00, 253.1, 75.7)">a</text><text xml:space="preserve" font-family="Courier,Courier" font-size="28.0" fill="#021993" transform="matrix(1.00, 0.00, -0.00, -1.00, 269.9, 75.7)">r</text><text xml:space="preserve" font-family="Courier,Courier" font-size="28.0" fill="#021993" transform="matrix(1.00, 0.00, -0.00, -1.00, 286.7, 75.7)">r</text><text xml:space="preserve" font-family="Courier,Courier" font-size="28.0" fill="#021993" transform="matrix(1.00, 0.00, -0.00, -1.00, 303.5, 75.7)">a</text><text xml:space="preserve" font-family="Courier,Courier" font-size="28.0" fill="#021993" transform="matrix(1.00, 0.00, -0.00, -1.00, 320.4, 75.7)">y</text><text xml:space="preserve" font-family="Courier,Courier" font-size="28.0" fill="#000000" transform="matrix(1.00, 0.00, -0.00, -1.00, 337.2, 75.7)">(</text><text xml:space="preserve" font-family="Courier,Courier" font-size="28.0" fill="#000000" transform="matrix(1.00, 0.00, -0.00, -1.00, 354.0, 75.7)">i</text><text xml:space="preserve" font-family="Courier,Courier" font-size="28.0" fill="#000000" transform="matrix(1.00, 0.00, -0.00, -1.00, 370.8, 75.7)">m</text><text xml:space="preserve" font-family="Courier,Courier" font-size="28.0" fill="#000000" transform="matrix(1.00, 0.00, -0.00, -1.00, 387.6, 75.7)">a</text><text xml:space="preserve" font-family="Courier,Courier" font-size="28.0" fill="#000000" transform="matrix(1.00, 0.00, -0.00, -1.00, 404.4, 75.7)">g</text><text xml:space="preserve" font-family="Courier,Courier" font-size="28.0" fill="#000000" transform="matrix(1.00, 0.00, -0.00, -1.00, 421.2, 75.7)">e</text><text xml:space="preserve" font-family="Courier,Courier" font-size="28.0" fill="#000000" transform="matrix(1.00, 0.00, -0.00, -1.00, 438.0, 75.7)">)</text><text xml:space="preserve" font-family="Courier,Courier" font-size="28.0" fill="#000000" transform="matrix(1.00, 0.00, -0.00, -1.00, 1.1, 41.7)">a</text><text xml:space="preserve" font-family="Courier,Courier" font-size="28.0" fill="#000000" transform="matrix(1.00, 0.00, -0.00, -1.00, 17.9, 41.7)">v</text><text xml:space="preserve" font-family="Courier,Courier" font-size="28.0" fill="#000000" transform="matrix(1.00, 0.00, -0.00, -1.00, 34.7, 41.7)">g</text><text xml:space="preserve" font-family="Courier,Courier" font-size="28.0" fill="#000000" transform="matrix(1.00, 0.00, -0.00, -1.00, 51.5, 41.7)"> </text><text xml:space="preserve" font-family="Courier,Courier" font-size="28.0" fill="#000000" transform="matrix(1.00, 0.00, -0.00, -1.00, 68.3, 41.7)">=</text><text xml:space="preserve" font-family="Courier,Courier" font-size="28.0" fill="#000000" transform="matrix(1.00, 0.00, -0.00, -1.00, 85.1, 41.7)"> </text><text xml:space="preserve" font-family="Courier,Courier" font-size="28.0" fill="#000000" transform="matrix(1.00, 0.00, -0.00, -1.00, 101.9, 41.7)">p</text><text xml:space="preserve" font-family="Courier,Courier" font-size="28.0" fill="#000000" transform="matrix(1.00, 0.00, -0.00, -1.00, 118.7, 41.7)">i</text><text xml:space="preserve" font-family="Courier,Courier" font-size="28.0" fill="#000000" transform="matrix(1.00, 0.00, -0.00, -1.00, 135.5, 41.7)">x</text><text xml:space="preserve" font-family="Courier,Courier" font-size="28.0" fill="#000000" transform="matrix(1.00, 0.00, -0.00, -1.00, 152.3, 41.7)">e</text><text xml:space="preserve" font-family="Courier,Courier" font-size="28.0" fill="#000000" transform="matrix(1.00, 0.00, -0.00, -1.00, 169.1, 41.7)">l</text><text xml:space="preserve" font-family="Courier,Courier" font-size="28.0" fill="#000000" transform="matrix(1.00, 0.00, -0.00, -1.00, 185.9, 41.7)">s</text><text xml:space="preserve" font-family="Courier,Courier" font-size="28.0" fill="#000000" transform="matrix(1.00, 0.00, -0.00, -1.00, 202.7, 41.7)">.</text><text xml:space="preserve" font-family="Courier,Courier" font-size="28.0" fill="#021993" transform="matrix(1.00, 0.00, -0.00, -1.00, 219.5, 41.7)">m</text><text xml:space="preserve" font-family="Courier,Courier" font-size="28.0" fill="#021993" transform="matrix(1.00, 0.00, -0.00, -1.00, 236.3, 41.7)">e</text><text xml:space="preserve" font-family="Courier,Courier" font-size="28.0" fill="#021993" transform="matrix(1.00, 0.00, -0.00, -1.00, 253.1, 41.7)">a</text><text xml:space="preserve" font-family="Courier,Courier" font-size="28.0" fill="#021993" transform="matrix(1.00, 0.00, -0.00, -1.00, 269.9, 41.7)">n</text><text xml:space="preserve" font-family="Courier,Courier" font-size="28.0" fill="#000000" transform="matrix(1.00, 0.00, -0.00, -1.00, 286.7, 41.7)">(</text><text xml:space="preserve" font-family="Courier,Courier" font-size="28.0" fill="#000000" transform="matrix(1.00, 0.00, -0.00, -1.00, 303.5, 41.7)">)</text><text xml:space="preserve" font-family="Courier,Courier" font-size="28.0" fill="#000000" transform="matrix(1.00, 0.00, -0.00, -1.00, 1.1, 7.7)">d</text><text xml:space="preserve" font-family="Courier,Courier" font-size="28.0" fill="#000000" transform="matrix(1.00, 0.00, -0.00, -1.00, 17.9, 7.7)">i</text><text xml:space="preserve" font-family="Courier,Courier" font-size="28.0" fill="#000000" transform="matrix(1.00, 0.00, -0.00, -1.00, 34.7, 7.7)">f</text><text xml:space="preserve" font-family="Courier,Courier" font-size="28.0" fill="#000000" transform="matrix(1.00, 0.00, -0.00, -1.00, 51.5, 7.7)">f</text><text xml:space="preserve" font-family="Courier,Courier" font-size="28.0" fill="#000000" transform="matrix(1.00, 0.00, -0.00, -1.00, 68.3, 7.7)"> </text><text xml:space="preserve" font-family="Courier,Courier" font-size="28.0" fill="#000000" transform="matrix(1.00, 0.00, -0.00, -1.00, 85.1, 7.7)">=</text><text xml:space="preserve" font-family="Courier,Courier" font-size="28.0" fill="#000000" transform="matrix(1.00, 0.00, -0.00, -1.00, 101.9, 7.7)"> </text><text xml:space="preserve" font-family="Courier,Courier" font-size="28.0" fill="#000000" transform="matrix(1.00, 0.00, -0.00, -1.00, 118.7, 7.7)">p</text><text xml:space="preserve" font-family="Courier,Courier" font-size="28.0" fill="#000000" transform="matrix(1.00, 0.00, -0.00, -1.00, 135.5, 7.7)">i</text><text xml:space="preserve" font-family="Courier,Courier" font-size="28.0" fill="#000000" transform="matrix(1.00, 0.00, -0.00, -1.00, 152.3, 7.7)">x</text><text xml:space="preserve" font-family="Courier,Courier" font-size="28.0" fill="#000000" transform="matrix(1.00, 0.00, -0.00, -1.00, 169.1, 7.7)">e</text><text xml:space="preserve" font-family="Courier,Courier" font-size="28.0" fill="#000000" transform="matrix(1.00, 0.00, -0.00, -1.00, 185.9, 7.7)">l</text><text xml:space="preserve" font-family="Courier,Courier" font-size="28.0" fill="#000000" transform="matrix(1.00, 0.00, -0.00, -1.00, 202.7, 7.7)">s</text><text xml:space="preserve" font-family="Courier,Courier" font-size="28.0" fill="#000000" transform="matrix(1.00, 0.00, -0.00, -1.00, 219.5, 7.7)"> </text><text xml:space="preserve" font-family="Courier,Courier" font-size="28.0" fill="#000000" transform="matrix(1.00, 0.00, -0.00, -1.00, 236.3, 7.7)">&gt;</text><text xml:space="preserve" font-family="Courier,Courier" font-size="28.0" fill="#000000" transform="matrix(1.00, 0.00, -0.00, -1.00, 253.1, 7.7)"> </text><text xml:space="preserve" font-family="Courier,Courier" font-size="28.0" fill="#000000" transform="matrix(1.00, 0.00, -0.00, -1.00, 270.0, 7.7)">a</text><text xml:space="preserve" font-family="Courier,Courier" font-size="28.0" fill="#000000" transform="matrix(1.00, 0.00, -0.00, -1.00, 286.8, 7.7)">v</text><text xml:space="preserve" font-family="Courier,Courier" font-size="28.0" fill="#000000" transform="matrix(1.00, 0.00, -0.00, -1.00, 303.6, 7.7)">g</text></g></svg>