<?xml version="1.0" encoding="UTF-8" standalone="no"?><svg xmlns="http://www.w3.org/2000/svg" xmlns:xlink="http://www.w3.org/1999/xlink" clip-rule="evenodd" stroke-miterlimit="10" viewBox="0 0 1024 768"><desc>SVG generated by Keynote</desc><defs></defs><g transform="matrix(1.00, 0.00, -0.00, -1.00, 0.0, 768.0)"><path d="M 0.0 768.0 L 1024.0 768.0 L 1024.0 0.0 L 0.0 0.0 Z M 0.0 768.0 " fill="#FFFFFF"></path><image xlink:href="../../2228AE9C-3706-437F-8379-D21BA5B8F0CA/assets/C2129A3EE7512E75FEE2A48785F9B6A3.png" width="1033.00" height="179.00" transform="matrix(0.21, 0.00, -0.00, -0.21, 39.9, 95.6)"></image><image xlink:href="../../61A58102-22E1-412F-811F-124AF3D36D9D/assets/B4ADF3925879D2FB8BC5CC839A6ABAC0.png" width="378.00" height="48.00" transform="matrix(1.00, 0.00, -0.00, -1.00, 98.0, 705.0)"></image><text xml:space="preserve" font-family="CenturyGothic,Century Gothic" font-size="56.8" fill="#000000" transform="matrix(1.00, 0.00, -0.00, -1.00, 99.8, 658.7)">С</text><text xml:space="preserve" font-family="CenturyGothic,Century Gothic" font-size="56.8" fill="#000000" transform="matrix(1.00, 0.00, -0.00, -1.00, 146.1, 658.7)">Т</text><text xml:space="preserve" font-family="CenturyGothic,Century Gothic" font-size="56.8" fill="#000000" transform="matrix(1.00, 0.00, -0.00, -1.00, 170.2, 658.7)">Р</text><text xml:space="preserve" font-family="CenturyGothic,Century Gothic" font-size="56.8" fill="#000000" transform="matrix(1.00, 0.00, -0.00, -1.00, 203.9, 658.7)">О</text><text xml:space="preserve" font-family="CenturyGothic,Century Gothic" font-size="56.8" fill="#000000" transform="matrix(1.00, 0.00, -0.00, -1.00, 253.3, 658.7)">И</text><text xml:space="preserve" font-family="CenturyGothic,Century Gothic" font-size="56.8" fill="#000000" transform="matrix(1.00, 0.00, -0.00, -1.00, 295.3, 658.7)">М</text><text xml:space="preserve" font-family="CenturyGothic,Century Gothic" font-size="56.8" fill="#000000" transform="matrix(1.00, 0.00, -0.00, -1.00, 347.5, 658.7)"> </text><text xml:space="preserve" font-family="CenturyGothic,Century Gothic" font-size="56.8" fill="#000000" transform="matrix(1.00, 0.00, -0.00, -1.00, 363.3, 658.7)">D</text><text xml:space="preserve" font-family="CenturyGothic,Century Gothic" font-size="56.8" fill="#000000" transform="matrix(1.00, 0.00, -0.00, -1.00, 405.6, 658.7)">C</text><text xml:space="preserve" font-family="CenturyGothic,Century Gothic" font-size="56.8" fill="#000000" transform="matrix(1.00, 0.00, -0.00, -1.00, 451.8, 658.7)">T</text><text xml:space="preserve" font-family="CenturyGothic,Century Gothic" font-size="56.8" fill="#000000" transform="matrix(1.00, 0.00, -0.00, -1.00, 476.0, 658.7)"> </text><image xlink:href="../../61A58102-22E1-412F-811F-124AF3D36D9D/assets/19266F4BD0D363A90E8D82C5707B9BE3.png" width="136.00" height="48.00" transform="matrix(1.00, 0.00, -0.00, -1.00, 489.0, 705.0)"></image><text xml:space="preserve" font-family="CenturyGothic,Century Gothic" font-size="56.8" fill="#000000" transform="matrix(1.00, 0.00, -0.00, -1.00, 491.8, 658.7)">Х</text><text xml:space="preserve" font-family="CenturyGothic,Century Gothic" font-size="56.8" fill="#000000" transform="matrix(1.00, 0.00, -0.00, -1.00, 526.4, 658.7)">Э</text><text xml:space="preserve" font-family="CenturyGothic,Century Gothic" font-size="56.8" fill="#000000" transform="matrix(1.00, 0.00, -0.00, -1.00, 572.6, 658.7)">Ш</text><text xml:space="preserve" font-family="CenturyGothic-Bold,Century Gothic" font-weight="bold" font-size="28.0" fill="#525252" transform="matrix(1.00, 0.00, -0.00, -1.00, 933.5, 65.6)">2</text><text xml:space="preserve" font-family="CenturyGothic-Bold,Century Gothic" font-weight="bold" font-size="28.0" fill="#525252" transform="matrix(1.00, 0.00, -0.00, -1.00, 949.2, 65.6)">3</text><image xlink:href="../../2375A643-77E2-4596-9A9E-CA5380F5FE90/assets/58CF3CF575F3DE0ECF0A651E83F79E98.jpeg" width="512.00" height="512.00" transform="matrix(0.76, 0.00, -0.00, -0.76, 577.0, 506.2)"></image><text xml:space="preserve" font-family="Courier,Courier" font-size="30.0" fill="#000000" transform="matrix(1.00, 0.00, -0.00, -1.00, 66.7, 601.8)">p</text><text xml:space="preserve" font-family="Courier,Courier" font-size="30.0" fill="#000000" transform="matrix(1.00, 0.00, -0.00, -1.00, 84.7, 601.8)">i</text><text xml:space="preserve" font-family="Courier,Courier" font-size="30.0" fill="#000000" transform="matrix(1.00, 0.00, -0.00, -1.00, 102.7, 601.8)">x</text><text xml:space="preserve" font-family="Courier,Courier" font-size="30.0" fill="#000000" transform="matrix(1.00, 0.00, -0.00, -1.00, 120.7, 601.8)">e</text><text xml:space="preserve" font-family="Courier,Courier" font-size="30.0" fill="#000000" transform="matrix(1.00, 0.00, -0.00, -1.00, 138.7, 601.8)">l</text><text xml:space="preserve" font-family="Courier,Courier" font-size="30.0" fill="#000000" transform="matrix(1.00, 0.00, -0.00, -1.00, 156.7, 601.8)">s</text><text xml:space="preserve" font-family="Courier,Courier" font-size="30.0" fill="#000000" transform="matrix(1.00, 0.00, -0.00, -1.00, 174.7, 601.8)"> </text><text xml:space="preserve" font-family="Courier,Courier" font-size="30.0" fill="#000000" transform="matrix(1.00, 0.00, -0.00, -1.00, 192.7, 601.8)">=</text><text xml:space="preserve" font-family="Courier,Courier" font-size="30.0" fill="#000000" transform="matrix(1.00, 0.00, -0.00, -1.00, 210.7, 601.8)"> </text><text xml:space="preserve" font-family="Courier,Courier" font-size="30.0" fill="#000000" transform="matrix(1.00, 0.00, -0.00, -1.00, 228.7, 601.8)">n</text><text xml:space="preserve" font-family="Courier,Courier" font-size="30.0" fill="#000000" transform="matrix(1.00, 0.00, -0.00, -1.00, 246.7, 601.8)">p</text><text xml:space="preserve" font-family="Courier,Courier" font-size="30.0" fill="#000000" transform="matrix(1.00, 0.00, -0.00, -1.00, 264.7, 601.8)">.</text><text xml:space="preserve" font-family="Courier,Courier" font-size="30.0" fill="#021993" transform="matrix(1.00, 0.00, -0.00, -1.00, 282.7, 601.8)">a</text><text xml:space="preserve" font-family="Courier,Courier" font-size="30.0" fill="#021993" transform="matrix(1.00, 0.00, -0.00, -1.00, 300.7, 601.8)">r</text><text xml:space="preserve" font-family="Courier,Courier" font-size="30.0" fill="#021993" transform="matrix(1.00, 0.00, -0.00, -1.00, 318.7, 601.8)">r</text><text xml:space="preserve" font-family="Courier,Courier" font-size="30.0" fill="#021993" transform="matrix(1.00, 0.00, -0.00, -1.00, 336.8, 601.8)">a</text><text xml:space="preserve" font-family="Courier,Courier" font-size="30.0" fill="#021993" transform="matrix(1.00, 0.00, -0.00, -1.00, 354.8, 601.8)">y</text><text xml:space="preserve" font-family="Courier,Courier" font-size="30.0" fill="#000000" transform="matrix(1.00, 0.00, -0.00, -1.00, 372.8, 601.8)">(</text><text xml:space="preserve" font-family="Courier,Courier" font-size="30.0" fill="#000000" transform="matrix(1.00, 0.00, -0.00, -1.00, 390.8, 601.8)">i</text><text xml:space="preserve" font-family="Courier,Courier" font-size="30.0" fill="#000000" transform="matrix(1.00, 0.00, -0.00, -1.00, 408.8, 601.8)">m</text><text xml:space="preserve" font-family="Courier,Courier" font-size="30.0" fill="#000000" transform="matrix(1.00, 0.00, -0.00, -1.00, 426.8, 601.8)">a</text><text xml:space="preserve" font-family="Courier,Courier" font-size="30.0" fill="#000000" transform="matrix(1.00, 0.00, -0.00, -1.00, 444.8, 601.8)">g</text><text xml:space="preserve" font-family="Courier,Courier" font-size="30.0" fill="#000000" transform="matrix(1.00, 0.00, -0.00, -1.00, 462.8, 601.8)">e</text><text xml:space="preserve" font-family="Courier,Courier" font-size="30.0" fill="#000000" transform="matrix(1.00, 0.00, -0.00, -1.00, 480.8, 601.8)">,</text><text xml:space="preserve" font-family="Courier,Courier" font-size="30.0" fill="#000000" transform="matrix(1.00, 0.00, -0.00, -1.00, 498.8, 601.8)"> </text><text xml:space="preserve" font-family="Courier,Courier" font-size="30.0" fill="#000000" transform="matrix(1.00, 0.00, -0.00, -1.00, 516.8, 601.8)">d</text><text xml:space="preserve" font-family="Courier,Courier" font-size="30.0" fill="#000000" transform="matrix(1.00, 0.00, -0.00, -1.00, 534.8, 601.8)">t</text><text xml:space="preserve" font-family="Courier,Courier" font-size="30.0" fill="#000000" transform="matrix(1.00, 0.00, -0.00, -1.00, 552.8, 601.8)">y</text><text xml:space="preserve" font-family="Courier,Courier" font-size="30.0" fill="#000000" transform="matrix(1.00, 0.00, -0.00, -1.00, 570.8, 601.8)">p</text><text xml:space="preserve" font-family="Courier,Courier" font-size="30.0" fill="#000000" transform="matrix(1.00, 0.00, -0.00, -1.00, 588.8, 601.8)">e</text><text xml:space="preserve" font-family="Courier,Courier" font-size="30.0" fill="#000000" transform="matrix(1.00, 0.00, -0.00, -1.00, 606.8, 601.8)">=</text><text xml:space="preserve" font-family="Courier,Courier" font-size="30.0" fill="#000000" transform="matrix(1.00, 0.00, -0.00, -1.00, 624.8, 601.8)">n</text><text xml:space="preserve" font-family="Courier,Courier" font-size="30.0" fill="#000000" transform="matrix(1.00, 0.00, -0.00, -1.00, 642.8, 601.8)">p</text><text xml:space="preserve" font-family="Courier,Courier" font-size="30.0" fill="#000000" transform="matrix(1.00, 0.00, -0.00, -1.00, 660.8, 601.8)">.</text><text xml:space="preserve" font-family="Courier,Courier" font-size="30.0" fill="#006DBC" transform="matrix(1.00, 0.00, -0.00, -1.00, 678.8, 601.8)">f</text><text xml:space="preserve" font-family="Courier,Courier" font-size="30.0" fill="#006DBC" transform="matrix(1.00, 0.00, -0.00, -1.00, 696.8, 601.8)">l</text><text xml:space="preserve" font-family="Courier,Courier" font-size="30.0" fill="#006DBC" transform="matrix(1.00, 0.00, -0.00, -1.00, 714.8, 601.8)">o</text><text xml:space="preserve" font-family="Courier,Courier" font-size="30.0" fill="#006DBC" transform="matrix(1.00, 0.00, -0.00, -1.00, 732.8, 601.8)">a</text><text xml:space="preserve" font-family="Courier,Courier" font-size="30.0" fill="#006DBC" transform="matrix(1.00, 0.00, -0.00, -1.00, 750.8, 601.8)">t</text><text xml:space="preserve" font-family="Courier,Courier" font-size="30.0" fill="#000000" transform="matrix(1.00, 0.00, -0.00, -1.00, 768.8, 601.8)">)</text><text xml:space="preserve" font-family="Courier,Courier" font-size="30.0" fill="#000000" transform="matrix(1.00, 0.00, -0.00, -1.00, 66.7, 565.8)">p</text><text xml:space="preserve" font-family="Courier,Courier" font-size="30.0" fill="#000000" transform="matrix(1.00, 0.00, -0.00, -1.00, 84.7, 565.8)">i</text><text xml:space="preserve" font-family="Courier,Courier" font-size="30.0" fill="#000000" transform="matrix(1.00, 0.00, -0.00, -1.00, 102.7, 565.8)">x</text><text xml:space="preserve" font-family="Courier,Courier" font-size="30.0" fill="#000000" transform="matrix(1.00, 0.00, -0.00, -1.00, 120.7, 565.8)">e</text><text xml:space="preserve" font-family="Courier,Courier" font-size="30.0" fill="#000000" transform="matrix(1.00, 0.00, -0.00, -1.00, 138.7, 565.8)">l</text><text xml:space="preserve" font-family="Courier,Courier" font-size="30.0" fill="#000000" transform="matrix(1.00, 0.00, -0.00, -1.00, 156.7, 565.8)">s</text><text xml:space="preserve" font-family="Courier,Courier" font-size="30.0" fill="#000000" transform="matrix(1.00, 0.00, -0.00, -1.00, 174.7, 565.8)">_</text><text xml:space="preserve" font-family="Courier,Courier" font-size="30.0" fill="#000000" transform="matrix(1.00, 0.00, -0.00, -1.00, 192.7, 565.8)">d</text><text xml:space="preserve" font-family="Courier,Courier" font-size="30.0" fill="#000000" transform="matrix(1.00, 0.00, -0.00, -1.00, 210.7, 565.8)">c</text><text xml:space="preserve" font-family="Courier,Courier" font-size="30.0" fill="#000000" transform="matrix(1.00, 0.00, -0.00, -1.00, 228.7, 565.8)">t</text><text xml:space="preserve" font-family="Courier,Courier" font-size="30.0" fill="#000000" transform="matrix(1.00, 0.00, -0.00, -1.00, 246.7, 565.8)"> </text><text xml:space="preserve" font-family="Courier,Courier" font-size="30.0" fill="#000000" transform="matrix(1.00, 0.00, -0.00, -1.00, 264.7, 565.8)">=</text><text xml:space="preserve" font-family="Courier,Courier" font-size="30.0" fill="#000000" transform="matrix(1.00, 0.00, -0.00, -1.00, 282.7, 565.8)"> </text><text xml:space="preserve" font-family="Courier,Courier" font-size="30.0" fill="#021993" transform="matrix(1.00, 0.00, -0.00, -1.00, 300.7, 565.8)">d</text><text xml:space="preserve" font-family="Courier,Courier" font-size="30.0" fill="#021993" transform="matrix(1.00, 0.00, -0.00, -1.00, 318.7, 565.8)">c</text><text xml:space="preserve" font-family="Courier,Courier" font-size="30.0" fill="#021993" transform="matrix(1.00, 0.00, -0.00, -1.00, 336.8, 565.8)">t</text><text xml:space="preserve" font-family="Courier,Courier" font-size="30.0" fill="#000000" transform="matrix(1.00, 0.00, -0.00, -1.00, 354.8, 565.8)">(</text><text xml:space="preserve" font-family="Courier,Courier" font-size="30.0" fill="#021993" transform="matrix(1.00, 0.00, -0.00, -1.00, 372.8, 565.8)">d</text><text xml:space="preserve" font-family="Courier,Courier" font-size="30.0" fill="#021993" transform="matrix(1.00, 0.00, -0.00, -1.00, 390.8, 565.8)">c</text><text xml:space="preserve" font-family="Courier,Courier" font-size="30.0" fill="#021993" transform="matrix(1.00, 0.00, -0.00, -1.00, 408.8, 565.8)">t</text><text xml:space="preserve" font-family="Courier,Courier" font-size="30.0" fill="#000000" transform="matrix(1.00, 0.00, -0.00, -1.00, 426.8, 565.8)">(</text><text xml:space="preserve" font-family="Courier,Courier" font-size="30.0" fill="#000000" transform="matrix(1.00, 0.00, -0.00, -1.00, 444.8, 565.8)">p</text><text xml:space="preserve" font-family="Courier,Courier" font-size="30.0" fill="#000000" transform="matrix(1.00, 0.00, -0.00, -1.00, 462.8, 565.8)">i</text><text xml:space="preserve" font-family="Courier,Courier" font-size="30.0" fill="#000000" transform="matrix(1.00, 0.00, -0.00, -1.00, 480.8, 565.8)">x</text><text xml:space="preserve" font-family="Courier,Courier" font-size="30.0" fill="#000000" transform="matrix(1.00, 0.00, -0.00, -1.00, 498.8, 565.8)">e</text><text xml:space="preserve" font-family="Courier,Courier" font-size="30.0" fill="#000000" transform="matrix(1.00, 0.00, -0.00, -1.00, 516.8, 565.8)">l</text><text xml:space="preserve" font-family="Courier,Courier" font-size="30.0" fill="#000000" transform="matrix(1.00, 0.00, -0.00, -1.00, 534.8, 565.8)">s</text><text xml:space="preserve" font-family="Courier,Courier" font-size="30.0" fill="#000000" transform="matrix(1.00, 0.00, -0.00, -1.00, 552.8, 565.8)">,</text><text xml:space="preserve" font-family="Courier,Courier" font-size="30.0" fill="#000000" transform="matrix(1.00, 0.00, -0.00, -1.00, 570.8, 565.8)"> </text><text xml:space="preserve" font-family="Courier,Courier" font-size="30.0" fill="#000000" transform="matrix(1.00, 0.00, -0.00, -1.00, 588.8, 565.8)">a</text><text xml:space="preserve" font-family="Courier,Courier" font-size="30.0" fill="#000000" transform="matrix(1.00, 0.00, -0.00, -1.00, 606.8, 565.8)">x</text><text xml:space="preserve" font-family="Courier,Courier" font-size="30.0" fill="#000000" transform="matrix(1.00, 0.00, -0.00, -1.00, 624.8, 565.8)">i</text><text xml:space="preserve" font-family="Courier,Courier" font-size="30.0" fill="#000000" transform="matrix(1.00, 0.00, -0.00, -1.00, 642.8, 565.8)">s</text><text xml:space="preserve" font-family="Courier,Courier" font-size="30.0" fill="#000000" transform="matrix(1.00, 0.00, -0.00, -1.00, 660.8, 565.8)">=</text><text xml:space="preserve" font-family="Courier,Courier" font-size="30.0" fill="#BE8F00" transform="matrix(1.00, 0.00, -0.00, -1.00, 678.8, 565.8)">1</text><text xml:space="preserve" font-family="Courier,Courier" font-size="30.0" fill="#000000" transform="matrix(1.00, 0.00, -0.00, -1.00, 696.8, 565.8)">)</text><text xml:space="preserve" font-family="Courier,Courier" font-size="30.0" fill="#000000" transform="matrix(1.00, 0.00, -0.00, -1.00, 714.8, 565.8)">,</text><text xml:space="preserve" font-family="Courier,Courier" font-size="30.0" fill="#000000" transform="matrix(1.00, 0.00, -0.00, -1.00, 732.8, 565.8)"> </text><text xml:space="preserve" font-family="Courier,Courier" font-size="30.0" fill="#000000" transform="matrix(1.00, 0.00, -0.00, -1.00, 750.8, 565.8)">a</text><text xml:space="preserve" font-family="Courier,Courier" font-size="30.0" fill="#000000" transform="matrix(1.00, 0.00, -0.00, -1.00, 768.8, 565.8)">x</text><text xml:space="preserve" font-family="Courier,Courier" font-size="30.0" fill="#000000" transform="matrix(1.00, 0.00, -0.00, -1.00, 786.8, 565.8)">i</text><text xml:space="preserve" font-family="Courier,Courier" font-size="30.0" fill="#000000" transform="matrix(1.00, 0.00, -0.00, -1.00, 804.8, 565.8)">s</text><text xml:space="preserve" font-family="Courier,Courier" font-size="30.0" fill="#000000" transform="matrix(1.00, 0.00, -0.00, -1.00, 822.8, 565.8)">=</text><text xml:space="preserve" font-family="Courier,Courier" font-size="30.0" fill="#BE8F00" transform="matrix(1.00, 0.00, -0.00, -1.00, 840.8, 565.8)">0</text><text xml:space="preserve" font-family="Courier,Courier" font-size="30.0" fill="#000000" transform="matrix(1.00, 0.00, -0.00, -1.00, 858.8, 565.8)">)</text><text xml:space="preserve" font-family="Courier,Courier" font-size="30.0" fill="#000000" transform="matrix(1.00, 0.00, -0.00, -1.00, 66.7, 529.8)">l</text><text xml:space="preserve" font-family="Courier,Courier" font-size="30.0" fill="#000000" transform="matrix(1.00, 0.00, -0.00, -1.00, 84.7, 529.8)">o</text><text xml:space="preserve" font-family="Courier,Courier" font-size="30.0" fill="#000000" transform="matrix(1.00, 0.00, -0.00, -1.00, 102.7, 529.8)">w</text><text xml:space="preserve" font-family="Courier,Courier" font-size="30.0" fill="#000000" transform="matrix(1.00, 0.00, -0.00, -1.00, 120.7, 529.8)">_</text><text xml:space="preserve" font-family="Courier,Courier" font-size="30.0" fill="#000000" transform="matrix(1.00, 0.00, -0.00, -1.00, 138.7, 529.8)">f</text><text xml:space="preserve" font-family="Courier,Courier" font-size="30.0" fill="#000000" transform="matrix(1.00, 0.00, -0.00, -1.00, 156.7, 529.8)">r</text><text xml:space="preserve" font-family="Courier,Courier" font-size="30.0" fill="#000000" transform="matrix(1.00, 0.00, -0.00, -1.00, 174.7, 529.8)">e</text><text xml:space="preserve" font-family="Courier,Courier" font-size="30.0" fill="#000000" transform="matrix(1.00, 0.00, -0.00, -1.00, 192.7, 529.8)">q</text><text xml:space="preserve" font-family="Courier,Courier" font-size="30.0" fill="#000000" transform="matrix(1.00, 0.00, -0.00, -1.00, 210.7, 529.8)"> </text><text xml:space="preserve" font-family="Courier,Courier" font-size="30.0" fill="#000000" transform="matrix(1.00, 0.00, -0.00, -1.00, 228.7, 529.8)">=</text><text xml:space="preserve" font-family="Courier,Courier" font-size="30.0" fill="#000000" transform="matrix(1.00, 0.00, -0.00, -1.00, 246.7, 529.8)"> </text><text xml:space="preserve" font-family="Courier,Courier" font-size="30.0" fill="#000000" transform="matrix(1.00, 0.00, -0.00, -1.00, 264.7, 529.8)">p</text><text xml:space="preserve" font-family="Courier,Courier" font-size="30.0" fill="#000000" transform="matrix(1.00, 0.00, -0.00, -1.00, 282.7, 529.8)">i</text><text xml:space="preserve" font-family="Courier,Courier" font-size="30.0" fill="#000000" transform="matrix(1.00, 0.00, -0.00, -1.00, 300.8, 529.8)">x</text><text xml:space="preserve" font-family="Courier,Courier" font-size="30.0" fill="#000000" transform="matrix(1.00, 0.00, -0.00, -1.00, 318.8, 529.8)">e</text><text xml:space="preserve" font-family="Courier,Courier" font-size="30.0" fill="#000000" transform="matrix(1.00, 0.00, -0.00, -1.00, 336.8, 529.8)">l</text><text xml:space="preserve" font-family="Courier,Courier" font-size="30.0" fill="#000000" transform="matrix(1.00, 0.00, -0.00, -1.00, 354.8, 529.8)">s</text><text xml:space="preserve" font-family="Courier,Courier" font-size="30.0" fill="#000000" transform="matrix(1.00, 0.00, -0.00, -1.00, 372.8, 529.8)">_</text><text xml:space="preserve" font-family="Courier,Courier" font-size="30.0" fill="#000000" transform="matrix(1.00, 0.00, -0.00, -1.00, 390.8, 529.8)">d</text><text xml:space="preserve" font-family="Courier,Courier" font-size="30.0" fill="#000000" transform="matrix(1.00, 0.00, -0.00, -1.00, 408.8, 529.8)">c</text><text xml:space="preserve" font-family="Courier,Courier" font-size="30.0" fill="#000000" transform="matrix(1.00, 0.00, -0.00, -1.00, 426.8, 529.8)">t</text><text xml:space="preserve" font-family="Courier,Courier" font-size="30.0" fill="#000000" transform="matrix(1.00, 0.00, -0.00, -1.00, 444.8, 529.8)">[</text><text xml:space="preserve" font-family="Courier,Courier" font-size="30.0" fill="#000000" transform="matrix(1.00, 0.00, -0.00, -1.00, 462.8, 529.8)">:</text><text xml:space="preserve" font-family="Courier,Courier" font-size="30.0" fill="#000000" transform="matrix(1.00, 0.00, -0.00, -1.00, 480.8, 529.8)">h</text><text xml:space="preserve" font-family="Courier,Courier" font-size="30.0" fill="#000000" transform="matrix(1.00, 0.00, -0.00, -1.00, 498.8, 529.8)">a</text><text xml:space="preserve" font-family="Courier,Courier" font-size="30.0" fill="#000000" transform="matrix(1.00, 0.00, -0.00, -1.00, 516.8, 529.8)">s</text><text xml:space="preserve" font-family="Courier,Courier" font-size="30.0" fill="#000000" transform="matrix(1.00, 0.00, -0.00, -1.00, 534.8, 529.8)">h</text><text xml:space="preserve" font-family="Courier,Courier" font-size="30.0" fill="#000000" transform="matrix(1.00, 0.00, -0.00, -1.00, 552.8, 529.8)">_</text><text xml:space="preserve" font-family="Courier,Courier" font-size="30.0" fill="#000000" transform="matrix(1.00, 0.00, -0.00, -1.00, 570.8, 529.8)">s</text><text xml:space="preserve" font-family="Courier,Courier" font-size="30.0" fill="#000000" transform="matrix(1.00, 0.00, -0.00, -1.00, 588.8, 529.8)">i</text><text xml:space="preserve" font-family="Courier,Courier" font-size="30.0" fill="#000000" transform="matrix(1.00, 0.00, -0.00, -1.00, 606.8, 529.8)">z</text><text xml:space="preserve" font-family="Courier,Courier" font-size="30.0" fill="#000000" transform="matrix(1.00, 0.00, -0.00, -1.00, 624.8, 529.8)">e</text><text xml:space="preserve" font-family="Courier,Courier" font-size="30.0" fill="#000000" transform="matrix(1.00, 0.00, -0.00, -1.00, 642.8, 529.8)">,</text><text xml:space="preserve" font-family="Courier,Courier" font-size="30.0" fill="#000000" transform="matrix(1.00, 0.00, -0.00, -1.00, 660.8, 529.8)"> </text><text xml:space="preserve" font-family="Courier,Courier" font-size="30.0" fill="#000000" transform="matrix(1.00, 0.00, -0.00, -1.00, 678.8, 529.8)">:</text><text xml:space="preserve" font-family="Courier,Courier" font-size="30.0" fill="#000000" transform="matrix(1.00, 0.00, -0.00, -1.00, 696.8, 529.8)">h</text><text xml:space="preserve" font-family="Courier,Courier" font-size="30.0" fill="#000000" transform="matrix(1.00, 0.00, -0.00, -1.00, 714.8, 529.8)">a</text><text xml:space="preserve" font-family="Courier,Courier" font-size="30.0" fill="#000000" transform="matrix(1.00, 0.00, -0.00, -1.00, 732.8, 529.8)">s</text><text xml:space="preserve" font-family="Courier,Courier" font-size="30.0" fill="#000000" transform="matrix(1.00, 0.00, -0.00, -1.00, 750.8, 529.8)">h</text><text xml:space="preserve" font-family="Courier,Courier" font-size="30.0" fill="#000000" transform="matrix(1.00, 0.00, -0.00, -1.00, 768.8, 529.8)">_</text><text xml:space="preserve" font-family="Courier,Courier" font-size="30.0" fill="#000000" transform="matrix(1.00, 0.00, -0.00, -1.00, 786.8, 529.8)">s</text><text xml:space="preserve" font-family="Courier,Courier" font-size="30.0" fill="#000000" transform="matrix(1.00, 0.00, -0.00, -1.00, 804.8, 529.8)">i</text><text xml:space="preserve" font-family="Courier,Courier" font-size="30.0" fill="#000000" transform="matrix(1.00, 0.00, -0.00, -1.00, 822.8, 529.8)">z</text><text xml:space="preserve" font-family="Courier,Courier" font-size="30.0" fill="#000000" transform="matrix(1.00, 0.00, -0.00, -1.00, 840.8, 529.8)">e</text><text xml:space="preserve" font-family="Courier,Courier" font-size="30.0" fill="#000000" transform="matrix(1.00, 0.00, -0.00, -1.00, 858.8, 529.8)">]</text><text xml:space="preserve" font-family="Courier,Courier" font-size="30.0" fill="#000000" transform="matrix(1.00, 0.00, -0.00, -1.00, 66.7, 493.8)">m</text><text xml:space="preserve" font-family="Courier,Courier" font-size="30.0" fill="#000000" transform="matrix(1.00, 0.00, -0.00, -1.00, 84.7, 493.8)">e</text><text xml:space="preserve" font-family="Courier,Courier" font-size="30.0" fill="#000000" transform="matrix(1.00, 0.00, -0.00, -1.00, 102.7, 493.8)">d</text><text xml:space="preserve" font-family="Courier,Courier" font-size="30.0" fill="#000000" transform="matrix(1.00, 0.00, -0.00, -1.00, 120.7, 493.8)">i</text><text xml:space="preserve" font-family="Courier,Courier" font-size="30.0" fill="#000000" transform="matrix(1.00, 0.00, -0.00, -1.00, 138.7, 493.8)">a</text><text xml:space="preserve" font-family="Courier,Courier" font-size="30.0" fill="#000000" transform="matrix(1.00, 0.00, -0.00, -1.00, 156.7, 493.8)">n</text><text xml:space="preserve" font-family="Courier,Courier" font-size="30.0" fill="#000000" transform="matrix(1.00, 0.00, -0.00, -1.00, 174.7, 493.8)"> </text><text xml:space="preserve" font-family="Courier,Courier" font-size="30.0" fill="#000000" transform="matrix(1.00, 0.00, -0.00, -1.00, 192.7, 493.8)">=</text><text xml:space="preserve" font-family="Courier,Courier" font-size="30.0" fill="#000000" transform="matrix(1.00, 0.00, -0.00, -1.00, 210.7, 493.8)"> </text><text xml:space="preserve" font-family="Courier,Courier" font-size="30.0" fill="#000000" transform="matrix(1.00, 0.00, -0.00, -1.00, 228.7, 493.8)">n</text><text xml:space="preserve" font-family="Courier,Courier" font-size="30.0" fill="#000000" transform="matrix(1.00, 0.00, -0.00, -1.00, 246.7, 493.8)">p</text><text xml:space="preserve" font-family="Courier,Courier" font-size="30.0" fill="#000000" transform="matrix(1.00, 0.00, -0.00, -1.00, 264.7, 493.8)">.</text><text xml:space="preserve" font-family="Courier,Courier" font-size="30.0" fill="#021993" transform="matrix(1.00, 0.00, -0.00, -1.00, 282.7, 493.8)">m</text><text xml:space="preserve" font-family="Courier,Courier" font-size="30.0" fill="#021993" transform="matrix(1.00, 0.00, -0.00, -1.00, 300.7, 493.8)">e</text><text xml:space="preserve" font-family="Courier,Courier" font-size="30.0" fill="#021993" transform="matrix(1.00, 0.00, -0.00, -1.00, 318.7, 493.8)">d</text><text xml:space="preserve" font-family="Courier,Courier" font-size="30.0" fill="#021993" transform="matrix(1.00, 0.00, -0.00, -1.00, 336.8, 493.8)">i</text><text xml:space="preserve" font-family="Courier,Courier" font-size="30.0" fill="#021993" transform="matrix(1.00, 0.00, -0.00, -1.00, 354.8, 493.8)">a</text><text xml:space="preserve" font-family="Courier,Courier" font-size="30.0" fill="#021993" transform="matrix(1.00, 0.00, -0.00, -1.00, 372.8, 493.8)">n</text><text xml:space="preserve" font-family="Courier,Courier" font-size="30.0" fill="#000000" transform="matrix(1.00, 0.00, -0.00, -1.00, 390.8, 493.8)">(</text><text xml:space="preserve" font-family="Courier,Courier" font-size="30.0" fill="#000000" transform="matrix(1.00, 0.00, -0.00, -1.00, 408.8, 493.8)">l</text><text xml:space="preserve" font-family="Courier,Courier" font-size="30.0" fill="#000000" transform="matrix(1.00, 0.00, -0.00, -1.00, 426.8, 493.8)">o</text><text xml:space="preserve" font-family="Courier,Courier" font-size="30.0" fill="#000000" transform="matrix(1.00, 0.00, -0.00, -1.00, 444.8, 493.8)">w</text><text xml:space="preserve" font-family="Courier,Courier" font-size="30.0" fill="#000000" transform="matrix(1.00, 0.00, -0.00, -1.00, 462.8, 493.8)">_</text><text xml:space="preserve" font-family="Courier,Courier" font-size="30.0" fill="#000000" transform="matrix(1.00, 0.00, -0.00, -1.00, 480.8, 493.8)">f</text><text xml:space="preserve" font-family="Courier,Courier" font-size="30.0" fill="#000000" transform="matrix(1.00, 0.00, -0.00, -1.00, 498.8, 493.8)">r</text><text xml:space="preserve" font-family="Courier,Courier" font-size="30.0" fill="#000000" transform="matrix(1.00, 0.00, -0.00, -1.00, 516.8, 493.8)">e</text><text xml:space="preserve" font-family="Courier,Courier" font-size="30.0" fill="#000000" transform="matrix(1.00, 0.00, -0.00, -1.00, 534.8, 493.8)">q</text><text xml:space="preserve" font-family="Courier,Courier" font-size="30.0" fill="#000000" transform="matrix(1.00, 0.00, -0.00, -1.00, 552.8, 493.8)">)</text><text xml:space="preserve" font-family="Courier,Courier" font-size="30.0" fill="#000000" transform="matrix(1.00, 0.00, -0.00, -1.00, 66.7, 457.8)">d</text><text xml:space="preserve" font-family="Courier,Courier" font-size="30.0" fill="#000000" transform="matrix(1.00, 0.00, -0.00, -1.00, 84.7, 457.8)">i</text><text xml:space="preserve" font-family="Courier,Courier" font-size="30.0" fill="#000000" transform="matrix(1.00, 0.00, -0.00, -1.00, 102.7, 457.8)">f</text><text xml:space="preserve" font-family="Courier,Courier" font-size="30.0" fill="#000000" transform="matrix(1.00, 0.00, -0.00, -1.00, 120.7, 457.8)">f</text><text xml:space="preserve" font-family="Courier,Courier" font-size="30.0" fill="#000000" transform="matrix(1.00, 0.00, -0.00, -1.00, 138.7, 457.8)"> </text><text xml:space="preserve" font-family="Courier,Courier" font-size="30.0" fill="#000000" transform="matrix(1.00, 0.00, -0.00, -1.00, 156.7, 457.8)">=</text><text xml:space="preserve" font-family="Courier,Courier" font-size="30.0" fill="#000000" transform="matrix(1.00, 0.00, -0.00, -1.00, 174.7, 457.8)"> </text><text xml:space="preserve" font-family="Courier,Courier" font-size="30.0" fill="#000000" transform="matrix(1.00, 0.00, -0.00, -1.00, 192.7, 457.8)">l</text><text xml:space="preserve" font-family="Courier,Courier" font-size="30.0" fill="#000000" transform="matrix(1.00, 0.00, -0.00, -1.00, 210.7, 457.8)">o</text><text xml:space="preserve" font-family="Courier,Courier" font-size="30.0" fill="#000000" transform="matrix(1.00, 0.00, -0.00, -1.00, 228.7, 457.8)">w</text><text xml:space="preserve" font-family="Courier,Courier" font-size="30.0" fill="#000000" transform="matrix(1.00, 0.00, -0.00, -1.00, 246.7, 457.8)">_</text><text xml:space="preserve" font-family="Courier,Courier" font-size="30.0" fill="#000000" transform="matrix(1.00, 0.00, -0.00, -1.00, 264.7, 457.8)">f</text><text xml:space="preserve" font-family="Courier,Courier" font-size="30.0" fill="#000000" transform="matrix(1.00, 0.00, -0.00, -1.00, 282.7, 457.8)">r</text><text xml:space="preserve" font-family="Courier,Courier" font-size="30.0" fill="#000000" transform="matrix(1.00, 0.00, -0.00, -1.00, 300.8, 457.8)">e</text><text xml:space="preserve" font-family="Courier,Courier" font-size="30.0" fill="#000000" transform="matrix(1.00, 0.00, -0.00, -1.00, 318.8, 457.8)">q</text><text xml:space="preserve" font-family="Courier,Courier" font-size="30.0" fill="#000000" transform="matrix(1.00, 0.00, -0.00, -1.00, 336.8, 457.8)"> </text><text xml:space="preserve" font-family="Courier,Courier" font-size="30.0" fill="#000000" transform="matrix(1.00, 0.00, -0.00, -1.00, 354.8, 457.8)">&gt;</text><text xml:space="preserve" font-family="Courier,Courier" font-size="30.0" fill="#000000" transform="matrix(1.00, 0.00, -0.00, -1.00, 372.8, 457.8)"> </text><text xml:space="preserve" font-family="Courier,Courier" font-size="30.0" fill="#000000" transform="matrix(1.00, 0.00, -0.00, -1.00, 390.8, 457.8)">m</text><text xml:space="preserve" font-family="Courier,Courier" font-size="30.0" fill="#000000" transform="matrix(1.00, 0.00, -0.00, -1.00, 408.8, 457.8)">e</text><text xml:space="preserve" font-family="Courier,Courier" font-size="30.0" fill="#000000" transform="matrix(1.00, 0.00, -0.00, -1.00, 426.8, 457.8)">d</text><text xml:space="preserve" font-family="Courier,Courier" font-size="30.0" fill="#000000" transform="matrix(1.00, 0.00, -0.00, -1.00, 444.8, 457.8)">i</text><text xml:space="preserve" font-family="Courier,Courier" font-size="30.0" fill="#000000" transform="matrix(1.00, 0.00, -0.00, -1.00, 462.8, 457.8)">a</text><text xml:space="preserve" font-family="Courier,Courier" font-size="30.0" fill="#000000" transform="matrix(1.00, 0.00, -0.00, -1.00, 480.8, 457.8)">n</text></g></svg>