<?xml version="1.0" encoding="UTF-8" standalone="no"?><svg xmlns="http://www.w3.org/2000/svg" xmlns:xlink="http://www.w3.org/1999/xlink" clip-rule="evenodd" stroke-miterlimit="10" viewBox="0 0 1024 768"><desc>SVG generated by Keynote</desc><defs></defs><g transform="matrix(1.00, 0.00, -0.00, -1.00, 0.0, 768.0)"><path d="M 0.0 768.0 L 1024.0 768.0 L 1024.0 0.0 L 0.0 0.0 Z M 0.0 768.0 " fill="#FFFFFF"></path><image xlink:href="C2129A3EE7512E75FEE2A48785F9B6A3.png" width="1033.00" height="179.00" transform="matrix(0.21, 0.00, -0.00, -0.21, 40.0, 96.0)"></image><image xlink:href="5BD3BF88B93862A21D4E58AC4CB7CFA6.png" width="291.00" height="49.00" transform="matrix(1.00, 0.00, -0.00, -1.00, 97.0, 667.0)"></image><text xml:space="preserve" font-family="CenturyGothic,Century Gothic" font-size="58.0" fill="#000000" transform="matrix(1.00, 0.00, -0.00, -1.00, 99.7, 619.9)">A</text><text xml:space="preserve" font-family="CenturyGothic,Century Gothic" font-size="58.0" fill="#000000" transform="matrix(1.00, 0.00, -0.00, -1.00, 142.6, 619.9)">B</text><text xml:space="preserve" font-family="CenturyGothic,Century Gothic" font-size="58.0" fill="#000000" transform="matrix(1.00, 0.00, -0.00, -1.00, 175.9, 619.9)">O</text><text xml:space="preserve" font-family="CenturyGothic,Century Gothic" font-size="58.0" fill="#000000" transform="matrix(1.00, 0.00, -0.00, -1.00, 226.3, 619.9)">U</text><text xml:space="preserve" font-family="CenturyGothic,Century Gothic" font-size="58.0" fill="#000000" transform="matrix(1.00, 0.00, -0.00, -1.00, 264.3, 619.9)">T</text><text xml:space="preserve" font-family="CenturyGothic,Century Gothic" font-size="58.0" fill="#000000" transform="matrix(1.00, 0.00, -0.00, -1.00, 289.0, 619.9)"> </text><text xml:space="preserve" font-family="CenturyGothic,Century Gothic" font-size="58.0" fill="#000000" transform="matrix(1.00, 0.00, -0.00, -1.00, 305.0, 619.9)">M</text><text xml:space="preserve" font-family="CenturyGothic,Century Gothic" font-size="58.0" fill="#000000" transform="matrix(1.00, 0.00, -0.00, -1.00, 358.3, 619.9)">E</text><text xml:space="preserve" font-family="CenturyGothic-Bold,Century Gothic" font-weight="bold" font-size="28.0" fill="#525252" transform="matrix(1.00, 0.00, -0.00, -1.00, 942.8, 65.3)">2</text></g></svg>