<?xml version="1.0" encoding="UTF-8" standalone="no"?><svg xmlns="http://www.w3.org/2000/svg" xmlns:xlink="http://www.w3.org/1999/xlink" clip-rule="evenodd" stroke-miterlimit="10" viewBox="0 0 316 249"><desc>SVG generated by Keynote</desc><defs></defs><g transform="matrix(1.00, 0.00, -0.00, -1.00, 0.0, 249.0)"><image xlink:href="3127AB68F63453AD1E14C419C1ACC469.png" width="18.00" height="18.00" transform="matrix(1.00, 0.00, -0.00, -1.00, 2.0, 234.0)"></image><text xml:space="preserve" font-family="ArialMT,Arial" font-size="36.0" fill="#000000" transform="matrix(1.00, 0.00, -0.00, -1.00, 5.4, 211.3)">•</text><image xlink:href="040D3F88747DEB9F0D983513E0D7F605.png" width="26.00" height="35.00" transform="matrix(1.00, 0.00, -0.00, -1.00, 35.0, 241.0)"></image><text xml:space="preserve" font-family="CenturyGothic,Century Gothic" font-size="36.0" fill="#000000" transform="matrix(1.00, 0.00, -0.00, -1.00, 37.2, 210.0)">К</text><image xlink:href="910503C8F429DB52BC239BB79BE7D12F.png" width="59.00" height="30.00" transform="matrix(1.00, 0.00, -0.00, -1.00, 56.0, 236.0)"></image><text xml:space="preserve" font-family="CenturyGothic,Century Gothic" font-size="28.8" fill="#000000" transform="matrix(1.00, 0.00, -0.00, -1.00, 58.5, 210.0)">Р</text><text xml:space="preserve" font-family="CenturyGothic,Century Gothic" font-size="28.8" fill="#000000" transform="matrix(1.00, 0.00, -0.00, -1.00, 75.6, 210.0)">А</text><text xml:space="preserve" font-family="CenturyGothic,Century Gothic" font-size="28.8" fill="#000000" transform="matrix(1.00, 0.00, -0.00, -1.00, 96.9, 210.0)">Я</text><image xlink:href="D560A09F2EA2EED0727B9097B26B2D39.png" width="35.00" height="43.00" transform="matrix(1.00, 0.00, -0.00, -1.00, 123.0, 242.0)"></image><text xml:space="preserve" font-family="CenturyGothic,Century Gothic" font-size="36.0" fill="#000000" transform="matrix(1.00, 0.00, -0.00, -1.00, 113.7, 210.0)"> </text><text xml:space="preserve" font-family="CenturyGothic,Century Gothic" font-size="36.0" fill="#000000" transform="matrix(1.00, 0.00, -0.00, -1.00, 123.6, 210.0)">(</text><text xml:space="preserve" font-family="CenturyGothic,Century Gothic" font-size="36.0" fill="#000000" transform="matrix(1.00, 0.00, -0.00, -1.00, 136.9, 210.0)">E</text><image xlink:href="B9F49ECB818AB7B7DBE9CBBD60E776FA.png" width="81.00" height="31.00" transform="matrix(1.00, 0.00, -0.00, -1.00, 153.0, 237.0)"></image><text xml:space="preserve" font-family="CenturyGothic,Century Gothic" font-size="28.8" fill="#000000" transform="matrix(1.00, 0.00, -0.00, -1.00, 156.2, 210.0)">D</text><text xml:space="preserve" font-family="CenturyGothic,Century Gothic" font-size="28.8" fill="#000000" transform="matrix(1.00, 0.00, -0.00, -1.00, 177.7, 210.0)">G</text><text xml:space="preserve" font-family="CenturyGothic,Century Gothic" font-size="28.8" fill="#000000" transform="matrix(1.00, 0.00, -0.00, -1.00, 202.8, 210.0)">E</text><text xml:space="preserve" font-family="CenturyGothic,Century Gothic" font-size="28.8" fill="#000000" transform="matrix(1.00, 0.00, -0.00, -1.00, 218.2, 210.0)">S</text><image xlink:href="B3E36111D8C1F67236D8F9887E743215.png" width="16.00" height="43.00" transform="matrix(1.00, 0.00, -0.00, -1.00, 229.0, 242.0)"></image><text xml:space="preserve" font-family="CenturyGothic,Century Gothic" font-size="36.0" fill="#000000" transform="matrix(1.00, 0.00, -0.00, -1.00, 232.6, 210.0)">)</text><text xml:space="preserve" font-family="CenturyGothic,Century Gothic" font-size="36.0" fill="#000000" transform="matrix(1.00, 0.00, -0.00, -1.00, 245.9, 210.0)"> </text><image xlink:href="../../3F8CAE88-8AC4-4BBD-A2D5-13110DBAC90B/assets/3127AB68F63453AD1E14C419C1ACC469.png" width="18.00" height="18.00" transform="matrix(1.00, 0.00, -0.00, -1.00, 2.0, 184.0)"></image><text xml:space="preserve" font-family="ArialMT,Arial" font-size="36.0" fill="#000000" transform="matrix(1.00, 0.00, -0.00, -1.00, 5.4, 161.3)">•</text><image xlink:href="22F7F972DDB7E6454BFC648C7628ABE9.png" width="30.00" height="35.00" transform="matrix(1.00, 0.00, -0.00, -1.00, 33.0, 191.0)"></image><text xml:space="preserve" font-family="CenturyGothic,Century Gothic" font-size="36.0" fill="#000000" transform="matrix(1.00, 0.00, -0.00, -1.00, 37.2, 160.0)">У</text><image xlink:href="BA5EE056D110A6630F51031BFB1791DD.png" width="61.00" height="30.00" transform="matrix(1.00, 0.00, -0.00, -1.00, 57.0, 186.0)"></image><text xml:space="preserve" font-family="CenturyGothic,Century Gothic" font-size="28.8" fill="#000000" transform="matrix(1.00, 0.00, -0.00, -1.00, 60.5, 160.0)">Г</text><text xml:space="preserve" font-family="CenturyGothic,Century Gothic" font-size="28.8" fill="#000000" transform="matrix(1.00, 0.00, -0.00, -1.00, 73.8, 160.0)">Л</text><text xml:space="preserve" font-family="CenturyGothic,Century Gothic" font-size="28.8" fill="#000000" transform="matrix(1.00, 0.00, -0.00, -1.00, 94.0, 160.0)">Ы</text><image xlink:href="44380B346976617A7D9A1D66CB4CA330.png" width="45.00" height="43.00" transform="matrix(1.00, 0.00, -0.00, -1.00, 126.0, 192.0)"></image><text xml:space="preserve" font-family="CenturyGothic,Century Gothic" font-size="36.0" fill="#000000" transform="matrix(1.00, 0.00, -0.00, -1.00, 116.9, 160.0)"> </text><text xml:space="preserve" font-family="CenturyGothic,Century Gothic" font-size="36.0" fill="#000000" transform="matrix(1.00, 0.00, -0.00, -1.00, 126.8, 160.0)">(</text><text xml:space="preserve" font-family="CenturyGothic,Century Gothic" font-size="36.0" fill="#000000" transform="matrix(1.00, 0.00, -0.00, -1.00, 140.1, 160.0)">C</text><image xlink:href="31E0F8E73E3AAC30B4D238FA9E0EAFF9.png" width="116.00" height="31.00" transform="matrix(1.00, 0.00, -0.00, -1.00, 166.0, 187.0)"></image><text xml:space="preserve" font-family="CenturyGothic,Century Gothic" font-size="28.8" fill="#000000" transform="matrix(1.00, 0.00, -0.00, -1.00, 169.4, 160.0)">O</text><text xml:space="preserve" font-family="CenturyGothic,Century Gothic" font-size="28.8" fill="#000000" transform="matrix(1.00, 0.00, -0.00, -1.00, 194.4, 160.0)">R</text><text xml:space="preserve" font-family="CenturyGothic,Century Gothic" font-size="28.8" fill="#000000" transform="matrix(1.00, 0.00, -0.00, -1.00, 211.9, 160.0)">N</text><text xml:space="preserve" font-family="CenturyGothic,Century Gothic" font-size="28.8" fill="#000000" transform="matrix(1.00, 0.00, -0.00, -1.00, 233.2, 160.0)">E</text><text xml:space="preserve" font-family="CenturyGothic,Century Gothic" font-size="28.8" fill="#000000" transform="matrix(1.00, 0.00, -0.00, -1.00, 248.7, 160.0)">R</text><text xml:space="preserve" font-family="CenturyGothic,Century Gothic" font-size="28.8" fill="#000000" transform="matrix(1.00, 0.00, -0.00, -1.00, 266.1, 160.0)">S</text><image xlink:href="EF3EDDCD4C7C75503DF5DFA9668FBDEF.png" width="16.00" height="43.00" transform="matrix(1.00, 0.00, -0.00, -1.00, 277.0, 192.0)"></image><text xml:space="preserve" font-family="CenturyGothic,Century Gothic" font-size="36.0" fill="#000000" transform="matrix(1.00, 0.00, -0.00, -1.00, 280.5, 160.0)">)</text><text xml:space="preserve" font-family="CenturyGothic,Century Gothic" font-size="36.0" fill="#000000" transform="matrix(1.00, 0.00, -0.00, -1.00, 293.8, 160.0)"> </text><image xlink:href="../../3F8CAE88-8AC4-4BBD-A2D5-13110DBAC90B/assets/3127AB68F63453AD1E14C419C1ACC469.png" width="18.00" height="18.00" transform="matrix(1.00, 0.00, -0.00, -1.00, 2.0, 134.0)"></image><text xml:space="preserve" font-family="ArialMT,Arial" font-size="36.0" fill="#000000" transform="matrix(1.00, 0.00, -0.00, -1.00, 5.4, 111.3)">•</text><image xlink:href="E83D0203BFFEA63BB5474AEE4DB0639D.png" width="24.00" height="35.00" transform="matrix(1.00, 0.00, -0.00, -1.00, 35.0, 141.0)"></image><text xml:space="preserve" font-family="CenturyGothic,Century Gothic" font-size="36.0" fill="#000000" transform="matrix(1.00, 0.00, -0.00, -1.00, 37.2, 110.0)">B</text><image xlink:href="241739751F05C6489036FDAEFCB57D72.png" width="74.00" height="31.00" transform="matrix(1.00, 0.00, -0.00, -1.00, 55.0, 137.0)"></image><text xml:space="preserve" font-family="CenturyGothic,Century Gothic" font-size="28.8" fill="#000000" transform="matrix(1.00, 0.00, -0.00, -1.00, 57.9, 110.0)">L</text><text xml:space="preserve" font-family="CenturyGothic,Century Gothic" font-size="28.8" fill="#000000" transform="matrix(1.00, 0.00, -0.00, -1.00, 71.2, 110.0)">O</text><text xml:space="preserve" font-family="CenturyGothic,Century Gothic" font-size="28.8" fill="#000000" transform="matrix(1.00, 0.00, -0.00, -1.00, 96.2, 110.0)">B</text><text xml:space="preserve" font-family="CenturyGothic,Century Gothic" font-size="28.8" fill="#000000" transform="matrix(1.00, 0.00, -0.00, -1.00, 112.8, 110.0)">S</text><text xml:space="preserve" font-family="CenturyGothic,Century Gothic" font-size="36.0" fill="#000000" transform="matrix(1.00, 0.00, -0.00, -1.00, 127.1, 110.0)"> </text><image xlink:href="../../3F8CAE88-8AC4-4BBD-A2D5-13110DBAC90B/assets/3127AB68F63453AD1E14C419C1ACC469.png" width="18.00" height="18.00" transform="matrix(1.00, 0.00, -0.00, -1.00, 2.0, 84.0)"></image><text xml:space="preserve" font-family="ArialMT,Arial" font-size="36.0" fill="#000000" transform="matrix(1.00, 0.00, -0.00, -1.00, 5.4, 61.3)">•</text><image xlink:href="3EAFAD0AC89AEF7B5EEA42CD1A8E31AF.png" width="26.00" height="35.00" transform="matrix(1.00, 0.00, -0.00, -1.00, 35.0, 91.0)"></image><text xml:space="preserve" font-family="CenturyGothic,Century Gothic" font-size="36.0" fill="#000000" transform="matrix(1.00, 0.00, -0.00, -1.00, 37.2, 60.0)">R</text><image xlink:href="604FECF253FD6DCF67A13A3518C4D715.png" width="88.00" height="31.00" transform="matrix(1.00, 0.00, -0.00, -1.00, 56.0, 87.0)"></image><text xml:space="preserve" font-family="CenturyGothic,Century Gothic" font-size="28.8" fill="#000000" transform="matrix(1.00, 0.00, -0.00, -1.00, 59.1, 60.0)">I</text><text xml:space="preserve" font-family="CenturyGothic,Century Gothic" font-size="28.8" fill="#000000" transform="matrix(1.00, 0.00, -0.00, -1.00, 65.6, 60.0)">D</text><text xml:space="preserve" font-family="CenturyGothic,Century Gothic" font-size="28.8" fill="#000000" transform="matrix(1.00, 0.00, -0.00, -1.00, 87.0, 60.0)">G</text><text xml:space="preserve" font-family="CenturyGothic,Century Gothic" font-size="28.8" fill="#000000" transform="matrix(1.00, 0.00, -0.00, -1.00, 112.2, 60.0)">E</text><text xml:space="preserve" font-family="CenturyGothic,Century Gothic" font-size="28.8" fill="#000000" transform="matrix(1.00, 0.00, -0.00, -1.00, 127.6, 60.0)">S</text><image xlink:href="270A652F95D480768384C3DCBACCDE89.png" width="38.00" height="43.00" transform="matrix(1.00, 0.00, -0.00, -1.00, 151.0, 92.0)"></image><text xml:space="preserve" font-family="CenturyGothic,Century Gothic" font-size="36.0" fill="#000000" transform="matrix(1.00, 0.00, -0.00, -1.00, 141.9, 60.0)"> </text><text xml:space="preserve" font-family="CenturyGothic,Century Gothic" font-size="36.0" fill="#000000" transform="matrix(1.00, 0.00, -0.00, -1.00, 151.9, 60.0)">(</text><text xml:space="preserve" font-family="CenturyGothic,Century Gothic" font-size="36.0" fill="#000000" transform="matrix(1.00, 0.00, -0.00, -1.00, 165.2, 60.0)">К</text><image xlink:href="7D4A4C713162B832462331A0F3A5599F.png" width="98.00" height="31.00" transform="matrix(1.00, 0.00, -0.00, -1.00, 183.0, 87.0)"></image><text xml:space="preserve" font-family="CenturyGothic,Century Gothic" font-size="28.8" fill="#000000" transform="matrix(1.00, 0.00, -0.00, -1.00, 186.5, 60.0)">О</text><text xml:space="preserve" font-family="CenturyGothic,Century Gothic" font-size="28.8" fill="#000000" transform="matrix(1.00, 0.00, -0.00, -1.00, 211.5, 60.0)">Н</text><text xml:space="preserve" font-family="CenturyGothic,Century Gothic" font-size="28.8" fill="#000000" transform="matrix(1.00, 0.00, -0.00, -1.00, 231.2, 60.0)">Т</text><text xml:space="preserve" font-family="CenturyGothic,Century Gothic" font-size="28.8" fill="#000000" transform="matrix(1.00, 0.00, -0.00, -1.00, 243.4, 60.0)">У</text><text xml:space="preserve" font-family="CenturyGothic,Century Gothic" font-size="28.8" fill="#000000" transform="matrix(1.00, 0.00, -0.00, -1.00, 262.0, 60.0)">Р</text><image xlink:href="3BC5798A9DAA21E2AA57A9D76F11F57C.png" width="35.00" height="43.00" transform="matrix(1.00, 0.00, -0.00, -1.00, 277.0, 92.0)"></image><text xml:space="preserve" font-family="CenturyGothic,Century Gothic" font-size="36.0" fill="#000000" transform="matrix(1.00, 0.00, -0.00, -1.00, 279.1, 60.0)">?</text><text xml:space="preserve" font-family="CenturyGothic,Century Gothic" font-size="36.0" fill="#000000" transform="matrix(1.00, 0.00, -0.00, -1.00, 300.3, 60.0)">)</text><text xml:space="preserve" font-family="CenturyGothic,Century Gothic" font-size="36.0" fill="#000000" transform="matrix(1.00, 0.00, -0.00, -1.00, 313.6, 60.0)"> </text><image xlink:href="../../3F8CAE88-8AC4-4BBD-A2D5-13110DBAC90B/assets/3127AB68F63453AD1E14C419C1ACC469.png" width="18.00" height="18.00" transform="matrix(1.00, 0.00, -0.00, -1.00, 2.0, 34.0)"></image><text xml:space="preserve" font-family="ArialMT,Arial" font-size="36.0" fill="#000000" transform="matrix(1.00, 0.00, -0.00, -1.00, 5.4, 11.3)">•</text><image xlink:href="F61A628A810EB4BCBC0DE9D34E88BDB9.png" width="25.00" height="35.00" transform="matrix(1.00, 0.00, -0.00, -1.00, 35.0, 41.0)"></image><text xml:space="preserve" font-family="CenturyGothic,Century Gothic" font-size="36.0" fill="#000000" transform="matrix(1.00, 0.00, -0.00, -1.00, 37.2, 10.0)">Р</text><image xlink:href="152F05C1EC92FEF8813557E5C470A60D.png" width="121.00" height="31.00" transform="matrix(1.00, 0.00, -0.00, -1.00, 56.0, 37.0)"></image><text xml:space="preserve" font-family="CenturyGothic,Century Gothic" font-size="28.8" fill="#000000" transform="matrix(1.00, 0.00, -0.00, -1.00, 58.6, 10.0)">Е</text><text xml:space="preserve" font-family="CenturyGothic,Century Gothic" font-size="28.8" fill="#000000" transform="matrix(1.00, 0.00, -0.00, -1.00, 74.0, 10.0)">Г</text><text xml:space="preserve" font-family="CenturyGothic,Century Gothic" font-size="28.8" fill="#000000" transform="matrix(1.00, 0.00, -0.00, -1.00, 87.3, 10.0)">И</text><text xml:space="preserve" font-family="CenturyGothic,Century Gothic" font-size="28.8" fill="#000000" transform="matrix(1.00, 0.00, -0.00, -1.00, 108.6, 10.0)">О</text><text xml:space="preserve" font-family="CenturyGothic,Century Gothic" font-size="28.8" fill="#000000" transform="matrix(1.00, 0.00, -0.00, -1.00, 133.6, 10.0)">Н</text><text xml:space="preserve" font-family="CenturyGothic,Century Gothic" font-size="28.8" fill="#000000" transform="matrix(1.00, 0.00, -0.00, -1.00, 153.3, 10.0)">Ы</text></g></svg>