<?xml version="1.0" encoding="UTF-8" standalone="no"?><svg xmlns="http://www.w3.org/2000/svg" xmlns:xlink="http://www.w3.org/1999/xlink" clip-rule="evenodd" stroke-miterlimit="10" viewBox="0 0 1024 768"><desc>SVG generated by Keynote</desc><defs></defs><g transform="matrix(1.00, 0.00, -0.00, -1.00, 0.0, 768.0)"><path d="M 0.0 768.0 L 1024.0 768.0 L 1024.0 0.0 L 0.0 0.0 Z M 0.0 768.0 " fill="#FFFFFF"></path><image xlink:href="../../2228AE9C-3706-437F-8379-D21BA5B8F0CA/assets/C2129A3EE7512E75FEE2A48785F9B6A3.png" width="1033.00" height="179.00" transform="matrix(0.21, 0.00, -0.00, -0.21, 40.0, 95.6)"></image><image xlink:href="../../4FD8B179-3A49-4E63-A568-0CB2945AE0A6/assets/15CC413DE3C1D5614E32B3669FB6ADDC.png" width="562.00" height="49.00" transform="matrix(1.00, 0.00, -0.00, -1.00, 100.0, 668.0)"></image><text xml:space="preserve" font-family="CenturyGothic,Century Gothic" font-size="58.0" fill="#000000" transform="matrix(1.00, 0.00, -0.00, -1.00, 99.8, 621.1)">И</text><text xml:space="preserve" font-family="CenturyGothic,Century Gothic" font-size="58.0" fill="#000000" transform="matrix(1.00, 0.00, -0.00, -1.00, 142.7, 621.1)">Н</text><text xml:space="preserve" font-family="CenturyGothic,Century Gothic" font-size="58.0" fill="#000000" transform="matrix(1.00, 0.00, -0.00, -1.00, 182.4, 621.1)">Т</text><text xml:space="preserve" font-family="CenturyGothic,Century Gothic" font-size="58.0" fill="#000000" transform="matrix(1.00, 0.00, -0.00, -1.00, 207.0, 621.1)">Е</text><text xml:space="preserve" font-family="CenturyGothic,Century Gothic" font-size="58.0" fill="#000000" transform="matrix(1.00, 0.00, -0.00, -1.00, 238.1, 621.1)">Р</text><text xml:space="preserve" font-family="CenturyGothic,Century Gothic" font-size="58.0" fill="#000000" transform="matrix(1.00, 0.00, -0.00, -1.00, 272.5, 621.1)">Е</text><text xml:space="preserve" font-family="CenturyGothic,Century Gothic" font-size="58.0" fill="#000000" transform="matrix(1.00, 0.00, -0.00, -1.00, 303.6, 621.1)">С</text><text xml:space="preserve" font-family="CenturyGothic,Century Gothic" font-size="58.0" fill="#000000" transform="matrix(1.00, 0.00, -0.00, -1.00, 350.7, 621.1)">Н</text><text xml:space="preserve" font-family="CenturyGothic,Century Gothic" font-size="58.0" fill="#000000" transform="matrix(1.00, 0.00, -0.00, -1.00, 390.3, 621.1)">Ы</text><text xml:space="preserve" font-family="CenturyGothic,Century Gothic" font-size="58.0" fill="#000000" transform="matrix(1.00, 0.00, -0.00, -1.00, 436.3, 621.1)">Е</text><text xml:space="preserve" font-family="CenturyGothic,Century Gothic" font-size="58.0" fill="#000000" transform="matrix(1.00, 0.00, -0.00, -1.00, 467.4, 621.1)"> </text><text xml:space="preserve" font-family="CenturyGothic,Century Gothic" font-size="58.0" fill="#000000" transform="matrix(1.00, 0.00, -0.00, -1.00, 483.5, 621.1)">Т</text><text xml:space="preserve" font-family="CenturyGothic,Century Gothic" font-size="58.0" fill="#000000" transform="matrix(1.00, 0.00, -0.00, -1.00, 508.2, 621.1)">О</text><text xml:space="preserve" font-family="CenturyGothic,Century Gothic" font-size="58.0" fill="#000000" transform="matrix(1.00, 0.00, -0.00, -1.00, 558.6, 621.1)">Ч</text><text xml:space="preserve" font-family="CenturyGothic,Century Gothic" font-size="58.0" fill="#000000" transform="matrix(1.00, 0.00, -0.00, -1.00, 589.8, 621.1)">К</text><text xml:space="preserve" font-family="CenturyGothic,Century Gothic" font-size="58.0" fill="#000000" transform="matrix(1.00, 0.00, -0.00, -1.00, 624.1, 621.1)">И</text><image xlink:href="../../3F8CAE88-8AC4-4BBD-A2D5-13110DBAC90B/assets/3127AB68F63453AD1E14C419C1ACC469.png" width="18.00" height="18.00" transform="matrix(1.00, 0.00, -0.00, -1.00, 95.0, 494.0)"></image><text xml:space="preserve" font-family="ArialMT,Arial" font-size="36.0" fill="#000000" transform="matrix(1.00, 0.00, -0.00, -1.00, 98.4, 471.3)">•</text><image xlink:href="../../3F8CAE88-8AC4-4BBD-A2D5-13110DBAC90B/assets/040D3F88747DEB9F0D983513E0D7F605.png" width="26.00" height="35.00" transform="matrix(1.00, 0.00, -0.00, -1.00, 128.0, 501.0)"></image><text xml:space="preserve" font-family="CenturyGothic,Century Gothic" font-size="36.0" fill="#000000" transform="matrix(1.00, 0.00, -0.00, -1.00, 130.2, 470.0)">К</text><image xlink:href="../../3F8CAE88-8AC4-4BBD-A2D5-13110DBAC90B/assets/910503C8F429DB52BC239BB79BE7D12F.png" width="59.00" height="30.00" transform="matrix(1.00, 0.00, -0.00, -1.00, 149.0, 496.0)"></image><text xml:space="preserve" font-family="CenturyGothic,Century Gothic" font-size="28.8" fill="#000000" transform="matrix(1.00, 0.00, -0.00, -1.00, 151.5, 470.0)">Р</text><text xml:space="preserve" font-family="CenturyGothic,Century Gothic" font-size="28.8" fill="#000000" transform="matrix(1.00, 0.00, -0.00, -1.00, 168.6, 470.0)">А</text><text xml:space="preserve" font-family="CenturyGothic,Century Gothic" font-size="28.8" fill="#000000" transform="matrix(1.00, 0.00, -0.00, -1.00, 189.9, 470.0)">Я</text><image xlink:href="../../3F8CAE88-8AC4-4BBD-A2D5-13110DBAC90B/assets/D560A09F2EA2EED0727B9097B26B2D39.png" width="35.00" height="43.00" transform="matrix(1.00, 0.00, -0.00, -1.00, 216.0, 502.0)"></image><text xml:space="preserve" font-family="CenturyGothic,Century Gothic" font-size="36.0" fill="#000000" transform="matrix(1.00, 0.00, -0.00, -1.00, 206.7, 470.0)"> </text><text xml:space="preserve" font-family="CenturyGothic,Century Gothic" font-size="36.0" fill="#000000" transform="matrix(1.00, 0.00, -0.00, -1.00, 216.6, 470.0)">(</text><text xml:space="preserve" font-family="CenturyGothic,Century Gothic" font-size="36.0" fill="#000000" transform="matrix(1.00, 0.00, -0.00, -1.00, 229.9, 470.0)">E</text><image xlink:href="../../3F8CAE88-8AC4-4BBD-A2D5-13110DBAC90B/assets/B9F49ECB818AB7B7DBE9CBBD60E776FA.png" width="81.00" height="31.00" transform="matrix(1.00, 0.00, -0.00, -1.00, 246.0, 497.0)"></image><text xml:space="preserve" font-family="CenturyGothic,Century Gothic" font-size="28.8" fill="#000000" transform="matrix(1.00, 0.00, -0.00, -1.00, 249.2, 470.0)">D</text><text xml:space="preserve" font-family="CenturyGothic,Century Gothic" font-size="28.8" fill="#000000" transform="matrix(1.00, 0.00, -0.00, -1.00, 270.7, 470.0)">G</text><text xml:space="preserve" font-family="CenturyGothic,Century Gothic" font-size="28.8" fill="#000000" transform="matrix(1.00, 0.00, -0.00, -1.00, 295.8, 470.0)">E</text><text xml:space="preserve" font-family="CenturyGothic,Century Gothic" font-size="28.8" fill="#000000" transform="matrix(1.00, 0.00, -0.00, -1.00, 311.2, 470.0)">S</text><image xlink:href="../../3F8CAE88-8AC4-4BBD-A2D5-13110DBAC90B/assets/B3E36111D8C1F67236D8F9887E743215.png" width="16.00" height="43.00" transform="matrix(1.00, 0.00, -0.00, -1.00, 322.0, 502.0)"></image><text xml:space="preserve" font-family="CenturyGothic,Century Gothic" font-size="36.0" fill="#000000" transform="matrix(1.00, 0.00, -0.00, -1.00, 325.6, 470.0)">)</text><text xml:space="preserve" font-family="CenturyGothic,Century Gothic" font-size="36.0" fill="#000000" transform="matrix(1.00, 0.00, -0.00, -1.00, 338.9, 470.0)"> </text><image xlink:href="../../3F8CAE88-8AC4-4BBD-A2D5-13110DBAC90B/assets/3127AB68F63453AD1E14C419C1ACC469.png" width="18.00" height="18.00" transform="matrix(1.00, 0.00, -0.00, -1.00, 95.0, 444.0)"></image><text xml:space="preserve" font-family="ArialMT,Arial" font-size="36.0" fill="#000000" transform="matrix(1.00, 0.00, -0.00, -1.00, 98.4, 421.3)">•</text><image xlink:href="../../3F8CAE88-8AC4-4BBD-A2D5-13110DBAC90B/assets/22F7F972DDB7E6454BFC648C7628ABE9.png" width="30.00" height="35.00" transform="matrix(1.00, 0.00, -0.00, -1.00, 126.0, 451.0)"></image><text xml:space="preserve" font-family="CenturyGothic,Century Gothic" font-size="36.0" fill="#000000" transform="matrix(1.00, 0.00, -0.00, -1.00, 130.2, 420.0)">У</text><image xlink:href="../../3F8CAE88-8AC4-4BBD-A2D5-13110DBAC90B/assets/BA5EE056D110A6630F51031BFB1791DD.png" width="61.00" height="30.00" transform="matrix(1.00, 0.00, -0.00, -1.00, 150.0, 446.0)"></image><text xml:space="preserve" font-family="CenturyGothic,Century Gothic" font-size="28.8" fill="#000000" transform="matrix(1.00, 0.00, -0.00, -1.00, 153.5, 420.0)">Г</text><text xml:space="preserve" font-family="CenturyGothic,Century Gothic" font-size="28.8" fill="#000000" transform="matrix(1.00, 0.00, -0.00, -1.00, 166.8, 420.0)">Л</text><text xml:space="preserve" font-family="CenturyGothic,Century Gothic" font-size="28.8" fill="#000000" transform="matrix(1.00, 0.00, -0.00, -1.00, 187.0, 420.0)">Ы</text><image xlink:href="../../3F8CAE88-8AC4-4BBD-A2D5-13110DBAC90B/assets/44380B346976617A7D9A1D66CB4CA330.png" width="45.00" height="43.00" transform="matrix(1.00, 0.00, -0.00, -1.00, 219.0, 452.0)"></image><text xml:space="preserve" font-family="CenturyGothic,Century Gothic" font-size="36.0" fill="#000000" transform="matrix(1.00, 0.00, -0.00, -1.00, 209.9, 420.0)"> </text><text xml:space="preserve" font-family="CenturyGothic,Century Gothic" font-size="36.0" fill="#000000" transform="matrix(1.00, 0.00, -0.00, -1.00, 219.8, 420.0)">(</text><text xml:space="preserve" font-family="CenturyGothic,Century Gothic" font-size="36.0" fill="#000000" transform="matrix(1.00, 0.00, -0.00, -1.00, 233.1, 420.0)">C</text><image xlink:href="../../3F8CAE88-8AC4-4BBD-A2D5-13110DBAC90B/assets/31E0F8E73E3AAC30B4D238FA9E0EAFF9.png" width="116.00" height="31.00" transform="matrix(1.00, 0.00, -0.00, -1.00, 259.0, 447.0)"></image><text xml:space="preserve" font-family="CenturyGothic,Century Gothic" font-size="28.8" fill="#000000" transform="matrix(1.00, 0.00, -0.00, -1.00, 262.4, 420.0)">O</text><text xml:space="preserve" font-family="CenturyGothic,Century Gothic" font-size="28.8" fill="#000000" transform="matrix(1.00, 0.00, -0.00, -1.00, 287.4, 420.0)">R</text><text xml:space="preserve" font-family="CenturyGothic,Century Gothic" font-size="28.8" fill="#000000" transform="matrix(1.00, 0.00, -0.00, -1.00, 304.9, 420.0)">N</text><text xml:space="preserve" font-family="CenturyGothic,Century Gothic" font-size="28.8" fill="#000000" transform="matrix(1.00, 0.00, -0.00, -1.00, 326.2, 420.0)">E</text><text xml:space="preserve" font-family="CenturyGothic,Century Gothic" font-size="28.8" fill="#000000" transform="matrix(1.00, 0.00, -0.00, -1.00, 341.7, 420.0)">R</text><text xml:space="preserve" font-family="CenturyGothic,Century Gothic" font-size="28.8" fill="#000000" transform="matrix(1.00, 0.00, -0.00, -1.00, 359.1, 420.0)">S</text><image xlink:href="../../3F8CAE88-8AC4-4BBD-A2D5-13110DBAC90B/assets/EF3EDDCD4C7C75503DF5DFA9668FBDEF.png" width="16.00" height="43.00" transform="matrix(1.00, 0.00, -0.00, -1.00, 370.0, 452.0)"></image><text xml:space="preserve" font-family="CenturyGothic,Century Gothic" font-size="36.0" fill="#000000" transform="matrix(1.00, 0.00, -0.00, -1.00, 373.5, 420.0)">)</text><text xml:space="preserve" font-family="CenturyGothic,Century Gothic" font-size="36.0" fill="#000000" transform="matrix(1.00, 0.00, -0.00, -1.00, 386.8, 420.0)"> </text><image xlink:href="../../3F8CAE88-8AC4-4BBD-A2D5-13110DBAC90B/assets/3127AB68F63453AD1E14C419C1ACC469.png" width="18.00" height="18.00" transform="matrix(1.00, 0.00, -0.00, -1.00, 95.0, 394.0)"></image><text xml:space="preserve" font-family="ArialMT,Arial" font-size="36.0" fill="#000000" transform="matrix(1.00, 0.00, -0.00, -1.00, 98.4, 371.3)">•</text><image xlink:href="../../3F8CAE88-8AC4-4BBD-A2D5-13110DBAC90B/assets/E83D0203BFFEA63BB5474AEE4DB0639D.png" width="24.00" height="35.00" transform="matrix(1.00, 0.00, -0.00, -1.00, 128.0, 401.0)"></image><text xml:space="preserve" font-family="CenturyGothic,Century Gothic" font-size="36.0" fill="#000000" transform="matrix(1.00, 0.00, -0.00, -1.00, 130.2, 370.0)">B</text><image xlink:href="../../3F8CAE88-8AC4-4BBD-A2D5-13110DBAC90B/assets/241739751F05C6489036FDAEFCB57D72.png" width="74.00" height="31.00" transform="matrix(1.00, 0.00, -0.00, -1.00, 148.0, 397.0)"></image><text xml:space="preserve" font-family="CenturyGothic,Century Gothic" font-size="28.8" fill="#000000" transform="matrix(1.00, 0.00, -0.00, -1.00, 150.9, 370.0)">L</text><text xml:space="preserve" font-family="CenturyGothic,Century Gothic" font-size="28.8" fill="#000000" transform="matrix(1.00, 0.00, -0.00, -1.00, 164.2, 370.0)">O</text><text xml:space="preserve" font-family="CenturyGothic,Century Gothic" font-size="28.8" fill="#000000" transform="matrix(1.00, 0.00, -0.00, -1.00, 189.2, 370.0)">B</text><text xml:space="preserve" font-family="CenturyGothic,Century Gothic" font-size="28.8" fill="#000000" transform="matrix(1.00, 0.00, -0.00, -1.00, 205.8, 370.0)">S</text><text xml:space="preserve" font-family="CenturyGothic,Century Gothic" font-size="36.0" fill="#000000" transform="matrix(1.00, 0.00, -0.00, -1.00, 220.1, 370.0)"> </text><image xlink:href="../../3F8CAE88-8AC4-4BBD-A2D5-13110DBAC90B/assets/3127AB68F63453AD1E14C419C1ACC469.png" width="18.00" height="18.00" transform="matrix(1.00, 0.00, -0.00, -1.00, 95.0, 344.0)"></image><text xml:space="preserve" font-family="ArialMT,Arial" font-size="36.0" fill="#000000" transform="matrix(1.00, 0.00, -0.00, -1.00, 98.4, 321.3)">•</text><image xlink:href="../../3F8CAE88-8AC4-4BBD-A2D5-13110DBAC90B/assets/3EAFAD0AC89AEF7B5EEA42CD1A8E31AF.png" width="26.00" height="35.00" transform="matrix(1.00, 0.00, -0.00, -1.00, 128.0, 351.0)"></image><text xml:space="preserve" font-family="CenturyGothic,Century Gothic" font-size="36.0" fill="#000000" transform="matrix(1.00, 0.00, -0.00, -1.00, 130.2, 320.0)">R</text><image xlink:href="../../3F8CAE88-8AC4-4BBD-A2D5-13110DBAC90B/assets/604FECF253FD6DCF67A13A3518C4D715.png" width="88.00" height="31.00" transform="matrix(1.00, 0.00, -0.00, -1.00, 149.0, 347.0)"></image><text xml:space="preserve" font-family="CenturyGothic,Century Gothic" font-size="28.8" fill="#000000" transform="matrix(1.00, 0.00, -0.00, -1.00, 152.1, 320.0)">I</text><text xml:space="preserve" font-family="CenturyGothic,Century Gothic" font-size="28.8" fill="#000000" transform="matrix(1.00, 0.00, -0.00, -1.00, 158.6, 320.0)">D</text><text xml:space="preserve" font-family="CenturyGothic,Century Gothic" font-size="28.8" fill="#000000" transform="matrix(1.00, 0.00, -0.00, -1.00, 180.0, 320.0)">G</text><text xml:space="preserve" font-family="CenturyGothic,Century Gothic" font-size="28.8" fill="#000000" transform="matrix(1.00, 0.00, -0.00, -1.00, 205.2, 320.0)">E</text><text xml:space="preserve" font-family="CenturyGothic,Century Gothic" font-size="28.8" fill="#000000" transform="matrix(1.00, 0.00, -0.00, -1.00, 220.6, 320.0)">S</text><image xlink:href="../../3F8CAE88-8AC4-4BBD-A2D5-13110DBAC90B/assets/270A652F95D480768384C3DCBACCDE89.png" width="38.00" height="43.00" transform="matrix(1.00, 0.00, -0.00, -1.00, 244.0, 352.0)"></image><text xml:space="preserve" font-family="CenturyGothic,Century Gothic" font-size="36.0" fill="#000000" transform="matrix(1.00, 0.00, -0.00, -1.00, 234.9, 320.0)"> </text><text xml:space="preserve" font-family="CenturyGothic,Century Gothic" font-size="36.0" fill="#000000" transform="matrix(1.00, 0.00, -0.00, -1.00, 244.9, 320.0)">(</text><text xml:space="preserve" font-family="CenturyGothic,Century Gothic" font-size="36.0" fill="#000000" transform="matrix(1.00, 0.00, -0.00, -1.00, 258.2, 320.0)">К</text><image xlink:href="../../3F8CAE88-8AC4-4BBD-A2D5-13110DBAC90B/assets/7D4A4C713162B832462331A0F3A5599F.png" width="98.00" height="31.00" transform="matrix(1.00, 0.00, -0.00, -1.00, 276.0, 347.0)"></image><text xml:space="preserve" font-family="CenturyGothic,Century Gothic" font-size="28.8" fill="#000000" transform="matrix(1.00, 0.00, -0.00, -1.00, 279.5, 320.0)">О</text><text xml:space="preserve" font-family="CenturyGothic,Century Gothic" font-size="28.8" fill="#000000" transform="matrix(1.00, 0.00, -0.00, -1.00, 304.5, 320.0)">Н</text><text xml:space="preserve" font-family="CenturyGothic,Century Gothic" font-size="28.8" fill="#000000" transform="matrix(1.00, 0.00, -0.00, -1.00, 324.2, 320.0)">Т</text><text xml:space="preserve" font-family="CenturyGothic,Century Gothic" font-size="28.8" fill="#000000" transform="matrix(1.00, 0.00, -0.00, -1.00, 336.4, 320.0)">У</text><text xml:space="preserve" font-family="CenturyGothic,Century Gothic" font-size="28.8" fill="#000000" transform="matrix(1.00, 0.00, -0.00, -1.00, 355.0, 320.0)">Р</text><image xlink:href="../../3F8CAE88-8AC4-4BBD-A2D5-13110DBAC90B/assets/3BC5798A9DAA21E2AA57A9D76F11F57C.png" width="35.00" height="43.00" transform="matrix(1.00, 0.00, -0.00, -1.00, 370.0, 352.0)"></image><text xml:space="preserve" font-family="CenturyGothic,Century Gothic" font-size="36.0" fill="#000000" transform="matrix(1.00, 0.00, -0.00, -1.00, 372.1, 320.0)">?</text><text xml:space="preserve" font-family="CenturyGothic,Century Gothic" font-size="36.0" fill="#000000" transform="matrix(1.00, 0.00, -0.00, -1.00, 393.3, 320.0)">)</text><text xml:space="preserve" font-family="CenturyGothic,Century Gothic" font-size="36.0" fill="#000000" transform="matrix(1.00, 0.00, -0.00, -1.00, 406.6, 320.0)"> </text><image xlink:href="../../3F8CAE88-8AC4-4BBD-A2D5-13110DBAC90B/assets/3127AB68F63453AD1E14C419C1ACC469.png" width="18.00" height="18.00" transform="matrix(1.00, 0.00, -0.00, -1.00, 95.0, 294.0)"></image><text xml:space="preserve" font-family="ArialMT,Arial" font-size="36.0" fill="#000000" transform="matrix(1.00, 0.00, -0.00, -1.00, 98.4, 271.3)">•</text><image xlink:href="../../3F8CAE88-8AC4-4BBD-A2D5-13110DBAC90B/assets/F61A628A810EB4BCBC0DE9D34E88BDB9.png" width="25.00" height="35.00" transform="matrix(1.00, 0.00, -0.00, -1.00, 128.0, 301.0)"></image><text xml:space="preserve" font-family="CenturyGothic,Century Gothic" font-size="36.0" fill="#000000" transform="matrix(1.00, 0.00, -0.00, -1.00, 130.2, 270.0)">Р</text><image xlink:href="../../3F8CAE88-8AC4-4BBD-A2D5-13110DBAC90B/assets/152F05C1EC92FEF8813557E5C470A60D.png" width="121.00" height="31.00" transform="matrix(1.00, 0.00, -0.00, -1.00, 149.0, 297.0)"></image><text xml:space="preserve" font-family="CenturyGothic,Century Gothic" font-size="28.8" fill="#000000" transform="matrix(1.00, 0.00, -0.00, -1.00, 151.6, 270.0)">Е</text><text xml:space="preserve" font-family="CenturyGothic,Century Gothic" font-size="28.8" fill="#000000" transform="matrix(1.00, 0.00, -0.00, -1.00, 167.0, 270.0)">Г</text><text xml:space="preserve" font-family="CenturyGothic,Century Gothic" font-size="28.8" fill="#000000" transform="matrix(1.00, 0.00, -0.00, -1.00, 180.3, 270.0)">И</text><text xml:space="preserve" font-family="CenturyGothic,Century Gothic" font-size="28.8" fill="#000000" transform="matrix(1.00, 0.00, -0.00, -1.00, 201.6, 270.0)">О</text><text xml:space="preserve" font-family="CenturyGothic,Century Gothic" font-size="28.8" fill="#000000" transform="matrix(1.00, 0.00, -0.00, -1.00, 226.6, 270.0)">Н</text><text xml:space="preserve" font-family="CenturyGothic,Century Gothic" font-size="28.8" fill="#000000" transform="matrix(1.00, 0.00, -0.00, -1.00, 246.3, 270.0)">Ы</text><text xml:space="preserve" font-family="CenturyGothic-Bold,Century Gothic" font-weight="bold" font-size="28.0" fill="#525252" transform="matrix(1.00, 0.00, -0.00, -1.00, 933.1, 65.6)">3</text><text xml:space="preserve" font-family="CenturyGothic-Bold,Century Gothic" font-weight="bold" font-size="28.0" fill="#525252" transform="matrix(1.00, 0.00, -0.00, -1.00, 948.8, 65.6)">3</text><image xlink:href="../../3F8CAE88-8AC4-4BBD-A2D5-13110DBAC90B/assets/309379ED97EC6871458D1D7D37E1FD02.png" width="18.00" height="18.00" transform="matrix(1.00, 0.00, -0.00, -1.00, 485.0, 491.0)"></image><text xml:space="preserve" font-family="ArialMT,Arial" font-size="36.0" fill="#000000" transform="matrix(1.00, 0.00, -0.00, -1.00, 489.0, 468.3)">•</text><image xlink:href="../../3F8CAE88-8AC4-4BBD-A2D5-13110DBAC90B/assets/C8A21DA11C358FE97A215C299666EEE3.png" width="23.00" height="35.00" transform="matrix(1.00, 0.00, -0.00, -1.00, 516.0, 498.0)"></image><text xml:space="preserve" font-family="CenturyGothic,Century Gothic" font-size="36.0" fill="#000000" transform="matrix(1.00, 0.00, -0.00, -1.00, 520.9, 467.0)">Т</text><image xlink:href="../../3F8CAE88-8AC4-4BBD-A2D5-13110DBAC90B/assets/6D95603A2EDE9E78CF25153BE4FF990D.png" width="84.00" height="31.00" transform="matrix(1.00, 0.00, -0.00, -1.00, 532.0, 494.0)"></image><text xml:space="preserve" font-family="CenturyGothic,Century Gothic" font-size="28.8" fill="#000000" transform="matrix(1.00, 0.00, -0.00, -1.00, 536.2, 467.0)">О</text><text xml:space="preserve" font-family="CenturyGothic,Century Gothic" font-size="28.8" fill="#000000" transform="matrix(1.00, 0.00, -0.00, -1.00, 561.3, 467.0)">Ч</text><text xml:space="preserve" font-family="CenturyGothic,Century Gothic" font-size="28.8" fill="#000000" transform="matrix(1.00, 0.00, -0.00, -1.00, 576.8, 467.0)">К</text><text xml:space="preserve" font-family="CenturyGothic,Century Gothic" font-size="28.8" fill="#000000" transform="matrix(1.00, 0.00, -0.00, -1.00, 593.8, 467.0)">И</text><image xlink:href="../../3F8CAE88-8AC4-4BBD-A2D5-13110DBAC90B/assets/CE82332C9153249C2F47416396CA3B55.png" width="18.00" height="11.00" transform="matrix(1.00, 0.00, -0.00, -1.00, 621.0, 483.0)"></image><text xml:space="preserve" font-family="CenturyGothic,Century Gothic" font-size="36.0" fill="#000000" transform="matrix(1.00, 0.00, -0.00, -1.00, 615.1, 467.0)"> </text><text xml:space="preserve" font-family="CenturyGothic,Century Gothic" font-size="36.0" fill="#000000" transform="matrix(1.00, 0.00, -0.00, -1.00, 625.1, 467.0)">-</text><text xml:space="preserve" font-family="CenturyGothic,Century Gothic" font-size="36.0" fill="#000000" transform="matrix(1.00, 0.00, -0.00, -1.00, 637.0, 467.0)"> </text><image xlink:href="../../3F8CAE88-8AC4-4BBD-A2D5-13110DBAC90B/assets/47CA00798B5DCFCACA9CF1090565865F.png" width="146.00" height="31.00" transform="matrix(1.00, 0.00, -0.00, -1.00, 642.0, 494.0)"></image><text xml:space="preserve" font-family="CenturyGothic,Century Gothic" font-size="28.8" fill="#000000" transform="matrix(1.00, 0.00, -0.00, -1.00, 647.0, 467.0)">Х</text><text xml:space="preserve" font-family="CenturyGothic,Century Gothic" font-size="28.8" fill="#000000" transform="matrix(1.00, 0.00, -0.00, -1.00, 664.5, 467.0)">О</text><text xml:space="preserve" font-family="CenturyGothic,Century Gothic" font-size="28.8" fill="#000000" transform="matrix(1.00, 0.00, -0.00, -1.00, 689.6, 467.0)">Р</text><text xml:space="preserve" font-family="CenturyGothic,Century Gothic" font-size="28.8" fill="#000000" transform="matrix(1.00, 0.00, -0.00, -1.00, 706.6, 467.0)">О</text><text xml:space="preserve" font-family="CenturyGothic,Century Gothic" font-size="28.8" fill="#000000" transform="matrix(1.00, 0.00, -0.00, -1.00, 731.6, 467.0)">Ш</text><text xml:space="preserve" font-family="CenturyGothic,Century Gothic" font-size="28.8" fill="#000000" transform="matrix(1.00, 0.00, -0.00, -1.00, 760.7, 467.0)">О</text><image xlink:href="../../3F8CAE88-8AC4-4BBD-A2D5-13110DBAC90B/assets/309379ED97EC6871458D1D7D37E1FD02.png" width="18.00" height="18.00" transform="matrix(1.00, 0.00, -0.00, -1.00, 485.0, 441.0)"></image><text xml:space="preserve" font-family="ArialMT,Arial" font-size="36.0" fill="#000000" transform="matrix(1.00, 0.00, -0.00, -1.00, 489.0, 418.3)">•</text><image xlink:href="../../3F8CAE88-8AC4-4BBD-A2D5-13110DBAC90B/assets/2532AC846660E10BC77B4B57A162E406.png" width="35.00" height="38.00" transform="matrix(1.00, 0.00, -0.00, -1.00, 516.0, 448.0)"></image><text xml:space="preserve" font-family="CenturyGothic,Century Gothic" font-size="36.0" fill="#000000" transform="matrix(1.00, 0.00, -0.00, -1.00, 520.9, 417.0)">Д</text><image xlink:href="../../3F8CAE88-8AC4-4BBD-A2D5-13110DBAC90B/assets/D1CE6980A6630B23B2D58FD55B1C0393.png" width="195.00" height="31.00" transform="matrix(1.00, 0.00, -0.00, -1.00, 545.0, 444.0)"></image><text xml:space="preserve" font-family="CenturyGothic,Century Gothic" font-size="28.8" fill="#000000" transform="matrix(1.00, 0.00, -0.00, -1.00, 547.8, 417.0)">Е</text><text xml:space="preserve" font-family="CenturyGothic,Century Gothic" font-size="28.8" fill="#000000" transform="matrix(1.00, 0.00, -0.00, -1.00, 563.3, 417.0)">С</text><text xml:space="preserve" font-family="CenturyGothic,Century Gothic" font-size="28.8" fill="#000000" transform="matrix(1.00, 0.00, -0.00, -1.00, 586.7, 417.0)">К</text><text xml:space="preserve" font-family="CenturyGothic,Century Gothic" font-size="28.8" fill="#000000" transform="matrix(1.00, 0.00, -0.00, -1.00, 603.7, 417.0)">Р</text><text xml:space="preserve" font-family="CenturyGothic,Century Gothic" font-size="28.8" fill="#000000" transform="matrix(1.00, 0.00, -0.00, -1.00, 620.8, 417.0)">И</text><text xml:space="preserve" font-family="CenturyGothic,Century Gothic" font-size="28.8" fill="#000000" transform="matrix(1.00, 0.00, -0.00, -1.00, 642.0, 417.0)">П</text><text xml:space="preserve" font-family="CenturyGothic,Century Gothic" font-size="28.8" fill="#000000" transform="matrix(1.00, 0.00, -0.00, -1.00, 661.7, 417.0)">Т</text><text xml:space="preserve" font-family="CenturyGothic,Century Gothic" font-size="28.8" fill="#000000" transform="matrix(1.00, 0.00, -0.00, -1.00, 674.0, 417.0)">О</text><text xml:space="preserve" font-family="CenturyGothic,Century Gothic" font-size="28.8" fill="#000000" transform="matrix(1.00, 0.00, -0.00, -1.00, 699.0, 417.0)">Р</text><text xml:space="preserve" font-family="CenturyGothic,Century Gothic" font-size="28.8" fill="#000000" transform="matrix(1.00, 0.00, -0.00, -1.00, 716.1, 417.0)">Ы</text><image xlink:href="../../3F8CAE88-8AC4-4BBD-A2D5-13110DBAC90B/assets/F48F779F2B05EA1847C6EA23082933D0.png" width="18.00" height="11.00" transform="matrix(1.00, 0.00, -0.00, -1.00, 745.0, 433.0)"></image><text xml:space="preserve" font-family="CenturyGothic,Century Gothic" font-size="36.0" fill="#000000" transform="matrix(1.00, 0.00, -0.00, -1.00, 738.9, 417.0)"> </text><text xml:space="preserve" font-family="CenturyGothic,Century Gothic" font-size="36.0" fill="#000000" transform="matrix(1.00, 0.00, -0.00, -1.00, 748.9, 417.0)">-</text><text xml:space="preserve" font-family="CenturyGothic,Century Gothic" font-size="36.0" fill="#000000" transform="matrix(1.00, 0.00, -0.00, -1.00, 760.8, 417.0)"> </text><image xlink:href="../../3F8CAE88-8AC4-4BBD-A2D5-13110DBAC90B/assets/8A1683FA938B943FB08CEFE0CF8577AC.png" width="106.00" height="30.00" transform="matrix(1.00, 0.00, -0.00, -1.00, 766.0, 443.0)"></image><text xml:space="preserve" font-family="CenturyGothic,Century Gothic" font-size="28.8" fill="#000000" transform="matrix(1.00, 0.00, -0.00, -1.00, 770.8, 417.0)">Л</text><text xml:space="preserve" font-family="CenturyGothic,Century Gothic" font-size="28.8" fill="#000000" transform="matrix(1.00, 0.00, -0.00, -1.00, 791.0, 417.0)">У</text><text xml:space="preserve" font-family="CenturyGothic,Century Gothic" font-size="28.8" fill="#000000" transform="matrix(1.00, 0.00, -0.00, -1.00, 809.6, 417.0)">Ч</text><text xml:space="preserve" font-family="CenturyGothic,Century Gothic" font-size="28.8" fill="#000000" transform="matrix(1.00, 0.00, -0.00, -1.00, 825.2, 417.0)">Ш</text><text xml:space="preserve" font-family="CenturyGothic,Century Gothic" font-size="28.8" fill="#000000" transform="matrix(1.00, 0.00, -0.00, -1.00, 854.2, 417.0)">Е</text><image xlink:href="../../3F8CAE88-8AC4-4BBD-A2D5-13110DBAC90B/assets/309379ED97EC6871458D1D7D37E1FD02.png" width="18.00" height="18.00" transform="matrix(1.00, 0.00, -0.00, -1.00, 485.0, 391.0)"></image><text xml:space="preserve" font-family="ArialMT,Arial" font-size="36.0" fill="#000000" transform="matrix(1.00, 0.00, -0.00, -1.00, 489.0, 368.3)">•</text><image xlink:href="../../3F8CAE88-8AC4-4BBD-A2D5-13110DBAC90B/assets/8D14AA95563712F617290D7F11B1EB37.png" width="37.00" height="36.00" transform="matrix(1.00, 0.00, -0.00, -1.00, 517.0, 399.0)"></image><text xml:space="preserve" font-family="CenturyGothic,Century Gothic" font-size="36.0" fill="#000000" transform="matrix(1.00, 0.00, -0.00, -1.00, 520.9, 367.0)">O</text><image xlink:href="../../3F8CAE88-8AC4-4BBD-A2D5-13110DBAC90B/assets/5A55C1B85E47ACDDBA4C8A324A9F4436.png" width="58.00" height="30.00" transform="matrix(1.00, 0.00, -0.00, -1.00, 549.0, 393.0)"></image><text xml:space="preserve" font-family="CenturyGothic,Century Gothic" font-size="28.8" fill="#000000" transform="matrix(1.00, 0.00, -0.00, -1.00, 552.2, 367.0)">P</text><text xml:space="preserve" font-family="CenturyGothic,Century Gothic" font-size="28.8" fill="#000000" transform="matrix(1.00, 0.00, -0.00, -1.00, 569.2, 367.0)">E</text><text xml:space="preserve" font-family="CenturyGothic,Century Gothic" font-size="28.8" fill="#000000" transform="matrix(1.00, 0.00, -0.00, -1.00, 584.7, 367.0)">N</text><image xlink:href="../../3F8CAE88-8AC4-4BBD-A2D5-13110DBAC90B/assets/9DEA777E7AAE20760CC58A7D6F1CC498.png" width="83.00" height="36.00" transform="matrix(1.00, 0.00, -0.00, -1.00, 602.0, 399.0)"></image><text xml:space="preserve" font-family="CenturyGothic,Century Gothic" font-size="36.0" fill="#000000" transform="matrix(1.00, 0.00, -0.00, -1.00, 606.0, 367.0)">C</text><text xml:space="preserve" font-family="CenturyGothic,Century Gothic" font-size="36.0" fill="#000000" transform="matrix(1.00, 0.00, -0.00, -1.00, 635.3, 367.0)">V</text><text xml:space="preserve" font-family="CenturyGothic,Century Gothic" font-size="36.0" fill="#000000" transform="matrix(1.00, 0.00, -0.00, -1.00, 660.5, 367.0)"> </text><text xml:space="preserve" font-family="CenturyGothic,Century Gothic" font-size="36.0" fill="#000000" transform="matrix(1.00, 0.00, -0.00, -1.00, 670.5, 367.0)">-</text><text xml:space="preserve" font-family="CenturyGothic,Century Gothic" font-size="36.0" fill="#000000" transform="matrix(1.00, 0.00, -0.00, -1.00, 682.5, 367.0)"> </text><image xlink:href="../../3F8CAE88-8AC4-4BBD-A2D5-13110DBAC90B/assets/56622CE8FC218807E87EB843D9EC5546.png" width="132.00" height="31.00" transform="matrix(1.00, 0.00, -0.00, -1.00, 689.0, 394.0)"></image><text xml:space="preserve" font-family="CenturyGothic,Century Gothic" font-size="28.8" fill="#000000" transform="matrix(1.00, 0.00, -0.00, -1.00, 692.4, 367.0)">F</text><text xml:space="preserve" font-family="CenturyGothic,Century Gothic" font-size="28.8" fill="#000000" transform="matrix(1.00, 0.00, -0.00, -1.00, 706.4, 367.0)">E</text><text xml:space="preserve" font-family="CenturyGothic,Century Gothic" font-size="28.8" fill="#000000" transform="matrix(1.00, 0.00, -0.00, -1.00, 721.8, 367.0)">A</text><text xml:space="preserve" font-family="CenturyGothic,Century Gothic" font-size="28.8" fill="#000000" transform="matrix(1.00, 0.00, -0.00, -1.00, 740.8, 367.0)">T</text><text xml:space="preserve" font-family="CenturyGothic,Century Gothic" font-size="28.8" fill="#000000" transform="matrix(1.00, 0.00, -0.00, -1.00, 753.1, 367.0)">U</text><text xml:space="preserve" font-family="CenturyGothic,Century Gothic" font-size="28.8" fill="#000000" transform="matrix(1.00, 0.00, -0.00, -1.00, 771.9, 367.0)">R</text><text xml:space="preserve" font-family="CenturyGothic,Century Gothic" font-size="28.8" fill="#000000" transform="matrix(1.00, 0.00, -0.00, -1.00, 789.4, 367.0)">E</text><text xml:space="preserve" font-family="CenturyGothic,Century Gothic" font-size="28.8" fill="#000000" transform="matrix(1.00, 0.00, -0.00, -1.00, 804.8, 367.0)">S</text><image xlink:href="../../3F8CAE88-8AC4-4BBD-A2D5-13110DBAC90B/assets/09E6D71FE0804066C0BB182D8886C799.png" width="26.00" height="36.00" transform="matrix(1.00, 0.00, -0.00, -1.00, 815.0, 399.0)"></image><text xml:space="preserve" font-family="CenturyGothic,Century Gothic" font-size="36.0" fill="#000000" transform="matrix(1.00, 0.00, -0.00, -1.00, 819.2, 367.0)">2</text><image xlink:href="../../3F8CAE88-8AC4-4BBD-A2D5-13110DBAC90B/assets/AB3F8B10F12E94D563319790E4CCDD4F.png" width="27.00" height="30.00" transform="matrix(1.00, 0.00, -0.00, -1.00, 836.0, 393.0)"></image><text xml:space="preserve" font-family="CenturyGothic,Century Gothic" font-size="28.8" fill="#000000" transform="matrix(1.00, 0.00, -0.00, -1.00, 839.1, 367.0)">D</text><image xlink:href="../../3F8CAE88-8AC4-4BBD-A2D5-13110DBAC90B/assets/309379ED97EC6871458D1D7D37E1FD02.png" width="18.00" height="18.00" transform="matrix(1.00, 0.00, -0.00, -1.00, 485.0, 341.0)"></image><text xml:space="preserve" font-family="ArialMT,Arial" font-size="36.0" fill="#000000" transform="matrix(1.00, 0.00, -0.00, -1.00, 489.0, 318.3)">•</text><image xlink:href="../../3F8CAE88-8AC4-4BBD-A2D5-13110DBAC90B/assets/A55035D78A98CC791CF4D57BD5EA071B.png" width="88.00" height="31.00" transform="matrix(1.00, 0.00, -0.00, -1.00, 516.0, 344.0)"></image><text xml:space="preserve" font-family="CenturyGothic,Century Gothic" font-size="28.8" fill="#000000" transform="matrix(1.00, 0.00, -0.00, -1.00, 520.9, 317.0)">S</text><text xml:space="preserve" font-family="CenturyGothic,Century Gothic" font-size="28.8" fill="#000000" transform="matrix(1.00, 0.00, -0.00, -1.00, 535.3, 317.0)">C</text><text xml:space="preserve" font-family="CenturyGothic,Century Gothic" font-size="28.8" fill="#000000" transform="matrix(1.00, 0.00, -0.00, -1.00, 558.7, 317.0)">I</text><text xml:space="preserve" font-family="CenturyGothic,Century Gothic" font-size="28.8" fill="#000000" transform="matrix(1.00, 0.00, -0.00, -1.00, 565.2, 317.0)">K</text><text xml:space="preserve" font-family="CenturyGothic,Century Gothic" font-size="28.8" fill="#000000" transform="matrix(1.00, 0.00, -0.00, -1.00, 582.2, 317.0)">I</text><text xml:space="preserve" font-family="CenturyGothic,Century Gothic" font-size="28.8" fill="#000000" transform="matrix(1.00, 0.00, -0.00, -1.00, 588.7, 317.0)">T</text><text xml:space="preserve" font-family="CenturyGothic,Century Gothic" font-size="36.0" fill="#000000" transform="matrix(1.00, 0.00, -0.00, -1.00, 601.0, 317.0)"> </text><image xlink:href="../../3F8CAE88-8AC4-4BBD-A2D5-13110DBAC90B/assets/FC2DF268BEE8A3707F9F66C906409CCD.png" width="100.00" height="31.00" transform="matrix(1.00, 0.00, -0.00, -1.00, 608.0, 344.0)"></image><text xml:space="preserve" font-family="CenturyGothic,Century Gothic" font-size="28.8" fill="#000000" transform="matrix(1.00, 0.00, -0.00, -1.00, 610.9, 317.0)">I</text><text xml:space="preserve" font-family="CenturyGothic,Century Gothic" font-size="28.8" fill="#000000" transform="matrix(1.00, 0.00, -0.00, -1.00, 617.5, 317.0)">M</text><text xml:space="preserve" font-family="CenturyGothic,Century Gothic" font-size="28.8" fill="#000000" transform="matrix(1.00, 0.00, -0.00, -1.00, 643.9, 317.0)">A</text><text xml:space="preserve" font-family="CenturyGothic,Century Gothic" font-size="28.8" fill="#000000" transform="matrix(1.00, 0.00, -0.00, -1.00, 665.2, 317.0)">G</text><text xml:space="preserve" font-family="CenturyGothic,Century Gothic" font-size="28.8" fill="#000000" transform="matrix(1.00, 0.00, -0.00, -1.00, 690.3, 317.0)">E</text><image xlink:href="../../3F8CAE88-8AC4-4BBD-A2D5-13110DBAC90B/assets/14A7649B65CEC64BCAAED21FC7D30413.png" width="19.00" height="11.00" transform="matrix(1.00, 0.00, -0.00, -1.00, 711.0, 333.0)"></image><text xml:space="preserve" font-family="CenturyGothic,Century Gothic" font-size="36.0" fill="#000000" transform="matrix(1.00, 0.00, -0.00, -1.00, 705.8, 317.0)"> </text><text xml:space="preserve" font-family="CenturyGothic,Century Gothic" font-size="36.0" fill="#000000" transform="matrix(1.00, 0.00, -0.00, -1.00, 715.7, 317.0)">-</text><text xml:space="preserve" font-family="CenturyGothic,Century Gothic" font-size="36.0" fill="#000000" transform="matrix(1.00, 0.00, -0.00, -1.00, 727.7, 317.0)"> </text><image xlink:href="../../3F8CAE88-8AC4-4BBD-A2D5-13110DBAC90B/assets/A7A14D790AF36DC61EBE5DA01772ECA0.png" width="157.00" height="31.00" transform="matrix(1.00, 0.00, -0.00, -1.00, 516.0, 300.0)"></image><text xml:space="preserve" font-family="CenturyGothic,Century Gothic" font-size="28.8" fill="#000000" transform="matrix(1.00, 0.00, -0.00, -1.00, 520.9, 273.0)">S</text><text xml:space="preserve" font-family="CenturyGothic,Century Gothic" font-size="28.8" fill="#000000" transform="matrix(1.00, 0.00, -0.00, -1.00, 535.3, 273.0)">C</text><text xml:space="preserve" font-family="CenturyGothic,Century Gothic" font-size="28.8" fill="#000000" transform="matrix(1.00, 0.00, -0.00, -1.00, 558.7, 273.0)">K</text><text xml:space="preserve" font-family="CenturyGothic,Century Gothic" font-size="28.8" fill="#000000" transform="matrix(1.00, 0.00, -0.00, -1.00, 575.7, 273.0)">I</text><text xml:space="preserve" font-family="CenturyGothic,Century Gothic" font-size="28.8" fill="#000000" transform="matrix(1.00, 0.00, -0.00, -1.00, 582.2, 273.0)">M</text><text xml:space="preserve" font-family="CenturyGothic,Century Gothic" font-size="28.8" fill="#000000" transform="matrix(1.00, 0.00, -0.00, -1.00, 608.7, 273.0)">A</text><text xml:space="preserve" font-family="CenturyGothic,Century Gothic" font-size="28.8" fill="#000000" transform="matrix(1.00, 0.00, -0.00, -1.00, 630.0, 273.0)">G</text><text xml:space="preserve" font-family="CenturyGothic,Century Gothic" font-size="28.8" fill="#000000" transform="matrix(1.00, 0.00, -0.00, -1.00, 655.1, 273.0)">E</text><image xlink:href="../../3F8CAE88-8AC4-4BBD-A2D5-13110DBAC90B/assets/DF29E6C295F50E6A07A3C27DF2387947.png" width="14.00" height="13.00" transform="matrix(1.00, 0.00, -0.00, -1.00, 668.0, 282.0)"></image><text xml:space="preserve" font-family="CenturyGothic,Century Gothic" font-size="36.0" fill="#000000" transform="matrix(1.00, 0.00, -0.00, -1.00, 670.5, 273.0)">.</text><image xlink:href="../../3F8CAE88-8AC4-4BBD-A2D5-13110DBAC90B/assets/B1FAB7D346026E6B0C66A158CDA847F1.png" width="117.00" height="30.00" transform="matrix(1.00, 0.00, -0.00, -1.00, 678.0, 299.0)"></image><text xml:space="preserve" font-family="CenturyGothic,Century Gothic" font-size="28.8" fill="#000000" transform="matrix(1.00, 0.00, -0.00, -1.00, 680.5, 273.0)">F</text><text xml:space="preserve" font-family="CenturyGothic,Century Gothic" font-size="28.8" fill="#000000" transform="matrix(1.00, 0.00, -0.00, -1.00, 694.5, 273.0)">E</text><text xml:space="preserve" font-family="CenturyGothic,Century Gothic" font-size="28.8" fill="#000000" transform="matrix(1.00, 0.00, -0.00, -1.00, 709.9, 273.0)">A</text><text xml:space="preserve" font-family="CenturyGothic,Century Gothic" font-size="28.8" fill="#000000" transform="matrix(1.00, 0.00, -0.00, -1.00, 728.9, 273.0)">T</text><text xml:space="preserve" font-family="CenturyGothic,Century Gothic" font-size="28.8" fill="#000000" transform="matrix(1.00, 0.00, -0.00, -1.00, 741.1, 273.0)">U</text><text xml:space="preserve" font-family="CenturyGothic,Century Gothic" font-size="28.8" fill="#000000" transform="matrix(1.00, 0.00, -0.00, -1.00, 760.0, 273.0)">R</text><text xml:space="preserve" font-family="CenturyGothic,Century Gothic" font-size="28.8" fill="#000000" transform="matrix(1.00, 0.00, -0.00, -1.00, 777.5, 273.0)">E</text></g></svg>