<?xml version="1.0" encoding="UTF-8" standalone="no"?><svg xmlns="http://www.w3.org/2000/svg" xmlns:xlink="http://www.w3.org/1999/xlink" clip-rule="evenodd" stroke-miterlimit="10" viewBox="0 0 301 47"><desc>SVG generated by Keynote</desc><defs></defs><g transform="matrix(1.00, 0.00, -0.00, -1.00, 0.0, 47.0)"><image xlink:href="../../228DD652-F443-4BBA-86C6-F80AC005D839/assets/ACF5B1645B41E089CD53446F8C3C55DD.png" width="298.00" height="44.00" transform="matrix(1.00, 0.00, -0.00, -1.00, 1.0, 45.0)"></image><text xml:space="preserve" font-family="CenturyGothic,Century Gothic" font-size="52.0" fill="#000000" transform="matrix(1.00, 0.00, -0.00, -1.00, 0.8, 2.6)">D</text><text xml:space="preserve" font-family="CenturyGothic,Century Gothic" font-size="52.0" fill="#000000" transform="matrix(1.00, 0.00, -0.00, -1.00, 39.5, 2.6)">I</text><text xml:space="preserve" font-family="CenturyGothic,Century Gothic" font-size="52.0" fill="#000000" transform="matrix(1.00, 0.00, -0.00, -1.00, 51.3, 2.6)">S</text><text xml:space="preserve" font-family="CenturyGothic,Century Gothic" font-size="52.0" fill="#000000" transform="matrix(1.00, 0.00, -0.00, -1.00, 77.2, 2.6)">C</text><text xml:space="preserve" font-family="CenturyGothic,Century Gothic" font-size="52.0" fill="#000000" transform="matrix(1.00, 0.00, -0.00, -1.00, 119.5, 2.6)">L</text><text xml:space="preserve" font-family="CenturyGothic,Century Gothic" font-size="52.0" fill="#000000" transform="matrix(1.00, 0.00, -0.00, -1.00, 143.5, 2.6)">A</text><text xml:space="preserve" font-family="CenturyGothic,Century Gothic" font-size="52.0" fill="#000000" transform="matrix(1.00, 0.00, -0.00, -1.00, 181.9, 2.6)">I</text><text xml:space="preserve" font-family="CenturyGothic,Century Gothic" font-size="52.0" fill="#000000" transform="matrix(1.00, 0.00, -0.00, -1.00, 193.7, 2.6)">M</text><text xml:space="preserve" font-family="CenturyGothic,Century Gothic" font-size="52.0" fill="#000000" transform="matrix(1.00, 0.00, -0.00, -1.00, 241.5, 2.6)">E</text><text xml:space="preserve" font-family="CenturyGothic,Century Gothic" font-size="52.0" fill="#000000" transform="matrix(1.00, 0.00, -0.00, -1.00, 269.4, 2.6)">R</text></g></svg>