<?xml version="1.0" encoding="UTF-8" standalone="no"?><svg xmlns="http://www.w3.org/2000/svg" xmlns:xlink="http://www.w3.org/1999/xlink" clip-rule="evenodd" stroke-miterlimit="10" viewBox="0 0 1024 768"><desc>SVG generated by Keynote</desc><defs></defs><g transform="matrix(1.00, 0.00, -0.00, -1.00, 0.0, 768.0)"><path d="M 0.0 768.0 L 1024.0 768.0 L 1024.0 0.0 L 0.0 0.0 Z M 0.0 768.0 " fill="#FFFFFF"></path><image xlink:href="../../2228AE9C-3706-437F-8379-D21BA5B8F0CA/assets/C2129A3EE7512E75FEE2A48785F9B6A3.png" width="1033.00" height="179.00" transform="matrix(0.21, 0.00, -0.00, -0.21, 39.9, 95.6)"></image><image xlink:href="634D0F0EAD3517422B7C04397DBE6ADE.png" width="811.00" height="44.00" transform="matrix(1.00, 0.00, -0.00, -1.00, 99.0, 668.0)"></image><text xml:space="preserve" font-family="CenturyGothic,Century Gothic" font-size="38.9" fill="#000000" transform="matrix(1.00, 0.00, -0.00, -1.00, 99.8, 628.8)">П</text><text xml:space="preserve" font-family="CenturyGothic,Century Gothic" font-size="38.9" fill="#000000" transform="matrix(1.00, 0.00, -0.00, -1.00, 126.4, 628.8)">О</text><text xml:space="preserve" font-family="CenturyGothic,Century Gothic" font-size="38.9" fill="#000000" transform="matrix(1.00, 0.00, -0.00, -1.00, 160.2, 628.8)">Д</text><text xml:space="preserve" font-family="CenturyGothic,Century Gothic" font-size="38.9" fill="#000000" transform="matrix(1.00, 0.00, -0.00, -1.00, 189.2, 628.8)">Х</text><text xml:space="preserve" font-family="CenturyGothic,Century Gothic" font-size="38.9" fill="#000000" transform="matrix(1.00, 0.00, -0.00, -1.00, 212.9, 628.8)">О</text><text xml:space="preserve" font-family="CenturyGothic,Century Gothic" font-size="38.9" fill="#000000" transform="matrix(1.00, 0.00, -0.00, -1.00, 246.7, 628.8)">Д</text><text xml:space="preserve" font-family="CenturyGothic,Century Gothic" font-size="38.9" fill="#000000" transform="matrix(1.00, 0.00, -0.00, -1.00, 275.7, 628.8)">Ы</text><text xml:space="preserve" font-family="CenturyGothic,Century Gothic" font-size="38.9" fill="#000000" transform="matrix(1.00, 0.00, -0.00, -1.00, 306.6, 628.8)"> </text><text xml:space="preserve" font-family="CenturyGothic,Century Gothic" font-size="38.9" fill="#000000" transform="matrix(1.00, 0.00, -0.00, -1.00, 317.3, 628.8)">К</text><text xml:space="preserve" font-family="CenturyGothic,Century Gothic" font-size="38.9" fill="#000000" transform="matrix(1.00, 0.00, -0.00, -1.00, 340.3, 628.8)"> </text><text xml:space="preserve" font-family="CenturyGothic,Century Gothic" font-size="38.9" fill="#000000" transform="matrix(1.00, 0.00, -0.00, -1.00, 351.0, 628.8)">С</text><text xml:space="preserve" font-family="CenturyGothic,Century Gothic" font-size="38.9" fill="#000000" transform="matrix(1.00, 0.00, -0.00, -1.00, 382.6, 628.8)">Р</text><text xml:space="preserve" font-family="CenturyGothic,Century Gothic" font-size="38.9" fill="#000000" transform="matrix(1.00, 0.00, -0.00, -1.00, 405.6, 628.8)">А</text><text xml:space="preserve" font-family="CenturyGothic,Century Gothic" font-size="38.9" fill="#000000" transform="matrix(1.00, 0.00, -0.00, -1.00, 434.3, 628.8)">В</text><text xml:space="preserve" font-family="CenturyGothic,Century Gothic" font-size="38.9" fill="#000000" transform="matrix(1.00, 0.00, -0.00, -1.00, 456.7, 628.8)">Н</text><text xml:space="preserve" font-family="CenturyGothic,Century Gothic" font-size="38.9" fill="#000000" transform="matrix(1.00, 0.00, -0.00, -1.00, 483.2, 628.8)">Е</text><text xml:space="preserve" font-family="CenturyGothic,Century Gothic" font-size="38.9" fill="#000000" transform="matrix(1.00, 0.00, -0.00, -1.00, 504.0, 628.8)">Н</text><text xml:space="preserve" font-family="CenturyGothic,Century Gothic" font-size="38.9" fill="#000000" transform="matrix(1.00, 0.00, -0.00, -1.00, 530.6, 628.8)">И</text><text xml:space="preserve" font-family="CenturyGothic,Century Gothic" font-size="38.9" fill="#000000" transform="matrix(1.00, 0.00, -0.00, -1.00, 559.3, 628.8)">Ю</text><text xml:space="preserve" font-family="CenturyGothic,Century Gothic" font-size="38.9" fill="#000000" transform="matrix(1.00, 0.00, -0.00, -1.00, 601.9, 628.8)"> </text><text xml:space="preserve" font-family="CenturyGothic,Century Gothic" font-size="38.9" fill="#000000" transform="matrix(1.00, 0.00, -0.00, -1.00, 612.7, 628.8)">И</text><text xml:space="preserve" font-family="CenturyGothic,Century Gothic" font-size="38.9" fill="#000000" transform="matrix(1.00, 0.00, -0.00, -1.00, 641.4, 628.8)">З</text><text xml:space="preserve" font-family="CenturyGothic,Century Gothic" font-size="38.9" fill="#000000" transform="matrix(1.00, 0.00, -0.00, -1.00, 664.0, 628.8)">О</text><text xml:space="preserve" font-family="CenturyGothic,Century Gothic" font-size="38.9" fill="#000000" transform="matrix(1.00, 0.00, -0.00, -1.00, 697.7, 628.8)">Б</text><text xml:space="preserve" font-family="CenturyGothic,Century Gothic" font-size="38.9" fill="#000000" transform="matrix(1.00, 0.00, -0.00, -1.00, 720.0, 628.8)">Р</text><text xml:space="preserve" font-family="CenturyGothic,Century Gothic" font-size="38.9" fill="#000000" transform="matrix(1.00, 0.00, -0.00, -1.00, 743.0, 628.8)">А</text><text xml:space="preserve" font-family="CenturyGothic,Century Gothic" font-size="38.9" fill="#000000" transform="matrix(1.00, 0.00, -0.00, -1.00, 771.7, 628.8)">Ж</text><text xml:space="preserve" font-family="CenturyGothic,Century Gothic" font-size="38.9" fill="#000000" transform="matrix(1.00, 0.00, -0.00, -1.00, 808.1, 628.8)">Е</text><text xml:space="preserve" font-family="CenturyGothic,Century Gothic" font-size="38.9" fill="#000000" transform="matrix(1.00, 0.00, -0.00, -1.00, 828.9, 628.8)">Н</text><text xml:space="preserve" font-family="CenturyGothic,Century Gothic" font-size="38.9" fill="#000000" transform="matrix(1.00, 0.00, -0.00, -1.00, 855.4, 628.8)">И</text><text xml:space="preserve" font-family="CenturyGothic,Century Gothic" font-size="38.9" fill="#000000" transform="matrix(1.00, 0.00, -0.00, -1.00, 884.2, 628.8)">Й</text><text xml:space="preserve" font-family="CenturyGothic-Bold,Century Gothic" font-weight="bold" font-size="28.0" fill="#525252" transform="matrix(1.00, 0.00, -0.00, -1.00, 949.2, 65.6)">4</text></g></svg>