<?xml version="1.0" encoding="UTF-8" standalone="no"?><svg xmlns="http://www.w3.org/2000/svg" xmlns:xlink="http://www.w3.org/1999/xlink" clip-rule="evenodd" stroke-miterlimit="10" viewBox="0 0 1024 768"><desc>SVG generated by Keynote</desc><defs></defs><g transform="matrix(1.00, 0.00, -0.00, -1.00, 0.0, 768.0)"><path d="M 0.0 768.0 L 1024.0 768.0 L 1024.0 0.0 L 0.0 0.0 Z M 0.0 768.0 " fill="#FFFFFF"></path><image xlink:href="../../2228AE9C-3706-437F-8379-D21BA5B8F0CA/assets/C2129A3EE7512E75FEE2A48785F9B6A3.png" width="1033.00" height="179.00" transform="matrix(0.21, 0.00, -0.00, -0.21, 40.0, 95.6)"></image><image xlink:href="../../3F8CAE88-8AC4-4BBD-A2D5-13110DBAC90B/assets/D5C796686F6EFC28907799E01CE94B03.png" width="183.00" height="49.00" transform="matrix(1.00, 0.00, -0.00, -1.00, 100.0, 664.0)"></image><text xml:space="preserve" font-family="CenturyGothic,Century Gothic" font-size="58.0" fill="#000000" transform="matrix(1.00, 0.00, -0.00, -1.00, 99.8, 617.1)">И</text><text xml:space="preserve" font-family="CenturyGothic,Century Gothic" font-size="58.0" fill="#000000" transform="matrix(1.00, 0.00, -0.00, -1.00, 142.7, 617.1)">Т</text><text xml:space="preserve" font-family="CenturyGothic,Century Gothic" font-size="58.0" fill="#000000" transform="matrix(1.00, 0.00, -0.00, -1.00, 167.4, 617.1)">О</text><text xml:space="preserve" font-family="CenturyGothic,Century Gothic" font-size="58.0" fill="#000000" transform="matrix(1.00, 0.00, -0.00, -1.00, 217.8, 617.1)">Г</text><text xml:space="preserve" font-family="CenturyGothic,Century Gothic" font-size="58.0" fill="#000000" transform="matrix(1.00, 0.00, -0.00, -1.00, 244.6, 617.1)">И</text><image xlink:href="../../47A2F19A-7752-4801-A35F-7FAE5EFE076B/assets/1CD4E7EC8ACBA34093E524B01111DD4D.png" width="17.00" height="18.00" transform="matrix(1.00, 0.00, -0.00, -1.00, 149.0, 528.0)"></image><text xml:space="preserve" font-family="ArialMT,Arial" font-size="34.0" fill="#000000" transform="matrix(1.00, 0.00, -0.00, -1.00, 152.5, 506.0)">•</text><image xlink:href="../../47A2F19A-7752-4801-A35F-7FAE5EFE076B/assets/7123F733CCB3727B4AB0C5FE4C256BE5.png" width="26.00" height="34.00" transform="matrix(1.00, 0.00, -0.00, -1.00, 182.0, 535.0)"></image><text xml:space="preserve" font-family="CenturyGothic,Century Gothic" font-size="34.0" fill="#000000" transform="matrix(1.00, 0.00, -0.00, -1.00, 184.3, 504.7)">П</text><image xlink:href="../../47A2F19A-7752-4801-A35F-7FAE5EFE076B/assets/62492A97FEAE952F10A2E42F6266DD4E.png" width="141.00" height="29.00" transform="matrix(1.00, 0.00, -0.00, -1.00, 204.0, 530.0)"></image><text xml:space="preserve" font-family="CenturyGothic,Century Gothic" font-size="27.2" fill="#000000" transform="matrix(1.00, 0.00, -0.00, -1.00, 207.6, 504.7)">Р</text><text xml:space="preserve" font-family="CenturyGothic,Century Gothic" font-size="27.2" fill="#000000" transform="matrix(1.00, 0.00, -0.00, -1.00, 223.7, 504.7)">О</text><text xml:space="preserve" font-family="CenturyGothic,Century Gothic" font-size="27.2" fill="#000000" transform="matrix(1.00, 0.00, -0.00, -1.00, 247.3, 504.7)">Б</text><text xml:space="preserve" font-family="CenturyGothic,Century Gothic" font-size="27.2" fill="#000000" transform="matrix(1.00, 0.00, -0.00, -1.00, 262.9, 504.7)">Л</text><text xml:space="preserve" font-family="CenturyGothic,Century Gothic" font-size="27.2" fill="#000000" transform="matrix(1.00, 0.00, -0.00, -1.00, 282.0, 504.7)">Е</text><text xml:space="preserve" font-family="CenturyGothic,Century Gothic" font-size="27.2" fill="#000000" transform="matrix(1.00, 0.00, -0.00, -1.00, 296.5, 504.7)">М</text><text xml:space="preserve" font-family="CenturyGothic,Century Gothic" font-size="27.2" fill="#000000" transform="matrix(1.00, 0.00, -0.00, -1.00, 321.5, 504.7)">А</text><text xml:space="preserve" font-family="CenturyGothic,Century Gothic" font-size="34.0" fill="#000000" transform="matrix(1.00, 0.00, -0.00, -1.00, 341.7, 504.7)"> </text><image xlink:href="../../47A2F19A-7752-4801-A35F-7FAE5EFE076B/assets/69A7B4D2B474AEC7E439ABACE7EC25AE.png" width="150.00" height="29.00" transform="matrix(1.00, 0.00, -0.00, -1.00, 347.0, 530.0)"></image><text xml:space="preserve" font-family="CenturyGothic,Century Gothic" font-size="27.2" fill="#000000" transform="matrix(1.00, 0.00, -0.00, -1.00, 351.1, 504.7)">С</text><text xml:space="preserve" font-family="CenturyGothic,Century Gothic" font-size="27.2" fill="#000000" transform="matrix(1.00, 0.00, -0.00, -1.00, 373.2, 504.7)">Л</text><text xml:space="preserve" font-family="CenturyGothic,Century Gothic" font-size="27.2" fill="#000000" transform="matrix(1.00, 0.00, -0.00, -1.00, 392.3, 504.7)">О</text><text xml:space="preserve" font-family="CenturyGothic,Century Gothic" font-size="27.2" fill="#000000" transform="matrix(1.00, 0.00, -0.00, -1.00, 415.9, 504.7)">Ж</text><text xml:space="preserve" font-family="CenturyGothic,Century Gothic" font-size="27.2" fill="#000000" transform="matrix(1.00, 0.00, -0.00, -1.00, 441.4, 504.7)">Н</text><text xml:space="preserve" font-family="CenturyGothic,Century Gothic" font-size="27.2" fill="#000000" transform="matrix(1.00, 0.00, -0.00, -1.00, 460.0, 504.7)">А</text><text xml:space="preserve" font-family="CenturyGothic,Century Gothic" font-size="27.2" fill="#000000" transform="matrix(1.00, 0.00, -0.00, -1.00, 480.1, 504.7)">Я</text><image xlink:href="../../47A2F19A-7752-4801-A35F-7FAE5EFE076B/assets/1CD4E7EC8ACBA34093E524B01111DD4D.png" width="17.00" height="18.00" transform="matrix(1.00, 0.00, -0.00, -1.00, 149.0, 481.0)"></image><text xml:space="preserve" font-family="ArialMT,Arial" font-size="34.0" fill="#000000" transform="matrix(1.00, 0.00, -0.00, -1.00, 152.5, 459.0)">•</text><image xlink:href="../../47A2F19A-7752-4801-A35F-7FAE5EFE076B/assets/A6CBC4E16A2C429EF191D2FA79D84ADE.png" width="24.00" height="34.00" transform="matrix(1.00, 0.00, -0.00, -1.00, 182.0, 488.0)"></image><text xml:space="preserve" font-family="CenturyGothic,Century Gothic" font-size="34.0" fill="#000000" transform="matrix(1.00, 0.00, -0.00, -1.00, 184.3, 457.7)">Р</text><image xlink:href="../../47A2F19A-7752-4801-A35F-7FAE5EFE076B/assets/EF593A2D26649E4F457BE0F447CD5700.png" width="116.00" height="29.00" transform="matrix(1.00, 0.00, -0.00, -1.00, 201.0, 483.0)"></image><text xml:space="preserve" font-family="CenturyGothic,Century Gothic" font-size="27.2" fill="#000000" transform="matrix(1.00, 0.00, -0.00, -1.00, 204.5, 457.7)">Е</text><text xml:space="preserve" font-family="CenturyGothic,Century Gothic" font-size="27.2" fill="#000000" transform="matrix(1.00, 0.00, -0.00, -1.00, 219.0, 457.7)">Ш</text><text xml:space="preserve" font-family="CenturyGothic,Century Gothic" font-size="27.2" fill="#000000" transform="matrix(1.00, 0.00, -0.00, -1.00, 246.5, 457.7)">Е</text><text xml:space="preserve" font-family="CenturyGothic,Century Gothic" font-size="27.2" fill="#000000" transform="matrix(1.00, 0.00, -0.00, -1.00, 261.0, 457.7)">Н</text><text xml:space="preserve" font-family="CenturyGothic,Century Gothic" font-size="27.2" fill="#000000" transform="matrix(1.00, 0.00, -0.00, -1.00, 279.6, 457.7)">И</text><text xml:space="preserve" font-family="CenturyGothic,Century Gothic" font-size="27.2" fill="#000000" transform="matrix(1.00, 0.00, -0.00, -1.00, 299.7, 457.7)">Я</text><text xml:space="preserve" font-family="CenturyGothic,Century Gothic" font-size="34.0" fill="#000000" transform="matrix(1.00, 0.00, -0.00, -1.00, 315.6, 457.7)"> </text><image xlink:href="../../47A2F19A-7752-4801-A35F-7FAE5EFE076B/assets/E7378253A21EEBD265E6BF67F3647378.png" width="70.00" height="29.00" transform="matrix(1.00, 0.00, -0.00, -1.00, 322.0, 483.0)"></image><text xml:space="preserve" font-family="CenturyGothic,Century Gothic" font-size="27.2" fill="#000000" transform="matrix(1.00, 0.00, -0.00, -1.00, 325.0, 457.7)">Е</text><text xml:space="preserve" font-family="CenturyGothic,Century Gothic" font-size="27.2" fill="#000000" transform="matrix(1.00, 0.00, -0.00, -1.00, 339.6, 457.7)">С</text><text xml:space="preserve" font-family="CenturyGothic,Century Gothic" font-size="27.2" fill="#000000" transform="matrix(1.00, 0.00, -0.00, -1.00, 361.7, 457.7)">Т</text><text xml:space="preserve" font-family="CenturyGothic,Century Gothic" font-size="27.2" fill="#000000" transform="matrix(1.00, 0.00, -0.00, -1.00, 373.3, 457.7)">Ь</text><image xlink:href="../../47A2F19A-7752-4801-A35F-7FAE5EFE076B/assets/1CD4E7EC8ACBA34093E524B01111DD4D.png" width="17.00" height="18.00" transform="matrix(1.00, 0.00, -0.00, -1.00, 185.0, 434.0)"></image><text xml:space="preserve" font-family="ArialMT,Arial" font-size="34.0" fill="#000000" transform="matrix(1.00, 0.00, -0.00, -1.00, 188.5, 412.0)">•</text><image xlink:href="../../47A2F19A-7752-4801-A35F-7FAE5EFE076B/assets/7123F733CCB3727B4AB0C5FE4C256BE5.png" width="26.00" height="34.00" transform="matrix(1.00, 0.00, -0.00, -1.00, 218.0, 441.0)"></image><text xml:space="preserve" font-family="CenturyGothic,Century Gothic" font-size="34.0" fill="#000000" transform="matrix(1.00, 0.00, -0.00, -1.00, 220.3, 410.7)">П</text><image xlink:href="../../47A2F19A-7752-4801-A35F-7FAE5EFE076B/assets/1EE6392ABA75ED117C13C609403591DE.png" width="118.00" height="29.00" transform="matrix(1.00, 0.00, -0.00, -1.00, 240.0, 436.0)"></image><text xml:space="preserve" font-family="CenturyGothic,Century Gothic" font-size="27.2" fill="#000000" transform="matrix(1.00, 0.00, -0.00, -1.00, 243.6, 410.7)">Р</text><text xml:space="preserve" font-family="CenturyGothic,Century Gothic" font-size="27.2" fill="#000000" transform="matrix(1.00, 0.00, -0.00, -1.00, 259.7, 410.7)">О</text><text xml:space="preserve" font-family="CenturyGothic,Century Gothic" font-size="27.2" fill="#000000" transform="matrix(1.00, 0.00, -0.00, -1.00, 283.3, 410.7)">С</text><text xml:space="preserve" font-family="CenturyGothic,Century Gothic" font-size="27.2" fill="#000000" transform="matrix(1.00, 0.00, -0.00, -1.00, 305.4, 410.7)">Т</text><text xml:space="preserve" font-family="CenturyGothic,Century Gothic" font-size="27.2" fill="#000000" transform="matrix(1.00, 0.00, -0.00, -1.00, 317.0, 410.7)">Ы</text><text xml:space="preserve" font-family="CenturyGothic,Century Gothic" font-size="27.2" fill="#000000" transform="matrix(1.00, 0.00, -0.00, -1.00, 338.6, 410.7)">Х</text><text xml:space="preserve" font-family="CenturyGothic,Century Gothic" font-size="34.0" fill="#000000" transform="matrix(1.00, 0.00, -0.00, -1.00, 355.1, 410.7)"> </text><image xlink:href="../../47A2F19A-7752-4801-A35F-7FAE5EFE076B/assets/B789ECA7FA39DE3C9A2E73C219691FEB.png" width="51.00" height="29.00" transform="matrix(1.00, 0.00, -0.00, -1.00, 361.0, 436.0)"></image><text xml:space="preserve" font-family="CenturyGothic,Century Gothic" font-size="27.2" fill="#000000" transform="matrix(1.00, 0.00, -0.00, -1.00, 364.5, 410.7)">Н</text><text xml:space="preserve" font-family="CenturyGothic,Century Gothic" font-size="27.2" fill="#000000" transform="matrix(1.00, 0.00, -0.00, -1.00, 383.1, 410.7)">Е</text><text xml:space="preserve" font-family="CenturyGothic,Century Gothic" font-size="27.2" fill="#000000" transform="matrix(1.00, 0.00, -0.00, -1.00, 397.7, 410.7)">Т</text><image xlink:href="../../47A2F19A-7752-4801-A35F-7FAE5EFE076B/assets/1CD4E7EC8ACBA34093E524B01111DD4D.png" width="17.00" height="18.00" transform="matrix(1.00, 0.00, -0.00, -1.00, 149.0, 387.0)"></image><text xml:space="preserve" font-family="ArialMT,Arial" font-size="34.0" fill="#000000" transform="matrix(1.00, 0.00, -0.00, -1.00, 152.5, 365.0)">•</text><image xlink:href="../../47A2F19A-7752-4801-A35F-7FAE5EFE076B/assets/EB5924FF9C93C1F0DE74ECBA5CFA847F.png" width="25.00" height="34.00" transform="matrix(1.00, 0.00, -0.00, -1.00, 182.0, 394.0)"></image><text xml:space="preserve" font-family="CenturyGothic,Century Gothic" font-size="34.0" fill="#000000" transform="matrix(1.00, 0.00, -0.00, -1.00, 184.3, 363.7)">К</text><image xlink:href="../../47A2F19A-7752-4801-A35F-7FAE5EFE076B/assets/5E71884D1D997CFC89307155A226D12C.png" width="210.00" height="33.00" transform="matrix(1.00, 0.00, -0.00, -1.00, 200.0, 393.0)"></image><text xml:space="preserve" font-family="CenturyGothic,Century Gothic" font-size="27.2" fill="#000000" transform="matrix(1.00, 0.00, -0.00, -1.00, 204.4, 363.7)">О</text><text xml:space="preserve" font-family="CenturyGothic,Century Gothic" font-size="27.2" fill="#000000" transform="matrix(1.00, 0.00, -0.00, -1.00, 228.1, 363.7)">М</text><text xml:space="preserve" font-family="CenturyGothic,Century Gothic" font-size="27.2" fill="#000000" transform="matrix(1.00, 0.00, -0.00, -1.00, 253.1, 363.7)">Б</text><text xml:space="preserve" font-family="CenturyGothic,Century Gothic" font-size="27.2" fill="#000000" transform="matrix(1.00, 0.00, -0.00, -1.00, 268.6, 363.7)">И</text><text xml:space="preserve" font-family="CenturyGothic,Century Gothic" font-size="27.2" fill="#000000" transform="matrix(1.00, 0.00, -0.00, -1.00, 288.7, 363.7)">Н</text><text xml:space="preserve" font-family="CenturyGothic,Century Gothic" font-size="27.2" fill="#000000" transform="matrix(1.00, 0.00, -0.00, -1.00, 307.3, 363.7)">И</text><text xml:space="preserve" font-family="CenturyGothic,Century Gothic" font-size="27.2" fill="#000000" transform="matrix(1.00, 0.00, -0.00, -1.00, 327.4, 363.7)">Р</text><text xml:space="preserve" font-family="CenturyGothic,Century Gothic" font-size="27.2" fill="#000000" transform="matrix(1.00, 0.00, -0.00, -1.00, 343.5, 363.7)">У</text><text xml:space="preserve" font-family="CenturyGothic,Century Gothic" font-size="27.2" fill="#000000" transform="matrix(1.00, 0.00, -0.00, -1.00, 361.1, 363.7)">Й</text><text xml:space="preserve" font-family="CenturyGothic,Century Gothic" font-size="27.2" fill="#000000" transform="matrix(1.00, 0.00, -0.00, -1.00, 381.2, 363.7)">Т</text><text xml:space="preserve" font-family="CenturyGothic,Century Gothic" font-size="27.2" fill="#000000" transform="matrix(1.00, 0.00, -0.00, -1.00, 392.8, 363.7)">Е</text><text xml:space="preserve" font-family="CenturyGothic,Century Gothic" font-size="34.0" fill="#000000" transform="matrix(1.00, 0.00, -0.00, -1.00, 407.4, 363.7)"> </text><image xlink:href="../../47A2F19A-7752-4801-A35F-7FAE5EFE076B/assets/C380212C0B6B44DD9B14DC4DC185DCC2.png" width="112.00" height="29.00" transform="matrix(1.00, 0.00, -0.00, -1.00, 414.0, 389.0)"></image><text xml:space="preserve" font-family="CenturyGothic,Century Gothic" font-size="27.2" fill="#000000" transform="matrix(1.00, 0.00, -0.00, -1.00, 416.8, 363.7)">Р</text><text xml:space="preserve" font-family="CenturyGothic,Century Gothic" font-size="27.2" fill="#000000" transform="matrix(1.00, 0.00, -0.00, -1.00, 432.9, 363.7)">А</text><text xml:space="preserve" font-family="CenturyGothic,Century Gothic" font-size="27.2" fill="#000000" transform="matrix(1.00, 0.00, -0.00, -1.00, 453.0, 363.7)">З</text><text xml:space="preserve" font-family="CenturyGothic,Century Gothic" font-size="27.2" fill="#000000" transform="matrix(1.00, 0.00, -0.00, -1.00, 468.8, 363.7)">Н</text><text xml:space="preserve" font-family="CenturyGothic,Century Gothic" font-size="27.2" fill="#000000" transform="matrix(1.00, 0.00, -0.00, -1.00, 487.4, 363.7)">Ы</text><text xml:space="preserve" font-family="CenturyGothic,Century Gothic" font-size="27.2" fill="#000000" transform="matrix(1.00, 0.00, -0.00, -1.00, 509.0, 363.7)">Е</text><text xml:space="preserve" font-family="CenturyGothic,Century Gothic" font-size="34.0" fill="#000000" transform="matrix(1.00, 0.00, -0.00, -1.00, 523.6, 363.7)"> </text><image xlink:href="../../47A2F19A-7752-4801-A35F-7FAE5EFE076B/assets/9A0188F044AA38306B4F7308F8326726.png" width="150.00" height="29.00" transform="matrix(1.00, 0.00, -0.00, -1.00, 530.0, 389.0)"></image><text xml:space="preserve" font-family="CenturyGothic,Century Gothic" font-size="27.2" fill="#000000" transform="matrix(1.00, 0.00, -0.00, -1.00, 533.0, 363.7)">П</text><text xml:space="preserve" font-family="CenturyGothic,Century Gothic" font-size="27.2" fill="#000000" transform="matrix(1.00, 0.00, -0.00, -1.00, 551.6, 363.7)">Р</text><text xml:space="preserve" font-family="CenturyGothic,Century Gothic" font-size="27.2" fill="#000000" transform="matrix(1.00, 0.00, -0.00, -1.00, 567.7, 363.7)">И</text><text xml:space="preserve" font-family="CenturyGothic,Century Gothic" font-size="27.2" fill="#000000" transform="matrix(1.00, 0.00, -0.00, -1.00, 587.8, 363.7)">З</text><text xml:space="preserve" font-family="CenturyGothic,Century Gothic" font-size="27.2" fill="#000000" transform="matrix(1.00, 0.00, -0.00, -1.00, 603.6, 363.7)">Н</text><text xml:space="preserve" font-family="CenturyGothic,Century Gothic" font-size="27.2" fill="#000000" transform="matrix(1.00, 0.00, -0.00, -1.00, 622.2, 363.7)">А</text><text xml:space="preserve" font-family="CenturyGothic,Century Gothic" font-size="27.2" fill="#000000" transform="matrix(1.00, 0.00, -0.00, -1.00, 642.3, 363.7)">К</text><text xml:space="preserve" font-family="CenturyGothic,Century Gothic" font-size="27.2" fill="#000000" transform="matrix(1.00, 0.00, -0.00, -1.00, 658.4, 363.7)">И</text><image xlink:href="../../47A2F19A-7752-4801-A35F-7FAE5EFE076B/assets/1CD4E7EC8ACBA34093E524B01111DD4D.png" width="17.00" height="18.00" transform="matrix(1.00, 0.00, -0.00, -1.00, 149.0, 340.0)"></image><text xml:space="preserve" font-family="ArialMT,Arial" font-size="34.0" fill="#000000" transform="matrix(1.00, 0.00, -0.00, -1.00, 152.5, 318.0)">•</text><image xlink:href="../../47A2F19A-7752-4801-A35F-7FAE5EFE076B/assets/9484917F5806C1548343497FEF0DF36C.png" width="28.00" height="34.00" transform="matrix(1.00, 0.00, -0.00, -1.00, 182.0, 347.0)"></image><text xml:space="preserve" font-family="CenturyGothic,Century Gothic" font-size="34.0" fill="#000000" transform="matrix(1.00, 0.00, -0.00, -1.00, 184.3, 316.7)">И</text><image xlink:href="../../47A2F19A-7752-4801-A35F-7FAE5EFE076B/assets/72DDB6DBDBC34799EB5C9DF6EFD609C3.png" width="22.00" height="29.00" transform="matrix(1.00, 0.00, -0.00, -1.00, 205.0, 342.0)"></image><text xml:space="preserve" font-family="CenturyGothic,Century Gothic" font-size="27.2" fill="#000000" transform="matrix(1.00, 0.00, -0.00, -1.00, 209.5, 316.7)">З</text><image xlink:href="../../47A2F19A-7752-4801-A35F-7FAE5EFE076B/assets/7B3F5AC3D4B64313305419C31A6CB150.png" width="54.00" height="34.00" transform="matrix(1.00, 0.00, -0.00, -1.00, 232.0, 347.0)"></image><text xml:space="preserve" font-family="CenturyGothic,Century Gothic" font-size="34.0" fill="#000000" transform="matrix(1.00, 0.00, -0.00, -1.00, 225.3, 316.7)"> </text><text xml:space="preserve" font-family="CenturyGothic,Century Gothic" font-size="34.0" fill="#000000" transform="matrix(1.00, 0.00, -0.00, -1.00, 234.7, 316.7)">7</text><text xml:space="preserve" font-family="CenturyGothic,Century Gothic" font-size="34.0" fill="#000000" transform="matrix(1.00, 0.00, -0.00, -1.00, 253.5, 316.7)">M</text><text xml:space="preserve" font-family="CenturyGothic,Century Gothic" font-size="34.0" fill="#000000" transform="matrix(1.00, 0.00, -0.00, -1.00, 284.8, 316.7)"> </text><image xlink:href="../../47A2F19A-7752-4801-A35F-7FAE5EFE076B/assets/2B93F502C071DD1AE96BE944AA86084D.png" width="148.00" height="29.00" transform="matrix(1.00, 0.00, -0.00, -1.00, 291.0, 342.0)"></image><text xml:space="preserve" font-family="CenturyGothic,Century Gothic" font-size="27.2" fill="#000000" transform="matrix(1.00, 0.00, -0.00, -1.00, 294.2, 316.7)">К</text><text xml:space="preserve" font-family="CenturyGothic,Century Gothic" font-size="27.2" fill="#000000" transform="matrix(1.00, 0.00, -0.00, -1.00, 310.3, 316.7)">А</text><text xml:space="preserve" font-family="CenturyGothic,Century Gothic" font-size="27.2" fill="#000000" transform="matrix(1.00, 0.00, -0.00, -1.00, 330.4, 316.7)">Р</text><text xml:space="preserve" font-family="CenturyGothic,Century Gothic" font-size="27.2" fill="#000000" transform="matrix(1.00, 0.00, -0.00, -1.00, 346.5, 316.7)">Т</text><text xml:space="preserve" font-family="CenturyGothic,Century Gothic" font-size="27.2" fill="#000000" transform="matrix(1.00, 0.00, -0.00, -1.00, 358.1, 316.7)">И</text><text xml:space="preserve" font-family="CenturyGothic,Century Gothic" font-size="27.2" fill="#000000" transform="matrix(1.00, 0.00, -0.00, -1.00, 378.2, 316.7)">Н</text><text xml:space="preserve" font-family="CenturyGothic,Century Gothic" font-size="27.2" fill="#000000" transform="matrix(1.00, 0.00, -0.00, -1.00, 396.7, 316.7)">О</text><text xml:space="preserve" font-family="CenturyGothic,Century Gothic" font-size="27.2" fill="#000000" transform="matrix(1.00, 0.00, -0.00, -1.00, 420.4, 316.7)">К</text><text xml:space="preserve" font-family="CenturyGothic,Century Gothic" font-size="34.0" fill="#000000" transform="matrix(1.00, 0.00, -0.00, -1.00, 436.5, 316.7)"> </text><image xlink:href="../../47A2F19A-7752-4801-A35F-7FAE5EFE076B/assets/02AB8B60D1BDB4A450F176EB14B74CC3.png" width="52.00" height="29.00" transform="matrix(1.00, 0.00, -0.00, -1.00, 442.0, 342.0)"></image><text xml:space="preserve" font-family="CenturyGothic,Century Gothic" font-size="27.2" fill="#000000" transform="matrix(1.00, 0.00, -0.00, -1.00, 445.9, 316.7)">М</text><text xml:space="preserve" font-family="CenturyGothic,Century Gothic" font-size="27.2" fill="#000000" transform="matrix(1.00, 0.00, -0.00, -1.00, 470.9, 316.7)">Ы</text><text xml:space="preserve" font-family="CenturyGothic,Century Gothic" font-size="34.0" fill="#000000" transform="matrix(1.00, 0.00, -0.00, -1.00, 492.5, 316.7)"> </text><image xlink:href="../../47A2F19A-7752-4801-A35F-7FAE5EFE076B/assets/891885353FD701DA71890D173D4018E1.png" width="115.00" height="29.00" transform="matrix(1.00, 0.00, -0.00, -1.00, 497.0, 342.0)"></image><text xml:space="preserve" font-family="CenturyGothic,Century Gothic" font-size="27.2" fill="#000000" transform="matrix(1.00, 0.00, -0.00, -1.00, 501.9, 316.7)">У</text><text xml:space="preserve" font-family="CenturyGothic,Century Gothic" font-size="27.2" fill="#000000" transform="matrix(1.00, 0.00, -0.00, -1.00, 519.4, 316.7)">Б</text><text xml:space="preserve" font-family="CenturyGothic,Century Gothic" font-size="27.2" fill="#000000" transform="matrix(1.00, 0.00, -0.00, -1.00, 535.0, 316.7)">Р</text><text xml:space="preserve" font-family="CenturyGothic,Century Gothic" font-size="27.2" fill="#000000" transform="matrix(1.00, 0.00, -0.00, -1.00, 551.1, 316.7)">А</text><text xml:space="preserve" font-family="CenturyGothic,Century Gothic" font-size="27.2" fill="#000000" transform="matrix(1.00, 0.00, -0.00, -1.00, 571.2, 316.7)">Л</text><text xml:space="preserve" font-family="CenturyGothic,Century Gothic" font-size="27.2" fill="#000000" transform="matrix(1.00, 0.00, -0.00, -1.00, 590.3, 316.7)">И</text><image xlink:href="../../47A2F19A-7752-4801-A35F-7FAE5EFE076B/assets/7DC93AD35DA06FC47A835E2DD83C8AFD.png" width="82.00" height="34.00" transform="matrix(1.00, 0.00, -0.00, -1.00, 617.0, 347.0)"></image><text xml:space="preserve" font-family="CenturyGothic,Century Gothic" font-size="34.0" fill="#000000" transform="matrix(1.00, 0.00, -0.00, -1.00, 610.5, 316.7)"> </text><text xml:space="preserve" font-family="CenturyGothic,Century Gothic" font-size="34.0" fill="#000000" transform="matrix(1.00, 0.00, -0.00, -1.00, 619.9, 316.7)">6</text><text xml:space="preserve" font-family="CenturyGothic,Century Gothic" font-size="34.0" fill="#000000" transform="matrix(1.00, 0.00, -0.00, -1.00, 638.7, 316.7)">0</text><text xml:space="preserve" font-family="CenturyGothic,Century Gothic" font-size="34.0" fill="#000000" transform="matrix(1.00, 0.00, -0.00, -1.00, 657.6, 316.7)">0</text><text xml:space="preserve" font-family="CenturyGothic,Century Gothic" font-size="34.0" fill="#000000" transform="matrix(1.00, 0.00, -0.00, -1.00, 676.4, 316.7)">K</text><text xml:space="preserve" font-family="CenturyGothic,Century Gothic" font-size="34.0" fill="#000000" transform="matrix(1.00, 0.00, -0.00, -1.00, 696.5, 316.7)"> </text><image xlink:href="../../47A2F19A-7752-4801-A35F-7FAE5EFE076B/assets/98F6A6848B7CEBAC0F7B350AAB8E17F8.png" width="187.00" height="32.00" transform="matrix(1.00, 0.00, -0.00, -1.00, 179.0, 308.0)"></image><text xml:space="preserve" font-family="CenturyGothic,Century Gothic" font-size="27.2" fill="#000000" transform="matrix(1.00, 0.00, -0.00, -1.00, 184.3, 282.2)">Д</text><text xml:space="preserve" font-family="CenturyGothic,Century Gothic" font-size="27.2" fill="#000000" transform="matrix(1.00, 0.00, -0.00, -1.00, 204.7, 282.2)">У</text><text xml:space="preserve" font-family="CenturyGothic,Century Gothic" font-size="27.2" fill="#000000" transform="matrix(1.00, 0.00, -0.00, -1.00, 222.3, 282.2)">Б</text><text xml:space="preserve" font-family="CenturyGothic,Century Gothic" font-size="27.2" fill="#000000" transform="matrix(1.00, 0.00, -0.00, -1.00, 237.8, 282.2)">Л</text><text xml:space="preserve" font-family="CenturyGothic,Century Gothic" font-size="27.2" fill="#000000" transform="matrix(1.00, 0.00, -0.00, -1.00, 256.9, 282.2)">И</text><text xml:space="preserve" font-family="CenturyGothic,Century Gothic" font-size="27.2" fill="#000000" transform="matrix(1.00, 0.00, -0.00, -1.00, 277.0, 282.2)">К</text><text xml:space="preserve" font-family="CenturyGothic,Century Gothic" font-size="27.2" fill="#000000" transform="matrix(1.00, 0.00, -0.00, -1.00, 293.1, 282.2)">А</text><text xml:space="preserve" font-family="CenturyGothic,Century Gothic" font-size="27.2" fill="#000000" transform="matrix(1.00, 0.00, -0.00, -1.00, 313.2, 282.2)">Т</text><text xml:space="preserve" font-family="CenturyGothic,Century Gothic" font-size="27.2" fill="#000000" transform="matrix(1.00, 0.00, -0.00, -1.00, 324.8, 282.2)">О</text><text xml:space="preserve" font-family="CenturyGothic,Century Gothic" font-size="27.2" fill="#000000" transform="matrix(1.00, 0.00, -0.00, -1.00, 348.4, 282.2)">В</text><image xlink:href="../../47A2F19A-7752-4801-A35F-7FAE5EFE076B/assets/1CD4E7EC8ACBA34093E524B01111DD4D.png" width="17.00" height="18.00" transform="matrix(1.00, 0.00, -0.00, -1.00, 185.0, 260.0)"></image><text xml:space="preserve" font-family="ArialMT,Arial" font-size="34.0" fill="#000000" transform="matrix(1.00, 0.00, -0.00, -1.00, 188.5, 238.0)">•</text><image xlink:href="../../47A2F19A-7752-4801-A35F-7FAE5EFE076B/assets/75E6B19B771D5F25AA64AD2A86BB7574.png" width="44.00" height="34.00" transform="matrix(1.00, 0.00, -0.00, -1.00, 216.0, 267.0)"></image><text xml:space="preserve" font-family="CenturyGothic,Century Gothic" font-size="34.0" fill="#000000" transform="matrix(1.00, 0.00, -0.00, -1.00, 220.3, 236.7)">2</text><text xml:space="preserve" font-family="CenturyGothic,Century Gothic" font-size="34.0" fill="#000000" transform="matrix(1.00, 0.00, -0.00, -1.00, 239.2, 236.7)">0</text><text xml:space="preserve" font-family="CenturyGothic,Century Gothic" font-size="34.0" fill="#000000" transform="matrix(1.00, 0.00, -0.00, -1.00, 258.0, 236.7)"> </text><image xlink:href="../../47A2F19A-7752-4801-A35F-7FAE5EFE076B/assets/CF7B8973BA03536E9277737D98BC2983.png" width="29.00" height="29.00" transform="matrix(1.00, 0.00, -0.00, -1.00, 263.0, 262.0)"></image><text xml:space="preserve" font-family="CenturyGothic,Century Gothic" font-size="27.2" fill="#000000" transform="matrix(1.00, 0.00, -0.00, -1.00, 267.4, 236.7)">C</text><image xlink:href="../../47A2F19A-7752-4801-A35F-7FAE5EFE076B/assets/A0747F847A244757955D96E4091E8C4C.png" width="34.00" height="34.00" transform="matrix(1.00, 0.00, -0.00, -1.00, 285.0, 267.0)"></image><text xml:space="preserve" font-family="CenturyGothic,Century Gothic" font-size="34.0" fill="#000000" transform="matrix(1.00, 0.00, -0.00, -1.00, 289.5, 236.7)">3</text><text xml:space="preserve" font-family="CenturyGothic,Century Gothic" font-size="34.0" fill="#000000" transform="matrix(1.00, 0.00, -0.00, -1.00, 308.4, 236.7)">.</text><image xlink:href="../../47A2F19A-7752-4801-A35F-7FAE5EFE076B/assets/BB946217568FFD54A832F34758EAC92C.png" width="93.00" height="29.00" transform="matrix(1.00, 0.00, -0.00, -1.00, 315.0, 262.0)"></image><text xml:space="preserve" font-family="CenturyGothic,Century Gothic" font-size="27.2" fill="#000000" transform="matrix(1.00, 0.00, -0.00, -1.00, 317.8, 236.7)">L</text><text xml:space="preserve" font-family="CenturyGothic,Century Gothic" font-size="27.2" fill="#000000" transform="matrix(1.00, 0.00, -0.00, -1.00, 330.4, 236.7)">A</text><text xml:space="preserve" font-family="CenturyGothic,Century Gothic" font-size="27.2" fill="#000000" transform="matrix(1.00, 0.00, -0.00, -1.00, 350.5, 236.7)">R</text><text xml:space="preserve" font-family="CenturyGothic,Century Gothic" font-size="27.2" fill="#000000" transform="matrix(1.00, 0.00, -0.00, -1.00, 367.0, 236.7)">G</text><text xml:space="preserve" font-family="CenturyGothic,Century Gothic" font-size="27.2" fill="#000000" transform="matrix(1.00, 0.00, -0.00, -1.00, 390.7, 236.7)">E</text><image xlink:href="../../47A2F19A-7752-4801-A35F-7FAE5EFE076B/assets/09F03A25E7B7E6FEC69282E5588EC273.png" width="70.00" height="34.00" transform="matrix(1.00, 0.00, -0.00, -1.00, 412.0, 267.0)"></image><text xml:space="preserve" font-family="CenturyGothic,Century Gothic" font-size="34.0" fill="#000000" transform="matrix(1.00, 0.00, -0.00, -1.00, 405.3, 236.7)"> </text><text xml:space="preserve" font-family="CenturyGothic,Century Gothic" font-size="34.0" fill="#000000" transform="matrix(1.00, 0.00, -0.00, -1.00, 414.7, 236.7)">E</text><text xml:space="preserve" font-family="CenturyGothic,Century Gothic" font-size="34.0" fill="#000000" transform="matrix(1.00, 0.00, -0.00, -1.00, 432.9, 236.7)">C</text><text xml:space="preserve" font-family="CenturyGothic,Century Gothic" font-size="34.0" fill="#000000" transform="matrix(1.00, 0.00, -0.00, -1.00, 460.6, 236.7)">2</text><text xml:space="preserve" font-family="CenturyGothic,Century Gothic" font-size="34.0" fill="#000000" transform="matrix(1.00, 0.00, -0.00, -1.00, 479.4, 236.7)"> </text><image xlink:href="../../47A2F19A-7752-4801-A35F-7FAE5EFE076B/assets/67B229EFAAEADCD2F6E5B5AE2746504A.png" width="116.00" height="29.00" transform="matrix(1.00, 0.00, -0.00, -1.00, 485.0, 262.0)"></image><text xml:space="preserve" font-family="CenturyGothic,Century Gothic" font-size="27.2" fill="#000000" transform="matrix(1.00, 0.00, -0.00, -1.00, 488.8, 236.7)">М</text><text xml:space="preserve" font-family="CenturyGothic,Century Gothic" font-size="27.2" fill="#000000" transform="matrix(1.00, 0.00, -0.00, -1.00, 513.8, 236.7)">А</text><text xml:space="preserve" font-family="CenturyGothic,Century Gothic" font-size="27.2" fill="#000000" transform="matrix(1.00, 0.00, -0.00, -1.00, 533.9, 236.7)">Ш</text><text xml:space="preserve" font-family="CenturyGothic,Century Gothic" font-size="27.2" fill="#000000" transform="matrix(1.00, 0.00, -0.00, -1.00, 561.4, 236.7)">И</text><text xml:space="preserve" font-family="CenturyGothic,Century Gothic" font-size="27.2" fill="#000000" transform="matrix(1.00, 0.00, -0.00, -1.00, 581.5, 236.7)">Н</text><text xml:space="preserve" font-family="CenturyGothic,Century Gothic" font-size="34.0" fill="#000000" transform="matrix(1.00, 0.00, -0.00, -1.00, 600.1, 236.7)"> </text><image xlink:href="../../47A2F19A-7752-4801-A35F-7FAE5EFE076B/assets/3826F1533DAAB82AB296E92432269608.png" width="43.00" height="29.00" transform="matrix(1.00, 0.00, -0.00, -1.00, 605.0, 262.0)"></image><text xml:space="preserve" font-family="CenturyGothic,Century Gothic" font-size="27.2" fill="#000000" transform="matrix(1.00, 0.00, -0.00, -1.00, 609.5, 236.7)">З</text><text xml:space="preserve" font-family="CenturyGothic,Century Gothic" font-size="27.2" fill="#000000" transform="matrix(1.00, 0.00, -0.00, -1.00, 625.3, 236.7)">А</text><text xml:space="preserve" font-family="CenturyGothic,Century Gothic" font-size="34.0" fill="#000000" transform="matrix(1.00, 0.00, -0.00, -1.00, 645.4, 236.7)"> </text><image xlink:href="../../47A2F19A-7752-4801-A35F-7FAE5EFE076B/assets/06AFC67387F321B9365A1328DEA5A203.png" width="92.00" height="29.00" transform="matrix(1.00, 0.00, -0.00, -1.00, 651.0, 262.0)"></image><text xml:space="preserve" font-family="CenturyGothic,Century Gothic" font-size="27.2" fill="#000000" transform="matrix(1.00, 0.00, -0.00, -1.00, 654.8, 236.7)">С</text><text xml:space="preserve" font-family="CenturyGothic,Century Gothic" font-size="27.2" fill="#000000" transform="matrix(1.00, 0.00, -0.00, -1.00, 676.9, 236.7)">У</text><text xml:space="preserve" font-family="CenturyGothic,Century Gothic" font-size="27.2" fill="#000000" transform="matrix(1.00, 0.00, -0.00, -1.00, 694.5, 236.7)">Т</text><text xml:space="preserve" font-family="CenturyGothic,Century Gothic" font-size="27.2" fill="#000000" transform="matrix(1.00, 0.00, -0.00, -1.00, 706.1, 236.7)">К</text><text xml:space="preserve" font-family="CenturyGothic,Century Gothic" font-size="27.2" fill="#000000" transform="matrix(1.00, 0.00, -0.00, -1.00, 722.1, 236.7)">И</text><text xml:space="preserve" font-family="CenturyGothic-Bold,Century Gothic" font-weight="bold" font-size="28.0" fill="#525252" transform="matrix(1.00, 0.00, -0.00, -1.00, 933.1, 65.6)">3</text><text xml:space="preserve" font-family="CenturyGothic-Bold,Century Gothic" font-weight="bold" font-size="28.0" fill="#525252" transform="matrix(1.00, 0.00, -0.00, -1.00, 948.8, 65.6)">4</text></g></svg>