<?xml version="1.0" encoding="UTF-8" standalone="no"?><svg xmlns="http://www.w3.org/2000/svg" xmlns:xlink="http://www.w3.org/1999/xlink" clip-rule="evenodd" stroke-miterlimit="10" viewBox="0 0 559 47"><desc>SVG generated by Keynote</desc><defs></defs><g transform="matrix(1.00, 0.00, -0.00, -1.00, 0.0, 47.0)"><image xlink:href="../../47A2F19A-7752-4801-A35F-7FAE5EFE076B/assets/1CD4E7EC8ACBA34093E524B01111DD4D.png" width="17.00" height="18.00" transform="matrix(1.00, 0.00, -0.00, -1.00, 2.0, 33.0)"></image><text xml:space="preserve" font-family="ArialMT,Arial" font-size="34.0" fill="#000000" transform="matrix(1.00, 0.00, -0.00, -1.00, 5.5, 11.0)">•</text><image xlink:href="75E6B19B771D5F25AA64AD2A86BB7574.png" width="44.00" height="34.00" transform="matrix(1.00, 0.00, -0.00, -1.00, 33.0, 40.0)"></image><text xml:space="preserve" font-family="CenturyGothic,Century Gothic" font-size="34.0" fill="#000000" transform="matrix(1.00, 0.00, -0.00, -1.00, 37.3, 9.7)">2</text><text xml:space="preserve" font-family="CenturyGothic,Century Gothic" font-size="34.0" fill="#000000" transform="matrix(1.00, 0.00, -0.00, -1.00, 56.2, 9.7)">0</text><text xml:space="preserve" font-family="CenturyGothic,Century Gothic" font-size="34.0" fill="#000000" transform="matrix(1.00, 0.00, -0.00, -1.00, 75.0, 9.7)"> </text><image xlink:href="CF7B8973BA03536E9277737D98BC2983.png" width="29.00" height="29.00" transform="matrix(1.00, 0.00, -0.00, -1.00, 80.0, 35.0)"></image><text xml:space="preserve" font-family="CenturyGothic,Century Gothic" font-size="27.2" fill="#000000" transform="matrix(1.00, 0.00, -0.00, -1.00, 84.4, 9.7)">C</text><image xlink:href="A0747F847A244757955D96E4091E8C4C.png" width="34.00" height="34.00" transform="matrix(1.00, 0.00, -0.00, -1.00, 102.0, 40.0)"></image><text xml:space="preserve" font-family="CenturyGothic,Century Gothic" font-size="34.0" fill="#000000" transform="matrix(1.00, 0.00, -0.00, -1.00, 106.5, 9.7)">3</text><text xml:space="preserve" font-family="CenturyGothic,Century Gothic" font-size="34.0" fill="#000000" transform="matrix(1.00, 0.00, -0.00, -1.00, 125.4, 9.7)">.</text><image xlink:href="BB946217568FFD54A832F34758EAC92C.png" width="93.00" height="29.00" transform="matrix(1.00, 0.00, -0.00, -1.00, 132.0, 35.0)"></image><text xml:space="preserve" font-family="CenturyGothic,Century Gothic" font-size="27.2" fill="#000000" transform="matrix(1.00, 0.00, -0.00, -1.00, 134.8, 9.7)">L</text><text xml:space="preserve" font-family="CenturyGothic,Century Gothic" font-size="27.2" fill="#000000" transform="matrix(1.00, 0.00, -0.00, -1.00, 147.4, 9.7)">A</text><text xml:space="preserve" font-family="CenturyGothic,Century Gothic" font-size="27.2" fill="#000000" transform="matrix(1.00, 0.00, -0.00, -1.00, 167.5, 9.7)">R</text><text xml:space="preserve" font-family="CenturyGothic,Century Gothic" font-size="27.2" fill="#000000" transform="matrix(1.00, 0.00, -0.00, -1.00, 184.0, 9.7)">G</text><text xml:space="preserve" font-family="CenturyGothic,Century Gothic" font-size="27.2" fill="#000000" transform="matrix(1.00, 0.00, -0.00, -1.00, 207.7, 9.7)">E</text><image xlink:href="09F03A25E7B7E6FEC69282E5588EC273.png" width="70.00" height="34.00" transform="matrix(1.00, 0.00, -0.00, -1.00, 229.0, 40.0)"></image><text xml:space="preserve" font-family="CenturyGothic,Century Gothic" font-size="34.0" fill="#000000" transform="matrix(1.00, 0.00, -0.00, -1.00, 222.3, 9.7)"> </text><text xml:space="preserve" font-family="CenturyGothic,Century Gothic" font-size="34.0" fill="#000000" transform="matrix(1.00, 0.00, -0.00, -1.00, 231.7, 9.7)">E</text><text xml:space="preserve" font-family="CenturyGothic,Century Gothic" font-size="34.0" fill="#000000" transform="matrix(1.00, 0.00, -0.00, -1.00, 249.9, 9.7)">C</text><text xml:space="preserve" font-family="CenturyGothic,Century Gothic" font-size="34.0" fill="#000000" transform="matrix(1.00, 0.00, -0.00, -1.00, 277.6, 9.7)">2</text><text xml:space="preserve" font-family="CenturyGothic,Century Gothic" font-size="34.0" fill="#000000" transform="matrix(1.00, 0.00, -0.00, -1.00, 296.4, 9.7)"> </text><image xlink:href="67B229EFAAEADCD2F6E5B5AE2746504A.png" width="116.00" height="29.00" transform="matrix(1.00, 0.00, -0.00, -1.00, 302.0, 35.0)"></image><text xml:space="preserve" font-family="CenturyGothic,Century Gothic" font-size="27.2" fill="#000000" transform="matrix(1.00, 0.00, -0.00, -1.00, 305.8, 9.7)">М</text><text xml:space="preserve" font-family="CenturyGothic,Century Gothic" font-size="27.2" fill="#000000" transform="matrix(1.00, 0.00, -0.00, -1.00, 330.8, 9.7)">А</text><text xml:space="preserve" font-family="CenturyGothic,Century Gothic" font-size="27.2" fill="#000000" transform="matrix(1.00, 0.00, -0.00, -1.00, 350.9, 9.7)">Ш</text><text xml:space="preserve" font-family="CenturyGothic,Century Gothic" font-size="27.2" fill="#000000" transform="matrix(1.00, 0.00, -0.00, -1.00, 378.4, 9.7)">И</text><text xml:space="preserve" font-family="CenturyGothic,Century Gothic" font-size="27.2" fill="#000000" transform="matrix(1.00, 0.00, -0.00, -1.00, 398.5, 9.7)">Н</text><text xml:space="preserve" font-family="CenturyGothic,Century Gothic" font-size="34.0" fill="#000000" transform="matrix(1.00, 0.00, -0.00, -1.00, 417.1, 9.7)"> </text><image xlink:href="3826F1533DAAB82AB296E92432269608.png" width="43.00" height="29.00" transform="matrix(1.00, 0.00, -0.00, -1.00, 422.0, 35.0)"></image><text xml:space="preserve" font-family="CenturyGothic,Century Gothic" font-size="27.2" fill="#000000" transform="matrix(1.00, 0.00, -0.00, -1.00, 426.5, 9.7)">З</text><text xml:space="preserve" font-family="CenturyGothic,Century Gothic" font-size="27.2" fill="#000000" transform="matrix(1.00, 0.00, -0.00, -1.00, 442.3, 9.7)">А</text><text xml:space="preserve" font-family="CenturyGothic,Century Gothic" font-size="34.0" fill="#000000" transform="matrix(1.00, 0.00, -0.00, -1.00, 462.4, 9.7)"> </text><image xlink:href="06AFC67387F321B9365A1328DEA5A203.png" width="92.00" height="29.00" transform="matrix(1.00, 0.00, -0.00, -1.00, 468.0, 35.0)"></image><text xml:space="preserve" font-family="CenturyGothic,Century Gothic" font-size="27.2" fill="#000000" transform="matrix(1.00, 0.00, -0.00, -1.00, 471.8, 9.7)">С</text><text xml:space="preserve" font-family="CenturyGothic,Century Gothic" font-size="27.2" fill="#000000" transform="matrix(1.00, 0.00, -0.00, -1.00, 493.9, 9.7)">У</text><text xml:space="preserve" font-family="CenturyGothic,Century Gothic" font-size="27.2" fill="#000000" transform="matrix(1.00, 0.00, -0.00, -1.00, 511.5, 9.7)">Т</text><text xml:space="preserve" font-family="CenturyGothic,Century Gothic" font-size="27.2" fill="#000000" transform="matrix(1.00, 0.00, -0.00, -1.00, 523.1, 9.7)">К</text><text xml:space="preserve" font-family="CenturyGothic,Century Gothic" font-size="27.2" fill="#000000" transform="matrix(1.00, 0.00, -0.00, -1.00, 539.1, 9.7)">И</text></g></svg>