<?xml version="1.0" encoding="UTF-8" standalone="no"?><svg xmlns="http://www.w3.org/2000/svg" xmlns:xlink="http://www.w3.org/1999/xlink" clip-rule="evenodd" stroke-miterlimit="10" viewBox="0 0 1024 768"><desc>SVG generated by Keynote</desc><defs></defs><g transform="matrix(1.00, 0.00, -0.00, -1.00, 0.0, 768.0)"><path d="M 0.0 768.0 L 1024.0 768.0 L 1024.0 0.0 L 0.0 0.0 Z M 0.0 768.0 " fill="#FFFFFF"></path><image xlink:href="../../2228AE9C-3706-437F-8379-D21BA5B8F0CA/assets/C2129A3EE7512E75FEE2A48785F9B6A3.png" width="1033.00" height="179.00" transform="matrix(0.21, 0.00, -0.00, -0.21, 39.9, 95.6)"></image><image xlink:href="D2CFE6B3F48319B36E4999BB7157CAC5.png" width="286.00" height="48.00" transform="matrix(1.00, 0.00, -0.00, -1.00, 100.0, 668.0)"></image><text xml:space="preserve" font-family="CenturyGothic,Century Gothic" font-size="56.8" fill="#000000" transform="matrix(1.00, 0.00, -0.00, -1.00, 99.8, 621.7)">К</text><text xml:space="preserve" font-family="CenturyGothic,Century Gothic" font-size="56.8" fill="#000000" transform="matrix(1.00, 0.00, -0.00, -1.00, 133.4, 621.7)">О</text><text xml:space="preserve" font-family="CenturyGothic,Century Gothic" font-size="56.8" fill="#000000" transform="matrix(1.00, 0.00, -0.00, -1.00, 182.8, 621.7)">Н</text><text xml:space="preserve" font-family="CenturyGothic,Century Gothic" font-size="56.8" fill="#000000" transform="matrix(1.00, 0.00, -0.00, -1.00, 221.6, 621.7)">Т</text><text xml:space="preserve" font-family="CenturyGothic,Century Gothic" font-size="56.8" fill="#000000" transform="matrix(1.00, 0.00, -0.00, -1.00, 245.8, 621.7)">А</text><text xml:space="preserve" font-family="CenturyGothic,Century Gothic" font-size="56.8" fill="#000000" transform="matrix(1.00, 0.00, -0.00, -1.00, 287.8, 621.7)">К</text><text xml:space="preserve" font-family="CenturyGothic,Century Gothic" font-size="56.8" fill="#000000" transform="matrix(1.00, 0.00, -0.00, -1.00, 321.4, 621.7)">Т</text><text xml:space="preserve" font-family="CenturyGothic,Century Gothic" font-size="56.8" fill="#000000" transform="matrix(1.00, 0.00, -0.00, -1.00, 345.6, 621.7)">Ы</text><image xlink:href="../../57A638F0-EAA5-4627-BEDB-60B3E7516D27/assets/03CE8AC2452EE2C1373F2384E93FA464.png" width="17.00" height="17.00" transform="matrix(1.00, 0.00, -0.00, -1.00, 96.0, 443.0)"></image><text xml:space="preserve" font-family="ArialMT,Arial" font-size="34.0" fill="#000000" transform="matrix(1.00, 0.00, -0.00, -1.00, 99.7, 421.8)">•</text><image xlink:href="9924E1DD2853A479A9B9280B3B2C0FB3.png" width="63.00" height="29.00" transform="matrix(1.00, 0.00, -0.00, -1.00, 128.0, 446.0)"></image><text xml:space="preserve" font-family="CenturyGothic,Century Gothic" font-size="27.2" fill="#0000FF" transform="matrix(1.00, 0.00, -0.00, -1.00, 131.6, 420.6)">H</text><text xml:space="preserve" font-family="CenturyGothic,Century Gothic" font-size="27.2" fill="#0000FF" transform="matrix(1.00, 0.00, -0.00, -1.00, 150.2, 420.6)">T</text><text xml:space="preserve" font-family="CenturyGothic,Century Gothic" font-size="27.2" fill="#0000FF" transform="matrix(1.00, 0.00, -0.00, -1.00, 161.7, 420.6)">T</text><text xml:space="preserve" font-family="CenturyGothic,Century Gothic" font-size="27.2" fill="#0000FF" transform="matrix(1.00, 0.00, -0.00, -1.00, 173.3, 420.6)">P</text><image xlink:href="FAA48C300EE85D6F0613D51516C269F9.png" width="44.00" height="37.00" transform="matrix(1.00, 0.00, -0.00, -1.00, 187.0, 451.0)"></image><text xml:space="preserve" font-family="CenturyGothic,Century Gothic" font-size="34.0" fill="#0000FF" transform="matrix(1.00, 0.00, -0.00, -1.00, 189.4, 420.6)">:</text><text xml:space="preserve" font-family="CenturyGothic,Century Gothic" font-size="34.0" fill="#0000FF" transform="matrix(1.00, 0.00, -0.00, -1.00, 198.8, 420.6)">/</text><text xml:space="preserve" font-family="CenturyGothic,Century Gothic" font-size="34.0" fill="#0000FF" transform="matrix(1.00, 0.00, -0.00, -1.00, 213.7, 420.6)">/</text><image xlink:href="62337136EF3811A71C0269193D420352.png" width="99.00" height="29.00" transform="matrix(1.00, 0.00, -0.00, -1.00, 225.0, 446.0)"></image><text xml:space="preserve" font-family="CenturyGothic,Century Gothic" font-size="27.2" fill="#0000FF" transform="matrix(1.00, 0.00, -0.00, -1.00, 228.6, 420.6)">G</text><text xml:space="preserve" font-family="CenturyGothic,Century Gothic" font-size="27.2" fill="#0000FF" transform="matrix(1.00, 0.00, -0.00, -1.00, 252.3, 420.6)">I</text><text xml:space="preserve" font-family="CenturyGothic,Century Gothic" font-size="27.2" fill="#0000FF" transform="matrix(1.00, 0.00, -0.00, -1.00, 258.4, 420.6)">T</text><text xml:space="preserve" font-family="CenturyGothic,Century Gothic" font-size="27.2" fill="#0000FF" transform="matrix(1.00, 0.00, -0.00, -1.00, 270.0, 420.6)">H</text><text xml:space="preserve" font-family="CenturyGothic,Century Gothic" font-size="27.2" fill="#0000FF" transform="matrix(1.00, 0.00, -0.00, -1.00, 288.6, 420.6)">U</text><text xml:space="preserve" font-family="CenturyGothic,Century Gothic" font-size="27.2" fill="#0000FF" transform="matrix(1.00, 0.00, -0.00, -1.00, 306.4, 420.6)">B</text><image xlink:href="3D3F2DCBF4D9B5003038FCF491100D22.png" width="13.00" height="13.00" transform="matrix(1.00, 0.00, -0.00, -1.00, 320.0, 430.0)"></image><text xml:space="preserve" font-family="CenturyGothic,Century Gothic" font-size="34.0" fill="#0000FF" transform="matrix(1.00, 0.00, -0.00, -1.00, 322.0, 420.6)">.</text><image xlink:href="5C5DFF9BBED7E2D9843991E9FB7A6420.png" width="77.00" height="29.00" transform="matrix(1.00, 0.00, -0.00, -1.00, 327.0, 446.0)"></image><text xml:space="preserve" font-family="CenturyGothic,Century Gothic" font-size="27.2" fill="#0000FF" transform="matrix(1.00, 0.00, -0.00, -1.00, 331.4, 420.6)">C</text><text xml:space="preserve" font-family="CenturyGothic,Century Gothic" font-size="27.2" fill="#0000FF" transform="matrix(1.00, 0.00, -0.00, -1.00, 353.5, 420.6)">O</text><text xml:space="preserve" font-family="CenturyGothic,Century Gothic" font-size="27.2" fill="#0000FF" transform="matrix(1.00, 0.00, -0.00, -1.00, 377.2, 420.6)">M</text><image xlink:href="59E33917344997A2FE3AE9A7FA565440.png" width="22.00" height="37.00" transform="matrix(1.00, 0.00, -0.00, -1.00, 398.0, 451.0)"></image><text xml:space="preserve" font-family="CenturyGothic,Century Gothic" font-size="34.0" fill="#0000FF" transform="matrix(1.00, 0.00, -0.00, -1.00, 402.2, 420.6)">/</text><image xlink:href="BF478B95627A063BF2BC21AA16C89049.png" width="128.00" height="29.00" transform="matrix(1.00, 0.00, -0.00, -1.00, 412.0, 446.0)"></image><text xml:space="preserve" font-family="CenturyGothic,Century Gothic" font-size="27.2" fill="#0000FF" transform="matrix(1.00, 0.00, -0.00, -1.00, 417.0, 420.6)">V</text><text xml:space="preserve" font-family="CenturyGothic,Century Gothic" font-size="27.2" fill="#0000FF" transform="matrix(1.00, 0.00, -0.00, -1.00, 436.1, 420.6)">E</text><text xml:space="preserve" font-family="CenturyGothic,Century Gothic" font-size="27.2" fill="#0000FF" transform="matrix(1.00, 0.00, -0.00, -1.00, 450.7, 420.6)">N</text><text xml:space="preserve" font-family="CenturyGothic,Century Gothic" font-size="27.2" fill="#0000FF" transform="matrix(1.00, 0.00, -0.00, -1.00, 470.8, 420.6)">T</text><text xml:space="preserve" font-family="CenturyGothic,Century Gothic" font-size="27.2" fill="#0000FF" transform="matrix(1.00, 0.00, -0.00, -1.00, 482.4, 420.6)">U</text><text xml:space="preserve" font-family="CenturyGothic,Century Gothic" font-size="27.2" fill="#0000FF" transform="matrix(1.00, 0.00, -0.00, -1.00, 500.2, 420.6)">R</text><text xml:space="preserve" font-family="CenturyGothic,Century Gothic" font-size="27.2" fill="#0000FF" transform="matrix(1.00, 0.00, -0.00, -1.00, 516.8, 420.6)">A</text><image xlink:href="698823334DFDE596309319AF77A47A91.png" width="21.00" height="37.00" transform="matrix(1.00, 0.00, -0.00, -1.00, 533.0, 451.0)"></image><text xml:space="preserve" font-family="CenturyGothic,Century Gothic" font-size="34.0" fill="#0000FF" transform="matrix(1.00, 0.00, -0.00, -1.00, 536.9, 420.6)">/</text><image xlink:href="98F82CBD994E62CE1871B9578F002D9D.png" width="78.00" height="29.00" transform="matrix(1.00, 0.00, -0.00, -1.00, 547.0, 446.0)"></image><text xml:space="preserve" font-family="CenturyGothic,Century Gothic" font-size="27.2" fill="#0000FF" transform="matrix(1.00, 0.00, -0.00, -1.00, 551.7, 420.6)">T</text><text xml:space="preserve" font-family="CenturyGothic,Century Gothic" font-size="27.2" fill="#0000FF" transform="matrix(1.00, 0.00, -0.00, -1.00, 561.1, 420.6)">A</text><text xml:space="preserve" font-family="CenturyGothic,Century Gothic" font-size="27.2" fill="#0000FF" transform="matrix(1.00, 0.00, -0.00, -1.00, 581.2, 420.6)">L</text><text xml:space="preserve" font-family="CenturyGothic,Century Gothic" font-size="27.2" fill="#0000FF" transform="matrix(1.00, 0.00, -0.00, -1.00, 593.8, 420.6)">K</text><text xml:space="preserve" font-family="CenturyGothic,Century Gothic" font-size="27.2" fill="#0000FF" transform="matrix(1.00, 0.00, -0.00, -1.00, 609.8, 420.6)">S</text><text xml:space="preserve" font-family="CenturyGothic,Century Gothic" font-size="34.0" fill="#000000" transform="matrix(1.00, 0.00, -0.00, -1.00, 623.4, 420.6)"> </text><g><clipPath id="clip0x7fd029e31060"><path d="M 130.6 416.2 L 623.4 416.2 L 623.4 419.9 L 130.6 419.9 Z M 130.6 416.2 "></path></clipPath><g clip-path="url(#clip0x7fd029e31060)"><path d="M 35.7 182.9 L 527.5 182.9 " fill="none" stroke="#0000FF" stroke-width="1.69" transform="matrix(1.00, 0.00, 0.00, -1.00, 95.9, 600.9)"></path></g></g><image xlink:href="../../57A638F0-EAA5-4627-BEDB-60B3E7516D27/assets/03CE8AC2452EE2C1373F2384E93FA464.png" width="17.00" height="17.00" transform="matrix(1.00, 0.00, -0.00, -1.00, 96.0, 396.0)"></image><text xml:space="preserve" font-family="ArialMT,Arial" font-size="34.0" fill="#000000" transform="matrix(1.00, 0.00, -0.00, -1.00, 99.7, 374.8)">•</text><image xlink:href="F9F74A74E3D2658401392DFBBA12D529.png" width="31.00" height="33.00" transform="matrix(1.00, 0.00, -0.00, -1.00, 127.0, 403.0)"></image><text xml:space="preserve" font-family="CenturyGothic,Century Gothic" font-size="34.0" fill="#0000FF" transform="matrix(1.00, 0.00, -0.00, -1.00, 131.6, 373.6)">V</text><image xlink:href="E687BF8F7EA1FC8E5C29DA899155E24A.png" width="79.00" height="29.00" transform="matrix(1.00, 0.00, -0.00, -1.00, 152.0, 399.0)"></image><text xml:space="preserve" font-family="CenturyGothic,Century Gothic" font-size="27.2" fill="#0000FF" transform="matrix(1.00, 0.00, -0.00, -1.00, 155.5, 373.6)">I</text><text xml:space="preserve" font-family="CenturyGothic,Century Gothic" font-size="27.2" fill="#0000FF" transform="matrix(1.00, 0.00, -0.00, -1.00, 161.6, 373.6)">K</text><text xml:space="preserve" font-family="CenturyGothic,Century Gothic" font-size="27.2" fill="#0000FF" transform="matrix(1.00, 0.00, -0.00, -1.00, 177.7, 373.6)">T</text><text xml:space="preserve" font-family="CenturyGothic,Century Gothic" font-size="27.2" fill="#0000FF" transform="matrix(1.00, 0.00, -0.00, -1.00, 189.3, 373.6)">O</text><text xml:space="preserve" font-family="CenturyGothic,Century Gothic" font-size="27.2" fill="#0000FF" transform="matrix(1.00, 0.00, -0.00, -1.00, 212.9, 373.6)">R</text><image xlink:href="64671D9069DBF580207A43843F9BB1D3.png" width="39.00" height="33.00" transform="matrix(1.00, 0.00, -0.00, -1.00, 227.0, 403.0)"></image><text xml:space="preserve" font-family="CenturyGothic,Century Gothic" font-size="34.0" fill="#0000FF" transform="matrix(1.00, 0.00, -0.00, -1.00, 229.4, 373.6)">.</text><text xml:space="preserve" font-family="CenturyGothic,Century Gothic" font-size="34.0" fill="#0000FF" transform="matrix(1.00, 0.00, -0.00, -1.00, 238.8, 373.6)">D</text><image xlink:href="E0EADDAD618AF838E8329788180B4E49.png" width="126.00" height="29.00" transform="matrix(1.00, 0.00, -0.00, -1.00, 261.0, 399.0)"></image><text xml:space="preserve" font-family="CenturyGothic,Century Gothic" font-size="27.2" fill="#0000FF" transform="matrix(1.00, 0.00, -0.00, -1.00, 264.1, 373.6)">R</text><text xml:space="preserve" font-family="CenturyGothic,Century Gothic" font-size="27.2" fill="#0000FF" transform="matrix(1.00, 0.00, -0.00, -1.00, 280.6, 373.6)">A</text><text xml:space="preserve" font-family="CenturyGothic,Century Gothic" font-size="27.2" fill="#0000FF" transform="matrix(1.00, 0.00, -0.00, -1.00, 300.7, 373.6)">C</text><text xml:space="preserve" font-family="CenturyGothic,Century Gothic" font-size="27.2" fill="#0000FF" transform="matrix(1.00, 0.00, -0.00, -1.00, 322.9, 373.6)">H</text><text xml:space="preserve" font-family="CenturyGothic,Century Gothic" font-size="27.2" fill="#0000FF" transform="matrix(1.00, 0.00, -0.00, -1.00, 341.4, 373.6)">O</text><text xml:space="preserve" font-family="CenturyGothic,Century Gothic" font-size="27.2" fill="#0000FF" transform="matrix(1.00, 0.00, -0.00, -1.00, 365.1, 373.6)">V</text><image xlink:href="4E99E8C2004316EE3690DFE0E3D50220.png" width="34.00" height="35.00" transform="matrix(1.00, 0.00, -0.00, -1.00, 381.0, 405.0)"></image><text xml:space="preserve" font-family="CenturyGothic,Century Gothic" font-size="34.0" fill="#0000FF" transform="matrix(1.00, 0.00, -0.00, -1.00, 384.2, 373.6)">@</text><image xlink:href="49C8EA83C943792749A0FC52110DA743.png" width="94.00" height="29.00" transform="matrix(1.00, 0.00, -0.00, -1.00, 410.0, 399.0)"></image><text xml:space="preserve" font-family="CenturyGothic,Century Gothic" font-size="27.2" fill="#0000FF" transform="matrix(1.00, 0.00, -0.00, -1.00, 413.7, 373.6)">G</text><text xml:space="preserve" font-family="CenturyGothic,Century Gothic" font-size="27.2" fill="#0000FF" transform="matrix(1.00, 0.00, -0.00, -1.00, 437.4, 373.6)">M</text><text xml:space="preserve" font-family="CenturyGothic,Century Gothic" font-size="27.2" fill="#0000FF" transform="matrix(1.00, 0.00, -0.00, -1.00, 462.4, 373.6)">A</text><text xml:space="preserve" font-family="CenturyGothic,Century Gothic" font-size="27.2" fill="#0000FF" transform="matrix(1.00, 0.00, -0.00, -1.00, 482.5, 373.6)">I</text><text xml:space="preserve" font-family="CenturyGothic,Century Gothic" font-size="27.2" fill="#0000FF" transform="matrix(1.00, 0.00, -0.00, -1.00, 488.7, 373.6)">L</text><image xlink:href="3F710BA5BA9C31C53F3C157474DE6FFF.png" width="13.00" height="13.00" transform="matrix(1.00, 0.00, -0.00, -1.00, 499.0, 383.0)"></image><text xml:space="preserve" font-family="CenturyGothic,Century Gothic" font-size="34.0" fill="#0000FF" transform="matrix(1.00, 0.00, -0.00, -1.00, 501.2, 373.6)">.</text><image xlink:href="DFB1D95A5CA0AB37B957CFE108A94F19.png" width="76.00" height="29.00" transform="matrix(1.00, 0.00, -0.00, -1.00, 507.0, 399.0)"></image><text xml:space="preserve" font-family="CenturyGothic,Century Gothic" font-size="27.2" fill="#0000FF" transform="matrix(1.00, 0.00, -0.00, -1.00, 510.6, 373.6)">C</text><text xml:space="preserve" font-family="CenturyGothic,Century Gothic" font-size="27.2" fill="#0000FF" transform="matrix(1.00, 0.00, -0.00, -1.00, 532.7, 373.6)">O</text><text xml:space="preserve" font-family="CenturyGothic,Century Gothic" font-size="27.2" fill="#0000FF" transform="matrix(1.00, 0.00, -0.00, -1.00, 556.4, 373.6)">M</text><text xml:space="preserve" font-family="CenturyGothic,Century Gothic" font-size="34.0" fill="#000000" transform="matrix(1.00, 0.00, -0.00, -1.00, 581.4, 373.6)"> </text><g><clipPath id="clip0x7fd045d62fd0"><path d="M 130.6 369.2 L 581.4 369.2 L 581.4 372.9 L 130.6 372.9 Z M 130.6 369.2 "></path></clipPath><g clip-path="url(#clip0x7fd045d62fd0)"><path d="M 35.7 229.9 L 485.5 229.9 " fill="none" stroke="#0000FF" stroke-width="1.69" transform="matrix(1.00, 0.00, 0.00, -1.00, 95.9, 600.9)"></path></g></g><image xlink:href="../../57A638F0-EAA5-4627-BEDB-60B3E7516D27/assets/03CE8AC2452EE2C1373F2384E93FA464.png" width="17.00" height="17.00" transform="matrix(1.00, 0.00, -0.00, -1.00, 96.0, 349.0)"></image><text xml:space="preserve" font-family="ArialMT,Arial" font-size="34.0" fill="#000000" transform="matrix(1.00, 0.00, -0.00, -1.00, 99.7, 327.8)">•</text><image xlink:href="../../57A638F0-EAA5-4627-BEDB-60B3E7516D27/assets/5C0CFC8331F67BDD3BE091DB6BAD7EAC.png" width="24.00" height="33.00" transform="matrix(1.00, 0.00, -0.00, -1.00, 129.0, 356.0)"></image><text xml:space="preserve" font-family="CenturyGothic,Century Gothic" font-size="34.0" fill="#000000" transform="matrix(1.00, 0.00, -0.00, -1.00, 131.6, 326.6)">В</text><image xlink:href="AEBD11A04165B6B1894D76D73F030901.png" width="143.00" height="29.00" transform="matrix(1.00, 0.00, -0.00, -1.00, 148.0, 352.0)"></image><text xml:space="preserve" font-family="CenturyGothic,Century Gothic" font-size="27.2" fill="#000000" transform="matrix(1.00, 0.00, -0.00, -1.00, 151.1, 326.6)">Н</text><text xml:space="preserve" font-family="CenturyGothic,Century Gothic" font-size="27.2" fill="#000000" transform="matrix(1.00, 0.00, -0.00, -1.00, 169.7, 326.6)">И</text><text xml:space="preserve" font-family="CenturyGothic,Century Gothic" font-size="27.2" fill="#000000" transform="matrix(1.00, 0.00, -0.00, -1.00, 189.8, 326.6)">М</text><text xml:space="preserve" font-family="CenturyGothic,Century Gothic" font-size="27.2" fill="#000000" transform="matrix(1.00, 0.00, -0.00, -1.00, 214.8, 326.6)">А</text><text xml:space="preserve" font-family="CenturyGothic,Century Gothic" font-size="27.2" fill="#000000" transform="matrix(1.00, 0.00, -0.00, -1.00, 234.9, 326.6)">Н</text><text xml:space="preserve" font-family="CenturyGothic,Century Gothic" font-size="27.2" fill="#000000" transform="matrix(1.00, 0.00, -0.00, -1.00, 253.5, 326.6)">И</text><text xml:space="preserve" font-family="CenturyGothic,Century Gothic" font-size="27.2" fill="#000000" transform="matrix(1.00, 0.00, -0.00, -1.00, 273.6, 326.6)">Е</text><image xlink:href="D5C72DCC309CB4C9DF365D8DAFBDE595.png" width="14.00" height="17.00" transform="matrix(1.00, 0.00, -0.00, -1.00, 285.0, 337.0)"></image><text xml:space="preserve" font-family="CenturyGothic,Century Gothic" font-size="34.0" fill="#000000" transform="matrix(1.00, 0.00, -0.00, -1.00, 288.2, 326.6)">,</text><text xml:space="preserve" font-family="CenturyGothic,Century Gothic" font-size="34.0" fill="#000000" transform="matrix(1.00, 0.00, -0.00, -1.00, 297.6, 326.6)"> </text><image xlink:href="178F90164E673A0060348DA1B11E533F.png" width="219.00" height="29.00" transform="matrix(1.00, 0.00, -0.00, -1.00, 304.0, 352.0)"></image><text xml:space="preserve" font-family="CenturyGothic,Century Gothic" font-size="27.2" fill="#000000" transform="matrix(1.00, 0.00, -0.00, -1.00, 307.0, 326.6)">Г</text><text xml:space="preserve" font-family="CenturyGothic,Century Gothic" font-size="27.2" fill="#000000" transform="matrix(1.00, 0.00, -0.00, -1.00, 319.6, 326.6)">О</text><text xml:space="preserve" font-family="CenturyGothic,Century Gothic" font-size="27.2" fill="#000000" transform="matrix(1.00, 0.00, -0.00, -1.00, 343.2, 326.6)">Л</text><text xml:space="preserve" font-family="CenturyGothic,Century Gothic" font-size="27.2" fill="#000000" transform="matrix(1.00, 0.00, -0.00, -1.00, 362.3, 326.6)">О</text><text xml:space="preserve" font-family="CenturyGothic,Century Gothic" font-size="27.2" fill="#000000" transform="matrix(1.00, 0.00, -0.00, -1.00, 386.0, 326.6)">С</text><text xml:space="preserve" font-family="CenturyGothic,Century Gothic" font-size="27.2" fill="#000000" transform="matrix(1.00, 0.00, -0.00, -1.00, 408.1, 326.6)">О</text><text xml:space="preserve" font-family="CenturyGothic,Century Gothic" font-size="27.2" fill="#000000" transform="matrix(1.00, 0.00, -0.00, -1.00, 431.7, 326.6)">В</text><text xml:space="preserve" font-family="CenturyGothic,Century Gothic" font-size="27.2" fill="#000000" transform="matrix(1.00, 0.00, -0.00, -1.00, 447.4, 326.6)">А</text><text xml:space="preserve" font-family="CenturyGothic,Century Gothic" font-size="27.2" fill="#000000" transform="matrix(1.00, 0.00, -0.00, -1.00, 467.5, 326.6)">Н</text><text xml:space="preserve" font-family="CenturyGothic,Century Gothic" font-size="27.2" fill="#000000" transform="matrix(1.00, 0.00, -0.00, -1.00, 486.1, 326.6)">И</text><text xml:space="preserve" font-family="CenturyGothic,Century Gothic" font-size="27.2" fill="#000000" transform="matrix(1.00, 0.00, -0.00, -1.00, 506.2, 326.6)">Е</text><text xml:space="preserve" font-family="CenturyGothic,Century Gothic" font-size="34.0" fill="#000000" transform="matrix(1.00, 0.00, -0.00, -1.00, 520.8, 326.6)"> </text><image xlink:href="../../57A638F0-EAA5-4627-BEDB-60B3E7516D27/assets/03CE8AC2452EE2C1373F2384E93FA464.png" width="17.00" height="17.00" transform="matrix(1.00, 0.00, -0.00, -1.00, 132.0, 302.0)"></image><text xml:space="preserve" font-family="ArialMT,Arial" font-size="34.0" fill="#000000" transform="matrix(1.00, 0.00, -0.00, -1.00, 135.7, 280.8)">•</text><image xlink:href="6789E7ECECCC535A9658E53EAEB824B7.png" width="77.00" height="29.00" transform="matrix(1.00, 0.00, -0.00, -1.00, 164.0, 305.0)"></image><text xml:space="preserve" font-family="CenturyGothic,Century Gothic" font-size="27.2" fill="#0000FF" transform="matrix(1.00, 0.00, -0.00, -1.00, 167.6, 279.6)">H</text><text xml:space="preserve" font-family="CenturyGothic,Century Gothic" font-size="27.2" fill="#0000FF" transform="matrix(1.00, 0.00, -0.00, -1.00, 186.2, 279.6)">T</text><text xml:space="preserve" font-family="CenturyGothic,Century Gothic" font-size="27.2" fill="#0000FF" transform="matrix(1.00, 0.00, -0.00, -1.00, 197.7, 279.6)">T</text><text xml:space="preserve" font-family="CenturyGothic,Century Gothic" font-size="27.2" fill="#0000FF" transform="matrix(1.00, 0.00, -0.00, -1.00, 209.3, 279.6)">P</text><text xml:space="preserve" font-family="CenturyGothic,Century Gothic" font-size="27.2" fill="#0000FF" transform="matrix(1.00, 0.00, -0.00, -1.00, 225.4, 279.6)">S</text><image xlink:href="151B099A42DA9BC19FCF2D33913393CA.png" width="44.00" height="37.00" transform="matrix(1.00, 0.00, -0.00, -1.00, 237.0, 310.0)"></image><text xml:space="preserve" font-family="CenturyGothic,Century Gothic" font-size="34.0" fill="#0000FF" transform="matrix(1.00, 0.00, -0.00, -1.00, 239.0, 279.6)">:</text><text xml:space="preserve" font-family="CenturyGothic,Century Gothic" font-size="34.0" fill="#0000FF" transform="matrix(1.00, 0.00, -0.00, -1.00, 248.4, 279.6)">/</text><text xml:space="preserve" font-family="CenturyGothic,Century Gothic" font-size="34.0" fill="#0000FF" transform="matrix(1.00, 0.00, -0.00, -1.00, 263.2, 279.6)">/</text><image xlink:href="07FC18DDE28F18A51B2714ED2004BCD8.png" width="100.00" height="29.00" transform="matrix(1.00, 0.00, -0.00, -1.00, 274.0, 305.0)"></image><text xml:space="preserve" font-family="CenturyGothic,Century Gothic" font-size="27.2" fill="#0000FF" transform="matrix(1.00, 0.00, -0.00, -1.00, 278.1, 279.6)">G</text><text xml:space="preserve" font-family="CenturyGothic,Century Gothic" font-size="27.2" fill="#0000FF" transform="matrix(1.00, 0.00, -0.00, -1.00, 301.8, 279.6)">I</text><text xml:space="preserve" font-family="CenturyGothic,Century Gothic" font-size="27.2" fill="#0000FF" transform="matrix(1.00, 0.00, -0.00, -1.00, 308.0, 279.6)">T</text><text xml:space="preserve" font-family="CenturyGothic,Century Gothic" font-size="27.2" fill="#0000FF" transform="matrix(1.00, 0.00, -0.00, -1.00, 319.6, 279.6)">H</text><text xml:space="preserve" font-family="CenturyGothic,Century Gothic" font-size="27.2" fill="#0000FF" transform="matrix(1.00, 0.00, -0.00, -1.00, 338.1, 279.6)">U</text><text xml:space="preserve" font-family="CenturyGothic,Century Gothic" font-size="27.2" fill="#0000FF" transform="matrix(1.00, 0.00, -0.00, -1.00, 356.0, 279.6)">B</text><image xlink:href="10044AC99C0AC6892B5647A50D3F5A8B.png" width="13.00" height="13.00" transform="matrix(1.00, 0.00, -0.00, -1.00, 369.0, 289.0)"></image><text xml:space="preserve" font-family="CenturyGothic,Century Gothic" font-size="34.0" fill="#0000FF" transform="matrix(1.00, 0.00, -0.00, -1.00, 371.6, 279.6)">.</text><image xlink:href="58F0A6C22D7CBBEADA11CA47BA7F0814.png" width="77.00" height="29.00" transform="matrix(1.00, 0.00, -0.00, -1.00, 377.0, 305.0)"></image><text xml:space="preserve" font-family="CenturyGothic,Century Gothic" font-size="27.2" fill="#0000FF" transform="matrix(1.00, 0.00, -0.00, -1.00, 381.0, 279.6)">C</text><text xml:space="preserve" font-family="CenturyGothic,Century Gothic" font-size="27.2" fill="#0000FF" transform="matrix(1.00, 0.00, -0.00, -1.00, 403.1, 279.6)">O</text><text xml:space="preserve" font-family="CenturyGothic,Century Gothic" font-size="27.2" fill="#0000FF" transform="matrix(1.00, 0.00, -0.00, -1.00, 426.7, 279.6)">M</text><image xlink:href="F53FB92EA3CD5AA2516E579CD536EAE8.png" width="22.00" height="37.00" transform="matrix(1.00, 0.00, -0.00, -1.00, 447.0, 310.0)"></image><text xml:space="preserve" font-family="CenturyGothic,Century Gothic" font-size="34.0" fill="#0000FF" transform="matrix(1.00, 0.00, -0.00, -1.00, 451.7, 279.6)">/</text><image xlink:href="59DDA4A40426849C6ADE128BA0374EA6.png" width="127.00" height="29.00" transform="matrix(1.00, 0.00, -0.00, -1.00, 462.0, 305.0)"></image><text xml:space="preserve" font-family="CenturyGothic,Century Gothic" font-size="27.2" fill="#0000FF" transform="matrix(1.00, 0.00, -0.00, -1.00, 466.6, 279.6)">V</text><text xml:space="preserve" font-family="CenturyGothic,Century Gothic" font-size="27.2" fill="#0000FF" transform="matrix(1.00, 0.00, -0.00, -1.00, 485.7, 279.6)">E</text><text xml:space="preserve" font-family="CenturyGothic,Century Gothic" font-size="27.2" fill="#0000FF" transform="matrix(1.00, 0.00, -0.00, -1.00, 500.3, 279.6)">N</text><text xml:space="preserve" font-family="CenturyGothic,Century Gothic" font-size="27.2" fill="#0000FF" transform="matrix(1.00, 0.00, -0.00, -1.00, 520.4, 279.6)">T</text><text xml:space="preserve" font-family="CenturyGothic,Century Gothic" font-size="27.2" fill="#0000FF" transform="matrix(1.00, 0.00, -0.00, -1.00, 532.0, 279.6)">U</text><text xml:space="preserve" font-family="CenturyGothic,Century Gothic" font-size="27.2" fill="#0000FF" transform="matrix(1.00, 0.00, -0.00, -1.00, 549.8, 279.6)">R</text><text xml:space="preserve" font-family="CenturyGothic,Century Gothic" font-size="27.2" fill="#0000FF" transform="matrix(1.00, 0.00, -0.00, -1.00, 566.3, 279.6)">A</text><image xlink:href="08B1DE1FC3EF78ED8A260B0AC10A2113.png" width="22.00" height="37.00" transform="matrix(1.00, 0.00, -0.00, -1.00, 582.0, 310.0)"></image><text xml:space="preserve" font-family="CenturyGothic,Century Gothic" font-size="34.0" fill="#0000FF" transform="matrix(1.00, 0.00, -0.00, -1.00, 586.4, 279.6)">/</text><image xlink:href="58E77E0A9EE8480351D73347683550A9.png" width="95.00" height="29.00" transform="matrix(1.00, 0.00, -0.00, -1.00, 598.0, 305.0)"></image><text xml:space="preserve" font-family="CenturyGothic,Century Gothic" font-size="27.2" fill="#0000FF" transform="matrix(1.00, 0.00, -0.00, -1.00, 601.3, 279.6)">I</text><text xml:space="preserve" font-family="CenturyGothic,Century Gothic" font-size="27.2" fill="#0000FF" transform="matrix(1.00, 0.00, -0.00, -1.00, 607.4, 279.6)">M</text><text xml:space="preserve" font-family="CenturyGothic,Century Gothic" font-size="27.2" fill="#0000FF" transform="matrix(1.00, 0.00, -0.00, -1.00, 632.4, 279.6)">A</text><text xml:space="preserve" font-family="CenturyGothic,Century Gothic" font-size="27.2" fill="#0000FF" transform="matrix(1.00, 0.00, -0.00, -1.00, 652.5, 279.6)">G</text><text xml:space="preserve" font-family="CenturyGothic,Century Gothic" font-size="27.2" fill="#0000FF" transform="matrix(1.00, 0.00, -0.00, -1.00, 676.3, 279.6)">E</text><image xlink:href="DCF9C7A16811BD45C942060314907400.png" width="27.00" height="11.00" transform="matrix(1.00, 0.00, -0.00, -1.00, 685.0, 283.0)"></image><text xml:space="preserve" font-family="CenturyGothic,Century Gothic" font-size="34.0" fill="#0000FF" transform="matrix(1.00, 0.00, -0.00, -1.00, 690.8, 279.6)">_</text><image xlink:href="45FC67292A152659A2ABA7F8B8B130E2.png" width="142.00" height="29.00" transform="matrix(1.00, 0.00, -0.00, -1.00, 704.0, 305.0)"></image><text xml:space="preserve" font-family="CenturyGothic,Century Gothic" font-size="27.2" fill="#0000FF" transform="matrix(1.00, 0.00, -0.00, -1.00, 707.8, 279.6)">C</text><text xml:space="preserve" font-family="CenturyGothic,Century Gothic" font-size="27.2" fill="#0000FF" transform="matrix(1.00, 0.00, -0.00, -1.00, 729.9, 279.6)">O</text><text xml:space="preserve" font-family="CenturyGothic,Century Gothic" font-size="27.2" fill="#0000FF" transform="matrix(1.00, 0.00, -0.00, -1.00, 753.6, 279.6)">M</text><text xml:space="preserve" font-family="CenturyGothic,Century Gothic" font-size="27.2" fill="#0000FF" transform="matrix(1.00, 0.00, -0.00, -1.00, 778.6, 279.6)">P</text><text xml:space="preserve" font-family="CenturyGothic,Century Gothic" font-size="27.2" fill="#0000FF" transform="matrix(1.00, 0.00, -0.00, -1.00, 792.7, 279.6)">A</text><text xml:space="preserve" font-family="CenturyGothic,Century Gothic" font-size="27.2" fill="#0000FF" transform="matrix(1.00, 0.00, -0.00, -1.00, 812.8, 279.6)">R</text><text xml:space="preserve" font-family="CenturyGothic,Century Gothic" font-size="27.2" fill="#0000FF" transform="matrix(1.00, 0.00, -0.00, -1.00, 829.3, 279.6)">E</text><g><clipPath id="clip0x7fd029e65a10"><path d="M 166.6 275.2 L 843.9 275.2 L 843.9 278.9 L 166.6 278.9 Z M 166.6 275.2 "></path></clipPath><g clip-path="url(#clip0x7fd029e65a10)"><path d="M 71.7 323.9 L 748.0 323.9 " fill="none" stroke="#0000FF" stroke-width="1.69" transform="matrix(1.00, 0.00, 0.00, -1.00, 95.9, 600.9)"></path></g></g><text xml:space="preserve" font-family="CenturyGothic-Bold,Century Gothic" font-weight="bold" font-size="28.0" fill="#525252" transform="matrix(1.00, 0.00, -0.00, -1.00, 933.5, 65.6)">3</text><text xml:space="preserve" font-family="CenturyGothic-Bold,Century Gothic" font-weight="bold" font-size="28.0" fill="#525252" transform="matrix(1.00, 0.00, -0.00, -1.00, 949.2, 65.6)">5</text></g></svg>