<?xml version="1.0" encoding="UTF-8" standalone="no"?><svg xmlns="http://www.w3.org/2000/svg" xmlns:xlink="http://www.w3.org/1999/xlink" clip-rule="evenodd" stroke-miterlimit="10" viewBox="0 0 274 47"><desc>SVG generated by Keynote</desc><defs></defs><g transform="matrix(1.00, 0.00, -0.00, -1.00, 0.0, 47.0)"><image xlink:href="../../57A638F0-EAA5-4627-BEDB-60B3E7516D27/assets/03CE8AC2452EE2C1373F2384E93FA464.png" width="17.00" height="17.00" transform="matrix(1.00, 0.00, -0.00, -1.00, 1.0, 32.0)"></image><text xml:space="preserve" font-family="ArialMT,Arial" font-size="34.0" fill="#000000" transform="matrix(1.00, 0.00, -0.00, -1.00, 4.7, 10.8)">•</text><image xlink:href="../../C8EFB037-F3CD-40C2-A107-52365DCF3B0D/assets/DCBCE66108CF1D1E1562B8099C4C1FF9.png" width="26.00" height="33.00" transform="matrix(1.00, 0.00, -0.00, -1.00, 34.0, 39.0)"></image><text xml:space="preserve" font-family="CenturyGothic,Century Gothic" font-size="34.0" fill="#000000" transform="matrix(1.00, 0.00, -0.00, -1.00, 36.6, 9.6)">Н</text><image xlink:href="D982711E0B93E7298E5518572AD2BA70.png" width="82.00" height="29.00" transform="matrix(1.00, 0.00, -0.00, -1.00, 55.0, 35.0)"></image><text xml:space="preserve" font-family="CenturyGothic,Century Gothic" font-size="27.2" fill="#000000" transform="matrix(1.00, 0.00, -0.00, -1.00, 59.8, 9.6)">У</text><text xml:space="preserve" font-family="CenturyGothic,Century Gothic" font-size="27.2" fill="#000000" transform="matrix(1.00, 0.00, -0.00, -1.00, 77.4, 9.6)">Ж</text><text xml:space="preserve" font-family="CenturyGothic,Century Gothic" font-size="27.2" fill="#000000" transform="matrix(1.00, 0.00, -0.00, -1.00, 102.8, 9.6)">Е</text><text xml:space="preserve" font-family="CenturyGothic,Century Gothic" font-size="27.2" fill="#000000" transform="matrix(1.00, 0.00, -0.00, -1.00, 117.4, 9.6)">Н</text><text xml:space="preserve" font-family="CenturyGothic,Century Gothic" font-size="34.0" fill="#000000" transform="matrix(1.00, 0.00, -0.00, -1.00, 136.0, 9.6)"> </text><image xlink:href="0A9B0610CC417FAAA6117DCC3ED986E3.png" width="45.00" height="29.00" transform="matrix(1.00, 0.00, -0.00, -1.00, 141.0, 35.0)"></image><text xml:space="preserve" font-family="CenturyGothic,Century Gothic" font-size="27.2" fill="#000000" transform="matrix(1.00, 0.00, -0.00, -1.00, 145.4, 9.6)">Л</text><text xml:space="preserve" font-family="CenturyGothic,Century Gothic" font-size="27.2" fill="#000000" transform="matrix(1.00, 0.00, -0.00, -1.00, 164.5, 9.6)">И</text><text xml:space="preserve" font-family="CenturyGothic,Century Gothic" font-size="34.0" fill="#000000" transform="matrix(1.00, 0.00, -0.00, -1.00, 184.6, 9.6)"> </text><image xlink:href="2B4A024ACE950B0C2C51F87A37E4F039.png" width="67.00" height="32.00" transform="matrix(1.00, 0.00, -0.00, -1.00, 191.0, 35.0)"></image><text xml:space="preserve" font-family="CenturyGothic,Century Gothic" font-size="27.2" fill="#000000" transform="matrix(1.00, 0.00, -0.00, -1.00, 194.0, 9.6)">Ц</text><text xml:space="preserve" font-family="CenturyGothic,Century Gothic" font-size="27.2" fill="#000000" transform="matrix(1.00, 0.00, -0.00, -1.00, 213.3, 9.6)">В</text><text xml:space="preserve" font-family="CenturyGothic,Century Gothic" font-size="27.2" fill="#000000" transform="matrix(1.00, 0.00, -0.00, -1.00, 228.9, 9.6)">Е</text><text xml:space="preserve" font-family="CenturyGothic,Century Gothic" font-size="27.2" fill="#000000" transform="matrix(1.00, 0.00, -0.00, -1.00, 243.5, 9.6)">Т</text><image xlink:href="084B2CC7DB0DD50718049406AC825D86.png" width="24.00" height="34.00" transform="matrix(1.00, 0.00, -0.00, -1.00, 252.0, 40.0)"></image><text xml:space="preserve" font-family="CenturyGothic,Century Gothic" font-size="34.0" fill="#000000" transform="matrix(1.00, 0.00, -0.00, -1.00, 255.1, 9.6)">?</text></g></svg>