<?xml version="1.0" encoding="UTF-8" standalone="no"?><svg xmlns="http://www.w3.org/2000/svg" xmlns:xlink="http://www.w3.org/1999/xlink" clip-rule="evenodd" stroke-miterlimit="10" viewBox="0 0 1024 768"><desc>SVG generated by Keynote</desc><defs></defs><g transform="matrix(1.00, 0.00, -0.00, -1.00, 0.0, 768.0)"><path d="M 0.0 768.0 L 1024.0 768.0 L 1024.0 0.0 L 0.0 0.0 Z M 0.0 768.0 " fill="#FFFFFF"></path><image xlink:href="../../2228AE9C-3706-437F-8379-D21BA5B8F0CA/assets/C2129A3EE7512E75FEE2A48785F9B6A3.png" width="1033.00" height="179.00" transform="matrix(0.21, 0.00, -0.00, -0.21, 39.9, 95.6)"></image><image xlink:href="7AEC8A87A3A004C30F295B2826A0659A.png" width="598.00" height="48.00" transform="matrix(1.00, 0.00, -0.00, -1.00, 96.0, 668.0)"></image><text xml:space="preserve" font-family="CenturyGothic,Century Gothic" font-size="56.8" fill="#000000" transform="matrix(1.00, 0.00, -0.00, -1.00, 99.8, 621.7)">S</text><text xml:space="preserve" font-family="CenturyGothic,Century Gothic" font-size="56.8" fill="#000000" transform="matrix(1.00, 0.00, -0.00, -1.00, 128.1, 621.7)">T</text><text xml:space="preserve" font-family="CenturyGothic,Century Gothic" font-size="56.8" fill="#000000" transform="matrix(1.00, 0.00, -0.00, -1.00, 147.7, 621.7)">A</text><text xml:space="preserve" font-family="CenturyGothic,Century Gothic" font-size="56.8" fill="#000000" transform="matrix(1.00, 0.00, -0.00, -1.00, 185.2, 621.7)">T</text><text xml:space="preserve" font-family="CenturyGothic,Century Gothic" font-size="56.8" fill="#000000" transform="matrix(1.00, 0.00, -0.00, -1.00, 209.3, 621.7)">I</text><text xml:space="preserve" font-family="CenturyGothic,Century Gothic" font-size="56.8" fill="#000000" transform="matrix(1.00, 0.00, -0.00, -1.00, 222.2, 621.7)">S</text><text xml:space="preserve" font-family="CenturyGothic,Century Gothic" font-size="56.8" fill="#000000" transform="matrix(1.00, 0.00, -0.00, -1.00, 250.5, 621.7)">T</text><text xml:space="preserve" font-family="CenturyGothic,Century Gothic" font-size="56.8" fill="#000000" transform="matrix(1.00, 0.00, -0.00, -1.00, 274.7, 621.7)">I</text><text xml:space="preserve" font-family="CenturyGothic,Century Gothic" font-size="56.8" fill="#000000" transform="matrix(1.00, 0.00, -0.00, -1.00, 287.6, 621.7)">C</text><text xml:space="preserve" font-family="CenturyGothic,Century Gothic" font-size="56.8" fill="#000000" transform="matrix(1.00, 0.00, -0.00, -1.00, 333.8, 621.7)">A</text><text xml:space="preserve" font-family="CenturyGothic,Century Gothic" font-size="56.8" fill="#000000" transform="matrix(1.00, 0.00, -0.00, -1.00, 375.8, 621.7)">L</text><text xml:space="preserve" font-family="CenturyGothic,Century Gothic" font-size="56.8" fill="#000000" transform="matrix(1.00, 0.00, -0.00, -1.00, 402.0, 621.7)"> </text><text xml:space="preserve" font-family="CenturyGothic,Century Gothic" font-size="56.8" fill="#000000" transform="matrix(1.00, 0.00, -0.00, -1.00, 417.8, 621.7)">M</text><text xml:space="preserve" font-family="CenturyGothic,Century Gothic" font-size="56.8" fill="#000000" transform="matrix(1.00, 0.00, -0.00, -1.00, 470.0, 621.7)">O</text><text xml:space="preserve" font-family="CenturyGothic,Century Gothic" font-size="56.8" fill="#000000" transform="matrix(1.00, 0.00, -0.00, -1.00, 519.4, 621.7)">M</text><text xml:space="preserve" font-family="CenturyGothic,Century Gothic" font-size="56.8" fill="#000000" transform="matrix(1.00, 0.00, -0.00, -1.00, 571.6, 621.7)">E</text><text xml:space="preserve" font-family="CenturyGothic,Century Gothic" font-size="56.8" fill="#000000" transform="matrix(1.00, 0.00, -0.00, -1.00, 602.1, 621.7)">N</text><text xml:space="preserve" font-family="CenturyGothic,Century Gothic" font-size="56.8" fill="#000000" transform="matrix(1.00, 0.00, -0.00, -1.00, 644.1, 621.7)">T</text><text xml:space="preserve" font-family="CenturyGothic,Century Gothic" font-size="56.8" fill="#000000" transform="matrix(1.00, 0.00, -0.00, -1.00, 668.3, 621.7)">S</text><image xlink:href="../../57A638F0-EAA5-4627-BEDB-60B3E7516D27/assets/03CE8AC2452EE2C1373F2384E93FA464.png" width="17.00" height="17.00" transform="matrix(1.00, 0.00, -0.00, -1.00, 96.0, 490.0)"></image><text xml:space="preserve" font-family="ArialMT,Arial" font-size="34.0" fill="#000000" transform="matrix(1.00, 0.00, -0.00, -1.00, 99.7, 468.8)">•</text><image xlink:href="../../C8EFB037-F3CD-40C2-A107-52365DCF3B0D/assets/967CC21FC36C7F8FB8AD94828507F8B0.png" width="33.00" height="35.00" transform="matrix(1.00, 0.00, -0.00, -1.00, 128.0, 498.0)"></image><text xml:space="preserve" font-family="CenturyGothic,Century Gothic" font-size="34.0" fill="#000000" transform="matrix(1.00, 0.00, -0.00, -1.00, 131.6, 467.6)">С</text><image xlink:href="C60A76D19DD0A64FCEEAC53BCD4A419F.png" width="231.00" height="33.00" transform="matrix(1.00, 0.00, -0.00, -1.00, 154.0, 497.0)"></image><text xml:space="preserve" font-family="CenturyGothic,Century Gothic" font-size="27.2" fill="#000000" transform="matrix(1.00, 0.00, -0.00, -1.00, 159.2, 467.6)">Т</text><text xml:space="preserve" font-family="CenturyGothic,Century Gothic" font-size="27.2" fill="#000000" transform="matrix(1.00, 0.00, -0.00, -1.00, 170.8, 467.6)">А</text><text xml:space="preserve" font-family="CenturyGothic,Century Gothic" font-size="27.2" fill="#000000" transform="matrix(1.00, 0.00, -0.00, -1.00, 190.9, 467.6)">Т</text><text xml:space="preserve" font-family="CenturyGothic,Century Gothic" font-size="27.2" fill="#000000" transform="matrix(1.00, 0.00, -0.00, -1.00, 202.5, 467.6)">И</text><text xml:space="preserve" font-family="CenturyGothic,Century Gothic" font-size="27.2" fill="#000000" transform="matrix(1.00, 0.00, -0.00, -1.00, 222.6, 467.6)">С</text><text xml:space="preserve" font-family="CenturyGothic,Century Gothic" font-size="27.2" fill="#000000" transform="matrix(1.00, 0.00, -0.00, -1.00, 244.7, 467.6)">Т</text><text xml:space="preserve" font-family="CenturyGothic,Century Gothic" font-size="27.2" fill="#000000" transform="matrix(1.00, 0.00, -0.00, -1.00, 256.3, 467.6)">И</text><text xml:space="preserve" font-family="CenturyGothic,Century Gothic" font-size="27.2" fill="#000000" transform="matrix(1.00, 0.00, -0.00, -1.00, 276.4, 467.6)">Ч</text><text xml:space="preserve" font-family="CenturyGothic,Century Gothic" font-size="27.2" fill="#000000" transform="matrix(1.00, 0.00, -0.00, -1.00, 291.1, 467.6)">Е</text><text xml:space="preserve" font-family="CenturyGothic,Century Gothic" font-size="27.2" fill="#000000" transform="matrix(1.00, 0.00, -0.00, -1.00, 305.7, 467.6)">С</text><text xml:space="preserve" font-family="CenturyGothic,Century Gothic" font-size="27.2" fill="#000000" transform="matrix(1.00, 0.00, -0.00, -1.00, 327.8, 467.6)">К</text><text xml:space="preserve" font-family="CenturyGothic,Century Gothic" font-size="27.2" fill="#000000" transform="matrix(1.00, 0.00, -0.00, -1.00, 343.8, 467.6)">И</text><text xml:space="preserve" font-family="CenturyGothic,Century Gothic" font-size="27.2" fill="#000000" transform="matrix(1.00, 0.00, -0.00, -1.00, 363.9, 467.6)">Й</text><text xml:space="preserve" font-family="CenturyGothic,Century Gothic" font-size="34.0" fill="#000000" transform="matrix(1.00, 0.00, -0.00, -1.00, 384.1, 467.6)"> </text><image xlink:href="9ADDEEFC91CC08C8892B9D9BC7B9E405.png" width="125.00" height="29.00" transform="matrix(1.00, 0.00, -0.00, -1.00, 390.0, 493.0)"></image><text xml:space="preserve" font-family="CenturyGothic,Century Gothic" font-size="27.2" fill="#000000" transform="matrix(1.00, 0.00, -0.00, -1.00, 393.5, 467.6)">М</text><text xml:space="preserve" font-family="CenturyGothic,Century Gothic" font-size="27.2" fill="#000000" transform="matrix(1.00, 0.00, -0.00, -1.00, 418.5, 467.6)">О</text><text xml:space="preserve" font-family="CenturyGothic,Century Gothic" font-size="27.2" fill="#000000" transform="matrix(1.00, 0.00, -0.00, -1.00, 442.2, 467.6)">М</text><text xml:space="preserve" font-family="CenturyGothic,Century Gothic" font-size="27.2" fill="#000000" transform="matrix(1.00, 0.00, -0.00, -1.00, 467.2, 467.6)">Е</text><text xml:space="preserve" font-family="CenturyGothic,Century Gothic" font-size="27.2" fill="#000000" transform="matrix(1.00, 0.00, -0.00, -1.00, 481.7, 467.6)">Н</text><text xml:space="preserve" font-family="CenturyGothic,Century Gothic" font-size="27.2" fill="#000000" transform="matrix(1.00, 0.00, -0.00, -1.00, 500.3, 467.6)">Т</text><text xml:space="preserve" font-family="CenturyGothic,Century Gothic" font-size="34.0" fill="#000000" transform="matrix(1.00, 0.00, -0.00, -1.00, 511.9, 467.6)"> </text><image xlink:href="../../57A638F0-EAA5-4627-BEDB-60B3E7516D27/assets/03CE8AC2452EE2C1373F2384E93FA464.png" width="17.00" height="17.00" transform="matrix(1.00, 0.00, -0.00, -1.00, 132.0, 443.0)"></image><text xml:space="preserve" font-family="ArialMT,Arial" font-size="34.0" fill="#000000" transform="matrix(1.00, 0.00, -0.00, -1.00, 135.7, 421.8)">•</text><image xlink:href="../../C8EFB037-F3CD-40C2-A107-52365DCF3B0D/assets/967CC21FC36C7F8FB8AD94828507F8B0.png" width="33.00" height="35.00" transform="matrix(1.00, 0.00, -0.00, -1.00, 164.0, 451.0)"></image><text xml:space="preserve" font-family="CenturyGothic,Century Gothic" font-size="34.0" fill="#000000" transform="matrix(1.00, 0.00, -0.00, -1.00, 167.6, 420.6)">C</text><image xlink:href="08749EB319BF7928C7381CB9BDF42FCF.png" width="118.00" height="29.00" transform="matrix(1.00, 0.00, -0.00, -1.00, 192.0, 446.0)"></image><text xml:space="preserve" font-family="CenturyGothic,Century Gothic" font-size="27.2" fill="#000000" transform="matrix(1.00, 0.00, -0.00, -1.00, 195.2, 420.6)">E</text><text xml:space="preserve" font-family="CenturyGothic,Century Gothic" font-size="27.2" fill="#000000" transform="matrix(1.00, 0.00, -0.00, -1.00, 209.8, 420.6)">N</text><text xml:space="preserve" font-family="CenturyGothic,Century Gothic" font-size="27.2" fill="#000000" transform="matrix(1.00, 0.00, -0.00, -1.00, 229.9, 420.6)">T</text><text xml:space="preserve" font-family="CenturyGothic,Century Gothic" font-size="27.2" fill="#000000" transform="matrix(1.00, 0.00, -0.00, -1.00, 241.5, 420.6)">R</text><text xml:space="preserve" font-family="CenturyGothic,Century Gothic" font-size="27.2" fill="#000000" transform="matrix(1.00, 0.00, -0.00, -1.00, 258.0, 420.6)">O</text><text xml:space="preserve" font-family="CenturyGothic,Century Gothic" font-size="27.2" fill="#000000" transform="matrix(1.00, 0.00, -0.00, -1.00, 281.7, 420.6)">I</text><text xml:space="preserve" font-family="CenturyGothic,Century Gothic" font-size="27.2" fill="#000000" transform="matrix(1.00, 0.00, -0.00, -1.00, 287.8, 420.6)">D</text><image xlink:href="1B2587D58B81400DC015C877E2D97558.png" width="35.00" height="40.00" transform="matrix(1.00, 0.00, -0.00, -1.00, 306.0, 450.0)"></image><text xml:space="preserve" font-family="CenturyGothic,Century Gothic" font-size="34.0" fill="#000000" transform="matrix(1.00, 0.00, -0.00, -1.00, 308.0, 420.6)">:</text><text xml:space="preserve" font-family="CenturyGothic,Century Gothic" font-size="34.0" fill="#000000" transform="matrix(1.00, 0.00, -0.00, -1.00, 317.5, 420.6)"> </text><text xml:space="preserve" font-family="CenturyGothic,Century Gothic" font-size="34.0" fill="#000000" transform="matrix(1.00, 0.00, -0.00, -1.00, 326.9, 420.6)">{</text><text xml:space="preserve" font-family="CenturyGothic,Century Gothic" font-size="34.0" fill="#000000" transform="matrix(1.00, 0.00, -0.00, -1.00, 338.8, 420.6)"> </text><image xlink:href="FFCCFD6DD274DEE8770B4D5CA1E49032.png" width="23.00" height="29.00" transform="matrix(1.00, 0.00, -0.00, -1.00, 344.0, 446.0)"></image><text xml:space="preserve" font-family="CenturyGothic,Century Gothic" font-size="27.2" fill="#000000" transform="matrix(1.00, 0.00, -0.00, -1.00, 348.2, 420.6)">X</text><image xlink:href="55C0ED4FDC78E8D474E69F150B1D0082.png" width="14.00" height="17.00" transform="matrix(1.00, 0.00, -0.00, -1.00, 361.0, 431.0)"></image><text xml:space="preserve" font-family="CenturyGothic,Century Gothic" font-size="34.0" fill="#000000" transform="matrix(1.00, 0.00, -0.00, -1.00, 364.8, 420.6)">,</text><text xml:space="preserve" font-family="CenturyGothic,Century Gothic" font-size="34.0" fill="#000000" transform="matrix(1.00, 0.00, -0.00, -1.00, 374.2, 420.6)"> </text><image xlink:href="E38E82D2FB6AD4B5EA070382FFDB452E.png" width="23.00" height="29.00" transform="matrix(1.00, 0.00, -0.00, -1.00, 379.0, 446.0)"></image><text xml:space="preserve" font-family="CenturyGothic,Century Gothic" font-size="27.2" fill="#000000" transform="matrix(1.00, 0.00, -0.00, -1.00, 383.6, 420.6)">Y</text><image xlink:href="0338D1568E379E82899589693069592C.png" width="100.00" height="40.00" transform="matrix(1.00, 0.00, -0.00, -1.00, 405.0, 450.0)"></image><text xml:space="preserve" font-family="CenturyGothic,Century Gothic" font-size="34.0" fill="#000000" transform="matrix(1.00, 0.00, -0.00, -1.00, 399.7, 420.6)"> </text><text xml:space="preserve" font-family="CenturyGothic,Century Gothic" font-size="34.0" fill="#000000" transform="matrix(1.00, 0.00, -0.00, -1.00, 409.1, 420.6)">}</text><text xml:space="preserve" font-family="CenturyGothic,Century Gothic" font-size="34.0" fill="#000000" transform="matrix(1.00, 0.00, -0.00, -1.00, 421.1, 420.6)"> </text><text xml:space="preserve" font-family="CenturyGothic,Century Gothic" font-size="34.0" fill="#000000" transform="matrix(1.00, 0.00, -0.00, -1.00, 430.5, 420.6)">=</text><text xml:space="preserve" font-family="CenturyGothic,Century Gothic" font-size="34.0" fill="#000000" transform="matrix(1.00, 0.00, -0.00, -1.00, 451.1, 420.6)"> </text><text xml:space="preserve" font-family="CenturyGothic,Century Gothic" font-size="34.0" fill="#000000" transform="matrix(1.00, 0.00, -0.00, -1.00, 460.5, 420.6)">{</text><text xml:space="preserve" font-family="CenturyGothic,Century Gothic" font-size="34.0" fill="#000000" transform="matrix(1.00, 0.00, -0.00, -1.00, 472.4, 420.6)">M</text><image xlink:href="9F1FEB9BE479F10BCA7E62AB7880592C.png" width="31.00" height="26.00" transform="matrix(1.00, 0.00, -0.00, -1.00, 501.0, 440.0)"></image><text xml:space="preserve" font-family="CenturyGothic,Century Gothic" font-size="22.7" fill="#000000" transform="matrix(1.00, 0.00, -0.00, -1.00, 503.7, 418.1)">1</text><text xml:space="preserve" font-family="CenturyGothic,Century Gothic" font-size="22.7" fill="#000000" transform="matrix(1.00, 0.00, -0.00, -1.00, 516.2, 418.1)">0</text><image xlink:href="93E01B711320B4778660760D0E8501C5.png" width="53.00" height="37.00" transform="matrix(1.00, 0.00, -0.00, -1.00, 524.0, 451.0)"></image><text xml:space="preserve" font-family="CenturyGothic,Century Gothic" font-size="34.0" fill="#000000" transform="matrix(1.00, 0.00, -0.00, -1.00, 528.8, 420.6)">/</text><text xml:space="preserve" font-family="CenturyGothic,Century Gothic" font-size="34.0" fill="#000000" transform="matrix(1.00, 0.00, -0.00, -1.00, 543.6, 420.6)">M</text><image xlink:href="5142925388D5722479EAD9D93B4DFA3A.png" width="33.00" height="26.00" transform="matrix(1.00, 0.00, -0.00, -1.00, 570.0, 440.0)"></image><text xml:space="preserve" font-family="CenturyGothic,Century Gothic" font-size="22.7" fill="#000000" transform="matrix(1.00, 0.00, -0.00, -1.00, 574.9, 418.1)">0</text><text xml:space="preserve" font-family="CenturyGothic,Century Gothic" font-size="22.7" fill="#000000" transform="matrix(1.00, 0.00, -0.00, -1.00, 587.5, 418.1)">0</text><image xlink:href="4FFDAAF72B21DFCB822A1C6C24121921.png" width="55.00" height="36.00" transform="matrix(1.00, 0.00, -0.00, -1.00, 597.0, 450.0)"></image><text xml:space="preserve" font-family="CenturyGothic,Century Gothic" font-size="34.0" fill="#000000" transform="matrix(1.00, 0.00, -0.00, -1.00, 600.0, 420.6)">,</text><text xml:space="preserve" font-family="CenturyGothic,Century Gothic" font-size="34.0" fill="#000000" transform="matrix(1.00, 0.00, -0.00, -1.00, 609.4, 420.6)"> </text><text xml:space="preserve" font-family="CenturyGothic,Century Gothic" font-size="34.0" fill="#000000" transform="matrix(1.00, 0.00, -0.00, -1.00, 618.8, 420.6)">M</text><image xlink:href="96A03FE9A4F7B2FD2706608A79DC1E50.png" width="29.00" height="26.00" transform="matrix(1.00, 0.00, -0.00, -1.00, 645.0, 440.0)"></image><text xml:space="preserve" font-family="CenturyGothic,Century Gothic" font-size="22.7" fill="#000000" transform="matrix(1.00, 0.00, -0.00, -1.00, 650.1, 418.1)">0</text><text xml:space="preserve" font-family="CenturyGothic,Century Gothic" font-size="22.7" fill="#000000" transform="matrix(1.00, 0.00, -0.00, -1.00, 662.7, 418.1)">1</text><image xlink:href="83161962002931F6EE059D125E0E0935.png" width="52.00" height="37.00" transform="matrix(1.00, 0.00, -0.00, -1.00, 671.0, 451.0)"></image><text xml:space="preserve" font-family="CenturyGothic,Century Gothic" font-size="34.0" fill="#000000" transform="matrix(1.00, 0.00, -0.00, -1.00, 675.2, 420.6)">/</text><text xml:space="preserve" font-family="CenturyGothic,Century Gothic" font-size="34.0" fill="#000000" transform="matrix(1.00, 0.00, -0.00, -1.00, 690.1, 420.6)">M</text><image xlink:href="CEECB6BCFAB3A68A6057B0F1851DBADB.png" width="32.00" height="26.00" transform="matrix(1.00, 0.00, -0.00, -1.00, 717.0, 440.0)"></image><text xml:space="preserve" font-family="CenturyGothic,Century Gothic" font-size="22.7" fill="#000000" transform="matrix(1.00, 0.00, -0.00, -1.00, 721.3, 418.1)">0</text><text xml:space="preserve" font-family="CenturyGothic,Century Gothic" font-size="22.7" fill="#000000" transform="matrix(1.00, 0.00, -0.00, -1.00, 733.9, 418.1)">0</text><image xlink:href="26BDD65C9696997A6CD900874150AFFB.png" width="19.00" height="40.00" transform="matrix(1.00, 0.00, -0.00, -1.00, 751.0, 450.0)"></image><text xml:space="preserve" font-family="CenturyGothic,Century Gothic" font-size="34.0" fill="#000000" transform="matrix(1.00, 0.00, -0.00, -1.00, 746.4, 420.6)"> </text><text xml:space="preserve" font-family="CenturyGothic,Century Gothic" font-size="34.0" fill="#000000" transform="matrix(1.00, 0.00, -0.00, -1.00, 755.8, 420.6)">}</text><text xml:space="preserve" font-family="CenturyGothic,Century Gothic" font-size="34.0" fill="#000000" transform="matrix(1.00, 0.00, -0.00, -1.00, 767.8, 420.6)"> </text><image xlink:href="../../57A638F0-EAA5-4627-BEDB-60B3E7516D27/assets/03CE8AC2452EE2C1373F2384E93FA464.png" width="17.00" height="17.00" transform="matrix(1.00, 0.00, -0.00, -1.00, 96.0, 396.0)"></image><text xml:space="preserve" font-family="ArialMT,Arial" font-size="34.0" fill="#000000" transform="matrix(1.00, 0.00, -0.00, -1.00, 99.7, 374.8)">•</text><image xlink:href="../../C8EFB037-F3CD-40C2-A107-52365DCF3B0D/assets/967CC21FC36C7F8FB8AD94828507F8B0.png" width="33.00" height="35.00" transform="matrix(1.00, 0.00, -0.00, -1.00, 128.0, 404.0)"></image><text xml:space="preserve" font-family="CenturyGothic,Century Gothic" font-size="34.0" fill="#000000" transform="matrix(1.00, 0.00, -0.00, -1.00, 131.6, 373.6)">C</text><image xlink:href="4C631524CF523FE02756946A3783C3BC.png" width="101.00" height="29.00" transform="matrix(1.00, 0.00, -0.00, -1.00, 156.0, 399.0)"></image><text xml:space="preserve" font-family="CenturyGothic,Century Gothic" font-size="27.2" fill="#000000" transform="matrix(1.00, 0.00, -0.00, -1.00, 159.2, 373.6)">E</text><text xml:space="preserve" font-family="CenturyGothic,Century Gothic" font-size="27.2" fill="#000000" transform="matrix(1.00, 0.00, -0.00, -1.00, 173.8, 373.6)">N</text><text xml:space="preserve" font-family="CenturyGothic,Century Gothic" font-size="27.2" fill="#000000" transform="matrix(1.00, 0.00, -0.00, -1.00, 193.9, 373.6)">T</text><text xml:space="preserve" font-family="CenturyGothic,Century Gothic" font-size="27.2" fill="#000000" transform="matrix(1.00, 0.00, -0.00, -1.00, 205.5, 373.6)">R</text><text xml:space="preserve" font-family="CenturyGothic,Century Gothic" font-size="27.2" fill="#000000" transform="matrix(1.00, 0.00, -0.00, -1.00, 222.0, 373.6)">A</text><text xml:space="preserve" font-family="CenturyGothic,Century Gothic" font-size="27.2" fill="#000000" transform="matrix(1.00, 0.00, -0.00, -1.00, 242.2, 373.6)">L</text><text xml:space="preserve" font-family="CenturyGothic,Century Gothic" font-size="34.0" fill="#000000" transform="matrix(1.00, 0.00, -0.00, -1.00, 254.7, 373.6)"> </text><image xlink:href="444B355D04641714A69D0FC06826C560.png" width="127.00" height="29.00" transform="matrix(1.00, 0.00, -0.00, -1.00, 260.0, 399.0)"></image><text xml:space="preserve" font-family="CenturyGothic,Century Gothic" font-size="27.2" fill="#000000" transform="matrix(1.00, 0.00, -0.00, -1.00, 264.1, 373.6)">M</text><text xml:space="preserve" font-family="CenturyGothic,Century Gothic" font-size="27.2" fill="#000000" transform="matrix(1.00, 0.00, -0.00, -1.00, 289.1, 373.6)">O</text><text xml:space="preserve" font-family="CenturyGothic,Century Gothic" font-size="27.2" fill="#000000" transform="matrix(1.00, 0.00, -0.00, -1.00, 312.7, 373.6)">M</text><text xml:space="preserve" font-family="CenturyGothic,Century Gothic" font-size="27.2" fill="#000000" transform="matrix(1.00, 0.00, -0.00, -1.00, 337.7, 373.6)">E</text><text xml:space="preserve" font-family="CenturyGothic,Century Gothic" font-size="27.2" fill="#000000" transform="matrix(1.00, 0.00, -0.00, -1.00, 352.3, 373.6)">N</text><text xml:space="preserve" font-family="CenturyGothic,Century Gothic" font-size="27.2" fill="#000000" transform="matrix(1.00, 0.00, -0.00, -1.00, 372.4, 373.6)">T</text><text xml:space="preserve" font-family="CenturyGothic,Century Gothic" font-size="34.0" fill="#000000" transform="matrix(1.00, 0.00, -0.00, -1.00, 384.0, 373.6)"> </text><image xlink:href="../../57A638F0-EAA5-4627-BEDB-60B3E7516D27/assets/03CE8AC2452EE2C1373F2384E93FA464.png" width="17.00" height="17.00" transform="matrix(1.00, 0.00, -0.00, -1.00, 132.0, 349.0)"></image><text xml:space="preserve" font-family="ArialMT,Arial" font-size="34.0" fill="#000000" transform="matrix(1.00, 0.00, -0.00, -1.00, 135.7, 327.8)">•</text><image xlink:href="F699920D744669526D60FA39B36C1FD9.png" width="22.00" height="33.00" transform="matrix(1.00, 0.00, -0.00, -1.00, 163.0, 356.0)"></image><text xml:space="preserve" font-family="CenturyGothic,Century Gothic" font-size="34.0" fill="#000000" transform="matrix(1.00, 0.00, -0.00, -1.00, 167.6, 326.6)">T</text><image xlink:href="A939D473347B95D0755A64C3BB140D47.png" width="166.00" height="29.00" transform="matrix(1.00, 0.00, -0.00, -1.00, 179.0, 352.0)"></image><text xml:space="preserve" font-family="CenturyGothic,Century Gothic" font-size="27.2" fill="#000000" transform="matrix(1.00, 0.00, -0.00, -1.00, 182.1, 326.6)">R</text><text xml:space="preserve" font-family="CenturyGothic,Century Gothic" font-size="27.2" fill="#000000" transform="matrix(1.00, 0.00, -0.00, -1.00, 198.6, 326.6)">A</text><text xml:space="preserve" font-family="CenturyGothic,Century Gothic" font-size="27.2" fill="#000000" transform="matrix(1.00, 0.00, -0.00, -1.00, 218.7, 326.6)">N</text><text xml:space="preserve" font-family="CenturyGothic,Century Gothic" font-size="27.2" fill="#000000" transform="matrix(1.00, 0.00, -0.00, -1.00, 238.8, 326.6)">S</text><text xml:space="preserve" font-family="CenturyGothic,Century Gothic" font-size="27.2" fill="#000000" transform="matrix(1.00, 0.00, -0.00, -1.00, 252.3, 326.6)">L</text><text xml:space="preserve" font-family="CenturyGothic,Century Gothic" font-size="27.2" fill="#000000" transform="matrix(1.00, 0.00, -0.00, -1.00, 264.9, 326.6)">A</text><text xml:space="preserve" font-family="CenturyGothic,Century Gothic" font-size="27.2" fill="#000000" transform="matrix(1.00, 0.00, -0.00, -1.00, 282.8, 326.6)">T</text><text xml:space="preserve" font-family="CenturyGothic,Century Gothic" font-size="27.2" fill="#000000" transform="matrix(1.00, 0.00, -0.00, -1.00, 294.4, 326.6)">I</text><text xml:space="preserve" font-family="CenturyGothic,Century Gothic" font-size="27.2" fill="#000000" transform="matrix(1.00, 0.00, -0.00, -1.00, 300.5, 326.6)">O</text><text xml:space="preserve" font-family="CenturyGothic,Century Gothic" font-size="27.2" fill="#000000" transform="matrix(1.00, 0.00, -0.00, -1.00, 324.2, 326.6)">N</text><text xml:space="preserve" font-family="CenturyGothic,Century Gothic" font-size="34.0" fill="#000000" transform="matrix(1.00, 0.00, -0.00, -1.00, 344.3, 326.6)"> </text><image xlink:href="51AC77C450B24FF8174BD399FE4D3355.png" width="143.00" height="29.00" transform="matrix(1.00, 0.00, -0.00, -1.00, 350.0, 352.0)"></image><text xml:space="preserve" font-family="CenturyGothic,Century Gothic" font-size="27.2" fill="#000000" transform="matrix(1.00, 0.00, -0.00, -1.00, 353.7, 326.6)">I</text><text xml:space="preserve" font-family="CenturyGothic,Century Gothic" font-size="27.2" fill="#000000" transform="matrix(1.00, 0.00, -0.00, -1.00, 359.9, 326.6)">N</text><text xml:space="preserve" font-family="CenturyGothic,Century Gothic" font-size="27.2" fill="#000000" transform="matrix(1.00, 0.00, -0.00, -1.00, 380.0, 326.6)">V</text><text xml:space="preserve" font-family="CenturyGothic,Century Gothic" font-size="27.2" fill="#000000" transform="matrix(1.00, 0.00, -0.00, -1.00, 395.8, 326.6)">A</text><text xml:space="preserve" font-family="CenturyGothic,Century Gothic" font-size="27.2" fill="#000000" transform="matrix(1.00, 0.00, -0.00, -1.00, 415.9, 326.6)">R</text><text xml:space="preserve" font-family="CenturyGothic,Century Gothic" font-size="27.2" fill="#000000" transform="matrix(1.00, 0.00, -0.00, -1.00, 432.4, 326.6)">I</text><text xml:space="preserve" font-family="CenturyGothic,Century Gothic" font-size="27.2" fill="#000000" transform="matrix(1.00, 0.00, -0.00, -1.00, 438.6, 326.6)">A</text><text xml:space="preserve" font-family="CenturyGothic,Century Gothic" font-size="27.2" fill="#000000" transform="matrix(1.00, 0.00, -0.00, -1.00, 458.7, 326.6)">N</text><text xml:space="preserve" font-family="CenturyGothic,Century Gothic" font-size="27.2" fill="#000000" transform="matrix(1.00, 0.00, -0.00, -1.00, 478.8, 326.6)">T</text><text xml:space="preserve" font-family="CenturyGothic,Century Gothic" font-size="34.0" fill="#000000" transform="matrix(1.00, 0.00, -0.00, -1.00, 490.4, 326.6)"> </text><image xlink:href="../../57A638F0-EAA5-4627-BEDB-60B3E7516D27/assets/03CE8AC2452EE2C1373F2384E93FA464.png" width="17.00" height="17.00" transform="matrix(1.00, 0.00, -0.00, -1.00, 132.0, 302.0)"></image><text xml:space="preserve" font-family="ArialMT,Arial" font-size="34.0" fill="#000000" transform="matrix(1.00, 0.00, -0.00, -1.00, 135.7, 280.8)">•</text><image xlink:href="FB6058BD754322437553A70514A8DAE0.png" width="35.00" height="35.00" transform="matrix(1.00, 0.00, -0.00, -1.00, 164.0, 310.0)"></image><text xml:space="preserve" font-family="CenturyGothic,Century Gothic" font-size="34.0" fill="#000000" transform="matrix(1.00, 0.00, -0.00, -1.00, 167.6, 279.6)">O</text><image xlink:href="C68AEF38FC4C864A6D07C7531F205687.png" width="150.00" height="29.00" transform="matrix(1.00, 0.00, -0.00, -1.00, 194.0, 305.0)"></image><text xml:space="preserve" font-family="CenturyGothic,Century Gothic" font-size="27.2" fill="#000000" transform="matrix(1.00, 0.00, -0.00, -1.00, 197.1, 279.6)">R</text><text xml:space="preserve" font-family="CenturyGothic,Century Gothic" font-size="27.2" fill="#000000" transform="matrix(1.00, 0.00, -0.00, -1.00, 213.6, 279.6)">I</text><text xml:space="preserve" font-family="CenturyGothic,Century Gothic" font-size="27.2" fill="#000000" transform="matrix(1.00, 0.00, -0.00, -1.00, 219.8, 279.6)">E</text><text xml:space="preserve" font-family="CenturyGothic,Century Gothic" font-size="27.2" fill="#000000" transform="matrix(1.00, 0.00, -0.00, -1.00, 234.4, 279.6)">N</text><text xml:space="preserve" font-family="CenturyGothic,Century Gothic" font-size="27.2" fill="#000000" transform="matrix(1.00, 0.00, -0.00, -1.00, 254.5, 279.6)">T</text><text xml:space="preserve" font-family="CenturyGothic,Century Gothic" font-size="27.2" fill="#000000" transform="matrix(1.00, 0.00, -0.00, -1.00, 263.9, 279.6)">A</text><text xml:space="preserve" font-family="CenturyGothic,Century Gothic" font-size="27.2" fill="#000000" transform="matrix(1.00, 0.00, -0.00, -1.00, 281.8, 279.6)">T</text><text xml:space="preserve" font-family="CenturyGothic,Century Gothic" font-size="27.2" fill="#000000" transform="matrix(1.00, 0.00, -0.00, -1.00, 293.4, 279.6)">I</text><text xml:space="preserve" font-family="CenturyGothic,Century Gothic" font-size="27.2" fill="#000000" transform="matrix(1.00, 0.00, -0.00, -1.00, 299.5, 279.6)">O</text><text xml:space="preserve" font-family="CenturyGothic,Century Gothic" font-size="27.2" fill="#000000" transform="matrix(1.00, 0.00, -0.00, -1.00, 323.1, 279.6)">N</text><text xml:space="preserve" font-family="CenturyGothic,Century Gothic" font-size="34.0" fill="#000000" transform="matrix(1.00, 0.00, -0.00, -1.00, 343.3, 279.6)"> </text><image xlink:href="../../57A638F0-EAA5-4627-BEDB-60B3E7516D27/assets/03CE8AC2452EE2C1373F2384E93FA464.png" width="17.00" height="17.00" transform="matrix(1.00, 0.00, -0.00, -1.00, 96.0, 255.0)"></image><text xml:space="preserve" font-family="ArialMT,Arial" font-size="34.0" fill="#000000" transform="matrix(1.00, 0.00, -0.00, -1.00, 99.7, 233.8)">•</text><image xlink:href="55E3A4A2B8B06ABA2B5732325607B318.png" width="23.00" height="35.00" transform="matrix(1.00, 0.00, -0.00, -1.00, 127.0, 263.0)"></image><text xml:space="preserve" font-family="CenturyGothic,Century Gothic" font-size="34.0" fill="#000000" transform="matrix(1.00, 0.00, -0.00, -1.00, 131.6, 232.6)">S</text><image xlink:href="EB446E98A3D1E216529C627AD2AE3331.png" width="76.00" height="29.00" transform="matrix(1.00, 0.00, -0.00, -1.00, 144.0, 258.0)"></image><text xml:space="preserve" font-family="CenturyGothic,Century Gothic" font-size="27.2" fill="#000000" transform="matrix(1.00, 0.00, -0.00, -1.00, 148.5, 232.6)">C</text><text xml:space="preserve" font-family="CenturyGothic,Century Gothic" font-size="27.2" fill="#000000" transform="matrix(1.00, 0.00, -0.00, -1.00, 170.6, 232.6)">A</text><text xml:space="preserve" font-family="CenturyGothic,Century Gothic" font-size="27.2" fill="#000000" transform="matrix(1.00, 0.00, -0.00, -1.00, 190.7, 232.6)">L</text><text xml:space="preserve" font-family="CenturyGothic,Century Gothic" font-size="27.2" fill="#000000" transform="matrix(1.00, 0.00, -0.00, -1.00, 203.3, 232.6)">E</text><text xml:space="preserve" font-family="CenturyGothic,Century Gothic" font-size="34.0" fill="#000000" transform="matrix(1.00, 0.00, -0.00, -1.00, 217.9, 232.6)"> </text><image xlink:href="CD4B039A92DE3E0C26C9A8DE17BA70C2.png" width="143.00" height="29.00" transform="matrix(1.00, 0.00, -0.00, -1.00, 224.0, 258.0)"></image><text xml:space="preserve" font-family="CenturyGothic,Century Gothic" font-size="27.2" fill="#000000" transform="matrix(1.00, 0.00, -0.00, -1.00, 227.3, 232.6)">I</text><text xml:space="preserve" font-family="CenturyGothic,Century Gothic" font-size="27.2" fill="#000000" transform="matrix(1.00, 0.00, -0.00, -1.00, 233.5, 232.6)">N</text><text xml:space="preserve" font-family="CenturyGothic,Century Gothic" font-size="27.2" fill="#000000" transform="matrix(1.00, 0.00, -0.00, -1.00, 253.6, 232.6)">V</text><text xml:space="preserve" font-family="CenturyGothic,Century Gothic" font-size="27.2" fill="#000000" transform="matrix(1.00, 0.00, -0.00, -1.00, 269.4, 232.6)">A</text><text xml:space="preserve" font-family="CenturyGothic,Century Gothic" font-size="27.2" fill="#000000" transform="matrix(1.00, 0.00, -0.00, -1.00, 289.5, 232.6)">R</text><text xml:space="preserve" font-family="CenturyGothic,Century Gothic" font-size="27.2" fill="#000000" transform="matrix(1.00, 0.00, -0.00, -1.00, 306.0, 232.6)">I</text><text xml:space="preserve" font-family="CenturyGothic,Century Gothic" font-size="27.2" fill="#000000" transform="matrix(1.00, 0.00, -0.00, -1.00, 312.2, 232.6)">A</text><text xml:space="preserve" font-family="CenturyGothic,Century Gothic" font-size="27.2" fill="#000000" transform="matrix(1.00, 0.00, -0.00, -1.00, 332.3, 232.6)">N</text><text xml:space="preserve" font-family="CenturyGothic,Century Gothic" font-size="27.2" fill="#000000" transform="matrix(1.00, 0.00, -0.00, -1.00, 352.4, 232.6)">T</text><text xml:space="preserve" font-family="CenturyGothic,Century Gothic" font-size="34.0" fill="#000000" transform="matrix(1.00, 0.00, -0.00, -1.00, 364.0, 232.6)"> </text><image xlink:href="61EE8B2E9E38FD3B3D8F8A24D3692145.png" width="127.00" height="29.00" transform="matrix(1.00, 0.00, -0.00, -1.00, 369.0, 258.0)"></image><text xml:space="preserve" font-family="CenturyGothic,Century Gothic" font-size="27.2" fill="#000000" transform="matrix(1.00, 0.00, -0.00, -1.00, 373.4, 232.6)">M</text><text xml:space="preserve" font-family="CenturyGothic,Century Gothic" font-size="27.2" fill="#000000" transform="matrix(1.00, 0.00, -0.00, -1.00, 398.4, 232.6)">O</text><text xml:space="preserve" font-family="CenturyGothic,Century Gothic" font-size="27.2" fill="#000000" transform="matrix(1.00, 0.00, -0.00, -1.00, 422.0, 232.6)">M</text><text xml:space="preserve" font-family="CenturyGothic,Century Gothic" font-size="27.2" fill="#000000" transform="matrix(1.00, 0.00, -0.00, -1.00, 447.0, 232.6)">E</text><text xml:space="preserve" font-family="CenturyGothic,Century Gothic" font-size="27.2" fill="#000000" transform="matrix(1.00, 0.00, -0.00, -1.00, 461.6, 232.6)">N</text><text xml:space="preserve" font-family="CenturyGothic,Century Gothic" font-size="27.2" fill="#000000" transform="matrix(1.00, 0.00, -0.00, -1.00, 481.7, 232.6)">T</text><text xml:space="preserve" font-family="CenturyGothic-Bold,Century Gothic" font-weight="bold" font-size="28.0" fill="#525252" transform="matrix(1.00, 0.00, -0.00, -1.00, 933.5, 65.6)">3</text><text xml:space="preserve" font-family="CenturyGothic-Bold,Century Gothic" font-weight="bold" font-size="28.0" fill="#525252" transform="matrix(1.00, 0.00, -0.00, -1.00, 949.2, 65.6)">0</text><image xlink:href="B853AF3685039BFB1C1275154312324A.png" width="342.00" height="102.00" transform="matrix(0.75, 0.00, -0.00, -0.75, 592.0, 528.6)"></image><image xlink:href="AD4788D1806A043AA8A44D621206A5E4.png" width="656.00" height="116.00" transform="matrix(0.57, 0.00, -0.00, -0.57, 558.6, 379.0)"></image><image xlink:href="C414D3A7571716829ACD0FFC5BA655AE.png" width="240.00" height="138.00" transform="matrix(0.64, 0.00, -0.00, -0.64, 568.8, 277.4)"></image></g></svg>