<?xml version="1.0" encoding="UTF-8" standalone="no"?><svg xmlns="http://www.w3.org/2000/svg" xmlns:xlink="http://www.w3.org/1999/xlink" clip-rule="evenodd" stroke-miterlimit="10" viewBox="0 0 336 46"><desc>SVG generated by Keynote</desc><defs></defs><g transform="matrix(1.00, 0.00, -0.00, -1.00, 0.0, 46.0)"><image xlink:href="../../8360CE45-2D5C-464E-95DD-A888F464A7E4/assets/CFD25A6A743257A79B73BD682C15B112.png" width="333.00" height="43.00" transform="matrix(1.00, 0.00, -0.00, -1.00, 1.0, 44.0)"></image><text xml:space="preserve" font-family="CenturyGothic,Century Gothic" font-size="50.0" fill="#000000" transform="matrix(1.00, 0.00, -0.00, -1.00, 2.8, 2.9)">M</text><text xml:space="preserve" font-family="CenturyGothic,Century Gothic" font-size="50.0" fill="#000000" transform="matrix(1.00, 0.00, -0.00, -1.00, 48.8, 2.9)">E</text><text xml:space="preserve" font-family="CenturyGothic,Century Gothic" font-size="50.0" fill="#000000" transform="matrix(1.00, 0.00, -0.00, -1.00, 75.6, 2.9)">X</text><text xml:space="preserve" font-family="CenturyGothic,Century Gothic" font-size="50.0" fill="#000000" transform="matrix(1.00, 0.00, -0.00, -1.00, 106.0, 2.9)">I</text><text xml:space="preserve" font-family="CenturyGothic,Century Gothic" font-size="50.0" fill="#000000" transform="matrix(1.00, 0.00, -0.00, -1.00, 117.3, 2.9)">C</text><text xml:space="preserve" font-family="CenturyGothic,Century Gothic" font-size="50.0" fill="#000000" transform="matrix(1.00, 0.00, -0.00, -1.00, 158.0, 2.9)">A</text><text xml:space="preserve" font-family="CenturyGothic,Century Gothic" font-size="50.0" fill="#000000" transform="matrix(1.00, 0.00, -0.00, -1.00, 195.0, 2.9)">N</text><text xml:space="preserve" font-family="CenturyGothic,Century Gothic" font-size="50.0" fill="#000000" transform="matrix(1.00, 0.00, -0.00, -1.00, 231.9, 2.9)"> </text><text xml:space="preserve" font-family="CenturyGothic,Century Gothic" font-size="50.0" fill="#000000" transform="matrix(1.00, 0.00, -0.00, -1.00, 245.8, 2.9)">H</text><text xml:space="preserve" font-family="CenturyGothic,Century Gothic" font-size="50.0" fill="#000000" transform="matrix(1.00, 0.00, -0.00, -1.00, 279.9, 2.9)">A</text><text xml:space="preserve" font-family="CenturyGothic,Century Gothic" font-size="50.0" fill="#000000" transform="matrix(1.00, 0.00, -0.00, -1.00, 312.9, 2.9)">T</text></g></svg>