<?xml version="1.0" encoding="UTF-8" standalone="no"?><svg xmlns="http://www.w3.org/2000/svg" xmlns:xlink="http://www.w3.org/1999/xlink" clip-rule="evenodd" stroke-miterlimit="10" viewBox="0 0 1024 768"><desc>SVG generated by Keynote</desc><defs></defs><g transform="matrix(1.00, 0.00, -0.00, -1.00, 0.0, 768.0)"><path d="M 0.0 768.0 L 1024.0 768.0 L 1024.0 0.0 L 0.0 0.0 Z M 0.0 768.0 " fill="#FFFFFF"></path><image xlink:href="../../2228AE9C-3706-437F-8379-D21BA5B8F0CA/assets/C2129A3EE7512E75FEE2A48785F9B6A3.png" width="1033.00" height="179.00" transform="matrix(0.21, 0.00, -0.00, -0.21, 39.9, 95.6)"></image><image xlink:href="../../8360CE45-2D5C-464E-95DD-A888F464A7E4/assets/CFD25A6A743257A79B73BD682C15B112.png" width="333.00" height="43.00" transform="matrix(1.00, 0.00, -0.00, -1.00, 98.0, 579.0)"></image><text xml:space="preserve" font-family="CenturyGothic,Century Gothic" font-size="50.0" fill="#000000" transform="matrix(1.00, 0.00, -0.00, -1.00, 99.8, 537.9)">M</text><text xml:space="preserve" font-family="CenturyGothic,Century Gothic" font-size="50.0" fill="#000000" transform="matrix(1.00, 0.00, -0.00, -1.00, 145.8, 537.9)">E</text><text xml:space="preserve" font-family="CenturyGothic,Century Gothic" font-size="50.0" fill="#000000" transform="matrix(1.00, 0.00, -0.00, -1.00, 172.6, 537.9)">X</text><text xml:space="preserve" font-family="CenturyGothic,Century Gothic" font-size="50.0" fill="#000000" transform="matrix(1.00, 0.00, -0.00, -1.00, 203.0, 537.9)">I</text><text xml:space="preserve" font-family="CenturyGothic,Century Gothic" font-size="50.0" fill="#000000" transform="matrix(1.00, 0.00, -0.00, -1.00, 214.3, 537.9)">C</text><text xml:space="preserve" font-family="CenturyGothic,Century Gothic" font-size="50.0" fill="#000000" transform="matrix(1.00, 0.00, -0.00, -1.00, 255.0, 537.9)">A</text><text xml:space="preserve" font-family="CenturyGothic,Century Gothic" font-size="50.0" fill="#000000" transform="matrix(1.00, 0.00, -0.00, -1.00, 292.0, 537.9)">N</text><text xml:space="preserve" font-family="CenturyGothic,Century Gothic" font-size="50.0" fill="#000000" transform="matrix(1.00, 0.00, -0.00, -1.00, 328.9, 537.9)"> </text><text xml:space="preserve" font-family="CenturyGothic,Century Gothic" font-size="50.0" fill="#000000" transform="matrix(1.00, 0.00, -0.00, -1.00, 342.8, 537.9)">H</text><text xml:space="preserve" font-family="CenturyGothic,Century Gothic" font-size="50.0" fill="#000000" transform="matrix(1.00, 0.00, -0.00, -1.00, 376.9, 537.9)">A</text><text xml:space="preserve" font-family="CenturyGothic,Century Gothic" font-size="50.0" fill="#000000" transform="matrix(1.00, 0.00, -0.00, -1.00, 409.9, 537.9)">T</text><text xml:space="preserve" font-family="CenturyGothic-Bold,Century Gothic" font-weight="bold" font-size="28.0" fill="#525252" transform="matrix(1.00, 0.00, -0.00, -1.00, 933.5, 65.6)">2</text><text xml:space="preserve" font-family="CenturyGothic-Bold,Century Gothic" font-weight="bold" font-size="28.0" fill="#525252" transform="matrix(1.00, 0.00, -0.00, -1.00, 949.2, 65.6)">9</text><g><g><clipPath id="clip0x7fd045083ba0"><path d="M 73.5 329.5 L 950.5 329.5 L 950.5 147.5 L 73.5 147.5 Z M 73.5 329.5 "></path></clipPath><g clip-path="url(#clip0x7fd045083ba0)"><g><clipPath id="clip0x7fd045084310"><path d="M 0.0 0.0 L 1024.0 0.0 L 1024.0 768.0 L 0.0 768.0 Z M 0.0 0.0 "></path></clipPath><g clip-path="url(#clip0x7fd045084310)"><g><g><clipPath id="clip0x7fd045085d40"><path d="M 73.0 147.0 L 951.0 147.0 L 951.0 330.0 L 73.0 330.0 Z M 73.0 147.0 "></path></clipPath><g clip-path="url(#clip0x7fd045085d40)"><path d="M 74.0 329.0 L 168.5 329.0 L 168.5 238.5 L 74.0 238.5 Z M 74.0 329.0 " fill="#DEDED1"></path><path d="M 168.5 329.0 L 263.0 329.0 L 263.0 238.5 L 168.5 238.5 Z M 168.5 329.0 " fill="#DEDED1"></path><path d="M 263.0 329.0 L 357.6 329.0 L 357.6 238.5 L 263.0 238.5 Z M 263.0 329.0 " fill="#DEDED1"></path><path d="M 357.6 329.0 L 477.4 329.0 L 477.4 238.5 L 357.6 238.5 Z M 357.6 329.0 " fill="#DEDED1"></path><path d="M 477.4 329.0 L 571.9 329.0 L 571.9 238.5 L 477.4 238.5 Z M 477.4 329.0 " fill="#DEDED1"></path><path d="M 571.9 329.0 L 666.4 329.0 L 666.4 238.5 L 571.9 238.5 Z M 571.9 329.0 " fill="#DEDED1"></path><path d="M 666.4 329.0 L 760.9 329.0 L 760.9 238.5 L 666.4 238.5 Z M 666.4 329.0 " fill="#DEDED1"></path><path d="M 760.9 329.0 L 855.4 329.0 L 855.4 238.5 L 760.9 238.5 Z M 760.9 329.0 " fill="#DEDED1"></path><path d="M 855.4 329.0 L 950.0 329.0 L 950.0 238.5 L 855.4 238.5 Z M 855.4 329.0 " fill="#DEDED1"></path><path d="M 74.0 238.5 L 168.5 238.5 L 168.5 148.0 L 74.0 148.0 Z M 74.0 238.5 " fill="#DDDDDD"></path><path d="M 168.5 238.5 L 263.0 238.5 L 263.0 148.0 L 168.5 148.0 Z M 168.5 238.5 " fill="#DDDDDD"></path><path d="M 263.0 238.5 L 357.6 238.5 L 357.6 148.0 L 263.0 148.0 Z M 263.0 238.5 " fill="#B4DBAE"></path><path d="M 357.6 238.5 L 477.4 238.5 L 477.4 148.0 L 357.6 148.0 Z M 357.6 238.5 " fill="#B4DBAE"></path><path d="M 477.4 238.5 L 571.9 238.5 L 571.9 148.0 L 477.4 148.0 Z M 477.4 238.5 " fill="#DDDDDD"></path><path d="M 571.9 238.5 L 666.4 238.5 L 666.4 148.0 L 571.9 148.0 Z M 571.9 238.5 " fill="#DDDDDD"></path><path d="M 666.4 238.5 L 760.9 238.5 L 760.9 148.0 L 666.4 148.0 Z M 666.4 238.5 " fill="#DDDDDD"></path><path d="M 760.9 238.5 L 855.4 238.5 L 855.4 148.0 L 760.9 148.0 Z M 760.9 238.5 " fill="#DDDDDD"></path><path d="M 855.4 238.5 L 950.0 238.5 L 950.0 148.0 L 855.4 148.0 Z M 855.4 238.5 " fill="#DDDDDD"></path></g></g></g></g></g></g></g><g><clipPath id="clip0x7fd045085260"><path d="M 73.5 329.5 L 950.5 329.5 L 950.5 147.5 L 73.5 147.5 Z M 73.5 329.5 "></path></clipPath><g clip-path="url(#clip0x7fd045085260)"><g><clipPath id="clip0x7fd04508c090"><path d="M 74.5 240.0 L 168.0 240.0 L 168.0 328.5 L 74.5 328.5 Z M 74.5 240.0 "></path></clipPath><g clip-path="url(#clip0x7fd04508c090)"><text xml:space="preserve" font-family="CenturyGothic-Bold,Century Gothic" font-weight="bold" font-size="26.0" fill="#000000" transform="matrix(1.00, 0.00, -0.00, -1.00, 80.2, 274.2)">4</text><text xml:space="preserve" font-family="CenturyGothic-Bold,Century Gothic" font-weight="bold" font-size="26.0" fill="#000000" transform="matrix(1.00, 0.00, -0.00, -1.00, 94.7, 274.2)">x</text><text xml:space="preserve" font-family="CenturyGothic-Bold,Century Gothic" font-weight="bold" font-size="26.0" fill="#000000" transform="matrix(1.00, 0.00, -0.00, -1.00, 109.3, 274.2)"> </text><text xml:space="preserve" font-family="CenturyGothic-Bold,Century Gothic" font-weight="bold" font-size="26.0" fill="#000000" transform="matrix(1.00, 0.00, -0.00, -1.00, 116.6, 274.2)">l</text><text xml:space="preserve" font-family="CenturyGothic-Bold,Century Gothic" font-weight="bold" font-size="26.0" fill="#000000" transform="matrix(1.00, 0.00, -0.00, -1.00, 122.8, 274.2)">e</text><text xml:space="preserve" font-family="CenturyGothic-Bold,Century Gothic" font-weight="bold" font-size="26.0" fill="#000000" transform="matrix(1.00, 0.00, -0.00, -1.00, 139.5, 274.2)">s</text><text xml:space="preserve" font-family="CenturyGothic-Bold,Century Gothic" font-weight="bold" font-size="26.0" fill="#000000" transform="matrix(1.00, 0.00, -0.00, -1.00, 150.9, 274.2)">s</text></g></g></g></g><g><clipPath id="clip0x7fd045061170"><path d="M 73.5 329.5 L 950.5 329.5 L 950.5 147.5 L 73.5 147.5 Z M 73.5 329.5 "></path></clipPath><g clip-path="url(#clip0x7fd045061170)"><g><clipPath id="clip0x7fd045023970"><path d="M 169.0 240.0 L 262.5 240.0 L 262.5 328.5 L 169.0 328.5 Z M 169.0 240.0 "></path></clipPath><g clip-path="url(#clip0x7fd045023970)"><text xml:space="preserve" font-family="CenturyGothic-Bold,Century Gothic" font-weight="bold" font-size="26.0" fill="#000000" transform="matrix(1.00, 0.00, -0.00, -1.00, 182.5, 274.2)">Q</text><text xml:space="preserve" font-family="CenturyGothic-Bold,Century Gothic" font-weight="bold" font-size="26.0" fill="#000000" transform="matrix(1.00, 0.00, -0.00, -1.00, 204.3, 274.2)">=</text><text xml:space="preserve" font-family="CenturyGothic-Bold,Century Gothic" font-weight="bold" font-size="26.0" fill="#000000" transform="matrix(1.00, 0.00, -0.00, -1.00, 219.9, 274.2)">1</text><text xml:space="preserve" font-family="CenturyGothic-Bold,Century Gothic" font-weight="bold" font-size="26.0" fill="#000000" transform="matrix(1.00, 0.00, -0.00, -1.00, 234.5, 274.2)">0</text></g></g></g></g><g><clipPath id="clip0x7fd045026170"><path d="M 73.5 329.5 L 950.5 329.5 L 950.5 147.5 L 73.5 147.5 Z M 73.5 329.5 "></path></clipPath><g clip-path="url(#clip0x7fd045026170)"><g><clipPath id="clip0x7fd04508a480"><path d="M 263.5 240.0 L 357.1 240.0 L 357.1 328.5 L 263.5 328.5 Z M 263.5 240.0 "></path></clipPath><g clip-path="url(#clip0x7fd04508a480)"><text xml:space="preserve" font-family="CenturyGothic-Bold,Century Gothic" font-weight="bold" font-size="26.0" fill="#000000" transform="matrix(1.00, 0.00, -0.00, -1.00, 275.2, 274.2)">B</text><text xml:space="preserve" font-family="CenturyGothic-Bold,Century Gothic" font-weight="bold" font-size="26.0" fill="#000000" transform="matrix(1.00, 0.00, -0.00, -1.00, 290.3, 274.2)">r</text><text xml:space="preserve" font-family="CenturyGothic-Bold,Century Gothic" font-weight="bold" font-size="26.0" fill="#000000" transform="matrix(1.00, 0.00, -0.00, -1.00, 298.6, 274.2)">i</text><text xml:space="preserve" font-family="CenturyGothic-Bold,Century Gothic" font-weight="bold" font-size="26.0" fill="#000000" transform="matrix(1.00, 0.00, -0.00, -1.00, 304.8, 274.2)">g</text><text xml:space="preserve" font-family="CenturyGothic-Bold,Century Gothic" font-weight="bold" font-size="26.0" fill="#000000" transform="matrix(1.00, 0.00, -0.00, -1.00, 322.0, 274.2)">h</text><text xml:space="preserve" font-family="CenturyGothic-Bold,Century Gothic" font-weight="bold" font-size="26.0" fill="#000000" transform="matrix(1.00, 0.00, -0.00, -1.00, 337.6, 274.2)">t</text></g></g></g></g><g><clipPath id="clip0x7fd045029eb0"><path d="M 73.5 329.5 L 950.5 329.5 L 950.5 147.5 L 73.5 147.5 Z M 73.5 329.5 "></path></clipPath><g clip-path="url(#clip0x7fd045029eb0)"><g><clipPath id="clip0x7fd04502a610"><path d="M 358.1 240.0 L 476.9 240.0 L 476.9 328.5 L 358.1 328.5 Z M 358.1 240.0 "></path></clipPath><g clip-path="url(#clip0x7fd04502a610)"><text xml:space="preserve" font-family="CenturyGothic-Bold,Century Gothic" font-weight="bold" font-size="26.0" fill="#000000" transform="matrix(1.00, 0.00, -0.00, -1.00, 364.9, 274.2)">C</text><text xml:space="preserve" font-family="CenturyGothic-Bold,Century Gothic" font-weight="bold" font-size="26.0" fill="#000000" transform="matrix(1.00, 0.00, -0.00, -1.00, 385.2, 274.2)">o</text><text xml:space="preserve" font-family="CenturyGothic-Bold,Century Gothic" font-weight="bold" font-size="26.0" fill="#000000" transform="matrix(1.00, 0.00, -0.00, -1.00, 401.8, 274.2)">n</text><text xml:space="preserve" font-family="CenturyGothic-Bold,Century Gothic" font-weight="bold" font-size="26.0" fill="#000000" transform="matrix(1.00, 0.00, -0.00, -1.00, 417.4, 274.2)">t</text><text xml:space="preserve" font-family="CenturyGothic-Bold,Century Gothic" font-weight="bold" font-size="26.0" fill="#000000" transform="matrix(1.00, 0.00, -0.00, -1.00, 425.2, 274.2)">r</text><text xml:space="preserve" font-family="CenturyGothic-Bold,Century Gothic" font-weight="bold" font-size="26.0" fill="#000000" transform="matrix(1.00, 0.00, -0.00, -1.00, 433.5, 274.2)">a</text><text xml:space="preserve" font-family="CenturyGothic-Bold,Century Gothic" font-weight="bold" font-size="26.0" fill="#000000" transform="matrix(1.00, 0.00, -0.00, -1.00, 450.7, 274.2)">s</text><text xml:space="preserve" font-family="CenturyGothic-Bold,Century Gothic" font-weight="bold" font-size="26.0" fill="#000000" transform="matrix(1.00, 0.00, -0.00, -1.00, 462.1, 274.2)">t</text></g></g></g></g><g><clipPath id="clip0x7fd04502e920"><path d="M 73.5 329.5 L 950.5 329.5 L 950.5 147.5 L 73.5 147.5 Z M 73.5 329.5 "></path></clipPath><g clip-path="url(#clip0x7fd04502e920)"><g><clipPath id="clip0x7fd04502f060"><path d="M 477.9 240.0 L 571.4 240.0 L 571.4 328.5 L 477.9 328.5 Z M 477.9 240.0 "></path></clipPath><g clip-path="url(#clip0x7fd04502f060)"><text xml:space="preserve" font-family="CenturyGothic-Bold,Century Gothic" font-weight="bold" font-size="26.0" fill="#000000" transform="matrix(1.00, 0.00, -0.00, -1.00, 493.4, 290.2)">C</text><text xml:space="preserve" font-family="CenturyGothic-Bold,Century Gothic" font-weight="bold" font-size="26.0" fill="#000000" transform="matrix(1.00, 0.00, -0.00, -1.00, 513.7, 290.2)">r</text><text xml:space="preserve" font-family="CenturyGothic-Bold,Century Gothic" font-weight="bold" font-size="26.0" fill="#000000" transform="matrix(1.00, 0.00, -0.00, -1.00, 522.0, 290.2)">o</text><text xml:space="preserve" font-family="CenturyGothic-Bold,Century Gothic" font-weight="bold" font-size="26.0" fill="#000000" transform="matrix(1.00, 0.00, -0.00, -1.00, 538.6, 290.2)">p</text><text xml:space="preserve" font-family="CenturyGothic-Bold,Century Gothic" font-weight="bold" font-size="26.0" fill="#000000" transform="matrix(1.00, 0.00, -0.00, -1.00, 555.8, 290.2)"> </text><text xml:space="preserve" font-family="CenturyGothic-Bold,Century Gothic" font-weight="bold" font-size="26.0" fill="#000000" transform="matrix(1.00, 0.00, -0.00, -1.00, 491.9, 258.2)">s</text><text xml:space="preserve" font-family="CenturyGothic-Bold,Century Gothic" font-weight="bold" font-size="26.0" fill="#000000" transform="matrix(1.00, 0.00, -0.00, -1.00, 503.3, 258.2)">m</text><text xml:space="preserve" font-family="CenturyGothic-Bold,Century Gothic" font-weight="bold" font-size="26.0" fill="#000000" transform="matrix(1.00, 0.00, -0.00, -1.00, 527.7, 258.2)">a</text><text xml:space="preserve" font-family="CenturyGothic-Bold,Century Gothic" font-weight="bold" font-size="26.0" fill="#000000" transform="matrix(1.00, 0.00, -0.00, -1.00, 544.9, 258.2)">l</text><text xml:space="preserve" font-family="CenturyGothic-Bold,Century Gothic" font-weight="bold" font-size="26.0" fill="#000000" transform="matrix(1.00, 0.00, -0.00, -1.00, 551.1, 258.2)">l</text></g></g></g></g><g><clipPath id="clip0x7fd0450344b0"><path d="M 73.5 329.5 L 950.5 329.5 L 950.5 147.5 L 73.5 147.5 Z M 73.5 329.5 "></path></clipPath><g clip-path="url(#clip0x7fd0450344b0)"><g><clipPath id="clip0x7fd045034c40"><path d="M 572.4 240.0 L 665.9 240.0 L 665.9 328.5 L 572.4 328.5 Z M 572.4 240.0 "></path></clipPath><g clip-path="url(#clip0x7fd045034c40)"><text xml:space="preserve" font-family="CenturyGothic-Bold,Century Gothic" font-weight="bold" font-size="26.0" fill="#000000" transform="matrix(1.00, 0.00, -0.00, -1.00, 587.9, 290.2)">C</text><text xml:space="preserve" font-family="CenturyGothic-Bold,Century Gothic" font-weight="bold" font-size="26.0" fill="#000000" transform="matrix(1.00, 0.00, -0.00, -1.00, 608.2, 290.2)">r</text><text xml:space="preserve" font-family="CenturyGothic-Bold,Century Gothic" font-weight="bold" font-size="26.0" fill="#000000" transform="matrix(1.00, 0.00, -0.00, -1.00, 616.5, 290.2)">o</text><text xml:space="preserve" font-family="CenturyGothic-Bold,Century Gothic" font-weight="bold" font-size="26.0" fill="#000000" transform="matrix(1.00, 0.00, -0.00, -1.00, 633.2, 290.2)">p</text><text xml:space="preserve" font-family="CenturyGothic-Bold,Century Gothic" font-weight="bold" font-size="26.0" fill="#000000" transform="matrix(1.00, 0.00, -0.00, -1.00, 650.3, 290.2)"> </text><text xml:space="preserve" font-family="CenturyGothic-Bold,Century Gothic" font-weight="bold" font-size="26.0" fill="#000000" transform="matrix(1.00, 0.00, -0.00, -1.00, 600.2, 258.2)">l</text><text xml:space="preserve" font-family="CenturyGothic-Bold,Century Gothic" font-weight="bold" font-size="26.0" fill="#000000" transform="matrix(1.00, 0.00, -0.00, -1.00, 606.4, 258.2)">e</text><text xml:space="preserve" font-family="CenturyGothic-Bold,Century Gothic" font-weight="bold" font-size="26.0" fill="#000000" transform="matrix(1.00, 0.00, -0.00, -1.00, 623.0, 258.2)">f</text><text xml:space="preserve" font-family="CenturyGothic-Bold,Century Gothic" font-weight="bold" font-size="26.0" fill="#000000" transform="matrix(1.00, 0.00, -0.00, -1.00, 630.3, 258.2)">t</text></g></g></g></g><g><clipPath id="clip0x7fd0450399d0"><path d="M 73.5 329.5 L 950.5 329.5 L 950.5 147.5 L 73.5 147.5 Z M 73.5 329.5 "></path></clipPath><g clip-path="url(#clip0x7fd0450399d0)"><g><clipPath id="clip0x7fd04503a130"><path d="M 666.9 240.0 L 760.4 240.0 L 760.4 328.5 L 666.9 328.5 Z M 666.9 240.0 "></path></clipPath><g clip-path="url(#clip0x7fd04503a130)"><text xml:space="preserve" font-family="CenturyGothic-Bold,Century Gothic" font-weight="bold" font-size="26.0" fill="#000000" transform="matrix(1.00, 0.00, -0.00, -1.00, 673.1, 274.2)">R</text><text xml:space="preserve" font-family="CenturyGothic-Bold,Century Gothic" font-weight="bold" font-size="26.0" fill="#000000" transform="matrix(1.00, 0.00, -0.00, -1.00, 688.2, 274.2)">o</text><text xml:space="preserve" font-family="CenturyGothic-Bold,Century Gothic" font-weight="bold" font-size="26.0" fill="#000000" transform="matrix(1.00, 0.00, -0.00, -1.00, 704.8, 274.2)">t</text><text xml:space="preserve" font-family="CenturyGothic-Bold,Century Gothic" font-weight="bold" font-size="26.0" fill="#000000" transform="matrix(1.00, 0.00, -0.00, -1.00, 712.6, 274.2)">a</text><text xml:space="preserve" font-family="CenturyGothic-Bold,Century Gothic" font-weight="bold" font-size="26.0" fill="#000000" transform="matrix(1.00, 0.00, -0.00, -1.00, 729.8, 274.2)">t</text><text xml:space="preserve" font-family="CenturyGothic-Bold,Century Gothic" font-weight="bold" font-size="26.0" fill="#000000" transform="matrix(1.00, 0.00, -0.00, -1.00, 737.6, 274.2)">e</text></g></g></g></g><g><clipPath id="clip0x7fd04503d690"><path d="M 73.5 329.5 L 950.5 329.5 L 950.5 147.5 L 73.5 147.5 Z M 73.5 329.5 "></path></clipPath><g clip-path="url(#clip0x7fd04503d690)"><g><clipPath id="clip0x7fd04503ddf0"><path d="M 761.4 240.0 L 854.9 240.0 L 854.9 328.5 L 761.4 328.5 Z M 761.4 240.0 "></path></clipPath><g clip-path="url(#clip0x7fd04503ddf0)"><text xml:space="preserve" font-family="CenturyGothic-Bold,Century Gothic" font-weight="bold" font-size="26.0" fill="#000000" transform="matrix(1.00, 0.00, -0.00, -1.00, 772.0, 274.2)">A</text><text xml:space="preserve" font-family="CenturyGothic-Bold,Century Gothic" font-weight="bold" font-size="26.0" fill="#000000" transform="matrix(1.00, 0.00, -0.00, -1.00, 791.3, 274.2)">f</text><text xml:space="preserve" font-family="CenturyGothic-Bold,Century Gothic" font-weight="bold" font-size="26.0" fill="#000000" transform="matrix(1.00, 0.00, -0.00, -1.00, 798.5, 274.2)">f</text><text xml:space="preserve" font-family="CenturyGothic-Bold,Century Gothic" font-weight="bold" font-size="26.0" fill="#000000" transform="matrix(1.00, 0.00, -0.00, -1.00, 805.8, 274.2)">i</text><text xml:space="preserve" font-family="CenturyGothic-Bold,Century Gothic" font-weight="bold" font-size="26.0" fill="#000000" transform="matrix(1.00, 0.00, -0.00, -1.00, 812.0, 274.2)">n</text><text xml:space="preserve" font-family="CenturyGothic-Bold,Century Gothic" font-weight="bold" font-size="26.0" fill="#000000" transform="matrix(1.00, 0.00, -0.00, -1.00, 827.6, 274.2)">e</text></g></g></g></g><g><clipPath id="clip0x7fd045041350"><path d="M 73.5 329.5 L 950.5 329.5 L 950.5 147.5 L 73.5 147.5 Z M 73.5 329.5 "></path></clipPath><g clip-path="url(#clip0x7fd045041350)"><g><clipPath id="clip0x7fd045041ab0"><path d="M 855.9 240.0 L 949.5 240.0 L 949.5 328.5 L 855.9 328.5 Z M 855.9 240.0 "></path></clipPath><g clip-path="url(#clip0x7fd045041ab0)"><text xml:space="preserve" font-family="CenturyGothic-Bold,Century Gothic" font-weight="bold" font-size="26.0" fill="#000000" transform="matrix(1.00, 0.00, -0.00, -1.00, 864.5, 274.2)">L</text><text xml:space="preserve" font-family="CenturyGothic-Bold,Century Gothic" font-weight="bold" font-size="26.0" fill="#000000" transform="matrix(1.00, 0.00, -0.00, -1.00, 875.9, 274.2)">e</text><text xml:space="preserve" font-family="CenturyGothic-Bold,Century Gothic" font-weight="bold" font-size="26.0" fill="#000000" transform="matrix(1.00, 0.00, -0.00, -1.00, 892.5, 274.2)">n</text><text xml:space="preserve" font-family="CenturyGothic-Bold,Century Gothic" font-weight="bold" font-size="26.0" fill="#000000" transform="matrix(1.00, 0.00, -0.00, -1.00, 908.1, 274.2)">n</text><text xml:space="preserve" font-family="CenturyGothic-Bold,Century Gothic" font-weight="bold" font-size="26.0" fill="#000000" transform="matrix(1.00, 0.00, -0.00, -1.00, 923.7, 274.2)">a</text></g></g></g></g><g><clipPath id="clip0x7fd045044960"><path d="M 73.5 329.5 L 950.5 329.5 L 950.5 147.5 L 73.5 147.5 Z M 73.5 329.5 "></path></clipPath><g clip-path="url(#clip0x7fd045044960)"><g><clipPath id="clip0x7fd045045120"><path d="M 74.5 148.5 L 168.0 148.5 L 168.0 237.0 L 74.5 237.0 Z M 74.5 148.5 "></path></clipPath><g clip-path="url(#clip0x7fd045045120)"><text xml:space="preserve" font-family="CenturyGothic-Bold,Century Gothic" font-weight="bold" font-size="26.0" fill="#000000" transform="matrix(1.00, 0.00, -0.00, -1.00, 95.8, 182.7)">0</text><text xml:space="preserve" font-family="CenturyGothic-Bold,Century Gothic" font-weight="bold" font-size="26.0" fill="#000000" transform="matrix(1.00, 0.00, -0.00, -1.00, 110.3, 182.7)">.</text><text xml:space="preserve" font-family="CenturyGothic-Bold,Century Gothic" font-weight="bold" font-size="26.0" fill="#000000" transform="matrix(1.00, 0.00, -0.00, -1.00, 117.6, 182.7)">7</text><text xml:space="preserve" font-family="CenturyGothic-Bold,Century Gothic" font-weight="bold" font-size="26.0" fill="#000000" transform="matrix(1.00, 0.00, -0.00, -1.00, 132.2, 182.7)">7</text></g></g></g></g><g><clipPath id="clip0x7fd045047900"><path d="M 73.5 329.5 L 950.5 329.5 L 950.5 147.5 L 73.5 147.5 Z M 73.5 329.5 "></path></clipPath><g clip-path="url(#clip0x7fd045047900)"><g><clipPath id="clip0x7fd045048130"><path d="M 169.0 148.5 L 262.5 148.5 L 262.5 237.0 L 169.0 237.0 Z M 169.0 148.5 "></path></clipPath><g clip-path="url(#clip0x7fd045048130)"><text xml:space="preserve" font-family="CenturyGothic-Bold,Century Gothic" font-weight="bold" font-size="26.0" fill="#000000" transform="matrix(1.00, 0.00, -0.00, -1.00, 190.3, 182.7)">0</text><text xml:space="preserve" font-family="CenturyGothic-Bold,Century Gothic" font-weight="bold" font-size="26.0" fill="#000000" transform="matrix(1.00, 0.00, -0.00, -1.00, 204.9, 182.7)">.</text><text xml:space="preserve" font-family="CenturyGothic-Bold,Century Gothic" font-weight="bold" font-size="26.0" fill="#000000" transform="matrix(1.00, 0.00, -0.00, -1.00, 212.1, 182.7)">8</text><text xml:space="preserve" font-family="CenturyGothic-Bold,Century Gothic" font-weight="bold" font-size="26.0" fill="#000000" transform="matrix(1.00, 0.00, -0.00, -1.00, 226.7, 182.7)">2</text></g></g></g></g><g><clipPath id="clip0x7fd04504a930"><path d="M 73.5 329.5 L 950.5 329.5 L 950.5 147.5 L 73.5 147.5 Z M 73.5 329.5 "></path></clipPath><g clip-path="url(#clip0x7fd04504a930)"><g><clipPath id="clip0x7fd04504b090"><path d="M 263.5 148.5 L 357.1 148.5 L 357.1 237.0 L 263.5 237.0 Z M 263.5 148.5 "></path></clipPath><g clip-path="url(#clip0x7fd04504b090)"><text xml:space="preserve" font-family="CenturyGothic-Bold,Century Gothic" font-weight="bold" font-size="26.0" fill="#000000" transform="matrix(1.00, 0.00, -0.00, -1.00, 284.8, 182.7)">0</text><text xml:space="preserve" font-family="CenturyGothic-Bold,Century Gothic" font-weight="bold" font-size="26.0" fill="#000000" transform="matrix(1.00, 0.00, -0.00, -1.00, 299.4, 182.7)">.</text><text xml:space="preserve" font-family="CenturyGothic-Bold,Century Gothic" font-weight="bold" font-size="26.0" fill="#000000" transform="matrix(1.00, 0.00, -0.00, -1.00, 306.7, 182.7)">8</text><text xml:space="preserve" font-family="CenturyGothic-Bold,Century Gothic" font-weight="bold" font-size="26.0" fill="#000000" transform="matrix(1.00, 0.00, -0.00, -1.00, 321.2, 182.7)">8</text></g></g></g></g><g><clipPath id="clip0x7fd04504d890"><path d="M 73.5 329.5 L 950.5 329.5 L 950.5 147.5 L 73.5 147.5 Z M 73.5 329.5 "></path></clipPath><g clip-path="url(#clip0x7fd04504d890)"><g><clipPath id="clip0x7fd04504dff0"><path d="M 358.1 148.5 L 476.9 148.5 L 476.9 237.0 L 358.1 237.0 Z M 358.1 148.5 "></path></clipPath><g clip-path="url(#clip0x7fd04504dff0)"><text xml:space="preserve" font-family="CenturyGothic-Bold,Century Gothic" font-weight="bold" font-size="26.0" fill="#000000" transform="matrix(1.00, 0.00, -0.00, -1.00, 399.3, 182.7)">0</text><text xml:space="preserve" font-family="CenturyGothic-Bold,Century Gothic" font-weight="bold" font-size="26.0" fill="#000000" transform="matrix(1.00, 0.00, -0.00, -1.00, 413.8, 182.7)">.</text><text xml:space="preserve" font-family="CenturyGothic-Bold,Century Gothic" font-weight="bold" font-size="26.0" fill="#000000" transform="matrix(1.00, 0.00, -0.00, -1.00, 421.1, 182.7)">9</text></g></g></g></g><g><clipPath id="clip0x7fd045050140"><path d="M 73.5 329.5 L 950.5 329.5 L 950.5 147.5 L 73.5 147.5 Z M 73.5 329.5 "></path></clipPath><g clip-path="url(#clip0x7fd045050140)"><g><clipPath id="clip0x7fd0450508a0"><path d="M 477.9 148.5 L 571.4 148.5 L 571.4 237.0 L 477.9 237.0 Z M 477.9 148.5 "></path></clipPath><g clip-path="url(#clip0x7fd0450508a0)"><text xml:space="preserve" font-family="CenturyGothic-Bold,Century Gothic" font-weight="bold" font-size="26.0" fill="#000000" transform="matrix(1.00, 0.00, -0.00, -1.00, 499.1, 182.7)">0</text><text xml:space="preserve" font-family="CenturyGothic-Bold,Century Gothic" font-weight="bold" font-size="26.0" fill="#000000" transform="matrix(1.00, 0.00, -0.00, -1.00, 513.7, 182.7)">.</text><text xml:space="preserve" font-family="CenturyGothic-Bold,Century Gothic" font-weight="bold" font-size="26.0" fill="#000000" transform="matrix(1.00, 0.00, -0.00, -1.00, 521.0, 182.7)">5</text><text xml:space="preserve" font-family="CenturyGothic-Bold,Century Gothic" font-weight="bold" font-size="26.0" fill="#000000" transform="matrix(1.00, 0.00, -0.00, -1.00, 535.5, 182.7)">1</text></g></g></g></g><g><clipPath id="clip0x7fd0450530a0"><path d="M 73.5 329.5 L 950.5 329.5 L 950.5 147.5 L 73.5 147.5 Z M 73.5 329.5 "></path></clipPath><g clip-path="url(#clip0x7fd0450530a0)"><g><clipPath id="clip0x7fd045053800"><path d="M 572.4 148.5 L 665.9 148.5 L 665.9 237.0 L 572.4 237.0 Z M 572.4 148.5 "></path></clipPath><g clip-path="url(#clip0x7fd045053800)"><text xml:space="preserve" font-family="CenturyGothic-Bold,Century Gothic" font-weight="bold" font-size="26.0" fill="#000000" transform="matrix(1.00, 0.00, -0.00, -1.00, 593.7, 182.7)">0</text><text xml:space="preserve" font-family="CenturyGothic-Bold,Century Gothic" font-weight="bold" font-size="26.0" fill="#000000" transform="matrix(1.00, 0.00, -0.00, -1.00, 608.2, 182.7)">.</text><text xml:space="preserve" font-family="CenturyGothic-Bold,Century Gothic" font-weight="bold" font-size="26.0" fill="#000000" transform="matrix(1.00, 0.00, -0.00, -1.00, 615.5, 182.7)">5</text><text xml:space="preserve" font-family="CenturyGothic-Bold,Century Gothic" font-weight="bold" font-size="26.0" fill="#000000" transform="matrix(1.00, 0.00, -0.00, -1.00, 630.1, 182.7)">3</text></g></g></g></g><g><clipPath id="clip0x7fd045056000"><path d="M 73.5 329.5 L 950.5 329.5 L 950.5 147.5 L 73.5 147.5 Z M 73.5 329.5 "></path></clipPath><g clip-path="url(#clip0x7fd045056000)"><g><clipPath id="clip0x7fd0450567a0"><path d="M 666.9 148.5 L 760.4 148.5 L 760.4 237.0 L 666.9 237.0 Z M 666.9 148.5 "></path></clipPath><g clip-path="url(#clip0x7fd0450567a0)"><text xml:space="preserve" font-family="CenturyGothic-Bold,Century Gothic" font-weight="bold" font-size="26.0" fill="#000000" transform="matrix(1.00, 0.00, -0.00, -1.00, 695.5, 182.7)">0</text><text xml:space="preserve" font-family="CenturyGothic-Bold,Century Gothic" font-weight="bold" font-size="26.0" fill="#000000" transform="matrix(1.00, 0.00, -0.00, -1.00, 710.0, 182.7)">.</text><text xml:space="preserve" font-family="CenturyGothic-Bold,Century Gothic" font-weight="bold" font-size="26.0" fill="#000000" transform="matrix(1.00, 0.00, -0.00, -1.00, 717.3, 182.7)">5</text></g></g></g></g><g><clipPath id="clip0x7fd045058910"><path d="M 73.5 329.5 L 950.5 329.5 L 950.5 147.5 L 73.5 147.5 Z M 73.5 329.5 "></path></clipPath><g clip-path="url(#clip0x7fd045058910)"><g><clipPath id="clip0x7fd045059070"><path d="M 761.4 148.5 L 854.9 148.5 L 854.9 237.0 L 761.4 237.0 Z M 761.4 148.5 "></path></clipPath><g clip-path="url(#clip0x7fd045059070)"><text xml:space="preserve" font-family="CenturyGothic-Bold,Century Gothic" font-weight="bold" font-size="26.0" fill="#000000" transform="matrix(1.00, 0.00, -0.00, -1.00, 790.0, 182.7)">0</text><text xml:space="preserve" font-family="CenturyGothic-Bold,Century Gothic" font-weight="bold" font-size="26.0" fill="#000000" transform="matrix(1.00, 0.00, -0.00, -1.00, 804.5, 182.7)">.</text><text xml:space="preserve" font-family="CenturyGothic-Bold,Century Gothic" font-weight="bold" font-size="26.0" fill="#000000" transform="matrix(1.00, 0.00, -0.00, -1.00, 811.8, 182.7)">5</text></g></g></g></g><g><clipPath id="clip0x7fd04505b1c0"><path d="M 73.5 329.5 L 950.5 329.5 L 950.5 147.5 L 73.5 147.5 Z M 73.5 329.5 "></path></clipPath><g clip-path="url(#clip0x7fd04505b1c0)"><g><clipPath id="clip0x7fd04505b920"><path d="M 855.9 148.5 L 949.5 148.5 L 949.5 237.0 L 855.9 237.0 Z M 855.9 148.5 "></path></clipPath><g clip-path="url(#clip0x7fd04505b920)"><text xml:space="preserve" font-family="CenturyGothic-Bold,Century Gothic" font-weight="bold" font-size="26.0" fill="#000000" transform="matrix(1.00, 0.00, -0.00, -1.00, 884.5, 182.7)">0</text><text xml:space="preserve" font-family="CenturyGothic-Bold,Century Gothic" font-weight="bold" font-size="26.0" fill="#000000" transform="matrix(1.00, 0.00, -0.00, -1.00, 899.1, 182.7)">.</text><text xml:space="preserve" font-family="CenturyGothic-Bold,Century Gothic" font-weight="bold" font-size="26.0" fill="#000000" transform="matrix(1.00, 0.00, -0.00, -1.00, 906.3, 182.7)">5</text></g></g></g></g><g><clipPath id="clip0x7fd04505d9c0"><path d="M 73.5 329.5 L 950.5 329.5 L 950.5 147.5 L 73.5 147.5 Z M 73.5 329.5 "></path></clipPath><g clip-path="url(#clip0x7fd04505d9c0)"><g><clipPath id="clip0x7fd04505e0d0"><path d="M 0.0 0.0 L 1024.0 0.0 L 1024.0 768.0 L 0.0 768.0 Z M 0.0 0.0 "></path></clipPath><g clip-path="url(#clip0x7fd04505e0d0)"><path d="M 96.5 1.5 L 96.5 92.5 " fill="none" stroke="#FFFFFF" stroke-width="1.00" stroke-linejoin="bevel" transform="matrix(1.00, 0.00, 0.00, -1.00, 72.0, 331.0)"></path><path d="M 96.5 92.5 L 96.5 183.5 " fill="none" stroke="#FFFFFF" stroke-width="1.00" stroke-linejoin="bevel" transform="matrix(1.00, 0.00, 0.00, -1.00, 72.0, 331.0)"></path><path d="M 191.0 1.5 L 191.0 92.5 " fill="none" stroke="#FFFFFF" stroke-width="1.00" stroke-linejoin="bevel" transform="matrix(1.00, 0.00, 0.00, -1.00, 72.0, 331.0)"></path><path d="M 191.0 92.5 L 191.0 183.5 " fill="none" stroke="#FFFFFF" stroke-width="1.00" stroke-linejoin="bevel" transform="matrix(1.00, 0.00, 0.00, -1.00, 72.0, 331.0)"></path><path d="M 285.6 1.5 L 285.6 92.5 " fill="none" stroke="#FFFFFF" stroke-width="1.00" stroke-linejoin="bevel" transform="matrix(1.00, 0.00, 0.00, -1.00, 72.0, 331.0)"></path><path d="M 285.6 92.5 L 285.6 183.5 " fill="none" stroke="#FFFFFF" stroke-width="1.00" stroke-linejoin="bevel" transform="matrix(1.00, 0.00, 0.00, -1.00, 72.0, 331.0)"></path><path d="M 405.4 1.5 L 405.4 92.5 " fill="none" stroke="#FFFFFF" stroke-width="1.00" stroke-linejoin="bevel" transform="matrix(1.00, 0.00, 0.00, -1.00, 72.0, 331.0)"></path><path d="M 405.4 92.5 L 405.4 183.5 " fill="none" stroke="#FFFFFF" stroke-width="1.00" stroke-linejoin="bevel" transform="matrix(1.00, 0.00, 0.00, -1.00, 72.0, 331.0)"></path><path d="M 499.9 1.5 L 499.9 92.5 " fill="none" stroke="#FFFFFF" stroke-width="1.00" stroke-linejoin="bevel" transform="matrix(1.00, 0.00, 0.00, -1.00, 72.0, 331.0)"></path><path d="M 499.9 92.5 L 499.9 183.5 " fill="none" stroke="#FFFFFF" stroke-width="1.00" stroke-linejoin="bevel" transform="matrix(1.00, 0.00, 0.00, -1.00, 72.0, 331.0)"></path><path d="M 594.4 1.5 L 594.4 92.5 " fill="none" stroke="#FFFFFF" stroke-width="1.00" stroke-linejoin="bevel" transform="matrix(1.00, 0.00, 0.00, -1.00, 72.0, 331.0)"></path><path d="M 594.4 92.5 L 594.4 183.5 " fill="none" stroke="#FFFFFF" stroke-width="1.00" stroke-linejoin="bevel" transform="matrix(1.00, 0.00, 0.00, -1.00, 72.0, 331.0)"></path><path d="M 688.9 1.5 L 688.9 92.5 " fill="none" stroke="#FFFFFF" stroke-width="1.00" stroke-linejoin="bevel" transform="matrix(1.00, 0.00, 0.00, -1.00, 72.0, 331.0)"></path><path d="M 688.9 92.5 L 688.9 183.5 " fill="none" stroke="#FFFFFF" stroke-width="1.00" stroke-linejoin="bevel" transform="matrix(1.00, 0.00, 0.00, -1.00, 72.0, 331.0)"></path><path d="M 783.4 1.5 L 783.4 92.5 " fill="none" stroke="#FFFFFF" stroke-width="1.00" stroke-linejoin="bevel" transform="matrix(1.00, 0.00, 0.00, -1.00, 72.0, 331.0)"></path><path d="M 783.4 92.5 L 783.4 183.5 " fill="none" stroke="#FFFFFF" stroke-width="1.00" stroke-linejoin="bevel" transform="matrix(1.00, 0.00, 0.00, -1.00, 72.0, 331.0)"></path><path d="M 1.5 92.5 L 878.5 92.5 " fill="none" stroke="#FFFFFF" stroke-width="3.00" stroke-linejoin="bevel" transform="matrix(1.00, 0.00, 0.00, -1.00, 72.0, 331.0)"></path><path d="M 2.0 1.5 L 2.0 92.5 " fill="none" stroke="#FFFFFF" stroke-width="1.00" stroke-linejoin="bevel" transform="matrix(1.00, 0.00, 0.00, -1.00, 72.0, 331.0)"></path><path d="M 2.0 92.5 L 2.0 183.5 " fill="none" stroke="#FFFFFF" stroke-width="1.00" stroke-linejoin="bevel" transform="matrix(1.00, 0.00, 0.00, -1.00, 72.0, 331.0)"></path><path d="M 878.0 1.5 L 878.0 92.5 " fill="none" stroke="#FFFFFF" stroke-width="1.00" stroke-linejoin="bevel" transform="matrix(1.00, 0.00, 0.00, -1.00, 72.0, 331.0)"></path><path d="M 878.0 92.5 L 878.0 183.5 " fill="none" stroke="#FFFFFF" stroke-width="1.00" stroke-linejoin="bevel" transform="matrix(1.00, 0.00, 0.00, -1.00, 72.0, 331.0)"></path><path d="M 1.5 2.0 L 878.5 2.0 " fill="none" stroke="#FFFFFF" stroke-width="1.00" stroke-linejoin="bevel" transform="matrix(1.00, 0.00, 0.00, -1.00, 72.0, 331.0)"></path><path d="M 1.5 183.0 L 878.5 183.0 " fill="none" stroke="#FFFFFF" stroke-width="1.00" stroke-linejoin="bevel" transform="matrix(1.00, 0.00, 0.00, -1.00, 72.0, 331.0)"></path></g></g></g></g></g><image xlink:href="../../DF109321-136B-4F87-8845-0FA46B91A0B5/assets/11CE8F8A06C4D14FFA40AC65A8F7A24C.png" width="900.00" height="556.00" transform="matrix(0.56, 0.00, -0.00, -0.56, 448.1, 687.4)"></image></g></svg>