<?xml version="1.0" encoding="UTF-8" standalone="no"?><svg xmlns="http://www.w3.org/2000/svg" xmlns:xlink="http://www.w3.org/1999/xlink" clip-rule="evenodd" stroke-miterlimit="10" viewBox="0 0 878 184"><desc>SVG generated by Keynote</desc><defs></defs><g transform="matrix(1.00, 0.00, -0.00, -1.00, 0.0, 184.0)"><g><g><clipPath id="clip0x7fd0450dd3d0"><path d="M 0.5 183.0 L 877.5 183.0 L 877.5 1.0 L 0.5 1.0 Z M 0.5 183.0 "></path></clipPath><g clip-path="url(#clip0x7fd0450dd3d0)"><g><clipPath id="clip0x7fd0450db210"><path d="M 0.0 0.0 L 878.0 0.0 L 878.0 184.0 L 0.0 184.0 Z M 0.0 0.0 "></path></clipPath><g clip-path="url(#clip0x7fd0450db210)"><g><g><clipPath id="clip0x7fd0450cc3b0"><path d="M 0.0 1.0 L 878.0 1.0 L 878.0 184.0 L 0.0 184.0 Z M 0.0 1.0 "></path></clipPath><g clip-path="url(#clip0x7fd0450cc3b0)"><path d="M 1.0 182.5 L 95.5 182.5 L 95.5 92.0 L 1.0 92.0 Z M 1.0 182.5 " fill="#DEDED1"></path><path d="M 95.5 182.5 L 190.1 182.5 L 190.1 92.0 L 95.5 92.0 Z M 95.5 182.5 " fill="#DEDED1"></path><path d="M 190.1 182.5 L 284.6 182.5 L 284.6 92.0 L 190.1 92.0 Z M 190.1 182.5 " fill="#DEDED1"></path><path d="M 284.6 182.5 L 404.4 182.5 L 404.4 92.0 L 284.6 92.0 Z M 284.6 182.5 " fill="#DEDED1"></path><path d="M 404.4 182.5 L 498.9 182.5 L 498.9 92.0 L 404.4 92.0 Z M 404.4 182.5 " fill="#DEDED1"></path><path d="M 498.9 182.5 L 593.4 182.5 L 593.4 92.0 L 498.9 92.0 Z M 498.9 182.5 " fill="#DEDED1"></path><path d="M 593.4 182.5 L 687.9 182.5 L 687.9 92.0 L 593.4 92.0 Z M 593.4 182.5 " fill="#DEDED1"></path><path d="M 687.9 182.5 L 782.5 182.5 L 782.5 92.0 L 687.9 92.0 Z M 687.9 182.5 " fill="#DEDED1"></path><path d="M 782.5 182.5 L 877.0 182.5 L 877.0 92.0 L 782.5 92.0 Z M 782.5 182.5 " fill="#DEDED1"></path><path d="M 1.0 92.0 L 95.5 92.0 L 95.5 1.5 L 1.0 1.5 Z M 1.0 92.0 " fill="#DDDDDD"></path><path d="M 95.5 92.0 L 190.1 92.0 L 190.1 1.5 L 95.5 1.5 Z M 95.5 92.0 " fill="#DDDDDD"></path><path d="M 190.1 92.0 L 284.6 92.0 L 284.6 1.5 L 190.1 1.5 Z M 190.1 92.0 " fill="#B4DBAE"></path><path d="M 284.6 92.0 L 404.4 92.0 L 404.4 1.5 L 284.6 1.5 Z M 284.6 92.0 " fill="#B4DBAE"></path><path d="M 404.4 92.0 L 498.9 92.0 L 498.9 1.5 L 404.4 1.5 Z M 404.4 92.0 " fill="#DDDDDD"></path><path d="M 498.9 92.0 L 593.4 92.0 L 593.4 1.5 L 498.9 1.5 Z M 498.9 92.0 " fill="#DDDDDD"></path><path d="M 593.4 92.0 L 687.9 92.0 L 687.9 1.5 L 593.4 1.5 Z M 593.4 92.0 " fill="#DDDDDD"></path><path d="M 687.9 92.0 L 782.5 92.0 L 782.5 1.5 L 687.9 1.5 Z M 687.9 92.0 " fill="#DDDDDD"></path><path d="M 782.5 92.0 L 877.0 92.0 L 877.0 1.5 L 782.5 1.5 Z M 782.5 92.0 " fill="#DDDDDD"></path></g></g></g></g></g></g></g><g><clipPath id="clip0x7fd0460f3700"><path d="M 0.5 183.0 L 877.5 183.0 L 877.5 1.0 L 0.5 1.0 Z M 0.5 183.0 "></path></clipPath><g clip-path="url(#clip0x7fd0460f3700)"><g><clipPath id="clip0x7fd041926cf0"><path d="M 1.5 93.5 L 95.0 93.5 L 95.0 182.0 L 1.5 182.0 Z M 1.5 93.5 "></path></clipPath><g clip-path="url(#clip0x7fd041926cf0)"><text xml:space="preserve" font-family="CenturyGothic-Bold,Century Gothic" font-weight="bold" font-size="26.0" fill="#000000" transform="matrix(1.00, 0.00, -0.00, -1.00, 7.2, 127.7)">4</text><text xml:space="preserve" font-family="CenturyGothic-Bold,Century Gothic" font-weight="bold" font-size="26.0" fill="#000000" transform="matrix(1.00, 0.00, -0.00, -1.00, 21.8, 127.7)">x</text><text xml:space="preserve" font-family="CenturyGothic-Bold,Century Gothic" font-weight="bold" font-size="26.0" fill="#000000" transform="matrix(1.00, 0.00, -0.00, -1.00, 36.3, 127.7)"> </text><text xml:space="preserve" font-family="CenturyGothic-Bold,Century Gothic" font-weight="bold" font-size="26.0" fill="#000000" transform="matrix(1.00, 0.00, -0.00, -1.00, 43.6, 127.7)">l</text><text xml:space="preserve" font-family="CenturyGothic-Bold,Century Gothic" font-weight="bold" font-size="26.0" fill="#000000" transform="matrix(1.00, 0.00, -0.00, -1.00, 49.8, 127.7)">e</text><text xml:space="preserve" font-family="CenturyGothic-Bold,Century Gothic" font-weight="bold" font-size="26.0" fill="#000000" transform="matrix(1.00, 0.00, -0.00, -1.00, 66.5, 127.7)">s</text><text xml:space="preserve" font-family="CenturyGothic-Bold,Century Gothic" font-weight="bold" font-size="26.0" fill="#000000" transform="matrix(1.00, 0.00, -0.00, -1.00, 77.9, 127.7)">s</text></g></g></g></g><g><clipPath id="clip0x7fd041933920"><path d="M 0.5 183.0 L 877.5 183.0 L 877.5 1.0 L 0.5 1.0 Z M 0.5 183.0 "></path></clipPath><g clip-path="url(#clip0x7fd041933920)"><g><clipPath id="clip0x7fd041934080"><path d="M 96.0 93.5 L 189.6 93.5 L 189.6 182.0 L 96.0 182.0 Z M 96.0 93.5 "></path></clipPath><g clip-path="url(#clip0x7fd041934080)"><text xml:space="preserve" font-family="CenturyGothic-Bold,Century Gothic" font-weight="bold" font-size="26.0" fill="#000000" transform="matrix(1.00, 0.00, -0.00, -1.00, 109.5, 127.7)">Q</text><text xml:space="preserve" font-family="CenturyGothic-Bold,Century Gothic" font-weight="bold" font-size="26.0" fill="#000000" transform="matrix(1.00, 0.00, -0.00, -1.00, 131.4, 127.7)">=</text><text xml:space="preserve" font-family="CenturyGothic-Bold,Century Gothic" font-weight="bold" font-size="26.0" fill="#000000" transform="matrix(1.00, 0.00, -0.00, -1.00, 147.0, 127.7)">1</text><text xml:space="preserve" font-family="CenturyGothic-Bold,Century Gothic" font-weight="bold" font-size="26.0" fill="#000000" transform="matrix(1.00, 0.00, -0.00, -1.00, 161.5, 127.7)">0</text></g></g></g></g><g><clipPath id="clip0x7fd041936850"><path d="M 0.5 183.0 L 877.5 183.0 L 877.5 1.0 L 0.5 1.0 Z M 0.5 183.0 "></path></clipPath><g clip-path="url(#clip0x7fd041936850)"><g><clipPath id="clip0x7fd041936fb0"><path d="M 190.6 93.5 L 284.1 93.5 L 284.1 182.0 L 190.6 182.0 Z M 190.6 93.5 "></path></clipPath><g clip-path="url(#clip0x7fd041936fb0)"><text xml:space="preserve" font-family="CenturyGothic-Bold,Century Gothic" font-weight="bold" font-size="26.0" fill="#000000" transform="matrix(1.00, 0.00, -0.00, -1.00, 202.2, 127.7)">B</text><text xml:space="preserve" font-family="CenturyGothic-Bold,Century Gothic" font-weight="bold" font-size="26.0" fill="#000000" transform="matrix(1.00, 0.00, -0.00, -1.00, 217.3, 127.7)">r</text><text xml:space="preserve" font-family="CenturyGothic-Bold,Century Gothic" font-weight="bold" font-size="26.0" fill="#000000" transform="matrix(1.00, 0.00, -0.00, -1.00, 225.6, 127.7)">i</text><text xml:space="preserve" font-family="CenturyGothic-Bold,Century Gothic" font-weight="bold" font-size="26.0" fill="#000000" transform="matrix(1.00, 0.00, -0.00, -1.00, 231.9, 127.7)">g</text><text xml:space="preserve" font-family="CenturyGothic-Bold,Century Gothic" font-weight="bold" font-size="26.0" fill="#000000" transform="matrix(1.00, 0.00, -0.00, -1.00, 249.0, 127.7)">h</text><text xml:space="preserve" font-family="CenturyGothic-Bold,Century Gothic" font-weight="bold" font-size="26.0" fill="#000000" transform="matrix(1.00, 0.00, -0.00, -1.00, 264.6, 127.7)">t</text></g></g></g></g><g><clipPath id="clip0x7fd04193a630"><path d="M 0.5 183.0 L 877.5 183.0 L 877.5 1.0 L 0.5 1.0 Z M 0.5 183.0 "></path></clipPath><g clip-path="url(#clip0x7fd04193a630)"><g><clipPath id="clip0x7fd04193ad90"><path d="M 285.1 93.5 L 403.9 93.5 L 403.9 182.0 L 285.1 182.0 Z M 285.1 93.5 "></path></clipPath><g clip-path="url(#clip0x7fd04193ad90)"><text xml:space="preserve" font-family="CenturyGothic-Bold,Century Gothic" font-weight="bold" font-size="26.0" fill="#000000" transform="matrix(1.00, 0.00, -0.00, -1.00, 292.0, 127.7)">C</text><text xml:space="preserve" font-family="CenturyGothic-Bold,Century Gothic" font-weight="bold" font-size="26.0" fill="#000000" transform="matrix(1.00, 0.00, -0.00, -1.00, 312.2, 127.7)">o</text><text xml:space="preserve" font-family="CenturyGothic-Bold,Century Gothic" font-weight="bold" font-size="26.0" fill="#000000" transform="matrix(1.00, 0.00, -0.00, -1.00, 328.9, 127.7)">n</text><text xml:space="preserve" font-family="CenturyGothic-Bold,Century Gothic" font-weight="bold" font-size="26.0" fill="#000000" transform="matrix(1.00, 0.00, -0.00, -1.00, 344.5, 127.7)">t</text><text xml:space="preserve" font-family="CenturyGothic-Bold,Century Gothic" font-weight="bold" font-size="26.0" fill="#000000" transform="matrix(1.00, 0.00, -0.00, -1.00, 352.3, 127.7)">r</text><text xml:space="preserve" font-family="CenturyGothic-Bold,Century Gothic" font-weight="bold" font-size="26.0" fill="#000000" transform="matrix(1.00, 0.00, -0.00, -1.00, 360.6, 127.7)">a</text><text xml:space="preserve" font-family="CenturyGothic-Bold,Century Gothic" font-weight="bold" font-size="26.0" fill="#000000" transform="matrix(1.00, 0.00, -0.00, -1.00, 377.7, 127.7)">s</text><text xml:space="preserve" font-family="CenturyGothic-Bold,Century Gothic" font-weight="bold" font-size="26.0" fill="#000000" transform="matrix(1.00, 0.00, -0.00, -1.00, 389.2, 127.7)">t</text></g></g></g></g><g><clipPath id="clip0x7fd041919910"><path d="M 0.5 183.0 L 877.5 183.0 L 877.5 1.0 L 0.5 1.0 Z M 0.5 183.0 "></path></clipPath><g clip-path="url(#clip0x7fd041919910)"><g><clipPath id="clip0x7fd04191a030"><path d="M 404.9 93.5 L 498.4 93.5 L 498.4 182.0 L 404.9 182.0 Z M 404.9 93.5 "></path></clipPath><g clip-path="url(#clip0x7fd04191a030)"><text xml:space="preserve" font-family="CenturyGothic-Bold,Century Gothic" font-weight="bold" font-size="26.0" fill="#000000" transform="matrix(1.00, 0.00, -0.00, -1.00, 420.4, 143.7)">C</text><text xml:space="preserve" font-family="CenturyGothic-Bold,Century Gothic" font-weight="bold" font-size="26.0" fill="#000000" transform="matrix(1.00, 0.00, -0.00, -1.00, 440.7, 143.7)">r</text><text xml:space="preserve" font-family="CenturyGothic-Bold,Century Gothic" font-weight="bold" font-size="26.0" fill="#000000" transform="matrix(1.00, 0.00, -0.00, -1.00, 449.0, 143.7)">o</text><text xml:space="preserve" font-family="CenturyGothic-Bold,Century Gothic" font-weight="bold" font-size="26.0" fill="#000000" transform="matrix(1.00, 0.00, -0.00, -1.00, 465.7, 143.7)">p</text><text xml:space="preserve" font-family="CenturyGothic-Bold,Century Gothic" font-weight="bold" font-size="26.0" fill="#000000" transform="matrix(1.00, 0.00, -0.00, -1.00, 482.8, 143.7)"> </text><text xml:space="preserve" font-family="CenturyGothic-Bold,Century Gothic" font-weight="bold" font-size="26.0" fill="#000000" transform="matrix(1.00, 0.00, -0.00, -1.00, 418.9, 111.7)">s</text><text xml:space="preserve" font-family="CenturyGothic-Bold,Century Gothic" font-weight="bold" font-size="26.0" fill="#000000" transform="matrix(1.00, 0.00, -0.00, -1.00, 430.3, 111.7)">m</text><text xml:space="preserve" font-family="CenturyGothic-Bold,Century Gothic" font-weight="bold" font-size="26.0" fill="#000000" transform="matrix(1.00, 0.00, -0.00, -1.00, 454.8, 111.7)">a</text><text xml:space="preserve" font-family="CenturyGothic-Bold,Century Gothic" font-weight="bold" font-size="26.0" fill="#000000" transform="matrix(1.00, 0.00, -0.00, -1.00, 471.9, 111.7)">l</text><text xml:space="preserve" font-family="CenturyGothic-Bold,Century Gothic" font-weight="bold" font-size="26.0" fill="#000000" transform="matrix(1.00, 0.00, -0.00, -1.00, 478.1, 111.7)">l</text></g></g></g></g><g><clipPath id="clip0x7fd04191f450"><path d="M 0.5 183.0 L 877.5 183.0 L 877.5 1.0 L 0.5 1.0 Z M 0.5 183.0 "></path></clipPath><g clip-path="url(#clip0x7fd04191f450)"><g><clipPath id="clip0x7fd04191fc00"><path d="M 499.4 93.5 L 592.9 93.5 L 592.9 182.0 L 499.4 182.0 Z M 499.4 93.5 "></path></clipPath><g clip-path="url(#clip0x7fd04191fc00)"><text xml:space="preserve" font-family="CenturyGothic-Bold,Century Gothic" font-weight="bold" font-size="26.0" fill="#000000" transform="matrix(1.00, 0.00, -0.00, -1.00, 515.0, 143.7)">C</text><text xml:space="preserve" font-family="CenturyGothic-Bold,Century Gothic" font-weight="bold" font-size="26.0" fill="#000000" transform="matrix(1.00, 0.00, -0.00, -1.00, 535.2, 143.7)">r</text><text xml:space="preserve" font-family="CenturyGothic-Bold,Century Gothic" font-weight="bold" font-size="26.0" fill="#000000" transform="matrix(1.00, 0.00, -0.00, -1.00, 543.5, 143.7)">o</text><text xml:space="preserve" font-family="CenturyGothic-Bold,Century Gothic" font-weight="bold" font-size="26.0" fill="#000000" transform="matrix(1.00, 0.00, -0.00, -1.00, 560.2, 143.7)">p</text><text xml:space="preserve" font-family="CenturyGothic-Bold,Century Gothic" font-weight="bold" font-size="26.0" fill="#000000" transform="matrix(1.00, 0.00, -0.00, -1.00, 577.3, 143.7)"> </text><text xml:space="preserve" font-family="CenturyGothic-Bold,Century Gothic" font-weight="bold" font-size="26.0" fill="#000000" transform="matrix(1.00, 0.00, -0.00, -1.00, 527.2, 111.7)">l</text><text xml:space="preserve" font-family="CenturyGothic-Bold,Century Gothic" font-weight="bold" font-size="26.0" fill="#000000" transform="matrix(1.00, 0.00, -0.00, -1.00, 533.4, 111.7)">e</text><text xml:space="preserve" font-family="CenturyGothic-Bold,Century Gothic" font-weight="bold" font-size="26.0" fill="#000000" transform="matrix(1.00, 0.00, -0.00, -1.00, 550.0, 111.7)">f</text><text xml:space="preserve" font-family="CenturyGothic-Bold,Century Gothic" font-weight="bold" font-size="26.0" fill="#000000" transform="matrix(1.00, 0.00, -0.00, -1.00, 557.3, 111.7)">t</text></g></g></g></g><g><clipPath id="clip0x7fd041924970"><path d="M 0.5 183.0 L 877.5 183.0 L 877.5 1.0 L 0.5 1.0 Z M 0.5 183.0 "></path></clipPath><g clip-path="url(#clip0x7fd041924970)"><g><clipPath id="clip0x7fd0419250d0"><path d="M 593.9 93.5 L 687.4 93.5 L 687.4 182.0 L 593.9 182.0 Z M 593.9 93.5 "></path></clipPath><g clip-path="url(#clip0x7fd0419250d0)"><text xml:space="preserve" font-family="CenturyGothic-Bold,Century Gothic" font-weight="bold" font-size="26.0" fill="#000000" transform="matrix(1.00, 0.00, -0.00, -1.00, 600.1, 127.7)">R</text><text xml:space="preserve" font-family="CenturyGothic-Bold,Century Gothic" font-weight="bold" font-size="26.0" fill="#000000" transform="matrix(1.00, 0.00, -0.00, -1.00, 615.2, 127.7)">o</text><text xml:space="preserve" font-family="CenturyGothic-Bold,Century Gothic" font-weight="bold" font-size="26.0" fill="#000000" transform="matrix(1.00, 0.00, -0.00, -1.00, 631.8, 127.7)">t</text><text xml:space="preserve" font-family="CenturyGothic-Bold,Century Gothic" font-weight="bold" font-size="26.0" fill="#000000" transform="matrix(1.00, 0.00, -0.00, -1.00, 639.6, 127.7)">a</text><text xml:space="preserve" font-family="CenturyGothic-Bold,Century Gothic" font-weight="bold" font-size="26.0" fill="#000000" transform="matrix(1.00, 0.00, -0.00, -1.00, 656.8, 127.7)">t</text><text xml:space="preserve" font-family="CenturyGothic-Bold,Century Gothic" font-weight="bold" font-size="26.0" fill="#000000" transform="matrix(1.00, 0.00, -0.00, -1.00, 664.6, 127.7)">e</text></g></g></g></g><g><clipPath id="clip0x7fd041912600"><path d="M 0.5 183.0 L 877.5 183.0 L 877.5 1.0 L 0.5 1.0 Z M 0.5 183.0 "></path></clipPath><g clip-path="url(#clip0x7fd041912600)"><g><clipPath id="clip0x7fd041912d60"><path d="M 688.4 93.5 L 782.0 93.5 L 782.0 182.0 L 688.4 182.0 Z M 688.4 93.5 "></path></clipPath><g clip-path="url(#clip0x7fd041912d60)"><text xml:space="preserve" font-family="CenturyGothic-Bold,Century Gothic" font-weight="bold" font-size="26.0" fill="#000000" transform="matrix(1.00, 0.00, -0.00, -1.00, 699.1, 127.7)">A</text><text xml:space="preserve" font-family="CenturyGothic-Bold,Century Gothic" font-weight="bold" font-size="26.0" fill="#000000" transform="matrix(1.00, 0.00, -0.00, -1.00, 718.3, 127.7)">f</text><text xml:space="preserve" font-family="CenturyGothic-Bold,Century Gothic" font-weight="bold" font-size="26.0" fill="#000000" transform="matrix(1.00, 0.00, -0.00, -1.00, 725.6, 127.7)">f</text><text xml:space="preserve" font-family="CenturyGothic-Bold,Century Gothic" font-weight="bold" font-size="26.0" fill="#000000" transform="matrix(1.00, 0.00, -0.00, -1.00, 732.8, 127.7)">i</text><text xml:space="preserve" font-family="CenturyGothic-Bold,Century Gothic" font-weight="bold" font-size="26.0" fill="#000000" transform="matrix(1.00, 0.00, -0.00, -1.00, 739.0, 127.7)">n</text><text xml:space="preserve" font-family="CenturyGothic-Bold,Century Gothic" font-weight="bold" font-size="26.0" fill="#000000" transform="matrix(1.00, 0.00, -0.00, -1.00, 754.6, 127.7)">e</text></g></g></g></g><g><clipPath id="clip0x7fd041900440"><path d="M 0.5 183.0 L 877.5 183.0 L 877.5 1.0 L 0.5 1.0 Z M 0.5 183.0 "></path></clipPath><g clip-path="url(#clip0x7fd041900440)"><g><clipPath id="clip0x7fd041900ba0"><path d="M 783.0 93.5 L 876.5 93.5 L 876.5 182.0 L 783.0 182.0 Z M 783.0 93.5 "></path></clipPath><g clip-path="url(#clip0x7fd041900ba0)"><text xml:space="preserve" font-family="CenturyGothic-Bold,Century Gothic" font-weight="bold" font-size="26.0" fill="#000000" transform="matrix(1.00, 0.00, -0.00, -1.00, 791.5, 127.7)">L</text><text xml:space="preserve" font-family="CenturyGothic-Bold,Century Gothic" font-weight="bold" font-size="26.0" fill="#000000" transform="matrix(1.00, 0.00, -0.00, -1.00, 802.9, 127.7)">e</text><text xml:space="preserve" font-family="CenturyGothic-Bold,Century Gothic" font-weight="bold" font-size="26.0" fill="#000000" transform="matrix(1.00, 0.00, -0.00, -1.00, 819.6, 127.7)">n</text><text xml:space="preserve" font-family="CenturyGothic-Bold,Century Gothic" font-weight="bold" font-size="26.0" fill="#000000" transform="matrix(1.00, 0.00, -0.00, -1.00, 835.2, 127.7)">n</text><text xml:space="preserve" font-family="CenturyGothic-Bold,Century Gothic" font-weight="bold" font-size="26.0" fill="#000000" transform="matrix(1.00, 0.00, -0.00, -1.00, 850.8, 127.7)">a</text></g></g></g></g><g><clipPath id="clip0x7fd041903a20"><path d="M 0.5 183.0 L 877.5 183.0 L 877.5 1.0 L 0.5 1.0 Z M 0.5 183.0 "></path></clipPath><g clip-path="url(#clip0x7fd041903a20)"><g><clipPath id="clip0x7fd041904170"><path d="M 1.5 2.0 L 95.0 2.0 L 95.0 90.5 L 1.5 90.5 Z M 1.5 2.0 "></path></clipPath><g clip-path="url(#clip0x7fd041904170)"><text xml:space="preserve" font-family="CenturyGothic-Bold,Century Gothic" font-weight="bold" font-size="26.0" fill="#000000" transform="matrix(1.00, 0.00, -0.00, -1.00, 22.8, 36.3)">0</text><text xml:space="preserve" font-family="CenturyGothic-Bold,Century Gothic" font-weight="bold" font-size="26.0" fill="#000000" transform="matrix(1.00, 0.00, -0.00, -1.00, 37.4, 36.3)">.</text><text xml:space="preserve" font-family="CenturyGothic-Bold,Century Gothic" font-weight="bold" font-size="26.0" fill="#000000" transform="matrix(1.00, 0.00, -0.00, -1.00, 44.6, 36.3)">7</text><text xml:space="preserve" font-family="CenturyGothic-Bold,Century Gothic" font-weight="bold" font-size="26.0" fill="#000000" transform="matrix(1.00, 0.00, -0.00, -1.00, 59.2, 36.3)">7</text></g></g></g></g><g><clipPath id="clip0x7fd041906970"><path d="M 0.5 183.0 L 877.5 183.0 L 877.5 1.0 L 0.5 1.0 Z M 0.5 183.0 "></path></clipPath><g clip-path="url(#clip0x7fd041906970)"><g><clipPath id="clip0x7fd0419070a0"><path d="M 96.0 2.0 L 189.6 2.0 L 189.6 90.5 L 96.0 90.5 Z M 96.0 2.0 "></path></clipPath><g clip-path="url(#clip0x7fd0419070a0)"><text xml:space="preserve" font-family="CenturyGothic-Bold,Century Gothic" font-weight="bold" font-size="26.0" fill="#000000" transform="matrix(1.00, 0.00, -0.00, -1.00, 117.3, 36.3)">0</text><text xml:space="preserve" font-family="CenturyGothic-Bold,Century Gothic" font-weight="bold" font-size="26.0" fill="#000000" transform="matrix(1.00, 0.00, -0.00, -1.00, 131.9, 36.3)">.</text><text xml:space="preserve" font-family="CenturyGothic-Bold,Century Gothic" font-weight="bold" font-size="26.0" fill="#000000" transform="matrix(1.00, 0.00, -0.00, -1.00, 139.2, 36.3)">8</text><text xml:space="preserve" font-family="CenturyGothic-Bold,Century Gothic" font-weight="bold" font-size="26.0" fill="#000000" transform="matrix(1.00, 0.00, -0.00, -1.00, 153.7, 36.3)">2</text></g></g></g></g><g><clipPath id="clip0x7fd041909960"><path d="M 0.5 183.0 L 877.5 183.0 L 877.5 1.0 L 0.5 1.0 Z M 0.5 183.0 "></path></clipPath><g clip-path="url(#clip0x7fd041909960)"><g><clipPath id="clip0x7fd04190a0c0"><path d="M 190.6 2.0 L 284.1 2.0 L 284.1 90.5 L 190.6 90.5 Z M 190.6 2.0 "></path></clipPath><g clip-path="url(#clip0x7fd04190a0c0)"><text xml:space="preserve" font-family="CenturyGothic-Bold,Century Gothic" font-weight="bold" font-size="26.0" fill="#000000" transform="matrix(1.00, 0.00, -0.00, -1.00, 211.8, 36.3)">0</text><text xml:space="preserve" font-family="CenturyGothic-Bold,Century Gothic" font-weight="bold" font-size="26.0" fill="#000000" transform="matrix(1.00, 0.00, -0.00, -1.00, 226.4, 36.3)">.</text><text xml:space="preserve" font-family="CenturyGothic-Bold,Century Gothic" font-weight="bold" font-size="26.0" fill="#000000" transform="matrix(1.00, 0.00, -0.00, -1.00, 233.7, 36.3)">8</text><text xml:space="preserve" font-family="CenturyGothic-Bold,Century Gothic" font-weight="bold" font-size="26.0" fill="#000000" transform="matrix(1.00, 0.00, -0.00, -1.00, 248.2, 36.3)">8</text></g></g></g></g><g><clipPath id="clip0x7fd04190c890"><path d="M 0.5 183.0 L 877.5 183.0 L 877.5 1.0 L 0.5 1.0 Z M 0.5 183.0 "></path></clipPath><g clip-path="url(#clip0x7fd04190c890)"><g><clipPath id="clip0x7fd04190cff0"><path d="M 285.1 2.0 L 403.9 2.0 L 403.9 90.5 L 285.1 90.5 Z M 285.1 2.0 "></path></clipPath><g clip-path="url(#clip0x7fd04190cff0)"><text xml:space="preserve" font-family="CenturyGothic-Bold,Century Gothic" font-weight="bold" font-size="26.0" fill="#000000" transform="matrix(1.00, 0.00, -0.00, -1.00, 326.3, 36.3)">0</text><text xml:space="preserve" font-family="CenturyGothic-Bold,Century Gothic" font-weight="bold" font-size="26.0" fill="#000000" transform="matrix(1.00, 0.00, -0.00, -1.00, 340.8, 36.3)">.</text><text xml:space="preserve" font-family="CenturyGothic-Bold,Century Gothic" font-weight="bold" font-size="26.0" fill="#000000" transform="matrix(1.00, 0.00, -0.00, -1.00, 348.1, 36.3)">9</text></g></g></g></g><g><clipPath id="clip0x7fd04190f110"><path d="M 0.5 183.0 L 877.5 183.0 L 877.5 1.0 L 0.5 1.0 Z M 0.5 183.0 "></path></clipPath><g clip-path="url(#clip0x7fd04190f110)"><g><clipPath id="clip0x7fd04190f870"><path d="M 404.9 2.0 L 498.4 2.0 L 498.4 90.5 L 404.9 90.5 Z M 404.9 2.0 "></path></clipPath><g clip-path="url(#clip0x7fd04190f870)"><text xml:space="preserve" font-family="CenturyGothic-Bold,Century Gothic" font-weight="bold" font-size="26.0" fill="#000000" transform="matrix(1.00, 0.00, -0.00, -1.00, 426.2, 36.3)">0</text><text xml:space="preserve" font-family="CenturyGothic-Bold,Century Gothic" font-weight="bold" font-size="26.0" fill="#000000" transform="matrix(1.00, 0.00, -0.00, -1.00, 440.7, 36.3)">.</text><text xml:space="preserve" font-family="CenturyGothic-Bold,Century Gothic" font-weight="bold" font-size="26.0" fill="#000000" transform="matrix(1.00, 0.00, -0.00, -1.00, 448.0, 36.3)">5</text><text xml:space="preserve" font-family="CenturyGothic-Bold,Century Gothic" font-weight="bold" font-size="26.0" fill="#000000" transform="matrix(1.00, 0.00, -0.00, -1.00, 462.6, 36.3)">1</text></g></g></g></g><g><clipPath id="clip0x7fd041dde660"><path d="M 0.5 183.0 L 877.5 183.0 L 877.5 1.0 L 0.5 1.0 Z M 0.5 183.0 "></path></clipPath><g clip-path="url(#clip0x7fd041dde660)"><g><clipPath id="clip0x7fd041ddedc0"><path d="M 499.4 2.0 L 592.9 2.0 L 592.9 90.5 L 499.4 90.5 Z M 499.4 2.0 "></path></clipPath><g clip-path="url(#clip0x7fd041ddedc0)"><text xml:space="preserve" font-family="CenturyGothic-Bold,Century Gothic" font-weight="bold" font-size="26.0" fill="#000000" transform="matrix(1.00, 0.00, -0.00, -1.00, 520.7, 36.3)">0</text><text xml:space="preserve" font-family="CenturyGothic-Bold,Century Gothic" font-weight="bold" font-size="26.0" fill="#000000" transform="matrix(1.00, 0.00, -0.00, -1.00, 535.2, 36.3)">.</text><text xml:space="preserve" font-family="CenturyGothic-Bold,Century Gothic" font-weight="bold" font-size="26.0" fill="#000000" transform="matrix(1.00, 0.00, -0.00, -1.00, 542.5, 36.3)">5</text><text xml:space="preserve" font-family="CenturyGothic-Bold,Century Gothic" font-weight="bold" font-size="26.0" fill="#000000" transform="matrix(1.00, 0.00, -0.00, -1.00, 557.1, 36.3)">3</text></g></g></g></g><g><clipPath id="clip0x7fd041de1590"><path d="M 0.5 183.0 L 877.5 183.0 L 877.5 1.0 L 0.5 1.0 Z M 0.5 183.0 "></path></clipPath><g clip-path="url(#clip0x7fd041de1590)"><g><clipPath id="clip0x7fd041de1d30"><path d="M 593.9 2.0 L 687.4 2.0 L 687.4 90.5 L 593.9 90.5 Z M 593.9 2.0 "></path></clipPath><g clip-path="url(#clip0x7fd041de1d30)"><text xml:space="preserve" font-family="CenturyGothic-Bold,Century Gothic" font-weight="bold" font-size="26.0" fill="#000000" transform="matrix(1.00, 0.00, -0.00, -1.00, 622.5, 36.3)">0</text><text xml:space="preserve" font-family="CenturyGothic-Bold,Century Gothic" font-weight="bold" font-size="26.0" fill="#000000" transform="matrix(1.00, 0.00, -0.00, -1.00, 637.0, 36.3)">.</text><text xml:space="preserve" font-family="CenturyGothic-Bold,Century Gothic" font-weight="bold" font-size="26.0" fill="#000000" transform="matrix(1.00, 0.00, -0.00, -1.00, 644.3, 36.3)">5</text></g></g></g></g><g><clipPath id="clip0x7fd041de3e70"><path d="M 0.5 183.0 L 877.5 183.0 L 877.5 1.0 L 0.5 1.0 Z M 0.5 183.0 "></path></clipPath><g clip-path="url(#clip0x7fd041de3e70)"><g><clipPath id="clip0x7fd041de45d0"><path d="M 688.4 2.0 L 782.0 2.0 L 782.0 90.5 L 688.4 90.5 Z M 688.4 2.0 "></path></clipPath><g clip-path="url(#clip0x7fd041de45d0)"><text xml:space="preserve" font-family="CenturyGothic-Bold,Century Gothic" font-weight="bold" font-size="26.0" fill="#000000" transform="matrix(1.00, 0.00, -0.00, -1.00, 717.0, 36.3)">0</text><text xml:space="preserve" font-family="CenturyGothic-Bold,Century Gothic" font-weight="bold" font-size="26.0" fill="#000000" transform="matrix(1.00, 0.00, -0.00, -1.00, 731.6, 36.3)">.</text><text xml:space="preserve" font-family="CenturyGothic-Bold,Century Gothic" font-weight="bold" font-size="26.0" fill="#000000" transform="matrix(1.00, 0.00, -0.00, -1.00, 738.8, 36.3)">5</text></g></g></g></g><g><clipPath id="clip0x7fd041de66f0"><path d="M 0.5 183.0 L 877.5 183.0 L 877.5 1.0 L 0.5 1.0 Z M 0.5 183.0 "></path></clipPath><g clip-path="url(#clip0x7fd041de66f0)"><g><clipPath id="clip0x7fd041de6e50"><path d="M 783.0 2.0 L 876.5 2.0 L 876.5 90.5 L 783.0 90.5 Z M 783.0 2.0 "></path></clipPath><g clip-path="url(#clip0x7fd041de6e50)"><text xml:space="preserve" font-family="CenturyGothic-Bold,Century Gothic" font-weight="bold" font-size="26.0" fill="#000000" transform="matrix(1.00, 0.00, -0.00, -1.00, 811.5, 36.3)">0</text><text xml:space="preserve" font-family="CenturyGothic-Bold,Century Gothic" font-weight="bold" font-size="26.0" fill="#000000" transform="matrix(1.00, 0.00, -0.00, -1.00, 826.1, 36.3)">.</text><text xml:space="preserve" font-family="CenturyGothic-Bold,Century Gothic" font-weight="bold" font-size="26.0" fill="#000000" transform="matrix(1.00, 0.00, -0.00, -1.00, 833.4, 36.3)">5</text></g></g></g></g><g><clipPath id="clip0x7fd041de8f70"><path d="M 0.5 183.0 L 877.5 183.0 L 877.5 1.0 L 0.5 1.0 Z M 0.5 183.0 "></path></clipPath><g clip-path="url(#clip0x7fd041de8f70)"><g><clipPath id="clip0x7fd041de96a0"><path d="M 0.0 0.0 L 878.0 0.0 L 878.0 184.0 L 0.0 184.0 Z M 0.0 0.0 "></path></clipPath><g clip-path="url(#clip0x7fd041de96a0)"><path d="M 96.5 1.5 L 96.5 92.5 " fill="none" stroke="#FFFFFF" stroke-width="1.00" stroke-linejoin="bevel" transform="matrix(1.00, 0.00, 0.00, -1.00, -1.0, 184.5)"></path><path d="M 96.5 92.5 L 96.5 183.5 " fill="none" stroke="#FFFFFF" stroke-width="1.00" stroke-linejoin="bevel" transform="matrix(1.00, 0.00, 0.00, -1.00, -1.0, 184.5)"></path><path d="M 191.0 1.5 L 191.0 92.5 " fill="none" stroke="#FFFFFF" stroke-width="1.00" stroke-linejoin="bevel" transform="matrix(1.00, 0.00, 0.00, -1.00, -1.0, 184.5)"></path><path d="M 191.0 92.5 L 191.0 183.5 " fill="none" stroke="#FFFFFF" stroke-width="1.00" stroke-linejoin="bevel" transform="matrix(1.00, 0.00, 0.00, -1.00, -1.0, 184.5)"></path><path d="M 285.6 1.5 L 285.6 92.5 " fill="none" stroke="#FFFFFF" stroke-width="1.00" stroke-linejoin="bevel" transform="matrix(1.00, 0.00, 0.00, -1.00, -1.0, 184.5)"></path><path d="M 285.6 92.5 L 285.6 183.5 " fill="none" stroke="#FFFFFF" stroke-width="1.00" stroke-linejoin="bevel" transform="matrix(1.00, 0.00, 0.00, -1.00, -1.0, 184.5)"></path><path d="M 405.4 1.5 L 405.4 92.5 " fill="none" stroke="#FFFFFF" stroke-width="1.00" stroke-linejoin="bevel" transform="matrix(1.00, 0.00, 0.00, -1.00, -1.0, 184.5)"></path><path d="M 405.4 92.5 L 405.4 183.5 " fill="none" stroke="#FFFFFF" stroke-width="1.00" stroke-linejoin="bevel" transform="matrix(1.00, 0.00, 0.00, -1.00, -1.0, 184.5)"></path><path d="M 499.9 1.5 L 499.9 92.5 " fill="none" stroke="#FFFFFF" stroke-width="1.00" stroke-linejoin="bevel" transform="matrix(1.00, 0.00, 0.00, -1.00, -1.0, 184.5)"></path><path d="M 499.9 92.5 L 499.9 183.5 " fill="none" stroke="#FFFFFF" stroke-width="1.00" stroke-linejoin="bevel" transform="matrix(1.00, 0.00, 0.00, -1.00, -1.0, 184.5)"></path><path d="M 594.4 1.5 L 594.4 92.5 " fill="none" stroke="#FFFFFF" stroke-width="1.00" stroke-linejoin="bevel" transform="matrix(1.00, 0.00, 0.00, -1.00, -1.0, 184.5)"></path><path d="M 594.4 92.5 L 594.4 183.5 " fill="none" stroke="#FFFFFF" stroke-width="1.00" stroke-linejoin="bevel" transform="matrix(1.00, 0.00, 0.00, -1.00, -1.0, 184.5)"></path><path d="M 688.9 1.5 L 688.9 92.5 " fill="none" stroke="#FFFFFF" stroke-width="1.00" stroke-linejoin="bevel" transform="matrix(1.00, 0.00, 0.00, -1.00, -1.0, 184.5)"></path><path d="M 688.9 92.5 L 688.9 183.5 " fill="none" stroke="#FFFFFF" stroke-width="1.00" stroke-linejoin="bevel" transform="matrix(1.00, 0.00, 0.00, -1.00, -1.0, 184.5)"></path><path d="M 783.4 1.5 L 783.4 92.5 " fill="none" stroke="#FFFFFF" stroke-width="1.00" stroke-linejoin="bevel" transform="matrix(1.00, 0.00, 0.00, -1.00, -1.0, 184.5)"></path><path d="M 783.4 92.5 L 783.4 183.5 " fill="none" stroke="#FFFFFF" stroke-width="1.00" stroke-linejoin="bevel" transform="matrix(1.00, 0.00, 0.00, -1.00, -1.0, 184.5)"></path><path d="M 1.5 92.5 L 878.5 92.5 " fill="none" stroke="#FFFFFF" stroke-width="3.00" stroke-linejoin="bevel" transform="matrix(1.00, 0.00, 0.00, -1.00, -1.0, 184.5)"></path><path d="M 2.0 1.5 L 2.0 92.5 " fill="none" stroke="#FFFFFF" stroke-width="1.00" stroke-linejoin="bevel" transform="matrix(1.00, 0.00, 0.00, -1.00, -1.0, 184.5)"></path><path d="M 2.0 92.5 L 2.0 183.5 " fill="none" stroke="#FFFFFF" stroke-width="1.00" stroke-linejoin="bevel" transform="matrix(1.00, 0.00, 0.00, -1.00, -1.0, 184.5)"></path><path d="M 878.0 1.5 L 878.0 92.5 " fill="none" stroke="#FFFFFF" stroke-width="1.00" stroke-linejoin="bevel" transform="matrix(1.00, 0.00, 0.00, -1.00, -1.0, 184.5)"></path><path d="M 878.0 92.5 L 878.0 183.5 " fill="none" stroke="#FFFFFF" stroke-width="1.00" stroke-linejoin="bevel" transform="matrix(1.00, 0.00, 0.00, -1.00, -1.0, 184.5)"></path><path d="M 1.5 2.0 L 878.5 2.0 " fill="none" stroke="#FFFFFF" stroke-width="1.00" stroke-linejoin="bevel" transform="matrix(1.00, 0.00, 0.00, -1.00, -1.0, 184.5)"></path><path d="M 1.5 183.0 L 878.5 183.0 " fill="none" stroke="#FFFFFF" stroke-width="1.00" stroke-linejoin="bevel" transform="matrix(1.00, 0.00, 0.00, -1.00, -1.0, 184.5)"></path></g></g></g></g></g></g></svg>