<?xml version="1.0" encoding="UTF-8" standalone="no"?><svg xmlns="http://www.w3.org/2000/svg" xmlns:xlink="http://www.w3.org/1999/xlink" clip-rule="evenodd" stroke-miterlimit="10" viewBox="0 0 273 53"><desc>SVG generated by Keynote</desc><defs></defs><g transform="matrix(1.00, 0.00, -0.00, -1.00, 0.0, 53.0)"><image xlink:href="914FF24BC2DBBAA981875AB5110D949A.png" width="20.00" height="20.00" transform="matrix(1.00, 0.00, -0.00, -1.00, 5.0, 36.0)"></image><text xml:space="preserve" font-family="CenturyGothic,Century Gothic" font-size="36.0" fill="#000000" transform="matrix(1.00, 0.00, -0.00, -1.00, 5.4, 11.6)">•</text><image xlink:href="3B9AC6CB0863AD6A6BF98975E01A9D01.png" width="162.00" height="30.00" transform="matrix(1.00, 0.00, -0.00, -1.00, 28.0, 38.0)"></image><text xml:space="preserve" font-family="CenturyGothic,Century Gothic" font-size="28.8" fill="#0000FF" transform="matrix(1.00, 0.00, -0.00, -1.00, 32.2, 11.6)">G</text><text xml:space="preserve" font-family="CenturyGothic,Century Gothic" font-size="28.8" fill="#0000FF" transform="matrix(1.00, 0.00, -0.00, -1.00, 57.3, 11.6)">E</text><text xml:space="preserve" font-family="CenturyGothic,Century Gothic" font-size="28.8" fill="#0000FF" transform="matrix(1.00, 0.00, -0.00, -1.00, 72.8, 11.6)">T</text><text xml:space="preserve" font-family="CenturyGothic,Century Gothic" font-size="28.8" fill="#0000FF" transform="matrix(1.00, 0.00, -0.00, -1.00, 85.0, 11.6)">G</text><text xml:space="preserve" font-family="CenturyGothic,Century Gothic" font-size="28.8" fill="#0000FF" transform="matrix(1.00, 0.00, -0.00, -1.00, 110.2, 11.6)">O</text><text xml:space="preserve" font-family="CenturyGothic,Century Gothic" font-size="28.8" fill="#0000FF" transform="matrix(1.00, 0.00, -0.00, -1.00, 135.2, 11.6)">I</text><text xml:space="preserve" font-family="CenturyGothic,Century Gothic" font-size="28.8" fill="#0000FF" transform="matrix(1.00, 0.00, -0.00, -1.00, 141.7, 11.6)">N</text><text xml:space="preserve" font-family="CenturyGothic,Century Gothic" font-size="28.8" fill="#0000FF" transform="matrix(1.00, 0.00, -0.00, -1.00, 163.0, 11.6)">G</text><image xlink:href="F6A3E28BA8FF89D3A065223438E17C25.png" width="13.00" height="13.00" transform="matrix(1.00, 0.00, -0.00, -1.00, 186.0, 21.0)"></image><text xml:space="preserve" font-family="CenturyGothic,Century Gothic" font-size="36.0" fill="#0000FF" transform="matrix(1.00, 0.00, -0.00, -1.00, 188.1, 11.6)">.</text><image xlink:href="9294AA818D819C5AC05FCE1180264C0F.png" width="81.00" height="30.00" transform="matrix(1.00, 0.00, -0.00, -1.00, 194.0, 38.0)"></image><text xml:space="preserve" font-family="CenturyGothic,Century Gothic" font-size="28.8" fill="#0000FF" transform="matrix(1.00, 0.00, -0.00, -1.00, 198.1, 11.6)">C</text><text xml:space="preserve" font-family="CenturyGothic,Century Gothic" font-size="28.8" fill="#0000FF" transform="matrix(1.00, 0.00, -0.00, -1.00, 221.5, 11.6)">O</text><text xml:space="preserve" font-family="CenturyGothic,Century Gothic" font-size="28.8" fill="#0000FF" transform="matrix(1.00, 0.00, -0.00, -1.00, 246.5, 11.6)">M</text><g><clipPath id="clip0x7fd045c4de80"><path d="M 31.2 7.0 L 273.0 7.0 L 273.0 10.8 L 31.2 10.8 Z M 31.2 7.0 "></path></clipPath><g clip-path="url(#clip0x7fd045c4de80)"><path d="M 30.7 49.6 L 271.5 49.6 " fill="none" stroke="#0000FF" stroke-width="1.79" transform="matrix(1.00, 0.00, 0.00, -1.00, 1.5, 58.5)"></path></g></g></g></svg>