<?xml version="1.0" encoding="UTF-8" standalone="no"?><svg xmlns="http://www.w3.org/2000/svg" xmlns:xlink="http://www.w3.org/1999/xlink" clip-rule="evenodd" stroke-miterlimit="10" viewBox="0 0 1024 768"><desc>SVG generated by Keynote</desc><defs></defs><g transform="matrix(1.00, 0.00, -0.00, -1.00, 0.0, 768.0)"><path d="M 0.0 768.0 L 1024.0 768.0 L 1024.0 0.0 L 0.0 0.0 Z M 0.0 768.0 " fill="#FFFFFF"></path><image xlink:href="../../2228AE9C-3706-437F-8379-D21BA5B8F0CA/assets/C2129A3EE7512E75FEE2A48785F9B6A3.png" width="1033.00" height="179.00" transform="matrix(0.21, 0.00, -0.00, -0.21, 40.0, 96.0)"></image><image xlink:href="../../2228AE9C-3706-437F-8379-D21BA5B8F0CA/assets/5BD3BF88B93862A21D4E58AC4CB7CFA6.png" width="291.00" height="49.00" transform="matrix(1.00, 0.00, -0.00, -1.00, 97.0, 667.0)"></image><text xml:space="preserve" font-family="CenturyGothic,Century Gothic" font-size="58.0" fill="#000000" transform="matrix(1.00, 0.00, -0.00, -1.00, 99.7, 619.9)">A</text><text xml:space="preserve" font-family="CenturyGothic,Century Gothic" font-size="58.0" fill="#000000" transform="matrix(1.00, 0.00, -0.00, -1.00, 142.6, 619.9)">B</text><text xml:space="preserve" font-family="CenturyGothic,Century Gothic" font-size="58.0" fill="#000000" transform="matrix(1.00, 0.00, -0.00, -1.00, 175.9, 619.9)">O</text><text xml:space="preserve" font-family="CenturyGothic,Century Gothic" font-size="58.0" fill="#000000" transform="matrix(1.00, 0.00, -0.00, -1.00, 226.3, 619.9)">U</text><text xml:space="preserve" font-family="CenturyGothic,Century Gothic" font-size="58.0" fill="#000000" transform="matrix(1.00, 0.00, -0.00, -1.00, 264.3, 619.9)">T</text><text xml:space="preserve" font-family="CenturyGothic,Century Gothic" font-size="58.0" fill="#000000" transform="matrix(1.00, 0.00, -0.00, -1.00, 289.0, 619.9)"> </text><text xml:space="preserve" font-family="CenturyGothic,Century Gothic" font-size="58.0" fill="#000000" transform="matrix(1.00, 0.00, -0.00, -1.00, 305.0, 619.9)">M</text><text xml:space="preserve" font-family="CenturyGothic,Century Gothic" font-size="58.0" fill="#000000" transform="matrix(1.00, 0.00, -0.00, -1.00, 358.3, 619.9)">E</text><image xlink:href="../../228DD652-F443-4BBA-86C6-F80AC005D839/assets/914FF24BC2DBBAA981875AB5110D949A.png" width="20.00" height="20.00" transform="matrix(1.00, 0.00, -0.00, -1.00, 58.0, 569.0)"></image><text xml:space="preserve" font-family="CenturyGothic,Century Gothic" font-size="36.0" fill="#000000" transform="matrix(1.00, 0.00, -0.00, -1.00, 58.4, 544.6)">•</text><image xlink:href="../../228DD652-F443-4BBA-86C6-F80AC005D839/assets/3B9AC6CB0863AD6A6BF98975E01A9D01.png" width="162.00" height="30.00" transform="matrix(1.00, 0.00, -0.00, -1.00, 81.0, 571.0)"></image><text xml:space="preserve" font-family="CenturyGothic,Century Gothic" font-size="28.8" fill="#0000FF" transform="matrix(1.00, 0.00, -0.00, -1.00, 85.2, 544.6)">G</text><text xml:space="preserve" font-family="CenturyGothic,Century Gothic" font-size="28.8" fill="#0000FF" transform="matrix(1.00, 0.00, -0.00, -1.00, 110.3, 544.6)">E</text><text xml:space="preserve" font-family="CenturyGothic,Century Gothic" font-size="28.8" fill="#0000FF" transform="matrix(1.00, 0.00, -0.00, -1.00, 125.8, 544.6)">T</text><text xml:space="preserve" font-family="CenturyGothic,Century Gothic" font-size="28.8" fill="#0000FF" transform="matrix(1.00, 0.00, -0.00, -1.00, 138.0, 544.6)">G</text><text xml:space="preserve" font-family="CenturyGothic,Century Gothic" font-size="28.8" fill="#0000FF" transform="matrix(1.00, 0.00, -0.00, -1.00, 163.2, 544.6)">O</text><text xml:space="preserve" font-family="CenturyGothic,Century Gothic" font-size="28.8" fill="#0000FF" transform="matrix(1.00, 0.00, -0.00, -1.00, 188.2, 544.6)">I</text><text xml:space="preserve" font-family="CenturyGothic,Century Gothic" font-size="28.8" fill="#0000FF" transform="matrix(1.00, 0.00, -0.00, -1.00, 194.7, 544.6)">N</text><text xml:space="preserve" font-family="CenturyGothic,Century Gothic" font-size="28.8" fill="#0000FF" transform="matrix(1.00, 0.00, -0.00, -1.00, 216.0, 544.6)">G</text><image xlink:href="../../228DD652-F443-4BBA-86C6-F80AC005D839/assets/F6A3E28BA8FF89D3A065223438E17C25.png" width="13.00" height="13.00" transform="matrix(1.00, 0.00, -0.00, -1.00, 239.0, 554.0)"></image><text xml:space="preserve" font-family="CenturyGothic,Century Gothic" font-size="36.0" fill="#0000FF" transform="matrix(1.00, 0.00, -0.00, -1.00, 241.1, 544.6)">.</text><image xlink:href="../../228DD652-F443-4BBA-86C6-F80AC005D839/assets/9294AA818D819C5AC05FCE1180264C0F.png" width="81.00" height="30.00" transform="matrix(1.00, 0.00, -0.00, -1.00, 247.0, 571.0)"></image><text xml:space="preserve" font-family="CenturyGothic,Century Gothic" font-size="28.8" fill="#0000FF" transform="matrix(1.00, 0.00, -0.00, -1.00, 251.1, 544.6)">C</text><text xml:space="preserve" font-family="CenturyGothic,Century Gothic" font-size="28.8" fill="#0000FF" transform="matrix(1.00, 0.00, -0.00, -1.00, 274.5, 544.6)">O</text><text xml:space="preserve" font-family="CenturyGothic,Century Gothic" font-size="28.8" fill="#0000FF" transform="matrix(1.00, 0.00, -0.00, -1.00, 299.5, 544.6)">M</text><g><clipPath id="clip0x7fd04560c3b0"><path d="M 84.2 540.0 L 326.0 540.0 L 326.0 543.8 L 84.2 543.8 Z M 84.2 540.0 "></path></clipPath><g clip-path="url(#clip0x7fd04560c3b0)"><path d="M 30.7 49.6 L 271.5 49.6 " fill="none" stroke="#0000FF" stroke-width="1.79" transform="matrix(1.00, 0.00, 0.00, -1.00, 54.5, 591.5)"></path></g></g><image xlink:href="../../228DD652-F443-4BBA-86C6-F80AC005D839/assets/914FF24BC2DBBAA981875AB5110D949A.png" width="20.00" height="20.00" transform="matrix(1.00, 0.00, -0.00, -1.00, 88.0, 519.0)"></image><text xml:space="preserve" font-family="CenturyGothic,Century Gothic" font-size="36.0" fill="#000000" transform="matrix(1.00, 0.00, -0.00, -1.00, 88.4, 494.6)">•</text><image xlink:href="../../228DD652-F443-4BBA-86C6-F80AC005D839/assets/304B880244697C7DDD18AAF2DF50DEC8.png" width="75.00" height="39.00" transform="matrix(1.00, 0.00, -0.00, -1.00, 113.0, 527.0)"></image><text xml:space="preserve" font-family="CenturyGothic,Century Gothic" font-size="36.0" fill="#000000" transform="matrix(1.00, 0.00, -0.00, -1.00, 115.2, 494.6)">B</text><text xml:space="preserve" font-family="CenturyGothic,Century Gothic" font-size="36.0" fill="#000000" transform="matrix(1.00, 0.00, -0.00, -1.00, 135.9, 494.6)">2</text><text xml:space="preserve" font-family="CenturyGothic,Century Gothic" font-size="36.0" fill="#000000" transform="matrix(1.00, 0.00, -0.00, -1.00, 155.9, 494.6)">B</text><text xml:space="preserve" font-family="CenturyGothic,Century Gothic" font-size="36.0" fill="#000000" transform="matrix(1.00, 0.00, -0.00, -1.00, 176.5, 494.6)">,</text><text xml:space="preserve" font-family="CenturyGothic,Century Gothic" font-size="36.0" fill="#000000" transform="matrix(1.00, 0.00, -0.00, -1.00, 186.5, 494.6)"> </text><image xlink:href="../../228DD652-F443-4BBA-86C6-F80AC005D839/assets/8D1F3654E49DED7186B3BA8D2AFE68BD.png" width="179.00" height="30.00" transform="matrix(1.00, 0.00, -0.00, -1.00, 192.0, 521.0)"></image><text xml:space="preserve" font-family="CenturyGothic,Century Gothic" font-size="28.8" fill="#000000" transform="matrix(1.00, 0.00, -0.00, -1.00, 196.4, 494.6)">C</text><text xml:space="preserve" font-family="CenturyGothic,Century Gothic" font-size="28.8" fill="#000000" transform="matrix(1.00, 0.00, -0.00, -1.00, 219.9, 494.6)">O</text><text xml:space="preserve" font-family="CenturyGothic,Century Gothic" font-size="28.8" fill="#000000" transform="matrix(1.00, 0.00, -0.00, -1.00, 244.9, 494.6)">R</text><text xml:space="preserve" font-family="CenturyGothic,Century Gothic" font-size="28.8" fill="#000000" transform="matrix(1.00, 0.00, -0.00, -1.00, 262.4, 494.6)">P</text><text xml:space="preserve" font-family="CenturyGothic,Century Gothic" font-size="28.8" fill="#000000" transform="matrix(1.00, 0.00, -0.00, -1.00, 279.4, 494.6)">O</text><text xml:space="preserve" font-family="CenturyGothic,Century Gothic" font-size="28.8" fill="#000000" transform="matrix(1.00, 0.00, -0.00, -1.00, 304.4, 494.6)">R</text><text xml:space="preserve" font-family="CenturyGothic,Century Gothic" font-size="28.8" fill="#000000" transform="matrix(1.00, 0.00, -0.00, -1.00, 321.9, 494.6)">A</text><text xml:space="preserve" font-family="CenturyGothic,Century Gothic" font-size="28.8" fill="#000000" transform="matrix(1.00, 0.00, -0.00, -1.00, 340.9, 494.6)">T</text><text xml:space="preserve" font-family="CenturyGothic,Century Gothic" font-size="28.8" fill="#000000" transform="matrix(1.00, 0.00, -0.00, -1.00, 353.1, 494.6)">E</text><text xml:space="preserve" font-family="CenturyGothic,Century Gothic" font-size="36.0" fill="#000000" transform="matrix(1.00, 0.00, -0.00, -1.00, 368.6, 494.6)"> </text><image xlink:href="../../228DD652-F443-4BBA-86C6-F80AC005D839/assets/EB415D53D052CF884A630B78E389037A.png" width="104.00" height="30.00" transform="matrix(1.00, 0.00, -0.00, -1.00, 374.0, 521.0)"></image><text xml:space="preserve" font-family="CenturyGothic,Century Gothic" font-size="28.8" fill="#000000" transform="matrix(1.00, 0.00, -0.00, -1.00, 378.6, 494.6)">T</text><text xml:space="preserve" font-family="CenturyGothic,Century Gothic" font-size="28.8" fill="#000000" transform="matrix(1.00, 0.00, -0.00, -1.00, 390.8, 494.6)">R</text><text xml:space="preserve" font-family="CenturyGothic,Century Gothic" font-size="28.8" fill="#000000" transform="matrix(1.00, 0.00, -0.00, -1.00, 408.3, 494.6)">A</text><text xml:space="preserve" font-family="CenturyGothic,Century Gothic" font-size="28.8" fill="#000000" transform="matrix(1.00, 0.00, -0.00, -1.00, 426.1, 494.6)">V</text><text xml:space="preserve" font-family="CenturyGothic,Century Gothic" font-size="28.8" fill="#000000" transform="matrix(1.00, 0.00, -0.00, -1.00, 446.3, 494.6)">E</text><text xml:space="preserve" font-family="CenturyGothic,Century Gothic" font-size="28.8" fill="#000000" transform="matrix(1.00, 0.00, -0.00, -1.00, 461.7, 494.6)">L</text><image xlink:href="../../228DD652-F443-4BBA-86C6-F80AC005D839/assets/914FF24BC2DBBAA981875AB5110D949A.png" width="20.00" height="20.00" transform="matrix(1.00, 0.00, -0.00, -1.00, 88.0, 469.0)"></image><text xml:space="preserve" font-family="CenturyGothic,Century Gothic" font-size="36.0" fill="#000000" transform="matrix(1.00, 0.00, -0.00, -1.00, 88.4, 444.6)">•</text><image xlink:href="../../228DD652-F443-4BBA-86C6-F80AC005D839/assets/AC307B7802F155DB9A334730ACBD2090.png" width="26.00" height="35.00" transform="matrix(1.00, 0.00, -0.00, -1.00, 113.0, 476.0)"></image><text xml:space="preserve" font-family="CenturyGothic,Century Gothic" font-size="36.0" fill="#000000" transform="matrix(1.00, 0.00, -0.00, -1.00, 115.2, 444.6)">К</text><image xlink:href="../../228DD652-F443-4BBA-86C6-F80AC005D839/assets/868C1CEFF605BB061D108ED0FE7ACBF6.png" width="188.00" height="35.00" transform="matrix(1.00, 0.00, -0.00, -1.00, 133.0, 476.0)"></image><text xml:space="preserve" font-family="CenturyGothic,Century Gothic" font-size="28.8" fill="#000000" transform="matrix(1.00, 0.00, -0.00, -1.00, 136.5, 444.6)">Р</text><text xml:space="preserve" font-family="CenturyGothic,Century Gothic" font-size="28.8" fill="#000000" transform="matrix(1.00, 0.00, -0.00, -1.00, 153.5, 444.6)">У</text><text xml:space="preserve" font-family="CenturyGothic,Century Gothic" font-size="28.8" fill="#000000" transform="matrix(1.00, 0.00, -0.00, -1.00, 172.1, 444.6)">П</text><text xml:space="preserve" font-family="CenturyGothic,Century Gothic" font-size="28.8" fill="#000000" transform="matrix(1.00, 0.00, -0.00, -1.00, 191.8, 444.6)">Н</text><text xml:space="preserve" font-family="CenturyGothic,Century Gothic" font-size="28.8" fill="#000000" transform="matrix(1.00, 0.00, -0.00, -1.00, 211.5, 444.6)">Е</text><text xml:space="preserve" font-family="CenturyGothic,Century Gothic" font-size="28.8" fill="#000000" transform="matrix(1.00, 0.00, -0.00, -1.00, 226.9, 444.6)">Й</text><text xml:space="preserve" font-family="CenturyGothic,Century Gothic" font-size="28.8" fill="#000000" transform="matrix(1.00, 0.00, -0.00, -1.00, 248.2, 444.6)">Ш</text><text xml:space="preserve" font-family="CenturyGothic,Century Gothic" font-size="28.8" fill="#000000" transform="matrix(1.00, 0.00, -0.00, -1.00, 277.2, 444.6)">И</text><text xml:space="preserve" font-family="CenturyGothic,Century Gothic" font-size="28.8" fill="#000000" transform="matrix(1.00, 0.00, -0.00, -1.00, 298.5, 444.6)">Й</text><text xml:space="preserve" font-family="CenturyGothic,Century Gothic" font-size="36.0" fill="#000000" transform="matrix(1.00, 0.00, -0.00, -1.00, 319.9, 444.6)"> </text><image xlink:href="../../228DD652-F443-4BBA-86C6-F80AC005D839/assets/0509B92EE4289FF2B9108B80662C2AA9.png" width="154.00" height="30.00" transform="matrix(1.00, 0.00, -0.00, -1.00, 326.0, 471.0)"></image><text xml:space="preserve" font-family="CenturyGothic,Century Gothic" font-size="28.8" fill="#000000" transform="matrix(1.00, 0.00, -0.00, -1.00, 329.8, 444.6)">З</text><text xml:space="preserve" font-family="CenturyGothic,Century Gothic" font-size="28.8" fill="#000000" transform="matrix(1.00, 0.00, -0.00, -1.00, 346.6, 444.6)">А</text><text xml:space="preserve" font-family="CenturyGothic,Century Gothic" font-size="28.8" fill="#000000" transform="matrix(1.00, 0.00, -0.00, -1.00, 367.9, 444.6)">К</text><text xml:space="preserve" font-family="CenturyGothic,Century Gothic" font-size="28.8" fill="#000000" transform="matrix(1.00, 0.00, -0.00, -1.00, 384.9, 444.6)">А</text><text xml:space="preserve" font-family="CenturyGothic,Century Gothic" font-size="28.8" fill="#000000" transform="matrix(1.00, 0.00, -0.00, -1.00, 406.2, 444.6)">З</text><text xml:space="preserve" font-family="CenturyGothic,Century Gothic" font-size="28.8" fill="#000000" transform="matrix(1.00, 0.00, -0.00, -1.00, 422.9, 444.6)">Ч</text><text xml:space="preserve" font-family="CenturyGothic,Century Gothic" font-size="28.8" fill="#000000" transform="matrix(1.00, 0.00, -0.00, -1.00, 438.5, 444.6)">И</text><text xml:space="preserve" font-family="CenturyGothic,Century Gothic" font-size="28.8" fill="#000000" transform="matrix(1.00, 0.00, -0.00, -1.00, 459.8, 444.6)">К</text><image xlink:href="../../228DD652-F443-4BBA-86C6-F80AC005D839/assets/808AB4107BC72DEAE47F1121777992CD.png" width="19.00" height="11.00" transform="matrix(1.00, 0.00, -0.00, -1.00, 482.0, 461.0)"></image><text xml:space="preserve" font-family="CenturyGothic,Century Gothic" font-size="36.0" fill="#000000" transform="matrix(1.00, 0.00, -0.00, -1.00, 476.8, 444.6)"> </text><text xml:space="preserve" font-family="CenturyGothic,Century Gothic" font-size="36.0" fill="#000000" transform="matrix(1.00, 0.00, -0.00, -1.00, 486.7, 444.6)">-</text><text xml:space="preserve" font-family="CenturyGothic,Century Gothic" font-size="36.0" fill="#000000" transform="matrix(1.00, 0.00, -0.00, -1.00, 498.7, 444.6)"> </text><image xlink:href="../../228DD652-F443-4BBA-86C6-F80AC005D839/assets/10856A3B2B7E4AEC0D42D37ACE537EF9.png" width="107.00" height="37.00" transform="matrix(1.00, 0.00, -0.00, -1.00, 113.0, 433.0)"></image><text xml:space="preserve" font-family="CenturyGothic,Century Gothic" font-size="36.0" fill="#000000" transform="matrix(1.00, 0.00, -0.00, -1.00, 115.2, 400.6)">B</text><text xml:space="preserve" font-family="CenturyGothic,Century Gothic" font-size="36.0" fill="#000000" transform="matrix(1.00, 0.00, -0.00, -1.00, 135.9, 400.6)">C</text><text xml:space="preserve" font-family="CenturyGothic,Century Gothic" font-size="36.0" fill="#000000" transform="matrix(1.00, 0.00, -0.00, -1.00, 165.2, 400.6)">D</text><text xml:space="preserve" font-family="CenturyGothic,Century Gothic" font-size="36.0" fill="#000000" transform="matrix(1.00, 0.00, -0.00, -1.00, 192.0, 400.6)"> </text><text xml:space="preserve" font-family="CenturyGothic,Century Gothic" font-size="36.0" fill="#000000" transform="matrix(1.00, 0.00, -0.00, -1.00, 201.9, 400.6)">T</text><image xlink:href="../../228DD652-F443-4BBA-86C6-F80AC005D839/assets/09043DA0F02B849CEBD372528D78037A.png" width="90.00" height="30.00" transform="matrix(1.00, 0.00, -0.00, -1.00, 214.0, 427.0)"></image><text xml:space="preserve" font-family="CenturyGothic,Century Gothic" font-size="28.8" fill="#000000" transform="matrix(1.00, 0.00, -0.00, -1.00, 217.2, 400.6)">R</text><text xml:space="preserve" font-family="CenturyGothic,Century Gothic" font-size="28.8" fill="#000000" transform="matrix(1.00, 0.00, -0.00, -1.00, 234.7, 400.6)">A</text><text xml:space="preserve" font-family="CenturyGothic,Century Gothic" font-size="28.8" fill="#000000" transform="matrix(1.00, 0.00, -0.00, -1.00, 252.5, 400.6)">V</text><text xml:space="preserve" font-family="CenturyGothic,Century Gothic" font-size="28.8" fill="#000000" transform="matrix(1.00, 0.00, -0.00, -1.00, 272.7, 400.6)">E</text><text xml:space="preserve" font-family="CenturyGothic,Century Gothic" font-size="28.8" fill="#000000" transform="matrix(1.00, 0.00, -0.00, -1.00, 288.2, 400.6)">L</text><image xlink:href="../../228DD652-F443-4BBA-86C6-F80AC005D839/assets/914FF24BC2DBBAA981875AB5110D949A.png" width="20.00" height="20.00" transform="matrix(1.00, 0.00, -0.00, -1.00, 88.0, 375.0)"></image><text xml:space="preserve" font-family="CenturyGothic,Century Gothic" font-size="36.0" fill="#000000" transform="matrix(1.00, 0.00, -0.00, -1.00, 88.4, 350.6)">•</text><image xlink:href="../../228DD652-F443-4BBA-86C6-F80AC005D839/assets/F45248E75EE3980A126C67470E71A6CB.png" width="27.00" height="36.00" transform="matrix(1.00, 0.00, -0.00, -1.00, 111.0, 383.0)"></image><text xml:space="preserve" font-family="CenturyGothic,Century Gothic" font-size="36.0" fill="#000000" transform="matrix(1.00, 0.00, -0.00, -1.00, 115.2, 350.6)">4</text><text xml:space="preserve" font-family="CenturyGothic,Century Gothic" font-size="36.0" fill="#000000" transform="matrix(1.00, 0.00, -0.00, -1.00, 135.2, 350.6)"> </text><image xlink:href="../../228DD652-F443-4BBA-86C6-F80AC005D839/assets/F6CBFEA36B9D59408453B4BE3A49D76C.png" width="202.00" height="38.00" transform="matrix(1.00, 0.00, -0.00, -1.00, 142.0, 382.0)"></image><text xml:space="preserve" font-family="CenturyGothic,Century Gothic" font-size="28.8" fill="#000000" transform="matrix(1.00, 0.00, -0.00, -1.00, 145.1, 350.6)">П</text><text xml:space="preserve" font-family="CenturyGothic,Century Gothic" font-size="28.8" fill="#000000" transform="matrix(1.00, 0.00, -0.00, -1.00, 164.8, 350.6)">Р</text><text xml:space="preserve" font-family="CenturyGothic,Century Gothic" font-size="28.8" fill="#000000" transform="matrix(1.00, 0.00, -0.00, -1.00, 181.8, 350.6)">О</text><text xml:space="preserve" font-family="CenturyGothic,Century Gothic" font-size="28.8" fill="#000000" transform="matrix(1.00, 0.00, -0.00, -1.00, 206.9, 350.6)">В</text><text xml:space="preserve" font-family="CenturyGothic,Century Gothic" font-size="28.8" fill="#000000" transform="matrix(1.00, 0.00, -0.00, -1.00, 223.4, 350.6)">А</text><text xml:space="preserve" font-family="CenturyGothic,Century Gothic" font-size="28.8" fill="#000000" transform="matrix(1.00, 0.00, -0.00, -1.00, 244.7, 350.6)">Й</text><text xml:space="preserve" font-family="CenturyGothic,Century Gothic" font-size="28.8" fill="#000000" transform="matrix(1.00, 0.00, -0.00, -1.00, 266.0, 350.6)">Д</text><text xml:space="preserve" font-family="CenturyGothic,Century Gothic" font-size="28.8" fill="#000000" transform="matrix(1.00, 0.00, -0.00, -1.00, 287.6, 350.6)">Е</text><text xml:space="preserve" font-family="CenturyGothic,Century Gothic" font-size="28.8" fill="#000000" transform="matrix(1.00, 0.00, -0.00, -1.00, 303.0, 350.6)">Р</text><text xml:space="preserve" font-family="CenturyGothic,Century Gothic" font-size="28.8" fill="#000000" transform="matrix(1.00, 0.00, -0.00, -1.00, 320.0, 350.6)">А</text><image xlink:href="../../228DD652-F443-4BBA-86C6-F80AC005D839/assets/914FF24BC2DBBAA981875AB5110D949A.png" width="20.00" height="20.00" transform="matrix(1.00, 0.00, -0.00, -1.00, 88.0, 325.0)"></image><text xml:space="preserve" font-family="CenturyGothic,Century Gothic" font-size="36.0" fill="#000000" transform="matrix(1.00, 0.00, -0.00, -1.00, 88.4, 300.6)">•</text><image xlink:href="../../228DD652-F443-4BBA-86C6-F80AC005D839/assets/3913DD9E6722561F3C552E213A16E3FC.png" width="87.00" height="37.00" transform="matrix(1.00, 0.00, -0.00, -1.00, 112.0, 333.0)"></image><text xml:space="preserve" font-family="CenturyGothic,Century Gothic" font-size="36.0" fill="#000000" transform="matrix(1.00, 0.00, -0.00, -1.00, 115.2, 300.6)">&gt;</text><text xml:space="preserve" font-family="CenturyGothic,Century Gothic" font-size="36.0" fill="#000000" transform="matrix(1.00, 0.00, -0.00, -1.00, 137.0, 300.6)">1</text><text xml:space="preserve" font-family="CenturyGothic,Century Gothic" font-size="36.0" fill="#000000" transform="matrix(1.00, 0.00, -0.00, -1.00, 157.0, 300.6)">0</text><text xml:space="preserve" font-family="CenturyGothic,Century Gothic" font-size="36.0" fill="#000000" transform="matrix(1.00, 0.00, -0.00, -1.00, 176.9, 300.6)">0</text><image xlink:href="../../228DD652-F443-4BBA-86C6-F80AC005D839/assets/B7CFB048A0CAF82BAC2240443D0EA796.png" width="23.00" height="30.00" transform="matrix(1.00, 0.00, -0.00, -1.00, 194.0, 327.0)"></image><text xml:space="preserve" font-family="CenturyGothic,Century Gothic" font-size="28.8" fill="#000000" transform="matrix(1.00, 0.00, -0.00, -1.00, 196.9, 300.6)">K</text><text xml:space="preserve" font-family="CenturyGothic,Century Gothic" font-size="36.0" fill="#000000" transform="matrix(1.00, 0.00, -0.00, -1.00, 213.9, 300.6)"> </text><image xlink:href="../../228DD652-F443-4BBA-86C6-F80AC005D839/assets/36448B915CCF631955CFF659A91E3C4B.png" width="115.00" height="35.00" transform="matrix(1.00, 0.00, -0.00, -1.00, 220.0, 332.0)"></image><text xml:space="preserve" font-family="CenturyGothic,Century Gothic" font-size="28.8" fill="#000000" transform="matrix(1.00, 0.00, -0.00, -1.00, 223.9, 300.6)">О</text><text xml:space="preserve" font-family="CenturyGothic,Century Gothic" font-size="28.8" fill="#000000" transform="matrix(1.00, 0.00, -0.00, -1.00, 248.9, 300.6)">Т</text><text xml:space="preserve" font-family="CenturyGothic,Century Gothic" font-size="28.8" fill="#000000" transform="matrix(1.00, 0.00, -0.00, -1.00, 261.2, 300.6)">Е</text><text xml:space="preserve" font-family="CenturyGothic,Century Gothic" font-size="28.8" fill="#000000" transform="matrix(1.00, 0.00, -0.00, -1.00, 276.6, 300.6)">Л</text><text xml:space="preserve" font-family="CenturyGothic,Century Gothic" font-size="28.8" fill="#000000" transform="matrix(1.00, 0.00, -0.00, -1.00, 296.8, 300.6)">Е</text><text xml:space="preserve" font-family="CenturyGothic,Century Gothic" font-size="28.8" fill="#000000" transform="matrix(1.00, 0.00, -0.00, -1.00, 312.3, 300.6)">Й</text><text xml:space="preserve" font-family="CenturyGothic,Century Gothic" font-size="36.0" fill="#000000" transform="matrix(1.00, 0.00, -0.00, -1.00, 333.6, 300.6)"> </text><image xlink:href="../../228DD652-F443-4BBA-86C6-F80AC005D839/assets/9F37B71207455DD8FCC7B5125D2D75F9.png" width="21.00" height="30.00" transform="matrix(1.00, 0.00, -0.00, -1.00, 341.0, 327.0)"></image><text xml:space="preserve" font-family="CenturyGothic,Century Gothic" font-size="28.8" fill="#000000" transform="matrix(1.00, 0.00, -0.00, -1.00, 343.5, 300.6)">В</text><text xml:space="preserve" font-family="CenturyGothic,Century Gothic" font-size="36.0" fill="#000000" transform="matrix(1.00, 0.00, -0.00, -1.00, 360.1, 300.6)"> </text><image xlink:href="../../228DD652-F443-4BBA-86C6-F80AC005D839/assets/09F11115A9070A40F12EB3B7B9D453AB.png" width="143.00" height="33.00" transform="matrix(1.00, 0.00, -0.00, -1.00, 367.0, 327.0)"></image><text xml:space="preserve" font-family="CenturyGothic,Century Gothic" font-size="28.8" fill="#000000" transform="matrix(1.00, 0.00, -0.00, -1.00, 370.0, 300.6)">К</text><text xml:space="preserve" font-family="CenturyGothic,Century Gothic" font-size="28.8" fill="#000000" transform="matrix(1.00, 0.00, -0.00, -1.00, 387.0, 300.6)">А</text><text xml:space="preserve" font-family="CenturyGothic,Century Gothic" font-size="28.8" fill="#000000" transform="matrix(1.00, 0.00, -0.00, -1.00, 408.3, 300.6)">Ж</text><text xml:space="preserve" font-family="CenturyGothic,Century Gothic" font-size="28.8" fill="#000000" transform="matrix(1.00, 0.00, -0.00, -1.00, 435.3, 300.6)">Д</text><text xml:space="preserve" font-family="CenturyGothic,Century Gothic" font-size="28.8" fill="#000000" transform="matrix(1.00, 0.00, -0.00, -1.00, 456.8, 300.6)">О</text><text xml:space="preserve" font-family="CenturyGothic,Century Gothic" font-size="28.8" fill="#000000" transform="matrix(1.00, 0.00, -0.00, -1.00, 481.9, 300.6)">М</text><image xlink:href="../../228DD652-F443-4BBA-86C6-F80AC005D839/assets/914FF24BC2DBBAA981875AB5110D949A.png" width="20.00" height="20.00" transform="matrix(1.00, 0.00, -0.00, -1.00, 88.0, 275.0)"></image><text xml:space="preserve" font-family="CenturyGothic,Century Gothic" font-size="36.0" fill="#000000" transform="matrix(1.00, 0.00, -0.00, -1.00, 88.4, 250.6)">•</text><image xlink:href="../../228DD652-F443-4BBA-86C6-F80AC005D839/assets/2266CC1C854BAB5E87CA1013D4B369D6.png" width="80.00" height="36.00" transform="matrix(1.00, 0.00, -0.00, -1.00, 112.0, 282.0)"></image><text xml:space="preserve" font-family="CenturyGothic,Century Gothic" font-size="36.0" fill="#000000" transform="matrix(1.00, 0.00, -0.00, -1.00, 115.2, 250.6)">~</text><text xml:space="preserve" font-family="CenturyGothic,Century Gothic" font-size="36.0" fill="#000000" transform="matrix(1.00, 0.00, -0.00, -1.00, 137.0, 250.6)">7</text><text xml:space="preserve" font-family="CenturyGothic,Century Gothic" font-size="36.0" fill="#000000" transform="matrix(1.00, 0.00, -0.00, -1.00, 157.0, 250.6)">M</text><text xml:space="preserve" font-family="CenturyGothic,Century Gothic" font-size="36.0" fill="#000000" transform="matrix(1.00, 0.00, -0.00, -1.00, 190.1, 250.6)"> </text><image xlink:href="../../228DD652-F443-4BBA-86C6-F80AC005D839/assets/BA428AE733D946CC297A39A0FFFC31DA.png" width="227.00" height="35.00" transform="matrix(1.00, 0.00, -0.00, -1.00, 197.0, 282.0)"></image><text xml:space="preserve" font-family="CenturyGothic,Century Gothic" font-size="28.8" fill="#000000" transform="matrix(1.00, 0.00, -0.00, -1.00, 200.0, 250.6)">И</text><text xml:space="preserve" font-family="CenturyGothic,Century Gothic" font-size="28.8" fill="#000000" transform="matrix(1.00, 0.00, -0.00, -1.00, 221.3, 250.6)">З</text><text xml:space="preserve" font-family="CenturyGothic,Century Gothic" font-size="28.8" fill="#000000" transform="matrix(1.00, 0.00, -0.00, -1.00, 238.1, 250.6)">О</text><text xml:space="preserve" font-family="CenturyGothic,Century Gothic" font-size="28.8" fill="#000000" transform="matrix(1.00, 0.00, -0.00, -1.00, 263.1, 250.6)">Б</text><text xml:space="preserve" font-family="CenturyGothic,Century Gothic" font-size="28.8" fill="#000000" transform="matrix(1.00, 0.00, -0.00, -1.00, 279.6, 250.6)">Р</text><text xml:space="preserve" font-family="CenturyGothic,Century Gothic" font-size="28.8" fill="#000000" transform="matrix(1.00, 0.00, -0.00, -1.00, 296.6, 250.6)">А</text><text xml:space="preserve" font-family="CenturyGothic,Century Gothic" font-size="28.8" fill="#000000" transform="matrix(1.00, 0.00, -0.00, -1.00, 317.9, 250.6)">Ж</text><text xml:space="preserve" font-family="CenturyGothic,Century Gothic" font-size="28.8" fill="#000000" transform="matrix(1.00, 0.00, -0.00, -1.00, 344.8, 250.6)">Е</text><text xml:space="preserve" font-family="CenturyGothic,Century Gothic" font-size="28.8" fill="#000000" transform="matrix(1.00, 0.00, -0.00, -1.00, 360.2, 250.6)">Н</text><text xml:space="preserve" font-family="CenturyGothic,Century Gothic" font-size="28.8" fill="#000000" transform="matrix(1.00, 0.00, -0.00, -1.00, 379.9, 250.6)">И</text><text xml:space="preserve" font-family="CenturyGothic,Century Gothic" font-size="28.8" fill="#000000" transform="matrix(1.00, 0.00, -0.00, -1.00, 401.2, 250.6)">Й</text><image xlink:href="../../228DD652-F443-4BBA-86C6-F80AC005D839/assets/914FF24BC2DBBAA981875AB5110D949A.png" width="20.00" height="20.00" transform="matrix(1.00, 0.00, -0.00, -1.00, 88.0, 225.0)"></image><text xml:space="preserve" font-family="CenturyGothic,Century Gothic" font-size="36.0" fill="#000000" transform="matrix(1.00, 0.00, -0.00, -1.00, 88.4, 200.6)">•</text><image xlink:href="../../228DD652-F443-4BBA-86C6-F80AC005D839/assets/D2D4C3448CA0C40A77098BF10EADEB40.png" width="27.00" height="35.00" transform="matrix(1.00, 0.00, -0.00, -1.00, 113.0, 232.0)"></image><text xml:space="preserve" font-family="CenturyGothic,Century Gothic" font-size="36.0" fill="#000000" transform="matrix(1.00, 0.00, -0.00, -1.00, 115.2, 200.6)">Н</text><image xlink:href="../../228DD652-F443-4BBA-86C6-F80AC005D839/assets/5C4EACC4A958137EEA39335747149BA3.png" width="21.00" height="30.00" transform="matrix(1.00, 0.00, -0.00, -1.00, 137.0, 227.0)"></image><text xml:space="preserve" font-family="CenturyGothic,Century Gothic" font-size="28.8" fill="#000000" transform="matrix(1.00, 0.00, -0.00, -1.00, 139.8, 200.6)">Е</text><text xml:space="preserve" font-family="CenturyGothic,Century Gothic" font-size="36.0" fill="#000000" transform="matrix(1.00, 0.00, -0.00, -1.00, 155.2, 200.6)"> </text><image xlink:href="../../228DD652-F443-4BBA-86C6-F80AC005D839/assets/8BE56E8AB870997C3A0DCAB4FAF56DA3.png" width="109.00" height="30.00" transform="matrix(1.00, 0.00, -0.00, -1.00, 161.0, 227.0)"></image><text xml:space="preserve" font-family="CenturyGothic,Century Gothic" font-size="28.8" fill="#000000" transform="matrix(1.00, 0.00, -0.00, -1.00, 165.2, 200.6)">Х</text><text xml:space="preserve" font-family="CenturyGothic,Century Gothic" font-size="28.8" fill="#000000" transform="matrix(1.00, 0.00, -0.00, -1.00, 182.7, 200.6)">О</text><text xml:space="preserve" font-family="CenturyGothic,Century Gothic" font-size="28.8" fill="#000000" transform="matrix(1.00, 0.00, -0.00, -1.00, 207.8, 200.6)">Т</text><text xml:space="preserve" font-family="CenturyGothic,Century Gothic" font-size="28.8" fill="#000000" transform="matrix(1.00, 0.00, -0.00, -1.00, 220.0, 200.6)">И</text><text xml:space="preserve" font-family="CenturyGothic,Century Gothic" font-size="28.8" fill="#000000" transform="matrix(1.00, 0.00, -0.00, -1.00, 241.3, 200.6)">М</text><text xml:space="preserve" font-family="CenturyGothic,Century Gothic" font-size="36.0" fill="#000000" transform="matrix(1.00, 0.00, -0.00, -1.00, 267.8, 200.6)"> </text><image xlink:href="../../228DD652-F443-4BBA-86C6-F80AC005D839/assets/6784BDB30B49D5B6F5994DA8F01AE7B8.png" width="195.00" height="30.00" transform="matrix(1.00, 0.00, -0.00, -1.00, 275.0, 227.0)"></image><text xml:space="preserve" font-family="CenturyGothic,Century Gothic" font-size="28.8" fill="#000000" transform="matrix(1.00, 0.00, -0.00, -1.00, 277.8, 200.6)">П</text><text xml:space="preserve" font-family="CenturyGothic,Century Gothic" font-size="28.8" fill="#000000" transform="matrix(1.00, 0.00, -0.00, -1.00, 297.5, 200.6)">О</text><text xml:space="preserve" font-family="CenturyGothic,Century Gothic" font-size="28.8" fill="#000000" transform="matrix(1.00, 0.00, -0.00, -1.00, 322.5, 200.6)">К</text><text xml:space="preserve" font-family="CenturyGothic,Century Gothic" font-size="28.8" fill="#000000" transform="matrix(1.00, 0.00, -0.00, -1.00, 339.5, 200.6)">А</text><text xml:space="preserve" font-family="CenturyGothic,Century Gothic" font-size="28.8" fill="#000000" transform="matrix(1.00, 0.00, -0.00, -1.00, 360.8, 200.6)">З</text><text xml:space="preserve" font-family="CenturyGothic,Century Gothic" font-size="28.8" fill="#000000" transform="matrix(1.00, 0.00, -0.00, -1.00, 377.5, 200.6)">Ы</text><text xml:space="preserve" font-family="CenturyGothic,Century Gothic" font-size="28.8" fill="#000000" transform="matrix(1.00, 0.00, -0.00, -1.00, 400.4, 200.6)">В</text><text xml:space="preserve" font-family="CenturyGothic,Century Gothic" font-size="28.8" fill="#000000" transform="matrix(1.00, 0.00, -0.00, -1.00, 416.9, 200.6)">А</text><text xml:space="preserve" font-family="CenturyGothic,Century Gothic" font-size="28.8" fill="#000000" transform="matrix(1.00, 0.00, -0.00, -1.00, 438.2, 200.6)">Т</text><text xml:space="preserve" font-family="CenturyGothic,Century Gothic" font-size="28.8" fill="#000000" transform="matrix(1.00, 0.00, -0.00, -1.00, 450.5, 200.6)">Ь</text><text xml:space="preserve" font-family="CenturyGothic,Century Gothic" font-size="36.0" fill="#000000" transform="matrix(1.00, 0.00, -0.00, -1.00, 467.9, 200.6)"> </text><image xlink:href="../../228DD652-F443-4BBA-86C6-F80AC005D839/assets/0BF00E39DC31DC23C982AD2BF7BD9534.png" width="97.00" height="33.00" transform="matrix(1.00, 0.00, -0.00, -1.00, 111.0, 183.0)"></image><text xml:space="preserve" font-family="CenturyGothic,Century Gothic" font-size="28.8" fill="#000000" transform="matrix(1.00, 0.00, -0.00, -1.00, 115.2, 156.6)">О</text><text xml:space="preserve" font-family="CenturyGothic,Century Gothic" font-size="28.8" fill="#000000" transform="matrix(1.00, 0.00, -0.00, -1.00, 140.2, 156.6)">Д</text><text xml:space="preserve" font-family="CenturyGothic,Century Gothic" font-size="28.8" fill="#000000" transform="matrix(1.00, 0.00, -0.00, -1.00, 161.8, 156.6)">Н</text><text xml:space="preserve" font-family="CenturyGothic,Century Gothic" font-size="28.8" fill="#000000" transform="matrix(1.00, 0.00, -0.00, -1.00, 181.5, 156.6)">О</text><text xml:space="preserve" font-family="CenturyGothic,Century Gothic" font-size="36.0" fill="#000000" transform="matrix(1.00, 0.00, -0.00, -1.00, 206.5, 156.6)"> </text><image xlink:href="../../228DD652-F443-4BBA-86C6-F80AC005D839/assets/50FE3FA45D3D00A292858F5BF2FE592C.png" width="26.00" height="30.00" transform="matrix(1.00, 0.00, -0.00, -1.00, 213.0, 183.0)"></image><text xml:space="preserve" font-family="CenturyGothic,Century Gothic" font-size="28.8" fill="#000000" transform="matrix(1.00, 0.00, -0.00, -1.00, 216.5, 156.6)">И</text><text xml:space="preserve" font-family="CenturyGothic,Century Gothic" font-size="36.0" fill="#000000" transform="matrix(1.00, 0.00, -0.00, -1.00, 237.8, 156.6)"> </text><image xlink:href="../../228DD652-F443-4BBA-86C6-F80AC005D839/assets/413441148FE3D726E7D3249E25F0CE9A.png" width="44.00" height="30.00" transform="matrix(1.00, 0.00, -0.00, -1.00, 243.0, 183.0)"></image><text xml:space="preserve" font-family="CenturyGothic,Century Gothic" font-size="28.8" fill="#000000" transform="matrix(1.00, 0.00, -0.00, -1.00, 247.7, 156.6)">Т</text><text xml:space="preserve" font-family="CenturyGothic,Century Gothic" font-size="28.8" fill="#000000" transform="matrix(1.00, 0.00, -0.00, -1.00, 260.0, 156.6)">О</text><text xml:space="preserve" font-family="CenturyGothic,Century Gothic" font-size="36.0" fill="#000000" transform="matrix(1.00, 0.00, -0.00, -1.00, 285.0, 156.6)"> </text><image xlink:href="../../228DD652-F443-4BBA-86C6-F80AC005D839/assets/01A831552260DC2C7ED48291ADA3AED7.png" width="50.00" height="30.00" transform="matrix(1.00, 0.00, -0.00, -1.00, 290.0, 183.0)"></image><text xml:space="preserve" font-family="CenturyGothic,Century Gothic" font-size="28.8" fill="#000000" transform="matrix(1.00, 0.00, -0.00, -1.00, 295.0, 156.6)">Ж</text><text xml:space="preserve" font-family="CenturyGothic,Century Gothic" font-size="28.8" fill="#000000" transform="matrix(1.00, 0.00, -0.00, -1.00, 321.9, 156.6)">Е</text><text xml:space="preserve" font-family="CenturyGothic-Bold,Century Gothic" font-weight="bold" font-size="28.0" fill="#525252" transform="matrix(1.00, 0.00, -0.00, -1.00, 942.8, 65.3)">2</text><image xlink:href="../../228DD652-F443-4BBA-86C6-F80AC005D839/assets/8A1822FE4DD81CEB6D9EDB84210DF5A8.png" width="203.00" height="31.00" transform="matrix(1.51, 0.00, -0.00, -1.51, 603.1, 613.1)"></image><image xlink:href="../../228DD652-F443-4BBA-86C6-F80AC005D839/assets/59451CEB33E1007B7CA7CF3916C749A2.png" width="466.00" height="290.00" transform="matrix(1.07, 0.00, -0.00, -1.07, 508.1, 538.7)"></image></g></svg>