<?xml version="1.0" encoding="UTF-8" standalone="no"?><svg xmlns="http://www.w3.org/2000/svg" xmlns:xlink="http://www.w3.org/1999/xlink" clip-rule="evenodd" stroke-miterlimit="10" viewBox="0 0 1024 768"><desc>SVG generated by Keynote</desc><defs></defs><g transform="matrix(1.00, 0.00, -0.00, -1.00, 0.0, 768.0)"><path d="M 0.0 768.0 L 1024.0 768.0 L 1024.0 0.0 L 0.0 0.0 Z M 0.0 768.0 " fill="#FFFFFF"></path><image xlink:href="../../2228AE9C-3706-437F-8379-D21BA5B8F0CA/assets/C2129A3EE7512E75FEE2A48785F9B6A3.png" width="1033.00" height="179.00" transform="matrix(0.21, 0.00, -0.00, -0.21, 40.0, 96.0)"></image><image xlink:href="62C43CCF29E7E39D7FACC0ACAE086215.png" width="44.00" height="34.00" transform="matrix(1.00, 0.00, -0.00, -1.00, 174.0, 221.0)"></image><text xml:space="preserve" font-family="CenturyGothic,Century Gothic" font-size="34.0" fill="#000000" transform="matrix(1.00, 0.00, -0.00, -1.00, 178.4, 190.6)">3</text><text xml:space="preserve" font-family="CenturyGothic,Century Gothic" font-size="34.0" fill="#000000" transform="matrix(1.00, 0.00, -0.00, -1.00, 197.2, 190.6)">2</text><image xlink:href="D6D618D843FE5055A128787EC7E2DF09.png" width="24.00" height="29.00" transform="matrix(1.00, 0.00, -0.00, -1.00, 211.0, 216.0)"></image><text xml:space="preserve" font-family="CenturyGothic,Century Gothic" font-size="27.2" fill="#000000" transform="matrix(1.00, 0.00, -0.00, -1.00, 216.1, 190.6)">X</text><image xlink:href="352E19A3F28FBB0763F1A3F56ADCEB8A.png" width="469.00" height="34.00" transform="matrix(1.00, 0.00, -0.00, -1.00, 228.0, 221.0)"></image><text xml:space="preserve" font-family="CenturyGothic,Century Gothic" font-size="34.0" fill="#000000" transform="matrix(1.00, 0.00, -0.00, -1.00, 232.6, 190.6)">3</text><text xml:space="preserve" font-family="CenturyGothic,Century Gothic" font-size="34.0" fill="#000000" transform="matrix(1.00, 0.00, -0.00, -1.00, 251.5, 190.6)">2</text><text xml:space="preserve" font-family="CenturyGothic,Century Gothic" font-size="34.0" fill="#000000" transform="matrix(1.00, 0.00, -0.00, -1.00, 270.3, 190.6)"> </text><text xml:space="preserve" font-family="CenturyGothic,Century Gothic" font-size="34.0" fill="#000000" transform="matrix(1.00, 0.00, -0.00, -1.00, 279.7, 190.6)">D</text><text xml:space="preserve" font-family="CenturyGothic,Century Gothic" font-size="34.0" fill="#000000" transform="matrix(1.00, 0.00, -0.00, -1.00, 305.0, 190.6)">C</text><text xml:space="preserve" font-family="CenturyGothic,Century Gothic" font-size="34.0" fill="#000000" transform="matrix(1.00, 0.00, -0.00, -1.00, 332.7, 190.6)">T</text><text xml:space="preserve" font-family="CenturyGothic,Century Gothic" font-size="34.0" fill="#000000" transform="matrix(1.00, 0.00, -0.00, -1.00, 347.1, 190.6)"> </text><text xml:space="preserve" font-family="CenturyGothic,Century Gothic" font-size="34.0" fill="#000000" transform="matrix(1.00, 0.00, -0.00, -1.00, 356.6, 190.6)"> </text><text xml:space="preserve" font-family="CenturyGothic,Century Gothic" font-size="34.0" fill="#000000" transform="matrix(1.00, 0.00, -0.00, -1.00, 366.0, 190.6)"> </text><text xml:space="preserve" font-family="CenturyGothic,Century Gothic" font-size="34.0" fill="#000000" transform="matrix(1.00, 0.00, -0.00, -1.00, 375.4, 190.6)"> </text><text xml:space="preserve" font-family="CenturyGothic,Century Gothic" font-size="34.0" fill="#000000" transform="matrix(1.00, 0.00, -0.00, -1.00, 384.8, 190.6)"> </text><text xml:space="preserve" font-family="CenturyGothic,Century Gothic" font-size="34.0" fill="#000000" transform="matrix(1.00, 0.00, -0.00, -1.00, 394.2, 190.6)"> </text><text xml:space="preserve" font-family="CenturyGothic,Century Gothic" font-size="34.0" fill="#000000" transform="matrix(1.00, 0.00, -0.00, -1.00, 403.6, 190.6)"> </text><text xml:space="preserve" font-family="CenturyGothic,Century Gothic" font-size="34.0" fill="#000000" transform="matrix(1.00, 0.00, -0.00, -1.00, 413.0, 190.6)"> </text><text xml:space="preserve" font-family="CenturyGothic,Century Gothic" font-size="34.0" fill="#000000" transform="matrix(1.00, 0.00, -0.00, -1.00, 422.4, 190.6)"> </text><text xml:space="preserve" font-family="CenturyGothic,Century Gothic" font-size="34.0" fill="#000000" transform="matrix(1.00, 0.00, -0.00, -1.00, 431.8, 190.6)"> </text><text xml:space="preserve" font-family="CenturyGothic,Century Gothic" font-size="34.0" fill="#000000" transform="matrix(1.00, 0.00, -0.00, -1.00, 441.2, 190.6)"> </text><text xml:space="preserve" font-family="CenturyGothic,Century Gothic" font-size="34.0" fill="#000000" transform="matrix(1.00, 0.00, -0.00, -1.00, 450.7, 190.6)"> </text><text xml:space="preserve" font-family="CenturyGothic,Century Gothic" font-size="34.0" fill="#000000" transform="matrix(1.00, 0.00, -0.00, -1.00, 460.1, 190.6)"> </text><text xml:space="preserve" font-family="CenturyGothic,Century Gothic" font-size="34.0" fill="#000000" transform="matrix(1.00, 0.00, -0.00, -1.00, 469.5, 190.6)"> </text><text xml:space="preserve" font-family="CenturyGothic,Century Gothic" font-size="34.0" fill="#000000" transform="matrix(1.00, 0.00, -0.00, -1.00, 478.9, 190.6)"> </text><text xml:space="preserve" font-family="CenturyGothic,Century Gothic" font-size="34.0" fill="#000000" transform="matrix(1.00, 0.00, -0.00, -1.00, 488.3, 190.6)"> </text><text xml:space="preserve" font-family="CenturyGothic,Century Gothic" font-size="34.0" fill="#000000" transform="matrix(1.00, 0.00, -0.00, -1.00, 497.7, 190.6)"> </text><text xml:space="preserve" font-family="CenturyGothic,Century Gothic" font-size="34.0" fill="#000000" transform="matrix(1.00, 0.00, -0.00, -1.00, 507.1, 190.6)"> </text><text xml:space="preserve" font-family="CenturyGothic,Century Gothic" font-size="34.0" fill="#000000" transform="matrix(1.00, 0.00, -0.00, -1.00, 516.5, 190.6)"> </text><text xml:space="preserve" font-family="CenturyGothic,Century Gothic" font-size="34.0" fill="#000000" transform="matrix(1.00, 0.00, -0.00, -1.00, 525.9, 190.6)"> </text><text xml:space="preserve" font-family="CenturyGothic,Century Gothic" font-size="34.0" fill="#000000" transform="matrix(1.00, 0.00, -0.00, -1.00, 535.3, 190.6)"> </text><text xml:space="preserve" font-family="CenturyGothic,Century Gothic" font-size="34.0" fill="#000000" transform="matrix(1.00, 0.00, -0.00, -1.00, 544.7, 190.6)"> </text><text xml:space="preserve" font-family="CenturyGothic,Century Gothic" font-size="34.0" fill="#000000" transform="matrix(1.00, 0.00, -0.00, -1.00, 554.2, 190.6)"> </text><text xml:space="preserve" font-family="CenturyGothic,Century Gothic" font-size="34.0" fill="#000000" transform="matrix(1.00, 0.00, -0.00, -1.00, 563.6, 190.6)"> </text><text xml:space="preserve" font-family="CenturyGothic,Century Gothic" font-size="34.0" fill="#000000" transform="matrix(1.00, 0.00, -0.00, -1.00, 573.0, 190.6)"> </text><text xml:space="preserve" font-family="CenturyGothic,Century Gothic" font-size="34.0" fill="#000000" transform="matrix(1.00, 0.00, -0.00, -1.00, 582.4, 190.6)"> </text><text xml:space="preserve" font-family="CenturyGothic,Century Gothic" font-size="34.0" fill="#000000" transform="matrix(1.00, 0.00, -0.00, -1.00, 591.8, 190.6)"> </text><text xml:space="preserve" font-family="CenturyGothic,Century Gothic" font-size="34.0" fill="#000000" transform="matrix(1.00, 0.00, -0.00, -1.00, 601.2, 190.6)"> </text><text xml:space="preserve" font-family="CenturyGothic,Century Gothic" font-size="34.0" fill="#000000" transform="matrix(1.00, 0.00, -0.00, -1.00, 610.6, 190.6)"> </text><text xml:space="preserve" font-family="CenturyGothic,Century Gothic" font-size="34.0" fill="#000000" transform="matrix(1.00, 0.00, -0.00, -1.00, 620.0, 190.6)"> </text><text xml:space="preserve" font-family="CenturyGothic,Century Gothic" font-size="34.0" fill="#000000" transform="matrix(1.00, 0.00, -0.00, -1.00, 629.4, 190.6)"> </text><text xml:space="preserve" font-family="CenturyGothic,Century Gothic" font-size="34.0" fill="#000000" transform="matrix(1.00, 0.00, -0.00, -1.00, 638.8, 190.6)"> </text><text xml:space="preserve" font-family="CenturyGothic,Century Gothic" font-size="34.0" fill="#000000" transform="matrix(1.00, 0.00, -0.00, -1.00, 648.3, 190.6)"> </text><text xml:space="preserve" font-family="CenturyGothic,Century Gothic" font-size="34.0" fill="#000000" transform="matrix(1.00, 0.00, -0.00, -1.00, 657.7, 190.6)">1</text><text xml:space="preserve" font-family="CenturyGothic,Century Gothic" font-size="34.0" fill="#000000" transform="matrix(1.00, 0.00, -0.00, -1.00, 676.5, 190.6)">6</text><image xlink:href="6D537BBAFE7E48D4BAD339ED1C7E9864.png" width="24.00" height="29.00" transform="matrix(1.00, 0.00, -0.00, -1.00, 691.0, 216.0)"></image><text xml:space="preserve" font-family="CenturyGothic,Century Gothic" font-size="27.2" fill="#000000" transform="matrix(1.00, 0.00, -0.00, -1.00, 695.5, 190.6)">X</text><image xlink:href="5DC70640546CC3F1E7DD0337D24D20AE.png" width="118.00" height="34.00" transform="matrix(1.00, 0.00, -0.00, -1.00, 711.0, 221.0)"></image><text xml:space="preserve" font-family="CenturyGothic,Century Gothic" font-size="34.0" fill="#000000" transform="matrix(1.00, 0.00, -0.00, -1.00, 712.0, 190.6)">1</text><text xml:space="preserve" font-family="CenturyGothic,Century Gothic" font-size="34.0" fill="#000000" transform="matrix(1.00, 0.00, -0.00, -1.00, 730.9, 190.6)">6</text><text xml:space="preserve" font-family="CenturyGothic,Century Gothic" font-size="34.0" fill="#000000" transform="matrix(1.00, 0.00, -0.00, -1.00, 749.7, 190.6)"> </text><text xml:space="preserve" font-family="CenturyGothic,Century Gothic" font-size="34.0" fill="#000000" transform="matrix(1.00, 0.00, -0.00, -1.00, 759.1, 190.6)">D</text><text xml:space="preserve" font-family="CenturyGothic,Century Gothic" font-size="34.0" fill="#000000" transform="matrix(1.00, 0.00, -0.00, -1.00, 784.4, 190.6)">C</text><text xml:space="preserve" font-family="CenturyGothic,Century Gothic" font-size="34.0" fill="#000000" transform="matrix(1.00, 0.00, -0.00, -1.00, 812.1, 190.6)">T</text><text xml:space="preserve" font-family="CenturyGothic-Bold,Century Gothic" font-weight="bold" font-size="28.0" fill="#525252" transform="matrix(1.00, 0.00, -0.00, -1.00, 927.1, 65.3)">2</text><text xml:space="preserve" font-family="CenturyGothic-Bold,Century Gothic" font-weight="bold" font-size="28.0" fill="#525252" transform="matrix(1.00, 0.00, -0.00, -1.00, 942.8, 65.3)">6</text><image xlink:href="2FC3E65A8BD5F3BAB7048BA5F27C1BF9.jpeg" width="512.00" height="512.00" transform="matrix(0.72, 0.00, -0.00, -0.72, 109.6, 642.2)"></image><image xlink:href="8102CDA8DF5D039B558E90A1FBD1410D.jpeg" width="512.00" height="512.00" transform="matrix(0.72, 0.00, -0.00, -0.72, 548.4, 642.2)"></image></g></svg>