<?xml version="1.0" encoding="UTF-8" standalone="no"?><svg xmlns="http://www.w3.org/2000/svg" xmlns:xlink="http://www.w3.org/1999/xlink" clip-rule="evenodd" stroke-miterlimit="10" viewBox="0 0 1024 768"><desc>SVG generated by Keynote</desc><defs></defs><g transform="matrix(1.00, 0.00, -0.00, -1.00, 0.0, 768.0)"><path d="M 0.0 768.0 L 1024.0 768.0 L 1024.0 0.0 L 0.0 0.0 Z M 0.0 768.0 " fill="#FFFFFF"></path><image xlink:href="../../2228AE9C-3706-437F-8379-D21BA5B8F0CA/assets/C2129A3EE7512E75FEE2A48785F9B6A3.png" width="1033.00" height="179.00" transform="matrix(0.21, 0.00, -0.00, -0.21, 40.0, 96.0)"></image><image xlink:href="../../EF084222-6D95-46C0-903F-20AC21FED3B7/assets/087B63EC02AB6D6764793AB46BE4CA12.png" width="378.00" height="51.00" transform="matrix(1.00, 0.00, -0.00, -1.00, 100.0, 666.0)"></image><text xml:space="preserve" font-family="CenturyGothic,Century Gothic" font-size="58.0" fill="#000000" transform="matrix(1.00, 0.00, -0.00, -1.00, 99.7, 618.9)">L</text><text xml:space="preserve" font-family="CenturyGothic,Century Gothic" font-size="58.0" fill="#000000" transform="matrix(1.00, 0.00, -0.00, -1.00, 126.5, 618.9)">O</text><text xml:space="preserve" font-family="CenturyGothic,Century Gothic" font-size="58.0" fill="#000000" transform="matrix(1.00, 0.00, -0.00, -1.00, 176.9, 618.9)">W</text><text xml:space="preserve" font-family="CenturyGothic,Century Gothic" font-size="58.0" fill="#000000" transform="matrix(1.00, 0.00, -0.00, -1.00, 232.6, 618.9)"> </text><text xml:space="preserve" font-family="CenturyGothic,Century Gothic" font-size="58.0" fill="#000000" transform="matrix(1.00, 0.00, -0.00, -1.00, 248.6, 618.9)">Q</text><text xml:space="preserve" font-family="CenturyGothic,Century Gothic" font-size="58.0" fill="#000000" transform="matrix(1.00, 0.00, -0.00, -1.00, 299.2, 618.9)">U</text><text xml:space="preserve" font-family="CenturyGothic,Century Gothic" font-size="58.0" fill="#000000" transform="matrix(1.00, 0.00, -0.00, -1.00, 337.1, 618.9)">A</text><text xml:space="preserve" font-family="CenturyGothic,Century Gothic" font-size="58.0" fill="#000000" transform="matrix(1.00, 0.00, -0.00, -1.00, 380.0, 618.9)">L</text><text xml:space="preserve" font-family="CenturyGothic,Century Gothic" font-size="58.0" fill="#000000" transform="matrix(1.00, 0.00, -0.00, -1.00, 406.8, 618.9)">I</text><text xml:space="preserve" font-family="CenturyGothic,Century Gothic" font-size="58.0" fill="#000000" transform="matrix(1.00, 0.00, -0.00, -1.00, 419.9, 618.9)">T</text><text xml:space="preserve" font-family="CenturyGothic,Century Gothic" font-size="58.0" fill="#000000" transform="matrix(1.00, 0.00, -0.00, -1.00, 444.6, 618.9)">Y</text><text xml:space="preserve" font-family="CenturyGothic-Bold,Century Gothic" font-weight="bold" font-size="28.0" fill="#525252" transform="matrix(1.00, 0.00, -0.00, -1.00, 927.1, 65.3)">1</text><text xml:space="preserve" font-family="CenturyGothic-Bold,Century Gothic" font-weight="bold" font-size="28.0" fill="#525252" transform="matrix(1.00, 0.00, -0.00, -1.00, 942.8, 65.3)">2</text><image xlink:href="../../EF084222-6D95-46C0-903F-20AC21FED3B7/assets/B7F94801A6563BA52F9B34EE5348AA87.jpeg" width="768.00" height="512.00" transform="matrix(0.70, 0.00, -0.00, -0.70, 95.9, 563.2)"></image><image xlink:href="../../EF084222-6D95-46C0-903F-20AC21FED3B7/assets/D2E3F9D403B6CE444BC2A33A9881393F.jpeg" width="192.00" height="128.00" transform="matrix(1.07, 0.00, -0.00, -1.07, 688.6, 564.0)"></image><image xlink:href="../../EF084222-6D95-46C0-903F-20AC21FED3B7/assets/E87E4E592BA13ABE3E4772516F356037.png" width="50.00" height="32.00" transform="matrix(1.00, 0.00, -0.00, -1.00, 668.0, 337.0)"></image><text xml:space="preserve" font-family="CenturyGothic,Century Gothic" font-size="32.0" fill="#000000" transform="matrix(1.00, 0.00, -0.00, -1.00, 670.7, 308.2)">В</text><text xml:space="preserve" font-family="CenturyGothic,Century Gothic" font-size="32.0" fill="#000000" transform="matrix(1.00, 0.00, -0.00, -1.00, 689.1, 308.2)"> </text><text xml:space="preserve" font-family="CenturyGothic,Century Gothic" font-size="32.0" fill="#000000" transform="matrix(1.00, 0.00, -0.00, -1.00, 697.9, 308.2)">4</text><text xml:space="preserve" font-family="CenturyGothic,Century Gothic" font-size="32.0" fill="#000000" transform="matrix(1.00, 0.00, -0.00, -1.00, 715.7, 308.2)"> </text><image xlink:href="../../EF084222-6D95-46C0-903F-20AC21FED3B7/assets/0152E8C4138E5F9323316F2D9BEFBEC0.png" width="74.00" height="28.00" transform="matrix(1.00, 0.00, -0.00, -1.00, 721.0, 332.0)"></image><text xml:space="preserve" font-family="CenturyGothic,Century Gothic" font-size="25.6" fill="#000000" transform="matrix(1.00, 0.00, -0.00, -1.00, 724.5, 308.2)">Р</text><text xml:space="preserve" font-family="CenturyGothic,Century Gothic" font-size="25.6" fill="#000000" transform="matrix(1.00, 0.00, -0.00, -1.00, 739.6, 308.2)">А</text><text xml:space="preserve" font-family="CenturyGothic,Century Gothic" font-size="25.6" fill="#000000" transform="matrix(1.00, 0.00, -0.00, -1.00, 758.5, 308.2)">З</text><text xml:space="preserve" font-family="CenturyGothic,Century Gothic" font-size="25.6" fill="#000000" transform="matrix(1.00, 0.00, -0.00, -1.00, 773.4, 308.2)">А</text><text xml:space="preserve" font-family="CenturyGothic,Century Gothic" font-size="32.0" fill="#000000" transform="matrix(1.00, 0.00, -0.00, -1.00, 792.3, 308.2)"> </text><image xlink:href="../../EF084222-6D95-46C0-903F-20AC21FED3B7/assets/E08148283E31F4B308EC13FB31A1D4E8.png" width="116.00" height="27.00" transform="matrix(1.00, 0.00, -0.00, -1.00, 797.0, 332.0)"></image><text xml:space="preserve" font-family="CenturyGothic,Century Gothic" font-size="25.6" fill="#000000" transform="matrix(1.00, 0.00, -0.00, -1.00, 801.2, 308.2)">М</text><text xml:space="preserve" font-family="CenturyGothic,Century Gothic" font-size="25.6" fill="#000000" transform="matrix(1.00, 0.00, -0.00, -1.00, 824.7, 308.2)">Е</text><text xml:space="preserve" font-family="CenturyGothic,Century Gothic" font-size="25.6" fill="#000000" transform="matrix(1.00, 0.00, -0.00, -1.00, 838.4, 308.2)">Н</text><text xml:space="preserve" font-family="CenturyGothic,Century Gothic" font-size="25.6" fill="#000000" transform="matrix(1.00, 0.00, -0.00, -1.00, 855.8, 308.2)">Ь</text><text xml:space="preserve" font-family="CenturyGothic,Century Gothic" font-size="25.6" fill="#000000" transform="matrix(1.00, 0.00, -0.00, -1.00, 871.3, 308.2)">Ш</text><text xml:space="preserve" font-family="CenturyGothic,Century Gothic" font-size="25.6" fill="#000000" transform="matrix(1.00, 0.00, -0.00, -1.00, 897.1, 308.2)">Е</text><text xml:space="preserve" font-family="CenturyGothic,Century Gothic" font-size="32.0" fill="#000000" transform="matrix(1.00, 0.00, -0.00, -1.00, 910.8, 308.2)"> </text><image xlink:href="../../EF084222-6D95-46C0-903F-20AC21FED3B7/assets/A3D5BAF011832544F43D19364AF880F9.png" width="85.00" height="34.00" transform="matrix(1.00, 0.00, -0.00, -1.00, 667.0, 293.0)"></image><text xml:space="preserve" font-family="CenturyGothic,Century Gothic" font-size="32.0" fill="#000000" transform="matrix(1.00, 0.00, -0.00, -1.00, 670.7, 263.5)">J</text><text xml:space="preserve" font-family="CenturyGothic,Century Gothic" font-size="32.0" fill="#000000" transform="matrix(1.00, 0.00, -0.00, -1.00, 686.1, 263.5)">P</text><text xml:space="preserve" font-family="CenturyGothic,Century Gothic" font-size="32.0" fill="#000000" transform="matrix(1.00, 0.00, -0.00, -1.00, 705.0, 263.5)">E</text><text xml:space="preserve" font-family="CenturyGothic,Century Gothic" font-size="32.0" fill="#000000" transform="matrix(1.00, 0.00, -0.00, -1.00, 722.2, 263.5)">G</text><text xml:space="preserve" font-family="CenturyGothic,Century Gothic" font-size="32.0" fill="#000000" transform="matrix(1.00, 0.00, -0.00, -1.00, 750.0, 263.5)"> </text><image xlink:href="../../EF084222-6D95-46C0-903F-20AC21FED3B7/assets/D0D8C7925582CF36B2968C9E668A00A8.png" width="108.00" height="29.00" transform="matrix(1.00, 0.00, -0.00, -1.00, 755.0, 288.0)"></image><text xml:space="preserve" font-family="CenturyGothic,Century Gothic" font-size="25.6" fill="#000000" transform="matrix(1.00, 0.00, -0.00, -1.00, 758.9, 263.5)">Q</text><text xml:space="preserve" font-family="CenturyGothic,Century Gothic" font-size="25.6" fill="#000000" transform="matrix(1.00, 0.00, -0.00, -1.00, 781.2, 263.5)">U</text><text xml:space="preserve" font-family="CenturyGothic,Century Gothic" font-size="25.6" fill="#000000" transform="matrix(1.00, 0.00, -0.00, -1.00, 797.9, 263.5)">A</text><text xml:space="preserve" font-family="CenturyGothic,Century Gothic" font-size="25.6" fill="#000000" transform="matrix(1.00, 0.00, -0.00, -1.00, 816.8, 263.5)">L</text><text xml:space="preserve" font-family="CenturyGothic,Century Gothic" font-size="25.6" fill="#000000" transform="matrix(1.00, 0.00, -0.00, -1.00, 828.7, 263.5)">I</text><text xml:space="preserve" font-family="CenturyGothic,Century Gothic" font-size="25.6" fill="#000000" transform="matrix(1.00, 0.00, -0.00, -1.00, 834.4, 263.5)">T</text><text xml:space="preserve" font-family="CenturyGothic,Century Gothic" font-size="25.6" fill="#000000" transform="matrix(1.00, 0.00, -0.00, -1.00, 845.3, 263.5)">Y</text><image xlink:href="../../EF084222-6D95-46C0-903F-20AC21FED3B7/assets/EE786CDF27F216E70B6C365F2490742C.png" width="24.00" height="18.00" transform="matrix(1.00, 0.00, -0.00, -1.00, 866.0, 285.0)"></image><text xml:space="preserve" font-family="CenturyGothic,Century Gothic" font-size="32.0" fill="#000000" transform="matrix(1.00, 0.00, -0.00, -1.00, 860.4, 263.5)"> </text><text xml:space="preserve" font-family="CenturyGothic,Century Gothic" font-size="32.0" fill="#000000" transform="matrix(1.00, 0.00, -0.00, -1.00, 869.3, 263.5)">=</text><text xml:space="preserve" font-family="CenturyGothic,Century Gothic" font-size="32.0" fill="#000000" transform="matrix(1.00, 0.00, -0.00, -1.00, 888.7, 263.5)"> </text><image xlink:href="../../EF084222-6D95-46C0-903F-20AC21FED3B7/assets/E354A6C5804E07D8543D95EA927E47AD.png" width="39.00" height="34.00" transform="matrix(1.00, 0.00, -0.00, -1.00, 670.0, 254.0)"></image><text xml:space="preserve" font-family="CenturyGothic,Century Gothic" font-size="32.0" fill="#000000" transform="matrix(1.00, 0.00, -0.00, -1.00, 670.7, 224.5)">1</text><text xml:space="preserve" font-family="CenturyGothic,Century Gothic" font-size="32.0" fill="#000000" transform="matrix(1.00, 0.00, -0.00, -1.00, 688.5, 224.5)">0</text></g></svg>