<?xml version="1.0" encoding="UTF-8" standalone="no"?><svg xmlns="http://www.w3.org/2000/svg" xmlns:xlink="http://www.w3.org/1999/xlink" clip-rule="evenodd" stroke-miterlimit="10" viewBox="0 0 267 51"><desc>SVG generated by Keynote</desc><defs></defs><g transform="matrix(1.00, 0.00, -0.00, -1.00, 0.0, 51.0)"><image xlink:href="../../12EF76FC-CA06-4D4B-9B58-5970B6969872/assets/643ADB20C1C101126FE48123506F312F.png" width="264.00" height="48.00" transform="matrix(1.00, 0.00, -0.00, -1.00, 1.0, 49.0)"></image><text xml:space="preserve" font-family="CenturyGothic,Century Gothic" font-size="56.8" fill="#000000" transform="matrix(1.00, 0.00, -0.00, -1.00, 2.8, 2.7)">W</text><text xml:space="preserve" font-family="CenturyGothic,Century Gothic" font-size="56.8" fill="#000000" transform="matrix(1.00, 0.00, -0.00, -1.00, 53.2, 2.7)">A</text><text xml:space="preserve" font-family="CenturyGothic,Century Gothic" font-size="56.8" fill="#000000" transform="matrix(1.00, 0.00, -0.00, -1.00, 88.3, 2.7)">V</text><text xml:space="preserve" font-family="CenturyGothic,Century Gothic" font-size="56.8" fill="#000000" transform="matrix(1.00, 0.00, -0.00, -1.00, 128.2, 2.7)">E</text><text xml:space="preserve" font-family="CenturyGothic,Century Gothic" font-size="56.8" fill="#000000" transform="matrix(1.00, 0.00, -0.00, -1.00, 158.7, 2.7)">L</text><text xml:space="preserve" font-family="CenturyGothic,Century Gothic" font-size="56.8" fill="#000000" transform="matrix(1.00, 0.00, -0.00, -1.00, 184.9, 2.7)">E</text><text xml:space="preserve" font-family="CenturyGothic,Century Gothic" font-size="56.8" fill="#000000" transform="matrix(1.00, 0.00, -0.00, -1.00, 215.4, 2.7)">T</text><text xml:space="preserve" font-family="CenturyGothic,Century Gothic" font-size="56.8" fill="#000000" transform="matrix(1.00, 0.00, -0.00, -1.00, 239.6, 2.7)">S</text></g></svg>