<?xml version="1.0" encoding="UTF-8" standalone="no"?><svg xmlns="http://www.w3.org/2000/svg" xmlns:xlink="http://www.w3.org/1999/xlink" clip-rule="evenodd" stroke-miterlimit="10" viewBox="0 0 1024 768"><desc>SVG generated by Keynote</desc><defs></defs><g transform="matrix(1.00, 0.00, -0.00, -1.00, 0.0, 768.0)"><path d="M 0.0 768.0 L 1024.0 768.0 L 1024.0 0.0 L 0.0 0.0 Z M 0.0 768.0 " fill="#FFFFFF"></path><image xlink:href="../../2228AE9C-3706-437F-8379-D21BA5B8F0CA/assets/C2129A3EE7512E75FEE2A48785F9B6A3.png" width="1033.00" height="179.00" transform="matrix(0.21, 0.00, -0.00, -0.21, 39.9, 95.6)"></image><image xlink:href="../../12EF76FC-CA06-4D4B-9B58-5970B6969872/assets/643ADB20C1C101126FE48123506F312F.png" width="264.00" height="48.00" transform="matrix(1.00, 0.00, -0.00, -1.00, 98.0, 668.0)"></image><text xml:space="preserve" font-family="CenturyGothic,Century Gothic" font-size="56.8" fill="#000000" transform="matrix(1.00, 0.00, -0.00, -1.00, 99.8, 621.7)">W</text><text xml:space="preserve" font-family="CenturyGothic,Century Gothic" font-size="56.8" fill="#000000" transform="matrix(1.00, 0.00, -0.00, -1.00, 150.2, 621.7)">A</text><text xml:space="preserve" font-family="CenturyGothic,Century Gothic" font-size="56.8" fill="#000000" transform="matrix(1.00, 0.00, -0.00, -1.00, 185.3, 621.7)">V</text><text xml:space="preserve" font-family="CenturyGothic,Century Gothic" font-size="56.8" fill="#000000" transform="matrix(1.00, 0.00, -0.00, -1.00, 225.2, 621.7)">E</text><text xml:space="preserve" font-family="CenturyGothic,Century Gothic" font-size="56.8" fill="#000000" transform="matrix(1.00, 0.00, -0.00, -1.00, 255.7, 621.7)">L</text><text xml:space="preserve" font-family="CenturyGothic,Century Gothic" font-size="56.8" fill="#000000" transform="matrix(1.00, 0.00, -0.00, -1.00, 281.9, 621.7)">E</text><text xml:space="preserve" font-family="CenturyGothic,Century Gothic" font-size="56.8" fill="#000000" transform="matrix(1.00, 0.00, -0.00, -1.00, 312.4, 621.7)">T</text><text xml:space="preserve" font-family="CenturyGothic,Century Gothic" font-size="56.8" fill="#000000" transform="matrix(1.00, 0.00, -0.00, -1.00, 336.6, 621.7)">S</text><image xlink:href="../../8360CE45-2D5C-464E-95DD-A888F464A7E4/assets/063AA5EFFDC03A7CAA67EA400F57F451.png" width="18.00" height="18.00" transform="matrix(1.00, 0.00, -0.00, -1.00, 96.0, 490.0)"></image><text xml:space="preserve" font-family="ArialMT,Arial" font-size="36.0" fill="#000000" transform="matrix(1.00, 0.00, -0.00, -1.00, 99.8, 467.3)">•</text><image xlink:href="../../8360CE45-2D5C-464E-95DD-A888F464A7E4/assets/6B4BB1F648E8F1AD889D962BC28A1CC4.png" width="36.00" height="36.00" transform="matrix(1.00, 0.00, -0.00, -1.00, 128.0, 498.0)"></image><text xml:space="preserve" font-family="CenturyGothic,Century Gothic" font-size="36.0" fill="#000000" transform="matrix(1.00, 0.00, -0.00, -1.00, 131.7, 466.0)">О</text><image xlink:href="../../8360CE45-2D5C-464E-95DD-A888F464A7E4/assets/3AB511D6902D0C87F8CCD4D7A5ACB117.png" width="45.00" height="29.00" transform="matrix(1.00, 0.00, -0.00, -1.00, 160.0, 492.0)"></image><text xml:space="preserve" font-family="CenturyGothic,Century Gothic" font-size="28.8" fill="#000000" transform="matrix(1.00, 0.00, -0.00, -1.00, 163.0, 466.0)">Н</text><text xml:space="preserve" font-family="CenturyGothic,Century Gothic" font-size="28.8" fill="#000000" transform="matrix(1.00, 0.00, -0.00, -1.00, 182.7, 466.0)">И</text><text xml:space="preserve" font-family="CenturyGothic,Century Gothic" font-size="36.0" fill="#000000" transform="matrix(1.00, 0.00, -0.00, -1.00, 204.0, 466.0)"> </text><image xlink:href="../../8360CE45-2D5C-464E-95DD-A888F464A7E4/assets/EDC7DCCE11335BCD366CB2A6CA2C8CF5.png" width="73.00" height="31.00" transform="matrix(1.00, 0.00, -0.00, -1.00, 211.0, 493.0)"></image><text xml:space="preserve" font-family="CenturyGothic,Century Gothic" font-size="28.8" fill="#000000" transform="matrix(1.00, 0.00, -0.00, -1.00, 213.9, 466.0)">Е</text><text xml:space="preserve" font-family="CenturyGothic,Century Gothic" font-size="28.8" fill="#000000" transform="matrix(1.00, 0.00, -0.00, -1.00, 229.4, 466.0)">С</text><text xml:space="preserve" font-family="CenturyGothic,Century Gothic" font-size="28.8" fill="#000000" transform="matrix(1.00, 0.00, -0.00, -1.00, 252.8, 466.0)">Т</text><text xml:space="preserve" font-family="CenturyGothic,Century Gothic" font-size="28.8" fill="#000000" transform="matrix(1.00, 0.00, -0.00, -1.00, 265.1, 466.0)">Ь</text><text xml:space="preserve" font-family="CenturyGothic,Century Gothic" font-size="36.0" fill="#000000" transform="matrix(1.00, 0.00, -0.00, -1.00, 282.5, 466.0)"> </text><image xlink:href="../../8360CE45-2D5C-464E-95DD-A888F464A7E4/assets/15EE39D6FBF6E53A1840B622612A62F9.png" width="119.00" height="31.00" transform="matrix(1.00, 0.00, -0.00, -1.00, 289.0, 493.0)"></image><text xml:space="preserve" font-family="CenturyGothic,Century Gothic" font-size="28.8" fill="#000000" transform="matrix(1.00, 0.00, -0.00, -1.00, 292.5, 466.0)">Р</text><text xml:space="preserve" font-family="CenturyGothic,Century Gothic" font-size="28.8" fill="#000000" transform="matrix(1.00, 0.00, -0.00, -1.00, 309.5, 466.0)">А</text><text xml:space="preserve" font-family="CenturyGothic,Century Gothic" font-size="28.8" fill="#000000" transform="matrix(1.00, 0.00, -0.00, -1.00, 330.8, 466.0)">З</text><text xml:space="preserve" font-family="CenturyGothic,Century Gothic" font-size="28.8" fill="#000000" transform="matrix(1.00, 0.00, -0.00, -1.00, 347.6, 466.0)">Н</text><text xml:space="preserve" font-family="CenturyGothic,Century Gothic" font-size="28.8" fill="#000000" transform="matrix(1.00, 0.00, -0.00, -1.00, 367.2, 466.0)">Ы</text><text xml:space="preserve" font-family="CenturyGothic,Century Gothic" font-size="28.8" fill="#000000" transform="matrix(1.00, 0.00, -0.00, -1.00, 390.1, 466.0)">Е</text><image xlink:href="../../8360CE45-2D5C-464E-95DD-A888F464A7E4/assets/063AA5EFFDC03A7CAA67EA400F57F451.png" width="18.00" height="18.00" transform="matrix(1.00, 0.00, -0.00, -1.00, 96.0, 440.0)"></image><text xml:space="preserve" font-family="ArialMT,Arial" font-size="36.0" fill="#000000" transform="matrix(1.00, 0.00, -0.00, -1.00, 99.8, 417.3)">•</text><image xlink:href="../../8360CE45-2D5C-464E-95DD-A888F464A7E4/assets/6B4BB1F648E8F1AD889D962BC28A1CC4.png" width="36.00" height="36.00" transform="matrix(1.00, 0.00, -0.00, -1.00, 128.0, 448.0)"></image><text xml:space="preserve" font-family="CenturyGothic,Century Gothic" font-size="36.0" fill="#000000" transform="matrix(1.00, 0.00, -0.00, -1.00, 131.7, 416.0)">О</text><image xlink:href="../../8360CE45-2D5C-464E-95DD-A888F464A7E4/assets/33E2EC467AA0C6FC8DF9FAEF3D1136F1.png" width="175.00" height="31.00" transform="matrix(1.00, 0.00, -0.00, -1.00, 160.0, 443.0)"></image><text xml:space="preserve" font-family="CenturyGothic,Century Gothic" font-size="28.8" fill="#000000" transform="matrix(1.00, 0.00, -0.00, -1.00, 163.0, 416.0)">П</text><text xml:space="preserve" font-family="CenturyGothic,Century Gothic" font-size="28.8" fill="#000000" transform="matrix(1.00, 0.00, -0.00, -1.00, 182.7, 416.0)">И</text><text xml:space="preserve" font-family="CenturyGothic,Century Gothic" font-size="28.8" fill="#000000" transform="matrix(1.00, 0.00, -0.00, -1.00, 204.0, 416.0)">С</text><text xml:space="preserve" font-family="CenturyGothic,Century Gothic" font-size="28.8" fill="#000000" transform="matrix(1.00, 0.00, -0.00, -1.00, 227.4, 416.0)">Ы</text><text xml:space="preserve" font-family="CenturyGothic,Century Gothic" font-size="28.8" fill="#000000" transform="matrix(1.00, 0.00, -0.00, -1.00, 250.2, 416.0)">В</text><text xml:space="preserve" font-family="CenturyGothic,Century Gothic" font-size="28.8" fill="#000000" transform="matrix(1.00, 0.00, -0.00, -1.00, 266.8, 416.0)">А</text><text xml:space="preserve" font-family="CenturyGothic,Century Gothic" font-size="28.8" fill="#000000" transform="matrix(1.00, 0.00, -0.00, -1.00, 288.1, 416.0)">Ю</text><text xml:space="preserve" font-family="CenturyGothic,Century Gothic" font-size="28.8" fill="#000000" transform="matrix(1.00, 0.00, -0.00, -1.00, 319.6, 416.0)">Т</text><text xml:space="preserve" font-family="CenturyGothic,Century Gothic" font-size="36.0" fill="#000000" transform="matrix(1.00, 0.00, -0.00, -1.00, 331.9, 416.0)"> </text><image xlink:href="../../8360CE45-2D5C-464E-95DD-A888F464A7E4/assets/87F6DB7A103744C6DD629F7A485FEB9C.png" width="35.00" height="29.00" transform="matrix(1.00, 0.00, -0.00, -1.00, 337.0, 442.0)"></image><text xml:space="preserve" font-family="CenturyGothic,Century Gothic" font-size="28.8" fill="#000000" transform="matrix(1.00, 0.00, -0.00, -1.00, 341.8, 416.0)">Т</text><text xml:space="preserve" font-family="CenturyGothic,Century Gothic" font-size="28.8" fill="#000000" transform="matrix(1.00, 0.00, -0.00, -1.00, 354.1, 416.0)">Е</text><text xml:space="preserve" font-family="CenturyGothic,Century Gothic" font-size="36.0" fill="#000000" transform="matrix(1.00, 0.00, -0.00, -1.00, 369.6, 416.0)"> </text><image xlink:href="../../8360CE45-2D5C-464E-95DD-A888F464A7E4/assets/80F5E57A14A54FB4E6919933BC831D34.png" width="49.00" height="29.00" transform="matrix(1.00, 0.00, -0.00, -1.00, 375.0, 442.0)"></image><text xml:space="preserve" font-family="CenturyGothic,Century Gothic" font-size="28.8" fill="#000000" transform="matrix(1.00, 0.00, -0.00, -1.00, 379.5, 416.0)">Ж</text><text xml:space="preserve" font-family="CenturyGothic,Century Gothic" font-size="28.8" fill="#000000" transform="matrix(1.00, 0.00, -0.00, -1.00, 406.4, 416.0)">Е</text><text xml:space="preserve" font-family="CenturyGothic,Century Gothic" font-size="36.0" fill="#000000" transform="matrix(1.00, 0.00, -0.00, -1.00, 421.9, 416.0)"> </text><image xlink:href="../../8360CE45-2D5C-464E-95DD-A888F464A7E4/assets/86B45AD95180209D4D6BAA257D5390B9.png" width="108.00" height="31.00" transform="matrix(1.00, 0.00, -0.00, -1.00, 429.0, 443.0)"></image><text xml:space="preserve" font-family="CenturyGothic,Century Gothic" font-size="28.8" fill="#000000" transform="matrix(1.00, 0.00, -0.00, -1.00, 431.9, 416.0)">В</text><text xml:space="preserve" font-family="CenturyGothic,Century Gothic" font-size="28.8" fill="#000000" transform="matrix(1.00, 0.00, -0.00, -1.00, 448.4, 416.0)">О</text><text xml:space="preserve" font-family="CenturyGothic,Century Gothic" font-size="28.8" fill="#000000" transform="matrix(1.00, 0.00, -0.00, -1.00, 473.4, 416.0)">Л</text><text xml:space="preserve" font-family="CenturyGothic,Century Gothic" font-size="28.8" fill="#000000" transform="matrix(1.00, 0.00, -0.00, -1.00, 493.7, 416.0)">Н</text><text xml:space="preserve" font-family="CenturyGothic,Century Gothic" font-size="28.8" fill="#000000" transform="matrix(1.00, 0.00, -0.00, -1.00, 513.3, 416.0)">Ы</text><image xlink:href="../../8360CE45-2D5C-464E-95DD-A888F464A7E4/assets/6962210E9ABA66DAC5C53656759F1964.png" width="14.00" height="17.00" transform="matrix(1.00, 0.00, -0.00, -1.00, 533.0, 426.0)"></image><text xml:space="preserve" font-family="CenturyGothic,Century Gothic" font-size="36.0" fill="#000000" transform="matrix(1.00, 0.00, -0.00, -1.00, 536.2, 416.0)">,</text><text xml:space="preserve" font-family="CenturyGothic,Century Gothic" font-size="36.0" fill="#000000" transform="matrix(1.00, 0.00, -0.00, -1.00, 546.1, 416.0)"> </text><image xlink:href="../../8360CE45-2D5C-464E-95DD-A888F464A7E4/assets/61C5EA2588E308B01CA6BB2428F367C7.png" width="124.00" height="31.00" transform="matrix(1.00, 0.00, -0.00, -1.00, 551.0, 443.0)"></image><text xml:space="preserve" font-family="CenturyGothic,Century Gothic" font-size="28.8" fill="#000000" transform="matrix(1.00, 0.00, -0.00, -1.00, 556.1, 416.0)">Т</text><text xml:space="preserve" font-family="CenturyGothic,Century Gothic" font-size="28.8" fill="#000000" transform="matrix(1.00, 0.00, -0.00, -1.00, 568.3, 416.0)">О</text><text xml:space="preserve" font-family="CenturyGothic,Century Gothic" font-size="28.8" fill="#000000" transform="matrix(1.00, 0.00, -0.00, -1.00, 593.4, 416.0)">Л</text><text xml:space="preserve" font-family="CenturyGothic,Century Gothic" font-size="28.8" fill="#000000" transform="matrix(1.00, 0.00, -0.00, -1.00, 613.6, 416.0)">Ь</text><text xml:space="preserve" font-family="CenturyGothic,Century Gothic" font-size="28.8" fill="#000000" transform="matrix(1.00, 0.00, -0.00, -1.00, 631.1, 416.0)">К</text><text xml:space="preserve" font-family="CenturyGothic,Century Gothic" font-size="28.8" fill="#000000" transform="matrix(1.00, 0.00, -0.00, -1.00, 648.1, 416.0)">О</text><text xml:space="preserve" font-family="CenturyGothic,Century Gothic" font-size="36.0" fill="#000000" transform="matrix(1.00, 0.00, -0.00, -1.00, 673.1, 416.0)"> </text><image xlink:href="../../8360CE45-2D5C-464E-95DD-A888F464A7E4/assets/19D1F689D80E2DED54DF9142CEFB37E9.png" width="22.00" height="29.00" transform="matrix(1.00, 0.00, -0.00, -1.00, 680.0, 442.0)"></image><text xml:space="preserve" font-family="CenturyGothic,Century Gothic" font-size="28.8" fill="#000000" transform="matrix(1.00, 0.00, -0.00, -1.00, 683.1, 416.0)">В</text><text xml:space="preserve" font-family="CenturyGothic,Century Gothic" font-size="36.0" fill="#000000" transform="matrix(1.00, 0.00, -0.00, -1.00, 699.6, 416.0)"> </text><image xlink:href="../../8360CE45-2D5C-464E-95DD-A888F464A7E4/assets/027D810CD6C9336B68BECB5462809E1B.png" width="146.00" height="31.00" transform="matrix(1.00, 0.00, -0.00, -1.00, 707.0, 443.0)"></image><text xml:space="preserve" font-family="CenturyGothic,Century Gothic" font-size="28.8" fill="#000000" transform="matrix(1.00, 0.00, -0.00, -1.00, 709.6, 416.0)">П</text><text xml:space="preserve" font-family="CenturyGothic,Century Gothic" font-size="28.8" fill="#000000" transform="matrix(1.00, 0.00, -0.00, -1.00, 729.3, 416.0)">Р</text><text xml:space="preserve" font-family="CenturyGothic,Century Gothic" font-size="28.8" fill="#000000" transform="matrix(1.00, 0.00, -0.00, -1.00, 746.3, 416.0)">И</text><text xml:space="preserve" font-family="CenturyGothic,Century Gothic" font-size="28.8" fill="#000000" transform="matrix(1.00, 0.00, -0.00, -1.00, 767.6, 416.0)">В</text><text xml:space="preserve" font-family="CenturyGothic,Century Gothic" font-size="28.8" fill="#000000" transform="matrix(1.00, 0.00, -0.00, -1.00, 784.1, 416.0)">Я</text><text xml:space="preserve" font-family="CenturyGothic,Century Gothic" font-size="28.8" fill="#000000" transform="matrix(1.00, 0.00, -0.00, -1.00, 800.9, 416.0)">З</text><text xml:space="preserve" font-family="CenturyGothic,Century Gothic" font-size="28.8" fill="#000000" transform="matrix(1.00, 0.00, -0.00, -1.00, 817.7, 416.0)">К</text><text xml:space="preserve" font-family="CenturyGothic,Century Gothic" font-size="28.8" fill="#000000" transform="matrix(1.00, 0.00, -0.00, -1.00, 834.7, 416.0)">Е</text><text xml:space="preserve" font-family="CenturyGothic,Century Gothic" font-size="36.0" fill="#000000" transform="matrix(1.00, 0.00, -0.00, -1.00, 850.1, 416.0)"> </text><image xlink:href="../../8360CE45-2D5C-464E-95DD-A888F464A7E4/assets/72A23396C8EE452F733B3BC77AECB3D8.png" width="23.00" height="29.00" transform="matrix(1.00, 0.00, -0.00, -1.00, 857.0, 442.0)"></image><text xml:space="preserve" font-family="CenturyGothic,Century Gothic" font-size="28.8" fill="#000000" transform="matrix(1.00, 0.00, -0.00, -1.00, 860.1, 416.0)">К</text><text xml:space="preserve" font-family="CenturyGothic,Century Gothic" font-size="36.0" fill="#000000" transform="matrix(1.00, 0.00, -0.00, -1.00, 877.1, 416.0)"> </text><image xlink:href="../../8360CE45-2D5C-464E-95DD-A888F464A7E4/assets/5CBD483FBFB75C9DA3BDFA3AE9982471.png" width="209.00" height="31.00" transform="matrix(1.00, 0.00, -0.00, -1.00, 129.0, 406.0)"></image><text xml:space="preserve" font-family="CenturyGothic,Century Gothic" font-size="28.8" fill="#000000" transform="matrix(1.00, 0.00, -0.00, -1.00, 131.7, 379.4)">П</text><text xml:space="preserve" font-family="CenturyGothic,Century Gothic" font-size="28.8" fill="#000000" transform="matrix(1.00, 0.00, -0.00, -1.00, 151.4, 379.4)">О</text><text xml:space="preserve" font-family="CenturyGothic,Century Gothic" font-size="28.8" fill="#000000" transform="matrix(1.00, 0.00, -0.00, -1.00, 176.4, 379.4)">Л</text><text xml:space="preserve" font-family="CenturyGothic,Century Gothic" font-size="28.8" fill="#000000" transform="matrix(1.00, 0.00, -0.00, -1.00, 196.7, 379.4)">О</text><text xml:space="preserve" font-family="CenturyGothic,Century Gothic" font-size="28.8" fill="#000000" transform="matrix(1.00, 0.00, -0.00, -1.00, 221.7, 379.4)">Ж</text><text xml:space="preserve" font-family="CenturyGothic,Century Gothic" font-size="28.8" fill="#000000" transform="matrix(1.00, 0.00, -0.00, -1.00, 248.6, 379.4)">Е</text><text xml:space="preserve" font-family="CenturyGothic,Century Gothic" font-size="28.8" fill="#000000" transform="matrix(1.00, 0.00, -0.00, -1.00, 264.1, 379.4)">Н</text><text xml:space="preserve" font-family="CenturyGothic,Century Gothic" font-size="28.8" fill="#000000" transform="matrix(1.00, 0.00, -0.00, -1.00, 283.7, 379.4)">И</text><text xml:space="preserve" font-family="CenturyGothic,Century Gothic" font-size="28.8" fill="#000000" transform="matrix(1.00, 0.00, -0.00, -1.00, 305.0, 379.4)">Ю</text><image xlink:href="../../8360CE45-2D5C-464E-95DD-A888F464A7E4/assets/063AA5EFFDC03A7CAA67EA400F57F451.png" width="18.00" height="18.00" transform="matrix(1.00, 0.00, -0.00, -1.00, 96.0, 355.0)"></image><text xml:space="preserve" font-family="ArialMT,Arial" font-size="36.0" fill="#000000" transform="matrix(1.00, 0.00, -0.00, -1.00, 99.8, 332.3)">•</text><image xlink:href="../../8360CE45-2D5C-464E-95DD-A888F464A7E4/assets/3356CA41A99952F35930C30518D366E7.png" width="175.00" height="36.00" transform="matrix(1.00, 0.00, -0.00, -1.00, 128.0, 363.0)"></image><text xml:space="preserve" font-family="CenturyGothic,Century Gothic" font-size="36.0" fill="#000000" transform="matrix(1.00, 0.00, -0.00, -1.00, 131.7, 331.0)">J</text><text xml:space="preserve" font-family="CenturyGothic,Century Gothic" font-size="36.0" fill="#000000" transform="matrix(1.00, 0.00, -0.00, -1.00, 149.1, 331.0)">P</text><text xml:space="preserve" font-family="CenturyGothic,Century Gothic" font-size="36.0" fill="#000000" transform="matrix(1.00, 0.00, -0.00, -1.00, 170.4, 331.0)">E</text><text xml:space="preserve" font-family="CenturyGothic,Century Gothic" font-size="36.0" fill="#000000" transform="matrix(1.00, 0.00, -0.00, -1.00, 189.7, 331.0)">G</text><text xml:space="preserve" font-family="CenturyGothic,Century Gothic" font-size="36.0" fill="#000000" transform="matrix(1.00, 0.00, -0.00, -1.00, 221.1, 331.0)">2</text><text xml:space="preserve" font-family="CenturyGothic,Century Gothic" font-size="36.0" fill="#000000" transform="matrix(1.00, 0.00, -0.00, -1.00, 241.0, 331.0)">0</text><text xml:space="preserve" font-family="CenturyGothic,Century Gothic" font-size="36.0" fill="#000000" transform="matrix(1.00, 0.00, -0.00, -1.00, 260.9, 331.0)">0</text><text xml:space="preserve" font-family="CenturyGothic,Century Gothic" font-size="36.0" fill="#000000" transform="matrix(1.00, 0.00, -0.00, -1.00, 280.9, 331.0)">0</text><image xlink:href="../../8360CE45-2D5C-464E-95DD-A888F464A7E4/assets/063AA5EFFDC03A7CAA67EA400F57F451.png" width="18.00" height="18.00" transform="matrix(1.00, 0.00, -0.00, -1.00, 96.0, 305.0)"></image><text xml:space="preserve" font-family="ArialMT,Arial" font-size="36.0" fill="#000000" transform="matrix(1.00, 0.00, -0.00, -1.00, 99.8, 282.3)">•</text><image xlink:href="../../8360CE45-2D5C-464E-95DD-A888F464A7E4/assets/A8E7C00559A5D001EAE3568A1A7DB85B.png" width="30.00" height="34.00" transform="matrix(1.00, 0.00, -0.00, -1.00, 129.0, 312.0)"></image><text xml:space="preserve" font-family="CenturyGothic,Century Gothic" font-size="36.0" fill="#000000" transform="matrix(1.00, 0.00, -0.00, -1.00, 131.7, 281.0)">И</text><image xlink:href="../../8360CE45-2D5C-464E-95DD-A888F464A7E4/assets/F359851C7FD50A29F4205B931F374899.png" width="230.00" height="31.00" transform="matrix(1.00, 0.00, -0.00, -1.00, 154.0, 308.0)"></image><text xml:space="preserve" font-family="CenturyGothic,Century Gothic" font-size="28.8" fill="#000000" transform="matrix(1.00, 0.00, -0.00, -1.00, 158.3, 281.0)">C</text><text xml:space="preserve" font-family="CenturyGothic,Century Gothic" font-size="28.8" fill="#000000" transform="matrix(1.00, 0.00, -0.00, -1.00, 181.8, 281.0)">П</text><text xml:space="preserve" font-family="CenturyGothic,Century Gothic" font-size="28.8" fill="#000000" transform="matrix(1.00, 0.00, -0.00, -1.00, 201.4, 281.0)">О</text><text xml:space="preserve" font-family="CenturyGothic,Century Gothic" font-size="28.8" fill="#000000" transform="matrix(1.00, 0.00, -0.00, -1.00, 226.5, 281.0)">Л</text><text xml:space="preserve" font-family="CenturyGothic,Century Gothic" font-size="28.8" fill="#000000" transform="matrix(1.00, 0.00, -0.00, -1.00, 246.7, 281.0)">Ь</text><text xml:space="preserve" font-family="CenturyGothic,Century Gothic" font-size="28.8" fill="#000000" transform="matrix(1.00, 0.00, -0.00, -1.00, 264.1, 281.0)">З</text><text xml:space="preserve" font-family="CenturyGothic,Century Gothic" font-size="28.8" fill="#000000" transform="matrix(1.00, 0.00, -0.00, -1.00, 280.9, 281.0)">У</text><text xml:space="preserve" font-family="CenturyGothic,Century Gothic" font-size="28.8" fill="#000000" transform="matrix(1.00, 0.00, -0.00, -1.00, 299.5, 281.0)">Ю</text><text xml:space="preserve" font-family="CenturyGothic,Century Gothic" font-size="28.8" fill="#000000" transform="matrix(1.00, 0.00, -0.00, -1.00, 331.0, 281.0)">Т</text><text xml:space="preserve" font-family="CenturyGothic,Century Gothic" font-size="28.8" fill="#000000" transform="matrix(1.00, 0.00, -0.00, -1.00, 343.3, 281.0)">С</text><text xml:space="preserve" font-family="CenturyGothic,Century Gothic" font-size="28.8" fill="#000000" transform="matrix(1.00, 0.00, -0.00, -1.00, 366.7, 281.0)">Я</text><text xml:space="preserve" font-family="CenturyGothic,Century Gothic" font-size="36.0" fill="#000000" transform="matrix(1.00, 0.00, -0.00, -1.00, 383.5, 281.0)"> </text><image xlink:href="../../8360CE45-2D5C-464E-95DD-A888F464A7E4/assets/74F33AB70D47DCB4A8F3DC9BF48992E9.png" width="21.00" height="29.00" transform="matrix(1.00, 0.00, -0.00, -1.00, 391.0, 307.0)"></image><text xml:space="preserve" font-family="CenturyGothic,Century Gothic" font-size="28.8" fill="#000000" transform="matrix(1.00, 0.00, -0.00, -1.00, 393.5, 281.0)">В</text><text xml:space="preserve" font-family="CenturyGothic,Century Gothic" font-size="36.0" fill="#000000" transform="matrix(1.00, 0.00, -0.00, -1.00, 410.0, 281.0)"> </text><image xlink:href="../../8360CE45-2D5C-464E-95DD-A888F464A7E4/assets/7F52B6DC33BA181DACD673160EEF1971.png" width="63.00" height="31.00" transform="matrix(1.00, 0.00, -0.00, -1.00, 417.0, 308.0)"></image><text xml:space="preserve" font-family="CenturyGothic,Century Gothic" font-size="28.8" fill="#000000" transform="matrix(1.00, 0.00, -0.00, -1.00, 420.0, 281.0)">I</text><text xml:space="preserve" font-family="CenturyGothic,Century Gothic" font-size="28.8" fill="#000000" transform="matrix(1.00, 0.00, -0.00, -1.00, 426.5, 281.0)">M</text><text xml:space="preserve" font-family="CenturyGothic,Century Gothic" font-size="28.8" fill="#000000" transform="matrix(1.00, 0.00, -0.00, -1.00, 453.0, 281.0)">G</text><image xlink:href="../../8360CE45-2D5C-464E-95DD-A888F464A7E4/assets/7C947113AD988AF7A5D0353AB62ACB31.png" width="24.00" height="36.00" transform="matrix(1.00, 0.00, -0.00, -1.00, 473.0, 313.0)"></image><text xml:space="preserve" font-family="CenturyGothic,Century Gothic" font-size="36.0" fill="#000000" transform="matrix(1.00, 0.00, -0.00, -1.00, 478.1, 281.0)">S</text><image xlink:href="../../8360CE45-2D5C-464E-95DD-A888F464A7E4/assets/EE80DD9346C9ACF0A08299721B8D73F9.png" width="54.00" height="29.00" transform="matrix(1.00, 0.00, -0.00, -1.00, 493.0, 307.0)"></image><text xml:space="preserve" font-family="CenturyGothic,Century Gothic" font-size="28.8" fill="#000000" transform="matrix(1.00, 0.00, -0.00, -1.00, 496.0, 281.0)">E</text><text xml:space="preserve" font-family="CenturyGothic,Century Gothic" font-size="28.8" fill="#000000" transform="matrix(1.00, 0.00, -0.00, -1.00, 511.5, 281.0)">E</text><text xml:space="preserve" font-family="CenturyGothic,Century Gothic" font-size="28.8" fill="#000000" transform="matrix(1.00, 0.00, -0.00, -1.00, 526.9, 281.0)">K</text><image xlink:href="../../8360CE45-2D5C-464E-95DD-A888F464A7E4/assets/063AA5EFFDC03A7CAA67EA400F57F451.png" width="18.00" height="18.00" transform="matrix(1.00, 0.00, -0.00, -1.00, 96.0, 255.0)"></image><text xml:space="preserve" font-family="ArialMT,Arial" font-size="36.0" fill="#000000" transform="matrix(1.00, 0.00, -0.00, -1.00, 99.8, 232.3)">•</text><image xlink:href="../../8360CE45-2D5C-464E-95DD-A888F464A7E4/assets/F087E87691BA97087F9864E8E99759DD.png" width="24.00" height="34.00" transform="matrix(1.00, 0.00, -0.00, -1.00, 129.0, 262.0)"></image><text xml:space="preserve" font-family="CenturyGothic,Century Gothic" font-size="36.0" fill="#000000" transform="matrix(1.00, 0.00, -0.00, -1.00, 131.7, 231.0)">Е</text><image xlink:href="../../8360CE45-2D5C-464E-95DD-A888F464A7E4/assets/A00571E4F3550B9A4E0E3C39E80BA88A.png" width="59.00" height="31.00" transform="matrix(1.00, 0.00, -0.00, -1.00, 147.0, 258.0)"></image><text xml:space="preserve" font-family="CenturyGothic,Century Gothic" font-size="28.8" fill="#000000" transform="matrix(1.00, 0.00, -0.00, -1.00, 151.0, 231.0)">С</text><text xml:space="preserve" font-family="CenturyGothic,Century Gothic" font-size="28.8" fill="#000000" transform="matrix(1.00, 0.00, -0.00, -1.00, 174.4, 231.0)">Т</text><text xml:space="preserve" font-family="CenturyGothic,Century Gothic" font-size="28.8" fill="#000000" transform="matrix(1.00, 0.00, -0.00, -1.00, 186.7, 231.0)">Ь</text><text xml:space="preserve" font-family="CenturyGothic,Century Gothic" font-size="36.0" fill="#000000" transform="matrix(1.00, 0.00, -0.00, -1.00, 204.1, 231.0)"> </text><image xlink:href="../../8360CE45-2D5C-464E-95DD-A888F464A7E4/assets/A8656BC5BD207B90FEB6FF7B5BF9C37F.png" width="196.00" height="34.00" transform="matrix(1.00, 0.00, -0.00, -1.00, 211.0, 258.0)"></image><text xml:space="preserve" font-family="CenturyGothic,Century Gothic" font-size="28.8" fill="#000000" transform="matrix(1.00, 0.00, -0.00, -1.00, 214.1, 231.0)">Р</text><text xml:space="preserve" font-family="CenturyGothic,Century Gothic" font-size="28.8" fill="#000000" transform="matrix(1.00, 0.00, -0.00, -1.00, 231.1, 231.0)">Е</text><text xml:space="preserve" font-family="CenturyGothic,Century Gothic" font-size="28.8" fill="#000000" transform="matrix(1.00, 0.00, -0.00, -1.00, 246.6, 231.0)">А</text><text xml:space="preserve" font-family="CenturyGothic,Century Gothic" font-size="28.8" fill="#000000" transform="matrix(1.00, 0.00, -0.00, -1.00, 267.9, 231.0)">Л</text><text xml:space="preserve" font-family="CenturyGothic,Century Gothic" font-size="28.8" fill="#000000" transform="matrix(1.00, 0.00, -0.00, -1.00, 288.1, 231.0)">И</text><text xml:space="preserve" font-family="CenturyGothic,Century Gothic" font-size="28.8" fill="#000000" transform="matrix(1.00, 0.00, -0.00, -1.00, 309.4, 231.0)">З</text><text xml:space="preserve" font-family="CenturyGothic,Century Gothic" font-size="28.8" fill="#000000" transform="matrix(1.00, 0.00, -0.00, -1.00, 326.1, 231.0)">А</text><text xml:space="preserve" font-family="CenturyGothic,Century Gothic" font-size="28.8" fill="#000000" transform="matrix(1.00, 0.00, -0.00, -1.00, 347.4, 231.0)">Ц</text><text xml:space="preserve" font-family="CenturyGothic,Century Gothic" font-size="28.8" fill="#000000" transform="matrix(1.00, 0.00, -0.00, -1.00, 367.8, 231.0)">И</text><text xml:space="preserve" font-family="CenturyGothic,Century Gothic" font-size="28.8" fill="#000000" transform="matrix(1.00, 0.00, -0.00, -1.00, 389.1, 231.0)">Я</text><text xml:space="preserve" font-family="CenturyGothic,Century Gothic" font-size="36.0" fill="#000000" transform="matrix(1.00, 0.00, -0.00, -1.00, 406.0, 231.0)"> </text><image xlink:href="../../8360CE45-2D5C-464E-95DD-A888F464A7E4/assets/89CE8E7EC2990374977EE466E5CB32D6.png" width="21.00" height="29.00" transform="matrix(1.00, 0.00, -0.00, -1.00, 413.0, 257.0)"></image><text xml:space="preserve" font-family="CenturyGothic,Century Gothic" font-size="28.8" fill="#000000" transform="matrix(1.00, 0.00, -0.00, -1.00, 415.9, 231.0)">В</text><text xml:space="preserve" font-family="CenturyGothic,Century Gothic" font-size="36.0" fill="#000000" transform="matrix(1.00, 0.00, -0.00, -1.00, 432.5, 231.0)"> </text><image xlink:href="../../8360CE45-2D5C-464E-95DD-A888F464A7E4/assets/18087D817E93318E76E0D84A2E140D07.png" width="22.00" height="29.00" transform="matrix(1.00, 0.00, -0.00, -1.00, 439.0, 257.0)"></image><text xml:space="preserve" font-family="CenturyGothic,Century Gothic" font-size="28.8" fill="#000000" transform="matrix(1.00, 0.00, -0.00, -1.00, 442.5, 231.0)">P</text><image xlink:href="../../8360CE45-2D5C-464E-95DD-A888F464A7E4/assets/04EEA4ED820F022B76BF979D464A1310.png" width="27.00" height="34.00" transform="matrix(1.00, 0.00, -0.00, -1.00, 457.0, 262.0)"></image><text xml:space="preserve" font-family="CenturyGothic,Century Gothic" font-size="36.0" fill="#000000" transform="matrix(1.00, 0.00, -0.00, -1.00, 459.5, 231.0)">H</text><image xlink:href="../../8360CE45-2D5C-464E-95DD-A888F464A7E4/assets/BE13B980AEB7E471D3E9403D74BB039B.png" width="61.00" height="31.00" transform="matrix(1.00, 0.00, -0.00, -1.00, 479.0, 258.0)"></image><text xml:space="preserve" font-family="CenturyGothic,Century Gothic" font-size="28.8" fill="#000000" transform="matrix(1.00, 0.00, -0.00, -1.00, 484.1, 231.0)">A</text><text xml:space="preserve" font-family="CenturyGothic,Century Gothic" font-size="28.8" fill="#000000" transform="matrix(1.00, 0.00, -0.00, -1.00, 505.4, 231.0)">S</text><text xml:space="preserve" font-family="CenturyGothic,Century Gothic" font-size="28.8" fill="#000000" transform="matrix(1.00, 0.00, -0.00, -1.00, 519.7, 231.0)">H</text><text xml:space="preserve" font-family="CenturyGothic-Bold,Century Gothic" font-weight="bold" font-size="28.0" fill="#525252" transform="matrix(1.00, 0.00, -0.00, -1.00, 933.5, 65.6)">2</text><text xml:space="preserve" font-family="CenturyGothic-Bold,Century Gothic" font-weight="bold" font-size="28.0" fill="#525252" transform="matrix(1.00, 0.00, -0.00, -1.00, 949.2, 65.6)">8</text><image xlink:href="../../8360CE45-2D5C-464E-95DD-A888F464A7E4/assets/37C5D149F6451DCCBA6F378C90D5E267.png" width="500.00" height="375.00" transform="matrix(0.75, 0.00, -0.00, -0.75, 525.3, 714.7)"></image><image xlink:href="../../8360CE45-2D5C-464E-95DD-A888F464A7E4/assets/8E71E64ABBBD59D0A40A5EED027811A9.png" width="480.00" height="360.00" transform="matrix(0.73, 0.00, -0.00, -0.73, 549.3, 388.0)"></image></g></svg>