<?xml version="1.0" encoding="UTF-8" standalone="no"?><svg xmlns="http://www.w3.org/2000/svg" xmlns:xlink="http://www.w3.org/1999/xlink" clip-rule="evenodd" stroke-miterlimit="10" viewBox="0 0 633 52"><desc>SVG generated by Keynote</desc><defs></defs><g transform="matrix(1.00, 0.00, -0.00, -1.00, 0.0, 52.0)"><image xlink:href="../../81FB6F8E-84D1-486E-9F41-6D448DA52191/assets/AC8EC60E434C367B3453376CAD754FC3.png" width="19.00" height="19.00" transform="matrix(1.00, 0.00, -0.00, -1.00, 1.0, 36.0)"></image><text xml:space="preserve" font-family="ArialMT,Arial" font-size="38.0" fill="#000000" transform="matrix(1.00, 0.00, -0.00, -1.00, 4.7, 12.2)">•</text><image xlink:href="0081AEFAEDCF8D7A3052EAF12A1ACA76.png" width="26.00" height="36.00" transform="matrix(1.00, 0.00, -0.00, -1.00, 34.0, 43.0)"></image><text xml:space="preserve" font-family="CenturyGothic,Century Gothic" font-size="38.0" fill="#000000" transform="matrix(1.00, 0.00, -0.00, -1.00, 36.6, 10.4)">Р</text><image xlink:href="E70746941ACF7F411E1ABC08B7F259B8.png" width="109.00" height="37.00" transform="matrix(1.00, 0.00, -0.00, -1.00, 56.0, 43.0)"></image><text xml:space="preserve" font-family="CenturyGothic,Century Gothic" font-size="30.4" fill="#000000" transform="matrix(1.00, 0.00, -0.00, -1.00, 59.1, 10.4)">Е</text><text xml:space="preserve" font-family="CenturyGothic,Century Gothic" font-size="30.4" fill="#000000" transform="matrix(1.00, 0.00, -0.00, -1.00, 75.4, 10.4)">С</text><text xml:space="preserve" font-family="CenturyGothic,Century Gothic" font-size="30.4" fill="#000000" transform="matrix(1.00, 0.00, -0.00, -1.00, 100.1, 10.4)">А</text><text xml:space="preserve" font-family="CenturyGothic,Century Gothic" font-size="30.4" fill="#000000" transform="matrix(1.00, 0.00, -0.00, -1.00, 122.6, 10.4)">Й</text><text xml:space="preserve" font-family="CenturyGothic,Century Gothic" font-size="30.4" fill="#000000" transform="matrix(1.00, 0.00, -0.00, -1.00, 145.0, 10.4)">З</text><text xml:space="preserve" font-family="CenturyGothic,Century Gothic" font-size="38.0" fill="#000000" transform="matrix(1.00, 0.00, -0.00, -1.00, 162.7, 10.4)"> </text><image xlink:href="6E7F77F38DEF8642CFAF63F5DB4BD13F.png" width="31.00" height="32.00" transform="matrix(1.00, 0.00, -0.00, -1.00, 169.0, 38.0)"></image><text xml:space="preserve" font-family="CenturyGothic,Century Gothic" font-size="30.4" fill="#000000" transform="matrix(1.00, 0.00, -0.00, -1.00, 173.2, 10.4)">С</text><text xml:space="preserve" font-family="CenturyGothic,Century Gothic" font-size="38.0" fill="#000000" transform="matrix(1.00, 0.00, -0.00, -1.00, 198.0, 10.4)"> </text><image xlink:href="F5C06E024EDB228BAD21479E73F1E872.png" width="213.00" height="32.00" transform="matrix(1.00, 0.00, -0.00, -1.00, 206.0, 38.0)"></image><text xml:space="preserve" font-family="CenturyGothic,Century Gothic" font-size="30.4" fill="#000000" transform="matrix(1.00, 0.00, -0.00, -1.00, 208.5, 10.4)">И</text><text xml:space="preserve" font-family="CenturyGothic,Century Gothic" font-size="30.4" fill="#000000" transform="matrix(1.00, 0.00, -0.00, -1.00, 231.0, 10.4)">З</text><text xml:space="preserve" font-family="CenturyGothic,Century Gothic" font-size="30.4" fill="#000000" transform="matrix(1.00, 0.00, -0.00, -1.00, 248.6, 10.4)">М</text><text xml:space="preserve" font-family="CenturyGothic,Century Gothic" font-size="30.4" fill="#000000" transform="matrix(1.00, 0.00, -0.00, -1.00, 276.5, 10.4)">Е</text><text xml:space="preserve" font-family="CenturyGothic,Century Gothic" font-size="30.4" fill="#000000" transform="matrix(1.00, 0.00, -0.00, -1.00, 292.8, 10.4)">Н</text><text xml:space="preserve" font-family="CenturyGothic,Century Gothic" font-size="30.4" fill="#000000" transform="matrix(1.00, 0.00, -0.00, -1.00, 313.6, 10.4)">Е</text><text xml:space="preserve" font-family="CenturyGothic,Century Gothic" font-size="30.4" fill="#000000" transform="matrix(1.00, 0.00, -0.00, -1.00, 329.9, 10.4)">Н</text><text xml:space="preserve" font-family="CenturyGothic,Century Gothic" font-size="30.4" fill="#000000" transform="matrix(1.00, 0.00, -0.00, -1.00, 350.6, 10.4)">И</text><text xml:space="preserve" font-family="CenturyGothic,Century Gothic" font-size="30.4" fill="#000000" transform="matrix(1.00, 0.00, -0.00, -1.00, 373.1, 10.4)">Е</text><text xml:space="preserve" font-family="CenturyGothic,Century Gothic" font-size="30.4" fill="#000000" transform="matrix(1.00, 0.00, -0.00, -1.00, 389.4, 10.4)">М</text><text xml:space="preserve" font-family="CenturyGothic,Century Gothic" font-size="38.0" fill="#000000" transform="matrix(1.00, 0.00, -0.00, -1.00, 417.4, 10.4)"> </text><image xlink:href="D153224B0A777EEA05865AE77915229B.png" width="118.00" height="32.00" transform="matrix(1.00, 0.00, -0.00, -1.00, 423.0, 38.0)"></image><text xml:space="preserve" font-family="CenturyGothic,Century Gothic" font-size="30.4" fill="#000000" transform="matrix(1.00, 0.00, -0.00, -1.00, 427.9, 10.4)">A</text><text xml:space="preserve" font-family="CenturyGothic,Century Gothic" font-size="30.4" fill="#000000" transform="matrix(1.00, 0.00, -0.00, -1.00, 450.4, 10.4)">S</text><text xml:space="preserve" font-family="CenturyGothic,Century Gothic" font-size="30.4" fill="#000000" transform="matrix(1.00, 0.00, -0.00, -1.00, 465.6, 10.4)">P</text><text xml:space="preserve" font-family="CenturyGothic,Century Gothic" font-size="30.4" fill="#000000" transform="matrix(1.00, 0.00, -0.00, -1.00, 483.5, 10.4)">E</text><text xml:space="preserve" font-family="CenturyGothic,Century Gothic" font-size="30.4" fill="#000000" transform="matrix(1.00, 0.00, -0.00, -1.00, 499.8, 10.4)">C</text><text xml:space="preserve" font-family="CenturyGothic,Century Gothic" font-size="30.4" fill="#000000" transform="matrix(1.00, 0.00, -0.00, -1.00, 524.6, 10.4)">T</text><text xml:space="preserve" font-family="CenturyGothic,Century Gothic" font-size="38.0" fill="#000000" transform="matrix(1.00, 0.00, -0.00, -1.00, 537.5, 10.4)"> </text><image xlink:href="1749491D54FDDCA79534DF12060C538E.png" width="90.00" height="32.00" transform="matrix(1.00, 0.00, -0.00, -1.00, 545.0, 38.0)"></image><text xml:space="preserve" font-family="CenturyGothic,Century Gothic" font-size="30.4" fill="#000000" transform="matrix(1.00, 0.00, -0.00, -1.00, 548.0, 10.4)">R</text><text xml:space="preserve" font-family="CenturyGothic,Century Gothic" font-size="30.4" fill="#000000" transform="matrix(1.00, 0.00, -0.00, -1.00, 566.5, 10.4)">A</text><text xml:space="preserve" font-family="CenturyGothic,Century Gothic" font-size="30.4" fill="#000000" transform="matrix(1.00, 0.00, -0.00, -1.00, 586.5, 10.4)">T</text><text xml:space="preserve" font-family="CenturyGothic,Century Gothic" font-size="30.4" fill="#000000" transform="matrix(1.00, 0.00, -0.00, -1.00, 599.4, 10.4)">I</text><text xml:space="preserve" font-family="CenturyGothic,Century Gothic" font-size="30.4" fill="#000000" transform="matrix(1.00, 0.00, -0.00, -1.00, 606.3, 10.4)">O</text></g></svg>