<?xml version="1.0" encoding="UTF-8" standalone="no"?><svg xmlns="http://www.w3.org/2000/svg" xmlns:xlink="http://www.w3.org/1999/xlink" clip-rule="evenodd" stroke-miterlimit="10" viewBox="0 0 123 52"><desc>SVG generated by Keynote</desc><defs></defs><g transform="matrix(1.00, 0.00, -0.00, -1.00, 0.0, 52.0)"><image xlink:href="../../81FB6F8E-84D1-486E-9F41-6D448DA52191/assets/AC8EC60E434C367B3453376CAD754FC3.png" width="19.00" height="19.00" transform="matrix(1.00, 0.00, -0.00, -1.00, 1.0, 36.0)"></image><text xml:space="preserve" font-family="ArialMT,Arial" font-size="38.0" fill="#000000" transform="matrix(1.00, 0.00, -0.00, -1.00, 4.7, 12.2)">•</text><image xlink:href="A0A65FD24932F026B0D6AE7685BDAE90.png" width="28.00" height="36.00" transform="matrix(1.00, 0.00, -0.00, -1.00, 34.0, 43.0)"></image><text xml:space="preserve" font-family="CenturyGothic,Century Gothic" font-size="38.0" fill="#000000" transform="matrix(1.00, 0.00, -0.00, -1.00, 36.6, 10.4)">К</text><image xlink:href="CA8D9B7031F05BB86D143DF10FF62EBA.png" width="69.00" height="32.00" transform="matrix(1.00, 0.00, -0.00, -1.00, 56.0, 38.0)"></image><text xml:space="preserve" font-family="CenturyGothic,Century Gothic" font-size="30.4" fill="#000000" transform="matrix(1.00, 0.00, -0.00, -1.00, 59.0, 10.4)">Р</text><text xml:space="preserve" font-family="CenturyGothic,Century Gothic" font-size="30.4" fill="#000000" transform="matrix(1.00, 0.00, -0.00, -1.00, 77.0, 10.4)">О</text><text xml:space="preserve" font-family="CenturyGothic,Century Gothic" font-size="30.4" fill="#000000" transform="matrix(1.00, 0.00, -0.00, -1.00, 103.4, 10.4)">П</text></g></svg>