<?xml version="1.0" encoding="UTF-8" standalone="no"?><svg xmlns="http://www.w3.org/2000/svg" xmlns:xlink="http://www.w3.org/1999/xlink" clip-rule="evenodd" stroke-miterlimit="10" viewBox="0 0 1024 768"><desc>SVG generated by Keynote</desc><defs></defs><g transform="matrix(1.00, 0.00, -0.00, -1.00, 0.0, 768.0)"><path d="M 0.0 768.0 L 1024.0 768.0 L 1024.0 0.0 L 0.0 0.0 Z M 0.0 768.0 " fill="#FFFFFF"></path><image xlink:href="../../2228AE9C-3706-437F-8379-D21BA5B8F0CA/assets/C2129A3EE7512E75FEE2A48785F9B6A3.png" width="1033.00" height="179.00" transform="matrix(0.21, 0.00, -0.00, -0.21, 39.9, 95.6)"></image><image xlink:href="../../CA20ABA2-63C0-4105-ACA0-D15A0395AFAF/assets/B80209876C975FA397532635A1A33031.png" width="692.00" height="48.00" transform="matrix(1.00, 0.00, -0.00, -1.00, 100.0, 668.0)"></image><text xml:space="preserve" font-family="CenturyGothic,Century Gothic" font-size="56.8" fill="#000000" transform="matrix(1.00, 0.00, -0.00, -1.00, 99.8, 621.7)">К</text><text xml:space="preserve" font-family="CenturyGothic,Century Gothic" font-size="56.8" fill="#000000" transform="matrix(1.00, 0.00, -0.00, -1.00, 133.4, 621.7)">А</text><text xml:space="preserve" font-family="CenturyGothic,Century Gothic" font-size="56.8" fill="#000000" transform="matrix(1.00, 0.00, -0.00, -1.00, 175.4, 621.7)">К</text><text xml:space="preserve" font-family="CenturyGothic,Century Gothic" font-size="56.8" fill="#000000" transform="matrix(1.00, 0.00, -0.00, -1.00, 209.0, 621.7)"> </text><text xml:space="preserve" font-family="CenturyGothic,Century Gothic" font-size="56.8" fill="#000000" transform="matrix(1.00, 0.00, -0.00, -1.00, 224.7, 621.7)">Н</text><text xml:space="preserve" font-family="CenturyGothic,Century Gothic" font-size="56.8" fill="#000000" transform="matrix(1.00, 0.00, -0.00, -1.00, 263.6, 621.7)">А</text><text xml:space="preserve" font-family="CenturyGothic,Century Gothic" font-size="56.8" fill="#000000" transform="matrix(1.00, 0.00, -0.00, -1.00, 305.6, 621.7)">М</text><text xml:space="preserve" font-family="CenturyGothic,Century Gothic" font-size="56.8" fill="#000000" transform="matrix(1.00, 0.00, -0.00, -1.00, 357.8, 621.7)"> </text><text xml:space="preserve" font-family="CenturyGothic,Century Gothic" font-size="56.8" fill="#000000" transform="matrix(1.00, 0.00, -0.00, -1.00, 373.6, 621.7)">П</text><text xml:space="preserve" font-family="CenturyGothic,Century Gothic" font-size="56.8" fill="#000000" transform="matrix(1.00, 0.00, -0.00, -1.00, 412.4, 621.7)">О</text><text xml:space="preserve" font-family="CenturyGothic,Century Gothic" font-size="56.8" fill="#000000" transform="matrix(1.00, 0.00, -0.00, -1.00, 461.8, 621.7)">Р</text><text xml:space="preserve" font-family="CenturyGothic,Century Gothic" font-size="56.8" fill="#000000" transform="matrix(1.00, 0.00, -0.00, -1.00, 495.4, 621.7)">Т</text><text xml:space="preserve" font-family="CenturyGothic,Century Gothic" font-size="56.8" fill="#000000" transform="matrix(1.00, 0.00, -0.00, -1.00, 519.6, 621.7)">Я</text><text xml:space="preserve" font-family="CenturyGothic,Century Gothic" font-size="56.8" fill="#000000" transform="matrix(1.00, 0.00, -0.00, -1.00, 552.8, 621.7)">Т</text><text xml:space="preserve" font-family="CenturyGothic,Century Gothic" font-size="56.8" fill="#000000" transform="matrix(1.00, 0.00, -0.00, -1.00, 577.0, 621.7)"> </text><text xml:space="preserve" font-family="CenturyGothic,Century Gothic" font-size="56.8" fill="#000000" transform="matrix(1.00, 0.00, -0.00, -1.00, 592.7, 621.7)">Ж</text><text xml:space="preserve" font-family="CenturyGothic,Century Gothic" font-size="56.8" fill="#000000" transform="matrix(1.00, 0.00, -0.00, -1.00, 645.9, 621.7)">И</text><text xml:space="preserve" font-family="CenturyGothic,Century Gothic" font-size="56.8" fill="#000000" transform="matrix(1.00, 0.00, -0.00, -1.00, 687.9, 621.7)">З</text><text xml:space="preserve" font-family="CenturyGothic,Century Gothic" font-size="56.8" fill="#000000" transform="matrix(1.00, 0.00, -0.00, -1.00, 721.0, 621.7)">Н</text><text xml:space="preserve" font-family="CenturyGothic,Century Gothic" font-size="56.8" fill="#000000" transform="matrix(1.00, 0.00, -0.00, -1.00, 759.8, 621.7)">Ь</text><image xlink:href="../../81FB6F8E-84D1-486E-9F41-6D448DA52191/assets/AC8EC60E434C367B3453376CAD754FC3.png" width="19.00" height="19.00" transform="matrix(1.00, 0.00, -0.00, -1.00, 96.0, 530.0)"></image><text xml:space="preserve" font-family="ArialMT,Arial" font-size="38.0" fill="#000000" transform="matrix(1.00, 0.00, -0.00, -1.00, 99.7, 506.2)">•</text><image xlink:href="../../81FB6F8E-84D1-486E-9F41-6D448DA52191/assets/FA9C784D0993AB5EC1E772FE6541F2B3.png" width="31.00" height="36.00" transform="matrix(1.00, 0.00, -0.00, -1.00, 129.0, 537.0)"></image><text xml:space="preserve" font-family="CenturyGothic,Century Gothic" font-size="38.0" fill="#000000" transform="matrix(1.00, 0.00, -0.00, -1.00, 131.6, 504.4)">И</text><image xlink:href="../../81FB6F8E-84D1-486E-9F41-6D448DA52191/assets/C13C12F24524411A58BF152D9067B312.png" width="165.00" height="32.00" transform="matrix(1.00, 0.00, -0.00, -1.00, 156.0, 532.0)"></image><text xml:space="preserve" font-family="CenturyGothic,Century Gothic" font-size="30.4" fill="#000000" transform="matrix(1.00, 0.00, -0.00, -1.00, 159.7, 504.4)">З</text><text xml:space="preserve" font-family="CenturyGothic,Century Gothic" font-size="30.4" fill="#000000" transform="matrix(1.00, 0.00, -0.00, -1.00, 177.4, 504.4)">М</text><text xml:space="preserve" font-family="CenturyGothic,Century Gothic" font-size="30.4" fill="#000000" transform="matrix(1.00, 0.00, -0.00, -1.00, 205.3, 504.4)">Е</text><text xml:space="preserve" font-family="CenturyGothic,Century Gothic" font-size="30.4" fill="#000000" transform="matrix(1.00, 0.00, -0.00, -1.00, 221.6, 504.4)">Н</text><text xml:space="preserve" font-family="CenturyGothic,Century Gothic" font-size="30.4" fill="#000000" transform="matrix(1.00, 0.00, -0.00, -1.00, 242.4, 504.4)">Е</text><text xml:space="preserve" font-family="CenturyGothic,Century Gothic" font-size="30.4" fill="#000000" transform="matrix(1.00, 0.00, -0.00, -1.00, 258.7, 504.4)">Н</text><text xml:space="preserve" font-family="CenturyGothic,Century Gothic" font-size="30.4" fill="#000000" transform="matrix(1.00, 0.00, -0.00, -1.00, 279.4, 504.4)">И</text><text xml:space="preserve" font-family="CenturyGothic,Century Gothic" font-size="30.4" fill="#000000" transform="matrix(1.00, 0.00, -0.00, -1.00, 301.9, 504.4)">Е</text><text xml:space="preserve" font-family="CenturyGothic,Century Gothic" font-size="38.0" fill="#000000" transform="matrix(1.00, 0.00, -0.00, -1.00, 318.2, 504.4)"> </text><image xlink:href="../../81FB6F8E-84D1-486E-9F41-6D448DA52191/assets/6505035331830A6A32945CCA939D2045.png" width="142.00" height="34.00" transform="matrix(1.00, 0.00, -0.00, -1.00, 325.0, 532.0)"></image><text xml:space="preserve" font-family="CenturyGothic,Century Gothic" font-size="30.4" fill="#000000" transform="matrix(1.00, 0.00, -0.00, -1.00, 328.7, 504.4)">О</text><text xml:space="preserve" font-family="CenturyGothic,Century Gothic" font-size="30.4" fill="#000000" transform="matrix(1.00, 0.00, -0.00, -1.00, 355.2, 504.4)">Д</text><text xml:space="preserve" font-family="CenturyGothic,Century Gothic" font-size="30.4" fill="#000000" transform="matrix(1.00, 0.00, -0.00, -1.00, 377.9, 504.4)">Н</text><text xml:space="preserve" font-family="CenturyGothic,Century Gothic" font-size="30.4" fill="#000000" transform="matrix(1.00, 0.00, -0.00, -1.00, 398.7, 504.4)">О</text><text xml:space="preserve" font-family="CenturyGothic,Century Gothic" font-size="30.4" fill="#000000" transform="matrix(1.00, 0.00, -0.00, -1.00, 425.1, 504.4)">Г</text><text xml:space="preserve" font-family="CenturyGothic,Century Gothic" font-size="30.4" fill="#000000" transform="matrix(1.00, 0.00, -0.00, -1.00, 439.1, 504.4)">О</text><text xml:space="preserve" font-family="CenturyGothic,Century Gothic" font-size="38.0" fill="#000000" transform="matrix(1.00, 0.00, -0.00, -1.00, 465.5, 504.4)"> </text><image xlink:href="../../81FB6F8E-84D1-486E-9F41-6D448DA52191/assets/B2BD332CD5F731E03AB1CA4475D82A1D.png" width="26.00" height="31.00" transform="matrix(1.00, 0.00, -0.00, -1.00, 473.0, 532.0)"></image><text xml:space="preserve" font-family="CenturyGothic,Century Gothic" font-size="30.4" fill="#000000" transform="matrix(1.00, 0.00, -0.00, -1.00, 476.1, 504.4)">И</text><text xml:space="preserve" font-family="CenturyGothic,Century Gothic" font-size="38.0" fill="#000000" transform="matrix(1.00, 0.00, -0.00, -1.00, 498.6, 504.4)"> </text><image xlink:href="../../81FB6F8E-84D1-486E-9F41-6D448DA52191/assets/FC054D9A52E7D324F3D4B1E8346A1808.png" width="87.00" height="32.00" transform="matrix(1.00, 0.00, -0.00, -1.00, 504.0, 532.0)"></image><text xml:space="preserve" font-family="CenturyGothic,Century Gothic" font-size="30.4" fill="#000000" transform="matrix(1.00, 0.00, -0.00, -1.00, 509.1, 504.4)">Т</text><text xml:space="preserve" font-family="CenturyGothic,Century Gothic" font-size="30.4" fill="#000000" transform="matrix(1.00, 0.00, -0.00, -1.00, 522.0, 504.4)">О</text><text xml:space="preserve" font-family="CenturyGothic,Century Gothic" font-size="30.4" fill="#000000" transform="matrix(1.00, 0.00, -0.00, -1.00, 548.4, 504.4)">Г</text><text xml:space="preserve" font-family="CenturyGothic,Century Gothic" font-size="30.4" fill="#000000" transform="matrix(1.00, 0.00, -0.00, -1.00, 562.5, 504.4)">О</text><text xml:space="preserve" font-family="CenturyGothic,Century Gothic" font-size="38.0" fill="#000000" transform="matrix(1.00, 0.00, -0.00, -1.00, 588.9, 504.4)"> </text><image xlink:href="../../81FB6F8E-84D1-486E-9F41-6D448DA52191/assets/4D50D1E1FEB690733097A7E2A2D192A9.png" width="52.00" height="31.00" transform="matrix(1.00, 0.00, -0.00, -1.00, 595.0, 532.0)"></image><text xml:space="preserve" font-family="CenturyGothic,Century Gothic" font-size="30.4" fill="#000000" transform="matrix(1.00, 0.00, -0.00, -1.00, 599.4, 504.4)">Ж</text><text xml:space="preserve" font-family="CenturyGothic,Century Gothic" font-size="30.4" fill="#000000" transform="matrix(1.00, 0.00, -0.00, -1.00, 627.9, 504.4)">Е</text><text xml:space="preserve" font-family="CenturyGothic,Century Gothic" font-size="38.0" fill="#000000" transform="matrix(1.00, 0.00, -0.00, -1.00, 644.1, 504.4)"> </text><image xlink:href="../../81FB6F8E-84D1-486E-9F41-6D448DA52191/assets/13857558D71A622A3E1DDEACF7176CCF.png" width="197.00" height="32.00" transform="matrix(1.00, 0.00, -0.00, -1.00, 651.0, 532.0)"></image><text xml:space="preserve" font-family="CenturyGothic,Century Gothic" font-size="30.4" fill="#000000" transform="matrix(1.00, 0.00, -0.00, -1.00, 654.7, 504.4)">О</text><text xml:space="preserve" font-family="CenturyGothic,Century Gothic" font-size="30.4" fill="#000000" transform="matrix(1.00, 0.00, -0.00, -1.00, 681.1, 504.4)">Р</text><text xml:space="preserve" font-family="CenturyGothic,Century Gothic" font-size="30.4" fill="#000000" transform="matrix(1.00, 0.00, -0.00, -1.00, 699.1, 504.4)">И</text><text xml:space="preserve" font-family="CenturyGothic,Century Gothic" font-size="30.4" fill="#000000" transform="matrix(1.00, 0.00, -0.00, -1.00, 721.6, 504.4)">Г</text><text xml:space="preserve" font-family="CenturyGothic,Century Gothic" font-size="30.4" fill="#000000" transform="matrix(1.00, 0.00, -0.00, -1.00, 735.6, 504.4)">И</text><text xml:space="preserve" font-family="CenturyGothic,Century Gothic" font-size="30.4" fill="#000000" transform="matrix(1.00, 0.00, -0.00, -1.00, 758.1, 504.4)">Н</text><text xml:space="preserve" font-family="CenturyGothic,Century Gothic" font-size="30.4" fill="#000000" transform="matrix(1.00, 0.00, -0.00, -1.00, 778.9, 504.4)">А</text><text xml:space="preserve" font-family="CenturyGothic,Century Gothic" font-size="30.4" fill="#000000" transform="matrix(1.00, 0.00, -0.00, -1.00, 801.4, 504.4)">Л</text><text xml:space="preserve" font-family="CenturyGothic,Century Gothic" font-size="30.4" fill="#000000" transform="matrix(1.00, 0.00, -0.00, -1.00, 822.7, 504.4)">А</text><image xlink:href="../../81FB6F8E-84D1-486E-9F41-6D448DA52191/assets/AC8EC60E434C367B3453376CAD754FC3.png" width="19.00" height="19.00" transform="matrix(1.00, 0.00, -0.00, -1.00, 132.0, 478.0)"></image><text xml:space="preserve" font-family="ArialMT,Arial" font-size="38.0" fill="#000000" transform="matrix(1.00, 0.00, -0.00, -1.00, 135.7, 454.2)">•</text><image xlink:href="../../81FB6F8E-84D1-486E-9F41-6D448DA52191/assets/0081AEFAEDCF8D7A3052EAF12A1ACA76.png" width="26.00" height="36.00" transform="matrix(1.00, 0.00, -0.00, -1.00, 165.0, 485.0)"></image><text xml:space="preserve" font-family="CenturyGothic,Century Gothic" font-size="38.0" fill="#000000" transform="matrix(1.00, 0.00, -0.00, -1.00, 167.6, 452.4)">Р</text><image xlink:href="../../81FB6F8E-84D1-486E-9F41-6D448DA52191/assets/E70746941ACF7F411E1ABC08B7F259B8.png" width="109.00" height="37.00" transform="matrix(1.00, 0.00, -0.00, -1.00, 187.0, 485.0)"></image><text xml:space="preserve" font-family="CenturyGothic,Century Gothic" font-size="30.4" fill="#000000" transform="matrix(1.00, 0.00, -0.00, -1.00, 190.1, 452.4)">Е</text><text xml:space="preserve" font-family="CenturyGothic,Century Gothic" font-size="30.4" fill="#000000" transform="matrix(1.00, 0.00, -0.00, -1.00, 206.4, 452.4)">С</text><text xml:space="preserve" font-family="CenturyGothic,Century Gothic" font-size="30.4" fill="#000000" transform="matrix(1.00, 0.00, -0.00, -1.00, 231.1, 452.4)">А</text><text xml:space="preserve" font-family="CenturyGothic,Century Gothic" font-size="30.4" fill="#000000" transform="matrix(1.00, 0.00, -0.00, -1.00, 253.6, 452.4)">Й</text><text xml:space="preserve" font-family="CenturyGothic,Century Gothic" font-size="30.4" fill="#000000" transform="matrix(1.00, 0.00, -0.00, -1.00, 276.0, 452.4)">З</text><text xml:space="preserve" font-family="CenturyGothic,Century Gothic" font-size="38.0" fill="#000000" transform="matrix(1.00, 0.00, -0.00, -1.00, 293.7, 452.4)"> </text><image xlink:href="../../81FB6F8E-84D1-486E-9F41-6D448DA52191/assets/6E7F77F38DEF8642CFAF63F5DB4BD13F.png" width="31.00" height="32.00" transform="matrix(1.00, 0.00, -0.00, -1.00, 300.0, 480.0)"></image><text xml:space="preserve" font-family="CenturyGothic,Century Gothic" font-size="30.4" fill="#000000" transform="matrix(1.00, 0.00, -0.00, -1.00, 304.2, 452.4)">С</text><text xml:space="preserve" font-family="CenturyGothic,Century Gothic" font-size="38.0" fill="#000000" transform="matrix(1.00, 0.00, -0.00, -1.00, 329.0, 452.4)"> </text><image xlink:href="../../81FB6F8E-84D1-486E-9F41-6D448DA52191/assets/F5C06E024EDB228BAD21479E73F1E872.png" width="213.00" height="32.00" transform="matrix(1.00, 0.00, -0.00, -1.00, 337.0, 480.0)"></image><text xml:space="preserve" font-family="CenturyGothic,Century Gothic" font-size="30.4" fill="#000000" transform="matrix(1.00, 0.00, -0.00, -1.00, 339.5, 452.4)">И</text><text xml:space="preserve" font-family="CenturyGothic,Century Gothic" font-size="30.4" fill="#000000" transform="matrix(1.00, 0.00, -0.00, -1.00, 362.0, 452.4)">З</text><text xml:space="preserve" font-family="CenturyGothic,Century Gothic" font-size="30.4" fill="#000000" transform="matrix(1.00, 0.00, -0.00, -1.00, 379.6, 452.4)">М</text><text xml:space="preserve" font-family="CenturyGothic,Century Gothic" font-size="30.4" fill="#000000" transform="matrix(1.00, 0.00, -0.00, -1.00, 407.5, 452.4)">Е</text><text xml:space="preserve" font-family="CenturyGothic,Century Gothic" font-size="30.4" fill="#000000" transform="matrix(1.00, 0.00, -0.00, -1.00, 423.8, 452.4)">Н</text><text xml:space="preserve" font-family="CenturyGothic,Century Gothic" font-size="30.4" fill="#000000" transform="matrix(1.00, 0.00, -0.00, -1.00, 444.6, 452.4)">Е</text><text xml:space="preserve" font-family="CenturyGothic,Century Gothic" font-size="30.4" fill="#000000" transform="matrix(1.00, 0.00, -0.00, -1.00, 460.9, 452.4)">Н</text><text xml:space="preserve" font-family="CenturyGothic,Century Gothic" font-size="30.4" fill="#000000" transform="matrix(1.00, 0.00, -0.00, -1.00, 481.6, 452.4)">И</text><text xml:space="preserve" font-family="CenturyGothic,Century Gothic" font-size="30.4" fill="#000000" transform="matrix(1.00, 0.00, -0.00, -1.00, 504.1, 452.4)">Е</text><text xml:space="preserve" font-family="CenturyGothic,Century Gothic" font-size="30.4" fill="#000000" transform="matrix(1.00, 0.00, -0.00, -1.00, 520.4, 452.4)">М</text><text xml:space="preserve" font-family="CenturyGothic,Century Gothic" font-size="38.0" fill="#000000" transform="matrix(1.00, 0.00, -0.00, -1.00, 548.4, 452.4)"> </text><image xlink:href="../../81FB6F8E-84D1-486E-9F41-6D448DA52191/assets/D153224B0A777EEA05865AE77915229B.png" width="118.00" height="32.00" transform="matrix(1.00, 0.00, -0.00, -1.00, 554.0, 480.0)"></image><text xml:space="preserve" font-family="CenturyGothic,Century Gothic" font-size="30.4" fill="#000000" transform="matrix(1.00, 0.00, -0.00, -1.00, 558.9, 452.4)">A</text><text xml:space="preserve" font-family="CenturyGothic,Century Gothic" font-size="30.4" fill="#000000" transform="matrix(1.00, 0.00, -0.00, -1.00, 581.4, 452.4)">S</text><text xml:space="preserve" font-family="CenturyGothic,Century Gothic" font-size="30.4" fill="#000000" transform="matrix(1.00, 0.00, -0.00, -1.00, 596.6, 452.4)">P</text><text xml:space="preserve" font-family="CenturyGothic,Century Gothic" font-size="30.4" fill="#000000" transform="matrix(1.00, 0.00, -0.00, -1.00, 614.5, 452.4)">E</text><text xml:space="preserve" font-family="CenturyGothic,Century Gothic" font-size="30.4" fill="#000000" transform="matrix(1.00, 0.00, -0.00, -1.00, 630.8, 452.4)">C</text><text xml:space="preserve" font-family="CenturyGothic,Century Gothic" font-size="30.4" fill="#000000" transform="matrix(1.00, 0.00, -0.00, -1.00, 655.6, 452.4)">T</text><text xml:space="preserve" font-family="CenturyGothic,Century Gothic" font-size="38.0" fill="#000000" transform="matrix(1.00, 0.00, -0.00, -1.00, 668.5, 452.4)"> </text><image xlink:href="../../81FB6F8E-84D1-486E-9F41-6D448DA52191/assets/1749491D54FDDCA79534DF12060C538E.png" width="90.00" height="32.00" transform="matrix(1.00, 0.00, -0.00, -1.00, 676.0, 480.0)"></image><text xml:space="preserve" font-family="CenturyGothic,Century Gothic" font-size="30.4" fill="#000000" transform="matrix(1.00, 0.00, -0.00, -1.00, 679.0, 452.4)">R</text><text xml:space="preserve" font-family="CenturyGothic,Century Gothic" font-size="30.4" fill="#000000" transform="matrix(1.00, 0.00, -0.00, -1.00, 697.5, 452.4)">A</text><text xml:space="preserve" font-family="CenturyGothic,Century Gothic" font-size="30.4" fill="#000000" transform="matrix(1.00, 0.00, -0.00, -1.00, 717.5, 452.4)">T</text><text xml:space="preserve" font-family="CenturyGothic,Century Gothic" font-size="30.4" fill="#000000" transform="matrix(1.00, 0.00, -0.00, -1.00, 730.4, 452.4)">I</text><text xml:space="preserve" font-family="CenturyGothic,Century Gothic" font-size="30.4" fill="#000000" transform="matrix(1.00, 0.00, -0.00, -1.00, 737.3, 452.4)">O</text><image xlink:href="../../81FB6F8E-84D1-486E-9F41-6D448DA52191/assets/AC8EC60E434C367B3453376CAD754FC3.png" width="19.00" height="19.00" transform="matrix(1.00, 0.00, -0.00, -1.00, 132.0, 426.0)"></image><text xml:space="preserve" font-family="ArialMT,Arial" font-size="38.0" fill="#000000" transform="matrix(1.00, 0.00, -0.00, -1.00, 135.7, 402.2)">•</text><image xlink:href="../../81FB6F8E-84D1-486E-9F41-6D448DA52191/assets/3B10579EA0274ABE1311C70D9571518C.png" width="32.00" height="40.00" transform="matrix(1.00, 0.00, -0.00, -1.00, 165.0, 433.0)"></image><text xml:space="preserve" font-family="CenturyGothic,Century Gothic" font-size="38.0" fill="#000000" transform="matrix(1.00, 0.00, -0.00, -1.00, 167.6, 400.4)">Ц</text><image xlink:href="../../81FB6F8E-84D1-486E-9F41-6D448DA52191/assets/F60FD8A2C3556DC3D8D207259BFE51CE.png" width="253.00" height="34.00" transform="matrix(1.00, 0.00, -0.00, -1.00, 192.0, 428.0)"></image><text xml:space="preserve" font-family="CenturyGothic,Century Gothic" font-size="30.4" fill="#000000" transform="matrix(1.00, 0.00, -0.00, -1.00, 194.5, 400.4)">В</text><text xml:space="preserve" font-family="CenturyGothic,Century Gothic" font-size="30.4" fill="#000000" transform="matrix(1.00, 0.00, -0.00, -1.00, 211.9, 400.4)">Е</text><text xml:space="preserve" font-family="CenturyGothic,Century Gothic" font-size="30.4" fill="#000000" transform="matrix(1.00, 0.00, -0.00, -1.00, 228.2, 400.4)">Т</text><text xml:space="preserve" font-family="CenturyGothic,Century Gothic" font-size="30.4" fill="#000000" transform="matrix(1.00, 0.00, -0.00, -1.00, 241.2, 400.4)">О</text><text xml:space="preserve" font-family="CenturyGothic,Century Gothic" font-size="30.4" fill="#000000" transform="matrix(1.00, 0.00, -0.00, -1.00, 267.6, 400.4)">К</text><text xml:space="preserve" font-family="CenturyGothic,Century Gothic" font-size="30.4" fill="#000000" transform="matrix(1.00, 0.00, -0.00, -1.00, 285.6, 400.4)">О</text><text xml:space="preserve" font-family="CenturyGothic,Century Gothic" font-size="30.4" fill="#000000" transform="matrix(1.00, 0.00, -0.00, -1.00, 312.0, 400.4)">Р</text><text xml:space="preserve" font-family="CenturyGothic,Century Gothic" font-size="30.4" fill="#000000" transform="matrix(1.00, 0.00, -0.00, -1.00, 330.0, 400.4)">Р</text><text xml:space="preserve" font-family="CenturyGothic,Century Gothic" font-size="30.4" fill="#000000" transform="matrix(1.00, 0.00, -0.00, -1.00, 348.0, 400.4)">Е</text><text xml:space="preserve" font-family="CenturyGothic,Century Gothic" font-size="30.4" fill="#000000" transform="matrix(1.00, 0.00, -0.00, -1.00, 364.3, 400.4)">К</text><text xml:space="preserve" font-family="CenturyGothic,Century Gothic" font-size="30.4" fill="#000000" transform="matrix(1.00, 0.00, -0.00, -1.00, 382.2, 400.4)">Ц</text><text xml:space="preserve" font-family="CenturyGothic,Century Gothic" font-size="30.4" fill="#000000" transform="matrix(1.00, 0.00, -0.00, -1.00, 403.7, 400.4)">И</text><text xml:space="preserve" font-family="CenturyGothic,Century Gothic" font-size="30.4" fill="#000000" transform="matrix(1.00, 0.00, -0.00, -1.00, 426.2, 400.4)">Я</text><image xlink:href="../../81FB6F8E-84D1-486E-9F41-6D448DA52191/assets/597F9BF3548CD3C44EB16ED64A884151.png" width="14.00" height="17.00" transform="matrix(1.00, 0.00, -0.00, -1.00, 441.0, 411.0)"></image><text xml:space="preserve" font-family="CenturyGothic,Century Gothic" font-size="38.0" fill="#000000" transform="matrix(1.00, 0.00, -0.00, -1.00, 444.0, 400.4)">,</text><text xml:space="preserve" font-family="CenturyGothic,Century Gothic" font-size="38.0" fill="#000000" transform="matrix(1.00, 0.00, -0.00, -1.00, 454.5, 400.4)"> </text><image xlink:href="../../81FB6F8E-84D1-486E-9F41-6D448DA52191/assets/66337BBA98D2701BE8A72FC7D1443771.png" width="134.00" height="32.00" transform="matrix(1.00, 0.00, -0.00, -1.00, 462.0, 428.0)"></image><text xml:space="preserve" font-family="CenturyGothic,Century Gothic" font-size="30.4" fill="#000000" transform="matrix(1.00, 0.00, -0.00, -1.00, 465.0, 400.4)">Б</text><text xml:space="preserve" font-family="CenturyGothic,Century Gothic" font-size="30.4" fill="#000000" transform="matrix(1.00, 0.00, -0.00, -1.00, 482.4, 400.4)">А</text><text xml:space="preserve" font-family="CenturyGothic,Century Gothic" font-size="30.4" fill="#000000" transform="matrix(1.00, 0.00, -0.00, -1.00, 504.9, 400.4)">Л</text><text xml:space="preserve" font-family="CenturyGothic,Century Gothic" font-size="30.4" fill="#000000" transform="matrix(1.00, 0.00, -0.00, -1.00, 526.3, 400.4)">А</text><text xml:space="preserve" font-family="CenturyGothic,Century Gothic" font-size="30.4" fill="#000000" transform="matrix(1.00, 0.00, -0.00, -1.00, 548.7, 400.4)">Н</text><text xml:space="preserve" font-family="CenturyGothic,Century Gothic" font-size="30.4" fill="#000000" transform="matrix(1.00, 0.00, -0.00, -1.00, 569.5, 400.4)">С</text><text xml:space="preserve" font-family="CenturyGothic,Century Gothic" font-size="38.0" fill="#000000" transform="matrix(1.00, 0.00, -0.00, -1.00, 594.3, 400.4)"> </text><image xlink:href="../../81FB6F8E-84D1-486E-9F41-6D448DA52191/assets/EB391800601D7D5ABFFBCF5A223183EC.png" width="126.00" height="32.00" transform="matrix(1.00, 0.00, -0.00, -1.00, 602.0, 428.0)"></image><text xml:space="preserve" font-family="CenturyGothic,Century Gothic" font-size="30.4" fill="#000000" transform="matrix(1.00, 0.00, -0.00, -1.00, 604.8, 400.4)">Б</text><text xml:space="preserve" font-family="CenturyGothic,Century Gothic" font-size="30.4" fill="#000000" transform="matrix(1.00, 0.00, -0.00, -1.00, 622.2, 400.4)">Е</text><text xml:space="preserve" font-family="CenturyGothic,Century Gothic" font-size="30.4" fill="#000000" transform="matrix(1.00, 0.00, -0.00, -1.00, 638.5, 400.4)">Л</text><text xml:space="preserve" font-family="CenturyGothic,Century Gothic" font-size="30.4" fill="#000000" transform="matrix(1.00, 0.00, -0.00, -1.00, 659.8, 400.4)">О</text><text xml:space="preserve" font-family="CenturyGothic,Century Gothic" font-size="30.4" fill="#000000" transform="matrix(1.00, 0.00, -0.00, -1.00, 686.2, 400.4)">Г</text><text xml:space="preserve" font-family="CenturyGothic,Century Gothic" font-size="30.4" fill="#000000" transform="matrix(1.00, 0.00, -0.00, -1.00, 700.3, 400.4)">О</text><image xlink:href="../../81FB6F8E-84D1-486E-9F41-6D448DA52191/assets/96350E66F638B0FBE59903AE12E76F27.png" width="14.00" height="17.00" transform="matrix(1.00, 0.00, -0.00, -1.00, 724.0, 411.0)"></image><text xml:space="preserve" font-family="CenturyGothic,Century Gothic" font-size="38.0" fill="#000000" transform="matrix(1.00, 0.00, -0.00, -1.00, 726.7, 400.4)">,</text><text xml:space="preserve" font-family="CenturyGothic,Century Gothic" font-size="38.0" fill="#000000" transform="matrix(1.00, 0.00, -0.00, -1.00, 737.2, 400.4)"> </text><image xlink:href="../../81FB6F8E-84D1-486E-9F41-6D448DA52191/assets/97BD990EA6E4A8FDE1DA3A4DBFF5A05F.png" width="162.00" height="32.00" transform="matrix(1.00, 0.00, -0.00, -1.00, 745.0, 428.0)"></image><text xml:space="preserve" font-family="CenturyGothic,Century Gothic" font-size="30.4" fill="#000000" transform="matrix(1.00, 0.00, -0.00, -1.00, 747.8, 400.4)">К</text><text xml:space="preserve" font-family="CenturyGothic,Century Gothic" font-size="30.4" fill="#000000" transform="matrix(1.00, 0.00, -0.00, -1.00, 765.7, 400.4)">О</text><text xml:space="preserve" font-family="CenturyGothic,Century Gothic" font-size="30.4" fill="#000000" transform="matrix(1.00, 0.00, -0.00, -1.00, 792.1, 400.4)">Н</text><text xml:space="preserve" font-family="CenturyGothic,Century Gothic" font-size="30.4" fill="#000000" transform="matrix(1.00, 0.00, -0.00, -1.00, 812.9, 400.4)">Т</text><text xml:space="preserve" font-family="CenturyGothic,Century Gothic" font-size="30.4" fill="#000000" transform="matrix(1.00, 0.00, -0.00, -1.00, 825.8, 400.4)">Р</text><text xml:space="preserve" font-family="CenturyGothic,Century Gothic" font-size="30.4" fill="#000000" transform="matrix(1.00, 0.00, -0.00, -1.00, 843.8, 400.4)">А</text><text xml:space="preserve" font-family="CenturyGothic,Century Gothic" font-size="30.4" fill="#000000" transform="matrix(1.00, 0.00, -0.00, -1.00, 866.3, 400.4)">С</text><text xml:space="preserve" font-family="CenturyGothic,Century Gothic" font-size="30.4" fill="#000000" transform="matrix(1.00, 0.00, -0.00, -1.00, 891.0, 400.4)">Т</text><image xlink:href="../../81FB6F8E-84D1-486E-9F41-6D448DA52191/assets/AC8EC60E434C367B3453376CAD754FC3.png" width="19.00" height="19.00" transform="matrix(1.00, 0.00, -0.00, -1.00, 132.0, 374.0)"></image><text xml:space="preserve" font-family="ArialMT,Arial" font-size="38.0" fill="#000000" transform="matrix(1.00, 0.00, -0.00, -1.00, 135.7, 350.2)">•</text><image xlink:href="../../81FB6F8E-84D1-486E-9F41-6D448DA52191/assets/A0A65FD24932F026B0D6AE7685BDAE90.png" width="28.00" height="36.00" transform="matrix(1.00, 0.00, -0.00, -1.00, 165.0, 381.0)"></image><text xml:space="preserve" font-family="CenturyGothic,Century Gothic" font-size="38.0" fill="#000000" transform="matrix(1.00, 0.00, -0.00, -1.00, 167.6, 348.4)">К</text><image xlink:href="../../81FB6F8E-84D1-486E-9F41-6D448DA52191/assets/CA8D9B7031F05BB86D143DF10FF62EBA.png" width="69.00" height="32.00" transform="matrix(1.00, 0.00, -0.00, -1.00, 187.0, 376.0)"></image><text xml:space="preserve" font-family="CenturyGothic,Century Gothic" font-size="30.4" fill="#000000" transform="matrix(1.00, 0.00, -0.00, -1.00, 190.0, 348.4)">Р</text><text xml:space="preserve" font-family="CenturyGothic,Century Gothic" font-size="30.4" fill="#000000" transform="matrix(1.00, 0.00, -0.00, -1.00, 208.0, 348.4)">О</text><text xml:space="preserve" font-family="CenturyGothic,Century Gothic" font-size="30.4" fill="#000000" transform="matrix(1.00, 0.00, -0.00, -1.00, 234.4, 348.4)">П</text><image xlink:href="../../81FB6F8E-84D1-486E-9F41-6D448DA52191/assets/AC8EC60E434C367B3453376CAD754FC3.png" width="19.00" height="19.00" transform="matrix(1.00, 0.00, -0.00, -1.00, 132.0, 322.0)"></image><text xml:space="preserve" font-family="ArialMT,Arial" font-size="38.0" fill="#000000" transform="matrix(1.00, 0.00, -0.00, -1.00, 135.7, 298.2)">•</text><image xlink:href="../../81FB6F8E-84D1-486E-9F41-6D448DA52191/assets/B7C25757DDEC103D599F7E51C3ACBF1B.png" width="29.00" height="36.00" transform="matrix(1.00, 0.00, -0.00, -1.00, 165.0, 329.0)"></image><text xml:space="preserve" font-family="CenturyGothic,Century Gothic" font-size="38.0" fill="#000000" transform="matrix(1.00, 0.00, -0.00, -1.00, 167.6, 296.4)">П</text><image xlink:href="../../81FB6F8E-84D1-486E-9F41-6D448DA52191/assets/2306A022BDB173241FBF533AE8236F3B.png" width="134.00" height="32.00" transform="matrix(1.00, 0.00, -0.00, -1.00, 190.0, 324.0)"></image><text xml:space="preserve" font-family="CenturyGothic,Century Gothic" font-size="30.4" fill="#000000" transform="matrix(1.00, 0.00, -0.00, -1.00, 193.5, 296.4)">О</text><text xml:space="preserve" font-family="CenturyGothic,Century Gothic" font-size="30.4" fill="#000000" transform="matrix(1.00, 0.00, -0.00, -1.00, 220.0, 296.4)">В</text><text xml:space="preserve" font-family="CenturyGothic,Century Gothic" font-size="30.4" fill="#000000" transform="matrix(1.00, 0.00, -0.00, -1.00, 237.4, 296.4)">О</text><text xml:space="preserve" font-family="CenturyGothic,Century Gothic" font-size="30.4" fill="#000000" transform="matrix(1.00, 0.00, -0.00, -1.00, 263.8, 296.4)">Р</text><text xml:space="preserve" font-family="CenturyGothic,Century Gothic" font-size="30.4" fill="#000000" transform="matrix(1.00, 0.00, -0.00, -1.00, 281.8, 296.4)">О</text><text xml:space="preserve" font-family="CenturyGothic,Century Gothic" font-size="30.4" fill="#000000" transform="matrix(1.00, 0.00, -0.00, -1.00, 308.3, 296.4)">Т</text><image xlink:href="../../81FB6F8E-84D1-486E-9F41-6D448DA52191/assets/14431711EE799935479C62EC25C75A52.png" width="20.00" height="11.00" transform="matrix(1.00, 0.00, -0.00, -1.00, 327.0, 313.0)"></image><text xml:space="preserve" font-family="CenturyGothic,Century Gothic" font-size="38.0" fill="#000000" transform="matrix(1.00, 0.00, -0.00, -1.00, 321.2, 296.4)"> </text><text xml:space="preserve" font-family="CenturyGothic,Century Gothic" font-size="38.0" fill="#000000" transform="matrix(1.00, 0.00, -0.00, -1.00, 331.7, 296.4)">-</text><text xml:space="preserve" font-family="CenturyGothic,Century Gothic" font-size="38.0" fill="#000000" transform="matrix(1.00, 0.00, -0.00, -1.00, 344.3, 296.4)"> </text><image xlink:href="../../81FB6F8E-84D1-486E-9F41-6D448DA52191/assets/7B9B8B490E8A731DB4045531590D5AA0.png" width="56.00" height="31.00" transform="matrix(1.00, 0.00, -0.00, -1.00, 352.0, 324.0)"></image><text xml:space="preserve" font-family="CenturyGothic,Century Gothic" font-size="30.4" fill="#000000" transform="matrix(1.00, 0.00, -0.00, -1.00, 354.9, 296.4)">Н</text><text xml:space="preserve" font-family="CenturyGothic,Century Gothic" font-size="30.4" fill="#000000" transform="matrix(1.00, 0.00, -0.00, -1.00, 375.6, 296.4)">Е</text><text xml:space="preserve" font-family="CenturyGothic,Century Gothic" font-size="30.4" fill="#000000" transform="matrix(1.00, 0.00, -0.00, -1.00, 391.9, 296.4)">Т</text><image xlink:href="../../81FB6F8E-84D1-486E-9F41-6D448DA52191/assets/83CFE419C80EAAC91F50943CBDB903CD.png" width="14.00" height="17.00" transform="matrix(1.00, 0.00, -0.00, -1.00, 402.0, 307.0)"></image><text xml:space="preserve" font-family="CenturyGothic,Century Gothic" font-size="38.0" fill="#000000" transform="matrix(1.00, 0.00, -0.00, -1.00, 404.9, 296.4)">,</text><text xml:space="preserve" font-family="CenturyGothic,Century Gothic" font-size="38.0" fill="#000000" transform="matrix(1.00, 0.00, -0.00, -1.00, 415.4, 296.4)"> </text><image xlink:href="../../81FB6F8E-84D1-486E-9F41-6D448DA52191/assets/C6072A52FF4152A586EE27791481DD83.png" width="42.00" height="31.00" transform="matrix(1.00, 0.00, -0.00, -1.00, 423.0, 324.0)"></image><text xml:space="preserve" font-family="CenturyGothic,Century Gothic" font-size="30.4" fill="#000000" transform="matrix(1.00, 0.00, -0.00, -1.00, 425.9, 296.4)">Н</text><text xml:space="preserve" font-family="CenturyGothic,Century Gothic" font-size="30.4" fill="#000000" transform="matrix(1.00, 0.00, -0.00, -1.00, 446.7, 296.4)">Е</text><text xml:space="preserve" font-family="CenturyGothic,Century Gothic" font-size="38.0" fill="#000000" transform="matrix(1.00, 0.00, -0.00, -1.00, 463.0, 296.4)"> </text><image xlink:href="../../81FB6F8E-84D1-486E-9F41-6D448DA52191/assets/B6A7A5F01176F230781BB31E1E7B2C0A.png" width="151.00" height="32.00" transform="matrix(1.00, 0.00, -0.00, -1.00, 470.0, 324.0)"></image><text xml:space="preserve" font-family="CenturyGothic,Century Gothic" font-size="30.4" fill="#000000" transform="matrix(1.00, 0.00, -0.00, -1.00, 473.5, 296.4)">С</text><text xml:space="preserve" font-family="CenturyGothic,Century Gothic" font-size="30.4" fill="#000000" transform="matrix(1.00, 0.00, -0.00, -1.00, 498.2, 296.4)">Л</text><text xml:space="preserve" font-family="CenturyGothic,Century Gothic" font-size="30.4" fill="#000000" transform="matrix(1.00, 0.00, -0.00, -1.00, 519.6, 296.4)">Ы</text><text xml:space="preserve" font-family="CenturyGothic,Century Gothic" font-size="30.4" fill="#000000" transform="matrix(1.00, 0.00, -0.00, -1.00, 543.7, 296.4)">Ш</text><text xml:space="preserve" font-family="CenturyGothic,Century Gothic" font-size="30.4" fill="#000000" transform="matrix(1.00, 0.00, -0.00, -1.00, 574.3, 296.4)">А</text><text xml:space="preserve" font-family="CenturyGothic,Century Gothic" font-size="30.4" fill="#000000" transform="matrix(1.00, 0.00, -0.00, -1.00, 596.8, 296.4)">Л</text><image xlink:href="../../81FB6F8E-84D1-486E-9F41-6D448DA52191/assets/AC8EC60E434C367B3453376CAD754FC3.png" width="19.00" height="19.00" transform="matrix(1.00, 0.00, -0.00, -1.00, 96.0, 270.0)"></image><text xml:space="preserve" font-family="ArialMT,Arial" font-size="38.0" fill="#000000" transform="matrix(1.00, 0.00, -0.00, -1.00, 99.7, 246.2)">•</text><image xlink:href="../../81FB6F8E-84D1-486E-9F41-6D448DA52191/assets/0081AEFAEDCF8D7A3052EAF12A1ACA76.png" width="26.00" height="36.00" transform="matrix(1.00, 0.00, -0.00, -1.00, 129.0, 277.0)"></image><text xml:space="preserve" font-family="CenturyGothic,Century Gothic" font-size="38.0" fill="#000000" transform="matrix(1.00, 0.00, -0.00, -1.00, 131.6, 244.4)">Р</text><image xlink:href="../../81FB6F8E-84D1-486E-9F41-6D448DA52191/assets/E1A9D746A43E2382A5ED039918C52756.png" width="109.00" height="32.00" transform="matrix(1.00, 0.00, -0.00, -1.00, 149.0, 272.0)"></image><text xml:space="preserve" font-family="CenturyGothic,Century Gothic" font-size="30.4" fill="#000000" transform="matrix(1.00, 0.00, -0.00, -1.00, 154.1, 244.4)">А</text><text xml:space="preserve" font-family="CenturyGothic,Century Gothic" font-size="30.4" fill="#000000" transform="matrix(1.00, 0.00, -0.00, -1.00, 176.5, 244.4)">З</text><text xml:space="preserve" font-family="CenturyGothic,Century Gothic" font-size="30.4" fill="#000000" transform="matrix(1.00, 0.00, -0.00, -1.00, 194.2, 244.4)">Н</text><text xml:space="preserve" font-family="CenturyGothic,Century Gothic" font-size="30.4" fill="#000000" transform="matrix(1.00, 0.00, -0.00, -1.00, 215.0, 244.4)">Ы</text><text xml:space="preserve" font-family="CenturyGothic,Century Gothic" font-size="30.4" fill="#000000" transform="matrix(1.00, 0.00, -0.00, -1.00, 239.1, 244.4)">Е</text><text xml:space="preserve" font-family="CenturyGothic,Century Gothic" font-size="38.0" fill="#000000" transform="matrix(1.00, 0.00, -0.00, -1.00, 255.4, 244.4)"> </text><image xlink:href="../../81FB6F8E-84D1-486E-9F41-6D448DA52191/assets/FF67086DEDC408AEFAA286C20A03949F.png" width="98.00" height="32.00" transform="matrix(1.00, 0.00, -0.00, -1.00, 262.0, 272.0)"></image><text xml:space="preserve" font-family="CenturyGothic,Century Gothic" font-size="30.4" fill="#000000" transform="matrix(1.00, 0.00, -0.00, -1.00, 265.9, 244.4)">Ф</text><text xml:space="preserve" font-family="CenturyGothic,Century Gothic" font-size="30.4" fill="#000000" transform="matrix(1.00, 0.00, -0.00, -1.00, 292.4, 244.4)">О</text><text xml:space="preserve" font-family="CenturyGothic,Century Gothic" font-size="30.4" fill="#000000" transform="matrix(1.00, 0.00, -0.00, -1.00, 318.8, 244.4)">Т</text><text xml:space="preserve" font-family="CenturyGothic,Century Gothic" font-size="30.4" fill="#000000" transform="matrix(1.00, 0.00, -0.00, -1.00, 331.8, 244.4)">О</text><text xml:space="preserve" font-family="CenturyGothic,Century Gothic" font-size="38.0" fill="#000000" transform="matrix(1.00, 0.00, -0.00, -1.00, 358.2, 244.4)"> </text><image xlink:href="../../81FB6F8E-84D1-486E-9F41-6D448DA52191/assets/C57E78A000B760AFE87902D971BAFE24.png" width="142.00" height="34.00" transform="matrix(1.00, 0.00, -0.00, -1.00, 365.0, 272.0)"></image><text xml:space="preserve" font-family="CenturyGothic,Century Gothic" font-size="30.4" fill="#000000" transform="matrix(1.00, 0.00, -0.00, -1.00, 368.7, 244.4)">О</text><text xml:space="preserve" font-family="CenturyGothic,Century Gothic" font-size="30.4" fill="#000000" transform="matrix(1.00, 0.00, -0.00, -1.00, 395.1, 244.4)">Д</text><text xml:space="preserve" font-family="CenturyGothic,Century Gothic" font-size="30.4" fill="#000000" transform="matrix(1.00, 0.00, -0.00, -1.00, 417.9, 244.4)">Н</text><text xml:space="preserve" font-family="CenturyGothic,Century Gothic" font-size="30.4" fill="#000000" transform="matrix(1.00, 0.00, -0.00, -1.00, 438.6, 244.4)">О</text><text xml:space="preserve" font-family="CenturyGothic,Century Gothic" font-size="30.4" fill="#000000" transform="matrix(1.00, 0.00, -0.00, -1.00, 465.1, 244.4)">Г</text><text xml:space="preserve" font-family="CenturyGothic,Century Gothic" font-size="30.4" fill="#000000" transform="matrix(1.00, 0.00, -0.00, -1.00, 479.1, 244.4)">О</text><text xml:space="preserve" font-family="CenturyGothic,Century Gothic" font-size="38.0" fill="#000000" transform="matrix(1.00, 0.00, -0.00, -1.00, 505.5, 244.4)"> </text><image xlink:href="../../81FB6F8E-84D1-486E-9F41-6D448DA52191/assets/17BE6195BF98FE0B12181A844F0EEE02.png" width="26.00" height="31.00" transform="matrix(1.00, 0.00, -0.00, -1.00, 513.0, 272.0)"></image><text xml:space="preserve" font-family="CenturyGothic,Century Gothic" font-size="30.4" fill="#000000" transform="matrix(1.00, 0.00, -0.00, -1.00, 516.0, 244.4)">И</text><text xml:space="preserve" font-family="CenturyGothic,Century Gothic" font-size="38.0" fill="#000000" transform="matrix(1.00, 0.00, -0.00, -1.00, 538.5, 244.4)"> </text><image xlink:href="../../81FB6F8E-84D1-486E-9F41-6D448DA52191/assets/FA5D9B770D9E04BA8F57C2A7BDD0FD52.png" width="87.00" height="32.00" transform="matrix(1.00, 0.00, -0.00, -1.00, 544.0, 272.0)"></image><text xml:space="preserve" font-family="CenturyGothic,Century Gothic" font-size="30.4" fill="#000000" transform="matrix(1.00, 0.00, -0.00, -1.00, 549.0, 244.4)">Т</text><text xml:space="preserve" font-family="CenturyGothic,Century Gothic" font-size="30.4" fill="#000000" transform="matrix(1.00, 0.00, -0.00, -1.00, 562.0, 244.4)">О</text><text xml:space="preserve" font-family="CenturyGothic,Century Gothic" font-size="30.4" fill="#000000" transform="matrix(1.00, 0.00, -0.00, -1.00, 588.4, 244.4)">Г</text><text xml:space="preserve" font-family="CenturyGothic,Century Gothic" font-size="30.4" fill="#000000" transform="matrix(1.00, 0.00, -0.00, -1.00, 602.4, 244.4)">О</text><text xml:space="preserve" font-family="CenturyGothic,Century Gothic" font-size="38.0" fill="#000000" transform="matrix(1.00, 0.00, -0.00, -1.00, 628.9, 244.4)"> </text><image xlink:href="../../81FB6F8E-84D1-486E-9F41-6D448DA52191/assets/B11D0D9367F9831788BF87960606C465.png" width="53.00" height="31.00" transform="matrix(1.00, 0.00, -0.00, -1.00, 634.0, 272.0)"></image><text xml:space="preserve" font-family="CenturyGothic,Century Gothic" font-size="30.4" fill="#000000" transform="matrix(1.00, 0.00, -0.00, -1.00, 639.4, 244.4)">Ж</text><text xml:space="preserve" font-family="CenturyGothic,Century Gothic" font-size="30.4" fill="#000000" transform="matrix(1.00, 0.00, -0.00, -1.00, 667.8, 244.4)">Е</text><image xlink:href="../../81FB6F8E-84D1-486E-9F41-6D448DA52191/assets/AC8EC60E434C367B3453376CAD754FC3.png" width="19.00" height="19.00" transform="matrix(1.00, 0.00, -0.00, -1.00, 132.0, 218.0)"></image><text xml:space="preserve" font-family="ArialMT,Arial" font-size="38.0" fill="#000000" transform="matrix(1.00, 0.00, -0.00, -1.00, 135.7, 194.2)">•</text><image xlink:href="../../81FB6F8E-84D1-486E-9F41-6D448DA52191/assets/5F0BA942C016CD5630BABF0513757B51.png" width="118.00" height="38.00" transform="matrix(1.00, 0.00, -0.00, -1.00, 165.0, 226.0)"></image><text xml:space="preserve" font-family="CenturyGothic,Century Gothic" font-size="38.0" fill="#000000" transform="matrix(1.00, 0.00, -0.00, -1.00, 167.6, 192.4)">Б</text><text xml:space="preserve" font-family="CenturyGothic,Century Gothic" font-size="38.0" fill="#000000" transform="matrix(1.00, 0.00, -0.00, -1.00, 189.3, 192.4)">О</text><text xml:space="preserve" font-family="CenturyGothic,Century Gothic" font-size="38.0" fill="#000000" transform="matrix(1.00, 0.00, -0.00, -1.00, 222.4, 192.4)">Л</text><text xml:space="preserve" font-family="CenturyGothic,Century Gothic" font-size="38.0" fill="#000000" transform="matrix(1.00, 0.00, -0.00, -1.00, 249.1, 192.4)">Ь</text><text xml:space="preserve" font-family="CenturyGothic,Century Gothic" font-size="38.0" fill="#000000" transform="matrix(1.00, 0.00, -0.00, -1.00, 272.1, 192.4)">!</text><text xml:space="preserve" font-family="CenturyGothic-Bold,Century Gothic" font-weight="bold" font-size="28.0" fill="#525252" transform="matrix(1.00, 0.00, -0.00, -1.00, 949.2, 65.6)">6</text></g></svg>