<?xml version="1.0" encoding="UTF-8" standalone="no"?><svg xmlns="http://www.w3.org/2000/svg" xmlns:xlink="http://www.w3.org/1999/xlink" clip-rule="evenodd" stroke-miterlimit="10" viewBox="0 0 774 52"><desc>SVG generated by Keynote</desc><defs></defs><g transform="matrix(1.00, 0.00, -0.00, -1.00, 0.0, 52.0)"><image xlink:href="../../81FB6F8E-84D1-486E-9F41-6D448DA52191/assets/AC8EC60E434C367B3453376CAD754FC3.png" width="19.00" height="19.00" transform="matrix(1.00, 0.00, -0.00, -1.00, 1.0, 36.0)"></image><text xml:space="preserve" font-family="ArialMT,Arial" font-size="38.0" fill="#000000" transform="matrix(1.00, 0.00, -0.00, -1.00, 4.7, 12.2)">•</text><image xlink:href="3B10579EA0274ABE1311C70D9571518C.png" width="32.00" height="40.00" transform="matrix(1.00, 0.00, -0.00, -1.00, 34.0, 43.0)"></image><text xml:space="preserve" font-family="CenturyGothic,Century Gothic" font-size="38.0" fill="#000000" transform="matrix(1.00, 0.00, -0.00, -1.00, 36.6, 10.4)">Ц</text><image xlink:href="F60FD8A2C3556DC3D8D207259BFE51CE.png" width="253.00" height="34.00" transform="matrix(1.00, 0.00, -0.00, -1.00, 61.0, 38.0)"></image><text xml:space="preserve" font-family="CenturyGothic,Century Gothic" font-size="30.4" fill="#000000" transform="matrix(1.00, 0.00, -0.00, -1.00, 63.5, 10.4)">В</text><text xml:space="preserve" font-family="CenturyGothic,Century Gothic" font-size="30.4" fill="#000000" transform="matrix(1.00, 0.00, -0.00, -1.00, 80.9, 10.4)">Е</text><text xml:space="preserve" font-family="CenturyGothic,Century Gothic" font-size="30.4" fill="#000000" transform="matrix(1.00, 0.00, -0.00, -1.00, 97.2, 10.4)">Т</text><text xml:space="preserve" font-family="CenturyGothic,Century Gothic" font-size="30.4" fill="#000000" transform="matrix(1.00, 0.00, -0.00, -1.00, 110.2, 10.4)">О</text><text xml:space="preserve" font-family="CenturyGothic,Century Gothic" font-size="30.4" fill="#000000" transform="matrix(1.00, 0.00, -0.00, -1.00, 136.6, 10.4)">К</text><text xml:space="preserve" font-family="CenturyGothic,Century Gothic" font-size="30.4" fill="#000000" transform="matrix(1.00, 0.00, -0.00, -1.00, 154.6, 10.4)">О</text><text xml:space="preserve" font-family="CenturyGothic,Century Gothic" font-size="30.4" fill="#000000" transform="matrix(1.00, 0.00, -0.00, -1.00, 181.0, 10.4)">Р</text><text xml:space="preserve" font-family="CenturyGothic,Century Gothic" font-size="30.4" fill="#000000" transform="matrix(1.00, 0.00, -0.00, -1.00, 199.0, 10.4)">Р</text><text xml:space="preserve" font-family="CenturyGothic,Century Gothic" font-size="30.4" fill="#000000" transform="matrix(1.00, 0.00, -0.00, -1.00, 217.0, 10.4)">Е</text><text xml:space="preserve" font-family="CenturyGothic,Century Gothic" font-size="30.4" fill="#000000" transform="matrix(1.00, 0.00, -0.00, -1.00, 233.3, 10.4)">К</text><text xml:space="preserve" font-family="CenturyGothic,Century Gothic" font-size="30.4" fill="#000000" transform="matrix(1.00, 0.00, -0.00, -1.00, 251.2, 10.4)">Ц</text><text xml:space="preserve" font-family="CenturyGothic,Century Gothic" font-size="30.4" fill="#000000" transform="matrix(1.00, 0.00, -0.00, -1.00, 272.7, 10.4)">И</text><text xml:space="preserve" font-family="CenturyGothic,Century Gothic" font-size="30.4" fill="#000000" transform="matrix(1.00, 0.00, -0.00, -1.00, 295.2, 10.4)">Я</text><image xlink:href="597F9BF3548CD3C44EB16ED64A884151.png" width="14.00" height="17.00" transform="matrix(1.00, 0.00, -0.00, -1.00, 310.0, 21.0)"></image><text xml:space="preserve" font-family="CenturyGothic,Century Gothic" font-size="38.0" fill="#000000" transform="matrix(1.00, 0.00, -0.00, -1.00, 313.0, 10.4)">,</text><text xml:space="preserve" font-family="CenturyGothic,Century Gothic" font-size="38.0" fill="#000000" transform="matrix(1.00, 0.00, -0.00, -1.00, 323.5, 10.4)"> </text><image xlink:href="66337BBA98D2701BE8A72FC7D1443771.png" width="134.00" height="32.00" transform="matrix(1.00, 0.00, -0.00, -1.00, 331.0, 38.0)"></image><text xml:space="preserve" font-family="CenturyGothic,Century Gothic" font-size="30.4" fill="#000000" transform="matrix(1.00, 0.00, -0.00, -1.00, 334.0, 10.4)">Б</text><text xml:space="preserve" font-family="CenturyGothic,Century Gothic" font-size="30.4" fill="#000000" transform="matrix(1.00, 0.00, -0.00, -1.00, 351.4, 10.4)">А</text><text xml:space="preserve" font-family="CenturyGothic,Century Gothic" font-size="30.4" fill="#000000" transform="matrix(1.00, 0.00, -0.00, -1.00, 373.9, 10.4)">Л</text><text xml:space="preserve" font-family="CenturyGothic,Century Gothic" font-size="30.4" fill="#000000" transform="matrix(1.00, 0.00, -0.00, -1.00, 395.3, 10.4)">А</text><text xml:space="preserve" font-family="CenturyGothic,Century Gothic" font-size="30.4" fill="#000000" transform="matrix(1.00, 0.00, -0.00, -1.00, 417.7, 10.4)">Н</text><text xml:space="preserve" font-family="CenturyGothic,Century Gothic" font-size="30.4" fill="#000000" transform="matrix(1.00, 0.00, -0.00, -1.00, 438.5, 10.4)">С</text><text xml:space="preserve" font-family="CenturyGothic,Century Gothic" font-size="38.0" fill="#000000" transform="matrix(1.00, 0.00, -0.00, -1.00, 463.3, 10.4)"> </text><image xlink:href="EB391800601D7D5ABFFBCF5A223183EC.png" width="126.00" height="32.00" transform="matrix(1.00, 0.00, -0.00, -1.00, 471.0, 38.0)"></image><text xml:space="preserve" font-family="CenturyGothic,Century Gothic" font-size="30.4" fill="#000000" transform="matrix(1.00, 0.00, -0.00, -1.00, 473.8, 10.4)">Б</text><text xml:space="preserve" font-family="CenturyGothic,Century Gothic" font-size="30.4" fill="#000000" transform="matrix(1.00, 0.00, -0.00, -1.00, 491.2, 10.4)">Е</text><text xml:space="preserve" font-family="CenturyGothic,Century Gothic" font-size="30.4" fill="#000000" transform="matrix(1.00, 0.00, -0.00, -1.00, 507.5, 10.4)">Л</text><text xml:space="preserve" font-family="CenturyGothic,Century Gothic" font-size="30.4" fill="#000000" transform="matrix(1.00, 0.00, -0.00, -1.00, 528.8, 10.4)">О</text><text xml:space="preserve" font-family="CenturyGothic,Century Gothic" font-size="30.4" fill="#000000" transform="matrix(1.00, 0.00, -0.00, -1.00, 555.2, 10.4)">Г</text><text xml:space="preserve" font-family="CenturyGothic,Century Gothic" font-size="30.4" fill="#000000" transform="matrix(1.00, 0.00, -0.00, -1.00, 569.3, 10.4)">О</text><image xlink:href="96350E66F638B0FBE59903AE12E76F27.png" width="14.00" height="17.00" transform="matrix(1.00, 0.00, -0.00, -1.00, 593.0, 21.0)"></image><text xml:space="preserve" font-family="CenturyGothic,Century Gothic" font-size="38.0" fill="#000000" transform="matrix(1.00, 0.00, -0.00, -1.00, 595.7, 10.4)">,</text><text xml:space="preserve" font-family="CenturyGothic,Century Gothic" font-size="38.0" fill="#000000" transform="matrix(1.00, 0.00, -0.00, -1.00, 606.2, 10.4)"> </text><image xlink:href="97BD990EA6E4A8FDE1DA3A4DBFF5A05F.png" width="162.00" height="32.00" transform="matrix(1.00, 0.00, -0.00, -1.00, 614.0, 38.0)"></image><text xml:space="preserve" font-family="CenturyGothic,Century Gothic" font-size="30.4" fill="#000000" transform="matrix(1.00, 0.00, -0.00, -1.00, 616.8, 10.4)">К</text><text xml:space="preserve" font-family="CenturyGothic,Century Gothic" font-size="30.4" fill="#000000" transform="matrix(1.00, 0.00, -0.00, -1.00, 634.7, 10.4)">О</text><text xml:space="preserve" font-family="CenturyGothic,Century Gothic" font-size="30.4" fill="#000000" transform="matrix(1.00, 0.00, -0.00, -1.00, 661.1, 10.4)">Н</text><text xml:space="preserve" font-family="CenturyGothic,Century Gothic" font-size="30.4" fill="#000000" transform="matrix(1.00, 0.00, -0.00, -1.00, 681.9, 10.4)">Т</text><text xml:space="preserve" font-family="CenturyGothic,Century Gothic" font-size="30.4" fill="#000000" transform="matrix(1.00, 0.00, -0.00, -1.00, 694.8, 10.4)">Р</text><text xml:space="preserve" font-family="CenturyGothic,Century Gothic" font-size="30.4" fill="#000000" transform="matrix(1.00, 0.00, -0.00, -1.00, 712.8, 10.4)">А</text><text xml:space="preserve" font-family="CenturyGothic,Century Gothic" font-size="30.4" fill="#000000" transform="matrix(1.00, 0.00, -0.00, -1.00, 735.3, 10.4)">С</text><text xml:space="preserve" font-family="CenturyGothic,Century Gothic" font-size="30.4" fill="#000000" transform="matrix(1.00, 0.00, -0.00, -1.00, 760.0, 10.4)">Т</text></g></svg>