<?xml version="1.0" encoding="UTF-8" standalone="no"?><svg xmlns="http://www.w3.org/2000/svg" xmlns:xlink="http://www.w3.org/1999/xlink" clip-rule="evenodd" stroke-miterlimit="10" viewBox="0 0 645 100"><desc>SVG generated by Keynote</desc><defs></defs><g transform="matrix(1.00, 0.00, -0.00, -1.00, 0.0, 100.0)"><image xlink:href="../../E1286FB3-8369-444F-A896-8716CB2221DC/assets/73439FC5A8CE5429A9149E425466A0D1.png" width="18.00" height="18.00" transform="matrix(1.00, 0.00, -0.00, -1.00, 1.0, 84.0)"></image><text xml:space="preserve" font-family="ArialMT,Arial" font-size="36.0" fill="#000000" transform="matrix(1.00, 0.00, -0.00, -1.00, 4.7, 61.3)">•</text><image xlink:href="055FE97678F55E687F04A2DD1DF979F0.png" width="64.00" height="31.00" transform="matrix(1.00, 0.00, -0.00, -1.00, 33.0, 87.0)"></image><text xml:space="preserve" font-family="CenturyGothic,Century Gothic" font-size="28.8" fill="#000000" transform="matrix(1.00, 0.00, -0.00, -1.00, 36.6, 60.0)">I</text><text xml:space="preserve" font-family="CenturyGothic,Century Gothic" font-size="28.8" fill="#000000" transform="matrix(1.00, 0.00, -0.00, -1.00, 43.1, 60.0)">M</text><text xml:space="preserve" font-family="CenturyGothic,Century Gothic" font-size="28.8" fill="#000000" transform="matrix(1.00, 0.00, -0.00, -1.00, 69.6, 60.0)">G</text><image xlink:href="69F8873C1DB7D125E3E6C6D009550617.png" width="24.00" height="36.00" transform="matrix(1.00, 0.00, -0.00, -1.00, 90.0, 92.0)"></image><text xml:space="preserve" font-family="CenturyGothic,Century Gothic" font-size="36.0" fill="#000000" transform="matrix(1.00, 0.00, -0.00, -1.00, 94.7, 60.0)">S</text><image xlink:href="45B33FE8BC3F79CEDAD2FAE6C1172765.png" width="53.00" height="29.00" transform="matrix(1.00, 0.00, -0.00, -1.00, 110.0, 86.0)"></image><text xml:space="preserve" font-family="CenturyGothic,Century Gothic" font-size="28.8" fill="#000000" transform="matrix(1.00, 0.00, -0.00, -1.00, 112.6, 60.0)">E</text><text xml:space="preserve" font-family="CenturyGothic,Century Gothic" font-size="28.8" fill="#000000" transform="matrix(1.00, 0.00, -0.00, -1.00, 128.0, 60.0)">E</text><text xml:space="preserve" font-family="CenturyGothic,Century Gothic" font-size="28.8" fill="#000000" transform="matrix(1.00, 0.00, -0.00, -1.00, 143.5, 60.0)">K</text><text xml:space="preserve" font-family="CenturyGothic,Century Gothic" font-size="36.0" fill="#000000" transform="matrix(1.00, 0.00, -0.00, -1.00, 160.5, 60.0)"> </text><image xlink:href="../../E1286FB3-8369-444F-A896-8716CB2221DC/assets/73439FC5A8CE5429A9149E425466A0D1.png" width="18.00" height="18.00" transform="matrix(1.00, 0.00, -0.00, -1.00, 37.0, 34.0)"></image><text xml:space="preserve" font-family="ArialMT,Arial" font-size="36.0" fill="#000000" transform="matrix(1.00, 0.00, -0.00, -1.00, 40.7, 11.3)">•</text><image xlink:href="../../CA20ABA2-63C0-4105-ACA0-D15A0395AFAF/assets/C9AA4E8A605A8F77DAF899982C523AD8.png" width="66.00" height="29.00" transform="matrix(1.00, 0.00, -0.00, -1.00, 70.0, 36.0)"></image><text xml:space="preserve" font-family="CenturyGothic,Century Gothic" font-size="28.8" fill="#0000FF" transform="matrix(1.00, 0.00, -0.00, -1.00, 72.6, 10.0)">H</text><text xml:space="preserve" font-family="CenturyGothic,Century Gothic" font-size="28.8" fill="#0000FF" transform="matrix(1.00, 0.00, -0.00, -1.00, 92.3, 10.0)">T</text><text xml:space="preserve" font-family="CenturyGothic,Century Gothic" font-size="28.8" fill="#0000FF" transform="matrix(1.00, 0.00, -0.00, -1.00, 104.5, 10.0)">T</text><text xml:space="preserve" font-family="CenturyGothic,Century Gothic" font-size="28.8" fill="#0000FF" transform="matrix(1.00, 0.00, -0.00, -1.00, 116.8, 10.0)">P</text><image xlink:href="../../CA20ABA2-63C0-4105-ACA0-D15A0395AFAF/assets/460649F61441F4B7A21B2017A70B9708.png" width="46.00" height="39.00" transform="matrix(1.00, 0.00, -0.00, -1.00, 132.0, 42.0)"></image><text xml:space="preserve" font-family="CenturyGothic,Century Gothic" font-size="36.0" fill="#0000FF" transform="matrix(1.00, 0.00, -0.00, -1.00, 133.8, 10.0)">:</text><text xml:space="preserve" font-family="CenturyGothic,Century Gothic" font-size="36.0" fill="#0000FF" transform="matrix(1.00, 0.00, -0.00, -1.00, 143.8, 10.0)">/</text><text xml:space="preserve" font-family="CenturyGothic,Century Gothic" font-size="36.0" fill="#0000FF" transform="matrix(1.00, 0.00, -0.00, -1.00, 159.5, 10.0)">/</text><image xlink:href="054E2245F0D9A3896DA3DB6CAB766DB8.png" width="89.00" height="29.00" transform="matrix(1.00, 0.00, -0.00, -1.00, 171.0, 36.0)"></image><text xml:space="preserve" font-family="CenturyGothic,Century Gothic" font-size="28.8" fill="#0000FF" transform="matrix(1.00, 0.00, -0.00, -1.00, 175.3, 10.0)">W</text><text xml:space="preserve" font-family="CenturyGothic,Century Gothic" font-size="28.8" fill="#0000FF" transform="matrix(1.00, 0.00, -0.00, -1.00, 202.9, 10.0)">W</text><text xml:space="preserve" font-family="CenturyGothic,Century Gothic" font-size="28.8" fill="#0000FF" transform="matrix(1.00, 0.00, -0.00, -1.00, 230.5, 10.0)">W</text><image xlink:href="D4CEC5A5D8134FA43FE15F8D0D63C112.png" width="13.00" height="13.00" transform="matrix(1.00, 0.00, -0.00, -1.00, 256.0, 19.0)"></image><text xml:space="preserve" font-family="CenturyGothic,Century Gothic" font-size="36.0" fill="#0000FF" transform="matrix(1.00, 0.00, -0.00, -1.00, 258.2, 10.0)">.</text><image xlink:href="7302CF61974FB76A25565E8AFB6E4D6F.png" width="126.00" height="31.00" transform="matrix(1.00, 0.00, -0.00, -1.00, 265.0, 37.0)"></image><text xml:space="preserve" font-family="CenturyGothic,Century Gothic" font-size="28.8" fill="#0000FF" transform="matrix(1.00, 0.00, -0.00, -1.00, 268.2, 10.0)">I</text><text xml:space="preserve" font-family="CenturyGothic,Century Gothic" font-size="28.8" fill="#0000FF" transform="matrix(1.00, 0.00, -0.00, -1.00, 274.7, 10.0)">M</text><text xml:space="preserve" font-family="CenturyGothic,Century Gothic" font-size="28.8" fill="#0000FF" transform="matrix(1.00, 0.00, -0.00, -1.00, 301.1, 10.0)">G</text><text xml:space="preserve" font-family="CenturyGothic,Century Gothic" font-size="28.8" fill="#0000FF" transform="matrix(1.00, 0.00, -0.00, -1.00, 326.3, 10.0)">S</text><text xml:space="preserve" font-family="CenturyGothic,Century Gothic" font-size="28.8" fill="#0000FF" transform="matrix(1.00, 0.00, -0.00, -1.00, 340.6, 10.0)">E</text><text xml:space="preserve" font-family="CenturyGothic,Century Gothic" font-size="28.8" fill="#0000FF" transform="matrix(1.00, 0.00, -0.00, -1.00, 356.0, 10.0)">E</text><text xml:space="preserve" font-family="CenturyGothic,Century Gothic" font-size="28.8" fill="#0000FF" transform="matrix(1.00, 0.00, -0.00, -1.00, 371.5, 10.0)">K</text><image xlink:href="D3E02529E4F987EAD6D581946CE76F41.png" width="14.00" height="13.00" transform="matrix(1.00, 0.00, -0.00, -1.00, 386.0, 19.0)"></image><text xml:space="preserve" font-family="CenturyGothic,Century Gothic" font-size="36.0" fill="#0000FF" transform="matrix(1.00, 0.00, -0.00, -1.00, 388.5, 10.0)">.</text><image xlink:href="58967DF5C65E6A19ADC917809F6C0844.png" width="56.00" height="29.00" transform="matrix(1.00, 0.00, -0.00, -1.00, 395.0, 36.0)"></image><text xml:space="preserve" font-family="CenturyGothic,Century Gothic" font-size="28.8" fill="#0000FF" transform="matrix(1.00, 0.00, -0.00, -1.00, 398.5, 10.0)">N</text><text xml:space="preserve" font-family="CenturyGothic,Century Gothic" font-size="28.8" fill="#0000FF" transform="matrix(1.00, 0.00, -0.00, -1.00, 419.8, 10.0)">E</text><text xml:space="preserve" font-family="CenturyGothic,Century Gothic" font-size="28.8" fill="#0000FF" transform="matrix(1.00, 0.00, -0.00, -1.00, 435.2, 10.0)">T</text><image xlink:href="47772E5F623C49491F2732530558B8C8.png" width="23.00" height="39.00" transform="matrix(1.00, 0.00, -0.00, -1.00, 443.0, 42.0)"></image><text xml:space="preserve" font-family="CenturyGothic,Century Gothic" font-size="36.0" fill="#0000FF" transform="matrix(1.00, 0.00, -0.00, -1.00, 447.5, 10.0)">/</text><image xlink:href="EC12466EB5B96A232D923BDC2A63FFF9.png" width="44.00" height="31.00" transform="matrix(1.00, 0.00, -0.00, -1.00, 460.0, 37.0)"></image><text xml:space="preserve" font-family="CenturyGothic,Century Gothic" font-size="28.8" fill="#0000FF" transform="matrix(1.00, 0.00, -0.00, -1.00, 463.2, 10.0)">I</text><text xml:space="preserve" font-family="CenturyGothic,Century Gothic" font-size="28.8" fill="#0000FF" transform="matrix(1.00, 0.00, -0.00, -1.00, 469.7, 10.0)">S</text><text xml:space="preserve" font-family="CenturyGothic,Century Gothic" font-size="28.8" fill="#0000FF" transform="matrix(1.00, 0.00, -0.00, -1.00, 484.1, 10.0)">K</text><image xlink:href="5649E9704DE6B0DC8A4F407898176407.png" width="18.00" height="11.00" transform="matrix(1.00, 0.00, -0.00, -1.00, 497.0, 26.0)"></image><text xml:space="preserve" font-family="CenturyGothic,Century Gothic" font-size="36.0" fill="#0000FF" transform="matrix(1.00, 0.00, -0.00, -1.00, 501.1, 10.0)">-</text><image xlink:href="F57F5B5261BF0DF09AB7AC23EFDA6501.png" width="135.00" height="31.00" transform="matrix(1.00, 0.00, -0.00, -1.00, 510.0, 37.0)"></image><text xml:space="preserve" font-family="CenturyGothic,Century Gothic" font-size="28.8" fill="#0000FF" transform="matrix(1.00, 0.00, -0.00, -1.00, 513.0, 10.0)">D</text><text xml:space="preserve" font-family="CenturyGothic,Century Gothic" font-size="28.8" fill="#0000FF" transform="matrix(1.00, 0.00, -0.00, -1.00, 534.5, 10.0)">A</text><text xml:space="preserve" font-family="CenturyGothic,Century Gothic" font-size="28.8" fill="#0000FF" transform="matrix(1.00, 0.00, -0.00, -1.00, 555.8, 10.0)">E</text><text xml:space="preserve" font-family="CenturyGothic,Century Gothic" font-size="28.8" fill="#0000FF" transform="matrix(1.00, 0.00, -0.00, -1.00, 571.2, 10.0)">M</text><text xml:space="preserve" font-family="CenturyGothic,Century Gothic" font-size="28.8" fill="#0000FF" transform="matrix(1.00, 0.00, -0.00, -1.00, 597.7, 10.0)">O</text><text xml:space="preserve" font-family="CenturyGothic,Century Gothic" font-size="28.8" fill="#0000FF" transform="matrix(1.00, 0.00, -0.00, -1.00, 622.7, 10.0)">N</text><g><clipPath id="clip0x7fd02b17bb00"><path d="M 71.6 5.4 L 644.0 5.4 L 644.0 9.2 L 71.6 9.2 Z M 71.6 5.4 "></path></clipPath><g clip-path="url(#clip0x7fd02b17bb00)"><path d="M 71.7 329.6 L 643.1 329.6 " fill="none" stroke="#0000FF" stroke-width="1.79" transform="matrix(1.00, 0.00, 0.00, -1.00, 0.9, 336.9)"></path></g></g></g></svg>