<?xml version="1.0" encoding="UTF-8" standalone="no"?><svg xmlns="http://www.w3.org/2000/svg" xmlns:xlink="http://www.w3.org/1999/xlink" clip-rule="evenodd" stroke-miterlimit="10" viewBox="0 0 705 153"><desc>SVG generated by Keynote</desc><defs></defs><g transform="matrix(1.00, 0.00, -0.00, -1.00, 0.0, 153.0)"><image xlink:href="../../E1286FB3-8369-444F-A896-8716CB2221DC/assets/73439FC5A8CE5429A9149E425466A0D1.png" width="18.00" height="18.00" transform="matrix(1.00, 0.00, -0.00, -1.00, 1.0, 134.0)"></image><text xml:space="preserve" font-family="ArialMT,Arial" font-size="36.0" fill="#000000" transform="matrix(1.00, 0.00, -0.00, -1.00, 4.7, 111.3)">•</text><image xlink:href="8EA475988D7F5652763B66DD38D37949.png" width="22.00" height="29.00" transform="matrix(1.00, 0.00, -0.00, -1.00, 34.0, 136.0)"></image><text xml:space="preserve" font-family="CenturyGothic,Century Gothic" font-size="28.8" fill="#000000" transform="matrix(1.00, 0.00, -0.00, -1.00, 36.6, 110.0)">P</text><image xlink:href="145A4B633A974633375C97BDC9E755FA.png" width="28.00" height="34.00" transform="matrix(1.00, 0.00, -0.00, -1.00, 51.0, 141.0)"></image><text xml:space="preserve" font-family="CenturyGothic,Century Gothic" font-size="36.0" fill="#000000" transform="matrix(1.00, 0.00, -0.00, -1.00, 53.6, 110.0)">H</text><image xlink:href="112296627B929367F6733B96A2D17D33.png" width="62.00" height="31.00" transform="matrix(1.00, 0.00, -0.00, -1.00, 73.0, 137.0)"></image><text xml:space="preserve" font-family="CenturyGothic,Century Gothic" font-size="28.8" fill="#000000" transform="matrix(1.00, 0.00, -0.00, -1.00, 78.2, 110.0)">A</text><text xml:space="preserve" font-family="CenturyGothic,Century Gothic" font-size="28.8" fill="#000000" transform="matrix(1.00, 0.00, -0.00, -1.00, 99.5, 110.0)">S</text><text xml:space="preserve" font-family="CenturyGothic,Century Gothic" font-size="28.8" fill="#000000" transform="matrix(1.00, 0.00, -0.00, -1.00, 113.9, 110.0)">H</text><image xlink:href="6786DD3B2F8BE3C32FAE29AD5269BE11.png" width="19.00" height="11.00" transform="matrix(1.00, 0.00, -0.00, -1.00, 139.0, 126.0)"></image><text xml:space="preserve" font-family="CenturyGothic,Century Gothic" font-size="36.0" fill="#000000" transform="matrix(1.00, 0.00, -0.00, -1.00, 133.5, 110.0)"> </text><text xml:space="preserve" font-family="CenturyGothic,Century Gothic" font-size="36.0" fill="#000000" transform="matrix(1.00, 0.00, -0.00, -1.00, 143.5, 110.0)">-</text><text xml:space="preserve" font-family="CenturyGothic,Century Gothic" font-size="36.0" fill="#000000" transform="matrix(1.00, 0.00, -0.00, -1.00, 155.5, 110.0)"> </text><image xlink:href="28861A91997B80D689FF81938877E2D8.png" width="67.00" height="29.00" transform="matrix(1.00, 0.00, -0.00, -1.00, 162.0, 136.0)"></image><text xml:space="preserve" font-family="CenturyGothic,Century Gothic" font-size="28.8" fill="#0000FF" transform="matrix(1.00, 0.00, -0.00, -1.00, 165.4, 110.0)">H</text><text xml:space="preserve" font-family="CenturyGothic,Century Gothic" font-size="28.8" fill="#0000FF" transform="matrix(1.00, 0.00, -0.00, -1.00, 185.1, 110.0)">T</text><text xml:space="preserve" font-family="CenturyGothic,Century Gothic" font-size="28.8" fill="#0000FF" transform="matrix(1.00, 0.00, -0.00, -1.00, 197.4, 110.0)">T</text><text xml:space="preserve" font-family="CenturyGothic,Century Gothic" font-size="28.8" fill="#0000FF" transform="matrix(1.00, 0.00, -0.00, -1.00, 209.6, 110.0)">P</text><image xlink:href="9072A738BF9D40BE5D17ED8B57AF5CD0.png" width="47.00" height="39.00" transform="matrix(1.00, 0.00, -0.00, -1.00, 224.0, 142.0)"></image><text xml:space="preserve" font-family="CenturyGothic,Century Gothic" font-size="36.0" fill="#0000FF" transform="matrix(1.00, 0.00, -0.00, -1.00, 226.7, 110.0)">:</text><text xml:space="preserve" font-family="CenturyGothic,Century Gothic" font-size="36.0" fill="#0000FF" transform="matrix(1.00, 0.00, -0.00, -1.00, 236.6, 110.0)">/</text><text xml:space="preserve" font-family="CenturyGothic,Century Gothic" font-size="36.0" fill="#0000FF" transform="matrix(1.00, 0.00, -0.00, -1.00, 252.4, 110.0)">/</text><image xlink:href="887E1005F1A3AE1BC513BD04B74EBB50.png" width="96.00" height="31.00" transform="matrix(1.00, 0.00, -0.00, -1.00, 265.0, 137.0)"></image><text xml:space="preserve" font-family="CenturyGothic,Century Gothic" font-size="28.8" fill="#0000FF" transform="matrix(1.00, 0.00, -0.00, -1.00, 268.1, 110.0)">P</text><text xml:space="preserve" font-family="CenturyGothic,Century Gothic" font-size="28.8" fill="#0000FF" transform="matrix(1.00, 0.00, -0.00, -1.00, 285.1, 110.0)">H</text><text xml:space="preserve" font-family="CenturyGothic,Century Gothic" font-size="28.8" fill="#0000FF" transform="matrix(1.00, 0.00, -0.00, -1.00, 304.8, 110.0)">A</text><text xml:space="preserve" font-family="CenturyGothic,Century Gothic" font-size="28.8" fill="#0000FF" transform="matrix(1.00, 0.00, -0.00, -1.00, 326.1, 110.0)">S</text><text xml:space="preserve" font-family="CenturyGothic,Century Gothic" font-size="28.8" fill="#0000FF" transform="matrix(1.00, 0.00, -0.00, -1.00, 340.5, 110.0)">H</text><image xlink:href="2A371F30C680C5123B6FCD23B185DC33.png" width="13.00" height="13.00" transform="matrix(1.00, 0.00, -0.00, -1.00, 358.0, 119.0)"></image><text xml:space="preserve" font-family="CenturyGothic,Century Gothic" font-size="36.0" fill="#0000FF" transform="matrix(1.00, 0.00, -0.00, -1.00, 360.1, 110.0)">.</text><image xlink:href="928132F670EAE9E98338C036FCE31E91.png" width="74.00" height="31.00" transform="matrix(1.00, 0.00, -0.00, -1.00, 366.0, 137.0)"></image><text xml:space="preserve" font-family="CenturyGothic,Century Gothic" font-size="28.8" fill="#0000FF" transform="matrix(1.00, 0.00, -0.00, -1.00, 370.1, 110.0)">O</text><text xml:space="preserve" font-family="CenturyGothic,Century Gothic" font-size="28.8" fill="#0000FF" transform="matrix(1.00, 0.00, -0.00, -1.00, 395.1, 110.0)">R</text><text xml:space="preserve" font-family="CenturyGothic,Century Gothic" font-size="28.8" fill="#0000FF" transform="matrix(1.00, 0.00, -0.00, -1.00, 412.6, 110.0)">G</text><text xml:space="preserve" font-family="CenturyGothic,Century Gothic" font-size="36.0" fill="#000000" transform="matrix(1.00, 0.00, -0.00, -1.00, 437.7, 110.0)"> </text><g><clipPath id="clip0x7fd045847100"><path d="M 164.4 105.4 L 437.7 105.4 L 437.7 109.2 L 164.4 109.2 Z M 164.4 105.4 "></path></clipPath><g clip-path="url(#clip0x7fd045847100)"><path d="M 164.6 129.6 L 436.9 129.6 " fill="none" stroke="#0000FF" stroke-width="1.79" transform="matrix(1.00, 0.00, 0.00, -1.00, 0.9, 236.9)"></path></g></g><image xlink:href="../../E1286FB3-8369-444F-A896-8716CB2221DC/assets/73439FC5A8CE5429A9149E425466A0D1.png" width="18.00" height="18.00" transform="matrix(1.00, 0.00, -0.00, -1.00, 37.0, 84.0)"></image><text xml:space="preserve" font-family="ArialMT,Arial" font-size="36.0" fill="#000000" transform="matrix(1.00, 0.00, -0.00, -1.00, 40.7, 61.3)">•</text><image xlink:href="C9AA4E8A605A8F77DAF899982C523AD8.png" width="66.00" height="29.00" transform="matrix(1.00, 0.00, -0.00, -1.00, 70.0, 86.0)"></image><text xml:space="preserve" font-family="CenturyGothic,Century Gothic" font-size="28.8" fill="#0000FF" transform="matrix(1.00, 0.00, -0.00, -1.00, 72.6, 60.0)">H</text><text xml:space="preserve" font-family="CenturyGothic,Century Gothic" font-size="28.8" fill="#0000FF" transform="matrix(1.00, 0.00, -0.00, -1.00, 92.3, 60.0)">T</text><text xml:space="preserve" font-family="CenturyGothic,Century Gothic" font-size="28.8" fill="#0000FF" transform="matrix(1.00, 0.00, -0.00, -1.00, 104.5, 60.0)">T</text><text xml:space="preserve" font-family="CenturyGothic,Century Gothic" font-size="28.8" fill="#0000FF" transform="matrix(1.00, 0.00, -0.00, -1.00, 116.8, 60.0)">P</text><image xlink:href="460649F61441F4B7A21B2017A70B9708.png" width="46.00" height="39.00" transform="matrix(1.00, 0.00, -0.00, -1.00, 132.0, 92.0)"></image><text xml:space="preserve" font-family="CenturyGothic,Century Gothic" font-size="36.0" fill="#0000FF" transform="matrix(1.00, 0.00, -0.00, -1.00, 133.8, 60.0)">:</text><text xml:space="preserve" font-family="CenturyGothic,Century Gothic" font-size="36.0" fill="#0000FF" transform="matrix(1.00, 0.00, -0.00, -1.00, 143.8, 60.0)">/</text><text xml:space="preserve" font-family="CenturyGothic,Century Gothic" font-size="36.0" fill="#0000FF" transform="matrix(1.00, 0.00, -0.00, -1.00, 159.5, 60.0)">/</text><image xlink:href="D3ADB0BE8C815C3308E449BE28DA7AE4.png" width="62.00" height="29.00" transform="matrix(1.00, 0.00, -0.00, -1.00, 172.0, 86.0)"></image><text xml:space="preserve" font-family="CenturyGothic,Century Gothic" font-size="28.8" fill="#0000FF" transform="matrix(1.00, 0.00, -0.00, -1.00, 175.3, 60.0)">P</text><text xml:space="preserve" font-family="CenturyGothic,Century Gothic" font-size="28.8" fill="#0000FF" transform="matrix(1.00, 0.00, -0.00, -1.00, 192.3, 60.0)">Y</text><text xml:space="preserve" font-family="CenturyGothic,Century Gothic" font-size="28.8" fill="#0000FF" transform="matrix(1.00, 0.00, -0.00, -1.00, 209.3, 60.0)">P</text><text xml:space="preserve" font-family="CenturyGothic,Century Gothic" font-size="28.8" fill="#0000FF" transform="matrix(1.00, 0.00, -0.00, -1.00, 226.4, 60.0)">I</text><image xlink:href="64526266D41D377CF91186A215F536B9.png" width="13.00" height="13.00" transform="matrix(1.00, 0.00, -0.00, -1.00, 231.0, 69.0)"></image><text xml:space="preserve" font-family="CenturyGothic,Century Gothic" font-size="36.0" fill="#0000FF" transform="matrix(1.00, 0.00, -0.00, -1.00, 232.9, 60.0)">.</text><image xlink:href="34A205846AD179035205893987DA749D.png" width="116.00" height="31.00" transform="matrix(1.00, 0.00, -0.00, -1.00, 240.0, 87.0)"></image><text xml:space="preserve" font-family="CenturyGothic,Century Gothic" font-size="28.8" fill="#0000FF" transform="matrix(1.00, 0.00, -0.00, -1.00, 242.9, 60.0)">P</text><text xml:space="preserve" font-family="CenturyGothic,Century Gothic" font-size="28.8" fill="#0000FF" transform="matrix(1.00, 0.00, -0.00, -1.00, 259.9, 60.0)">Y</text><text xml:space="preserve" font-family="CenturyGothic,Century Gothic" font-size="28.8" fill="#0000FF" transform="matrix(1.00, 0.00, -0.00, -1.00, 276.9, 60.0)">T</text><text xml:space="preserve" font-family="CenturyGothic,Century Gothic" font-size="28.8" fill="#0000FF" transform="matrix(1.00, 0.00, -0.00, -1.00, 289.2, 60.0)">H</text><text xml:space="preserve" font-family="CenturyGothic,Century Gothic" font-size="28.8" fill="#0000FF" transform="matrix(1.00, 0.00, -0.00, -1.00, 308.9, 60.0)">O</text><text xml:space="preserve" font-family="CenturyGothic,Century Gothic" font-size="28.8" fill="#0000FF" transform="matrix(1.00, 0.00, -0.00, -1.00, 333.9, 60.0)">N</text><image xlink:href="1C63B059E37D7B3B48F9902BF8F7ADB2.png" width="13.00" height="13.00" transform="matrix(1.00, 0.00, -0.00, -1.00, 353.0, 69.0)"></image><text xml:space="preserve" font-family="CenturyGothic,Century Gothic" font-size="36.0" fill="#0000FF" transform="matrix(1.00, 0.00, -0.00, -1.00, 355.2, 60.0)">.</text><image xlink:href="DD05B9D891CE6FC9DCE3BC83A7381FAC.png" width="74.00" height="31.00" transform="matrix(1.00, 0.00, -0.00, -1.00, 361.0, 87.0)"></image><text xml:space="preserve" font-family="CenturyGothic,Century Gothic" font-size="28.8" fill="#0000FF" transform="matrix(1.00, 0.00, -0.00, -1.00, 365.2, 60.0)">O</text><text xml:space="preserve" font-family="CenturyGothic,Century Gothic" font-size="28.8" fill="#0000FF" transform="matrix(1.00, 0.00, -0.00, -1.00, 390.2, 60.0)">R</text><text xml:space="preserve" font-family="CenturyGothic,Century Gothic" font-size="28.8" fill="#0000FF" transform="matrix(1.00, 0.00, -0.00, -1.00, 407.7, 60.0)">G</text><image xlink:href="480784CACA5BB630A2A0D84E0B5C4700.png" width="22.00" height="39.00" transform="matrix(1.00, 0.00, -0.00, -1.00, 429.0, 92.0)"></image><text xml:space="preserve" font-family="CenturyGothic,Century Gothic" font-size="36.0" fill="#0000FF" transform="matrix(1.00, 0.00, -0.00, -1.00, 432.8, 60.0)">/</text><image xlink:href="BB6BEF6842CE017305C7F14EACC72A39.png" width="61.00" height="29.00" transform="matrix(1.00, 0.00, -0.00, -1.00, 446.0, 86.0)"></image><text xml:space="preserve" font-family="CenturyGothic,Century Gothic" font-size="28.8" fill="#0000FF" transform="matrix(1.00, 0.00, -0.00, -1.00, 448.5, 60.0)">P</text><text xml:space="preserve" font-family="CenturyGothic,Century Gothic" font-size="28.8" fill="#0000FF" transform="matrix(1.00, 0.00, -0.00, -1.00, 465.6, 60.0)">Y</text><text xml:space="preserve" font-family="CenturyGothic,Century Gothic" font-size="28.8" fill="#0000FF" transform="matrix(1.00, 0.00, -0.00, -1.00, 482.6, 60.0)">P</text><text xml:space="preserve" font-family="CenturyGothic,Century Gothic" font-size="28.8" fill="#0000FF" transform="matrix(1.00, 0.00, -0.00, -1.00, 499.7, 60.0)">I</text><image xlink:href="2A0AF412A894B0632443BC82659F7C33.png" width="22.00" height="39.00" transform="matrix(1.00, 0.00, -0.00, -1.00, 502.0, 92.0)"></image><text xml:space="preserve" font-family="CenturyGothic,Century Gothic" font-size="36.0" fill="#0000FF" transform="matrix(1.00, 0.00, -0.00, -1.00, 506.2, 60.0)">/</text><image xlink:href="8D4DCAB6D50C6596C2D910D97B94C4A8.png" width="96.00" height="31.00" transform="matrix(1.00, 0.00, -0.00, -1.00, 519.0, 87.0)"></image><text xml:space="preserve" font-family="CenturyGothic,Century Gothic" font-size="28.8" fill="#0000FF" transform="matrix(1.00, 0.00, -0.00, -1.00, 521.9, 60.0)">P</text><text xml:space="preserve" font-family="CenturyGothic,Century Gothic" font-size="28.8" fill="#0000FF" transform="matrix(1.00, 0.00, -0.00, -1.00, 539.0, 60.0)">H</text><text xml:space="preserve" font-family="CenturyGothic,Century Gothic" font-size="28.8" fill="#0000FF" transform="matrix(1.00, 0.00, -0.00, -1.00, 558.6, 60.0)">A</text><text xml:space="preserve" font-family="CenturyGothic,Century Gothic" font-size="28.8" fill="#0000FF" transform="matrix(1.00, 0.00, -0.00, -1.00, 579.9, 60.0)">S</text><text xml:space="preserve" font-family="CenturyGothic,Century Gothic" font-size="28.8" fill="#0000FF" transform="matrix(1.00, 0.00, -0.00, -1.00, 594.3, 60.0)">H</text><image xlink:href="99FED3A46E0A8AAB5960A52070C69DA8.png" width="22.00" height="39.00" transform="matrix(1.00, 0.00, -0.00, -1.00, 610.0, 92.0)"></image><text xml:space="preserve" font-family="CenturyGothic,Century Gothic" font-size="36.0" fill="#0000FF" transform="matrix(1.00, 0.00, -0.00, -1.00, 614.0, 60.0)">/</text><text xml:space="preserve" font-family="CenturyGothic,Century Gothic" font-size="36.0" fill="#000000" transform="matrix(1.00, 0.00, -0.00, -1.00, 629.7, 60.0)"> </text><g><clipPath id="clip0x7fd043ef42c0"><path d="M 71.6 55.4 L 629.7 55.4 L 629.7 59.2 L 71.6 59.2 Z M 71.6 55.4 "></path></clipPath><g clip-path="url(#clip0x7fd043ef42c0)"><path d="M 71.7 179.6 L 628.8 179.6 " fill="none" stroke="#0000FF" stroke-width="1.79" transform="matrix(1.00, 0.00, 0.00, -1.00, 0.9, 236.9)"></path></g></g><image xlink:href="../../E1286FB3-8369-444F-A896-8716CB2221DC/assets/73439FC5A8CE5429A9149E425466A0D1.png" width="18.00" height="18.00" transform="matrix(1.00, 0.00, -0.00, -1.00, 37.0, 34.0)"></image><text xml:space="preserve" font-family="ArialMT,Arial" font-size="36.0" fill="#000000" transform="matrix(1.00, 0.00, -0.00, -1.00, 40.7, 11.3)">•</text><image xlink:href="17E3F059AAA31752C1B2AC7E33D0976D.png" width="80.00" height="31.00" transform="matrix(1.00, 0.00, -0.00, -1.00, 70.0, 37.0)"></image><text xml:space="preserve" font-family="CenturyGothic,Century Gothic" font-size="28.8" fill="#0000FF" transform="matrix(1.00, 0.00, -0.00, -1.00, 72.6, 10.0)">H</text><text xml:space="preserve" font-family="CenturyGothic,Century Gothic" font-size="28.8" fill="#0000FF" transform="matrix(1.00, 0.00, -0.00, -1.00, 92.3, 10.0)">T</text><text xml:space="preserve" font-family="CenturyGothic,Century Gothic" font-size="28.8" fill="#0000FF" transform="matrix(1.00, 0.00, -0.00, -1.00, 104.5, 10.0)">T</text><text xml:space="preserve" font-family="CenturyGothic,Century Gothic" font-size="28.8" fill="#0000FF" transform="matrix(1.00, 0.00, -0.00, -1.00, 116.8, 10.0)">P</text><text xml:space="preserve" font-family="CenturyGothic,Century Gothic" font-size="28.8" fill="#0000FF" transform="matrix(1.00, 0.00, -0.00, -1.00, 133.8, 10.0)">S</text><image xlink:href="5F4A2AE6DCCF0C4C6CE037B8E3440AC1.png" width="46.00" height="39.00" transform="matrix(1.00, 0.00, -0.00, -1.00, 146.0, 42.0)"></image><text xml:space="preserve" font-family="CenturyGothic,Century Gothic" font-size="36.0" fill="#0000FF" transform="matrix(1.00, 0.00, -0.00, -1.00, 148.2, 10.0)">:</text><text xml:space="preserve" font-family="CenturyGothic,Century Gothic" font-size="36.0" fill="#0000FF" transform="matrix(1.00, 0.00, -0.00, -1.00, 158.1, 10.0)">/</text><text xml:space="preserve" font-family="CenturyGothic,Century Gothic" font-size="36.0" fill="#0000FF" transform="matrix(1.00, 0.00, -0.00, -1.00, 173.9, 10.0)">/</text><image xlink:href="83AAEA4F01CA9AAE0FF24F2AE682342D.png" width="104.00" height="31.00" transform="matrix(1.00, 0.00, -0.00, -1.00, 186.0, 37.0)"></image><text xml:space="preserve" font-family="CenturyGothic,Century Gothic" font-size="28.8" fill="#0000FF" transform="matrix(1.00, 0.00, -0.00, -1.00, 189.6, 10.0)">G</text><text xml:space="preserve" font-family="CenturyGothic,Century Gothic" font-size="28.8" fill="#0000FF" transform="matrix(1.00, 0.00, -0.00, -1.00, 214.7, 10.0)">I</text><text xml:space="preserve" font-family="CenturyGothic,Century Gothic" font-size="28.8" fill="#0000FF" transform="matrix(1.00, 0.00, -0.00, -1.00, 221.2, 10.0)">T</text><text xml:space="preserve" font-family="CenturyGothic,Century Gothic" font-size="28.8" fill="#0000FF" transform="matrix(1.00, 0.00, -0.00, -1.00, 233.5, 10.0)">H</text><text xml:space="preserve" font-family="CenturyGothic,Century Gothic" font-size="28.8" fill="#0000FF" transform="matrix(1.00, 0.00, -0.00, -1.00, 253.2, 10.0)">U</text><text xml:space="preserve" font-family="CenturyGothic,Century Gothic" font-size="28.8" fill="#0000FF" transform="matrix(1.00, 0.00, -0.00, -1.00, 272.0, 10.0)">B</text><image xlink:href="066AD8D61CFECE5A65B43B99B6367BD1.png" width="14.00" height="13.00" transform="matrix(1.00, 0.00, -0.00, -1.00, 286.0, 19.0)"></image><text xml:space="preserve" font-family="CenturyGothic,Century Gothic" font-size="36.0" fill="#0000FF" transform="matrix(1.00, 0.00, -0.00, -1.00, 288.6, 10.0)">.</text><image xlink:href="4E95AAE75AAE0CF1B662F4A191F96DF1.png" width="80.00" height="31.00" transform="matrix(1.00, 0.00, -0.00, -1.00, 295.0, 37.0)"></image><text xml:space="preserve" font-family="CenturyGothic,Century Gothic" font-size="28.8" fill="#0000FF" transform="matrix(1.00, 0.00, -0.00, -1.00, 298.5, 10.0)">C</text><text xml:space="preserve" font-family="CenturyGothic,Century Gothic" font-size="28.8" fill="#0000FF" transform="matrix(1.00, 0.00, -0.00, -1.00, 321.9, 10.0)">O</text><text xml:space="preserve" font-family="CenturyGothic,Century Gothic" font-size="28.8" fill="#0000FF" transform="matrix(1.00, 0.00, -0.00, -1.00, 347.0, 10.0)">M</text><image xlink:href="6256C43E25768EC9FDC9F4888ED47732.png" width="23.00" height="39.00" transform="matrix(1.00, 0.00, -0.00, -1.00, 369.0, 42.0)"></image><text xml:space="preserve" font-family="CenturyGothic,Century Gothic" font-size="36.0" fill="#0000FF" transform="matrix(1.00, 0.00, -0.00, -1.00, 373.4, 10.0)">/</text><image xlink:href="7E04899FFA3F58FDC97AE9859C8B463E.png" width="168.00" height="31.00" transform="matrix(1.00, 0.00, -0.00, -1.00, 386.0, 37.0)"></image><text xml:space="preserve" font-family="CenturyGothic,Century Gothic" font-size="28.8" fill="#0000FF" transform="matrix(1.00, 0.00, -0.00, -1.00, 389.2, 10.0)">P</text><text xml:space="preserve" font-family="CenturyGothic,Century Gothic" font-size="28.8" fill="#0000FF" transform="matrix(1.00, 0.00, -0.00, -1.00, 406.2, 10.0)">O</text><text xml:space="preserve" font-family="CenturyGothic,Century Gothic" font-size="28.8" fill="#0000FF" transform="matrix(1.00, 0.00, -0.00, -1.00, 431.2, 10.0)">L</text><text xml:space="preserve" font-family="CenturyGothic,Century Gothic" font-size="28.8" fill="#0000FF" transform="matrix(1.00, 0.00, -0.00, -1.00, 444.5, 10.0)">A</text><text xml:space="preserve" font-family="CenturyGothic,Century Gothic" font-size="28.8" fill="#0000FF" transform="matrix(1.00, 0.00, -0.00, -1.00, 465.8, 10.0)">C</text><text xml:space="preserve" font-family="CenturyGothic,Century Gothic" font-size="28.8" fill="#0000FF" transform="matrix(1.00, 0.00, -0.00, -1.00, 489.2, 10.0)">H</text><text xml:space="preserve" font-family="CenturyGothic,Century Gothic" font-size="28.8" fill="#0000FF" transform="matrix(1.00, 0.00, -0.00, -1.00, 508.9, 10.0)">O</text><text xml:space="preserve" font-family="CenturyGothic,Century Gothic" font-size="28.8" fill="#0000FF" transform="matrix(1.00, 0.00, -0.00, -1.00, 534.0, 10.0)">K</text><image xlink:href="3780EA8EBBD47A12ED6372DD342D91F1.png" width="22.00" height="39.00" transform="matrix(1.00, 0.00, -0.00, -1.00, 547.0, 42.0)"></image><text xml:space="preserve" font-family="CenturyGothic,Century Gothic" font-size="36.0" fill="#0000FF" transform="matrix(1.00, 0.00, -0.00, -1.00, 551.0, 10.0)">/</text><image xlink:href="E80697889CED9FD68AE3EB1F5E3A9BAE.png" width="39.00" height="29.00" transform="matrix(1.00, 0.00, -0.00, -1.00, 564.0, 36.0)"></image><text xml:space="preserve" font-family="CenturyGothic,Century Gothic" font-size="28.8" fill="#0000FF" transform="matrix(1.00, 0.00, -0.00, -1.00, 566.7, 10.0)">P</text><text xml:space="preserve" font-family="CenturyGothic,Century Gothic" font-size="28.8" fill="#0000FF" transform="matrix(1.00, 0.00, -0.00, -1.00, 583.8, 10.0)">Y</text><image xlink:href="B698A0B9FA3A3CE9764FECE51DB3791A.png" width="19.00" height="11.00" transform="matrix(1.00, 0.00, -0.00, -1.00, 596.0, 26.0)"></image><text xml:space="preserve" font-family="CenturyGothic,Century Gothic" font-size="36.0" fill="#0000FF" transform="matrix(1.00, 0.00, -0.00, -1.00, 600.8, 10.0)">-</text><image xlink:href="14ED17A66DE237F279213E4CCAF8F28C.png" width="96.00" height="31.00" transform="matrix(1.00, 0.00, -0.00, -1.00, 610.0, 37.0)"></image><text xml:space="preserve" font-family="CenturyGothic,Century Gothic" font-size="28.8" fill="#0000FF" transform="matrix(1.00, 0.00, -0.00, -1.00, 612.8, 10.0)">P</text><text xml:space="preserve" font-family="CenturyGothic,Century Gothic" font-size="28.8" fill="#0000FF" transform="matrix(1.00, 0.00, -0.00, -1.00, 629.8, 10.0)">H</text><text xml:space="preserve" font-family="CenturyGothic,Century Gothic" font-size="28.8" fill="#0000FF" transform="matrix(1.00, 0.00, -0.00, -1.00, 649.5, 10.0)">A</text><text xml:space="preserve" font-family="CenturyGothic,Century Gothic" font-size="28.8" fill="#0000FF" transform="matrix(1.00, 0.00, -0.00, -1.00, 670.8, 10.0)">S</text><text xml:space="preserve" font-family="CenturyGothic,Century Gothic" font-size="28.8" fill="#0000FF" transform="matrix(1.00, 0.00, -0.00, -1.00, 685.1, 10.0)">H</text><g><clipPath id="clip0x7fd043ed0c40"><path d="M 71.6 5.4 L 704.8 5.4 L 704.8 9.2 L 71.6 9.2 Z M 71.6 5.4 "></path></clipPath><g clip-path="url(#clip0x7fd043ed0c40)"><path d="M 71.7 229.6 L 703.9 229.6 " fill="none" stroke="#0000FF" stroke-width="1.79" transform="matrix(1.00, 0.00, 0.00, -1.00, 0.9, 236.9)"></path></g></g></g></svg>