<?xml version="1.0" encoding="UTF-8" standalone="no"?><svg xmlns="http://www.w3.org/2000/svg" xmlns:xlink="http://www.w3.org/1999/xlink" clip-rule="evenodd" stroke-miterlimit="10" viewBox="0 0 352 468"><desc>SVG generated by Keynote</desc><defs></defs><g transform="matrix(1.00, 0.00, -0.00, -1.00, 0.0, 468.0)"><g><g><clipPath id="clip0x7fd046080d20"><path d="M 0.6 467.0 L 0.6 389.8 L 117.7 389.8 L 117.7 388.8 L 211.2 388.8 L 211.2 467.0 L 117.7 467.0 L 0.6 467.0 Z M 0.6 467.0 "></path></clipPath><g clip-path="url(#clip0x7fd046080d20)"><g><clipPath id="clip0x7fd04607ed70"><path d="M 0.0 0.0 L 352.0 0.0 L 352.0 468.0 L 0.0 468.0 Z M 0.0 0.0 "></path></clipPath><g clip-path="url(#clip0x7fd04607ed70)"><g><g><clipPath id="clip0x7fd0460879d0"><path d="M 0.0 388.0 L 212.0 388.0 L 212.0 467.0 L 0.0 467.0 Z M 0.0 388.0 "></path></clipPath><g clip-path="url(#clip0x7fd0460879d0)"><path d="M 1.1 466.5 L 210.7 466.5 L 210.7 390.3 L 1.1 390.3 Z M 1.1 466.5 " fill="#DEDED1"></path><path d="M 210.7 466.5 L 350.8 466.5 L 350.8 390.3 L 210.7 390.3 Z M 210.7 466.5 " fill="#DEDED1"></path><path d="M 1.1 390.3 L 117.7 390.3 L 117.7 346.4 L 1.1 346.4 Z M 1.1 390.3 " fill="#DEDED1"></path><path d="M 117.7 390.3 L 210.7 390.3 L 210.7 346.4 L 117.7 346.4 Z M 117.7 390.3 " fill="#B4DBAE"></path><path d="M 210.7 390.3 L 350.8 390.3 L 350.8 346.4 L 210.7 346.4 Z M 210.7 390.3 " fill="#B4DBAE"></path></g></g></g></g></g></g></g><g><clipPath id="clip0x7fd046080140"><path d="M 0.6 467.0 L 0.6 389.8 L 117.7 389.8 L 117.7 388.8 L 211.2 388.8 L 211.2 467.0 L 117.7 467.0 L 0.6 467.0 Z M 0.6 467.0 "></path></clipPath><g clip-path="url(#clip0x7fd046080140)"><g><clipPath id="clip0x7fd046090b40"><path d="M 1.6 391.8 L 210.2 391.8 L 210.2 466.0 L 1.6 466.0 Z M 1.6 391.8 "></path></clipPath><g clip-path="url(#clip0x7fd046090b40)"><text xml:space="preserve" font-family="CenturyGothic-Bold,Century Gothic" font-weight="bold" font-size="26.0" fill="#000000" transform="matrix(1.00, 0.00, -0.00, -1.00, 48.7, 434.7)">E</text><text xml:space="preserve" font-family="CenturyGothic-Bold,Century Gothic" font-weight="bold" font-size="26.0" fill="#000000" transform="matrix(1.00, 0.00, -0.00, -1.00, 62.2, 434.7)">u</text><text xml:space="preserve" font-family="CenturyGothic-Bold,Century Gothic" font-weight="bold" font-size="26.0" fill="#000000" transform="matrix(1.00, 0.00, -0.00, -1.00, 77.8, 434.7)">c</text><text xml:space="preserve" font-family="CenturyGothic-Bold,Century Gothic" font-weight="bold" font-size="26.0" fill="#000000" transform="matrix(1.00, 0.00, -0.00, -1.00, 94.5, 434.7)">l</text><text xml:space="preserve" font-family="CenturyGothic-Bold,Century Gothic" font-weight="bold" font-size="26.0" fill="#000000" transform="matrix(1.00, 0.00, -0.00, -1.00, 100.7, 434.7)">i</text><text xml:space="preserve" font-family="CenturyGothic-Bold,Century Gothic" font-weight="bold" font-size="26.0" fill="#000000" transform="matrix(1.00, 0.00, -0.00, -1.00, 106.9, 434.7)">d</text><text xml:space="preserve" font-family="CenturyGothic-Bold,Century Gothic" font-weight="bold" font-size="26.0" fill="#000000" transform="matrix(1.00, 0.00, -0.00, -1.00, 124.1, 434.7)">i</text><text xml:space="preserve" font-family="CenturyGothic-Bold,Century Gothic" font-weight="bold" font-size="26.0" fill="#000000" transform="matrix(1.00, 0.00, -0.00, -1.00, 130.3, 434.7)">a</text><text xml:space="preserve" font-family="CenturyGothic-Bold,Century Gothic" font-weight="bold" font-size="26.0" fill="#000000" transform="matrix(1.00, 0.00, -0.00, -1.00, 147.5, 434.7)">n</text><text xml:space="preserve" font-family="CenturyGothic-Bold,Century Gothic" font-weight="bold" font-size="26.0" fill="#000000" transform="matrix(1.00, 0.00, -0.00, -1.00, 163.1, 434.7)"> </text><text xml:space="preserve" font-family="CenturyGothic-Bold,Century Gothic" font-weight="bold" font-size="26.0" fill="#000000" transform="matrix(1.00, 0.00, -0.00, -1.00, 51.5, 402.7)">d</text><text xml:space="preserve" font-family="CenturyGothic-Bold,Century Gothic" font-weight="bold" font-size="26.0" fill="#000000" transform="matrix(1.00, 0.00, -0.00, -1.00, 68.7, 402.7)">i</text><text xml:space="preserve" font-family="CenturyGothic-Bold,Century Gothic" font-weight="bold" font-size="26.0" fill="#000000" transform="matrix(1.00, 0.00, -0.00, -1.00, 74.9, 402.7)">s</text><text xml:space="preserve" font-family="CenturyGothic-Bold,Century Gothic" font-weight="bold" font-size="26.0" fill="#000000" transform="matrix(1.00, 0.00, -0.00, -1.00, 86.4, 402.7)">t</text><text xml:space="preserve" font-family="CenturyGothic-Bold,Century Gothic" font-weight="bold" font-size="26.0" fill="#000000" transform="matrix(1.00, 0.00, -0.00, -1.00, 94.2, 402.7)">a</text><text xml:space="preserve" font-family="CenturyGothic-Bold,Century Gothic" font-weight="bold" font-size="26.0" fill="#000000" transform="matrix(1.00, 0.00, -0.00, -1.00, 111.3, 402.7)">n</text><text xml:space="preserve" font-family="CenturyGothic-Bold,Century Gothic" font-weight="bold" font-size="26.0" fill="#000000" transform="matrix(1.00, 0.00, -0.00, -1.00, 126.9, 402.7)">c</text><text xml:space="preserve" font-family="CenturyGothic-Bold,Century Gothic" font-weight="bold" font-size="26.0" fill="#000000" transform="matrix(1.00, 0.00, -0.00, -1.00, 143.6, 402.7)">e</text></g></g></g></g><g><clipPath id="clip0x7fd046097340"><path d="M 0.6 467.0 L 0.6 389.8 L 117.7 389.8 L 117.7 388.8 L 211.2 388.8 L 211.2 467.0 L 117.7 467.0 L 0.6 467.0 Z M 0.6 467.0 "></path></clipPath><g clip-path="url(#clip0x7fd046097340)"><g><clipPath id="clip0x7fd046097a20"><path d="M 0.0 0.0 L 352.0 0.0 L 352.0 468.0 L 0.0 468.0 Z M 0.0 0.0 "></path></clipPath><g clip-path="url(#clip0x7fd046097a20)"><path d="M 118.6 76.7 L 118.6 122.1 " fill="none" stroke="#FFFFFF" stroke-width="1.00" stroke-linejoin="bevel" transform="matrix(1.00, 0.00, 0.00, -1.00, -0.9, 468.5)"></path><path d="M 211.6 1.5 L 211.6 122.1 " fill="none" stroke="#FFFFFF" stroke-width="1.00" stroke-linejoin="bevel" transform="matrix(1.00, 0.00, 0.00, -1.00, -0.9, 468.5)"></path><path d="M 1.5 78.2 L 118.1 78.2 " fill="none" stroke="#FFFFFF" stroke-width="1.00" stroke-linejoin="bevel" transform="matrix(1.00, 0.00, 0.00, -1.00, -0.9, 468.5)"></path><path d="M 118.1 78.2 L 351.8 78.2 " fill="none" stroke="#FFFFFF" stroke-width="3.00" stroke-linejoin="bevel" transform="matrix(1.00, 0.00, 0.00, -1.00, -0.9, 468.5)"></path><path d="M 2.0 1.5 L 2.0 122.1 " fill="none" stroke="#FFFFFF" stroke-width="1.00" stroke-linejoin="bevel" transform="matrix(1.00, 0.00, 0.00, -1.00, -0.9, 468.5)"></path><path d="M 1.5 2.0 L 351.8 2.0 " fill="none" stroke="#FFFFFF" stroke-width="1.00" stroke-linejoin="bevel" transform="matrix(1.00, 0.00, 0.00, -1.00, -0.9, 468.5)"></path></g></g></g></g><g><clipPath id="clip0x7fd04609b120"><path d="M 0.6 390.8 L 118.2 390.8 L 118.2 345.9 L 0.6 345.9 Z M 0.6 390.8 "></path></clipPath><g clip-path="url(#clip0x7fd04609b120)"><g><clipPath id="clip0x7fd04609b850"><path d="M 0.0 0.0 L 352.0 0.0 L 352.0 468.0 L 0.0 468.0 Z M 0.0 0.0 "></path></clipPath><g clip-path="url(#clip0x7fd04609b850)"><g><g><clipPath id="clip0x7fd04609d160"><path d="M 0.0 345.0 L 119.0 345.0 L 119.0 391.0 L 0.0 391.0 Z M 0.0 345.0 "></path></clipPath><g clip-path="url(#clip0x7fd04609d160)"><path d="M 1.1 466.5 L 210.7 466.5 L 210.7 390.3 L 1.1 390.3 Z M 1.1 466.5 " fill="#DEDED1"></path><path d="M 1.1 390.3 L 117.7 390.3 L 117.7 346.4 L 1.1 346.4 Z M 1.1 390.3 " fill="#DEDED1"></path><path d="M 117.7 390.3 L 210.7 390.3 L 210.7 346.4 L 117.7 346.4 Z M 117.7 390.3 " fill="#B4DBAE"></path><path d="M 1.1 346.4 L 117.7 346.4 L 117.7 302.5 L 1.1 302.5 Z M 1.1 346.4 " fill="#DEDED1"></path><path d="M 117.7 346.4 L 210.7 346.4 L 210.7 302.5 L 117.7 302.5 Z M 117.7 346.4 " fill="#B4DBAE"></path></g></g></g></g></g></g></g><g><clipPath id="clip0x7fd04609c770"><path d="M 0.6 390.8 L 118.2 390.8 L 118.2 345.9 L 0.6 345.9 Z M 0.6 390.8 "></path></clipPath><g clip-path="url(#clip0x7fd04609c770)"><g><clipPath id="clip0x7fd04609a5f0"><path d="M 1.6 346.9 L 117.2 346.9 L 117.2 389.8 L 1.6 389.8 Z M 1.6 346.9 "></path></clipPath><g clip-path="url(#clip0x7fd04609a5f0)"><text xml:space="preserve" font-family="CenturyGothic-Bold,Century Gothic" font-weight="bold" font-size="26.0" fill="#000000" transform="matrix(1.00, 0.00, -0.00, -1.00, 18.3, 357.5)">4</text><text xml:space="preserve" font-family="CenturyGothic-Bold,Century Gothic" font-weight="bold" font-size="26.0" fill="#000000" transform="matrix(1.00, 0.00, -0.00, -1.00, 32.9, 357.5)">x</text><text xml:space="preserve" font-family="CenturyGothic-Bold,Century Gothic" font-weight="bold" font-size="26.0" fill="#000000" transform="matrix(1.00, 0.00, -0.00, -1.00, 47.4, 357.5)"> </text><text xml:space="preserve" font-family="CenturyGothic-Bold,Century Gothic" font-weight="bold" font-size="26.0" fill="#000000" transform="matrix(1.00, 0.00, -0.00, -1.00, 54.7, 357.5)">l</text><text xml:space="preserve" font-family="CenturyGothic-Bold,Century Gothic" font-weight="bold" font-size="26.0" fill="#000000" transform="matrix(1.00, 0.00, -0.00, -1.00, 60.9, 357.5)">e</text><text xml:space="preserve" font-family="CenturyGothic-Bold,Century Gothic" font-weight="bold" font-size="26.0" fill="#000000" transform="matrix(1.00, 0.00, -0.00, -1.00, 77.6, 357.5)">s</text><text xml:space="preserve" font-family="CenturyGothic-Bold,Century Gothic" font-weight="bold" font-size="26.0" fill="#000000" transform="matrix(1.00, 0.00, -0.00, -1.00, 89.0, 357.5)">s</text></g></g></g></g><g><clipPath id="clip0x7fd0460a30f0"><path d="M 0.6 390.8 L 118.2 390.8 L 118.2 345.9 L 0.6 345.9 Z M 0.6 390.8 "></path></clipPath><g clip-path="url(#clip0x7fd0460a30f0)"><g><clipPath id="clip0x7fd0460a3820"><path d="M 0.0 0.0 L 352.0 0.0 L 352.0 468.0 L 0.0 468.0 Z M 0.0 0.0 "></path></clipPath><g clip-path="url(#clip0x7fd0460a3820)"><path d="M 118.6 76.7 L 118.6 122.1 " fill="none" stroke="#FFFFFF" stroke-width="1.00" stroke-linejoin="bevel" transform="matrix(1.00, 0.00, 0.00, -1.00, -0.9, 468.5)"></path><path d="M 118.6 122.1 L 118.6 166.0 " fill="none" stroke="#FFFFFF" stroke-width="1.00" stroke-linejoin="bevel" transform="matrix(1.00, 0.00, 0.00, -1.00, -0.9, 468.5)"></path><path d="M 1.5 78.2 L 118.1 78.2 " fill="none" stroke="#FFFFFF" stroke-width="1.00" stroke-linejoin="bevel" transform="matrix(1.00, 0.00, 0.00, -1.00, -0.9, 468.5)"></path><path d="M 118.1 78.2 L 211.6 78.2 " fill="none" stroke="#FFFFFF" stroke-width="3.00" stroke-linejoin="bevel" transform="matrix(1.00, 0.00, 0.00, -1.00, -0.9, 468.5)"></path><path d="M 1.5 122.1 L 118.6 122.1 " fill="none" stroke="#FFFFFF" stroke-width="1.00" stroke-linejoin="bevel" transform="matrix(1.00, 0.00, 0.00, -1.00, -0.9, 468.5)"></path><path d="M 118.6 122.1 L 211.6 122.1 " fill="none" stroke="#FFFFFF" stroke-width="1.00" stroke-linejoin="bevel" transform="matrix(1.00, 0.00, 0.00, -1.00, -0.9, 468.5)"></path><path d="M 2.0 2.0 L 2.0 122.1 " fill="none" stroke="#FFFFFF" stroke-width="1.00" stroke-linejoin="bevel" transform="matrix(1.00, 0.00, 0.00, -1.00, -0.9, 468.5)"></path><path d="M 2.0 122.1 L 2.0 166.0 " fill="none" stroke="#FFFFFF" stroke-width="1.00" stroke-linejoin="bevel" transform="matrix(1.00, 0.00, 0.00, -1.00, -0.9, 468.5)"></path></g></g></g></g><g><clipPath id="clip0x7fd03d601bb0"><path d="M 0.6 346.9 L 118.2 346.9 L 118.2 302.0 L 0.6 302.0 Z M 0.6 346.9 "></path></clipPath><g clip-path="url(#clip0x7fd03d601bb0)"><g><clipPath id="clip0x7fd02b020620"><path d="M 0.0 0.0 L 352.0 0.0 L 352.0 468.0 L 0.0 468.0 Z M 0.0 0.0 "></path></clipPath><g clip-path="url(#clip0x7fd02b020620)"><g><g><clipPath id="clip0x7fd03d683390"><path d="M 0.0 302.0 L 119.0 302.0 L 119.0 347.0 L 0.0 347.0 Z M 0.0 302.0 "></path></clipPath><g clip-path="url(#clip0x7fd03d683390)"><path d="M 1.1 390.3 L 117.7 390.3 L 117.7 346.4 L 1.1 346.4 Z M 1.1 390.3 " fill="#DEDED1"></path><path d="M 117.7 390.3 L 210.7 390.3 L 210.7 346.4 L 117.7 346.4 Z M 117.7 390.3 " fill="#B4DBAE"></path><path d="M 1.1 346.4 L 117.7 346.4 L 117.7 302.5 L 1.1 302.5 Z M 1.1 346.4 " fill="#DEDED1"></path><path d="M 117.7 346.4 L 210.7 346.4 L 210.7 302.5 L 117.7 302.5 Z M 117.7 346.4 " fill="#B4DBAE"></path><path d="M 1.1 302.5 L 117.7 302.5 L 117.7 258.7 L 1.1 258.7 Z M 1.1 302.5 " fill="#DEDED1"></path><path d="M 117.7 302.5 L 210.7 302.5 L 210.7 258.7 L 117.7 258.7 Z M 117.7 302.5 " fill="#DDDDDD"></path></g></g></g></g></g></g></g><g><clipPath id="clip0x7fd0401aac10"><path d="M 0.6 346.9 L 118.2 346.9 L 118.2 302.0 L 0.6 302.0 Z M 0.6 346.9 "></path></clipPath><g clip-path="url(#clip0x7fd0401aac10)"><g><clipPath id="clip0x7fd043ca2d30"><path d="M 1.6 303.0 L 117.2 303.0 L 117.2 345.9 L 1.6 345.9 Z M 1.6 303.0 "></path></clipPath><g clip-path="url(#clip0x7fd043ca2d30)"><text xml:space="preserve" font-family="CenturyGothic-Bold,Century Gothic" font-weight="bold" font-size="26.0" fill="#000000" transform="matrix(1.00, 0.00, -0.00, -1.00, 26.1, 313.6)">Q</text><text xml:space="preserve" font-family="CenturyGothic-Bold,Century Gothic" font-weight="bold" font-size="26.0" fill="#000000" transform="matrix(1.00, 0.00, -0.00, -1.00, 47.9, 313.6)">=</text><text xml:space="preserve" font-family="CenturyGothic-Bold,Century Gothic" font-weight="bold" font-size="26.0" fill="#000000" transform="matrix(1.00, 0.00, -0.00, -1.00, 63.5, 313.6)">1</text><text xml:space="preserve" font-family="CenturyGothic-Bold,Century Gothic" font-weight="bold" font-size="26.0" fill="#000000" transform="matrix(1.00, 0.00, -0.00, -1.00, 78.1, 313.6)">0</text></g></g></g></g><g><clipPath id="clip0x7fd043ca23c0"><path d="M 0.6 346.9 L 118.2 346.9 L 118.2 302.0 L 0.6 302.0 Z M 0.6 346.9 "></path></clipPath><g clip-path="url(#clip0x7fd043ca23c0)"><g><clipPath id="clip0x7fd043ca0c10"><path d="M 0.0 0.0 L 352.0 0.0 L 352.0 468.0 L 0.0 468.0 Z M 0.0 0.0 "></path></clipPath><g clip-path="url(#clip0x7fd043ca0c10)"><path d="M 118.6 78.2 L 118.6 122.1 " fill="none" stroke="#FFFFFF" stroke-width="1.00" stroke-linejoin="bevel" transform="matrix(1.00, 0.00, 0.00, -1.00, -0.9, 468.5)"></path><path d="M 118.6 122.1 L 118.6 209.8 " fill="none" stroke="#FFFFFF" stroke-width="1.00" stroke-linejoin="bevel" transform="matrix(1.00, 0.00, 0.00, -1.00, -0.9, 468.5)"></path><path d="M 1.5 166.0 L 211.6 166.0 " fill="none" stroke="#FFFFFF" stroke-width="1.00" stroke-linejoin="bevel" transform="matrix(1.00, 0.00, 0.00, -1.00, -0.9, 468.5)"></path><path d="M 1.5 122.1 L 118.6 122.1 " fill="none" stroke="#FFFFFF" stroke-width="1.00" stroke-linejoin="bevel" transform="matrix(1.00, 0.00, 0.00, -1.00, -0.9, 468.5)"></path><path d="M 118.6 122.1 L 211.6 122.1 " fill="none" stroke="#FFFFFF" stroke-width="1.00" stroke-linejoin="bevel" transform="matrix(1.00, 0.00, 0.00, -1.00, -0.9, 468.5)"></path><path d="M 2.0 78.2 L 2.0 122.1 " fill="none" stroke="#FFFFFF" stroke-width="1.00" stroke-linejoin="bevel" transform="matrix(1.00, 0.00, 0.00, -1.00, -0.9, 468.5)"></path><path d="M 2.0 122.1 L 2.0 209.8 " fill="none" stroke="#FFFFFF" stroke-width="1.00" stroke-linejoin="bevel" transform="matrix(1.00, 0.00, 0.00, -1.00, -0.9, 468.5)"></path></g></g></g></g><g><clipPath id="clip0x7fd043f6a1c0"><path d="M 0.6 303.0 L 118.2 303.0 L 118.2 258.2 L 0.6 258.2 Z M 0.6 303.0 "></path></clipPath><g clip-path="url(#clip0x7fd043f6a1c0)"><g><clipPath id="clip0x7fd043f6a890"><path d="M 0.0 0.0 L 352.0 0.0 L 352.0 468.0 L 0.0 468.0 Z M 0.0 0.0 "></path></clipPath><g clip-path="url(#clip0x7fd043f6a890)"><g><g><clipPath id="clip0x7fd043f6c1b0"><path d="M 0.0 258.0 L 119.0 258.0 L 119.0 304.0 L 0.0 304.0 Z M 0.0 258.0 "></path></clipPath><g clip-path="url(#clip0x7fd043f6c1b0)"><path d="M 1.1 346.4 L 117.7 346.4 L 117.7 302.5 L 1.1 302.5 Z M 1.1 346.4 " fill="#DEDED1"></path><path d="M 117.7 346.4 L 210.7 346.4 L 210.7 302.5 L 117.7 302.5 Z M 117.7 346.4 " fill="#B4DBAE"></path><path d="M 1.1 302.5 L 117.7 302.5 L 117.7 258.7 L 1.1 258.7 Z M 1.1 302.5 " fill="#DEDED1"></path><path d="M 117.7 302.5 L 210.7 302.5 L 210.7 258.7 L 117.7 258.7 Z M 117.7 302.5 " fill="#DDDDDD"></path><path d="M 1.1 258.7 L 117.7 258.7 L 117.7 214.8 L 1.1 214.8 Z M 1.1 258.7 " fill="#DEDED1"></path><path d="M 117.7 258.7 L 210.7 258.7 L 210.7 214.8 L 117.7 214.8 Z M 117.7 258.7 " fill="#DDDDDD"></path></g></g></g></g></g></g></g><g><clipPath id="clip0x7fd043f6b8b0"><path d="M 0.6 303.0 L 118.2 303.0 L 118.2 258.2 L 0.6 258.2 Z M 0.6 303.0 "></path></clipPath><g clip-path="url(#clip0x7fd043f6b8b0)"><g><clipPath id="clip0x7fd040166d80"><path d="M 1.6 259.2 L 117.2 259.2 L 117.2 302.0 L 1.6 302.0 Z M 1.6 259.2 "></path></clipPath><g clip-path="url(#clip0x7fd040166d80)"><text xml:space="preserve" font-family="CenturyGothic-Bold,Century Gothic" font-weight="bold" font-size="26.0" fill="#000000" transform="matrix(1.00, 0.00, -0.00, -1.00, 24.3, 269.8)">B</text><text xml:space="preserve" font-family="CenturyGothic-Bold,Century Gothic" font-weight="bold" font-size="26.0" fill="#000000" transform="matrix(1.00, 0.00, -0.00, -1.00, 39.4, 269.8)">r</text><text xml:space="preserve" font-family="CenturyGothic-Bold,Century Gothic" font-weight="bold" font-size="26.0" fill="#000000" transform="matrix(1.00, 0.00, -0.00, -1.00, 47.7, 269.8)">i</text><text xml:space="preserve" font-family="CenturyGothic-Bold,Century Gothic" font-weight="bold" font-size="26.0" fill="#000000" transform="matrix(1.00, 0.00, -0.00, -1.00, 53.9, 269.8)">g</text><text xml:space="preserve" font-family="CenturyGothic-Bold,Century Gothic" font-weight="bold" font-size="26.0" fill="#000000" transform="matrix(1.00, 0.00, -0.00, -1.00, 71.1, 269.8)">h</text><text xml:space="preserve" font-family="CenturyGothic-Bold,Century Gothic" font-weight="bold" font-size="26.0" fill="#000000" transform="matrix(1.00, 0.00, -0.00, -1.00, 86.7, 269.8)">t</text></g></g></g></g><g><clipPath id="clip0x7fd03cef1300"><path d="M 0.6 303.0 L 118.2 303.0 L 118.2 258.2 L 0.6 258.2 Z M 0.6 303.0 "></path></clipPath><g clip-path="url(#clip0x7fd03cef1300)"><g><clipPath id="clip0x7fd03cf2db50"><path d="M 0.0 0.0 L 352.0 0.0 L 352.0 468.0 L 0.0 468.0 Z M 0.0 0.0 "></path></clipPath><g clip-path="url(#clip0x7fd03cf2db50)"><path d="M 118.6 122.1 L 118.6 253.7 " fill="none" stroke="#FFFFFF" stroke-width="1.00" stroke-linejoin="bevel" transform="matrix(1.00, 0.00, 0.00, -1.00, -0.9, 468.5)"></path><path d="M 1.5 166.0 L 211.6 166.0 " fill="none" stroke="#FFFFFF" stroke-width="1.00" stroke-linejoin="bevel" transform="matrix(1.00, 0.00, 0.00, -1.00, -0.9, 468.5)"></path><path d="M 1.5 209.8 L 211.6 209.8 " fill="none" stroke="#FFFFFF" stroke-width="1.00" stroke-linejoin="bevel" transform="matrix(1.00, 0.00, 0.00, -1.00, -0.9, 468.5)"></path><path d="M 2.0 122.1 L 2.0 253.7 " fill="none" stroke="#FFFFFF" stroke-width="1.00" stroke-linejoin="bevel" transform="matrix(1.00, 0.00, 0.00, -1.00, -0.9, 468.5)"></path></g></g></g></g><g><clipPath id="clip0x7fd045fed260"><path d="M 0.6 259.2 L 118.2 259.2 L 118.2 214.3 L 0.6 214.3 Z M 0.6 259.2 "></path></clipPath><g clip-path="url(#clip0x7fd045fed260)"><g><clipPath id="clip0x7fd045fece20"><path d="M 0.0 0.0 L 352.0 0.0 L 352.0 468.0 L 0.0 468.0 Z M 0.0 0.0 "></path></clipPath><g clip-path="url(#clip0x7fd045fece20)"><g><g><clipPath id="clip0x7fd045fefc00"><path d="M 0.0 214.0 L 119.0 214.0 L 119.0 260.0 L 0.0 260.0 Z M 0.0 214.0 "></path></clipPath><g clip-path="url(#clip0x7fd045fefc00)"><path d="M 1.1 302.5 L 117.7 302.5 L 117.7 258.7 L 1.1 258.7 Z M 1.1 302.5 " fill="#DEDED1"></path><path d="M 117.7 302.5 L 210.7 302.5 L 210.7 258.7 L 117.7 258.7 Z M 117.7 302.5 " fill="#DDDDDD"></path><path d="M 1.1 258.7 L 117.7 258.7 L 117.7 214.8 L 1.1 214.8 Z M 1.1 258.7 " fill="#DEDED1"></path><path d="M 117.7 258.7 L 210.7 258.7 L 210.7 214.8 L 117.7 214.8 Z M 117.7 258.7 " fill="#DDDDDD"></path><path d="M 1.1 214.8 L 117.7 214.8 L 117.7 177.0 L 1.1 177.0 Z M 1.1 214.8 " fill="#DEDED1"></path><path d="M 117.7 214.8 L 210.7 214.8 L 210.7 177.0 L 117.7 177.0 Z M 117.7 214.8 " fill="#DDDDDD"></path></g></g></g></g></g></g></g><g><clipPath id="clip0x7fd045fef220"><path d="M 0.6 259.2 L 118.2 259.2 L 118.2 214.3 L 0.6 214.3 Z M 0.6 259.2 "></path></clipPath><g clip-path="url(#clip0x7fd045fef220)"><g><clipPath id="clip0x7fd045ff2510"><path d="M 1.6 215.3 L 117.2 215.3 L 117.2 258.2 L 1.6 258.2 Z M 1.6 215.3 "></path></clipPath><g clip-path="url(#clip0x7fd045ff2510)"><text xml:space="preserve" font-family="CenturyGothic-Bold,Century Gothic" font-weight="bold" font-size="26.0" fill="#000000" transform="matrix(1.00, 0.00, -0.00, -1.00, 6.9, 225.9)">C</text><text xml:space="preserve" font-family="CenturyGothic-Bold,Century Gothic" font-weight="bold" font-size="26.0" fill="#000000" transform="matrix(1.00, 0.00, -0.00, -1.00, 27.1, 225.9)">o</text><text xml:space="preserve" font-family="CenturyGothic-Bold,Century Gothic" font-weight="bold" font-size="26.0" fill="#000000" transform="matrix(1.00, 0.00, -0.00, -1.00, 43.8, 225.9)">n</text><text xml:space="preserve" font-family="CenturyGothic-Bold,Century Gothic" font-weight="bold" font-size="26.0" fill="#000000" transform="matrix(1.00, 0.00, -0.00, -1.00, 59.4, 225.9)">t</text><text xml:space="preserve" font-family="CenturyGothic-Bold,Century Gothic" font-weight="bold" font-size="26.0" fill="#000000" transform="matrix(1.00, 0.00, -0.00, -1.00, 67.2, 225.9)">r</text><text xml:space="preserve" font-family="CenturyGothic-Bold,Century Gothic" font-weight="bold" font-size="26.0" fill="#000000" transform="matrix(1.00, 0.00, -0.00, -1.00, 75.5, 225.9)">a</text><text xml:space="preserve" font-family="CenturyGothic-Bold,Century Gothic" font-weight="bold" font-size="26.0" fill="#000000" transform="matrix(1.00, 0.00, -0.00, -1.00, 92.6, 225.9)">s</text><text xml:space="preserve" font-family="CenturyGothic-Bold,Century Gothic" font-weight="bold" font-size="26.0" fill="#000000" transform="matrix(1.00, 0.00, -0.00, -1.00, 104.1, 225.9)">t</text></g></g></g></g><g><clipPath id="clip0x7fd045ff6820"><path d="M 0.6 259.2 L 118.2 259.2 L 118.2 214.3 L 0.6 214.3 Z M 0.6 259.2 "></path></clipPath><g clip-path="url(#clip0x7fd045ff6820)"><g><clipPath id="clip0x7fd045ff6f30"><path d="M 0.0 0.0 L 352.0 0.0 L 352.0 468.0 L 0.0 468.0 Z M 0.0 0.0 "></path></clipPath><g clip-path="url(#clip0x7fd045ff6f30)"><path d="M 118.6 166.0 L 118.6 291.5 " fill="none" stroke="#FFFFFF" stroke-width="1.00" stroke-linejoin="bevel" transform="matrix(1.00, 0.00, 0.00, -1.00, -0.9, 468.5)"></path><path d="M 1.5 209.8 L 211.6 209.8 " fill="none" stroke="#FFFFFF" stroke-width="1.00" stroke-linejoin="bevel" transform="matrix(1.00, 0.00, 0.00, -1.00, -0.9, 468.5)"></path><path d="M 1.5 253.7 L 118.1 253.7 " fill="none" stroke="#FFFFFF" stroke-width="1.00" stroke-linejoin="bevel" transform="matrix(1.00, 0.00, 0.00, -1.00, -0.9, 468.5)"></path><path d="M 118.1 253.7 L 211.6 253.7 " fill="none" stroke="#FFFFFF" stroke-width="3.00" stroke-linejoin="bevel" transform="matrix(1.00, 0.00, 0.00, -1.00, -0.9, 468.5)"></path><path d="M 2.0 166.0 L 2.0 291.5 " fill="none" stroke="#FFFFFF" stroke-width="1.00" stroke-linejoin="bevel" transform="matrix(1.00, 0.00, 0.00, -1.00, -0.9, 468.5)"></path></g></g></g></g><g><clipPath id="clip0x7fd045fba2d0"><path d="M 0.6 215.3 L 118.2 215.3 L 118.2 176.5 L 0.6 176.5 Z M 0.6 215.3 "></path></clipPath><g clip-path="url(#clip0x7fd045fba2d0)"><g><clipPath id="clip0x7fd045fbaa00"><path d="M 0.0 0.0 L 352.0 0.0 L 352.0 468.0 L 0.0 468.0 Z M 0.0 0.0 "></path></clipPath><g clip-path="url(#clip0x7fd045fbaa00)"><g><g><clipPath id="clip0x7fd045fbc320"><path d="M 0.0 176.0 L 119.0 176.0 L 119.0 216.0 L 0.0 216.0 Z M 0.0 176.0 "></path></clipPath><g clip-path="url(#clip0x7fd045fbc320)"><path d="M 1.1 258.7 L 117.7 258.7 L 117.7 214.8 L 1.1 214.8 Z M 1.1 258.7 " fill="#DEDED1"></path><path d="M 117.7 258.7 L 210.7 258.7 L 210.7 214.8 L 117.7 214.8 Z M 117.7 258.7 " fill="#DDDDDD"></path><path d="M 1.1 214.8 L 117.7 214.8 L 117.7 177.0 L 1.1 177.0 Z M 1.1 214.8 " fill="#DEDED1"></path><path d="M 117.7 214.8 L 210.7 214.8 L 210.7 177.0 L 117.7 177.0 Z M 117.7 214.8 " fill="#DDDDDD"></path><path d="M 1.1 177.0 L 117.7 177.0 L 117.7 133.1 L 1.1 133.1 Z M 1.1 177.0 " fill="#DEDED1"></path><path d="M 117.7 177.0 L 210.7 177.0 L 210.7 133.1 L 117.7 133.1 Z M 117.7 177.0 " fill="#B4DBAE"></path></g></g></g></g></g></g></g><g><clipPath id="clip0x7fd045fbb920"><path d="M 0.6 215.3 L 118.2 215.3 L 118.2 176.5 L 0.6 176.5 Z M 0.6 215.3 "></path></clipPath><g clip-path="url(#clip0x7fd045fbb920)"><g><clipPath id="clip0x7fd045fbece0"><path d="M 1.6 177.5 L 117.2 177.5 L 117.2 214.3 L 1.6 214.3 Z M 1.6 177.5 "></path></clipPath><g clip-path="url(#clip0x7fd045fbece0)"><text xml:space="preserve" font-family="CenturyGothic-Bold,Century Gothic" font-weight="bold" font-size="26.0" fill="#000000" transform="matrix(1.00, 0.00, -0.00, -1.00, 28.2, 183.0)">C</text><text xml:space="preserve" font-family="CenturyGothic-Bold,Century Gothic" font-weight="bold" font-size="26.0" fill="#000000" transform="matrix(1.00, 0.00, -0.00, -1.00, 48.5, 183.0)">r</text><text xml:space="preserve" font-family="CenturyGothic-Bold,Century Gothic" font-weight="bold" font-size="26.0" fill="#000000" transform="matrix(1.00, 0.00, -0.00, -1.00, 56.8, 183.0)">o</text><text xml:space="preserve" font-family="CenturyGothic-Bold,Century Gothic" font-weight="bold" font-size="26.0" fill="#000000" transform="matrix(1.00, 0.00, -0.00, -1.00, 73.4, 183.0)">p</text><text xml:space="preserve" font-family="CenturyGothic-Bold,Century Gothic" font-weight="bold" font-size="26.0" fill="#000000" transform="matrix(1.00, 0.00, -0.00, -1.00, 90.6, 183.0)"> </text><text xml:space="preserve" font-family="CenturyGothic-Bold,Century Gothic" font-weight="bold" font-size="26.0" fill="#000000" transform="matrix(1.00, 0.00, -0.00, -1.00, 26.6, 151.0)">s</text><text xml:space="preserve" font-family="CenturyGothic-Bold,Century Gothic" font-weight="bold" font-size="26.0" fill="#000000" transform="matrix(1.00, 0.00, -0.00, -1.00, 38.1, 151.0)">m</text><text xml:space="preserve" font-family="CenturyGothic-Bold,Century Gothic" font-weight="bold" font-size="26.0" fill="#000000" transform="matrix(1.00, 0.00, -0.00, -1.00, 62.5, 151.0)">a</text><text xml:space="preserve" font-family="CenturyGothic-Bold,Century Gothic" font-weight="bold" font-size="26.0" fill="#000000" transform="matrix(1.00, 0.00, -0.00, -1.00, 79.7, 151.0)">l</text><text xml:space="preserve" font-family="CenturyGothic-Bold,Century Gothic" font-weight="bold" font-size="26.0" fill="#000000" transform="matrix(1.00, 0.00, -0.00, -1.00, 85.9, 151.0)">l</text></g></g></g></g><g><clipPath id="clip0x7fd045fbf400"><path d="M 0.6 215.3 L 118.2 215.3 L 118.2 176.5 L 0.6 176.5 Z M 0.6 215.3 "></path></clipPath><g clip-path="url(#clip0x7fd045fbf400)"><g><clipPath id="clip0x7fd045fbfaf0"><path d="M 0.0 0.0 L 352.0 0.0 L 352.0 468.0 L 0.0 468.0 Z M 0.0 0.0 "></path></clipPath><g clip-path="url(#clip0x7fd045fbfaf0)"><path d="M 118.6 209.8 L 118.6 335.4 " fill="none" stroke="#FFFFFF" stroke-width="1.00" stroke-linejoin="bevel" transform="matrix(1.00, 0.00, 0.00, -1.00, -0.9, 468.5)"></path><path d="M 1.5 253.7 L 118.1 253.7 " fill="none" stroke="#FFFFFF" stroke-width="1.00" stroke-linejoin="bevel" transform="matrix(1.00, 0.00, 0.00, -1.00, -0.9, 468.5)"></path><path d="M 118.1 253.7 L 211.6 253.7 " fill="none" stroke="#FFFFFF" stroke-width="3.00" stroke-linejoin="bevel" transform="matrix(1.00, 0.00, 0.00, -1.00, -0.9, 468.5)"></path><path d="M 1.5 291.5 L 118.1 291.5 " fill="none" stroke="#FFFFFF" stroke-width="1.00" stroke-linejoin="bevel" transform="matrix(1.00, 0.00, 0.00, -1.00, -0.9, 468.5)"></path><path d="M 118.1 291.5 L 211.6 291.5 " fill="none" stroke="#FFFFFF" stroke-width="3.00" stroke-linejoin="bevel" transform="matrix(1.00, 0.00, 0.00, -1.00, -0.9, 468.5)"></path><path d="M 2.0 209.8 L 2.0 335.4 " fill="none" stroke="#FFFFFF" stroke-width="1.00" stroke-linejoin="bevel" transform="matrix(1.00, 0.00, 0.00, -1.00, -0.9, 468.5)"></path></g></g></g></g><g><clipPath id="clip0x7fd043a4cb80"><path d="M 0.6 177.5 L 118.2 177.5 L 118.2 132.6 L 0.6 132.6 Z M 0.6 177.5 "></path></clipPath><g clip-path="url(#clip0x7fd043a4cb80)"><g><clipPath id="clip0x7fd041406780"><path d="M 0.0 0.0 L 352.0 0.0 L 352.0 468.0 L 0.0 468.0 Z M 0.0 0.0 "></path></clipPath><g clip-path="url(#clip0x7fd041406780)"><g><g><clipPath id="clip0x7fd043a3d020"><path d="M 0.0 132.0 L 119.0 132.0 L 119.0 178.0 L 0.0 178.0 Z M 0.0 132.0 "></path></clipPath><g clip-path="url(#clip0x7fd043a3d020)"><path d="M 1.1 214.8 L 117.7 214.8 L 117.7 177.0 L 1.1 177.0 Z M 1.1 214.8 " fill="#DEDED1"></path><path d="M 117.7 214.8 L 210.7 214.8 L 210.7 177.0 L 117.7 177.0 Z M 117.7 214.8 " fill="#DDDDDD"></path><path d="M 1.1 177.0 L 117.7 177.0 L 117.7 133.1 L 1.1 133.1 Z M 1.1 177.0 " fill="#DEDED1"></path><path d="M 117.7 177.0 L 210.7 177.0 L 210.7 133.1 L 117.7 133.1 Z M 117.7 177.0 " fill="#B4DBAE"></path><path d="M 1.1 133.1 L 117.7 133.1 L 117.7 89.2 L 1.1 89.2 Z M 1.1 133.1 " fill="#DEDED1"></path><path d="M 117.7 133.1 L 210.7 133.1 L 210.7 89.2 L 117.7 89.2 Z M 117.7 133.1 " fill="#B4DBAE"></path></g></g></g></g></g></g></g><g><clipPath id="clip0x7fd043a4d4d0"><path d="M 0.6 177.5 L 118.2 177.5 L 118.2 132.6 L 0.6 132.6 Z M 0.6 177.5 "></path></clipPath><g clip-path="url(#clip0x7fd043a4d4d0)"><g><clipPath id="clip0x7fd04080f600"><path d="M 1.6 133.6 L 117.2 133.6 L 117.2 176.5 L 1.6 176.5 Z M 1.6 133.6 "></path></clipPath><g clip-path="url(#clip0x7fd04080f600)"><text xml:space="preserve" font-family="CenturyGothic-Bold,Century Gothic" font-weight="bold" font-size="26.0" fill="#000000" transform="matrix(1.00, 0.00, -0.00, -1.00, 28.2, 145.2)">C</text><text xml:space="preserve" font-family="CenturyGothic-Bold,Century Gothic" font-weight="bold" font-size="26.0" fill="#000000" transform="matrix(1.00, 0.00, -0.00, -1.00, 48.5, 145.2)">r</text><text xml:space="preserve" font-family="CenturyGothic-Bold,Century Gothic" font-weight="bold" font-size="26.0" fill="#000000" transform="matrix(1.00, 0.00, -0.00, -1.00, 56.8, 145.2)">o</text><text xml:space="preserve" font-family="CenturyGothic-Bold,Century Gothic" font-weight="bold" font-size="26.0" fill="#000000" transform="matrix(1.00, 0.00, -0.00, -1.00, 73.4, 145.2)">p</text><text xml:space="preserve" font-family="CenturyGothic-Bold,Century Gothic" font-weight="bold" font-size="26.0" fill="#000000" transform="matrix(1.00, 0.00, -0.00, -1.00, 90.6, 145.2)"> </text><text xml:space="preserve" font-family="CenturyGothic-Bold,Century Gothic" font-weight="bold" font-size="26.0" fill="#000000" transform="matrix(1.00, 0.00, -0.00, -1.00, 40.4, 113.2)">l</text><text xml:space="preserve" font-family="CenturyGothic-Bold,Century Gothic" font-weight="bold" font-size="26.0" fill="#000000" transform="matrix(1.00, 0.00, -0.00, -1.00, 46.6, 113.2)">e</text><text xml:space="preserve" font-family="CenturyGothic-Bold,Century Gothic" font-weight="bold" font-size="26.0" fill="#000000" transform="matrix(1.00, 0.00, -0.00, -1.00, 63.3, 113.2)">f</text><text xml:space="preserve" font-family="CenturyGothic-Bold,Century Gothic" font-weight="bold" font-size="26.0" fill="#000000" transform="matrix(1.00, 0.00, -0.00, -1.00, 70.5, 113.2)">t</text></g></g></g></g><g><clipPath id="clip0x7fd043a55750"><path d="M 0.6 177.5 L 118.2 177.5 L 118.2 132.6 L 0.6 132.6 Z M 0.6 177.5 "></path></clipPath><g clip-path="url(#clip0x7fd043a55750)"><g><clipPath id="clip0x7fd043a4f1c0"><path d="M 0.0 0.0 L 352.0 0.0 L 352.0 468.0 L 0.0 468.0 Z M 0.0 0.0 "></path></clipPath><g clip-path="url(#clip0x7fd043a4f1c0)"><path d="M 118.6 253.7 L 118.6 379.3 " fill="none" stroke="#FFFFFF" stroke-width="1.00" stroke-linejoin="bevel" transform="matrix(1.00, 0.00, 0.00, -1.00, -0.9, 468.5)"></path><path d="M 1.5 291.5 L 118.1 291.5 " fill="none" stroke="#FFFFFF" stroke-width="1.00" stroke-linejoin="bevel" transform="matrix(1.00, 0.00, 0.00, -1.00, -0.9, 468.5)"></path><path d="M 118.1 291.5 L 211.6 291.5 " fill="none" stroke="#FFFFFF" stroke-width="3.00" stroke-linejoin="bevel" transform="matrix(1.00, 0.00, 0.00, -1.00, -0.9, 468.5)"></path><path d="M 1.5 335.4 L 118.1 335.4 " fill="none" stroke="#FFFFFF" stroke-width="1.00" stroke-linejoin="bevel" transform="matrix(1.00, 0.00, 0.00, -1.00, -0.9, 468.5)"></path><path d="M 118.1 335.4 L 211.6 335.4 " fill="none" stroke="#FFFFFF" stroke-width="3.00" stroke-linejoin="bevel" transform="matrix(1.00, 0.00, 0.00, -1.00, -0.9, 468.5)"></path><path d="M 2.0 253.7 L 2.0 379.3 " fill="none" stroke="#FFFFFF" stroke-width="1.00" stroke-linejoin="bevel" transform="matrix(1.00, 0.00, 0.00, -1.00, -0.9, 468.5)"></path></g></g></g></g><g><clipPath id="clip0x7fd043a4f0c0"><path d="M 0.6 133.6 L 118.2 133.6 L 118.2 88.7 L 0.6 88.7 Z M 0.6 133.6 "></path></clipPath><g clip-path="url(#clip0x7fd043a4f0c0)"><g><clipPath id="clip0x7fd043a5aa00"><path d="M 0.0 0.0 L 352.0 0.0 L 352.0 468.0 L 0.0 468.0 Z M 0.0 0.0 "></path></clipPath><g clip-path="url(#clip0x7fd043a5aa00)"><g><g><clipPath id="clip0x7fd043a5ff20"><path d="M 0.0 88.0 L 119.0 88.0 L 119.0 134.0 L 0.0 134.0 Z M 0.0 88.0 "></path></clipPath><g clip-path="url(#clip0x7fd043a5ff20)"><path d="M 1.1 177.0 L 117.7 177.0 L 117.7 133.1 L 1.1 133.1 Z M 1.1 177.0 " fill="#DEDED1"></path><path d="M 117.7 177.0 L 210.7 177.0 L 210.7 133.1 L 117.7 133.1 Z M 117.7 177.0 " fill="#B4DBAE"></path><path d="M 1.1 133.1 L 117.7 133.1 L 117.7 89.2 L 1.1 89.2 Z M 1.1 133.1 " fill="#DEDED1"></path><path d="M 117.7 133.1 L 210.7 133.1 L 210.7 89.2 L 117.7 89.2 Z M 117.7 133.1 " fill="#B4DBAE"></path><path d="M 1.1 89.2 L 117.7 89.2 L 117.7 45.4 L 1.1 45.4 Z M 1.1 89.2 " fill="#DEDED1"></path><path d="M 117.7 89.2 L 210.7 89.2 L 210.7 45.4 L 117.7 45.4 Z M 117.7 89.2 " fill="#B4DBAE"></path></g></g></g></g></g></g></g><g><clipPath id="clip0x7fd043a5f530"><path d="M 0.6 133.6 L 118.2 133.6 L 118.2 88.7 L 0.6 88.7 Z M 0.6 133.6 "></path></clipPath><g clip-path="url(#clip0x7fd043a5f530)"><g><clipPath id="clip0x7fd043a62800"><path d="M 1.6 89.7 L 117.2 89.7 L 117.2 132.6 L 1.6 132.6 Z M 1.6 89.7 "></path></clipPath><g clip-path="url(#clip0x7fd043a62800)"><text xml:space="preserve" font-family="CenturyGothic-Bold,Century Gothic" font-weight="bold" font-size="26.0" fill="#000000" transform="matrix(1.00, 0.00, -0.00, -1.00, 18.8, 100.3)">R</text><text xml:space="preserve" font-family="CenturyGothic-Bold,Century Gothic" font-weight="bold" font-size="26.0" fill="#000000" transform="matrix(1.00, 0.00, -0.00, -1.00, 33.9, 100.3)">o</text><text xml:space="preserve" font-family="CenturyGothic-Bold,Century Gothic" font-weight="bold" font-size="26.0" fill="#000000" transform="matrix(1.00, 0.00, -0.00, -1.00, 50.6, 100.3)">t</text><text xml:space="preserve" font-family="CenturyGothic-Bold,Century Gothic" font-weight="bold" font-size="26.0" fill="#000000" transform="matrix(1.00, 0.00, -0.00, -1.00, 58.3, 100.3)">a</text><text xml:space="preserve" font-family="CenturyGothic-Bold,Century Gothic" font-weight="bold" font-size="26.0" fill="#000000" transform="matrix(1.00, 0.00, -0.00, -1.00, 75.5, 100.3)">t</text><text xml:space="preserve" font-family="CenturyGothic-Bold,Century Gothic" font-weight="bold" font-size="26.0" fill="#000000" transform="matrix(1.00, 0.00, -0.00, -1.00, 83.3, 100.3)">e</text></g></g></g></g><g><clipPath id="clip0x7fd043a65b00"><path d="M 0.6 133.6 L 118.2 133.6 L 118.2 88.7 L 0.6 88.7 Z M 0.6 133.6 "></path></clipPath><g clip-path="url(#clip0x7fd043a65b00)"><g><clipPath id="clip0x7fd043a66230"><path d="M 0.0 0.0 L 352.0 0.0 L 352.0 468.0 L 0.0 468.0 Z M 0.0 0.0 "></path></clipPath><g clip-path="url(#clip0x7fd043a66230)"><path d="M 118.6 291.5 L 118.6 423.1 " fill="none" stroke="#FFFFFF" stroke-width="1.00" stroke-linejoin="bevel" transform="matrix(1.00, 0.00, 0.00, -1.00, -0.9, 468.5)"></path><path d="M 1.5 335.4 L 118.1 335.4 " fill="none" stroke="#FFFFFF" stroke-width="1.00" stroke-linejoin="bevel" transform="matrix(1.00, 0.00, 0.00, -1.00, -0.9, 468.5)"></path><path d="M 118.1 335.4 L 211.6 335.4 " fill="none" stroke="#FFFFFF" stroke-width="3.00" stroke-linejoin="bevel" transform="matrix(1.00, 0.00, 0.00, -1.00, -0.9, 468.5)"></path><path d="M 1.5 379.3 L 118.1 379.3 " fill="none" stroke="#FFFFFF" stroke-width="1.00" stroke-linejoin="bevel" transform="matrix(1.00, 0.00, 0.00, -1.00, -0.9, 468.5)"></path><path d="M 118.1 379.3 L 211.6 379.3 " fill="none" stroke="#FFFFFF" stroke-width="3.00" stroke-linejoin="bevel" transform="matrix(1.00, 0.00, 0.00, -1.00, -0.9, 468.5)"></path><path d="M 2.0 291.5 L 2.0 423.1 " fill="none" stroke="#FFFFFF" stroke-width="1.00" stroke-linejoin="bevel" transform="matrix(1.00, 0.00, 0.00, -1.00, -0.9, 468.5)"></path></g></g></g></g><g><clipPath id="clip0x7fd043a698c0"><path d="M 0.6 89.7 L 118.2 89.7 L 118.2 44.9 L 0.6 44.9 Z M 0.6 89.7 "></path></clipPath><g clip-path="url(#clip0x7fd043a698c0)"><g><clipPath id="clip0x7fd043a69ff0"><path d="M 0.0 0.0 L 352.0 0.0 L 352.0 468.0 L 0.0 468.0 Z M 0.0 0.0 "></path></clipPath><g clip-path="url(#clip0x7fd043a69ff0)"><g><g><clipPath id="clip0x7fd043a6b8d0"><path d="M 0.0 44.0 L 119.0 44.0 L 119.0 90.0 L 0.0 90.0 Z M 0.0 44.0 "></path></clipPath><g clip-path="url(#clip0x7fd043a6b8d0)"><path d="M 1.1 133.1 L 117.7 133.1 L 117.7 89.2 L 1.1 89.2 Z M 1.1 133.1 " fill="#DEDED1"></path><path d="M 117.7 133.1 L 210.7 133.1 L 210.7 89.2 L 117.7 89.2 Z M 117.7 133.1 " fill="#B4DBAE"></path><path d="M 1.1 89.2 L 117.7 89.2 L 117.7 45.4 L 1.1 45.4 Z M 1.1 89.2 " fill="#DEDED1"></path><path d="M 117.7 89.2 L 210.7 89.2 L 210.7 45.4 L 117.7 45.4 Z M 117.7 89.2 " fill="#B4DBAE"></path><path d="M 1.1 45.4 L 117.7 45.4 L 117.7 1.5 L 1.1 1.5 Z M 1.1 45.4 " fill="#DEDED1"></path><path d="M 117.7 45.4 L 210.7 45.4 L 210.7 1.5 L 117.7 1.5 Z M 117.7 45.4 " fill="#DDDDDD"></path></g></g></g></g></g></g></g><g><clipPath id="clip0x7fd043a6aee0"><path d="M 0.6 89.7 L 118.2 89.7 L 118.2 44.9 L 0.6 44.9 Z M 0.6 89.7 "></path></clipPath><g clip-path="url(#clip0x7fd043a6aee0)"><g><clipPath id="clip0x7fd043a6e110"><path d="M 1.6 45.9 L 117.2 45.9 L 117.2 88.7 L 1.6 88.7 Z M 1.6 45.9 "></path></clipPath><g clip-path="url(#clip0x7fd043a6e110)"><text xml:space="preserve" font-family="CenturyGothic-Bold,Century Gothic" font-weight="bold" font-size="26.0" fill="#000000" transform="matrix(1.00, 0.00, -0.00, -1.00, 23.3, 56.4)">A</text><text xml:space="preserve" font-family="CenturyGothic-Bold,Century Gothic" font-weight="bold" font-size="26.0" fill="#000000" transform="matrix(1.00, 0.00, -0.00, -1.00, 42.5, 56.4)">f</text><text xml:space="preserve" font-family="CenturyGothic-Bold,Century Gothic" font-weight="bold" font-size="26.0" fill="#000000" transform="matrix(1.00, 0.00, -0.00, -1.00, 49.7, 56.4)">f</text><text xml:space="preserve" font-family="CenturyGothic-Bold,Century Gothic" font-weight="bold" font-size="26.0" fill="#000000" transform="matrix(1.00, 0.00, -0.00, -1.00, 57.0, 56.4)">i</text><text xml:space="preserve" font-family="CenturyGothic-Bold,Century Gothic" font-weight="bold" font-size="26.0" fill="#000000" transform="matrix(1.00, 0.00, -0.00, -1.00, 63.2, 56.4)">n</text><text xml:space="preserve" font-family="CenturyGothic-Bold,Century Gothic" font-weight="bold" font-size="26.0" fill="#000000" transform="matrix(1.00, 0.00, -0.00, -1.00, 78.8, 56.4)">e</text></g></g></g></g><g><clipPath id="clip0x7fd043a71640"><path d="M 0.6 89.7 L 118.2 89.7 L 118.2 44.9 L 0.6 44.9 Z M 0.6 89.7 "></path></clipPath><g clip-path="url(#clip0x7fd043a71640)"><g><clipPath id="clip0x7fd043a71ec0"><path d="M 0.0 0.0 L 352.0 0.0 L 352.0 468.0 L 0.0 468.0 Z M 0.0 0.0 "></path></clipPath><g clip-path="url(#clip0x7fd043a71ec0)"><path d="M 118.6 335.4 L 118.6 467.0 " fill="none" stroke="#FFFFFF" stroke-width="1.00" stroke-linejoin="bevel" transform="matrix(1.00, 0.00, 0.00, -1.00, -0.9, 468.5)"></path><path d="M 1.5 379.3 L 118.1 379.3 " fill="none" stroke="#FFFFFF" stroke-width="1.00" stroke-linejoin="bevel" transform="matrix(1.00, 0.00, 0.00, -1.00, -0.9, 468.5)"></path><path d="M 118.1 379.3 L 211.6 379.3 " fill="none" stroke="#FFFFFF" stroke-width="3.00" stroke-linejoin="bevel" transform="matrix(1.00, 0.00, 0.00, -1.00, -0.9, 468.5)"></path><path d="M 1.5 423.1 L 211.6 423.1 " fill="none" stroke="#FFFFFF" stroke-width="1.00" stroke-linejoin="bevel" transform="matrix(1.00, 0.00, 0.00, -1.00, -0.9, 468.5)"></path><path d="M 2.0 335.4 L 2.0 467.0 " fill="none" stroke="#FFFFFF" stroke-width="1.00" stroke-linejoin="bevel" transform="matrix(1.00, 0.00, 0.00, -1.00, -0.9, 468.5)"></path></g></g></g></g><g><clipPath id="clip0x7fd043a74d90"><path d="M 0.6 45.9 L 118.2 45.9 L 118.2 1.0 L 0.6 1.0 Z M 0.6 45.9 "></path></clipPath><g clip-path="url(#clip0x7fd043a74d90)"><g><clipPath id="clip0x7fd043a754c0"><path d="M 0.0 0.0 L 352.0 0.0 L 352.0 468.0 L 0.0 468.0 Z M 0.0 0.0 "></path></clipPath><g clip-path="url(#clip0x7fd043a754c0)"><g><g><clipPath id="clip0x7fd043a76d80"><path d="M 0.0 0.0 L 119.0 0.0 L 119.0 46.0 L 0.0 46.0 Z M 0.0 0.0 "></path></clipPath><g clip-path="url(#clip0x7fd043a76d80)"><path d="M 1.1 89.2 L 117.7 89.2 L 117.7 45.4 L 1.1 45.4 Z M 1.1 89.2 " fill="#DEDED1"></path><path d="M 117.7 89.2 L 210.7 89.2 L 210.7 45.4 L 117.7 45.4 Z M 117.7 89.2 " fill="#B4DBAE"></path><path d="M 1.1 45.4 L 117.7 45.4 L 117.7 1.5 L 1.1 1.5 Z M 1.1 45.4 " fill="#DEDED1"></path><path d="M 117.7 45.4 L 210.7 45.4 L 210.7 1.5 L 117.7 1.5 Z M 117.7 45.4 " fill="#DDDDDD"></path></g></g></g></g></g></g></g><g><clipPath id="clip0x7fd043a763b0"><path d="M 0.6 45.9 L 118.2 45.9 L 118.2 1.0 L 0.6 1.0 Z M 0.6 45.9 "></path></clipPath><g clip-path="url(#clip0x7fd043a763b0)"><g><clipPath id="clip0x7fd043a78ae0"><path d="M 1.6 2.0 L 117.2 2.0 L 117.2 44.9 L 1.6 44.9 Z M 1.6 2.0 "></path></clipPath><g clip-path="url(#clip0x7fd043a78ae0)"><text xml:space="preserve" font-family="CenturyGothic-Bold,Century Gothic" font-weight="bold" font-size="26.0" fill="#000000" transform="matrix(1.00, 0.00, -0.00, -1.00, 21.2, 12.6)">L</text><text xml:space="preserve" font-family="CenturyGothic-Bold,Century Gothic" font-weight="bold" font-size="26.0" fill="#000000" transform="matrix(1.00, 0.00, -0.00, -1.00, 32.6, 12.6)">e</text><text xml:space="preserve" font-family="CenturyGothic-Bold,Century Gothic" font-weight="bold" font-size="26.0" fill="#000000" transform="matrix(1.00, 0.00, -0.00, -1.00, 49.2, 12.6)">n</text><text xml:space="preserve" font-family="CenturyGothic-Bold,Century Gothic" font-weight="bold" font-size="26.0" fill="#000000" transform="matrix(1.00, 0.00, -0.00, -1.00, 64.8, 12.6)">n</text><text xml:space="preserve" font-family="CenturyGothic-Bold,Century Gothic" font-weight="bold" font-size="26.0" fill="#000000" transform="matrix(1.00, 0.00, -0.00, -1.00, 80.4, 12.6)">a</text></g></g></g></g><g><clipPath id="clip0x7fd043a7b960"><path d="M 0.6 45.9 L 118.2 45.9 L 118.2 1.0 L 0.6 1.0 Z M 0.6 45.9 "></path></clipPath><g clip-path="url(#clip0x7fd043a7b960)"><g><clipPath id="clip0x7fd043a7c090"><path d="M 0.0 0.0 L 352.0 0.0 L 352.0 468.0 L 0.0 468.0 Z M 0.0 0.0 "></path></clipPath><g clip-path="url(#clip0x7fd043a7c090)"><path d="M 118.6 379.3 L 118.6 467.5 " fill="none" stroke="#FFFFFF" stroke-width="1.00" stroke-linejoin="bevel" transform="matrix(1.00, 0.00, 0.00, -1.00, -0.9, 468.5)"></path><path d="M 1.5 423.1 L 211.6 423.1 " fill="none" stroke="#FFFFFF" stroke-width="1.00" stroke-linejoin="bevel" transform="matrix(1.00, 0.00, 0.00, -1.00, -0.9, 468.5)"></path><path d="M 2.0 379.3 L 2.0 467.5 " fill="none" stroke="#FFFFFF" stroke-width="1.00" stroke-linejoin="bevel" transform="matrix(1.00, 0.00, 0.00, -1.00, -0.9, 468.5)"></path><path d="M 1.5 467.0 L 211.6 467.0 " fill="none" stroke="#FFFFFF" stroke-width="1.00" stroke-linejoin="bevel" transform="matrix(1.00, 0.00, 0.00, -1.00, -0.9, 468.5)"></path></g></g></g></g></g></g></svg>