<?xml version="1.0" encoding="UTF-8" standalone="no"?><svg xmlns="http://www.w3.org/2000/svg" xmlns:xlink="http://www.w3.org/1999/xlink" clip-rule="evenodd" stroke-miterlimit="10" viewBox="0 0 143 468"><desc>SVG generated by Keynote</desc><defs></defs><g transform="matrix(1.00, 0.00, -0.00, -1.00, 0.0, 468.0)"><g><g><clipPath id="clip0x7fd041a91350"><path d="M 1.2 467.0 L 142.3 467.0 L 142.3 388.8 L 1.2 388.8 Z M 1.2 467.0 "></path></clipPath><g clip-path="url(#clip0x7fd041a91350)"><g><clipPath id="clip0x7fd041a91ac0"><path d="M 0.0 0.0 L 143.0 0.0 L 143.0 468.0 L 0.0 468.0 Z M 0.0 0.0 "></path></clipPath><g clip-path="url(#clip0x7fd041a91ac0)"><g><g><clipPath id="clip0x7fd041a933c0"><path d="M 1.0 388.0 L 143.0 388.0 L 143.0 467.0 L 1.0 467.0 Z M 1.0 388.0 "></path></clipPath><g clip-path="url(#clip0x7fd041a933c0)"><path d="M -207.9 466.5 L 1.7 466.5 L 1.7 390.3 L -207.9 390.3 Z M -207.9 466.5 " fill="#DEDED1"></path><path d="M 1.7 466.5 L 141.8 466.5 L 141.8 390.3 L 1.7 390.3 Z M 1.7 466.5 " fill="#DEDED1"></path><path d="M -91.3 390.3 L 1.7 390.3 L 1.7 346.4 L -91.3 346.4 Z M -91.3 390.3 " fill="#B4DBAE"></path><path d="M 1.7 390.3 L 141.8 390.3 L 141.8 346.4 L 1.7 346.4 Z M 1.7 390.3 " fill="#B4DBAE"></path></g></g></g></g></g></g></g><g><clipPath id="clip0x7fd041a929d0"><path d="M 1.2 467.0 L 142.3 467.0 L 142.3 388.8 L 1.2 388.8 Z M 1.2 467.0 "></path></clipPath><g clip-path="url(#clip0x7fd041a929d0)"><g><clipPath id="clip0x7fd041a95350"><path d="M 2.2 391.8 L 141.3 391.8 L 141.3 466.0 L 2.2 466.0 Z M 2.2 391.8 "></path></clipPath><g clip-path="url(#clip0x7fd041a95350)"><text xml:space="preserve" font-family="CenturyGothic-Bold,Century Gothic" font-weight="bold" font-size="26.0" fill="#000000" transform="matrix(1.00, 0.00, -0.00, -1.00, 10.9, 418.7)">E</text><text xml:space="preserve" font-family="CenturyGothic-Bold,Century Gothic" font-weight="bold" font-size="26.0" fill="#000000" transform="matrix(1.00, 0.00, -0.00, -1.00, 24.4, 418.7)">q</text><text xml:space="preserve" font-family="CenturyGothic-Bold,Century Gothic" font-weight="bold" font-size="26.0" fill="#000000" transform="matrix(1.00, 0.00, -0.00, -1.00, 41.6, 418.7)">u</text><text xml:space="preserve" font-family="CenturyGothic-Bold,Century Gothic" font-weight="bold" font-size="26.0" fill="#000000" transform="matrix(1.00, 0.00, -0.00, -1.00, 57.2, 418.7)">a</text><text xml:space="preserve" font-family="CenturyGothic-Bold,Century Gothic" font-weight="bold" font-size="26.0" fill="#000000" transform="matrix(1.00, 0.00, -0.00, -1.00, 74.4, 418.7)">l</text><text xml:space="preserve" font-family="CenturyGothic-Bold,Century Gothic" font-weight="bold" font-size="26.0" fill="#000000" transform="matrix(1.00, 0.00, -0.00, -1.00, 80.6, 418.7)">i</text><text xml:space="preserve" font-family="CenturyGothic-Bold,Century Gothic" font-weight="bold" font-size="26.0" fill="#000000" transform="matrix(1.00, 0.00, -0.00, -1.00, 86.8, 418.7)">z</text><text xml:space="preserve" font-family="CenturyGothic-Bold,Century Gothic" font-weight="bold" font-size="26.0" fill="#000000" transform="matrix(1.00, 0.00, -0.00, -1.00, 98.8, 418.7)">e</text><text xml:space="preserve" font-family="CenturyGothic-Bold,Century Gothic" font-weight="bold" font-size="26.0" fill="#000000" transform="matrix(1.00, 0.00, -0.00, -1.00, 115.4, 418.7)">d</text></g></g></g></g><g><clipPath id="clip0x7fd041a9aa60"><path d="M 1.2 467.0 L 142.3 467.0 L 142.3 388.8 L 1.2 388.8 Z M 1.2 467.0 "></path></clipPath><g clip-path="url(#clip0x7fd041a9aa60)"><g><clipPath id="clip0x7fd041a9b1d0"><path d="M 0.0 0.0 L 143.0 0.0 L 143.0 468.0 L 0.0 468.0 Z M 0.0 0.0 "></path></clipPath><g clip-path="url(#clip0x7fd041a9b1d0)"><path d="M 211.6 1.5 L 211.6 122.1 " fill="none" stroke="#FFFFFF" stroke-width="1.00" stroke-linejoin="bevel" transform="matrix(1.00, 0.00, 0.00, -1.00, -209.9, 468.5)"></path><path d="M 118.6 78.2 L 352.3 78.2 " fill="none" stroke="#FFFFFF" stroke-width="3.00" stroke-linejoin="bevel" transform="matrix(1.00, 0.00, 0.00, -1.00, -209.9, 468.5)"></path><path d="M 351.8 1.5 L 351.8 122.1 " fill="none" stroke="#FFFFFF" stroke-width="1.00" stroke-linejoin="bevel" transform="matrix(1.00, 0.00, 0.00, -1.00, -209.9, 468.5)"></path><path d="M 118.6 2.0 L 352.3 2.0 " fill="none" stroke="#FFFFFF" stroke-width="1.00" stroke-linejoin="bevel" transform="matrix(1.00, 0.00, 0.00, -1.00, -209.9, 468.5)"></path></g></g></g></g><g><clipPath id="clip0x7fd041a9d9c0"><path d="M 1.2 391.8 L 142.3 391.8 L 142.3 345.9 L 1.2 345.9 Z M 1.2 391.8 "></path></clipPath><g clip-path="url(#clip0x7fd041a9d9c0)"><g><clipPath id="clip0x7fd041a9e0f0"><path d="M 0.0 0.0 L 143.0 0.0 L 143.0 468.0 L 0.0 468.0 Z M 0.0 0.0 "></path></clipPath><g clip-path="url(#clip0x7fd041a9e0f0)"><g><g><clipPath id="clip0x7fd041a9f980"><path d="M 1.0 345.0 L 143.0 345.0 L 143.0 392.0 L 1.0 392.0 Z M 1.0 345.0 "></path></clipPath><g clip-path="url(#clip0x7fd041a9f980)"><path d="M -207.9 466.5 L 1.7 466.5 L 1.7 390.3 L -207.9 390.3 Z M -207.9 466.5 " fill="#DEDED1"></path><path d="M 1.7 466.5 L 141.8 466.5 L 141.8 390.3 L 1.7 390.3 Z M 1.7 466.5 " fill="#DEDED1"></path><path d="M -91.3 390.3 L 1.7 390.3 L 1.7 346.4 L -91.3 346.4 Z M -91.3 390.3 " fill="#B4DBAE"></path><path d="M 1.7 390.3 L 141.8 390.3 L 141.8 346.4 L 1.7 346.4 Z M 1.7 390.3 " fill="#B4DBAE"></path><path d="M -91.3 346.4 L 1.7 346.4 L 1.7 302.5 L -91.3 302.5 Z M -91.3 346.4 " fill="#B4DBAE"></path><path d="M 1.7 346.4 L 141.8 346.4 L 141.8 302.5 L 1.7 302.5 Z M 1.7 346.4 " fill="#B4DBAE"></path></g></g></g></g></g></g></g><g><clipPath id="clip0x7fd041a9ef80"><path d="M 1.2 391.8 L 142.3 391.8 L 142.3 345.9 L 1.2 345.9 Z M 1.2 391.8 "></path></clipPath><g clip-path="url(#clip0x7fd041a9ef80)"><g><clipPath id="clip0x7fd041aa1e70"><path d="M 2.2 346.9 L 141.3 346.9 L 141.3 388.8 L 2.2 388.8 Z M 2.2 346.9 "></path></clipPath><g clip-path="url(#clip0x7fd041aa1e70)"><text xml:space="preserve" font-family="CenturyGothic-Bold,Century Gothic" font-weight="bold" font-size="26.0" fill="#000000" transform="matrix(1.00, 0.00, -0.00, -1.00, 39.0, 357.5)">0</text><text xml:space="preserve" font-family="CenturyGothic-Bold,Century Gothic" font-weight="bold" font-size="26.0" fill="#000000" transform="matrix(1.00, 0.00, -0.00, -1.00, 53.6, 357.5)">.</text><text xml:space="preserve" font-family="CenturyGothic-Bold,Century Gothic" font-weight="bold" font-size="26.0" fill="#000000" transform="matrix(1.00, 0.00, -0.00, -1.00, 60.8, 357.5)">0</text><text xml:space="preserve" font-family="CenturyGothic-Bold,Century Gothic" font-weight="bold" font-size="26.0" fill="#000000" transform="matrix(1.00, 0.00, -0.00, -1.00, 75.4, 357.5)">8</text><text xml:space="preserve" font-family="CenturyGothic-Bold,Century Gothic" font-weight="bold" font-size="26.0" fill="#000000" transform="matrix(1.00, 0.00, -0.00, -1.00, 90.0, 357.5)">8</text></g></g></g></g><g><clipPath id="clip0x7fd041a8fe90"><path d="M 1.2 391.8 L 142.3 391.8 L 142.3 345.9 L 1.2 345.9 Z M 1.2 391.8 "></path></clipPath><g clip-path="url(#clip0x7fd041a8fe90)"><g><clipPath id="clip0x7fd041a9e530"><path d="M 0.0 0.0 L 143.0 0.0 L 143.0 468.0 L 0.0 468.0 Z M 0.0 0.0 "></path></clipPath><g clip-path="url(#clip0x7fd041a9e530)"><path d="M 211.6 2.0 L 211.6 122.1 " fill="none" stroke="#FFFFFF" stroke-width="1.00" stroke-linejoin="bevel" transform="matrix(1.00, 0.00, 0.00, -1.00, -209.9, 468.5)"></path><path d="M 211.6 122.1 L 211.6 166.0 " fill="none" stroke="#FFFFFF" stroke-width="1.00" stroke-linejoin="bevel" transform="matrix(1.00, 0.00, 0.00, -1.00, -209.9, 468.5)"></path><path d="M 118.6 78.2 L 352.3 78.2 " fill="none" stroke="#FFFFFF" stroke-width="3.00" stroke-linejoin="bevel" transform="matrix(1.00, 0.00, 0.00, -1.00, -209.9, 468.5)"></path><path d="M 118.6 122.1 L 352.3 122.1 " fill="none" stroke="#FFFFFF" stroke-width="1.00" stroke-linejoin="bevel" transform="matrix(1.00, 0.00, 0.00, -1.00, -209.9, 468.5)"></path><path d="M 351.8 2.0 L 351.8 122.1 " fill="none" stroke="#FFFFFF" stroke-width="1.00" stroke-linejoin="bevel" transform="matrix(1.00, 0.00, 0.00, -1.00, -209.9, 468.5)"></path><path d="M 351.8 122.1 L 351.8 166.0 " fill="none" stroke="#FFFFFF" stroke-width="1.00" stroke-linejoin="bevel" transform="matrix(1.00, 0.00, 0.00, -1.00, -209.9, 468.5)"></path></g></g></g></g><g><clipPath id="clip0x7fd041a853c0"><path d="M 1.2 346.9 L 142.3 346.9 L 142.3 301.0 L 1.2 301.0 Z M 1.2 346.9 "></path></clipPath><g clip-path="url(#clip0x7fd041a853c0)"><g><clipPath id="clip0x7fd041a85b20"><path d="M 0.0 0.0 L 143.0 0.0 L 143.0 468.0 L 0.0 468.0 Z M 0.0 0.0 "></path></clipPath><g clip-path="url(#clip0x7fd041a85b20)"><g><g><clipPath id="clip0x7fd041a87420"><path d="M 1.0 301.0 L 143.0 301.0 L 143.0 347.0 L 1.0 347.0 Z M 1.0 301.0 "></path></clipPath><g clip-path="url(#clip0x7fd041a87420)"><path d="M -91.3 390.3 L 1.7 390.3 L 1.7 346.4 L -91.3 346.4 Z M -91.3 390.3 " fill="#B4DBAE"></path><path d="M 1.7 390.3 L 141.8 390.3 L 141.8 346.4 L 1.7 346.4 Z M 1.7 390.3 " fill="#B4DBAE"></path><path d="M -91.3 346.4 L 1.7 346.4 L 1.7 302.5 L -91.3 302.5 Z M -91.3 346.4 " fill="#B4DBAE"></path><path d="M 1.7 346.4 L 141.8 346.4 L 141.8 302.5 L 1.7 302.5 Z M 1.7 346.4 " fill="#B4DBAE"></path><path d="M -91.3 302.5 L 1.7 302.5 L 1.7 258.7 L -91.3 258.7 Z M -91.3 302.5 " fill="#DDDDDD"></path><path d="M 1.7 302.5 L 141.8 302.5 L 141.8 258.7 L 1.7 258.7 Z M 1.7 302.5 " fill="#B4DBAE"></path></g></g></g></g></g></g></g><g><clipPath id="clip0x7fd041a868e0"><path d="M 1.2 346.9 L 142.3 346.9 L 142.3 301.0 L 1.2 301.0 Z M 1.2 346.9 "></path></clipPath><g clip-path="url(#clip0x7fd041a868e0)"><g><clipPath id="clip0x7fd041a89c20"><path d="M 2.2 304.0 L 141.3 304.0 L 141.3 345.9 L 2.2 345.9 Z M 2.2 304.0 "></path></clipPath><g clip-path="url(#clip0x7fd041a89c20)"><text xml:space="preserve" font-family="CenturyGothic-Bold,Century Gothic" font-weight="bold" font-size="26.0" fill="#000000" transform="matrix(1.00, 0.00, -0.00, -1.00, 39.0, 314.6)">0</text><text xml:space="preserve" font-family="CenturyGothic-Bold,Century Gothic" font-weight="bold" font-size="26.0" fill="#000000" transform="matrix(1.00, 0.00, -0.00, -1.00, 53.6, 314.6)">.</text><text xml:space="preserve" font-family="CenturyGothic-Bold,Century Gothic" font-weight="bold" font-size="26.0" fill="#000000" transform="matrix(1.00, 0.00, -0.00, -1.00, 60.8, 314.6)">0</text><text xml:space="preserve" font-family="CenturyGothic-Bold,Century Gothic" font-weight="bold" font-size="26.0" fill="#000000" transform="matrix(1.00, 0.00, -0.00, -1.00, 75.4, 314.6)">5</text><text xml:space="preserve" font-family="CenturyGothic-Bold,Century Gothic" font-weight="bold" font-size="26.0" fill="#000000" transform="matrix(1.00, 0.00, -0.00, -1.00, 90.0, 314.6)">4</text></g></g></g></g><g><clipPath id="clip0x7fd041a8cad0"><path d="M 1.2 346.9 L 142.3 346.9 L 142.3 301.0 L 1.2 301.0 Z M 1.2 346.9 "></path></clipPath><g clip-path="url(#clip0x7fd041a8cad0)"><g><clipPath id="clip0x7fd041a8d200"><path d="M 0.0 0.0 L 143.0 0.0 L 143.0 468.0 L 0.0 468.0 Z M 0.0 0.0 "></path></clipPath><g clip-path="url(#clip0x7fd041a8d200)"><path d="M 211.6 78.2 L 211.6 122.1 " fill="none" stroke="#FFFFFF" stroke-width="1.00" stroke-linejoin="bevel" transform="matrix(1.00, 0.00, 0.00, -1.00, -209.9, 468.5)"></path><path d="M 211.6 122.1 L 211.6 209.8 " fill="none" stroke="#FFFFFF" stroke-width="1.00" stroke-linejoin="bevel" transform="matrix(1.00, 0.00, 0.00, -1.00, -209.9, 468.5)"></path><path d="M 118.6 166.0 L 211.1 166.0 " fill="none" stroke="#FFFFFF" stroke-width="1.00" stroke-linejoin="bevel" transform="matrix(1.00, 0.00, 0.00, -1.00, -209.9, 468.5)"></path><path d="M 211.1 166.0 L 352.3 166.0 " fill="none" stroke="#FFFFFF" stroke-width="3.00" stroke-linejoin="bevel" transform="matrix(1.00, 0.00, 0.00, -1.00, -209.9, 468.5)"></path><path d="M 118.6 122.1 L 352.3 122.1 " fill="none" stroke="#FFFFFF" stroke-width="1.00" stroke-linejoin="bevel" transform="matrix(1.00, 0.00, 0.00, -1.00, -209.9, 468.5)"></path><path d="M 351.8 78.2 L 351.8 122.1 " fill="none" stroke="#FFFFFF" stroke-width="1.00" stroke-linejoin="bevel" transform="matrix(1.00, 0.00, 0.00, -1.00, -209.9, 468.5)"></path><path d="M 351.8 122.1 L 351.8 209.8 " fill="none" stroke="#FFFFFF" stroke-width="1.00" stroke-linejoin="bevel" transform="matrix(1.00, 0.00, 0.00, -1.00, -209.9, 468.5)"></path></g></g></g></g><g><clipPath id="clip0x7fd041a684f0"><path d="M 1.2 304.0 L 142.3 304.0 L 142.3 257.2 L 1.2 257.2 Z M 1.2 304.0 "></path></clipPath><g clip-path="url(#clip0x7fd041a684f0)"><g><clipPath id="clip0x7fd041a68c00"><path d="M 0.0 0.0 L 143.0 0.0 L 143.0 468.0 L 0.0 468.0 Z M 0.0 0.0 "></path></clipPath><g clip-path="url(#clip0x7fd041a68c00)"><g><g><clipPath id="clip0x7fd041a6a510"><path d="M 1.0 257.0 L 143.0 257.0 L 143.0 305.0 L 1.0 305.0 Z M 1.0 257.0 "></path></clipPath><g clip-path="url(#clip0x7fd041a6a510)"><path d="M -91.3 346.4 L 1.7 346.4 L 1.7 302.5 L -91.3 302.5 Z M -91.3 346.4 " fill="#B4DBAE"></path><path d="M 1.7 346.4 L 141.8 346.4 L 141.8 302.5 L 1.7 302.5 Z M 1.7 346.4 " fill="#B4DBAE"></path><path d="M -91.3 302.5 L 1.7 302.5 L 1.7 258.7 L -91.3 258.7 Z M -91.3 302.5 " fill="#DDDDDD"></path><path d="M 1.7 302.5 L 141.8 302.5 L 141.8 258.7 L 1.7 258.7 Z M 1.7 302.5 " fill="#B4DBAE"></path><path d="M -91.3 258.7 L 1.7 258.7 L 1.7 214.8 L -91.3 214.8 Z M -91.3 258.7 " fill="#DDDDDD"></path><path d="M 1.7 258.7 L 141.8 258.7 L 141.8 214.8 L 1.7 214.8 Z M 1.7 258.7 " fill="#B4DBAE"></path></g></g></g></g></g></g></g><g><clipPath id="clip0x7fd041a69b20"><path d="M 1.2 304.0 L 142.3 304.0 L 142.3 257.2 L 1.2 257.2 Z M 1.2 304.0 "></path></clipPath><g clip-path="url(#clip0x7fd041a69b20)"><g><clipPath id="clip0x7fd041a6cde0"><path d="M 2.2 260.2 L 141.3 260.2 L 141.3 301.0 L 2.2 301.0 Z M 2.2 260.2 "></path></clipPath><g clip-path="url(#clip0x7fd041a6cde0)"><text xml:space="preserve" font-family="CenturyGothic-Bold,Century Gothic" font-weight="bold" font-size="26.0" fill="#000000" transform="matrix(1.00, 0.00, -0.00, -1.00, 46.3, 269.8)">0</text><text xml:space="preserve" font-family="CenturyGothic-Bold,Century Gothic" font-weight="bold" font-size="26.0" fill="#000000" transform="matrix(1.00, 0.00, -0.00, -1.00, 60.8, 269.8)">.</text><text xml:space="preserve" font-family="CenturyGothic-Bold,Century Gothic" font-weight="bold" font-size="26.0" fill="#000000" transform="matrix(1.00, 0.00, -0.00, -1.00, 68.1, 269.8)">2</text><text xml:space="preserve" font-family="CenturyGothic-Bold,Century Gothic" font-weight="bold" font-size="26.0" fill="#000000" transform="matrix(1.00, 0.00, -0.00, -1.00, 82.7, 269.8)">7</text></g></g></g></g><g><clipPath id="clip0x7fd041a6f5c0"><path d="M 1.2 304.0 L 142.3 304.0 L 142.3 257.2 L 1.2 257.2 Z M 1.2 304.0 "></path></clipPath><g clip-path="url(#clip0x7fd041a6f5c0)"><g><clipPath id="clip0x7fd041a6fcf0"><path d="M 0.0 0.0 L 143.0 0.0 L 143.0 468.0 L 0.0 468.0 Z M 0.0 0.0 "></path></clipPath><g clip-path="url(#clip0x7fd041a6fcf0)"><path d="M 211.6 122.1 L 211.6 253.7 " fill="none" stroke="#FFFFFF" stroke-width="1.00" stroke-linejoin="bevel" transform="matrix(1.00, 0.00, 0.00, -1.00, -209.9, 468.5)"></path><path d="M 118.6 166.0 L 211.1 166.0 " fill="none" stroke="#FFFFFF" stroke-width="1.00" stroke-linejoin="bevel" transform="matrix(1.00, 0.00, 0.00, -1.00, -209.9, 468.5)"></path><path d="M 211.1 166.0 L 352.3 166.0 " fill="none" stroke="#FFFFFF" stroke-width="3.00" stroke-linejoin="bevel" transform="matrix(1.00, 0.00, 0.00, -1.00, -209.9, 468.5)"></path><path d="M 118.6 209.8 L 211.1 209.8 " fill="none" stroke="#FFFFFF" stroke-width="1.00" stroke-linejoin="bevel" transform="matrix(1.00, 0.00, 0.00, -1.00, -209.9, 468.5)"></path><path d="M 211.1 209.8 L 352.3 209.8 " fill="none" stroke="#FFFFFF" stroke-width="3.00" stroke-linejoin="bevel" transform="matrix(1.00, 0.00, 0.00, -1.00, -209.9, 468.5)"></path><path d="M 351.8 122.1 L 351.8 253.7 " fill="none" stroke="#FFFFFF" stroke-width="1.00" stroke-linejoin="bevel" transform="matrix(1.00, 0.00, 0.00, -1.00, -209.9, 468.5)"></path></g></g></g></g><g><clipPath id="clip0x7fd041a73510"><path d="M 1.2 260.2 L 142.3 260.2 L 142.3 213.3 L 1.2 213.3 Z M 1.2 260.2 "></path></clipPath><g clip-path="url(#clip0x7fd041a73510)"><g><clipPath id="clip0x7fd041a73c40"><path d="M 0.0 0.0 L 143.0 0.0 L 143.0 468.0 L 0.0 468.0 Z M 0.0 0.0 "></path></clipPath><g clip-path="url(#clip0x7fd041a73c40)"><g><g><clipPath id="clip0x7fd041a75560"><path d="M 1.0 213.0 L 143.0 213.0 L 143.0 261.0 L 1.0 261.0 Z M 1.0 213.0 "></path></clipPath><g clip-path="url(#clip0x7fd041a75560)"><path d="M -91.3 302.5 L 1.7 302.5 L 1.7 258.7 L -91.3 258.7 Z M -91.3 302.5 " fill="#DDDDDD"></path><path d="M 1.7 302.5 L 141.8 302.5 L 141.8 258.7 L 1.7 258.7 Z M 1.7 302.5 " fill="#B4DBAE"></path><path d="M -91.3 258.7 L 1.7 258.7 L 1.7 214.8 L -91.3 214.8 Z M -91.3 258.7 " fill="#DDDDDD"></path><path d="M 1.7 258.7 L 141.8 258.7 L 141.8 214.8 L 1.7 214.8 Z M 1.7 258.7 " fill="#B4DBAE"></path><path d="M -91.3 214.8 L 1.7 214.8 L 1.7 177.0 L -91.3 177.0 Z M -91.3 214.8 " fill="#DDDDDD"></path><path d="M 1.7 214.8 L 141.8 214.8 L 141.8 177.0 L 1.7 177.0 Z M 1.7 214.8 " fill="#DDDDDD"></path></g></g></g></g></g></g></g><g><clipPath id="clip0x7fd041a74b60"><path d="M 1.2 260.2 L 142.3 260.2 L 142.3 213.3 L 1.2 213.3 Z M 1.2 260.2 "></path></clipPath><g clip-path="url(#clip0x7fd041a74b60)"><g><clipPath id="clip0x7fd041a77db0"><path d="M 2.2 216.3 L 141.3 216.3 L 141.3 257.2 L 2.2 257.2 Z M 2.2 216.3 "></path></clipPath><g clip-path="url(#clip0x7fd041a77db0)"><text xml:space="preserve" font-family="CenturyGothic-Bold,Century Gothic" font-weight="bold" font-size="26.0" fill="#000000" transform="matrix(1.00, 0.00, -0.00, -1.00, 31.7, 225.9)">0</text><text xml:space="preserve" font-family="CenturyGothic-Bold,Century Gothic" font-weight="bold" font-size="26.0" fill="#000000" transform="matrix(1.00, 0.00, -0.00, -1.00, 46.3, 225.9)">.</text><text xml:space="preserve" font-family="CenturyGothic-Bold,Century Gothic" font-weight="bold" font-size="26.0" fill="#000000" transform="matrix(1.00, 0.00, -0.00, -1.00, 53.6, 225.9)">0</text><text xml:space="preserve" font-family="CenturyGothic-Bold,Century Gothic" font-weight="bold" font-size="26.0" fill="#000000" transform="matrix(1.00, 0.00, -0.00, -1.00, 68.1, 225.9)">0</text><text xml:space="preserve" font-family="CenturyGothic-Bold,Century Gothic" font-weight="bold" font-size="26.0" fill="#000000" transform="matrix(1.00, 0.00, -0.00, -1.00, 82.7, 225.9)">7</text><text xml:space="preserve" font-family="CenturyGothic-Bold,Century Gothic" font-weight="bold" font-size="26.0" fill="#000000" transform="matrix(1.00, 0.00, -0.00, -1.00, 97.3, 225.9)">7</text></g></g></g></g><g><clipPath id="clip0x7fd041a7b310"><path d="M 1.2 260.2 L 142.3 260.2 L 142.3 213.3 L 1.2 213.3 Z M 1.2 260.2 "></path></clipPath><g clip-path="url(#clip0x7fd041a7b310)"><g><clipPath id="clip0x7fd041a7ba40"><path d="M 0.0 0.0 L 143.0 0.0 L 143.0 468.0 L 0.0 468.0 Z M 0.0 0.0 "></path></clipPath><g clip-path="url(#clip0x7fd041a7ba40)"><path d="M 211.6 166.0 L 211.6 291.5 " fill="none" stroke="#FFFFFF" stroke-width="1.00" stroke-linejoin="bevel" transform="matrix(1.00, 0.00, 0.00, -1.00, -209.9, 468.5)"></path><path d="M 118.6 209.8 L 211.1 209.8 " fill="none" stroke="#FFFFFF" stroke-width="1.00" stroke-linejoin="bevel" transform="matrix(1.00, 0.00, 0.00, -1.00, -209.9, 468.5)"></path><path d="M 211.1 209.8 L 352.3 209.8 " fill="none" stroke="#FFFFFF" stroke-width="3.00" stroke-linejoin="bevel" transform="matrix(1.00, 0.00, 0.00, -1.00, -209.9, 468.5)"></path><path d="M 118.6 253.7 L 352.3 253.7 " fill="none" stroke="#FFFFFF" stroke-width="3.00" stroke-linejoin="bevel" transform="matrix(1.00, 0.00, 0.00, -1.00, -209.9, 468.5)"></path><path d="M 351.8 166.0 L 351.8 291.5 " fill="none" stroke="#FFFFFF" stroke-width="1.00" stroke-linejoin="bevel" transform="matrix(1.00, 0.00, 0.00, -1.00, -209.9, 468.5)"></path></g></g></g></g><g><clipPath id="clip0x7fd041a7e940"><path d="M 1.2 216.3 L 142.3 216.3 L 142.3 175.5 L 1.2 175.5 Z M 1.2 216.3 "></path></clipPath><g clip-path="url(#clip0x7fd041a7e940)"><g><clipPath id="clip0x7fd041a7f070"><path d="M 0.0 0.0 L 143.0 0.0 L 143.0 468.0 L 0.0 468.0 Z M 0.0 0.0 "></path></clipPath><g clip-path="url(#clip0x7fd041a7f070)"><g><g><clipPath id="clip0x7fd041a80980"><path d="M 1.0 175.0 L 143.0 175.0 L 143.0 217.0 L 1.0 217.0 Z M 1.0 175.0 "></path></clipPath><g clip-path="url(#clip0x7fd041a80980)"><path d="M -91.3 258.7 L 1.7 258.7 L 1.7 214.8 L -91.3 214.8 Z M -91.3 258.7 " fill="#DDDDDD"></path><path d="M 1.7 258.7 L 141.8 258.7 L 141.8 214.8 L 1.7 214.8 Z M 1.7 258.7 " fill="#B4DBAE"></path><path d="M -91.3 214.8 L 1.7 214.8 L 1.7 177.0 L -91.3 177.0 Z M -91.3 214.8 " fill="#DDDDDD"></path><path d="M 1.7 214.8 L 141.8 214.8 L 141.8 177.0 L 1.7 177.0 Z M 1.7 214.8 " fill="#DDDDDD"></path><path d="M -91.3 177.0 L 1.7 177.0 L 1.7 133.1 L -91.3 133.1 Z M -91.3 177.0 " fill="#B4DBAE"></path><path d="M 1.7 177.0 L 141.8 177.0 L 141.8 133.1 L 1.7 133.1 Z M 1.7 177.0 " fill="#B4DBAE"></path></g></g></g></g></g></g></g><g><clipPath id="clip0x7fd041a7ff90"><path d="M 1.2 216.3 L 142.3 216.3 L 142.3 175.5 L 1.2 175.5 Z M 1.2 216.3 "></path></clipPath><g clip-path="url(#clip0x7fd041a7ff90)"><g><clipPath id="clip0x7fd041a38b30"><path d="M 2.2 178.5 L 141.3 178.5 L 141.3 213.3 L 2.2 213.3 Z M 2.2 178.5 "></path></clipPath><g clip-path="url(#clip0x7fd041a38b30)"><text xml:space="preserve" font-family="CenturyGothic-Bold,Century Gothic" font-weight="bold" font-size="26.0" fill="#000000" transform="matrix(1.00, 0.00, -0.00, -1.00, 46.3, 182.0)">0</text><text xml:space="preserve" font-family="CenturyGothic-Bold,Century Gothic" font-weight="bold" font-size="26.0" fill="#000000" transform="matrix(1.00, 0.00, -0.00, -1.00, 60.8, 182.0)">.</text><text xml:space="preserve" font-family="CenturyGothic-Bold,Century Gothic" font-weight="bold" font-size="26.0" fill="#000000" transform="matrix(1.00, 0.00, -0.00, -1.00, 68.1, 182.0)">4</text><text xml:space="preserve" font-family="CenturyGothic-Bold,Century Gothic" font-weight="bold" font-size="26.0" fill="#000000" transform="matrix(1.00, 0.00, -0.00, -1.00, 82.7, 182.0)">1</text></g></g></g></g><g><clipPath id="clip0x7fd041a3b300"><path d="M 1.2 216.3 L 142.3 216.3 L 142.3 175.5 L 1.2 175.5 Z M 1.2 216.3 "></path></clipPath><g clip-path="url(#clip0x7fd041a3b300)"><g><clipPath id="clip0x7fd041a3ba30"><path d="M 0.0 0.0 L 143.0 0.0 L 143.0 468.0 L 0.0 468.0 Z M 0.0 0.0 "></path></clipPath><g clip-path="url(#clip0x7fd041a3ba30)"><path d="M 211.6 209.8 L 211.6 335.4 " fill="none" stroke="#FFFFFF" stroke-width="1.00" stroke-linejoin="bevel" transform="matrix(1.00, 0.00, 0.00, -1.00, -209.9, 468.5)"></path><path d="M 118.6 253.7 L 352.3 253.7 " fill="none" stroke="#FFFFFF" stroke-width="3.00" stroke-linejoin="bevel" transform="matrix(1.00, 0.00, 0.00, -1.00, -209.9, 468.5)"></path><path d="M 118.6 291.5 L 352.3 291.5 " fill="none" stroke="#FFFFFF" stroke-width="3.00" stroke-linejoin="bevel" transform="matrix(1.00, 0.00, 0.00, -1.00, -209.9, 468.5)"></path><path d="M 351.8 209.8 L 351.8 335.4 " fill="none" stroke="#FFFFFF" stroke-width="1.00" stroke-linejoin="bevel" transform="matrix(1.00, 0.00, 0.00, -1.00, -209.9, 468.5)"></path></g></g></g></g><g><clipPath id="clip0x7fd041a3e1b0"><path d="M 1.2 178.5 L 142.3 178.5 L 142.3 131.6 L 1.2 131.6 Z M 1.2 178.5 "></path></clipPath><g clip-path="url(#clip0x7fd041a3e1b0)"><g><clipPath id="clip0x7fd041a3e8e0"><path d="M 0.0 0.0 L 143.0 0.0 L 143.0 468.0 L 0.0 468.0 Z M 0.0 0.0 "></path></clipPath><g clip-path="url(#clip0x7fd041a3e8e0)"><g><g><clipPath id="clip0x7fd041a401f0"><path d="M 1.0 131.0 L 143.0 131.0 L 143.0 179.0 L 1.0 179.0 Z M 1.0 131.0 "></path></clipPath><g clip-path="url(#clip0x7fd041a401f0)"><path d="M -91.3 214.8 L 1.7 214.8 L 1.7 177.0 L -91.3 177.0 Z M -91.3 214.8 " fill="#DDDDDD"></path><path d="M 1.7 214.8 L 141.8 214.8 L 141.8 177.0 L 1.7 177.0 Z M 1.7 214.8 " fill="#DDDDDD"></path><path d="M -91.3 177.0 L 1.7 177.0 L 1.7 133.1 L -91.3 133.1 Z M -91.3 177.0 " fill="#B4DBAE"></path><path d="M 1.7 177.0 L 141.8 177.0 L 141.8 133.1 L 1.7 133.1 Z M 1.7 177.0 " fill="#B4DBAE"></path><path d="M -91.3 133.1 L 1.7 133.1 L 1.7 89.2 L -91.3 89.2 Z M -91.3 133.1 " fill="#B4DBAE"></path><path d="M 1.7 133.1 L 141.8 133.1 L 141.8 89.2 L 1.7 89.2 Z M 1.7 133.1 " fill="#B4DBAE"></path></g></g></g></g></g></g></g><g><clipPath id="clip0x7fd041a3f800"><path d="M 1.2 178.5 L 142.3 178.5 L 142.3 131.6 L 1.2 131.6 Z M 1.2 178.5 "></path></clipPath><g clip-path="url(#clip0x7fd041a3f800)"><g><clipPath id="clip0x7fd041a42500"><path d="M 2.2 134.6 L 141.3 134.6 L 141.3 175.5 L 2.2 175.5 Z M 2.2 134.6 "></path></clipPath><g clip-path="url(#clip0x7fd041a42500)"><text xml:space="preserve" font-family="CenturyGothic-Bold,Century Gothic" font-weight="bold" font-size="26.0" fill="#000000" transform="matrix(1.00, 0.00, -0.00, -1.00, 39.0, 144.2)">0</text><text xml:space="preserve" font-family="CenturyGothic-Bold,Century Gothic" font-weight="bold" font-size="26.0" fill="#000000" transform="matrix(1.00, 0.00, -0.00, -1.00, 53.6, 144.2)">.</text><text xml:space="preserve" font-family="CenturyGothic-Bold,Century Gothic" font-weight="bold" font-size="26.0" fill="#000000" transform="matrix(1.00, 0.00, -0.00, -1.00, 60.8, 144.2)">0</text><text xml:space="preserve" font-family="CenturyGothic-Bold,Century Gothic" font-weight="bold" font-size="26.0" fill="#000000" transform="matrix(1.00, 0.00, -0.00, -1.00, 75.4, 144.2)">4</text><text xml:space="preserve" font-family="CenturyGothic-Bold,Century Gothic" font-weight="bold" font-size="26.0" fill="#000000" transform="matrix(1.00, 0.00, -0.00, -1.00, 90.0, 144.2)">8</text></g></g></g></g><g><clipPath id="clip0x7fd041a453a0"><path d="M 1.2 178.5 L 142.3 178.5 L 142.3 131.6 L 1.2 131.6 Z M 1.2 178.5 "></path></clipPath><g clip-path="url(#clip0x7fd041a453a0)"><g><clipPath id="clip0x7fd041a45ad0"><path d="M 0.0 0.0 L 143.0 0.0 L 143.0 468.0 L 0.0 468.0 Z M 0.0 0.0 "></path></clipPath><g clip-path="url(#clip0x7fd041a45ad0)"><path d="M 211.6 253.7 L 211.6 379.3 " fill="none" stroke="#FFFFFF" stroke-width="1.00" stroke-linejoin="bevel" transform="matrix(1.00, 0.00, 0.00, -1.00, -209.9, 468.5)"></path><path d="M 118.6 291.5 L 352.3 291.5 " fill="none" stroke="#FFFFFF" stroke-width="3.00" stroke-linejoin="bevel" transform="matrix(1.00, 0.00, 0.00, -1.00, -209.9, 468.5)"></path><path d="M 118.6 335.4 L 352.3 335.4 " fill="none" stroke="#FFFFFF" stroke-width="3.00" stroke-linejoin="bevel" transform="matrix(1.00, 0.00, 0.00, -1.00, -209.9, 468.5)"></path><path d="M 351.8 253.7 L 351.8 379.3 " fill="none" stroke="#FFFFFF" stroke-width="1.00" stroke-linejoin="bevel" transform="matrix(1.00, 0.00, 0.00, -1.00, -209.9, 468.5)"></path></g></g></g></g><g><clipPath id="clip0x7fd041a48250"><path d="M 1.2 134.6 L 142.3 134.6 L 142.3 87.7 L 1.2 87.7 Z M 1.2 134.6 "></path></clipPath><g clip-path="url(#clip0x7fd041a48250)"><g><clipPath id="clip0x7fd041a48980"><path d="M 0.0 0.0 L 143.0 0.0 L 143.0 468.0 L 0.0 468.0 Z M 0.0 0.0 "></path></clipPath><g clip-path="url(#clip0x7fd041a48980)"><g><g><clipPath id="clip0x7fd041a4a280"><path d="M 1.0 87.0 L 143.0 87.0 L 143.0 135.0 L 1.0 135.0 Z M 1.0 87.0 "></path></clipPath><g clip-path="url(#clip0x7fd041a4a280)"><path d="M -91.3 177.0 L 1.7 177.0 L 1.7 133.1 L -91.3 133.1 Z M -91.3 177.0 " fill="#B4DBAE"></path><path d="M 1.7 177.0 L 141.8 177.0 L 141.8 133.1 L 1.7 133.1 Z M 1.7 177.0 " fill="#B4DBAE"></path><path d="M -91.3 133.1 L 1.7 133.1 L 1.7 89.2 L -91.3 89.2 Z M -91.3 133.1 " fill="#B4DBAE"></path><path d="M 1.7 133.1 L 141.8 133.1 L 141.8 89.2 L 1.7 89.2 Z M 1.7 133.1 " fill="#B4DBAE"></path><path d="M -91.3 89.2 L 1.7 89.2 L 1.7 45.4 L -91.3 45.4 Z M -91.3 89.2 " fill="#B4DBAE"></path><path d="M 1.7 89.2 L 141.8 89.2 L 141.8 45.4 L 1.7 45.4 Z M 1.7 89.2 " fill="#B4DBAE"></path></g></g></g></g></g></g></g><g><clipPath id="clip0x7fd041a498a0"><path d="M 1.2 134.6 L 142.3 134.6 L 142.3 87.7 L 1.2 87.7 Z M 1.2 134.6 "></path></clipPath><g clip-path="url(#clip0x7fd041a498a0)"><g><clipPath id="clip0x7fd041a4c840"><path d="M 2.2 90.7 L 141.3 90.7 L 141.3 131.6 L 2.2 131.6 Z M 2.2 90.7 "></path></clipPath><g clip-path="url(#clip0x7fd041a4c840)"><text xml:space="preserve" font-family="CenturyGothic-Bold,Century Gothic" font-weight="bold" font-size="26.0" fill="#000000" transform="matrix(1.00, 0.00, -0.00, -1.00, 39.0, 100.3)">0</text><text xml:space="preserve" font-family="CenturyGothic-Bold,Century Gothic" font-weight="bold" font-size="26.0" fill="#000000" transform="matrix(1.00, 0.00, -0.00, -1.00, 53.6, 100.3)">.</text><text xml:space="preserve" font-family="CenturyGothic-Bold,Century Gothic" font-weight="bold" font-size="26.0" fill="#000000" transform="matrix(1.00, 0.00, -0.00, -1.00, 60.8, 100.3)">0</text><text xml:space="preserve" font-family="CenturyGothic-Bold,Century Gothic" font-weight="bold" font-size="26.0" fill="#000000" transform="matrix(1.00, 0.00, -0.00, -1.00, 75.4, 100.3)">4</text><text xml:space="preserve" font-family="CenturyGothic-Bold,Century Gothic" font-weight="bold" font-size="26.0" fill="#000000" transform="matrix(1.00, 0.00, -0.00, -1.00, 90.0, 100.3)">4</text></g></g></g></g><g><clipPath id="clip0x7fd0472824e0"><path d="M 1.2 134.6 L 142.3 134.6 L 142.3 87.7 L 1.2 87.7 Z M 1.2 134.6 "></path></clipPath><g clip-path="url(#clip0x7fd0472824e0)"><g><clipPath id="clip0x7fd0472c15c0"><path d="M 0.0 0.0 L 143.0 0.0 L 143.0 468.0 L 0.0 468.0 Z M 0.0 0.0 "></path></clipPath><g clip-path="url(#clip0x7fd0472c15c0)"><path d="M 211.6 291.5 L 211.6 423.1 " fill="none" stroke="#FFFFFF" stroke-width="1.00" stroke-linejoin="bevel" transform="matrix(1.00, 0.00, 0.00, -1.00, -209.9, 468.5)"></path><path d="M 118.6 335.4 L 352.3 335.4 " fill="none" stroke="#FFFFFF" stroke-width="3.00" stroke-linejoin="bevel" transform="matrix(1.00, 0.00, 0.00, -1.00, -209.9, 468.5)"></path><path d="M 118.6 379.3 L 352.3 379.3 " fill="none" stroke="#FFFFFF" stroke-width="3.00" stroke-linejoin="bevel" transform="matrix(1.00, 0.00, 0.00, -1.00, -209.9, 468.5)"></path><path d="M 351.8 291.5 L 351.8 423.1 " fill="none" stroke="#FFFFFF" stroke-width="1.00" stroke-linejoin="bevel" transform="matrix(1.00, 0.00, 0.00, -1.00, -209.9, 468.5)"></path></g></g></g></g><g><clipPath id="clip0x7fd0472d98b0"><path d="M 1.2 90.7 L 142.3 90.7 L 142.3 44.9 L 1.2 44.9 Z M 1.2 90.7 "></path></clipPath><g clip-path="url(#clip0x7fd0472d98b0)"><g><clipPath id="clip0x7fd0472c1170"><path d="M 0.0 0.0 L 143.0 0.0 L 143.0 468.0 L 0.0 468.0 Z M 0.0 0.0 "></path></clipPath><g clip-path="url(#clip0x7fd0472c1170)"><g><g><clipPath id="clip0x7fd0472b08c0"><path d="M 1.0 44.0 L 143.0 44.0 L 143.0 91.0 L 1.0 91.0 Z M 1.0 44.0 "></path></clipPath><g clip-path="url(#clip0x7fd0472b08c0)"><path d="M -91.3 133.1 L 1.7 133.1 L 1.7 89.2 L -91.3 89.2 Z M -91.3 133.1 " fill="#B4DBAE"></path><path d="M 1.7 133.1 L 141.8 133.1 L 141.8 89.2 L 1.7 89.2 Z M 1.7 133.1 " fill="#B4DBAE"></path><path d="M -91.3 89.2 L 1.7 89.2 L 1.7 45.4 L -91.3 45.4 Z M -91.3 89.2 " fill="#B4DBAE"></path><path d="M 1.7 89.2 L 141.8 89.2 L 141.8 45.4 L 1.7 45.4 Z M 1.7 89.2 " fill="#B4DBAE"></path><path d="M -91.3 45.4 L 1.7 45.4 L 1.7 1.5 L -91.3 1.5 Z M -91.3 45.4 " fill="#DDDDDD"></path><path d="M 1.7 45.4 L 141.8 45.4 L 141.8 1.5 L 1.7 1.5 Z M 1.7 45.4 " fill="#DDDDDD"></path></g></g></g></g></g></g></g><g><clipPath id="clip0x7fd0472afed0"><path d="M 1.2 90.7 L 142.3 90.7 L 142.3 44.9 L 1.2 44.9 Z M 1.2 90.7 "></path></clipPath><g clip-path="url(#clip0x7fd0472afed0)"><g><clipPath id="clip0x7fd0472b2e50"><path d="M 2.2 45.9 L 141.3 45.9 L 141.3 87.7 L 2.2 87.7 Z M 2.2 45.9 "></path></clipPath><g clip-path="url(#clip0x7fd0472b2e50)"><text xml:space="preserve" font-family="CenturyGothic-Bold,Century Gothic" font-weight="bold" font-size="26.0" fill="#000000" transform="matrix(1.00, 0.00, -0.00, -1.00, 39.0, 56.4)">0</text><text xml:space="preserve" font-family="CenturyGothic-Bold,Century Gothic" font-weight="bold" font-size="26.0" fill="#000000" transform="matrix(1.00, 0.00, -0.00, -1.00, 53.6, 56.4)">.</text><text xml:space="preserve" font-family="CenturyGothic-Bold,Century Gothic" font-weight="bold" font-size="26.0" fill="#000000" transform="matrix(1.00, 0.00, -0.00, -1.00, 60.8, 56.4)">0</text><text xml:space="preserve" font-family="CenturyGothic-Bold,Century Gothic" font-weight="bold" font-size="26.0" fill="#000000" transform="matrix(1.00, 0.00, -0.00, -1.00, 75.4, 56.4)">9</text><text xml:space="preserve" font-family="CenturyGothic-Bold,Century Gothic" font-weight="bold" font-size="26.0" fill="#000000" transform="matrix(1.00, 0.00, -0.00, -1.00, 90.0, 56.4)">2</text></g></g></g></g><g><clipPath id="clip0x7fd041a50fb0"><path d="M 1.2 90.7 L 142.3 90.7 L 142.3 44.9 L 1.2 44.9 Z M 1.2 90.7 "></path></clipPath><g clip-path="url(#clip0x7fd041a50fb0)"><g><clipPath id="clip0x7fd041a387d0"><path d="M 0.0 0.0 L 143.0 0.0 L 143.0 468.0 L 0.0 468.0 Z M 0.0 0.0 "></path></clipPath><g clip-path="url(#clip0x7fd041a387d0)"><path d="M 211.6 335.4 L 211.6 467.0 " fill="none" stroke="#FFFFFF" stroke-width="1.00" stroke-linejoin="bevel" transform="matrix(1.00, 0.00, 0.00, -1.00, -209.9, 468.5)"></path><path d="M 118.6 379.3 L 352.3 379.3 " fill="none" stroke="#FFFFFF" stroke-width="3.00" stroke-linejoin="bevel" transform="matrix(1.00, 0.00, 0.00, -1.00, -209.9, 468.5)"></path><path d="M 118.6 423.1 L 352.3 423.1 " fill="none" stroke="#FFFFFF" stroke-width="1.00" stroke-linejoin="bevel" transform="matrix(1.00, 0.00, 0.00, -1.00, -209.9, 468.5)"></path><path d="M 351.8 335.4 L 351.8 467.0 " fill="none" stroke="#FFFFFF" stroke-width="1.00" stroke-linejoin="bevel" transform="matrix(1.00, 0.00, 0.00, -1.00, -209.9, 468.5)"></path></g></g></g></g><g><clipPath id="clip0x7fd041a53eb0"><path d="M 1.2 45.9 L 142.3 45.9 L 142.3 1.0 L 1.2 1.0 Z M 1.2 45.9 "></path></clipPath><g clip-path="url(#clip0x7fd041a53eb0)"><g><clipPath id="clip0x7fd041a545e0"><path d="M 0.0 0.0 L 143.0 0.0 L 143.0 468.0 L 0.0 468.0 Z M 0.0 0.0 "></path></clipPath><g clip-path="url(#clip0x7fd041a545e0)"><g><g><clipPath id="clip0x7fd041a55ea0"><path d="M 1.0 0.0 L 143.0 0.0 L 143.0 46.0 L 1.0 46.0 Z M 1.0 0.0 "></path></clipPath><g clip-path="url(#clip0x7fd041a55ea0)"><path d="M -91.3 89.2 L 1.7 89.2 L 1.7 45.4 L -91.3 45.4 Z M -91.3 89.2 " fill="#B4DBAE"></path><path d="M 1.7 89.2 L 141.8 89.2 L 141.8 45.4 L 1.7 45.4 Z M 1.7 89.2 " fill="#B4DBAE"></path><path d="M -91.3 45.4 L 1.7 45.4 L 1.7 1.5 L -91.3 1.5 Z M -91.3 45.4 " fill="#DDDDDD"></path><path d="M 1.7 45.4 L 141.8 45.4 L 141.8 1.5 L 1.7 1.5 Z M 1.7 45.4 " fill="#DDDDDD"></path></g></g></g></g></g></g></g><g><clipPath id="clip0x7fd041a554d0"><path d="M 1.2 45.9 L 142.3 45.9 L 142.3 1.0 L 1.2 1.0 Z M 1.2 45.9 "></path></clipPath><g clip-path="url(#clip0x7fd041a554d0)"><g><clipPath id="clip0x7fd041a57a90"><path d="M 2.2 2.0 L 141.3 2.0 L 141.3 44.9 L 2.2 44.9 Z M 2.2 2.0 "></path></clipPath><g clip-path="url(#clip0x7fd041a57a90)"><text xml:space="preserve" font-family="CenturyGothic-Bold,Century Gothic" font-weight="bold" font-size="26.0" fill="#000000" transform="matrix(1.00, 0.00, -0.00, -1.00, 46.3, 12.6)">1</text><text xml:space="preserve" font-family="CenturyGothic-Bold,Century Gothic" font-weight="bold" font-size="26.0" fill="#000000" transform="matrix(1.00, 0.00, -0.00, -1.00, 60.8, 12.6)">.</text><text xml:space="preserve" font-family="CenturyGothic-Bold,Century Gothic" font-weight="bold" font-size="26.0" fill="#000000" transform="matrix(1.00, 0.00, -0.00, -1.00, 68.1, 12.6)">4</text><text xml:space="preserve" font-family="CenturyGothic-Bold,Century Gothic" font-weight="bold" font-size="26.0" fill="#000000" transform="matrix(1.00, 0.00, -0.00, -1.00, 82.7, 12.6)">3</text></g></g></g></g><g><clipPath id="clip0x7fd041a5a260"><path d="M 1.2 45.9 L 142.3 45.9 L 142.3 1.0 L 1.2 1.0 Z M 1.2 45.9 "></path></clipPath><g clip-path="url(#clip0x7fd041a5a260)"><g><clipPath id="clip0x7fd041a5a990"><path d="M 0.0 0.0 L 143.0 0.0 L 143.0 468.0 L 0.0 468.0 Z M 0.0 0.0 "></path></clipPath><g clip-path="url(#clip0x7fd041a5a990)"><path d="M 211.6 379.3 L 211.6 467.5 " fill="none" stroke="#FFFFFF" stroke-width="1.00" stroke-linejoin="bevel" transform="matrix(1.00, 0.00, 0.00, -1.00, -209.9, 468.5)"></path><path d="M 118.6 423.1 L 352.3 423.1 " fill="none" stroke="#FFFFFF" stroke-width="1.00" stroke-linejoin="bevel" transform="matrix(1.00, 0.00, 0.00, -1.00, -209.9, 468.5)"></path><path d="M 351.8 379.3 L 351.8 467.5 " fill="none" stroke="#FFFFFF" stroke-width="1.00" stroke-linejoin="bevel" transform="matrix(1.00, 0.00, 0.00, -1.00, -209.9, 468.5)"></path><path d="M 118.6 467.0 L 352.3 467.0 " fill="none" stroke="#FFFFFF" stroke-width="1.00" stroke-linejoin="bevel" transform="matrix(1.00, 0.00, 0.00, -1.00, -209.9, 468.5)"></path></g></g></g></g></g></g></svg>