<?xml version="1.0" encoding="UTF-8" standalone="no"?><svg xmlns="http://www.w3.org/2000/svg" xmlns:xlink="http://www.w3.org/1999/xlink" clip-rule="evenodd" stroke-miterlimit="10" viewBox="0 0 504 81"><desc>SVG generated by Keynote</desc><defs></defs><g transform="matrix(1.00, 0.00, -0.00, -1.00, 0.0, 81.0)"><image xlink:href="../../57A638F0-EAA5-4627-BEDB-60B3E7516D27/assets/03CE8AC2452EE2C1373F2384E93FA464.png" width="17.00" height="17.00" transform="matrix(1.00, 0.00, -0.00, -1.00, 1.0, 66.0)"></image><text xml:space="preserve" font-family="ArialMT,Arial" font-size="34.0" fill="#000000" transform="matrix(1.00, 0.00, -0.00, -1.00, 4.7, 44.8)">•</text><image xlink:href="5C0CFC8331F67BDD3BE091DB6BAD7EAC.png" width="24.00" height="33.00" transform="matrix(1.00, 0.00, -0.00, -1.00, 34.0, 73.0)"></image><text xml:space="preserve" font-family="CenturyGothic,Century Gothic" font-size="34.0" fill="#000000" transform="matrix(1.00, 0.00, -0.00, -1.00, 36.6, 43.6)">В</text><image xlink:href="2C162FD5578818E45ABBB00C3ED45739.png" width="26.00" height="29.00" transform="matrix(1.00, 0.00, -0.00, -1.00, 53.0, 69.0)"></image><text xml:space="preserve" font-family="CenturyGothic,Century Gothic" font-size="27.2" fill="#000000" transform="matrix(1.00, 0.00, -0.00, -1.00, 56.1, 43.6)">Ы</text><text xml:space="preserve" font-family="CenturyGothic,Century Gothic" font-size="34.0" fill="#000000" transform="matrix(1.00, 0.00, -0.00, -1.00, 77.7, 43.6)"> </text><image xlink:href="10F7B8ACADF01666A6C8ACD8AB176344.png" width="120.00" height="29.00" transform="matrix(1.00, 0.00, -0.00, -1.00, 82.0, 69.0)"></image><text xml:space="preserve" font-family="CenturyGothic,Century Gothic" font-size="27.2" fill="#000000" transform="matrix(1.00, 0.00, -0.00, -1.00, 87.1, 43.6)">У</text><text xml:space="preserve" font-family="CenturyGothic,Century Gothic" font-size="27.2" fill="#000000" transform="matrix(1.00, 0.00, -0.00, -1.00, 104.7, 43.6)">З</text><text xml:space="preserve" font-family="CenturyGothic,Century Gothic" font-size="27.2" fill="#000000" transform="matrix(1.00, 0.00, -0.00, -1.00, 120.5, 43.6)">Н</text><text xml:space="preserve" font-family="CenturyGothic,Century Gothic" font-size="27.2" fill="#000000" transform="matrix(1.00, 0.00, -0.00, -1.00, 139.0, 43.6)">А</text><text xml:space="preserve" font-family="CenturyGothic,Century Gothic" font-size="27.2" fill="#000000" transform="matrix(1.00, 0.00, -0.00, -1.00, 159.2, 43.6)">Е</text><text xml:space="preserve" font-family="CenturyGothic,Century Gothic" font-size="27.2" fill="#000000" transform="matrix(1.00, 0.00, -0.00, -1.00, 173.7, 43.6)">Т</text><text xml:space="preserve" font-family="CenturyGothic,Century Gothic" font-size="27.2" fill="#000000" transform="matrix(1.00, 0.00, -0.00, -1.00, 185.3, 43.6)">Е</text><text xml:space="preserve" font-family="CenturyGothic,Century Gothic" font-size="34.0" fill="#000000" transform="matrix(1.00, 0.00, -0.00, -1.00, 199.9, 43.6)"> </text><image xlink:href="DFCE0338BB573978EE903B7A71FC54B0.png" width="57.00" height="29.00" transform="matrix(1.00, 0.00, -0.00, -1.00, 204.0, 69.0)"></image><text xml:space="preserve" font-family="CenturyGothic,Century Gothic" font-size="27.2" fill="#000000" transform="matrix(1.00, 0.00, -0.00, -1.00, 209.3, 43.6)">Ч</text><text xml:space="preserve" font-family="CenturyGothic,Century Gothic" font-size="27.2" fill="#000000" transform="matrix(1.00, 0.00, -0.00, -1.00, 224.0, 43.6)">Т</text><text xml:space="preserve" font-family="CenturyGothic,Century Gothic" font-size="27.2" fill="#000000" transform="matrix(1.00, 0.00, -0.00, -1.00, 235.6, 43.6)">О</text><text xml:space="preserve" font-family="CenturyGothic,Century Gothic" font-size="34.0" fill="#000000" transform="matrix(1.00, 0.00, -0.00, -1.00, 259.2, 43.6)"> </text><image xlink:href="D4007C6DE661CCDEA3F0236E6E813BFA.png" width="86.00" height="32.00" transform="matrix(1.00, 0.00, -0.00, -1.00, 265.0, 69.0)"></image><text xml:space="preserve" font-family="CenturyGothic,Century Gothic" font-size="27.2" fill="#000000" transform="matrix(1.00, 0.00, -0.00, -1.00, 268.6, 43.6)">Б</text><text xml:space="preserve" font-family="CenturyGothic,Century Gothic" font-size="27.2" fill="#000000" transform="matrix(1.00, 0.00, -0.00, -1.00, 284.2, 43.6)">У</text><text xml:space="preserve" font-family="CenturyGothic,Century Gothic" font-size="27.2" fill="#000000" transform="matrix(1.00, 0.00, -0.00, -1.00, 301.8, 43.6)">Д</text><text xml:space="preserve" font-family="CenturyGothic,Century Gothic" font-size="27.2" fill="#000000" transform="matrix(1.00, 0.00, -0.00, -1.00, 322.1, 43.6)">Е</text><text xml:space="preserve" font-family="CenturyGothic,Century Gothic" font-size="27.2" fill="#000000" transform="matrix(1.00, 0.00, -0.00, -1.00, 336.7, 43.6)">Т</text><text xml:space="preserve" font-family="CenturyGothic,Century Gothic" font-size="34.0" fill="#000000" transform="matrix(1.00, 0.00, -0.00, -1.00, 348.3, 43.6)"> </text><image xlink:href="1B2210E7EC9BC1C860AD221F8054865B.png" width="140.00" height="29.00" transform="matrix(1.00, 0.00, -0.00, -1.00, 355.0, 69.0)"></image><text xml:space="preserve" font-family="CenturyGothic,Century Gothic" font-size="27.2" fill="#000000" transform="matrix(1.00, 0.00, -0.00, -1.00, 357.7, 43.6)">Р</text><text xml:space="preserve" font-family="CenturyGothic,Century Gothic" font-size="27.2" fill="#000000" transform="matrix(1.00, 0.00, -0.00, -1.00, 373.8, 43.6)">А</text><text xml:space="preserve" font-family="CenturyGothic,Century Gothic" font-size="27.2" fill="#000000" transform="matrix(1.00, 0.00, -0.00, -1.00, 393.9, 43.6)">Б</text><text xml:space="preserve" font-family="CenturyGothic,Century Gothic" font-size="27.2" fill="#000000" transform="matrix(1.00, 0.00, -0.00, -1.00, 409.5, 43.6)">О</text><text xml:space="preserve" font-family="CenturyGothic,Century Gothic" font-size="27.2" fill="#000000" transform="matrix(1.00, 0.00, -0.00, -1.00, 433.1, 43.6)">Т</text><text xml:space="preserve" font-family="CenturyGothic,Century Gothic" font-size="27.2" fill="#000000" transform="matrix(1.00, 0.00, -0.00, -1.00, 444.7, 43.6)">А</text><text xml:space="preserve" font-family="CenturyGothic,Century Gothic" font-size="27.2" fill="#000000" transform="matrix(1.00, 0.00, -0.00, -1.00, 464.8, 43.6)">Т</text><text xml:space="preserve" font-family="CenturyGothic,Century Gothic" font-size="27.2" fill="#000000" transform="matrix(1.00, 0.00, -0.00, -1.00, 476.4, 43.6)">Ь</text><image xlink:href="C5689DA57F81C5F4782CF1D67324A6B3.png" width="14.00" height="17.00" transform="matrix(1.00, 0.00, -0.00, -1.00, 490.0, 54.0)"></image><text xml:space="preserve" font-family="CenturyGothic,Century Gothic" font-size="34.0" fill="#000000" transform="matrix(1.00, 0.00, -0.00, -1.00, 492.9, 43.6)">,</text><text xml:space="preserve" font-family="CenturyGothic,Century Gothic" font-size="34.0" fill="#000000" transform="matrix(1.00, 0.00, -0.00, -1.00, 502.3, 43.6)"> </text><image xlink:href="4C7A0C4412DE681DED7CD1B10DEF8B57.png" width="28.00" height="29.00" transform="matrix(1.00, 0.00, -0.00, -1.00, 32.0, 28.0)"></image><text xml:space="preserve" font-family="CenturyGothic,Century Gothic" font-size="27.2" fill="#000000" transform="matrix(1.00, 0.00, -0.00, -1.00, 36.6, 2.6)">А</text><text xml:space="preserve" font-family="CenturyGothic,Century Gothic" font-size="34.0" fill="#000000" transform="matrix(1.00, 0.00, -0.00, -1.00, 56.7, 2.6)"> </text><image xlink:href="74CC970C6EC577721BB268F5401E83A3.png" width="57.00" height="29.00" transform="matrix(1.00, 0.00, -0.00, -1.00, 61.0, 28.0)"></image><text xml:space="preserve" font-family="CenturyGothic,Century Gothic" font-size="27.2" fill="#000000" transform="matrix(1.00, 0.00, -0.00, -1.00, 66.1, 2.6)">Ч</text><text xml:space="preserve" font-family="CenturyGothic,Century Gothic" font-size="27.2" fill="#000000" transform="matrix(1.00, 0.00, -0.00, -1.00, 80.8, 2.6)">Т</text><text xml:space="preserve" font-family="CenturyGothic,Century Gothic" font-size="27.2" fill="#000000" transform="matrix(1.00, 0.00, -0.00, -1.00, 92.4, 2.6)">О</text><text xml:space="preserve" font-family="CenturyGothic,Century Gothic" font-size="34.0" fill="#000000" transform="matrix(1.00, 0.00, -0.00, -1.00, 116.0, 2.6)"> </text><image xlink:href="9BD63BB6CF9625AC58F129CD0FAD12A3.png" width="51.00" height="29.00" transform="matrix(1.00, 0.00, -0.00, -1.00, 122.0, 28.0)"></image><text xml:space="preserve" font-family="CenturyGothic,Century Gothic" font-size="27.2" fill="#000000" transform="matrix(1.00, 0.00, -0.00, -1.00, 125.4, 2.6)">Н</text><text xml:space="preserve" font-family="CenturyGothic,Century Gothic" font-size="27.2" fill="#000000" transform="matrix(1.00, 0.00, -0.00, -1.00, 144.0, 2.6)">Е</text><text xml:space="preserve" font-family="CenturyGothic,Century Gothic" font-size="27.2" fill="#000000" transform="matrix(1.00, 0.00, -0.00, -1.00, 158.6, 2.6)">Т</text></g></svg>