<?xml version="1.0" encoding="UTF-8" standalone="no"?><svg xmlns="http://www.w3.org/2000/svg" xmlns:xlink="http://www.w3.org/1999/xlink" clip-rule="evenodd" stroke-miterlimit="10" viewBox="0 0 349 52"><desc>SVG generated by Keynote</desc><defs></defs><g transform="matrix(1.00, 0.00, -0.00, -1.00, 0.0, 52.0)"><image xlink:href="../../12709CA5-7221-4137-AFBF-E65D64817AE0/assets/CBC62F567E8034917F142B912D4C0240.png" width="346.00" height="49.00" transform="matrix(1.00, 0.00, -0.00, -1.00, 1.0, 50.0)"></image><text xml:space="preserve" font-family="CenturyGothic,Century Gothic" font-size="58.0" fill="#000000" transform="matrix(1.00, 0.00, -0.00, -1.00, 4.7, 2.9)">T</text><text xml:space="preserve" font-family="CenturyGothic,Century Gothic" font-size="58.0" fill="#000000" transform="matrix(1.00, 0.00, -0.00, -1.00, 29.4, 2.9)">E</text><text xml:space="preserve" font-family="CenturyGothic,Century Gothic" font-size="58.0" fill="#000000" transform="matrix(1.00, 0.00, -0.00, -1.00, 60.5, 2.9)">S</text><text xml:space="preserve" font-family="CenturyGothic,Century Gothic" font-size="58.0" fill="#000000" transform="matrix(1.00, 0.00, -0.00, -1.00, 89.4, 2.9)">T</text><text xml:space="preserve" font-family="CenturyGothic,Century Gothic" font-size="58.0" fill="#000000" transform="matrix(1.00, 0.00, -0.00, -1.00, 114.1, 2.9)"> </text><text xml:space="preserve" font-family="CenturyGothic,Century Gothic" font-size="58.0" fill="#000000" transform="matrix(1.00, 0.00, -0.00, -1.00, 130.1, 2.9)">I</text><text xml:space="preserve" font-family="CenturyGothic,Century Gothic" font-size="58.0" fill="#000000" transform="matrix(1.00, 0.00, -0.00, -1.00, 143.2, 2.9)">M</text><text xml:space="preserve" font-family="CenturyGothic,Century Gothic" font-size="58.0" fill="#000000" transform="matrix(1.00, 0.00, -0.00, -1.00, 196.5, 2.9)">A</text><text xml:space="preserve" font-family="CenturyGothic,Century Gothic" font-size="58.0" fill="#000000" transform="matrix(1.00, 0.00, -0.00, -1.00, 239.4, 2.9)">G</text><text xml:space="preserve" font-family="CenturyGothic,Century Gothic" font-size="58.0" fill="#000000" transform="matrix(1.00, 0.00, -0.00, -1.00, 290.0, 2.9)">E</text><text xml:space="preserve" font-family="CenturyGothic,Century Gothic" font-size="58.0" fill="#000000" transform="matrix(1.00, 0.00, -0.00, -1.00, 321.1, 2.9)">S</text></g></svg>