<?xml version="1.0" encoding="UTF-8" standalone="no"?><svg xmlns="http://www.w3.org/2000/svg" xmlns:xlink="http://www.w3.org/1999/xlink" clip-rule="evenodd" stroke-miterlimit="10" viewBox="0 0 175 111"><desc>SVG generated by Keynote</desc><defs></defs><g transform="matrix(1.00, 0.00, -0.00, -1.00, 0.0, 111.0)"><image xlink:href="169C31E98B4C1AF6BEA20E99958C5102.png" width="26.00" height="33.00" transform="matrix(1.00, 0.00, -0.00, -1.00, -2.0, 114.0)"></image><text xml:space="preserve" font-family="CenturyGothic,Century Gothic" font-size="34.0" fill="#000000" transform="matrix(1.00, 0.00, -0.00, -1.00, 0.7, 84.4)">K</text><image xlink:href="DFB2A9881A38B94CD2F3C481E7574F96.png" width="87.00" height="30.00" transform="matrix(1.00, 0.00, -0.00, -1.00, 17.0, 110.0)"></image><text xml:space="preserve" font-family="CenturyGothic,Century Gothic" font-size="27.2" fill="#000000" transform="matrix(1.00, 0.00, -0.00, -1.00, 20.8, 84.4)">O</text><text xml:space="preserve" font-family="CenturyGothic,Century Gothic" font-size="27.2" fill="#000000" transform="matrix(1.00, 0.00, -0.00, -1.00, 44.4, 84.4)">D</text><text xml:space="preserve" font-family="CenturyGothic,Century Gothic" font-size="27.2" fill="#000000" transform="matrix(1.00, 0.00, -0.00, -1.00, 64.7, 84.4)">A</text><text xml:space="preserve" font-family="CenturyGothic,Century Gothic" font-size="27.2" fill="#000000" transform="matrix(1.00, 0.00, -0.00, -1.00, 84.8, 84.4)">K</text><image xlink:href="1CD569AEB29C91DCBE8C14833069C5DC.png" width="23.00" height="33.00" transform="matrix(1.00, 0.00, -0.00, -1.00, 105.0, 114.0)"></image><text xml:space="preserve" font-family="CenturyGothic,Century Gothic" font-size="34.0" fill="#000000" transform="matrix(1.00, 0.00, -0.00, -1.00, 100.9, 84.4)"> </text><text xml:space="preserve" font-family="CenturyGothic,Century Gothic" font-size="34.0" fill="#000000" transform="matrix(1.00, 0.00, -0.00, -1.00, 110.3, 84.4)">T</text><image xlink:href="0D9079BD3A48B8A30E328C94C5F81B95.png" width="54.00" height="29.00" transform="matrix(1.00, 0.00, -0.00, -1.00, 122.0, 109.0)"></image><text xml:space="preserve" font-family="CenturyGothic,Century Gothic" font-size="27.2" fill="#000000" transform="matrix(1.00, 0.00, -0.00, -1.00, 124.8, 84.4)">R</text><text xml:space="preserve" font-family="CenturyGothic,Century Gothic" font-size="27.2" fill="#000000" transform="matrix(1.00, 0.00, -0.00, -1.00, 141.3, 84.4)">U</text><text xml:space="preserve" font-family="CenturyGothic,Century Gothic" font-size="27.2" fill="#000000" transform="matrix(1.00, 0.00, -0.00, -1.00, 159.1, 84.4)">E</text><text xml:space="preserve" font-family="CenturyGothic,Century Gothic" font-size="34.0" fill="#000000" transform="matrix(1.00, 0.00, -0.00, -1.00, 173.7, 84.4)"> </text><image xlink:href="1198872FC467119C9F6D074D94B458D0.png" width="33.00" height="35.00" transform="matrix(1.00, 0.00, -0.00, -1.00, -3.0, 74.0)"></image><text xml:space="preserve" font-family="CenturyGothic,Century Gothic" font-size="34.0" fill="#000000" transform="matrix(1.00, 0.00, -0.00, -1.00, 0.7, 43.4)">C</text><image xlink:href="E3C11408C1ED8C5C85B77B62189BAF50.png" width="83.00" height="30.00" transform="matrix(1.00, 0.00, -0.00, -1.00, 24.0, 69.0)"></image><text xml:space="preserve" font-family="CenturyGothic,Century Gothic" font-size="27.2" fill="#000000" transform="matrix(1.00, 0.00, -0.00, -1.00, 28.3, 43.4)">O</text><text xml:space="preserve" font-family="CenturyGothic,Century Gothic" font-size="27.2" fill="#000000" transform="matrix(1.00, 0.00, -0.00, -1.00, 52.0, 43.4)">L</text><text xml:space="preserve" font-family="CenturyGothic,Century Gothic" font-size="27.2" fill="#000000" transform="matrix(1.00, 0.00, -0.00, -1.00, 64.6, 43.4)">O</text><text xml:space="preserve" font-family="CenturyGothic,Century Gothic" font-size="27.2" fill="#000000" transform="matrix(1.00, 0.00, -0.00, -1.00, 88.2, 43.4)">R</text><image xlink:href="DD186C1FA5D145ABBC10152996EF76C6.png" width="23.00" height="33.00" transform="matrix(1.00, 0.00, -0.00, -1.00, 109.0, 73.0)"></image><text xml:space="preserve" font-family="CenturyGothic,Century Gothic" font-size="34.0" fill="#000000" transform="matrix(1.00, 0.00, -0.00, -1.00, 104.7, 43.4)"> </text><text xml:space="preserve" font-family="CenturyGothic,Century Gothic" font-size="34.0" fill="#000000" transform="matrix(1.00, 0.00, -0.00, -1.00, 114.1, 43.4)">T</text><image xlink:href="F0553AFE8A2707D68A3879312EE9200F.png" width="46.00" height="30.00" transform="matrix(1.00, 0.00, -0.00, -1.00, 125.0, 69.0)"></image><text xml:space="preserve" font-family="CenturyGothic,Century Gothic" font-size="27.2" fill="#000000" transform="matrix(1.00, 0.00, -0.00, -1.00, 128.6, 43.4)">E</text><text xml:space="preserve" font-family="CenturyGothic,Century Gothic" font-size="27.2" fill="#000000" transform="matrix(1.00, 0.00, -0.00, -1.00, 143.2, 43.4)">S</text><text xml:space="preserve" font-family="CenturyGothic,Century Gothic" font-size="27.2" fill="#000000" transform="matrix(1.00, 0.00, -0.00, -1.00, 156.7, 43.4)">T</text><text xml:space="preserve" font-family="CenturyGothic,Century Gothic" font-size="34.0" fill="#000000" transform="matrix(1.00, 0.00, -0.00, -1.00, 168.3, 43.4)"> </text><image xlink:href="33AEBB3EC61BDA473CD291EE62D46B8E.png" width="11.00" height="33.00" transform="matrix(1.00, 0.00, -0.00, -1.00, -2.0, 32.0)"></image><text xml:space="preserve" font-family="CenturyGothic,Century Gothic" font-size="34.0" fill="#000000" transform="matrix(1.00, 0.00, -0.00, -1.00, 0.7, 2.4)">I</text><image xlink:href="D351FF12BDAC320558DFE3D8E8651571.png" width="103.00" height="30.00" transform="matrix(1.00, 0.00, -0.00, -1.00, 4.0, 28.0)"></image><text xml:space="preserve" font-family="CenturyGothic,Century Gothic" font-size="27.2" fill="#000000" transform="matrix(1.00, 0.00, -0.00, -1.00, 8.4, 2.4)">M</text><text xml:space="preserve" font-family="CenturyGothic,Century Gothic" font-size="27.2" fill="#000000" transform="matrix(1.00, 0.00, -0.00, -1.00, 33.4, 2.4)">A</text><text xml:space="preserve" font-family="CenturyGothic,Century Gothic" font-size="27.2" fill="#000000" transform="matrix(1.00, 0.00, -0.00, -1.00, 53.5, 2.4)">G</text><text xml:space="preserve" font-family="CenturyGothic,Century Gothic" font-size="27.2" fill="#000000" transform="matrix(1.00, 0.00, -0.00, -1.00, 77.2, 2.4)">E</text><text xml:space="preserve" font-family="CenturyGothic,Century Gothic" font-size="27.2" fill="#000000" transform="matrix(1.00, 0.00, -0.00, -1.00, 91.8, 2.4)">S</text></g></svg>