<?xml version="1.0" encoding="UTF-8" standalone="no"?><svg xmlns="http://www.w3.org/2000/svg" xmlns:xlink="http://www.w3.org/1999/xlink" clip-rule="evenodd" stroke-miterlimit="10" viewBox="0 0 1024 768"><desc>SVG generated by Keynote</desc><defs></defs><g transform="matrix(1.00, 0.00, -0.00, -1.00, 0.0, 768.0)"><path d="M 0.0 768.0 L 1024.0 768.0 L 1024.0 0.0 L 0.0 0.0 Z M 0.0 768.0 " fill="#FFFFFF"></path><image xlink:href="../../2228AE9C-3706-437F-8379-D21BA5B8F0CA/assets/C2129A3EE7512E75FEE2A48785F9B6A3.png" width="1033.00" height="179.00" transform="matrix(0.21, 0.00, -0.00, -0.21, 40.0, 96.0)"></image><image xlink:href="../../12709CA5-7221-4137-AFBF-E65D64817AE0/assets/CBC62F567E8034917F142B912D4C0240.png" width="346.00" height="49.00" transform="matrix(1.00, 0.00, -0.00, -1.00, 96.0, 666.0)"></image><text xml:space="preserve" font-family="CenturyGothic,Century Gothic" font-size="58.0" fill="#000000" transform="matrix(1.00, 0.00, -0.00, -1.00, 99.7, 618.9)">T</text><text xml:space="preserve" font-family="CenturyGothic,Century Gothic" font-size="58.0" fill="#000000" transform="matrix(1.00, 0.00, -0.00, -1.00, 124.4, 618.9)">E</text><text xml:space="preserve" font-family="CenturyGothic,Century Gothic" font-size="58.0" fill="#000000" transform="matrix(1.00, 0.00, -0.00, -1.00, 155.5, 618.9)">S</text><text xml:space="preserve" font-family="CenturyGothic,Century Gothic" font-size="58.0" fill="#000000" transform="matrix(1.00, 0.00, -0.00, -1.00, 184.4, 618.9)">T</text><text xml:space="preserve" font-family="CenturyGothic,Century Gothic" font-size="58.0" fill="#000000" transform="matrix(1.00, 0.00, -0.00, -1.00, 209.1, 618.9)"> </text><text xml:space="preserve" font-family="CenturyGothic,Century Gothic" font-size="58.0" fill="#000000" transform="matrix(1.00, 0.00, -0.00, -1.00, 225.1, 618.9)">I</text><text xml:space="preserve" font-family="CenturyGothic,Century Gothic" font-size="58.0" fill="#000000" transform="matrix(1.00, 0.00, -0.00, -1.00, 238.2, 618.9)">M</text><text xml:space="preserve" font-family="CenturyGothic,Century Gothic" font-size="58.0" fill="#000000" transform="matrix(1.00, 0.00, -0.00, -1.00, 291.5, 618.9)">A</text><text xml:space="preserve" font-family="CenturyGothic,Century Gothic" font-size="58.0" fill="#000000" transform="matrix(1.00, 0.00, -0.00, -1.00, 334.4, 618.9)">G</text><text xml:space="preserve" font-family="CenturyGothic,Century Gothic" font-size="58.0" fill="#000000" transform="matrix(1.00, 0.00, -0.00, -1.00, 385.0, 618.9)">E</text><text xml:space="preserve" font-family="CenturyGothic,Century Gothic" font-size="58.0" fill="#000000" transform="matrix(1.00, 0.00, -0.00, -1.00, 416.1, 618.9)">S</text><image xlink:href="../../EF084222-6D95-46C0-903F-20AC21FED3B7/assets/169C31E98B4C1AF6BEA20E99958C5102.png" width="26.00" height="33.00" transform="matrix(1.00, 0.00, -0.00, -1.00, 97.0, 553.0)"></image><text xml:space="preserve" font-family="CenturyGothic,Century Gothic" font-size="34.0" fill="#000000" transform="matrix(1.00, 0.00, -0.00, -1.00, 99.7, 523.4)">K</text><image xlink:href="../../EF084222-6D95-46C0-903F-20AC21FED3B7/assets/DFB2A9881A38B94CD2F3C481E7574F96.png" width="87.00" height="30.00" transform="matrix(1.00, 0.00, -0.00, -1.00, 116.0, 549.0)"></image><text xml:space="preserve" font-family="CenturyGothic,Century Gothic" font-size="27.2" fill="#000000" transform="matrix(1.00, 0.00, -0.00, -1.00, 119.8, 523.4)">O</text><text xml:space="preserve" font-family="CenturyGothic,Century Gothic" font-size="27.2" fill="#000000" transform="matrix(1.00, 0.00, -0.00, -1.00, 143.4, 523.4)">D</text><text xml:space="preserve" font-family="CenturyGothic,Century Gothic" font-size="27.2" fill="#000000" transform="matrix(1.00, 0.00, -0.00, -1.00, 163.7, 523.4)">A</text><text xml:space="preserve" font-family="CenturyGothic,Century Gothic" font-size="27.2" fill="#000000" transform="matrix(1.00, 0.00, -0.00, -1.00, 183.8, 523.4)">K</text><image xlink:href="../../EF084222-6D95-46C0-903F-20AC21FED3B7/assets/1CD569AEB29C91DCBE8C14833069C5DC.png" width="23.00" height="33.00" transform="matrix(1.00, 0.00, -0.00, -1.00, 204.0, 553.0)"></image><text xml:space="preserve" font-family="CenturyGothic,Century Gothic" font-size="34.0" fill="#000000" transform="matrix(1.00, 0.00, -0.00, -1.00, 199.9, 523.4)"> </text><text xml:space="preserve" font-family="CenturyGothic,Century Gothic" font-size="34.0" fill="#000000" transform="matrix(1.00, 0.00, -0.00, -1.00, 209.3, 523.4)">T</text><image xlink:href="../../EF084222-6D95-46C0-903F-20AC21FED3B7/assets/0D9079BD3A48B8A30E328C94C5F81B95.png" width="54.00" height="29.00" transform="matrix(1.00, 0.00, -0.00, -1.00, 221.0, 548.0)"></image><text xml:space="preserve" font-family="CenturyGothic,Century Gothic" font-size="27.2" fill="#000000" transform="matrix(1.00, 0.00, -0.00, -1.00, 223.8, 523.4)">R</text><text xml:space="preserve" font-family="CenturyGothic,Century Gothic" font-size="27.2" fill="#000000" transform="matrix(1.00, 0.00, -0.00, -1.00, 240.3, 523.4)">U</text><text xml:space="preserve" font-family="CenturyGothic,Century Gothic" font-size="27.2" fill="#000000" transform="matrix(1.00, 0.00, -0.00, -1.00, 258.1, 523.4)">E</text><text xml:space="preserve" font-family="CenturyGothic,Century Gothic" font-size="34.0" fill="#000000" transform="matrix(1.00, 0.00, -0.00, -1.00, 272.7, 523.4)"> </text><image xlink:href="../../EF084222-6D95-46C0-903F-20AC21FED3B7/assets/1198872FC467119C9F6D074D94B458D0.png" width="33.00" height="35.00" transform="matrix(1.00, 0.00, -0.00, -1.00, 96.0, 513.0)"></image><text xml:space="preserve" font-family="CenturyGothic,Century Gothic" font-size="34.0" fill="#000000" transform="matrix(1.00, 0.00, -0.00, -1.00, 99.7, 482.4)">C</text><image xlink:href="../../EF084222-6D95-46C0-903F-20AC21FED3B7/assets/E3C11408C1ED8C5C85B77B62189BAF50.png" width="83.00" height="30.00" transform="matrix(1.00, 0.00, -0.00, -1.00, 123.0, 508.0)"></image><text xml:space="preserve" font-family="CenturyGothic,Century Gothic" font-size="27.2" fill="#000000" transform="matrix(1.00, 0.00, -0.00, -1.00, 127.3, 482.4)">O</text><text xml:space="preserve" font-family="CenturyGothic,Century Gothic" font-size="27.2" fill="#000000" transform="matrix(1.00, 0.00, -0.00, -1.00, 151.0, 482.4)">L</text><text xml:space="preserve" font-family="CenturyGothic,Century Gothic" font-size="27.2" fill="#000000" transform="matrix(1.00, 0.00, -0.00, -1.00, 163.6, 482.4)">O</text><text xml:space="preserve" font-family="CenturyGothic,Century Gothic" font-size="27.2" fill="#000000" transform="matrix(1.00, 0.00, -0.00, -1.00, 187.2, 482.4)">R</text><image xlink:href="../../EF084222-6D95-46C0-903F-20AC21FED3B7/assets/DD186C1FA5D145ABBC10152996EF76C6.png" width="23.00" height="33.00" transform="matrix(1.00, 0.00, -0.00, -1.00, 208.0, 512.0)"></image><text xml:space="preserve" font-family="CenturyGothic,Century Gothic" font-size="34.0" fill="#000000" transform="matrix(1.00, 0.00, -0.00, -1.00, 203.7, 482.4)"> </text><text xml:space="preserve" font-family="CenturyGothic,Century Gothic" font-size="34.0" fill="#000000" transform="matrix(1.00, 0.00, -0.00, -1.00, 213.1, 482.4)">T</text><image xlink:href="../../EF084222-6D95-46C0-903F-20AC21FED3B7/assets/F0553AFE8A2707D68A3879312EE9200F.png" width="46.00" height="30.00" transform="matrix(1.00, 0.00, -0.00, -1.00, 224.0, 508.0)"></image><text xml:space="preserve" font-family="CenturyGothic,Century Gothic" font-size="27.2" fill="#000000" transform="matrix(1.00, 0.00, -0.00, -1.00, 227.6, 482.4)">E</text><text xml:space="preserve" font-family="CenturyGothic,Century Gothic" font-size="27.2" fill="#000000" transform="matrix(1.00, 0.00, -0.00, -1.00, 242.2, 482.4)">S</text><text xml:space="preserve" font-family="CenturyGothic,Century Gothic" font-size="27.2" fill="#000000" transform="matrix(1.00, 0.00, -0.00, -1.00, 255.7, 482.4)">T</text><text xml:space="preserve" font-family="CenturyGothic,Century Gothic" font-size="34.0" fill="#000000" transform="matrix(1.00, 0.00, -0.00, -1.00, 267.3, 482.4)"> </text><image xlink:href="../../EF084222-6D95-46C0-903F-20AC21FED3B7/assets/33AEBB3EC61BDA473CD291EE62D46B8E.png" width="11.00" height="33.00" transform="matrix(1.00, 0.00, -0.00, -1.00, 97.0, 471.0)"></image><text xml:space="preserve" font-family="CenturyGothic,Century Gothic" font-size="34.0" fill="#000000" transform="matrix(1.00, 0.00, -0.00, -1.00, 99.7, 441.4)">I</text><image xlink:href="../../EF084222-6D95-46C0-903F-20AC21FED3B7/assets/D351FF12BDAC320558DFE3D8E8651571.png" width="103.00" height="30.00" transform="matrix(1.00, 0.00, -0.00, -1.00, 103.0, 467.0)"></image><text xml:space="preserve" font-family="CenturyGothic,Century Gothic" font-size="27.2" fill="#000000" transform="matrix(1.00, 0.00, -0.00, -1.00, 107.4, 441.4)">M</text><text xml:space="preserve" font-family="CenturyGothic,Century Gothic" font-size="27.2" fill="#000000" transform="matrix(1.00, 0.00, -0.00, -1.00, 132.4, 441.4)">A</text><text xml:space="preserve" font-family="CenturyGothic,Century Gothic" font-size="27.2" fill="#000000" transform="matrix(1.00, 0.00, -0.00, -1.00, 152.5, 441.4)">G</text><text xml:space="preserve" font-family="CenturyGothic,Century Gothic" font-size="27.2" fill="#000000" transform="matrix(1.00, 0.00, -0.00, -1.00, 176.2, 441.4)">E</text><text xml:space="preserve" font-family="CenturyGothic,Century Gothic" font-size="27.2" fill="#000000" transform="matrix(1.00, 0.00, -0.00, -1.00, 190.8, 441.4)">S</text><text xml:space="preserve" font-family="CenturyGothic-Bold,Century Gothic" font-weight="bold" font-size="28.0" fill="#525252" transform="matrix(1.00, 0.00, -0.00, -1.00, 927.1, 65.3)">1</text><text xml:space="preserve" font-family="CenturyGothic-Bold,Century Gothic" font-weight="bold" font-size="28.0" fill="#525252" transform="matrix(1.00, 0.00, -0.00, -1.00, 942.8, 65.3)">1</text><image xlink:href="../../EF084222-6D95-46C0-903F-20AC21FED3B7/assets/3FE8188217454741608B9CA825D36625.jpeg" width="768.00" height="512.00" transform="matrix(0.72, 0.00, -0.00, -0.72, 388.5, 543.2)"></image><image xlink:href="../../EF084222-6D95-46C0-903F-20AC21FED3B7/assets/5F2D1AF67423F5D38B4A58CFB75C0FE4.png" width="512.00" height="512.00" transform="matrix(0.43, 0.00, -0.00, -0.43, 93.2, 395.7)"></image></g></svg>