<?xml version="1.0" encoding="UTF-8" standalone="no"?><svg xmlns="http://www.w3.org/2000/svg" xmlns:xlink="http://www.w3.org/1999/xlink" clip-rule="evenodd" stroke-miterlimit="10" viewBox="0 0 671 86"><desc>SVG generated by Keynote</desc><defs></defs><g transform="matrix(1.00, 0.00, -0.00, -1.00, 0.0, 86.0)"><image xlink:href="../../61A58102-22E1-412F-811F-124AF3D36D9D/assets/6DD1E4845FC87C35B0E2E0D05E49391A.png" width="18.00" height="18.00" transform="matrix(1.00, 0.00, -0.00, -1.00, 1.0, 70.0)"></image><text xml:space="preserve" font-family="ArialMT,Arial" font-size="36.0" fill="#000000" transform="matrix(1.00, 0.00, -0.00, -1.00, 4.8, 47.8)">•</text><image xlink:href="0EC6026C3CE0458BDDF2B1252FE00045.png" width="25.00" height="35.00" transform="matrix(1.00, 0.00, -0.00, -1.00, 34.0, 78.0)"></image><text xml:space="preserve" font-family="CenturyGothic,Century Gothic" font-size="36.0" fill="#000000" transform="matrix(1.00, 0.00, -0.00, -1.00, 36.7, 46.5)">Б</text><image xlink:href="87F73DEA3BF1052A7768FCDE9666C59C.png" width="80.00" height="30.00" transform="matrix(1.00, 0.00, -0.00, -1.00, 54.0, 73.0)"></image><text xml:space="preserve" font-family="CenturyGothic,Century Gothic" font-size="28.8" fill="#000000" transform="matrix(1.00, 0.00, -0.00, -1.00, 57.3, 46.5)">Е</text><text xml:space="preserve" font-family="CenturyGothic,Century Gothic" font-size="28.8" fill="#000000" transform="matrix(1.00, 0.00, -0.00, -1.00, 72.8, 46.5)">Р</text><text xml:space="preserve" font-family="CenturyGothic,Century Gothic" font-size="28.8" fill="#000000" transform="matrix(1.00, 0.00, -0.00, -1.00, 89.8, 46.5)">Е</text><text xml:space="preserve" font-family="CenturyGothic,Century Gothic" font-size="28.8" fill="#000000" transform="matrix(1.00, 0.00, -0.00, -1.00, 105.3, 46.5)">М</text><text xml:space="preserve" font-family="CenturyGothic,Century Gothic" font-size="36.0" fill="#000000" transform="matrix(1.00, 0.00, -0.00, -1.00, 131.7, 46.5)"> </text><image xlink:href="605C78C4889B5035DF0AC8B4BE63ECCA.png" width="240.00" height="33.00" transform="matrix(1.00, 0.00, -0.00, -1.00, 139.0, 73.0)"></image><text xml:space="preserve" font-family="CenturyGothic,Century Gothic" font-size="28.8" fill="#000000" transform="matrix(1.00, 0.00, -0.00, -1.00, 141.7, 46.5)">В</text><text xml:space="preserve" font-family="CenturyGothic,Century Gothic" font-size="28.8" fill="#000000" transform="matrix(1.00, 0.00, -0.00, -1.00, 158.2, 46.5)">Е</text><text xml:space="preserve" font-family="CenturyGothic,Century Gothic" font-size="28.8" fill="#000000" transform="matrix(1.00, 0.00, -0.00, -1.00, 173.7, 46.5)">Щ</text><text xml:space="preserve" font-family="CenturyGothic,Century Gothic" font-size="28.8" fill="#000000" transform="matrix(1.00, 0.00, -0.00, -1.00, 204.4, 46.5)">Е</text><text xml:space="preserve" font-family="CenturyGothic,Century Gothic" font-size="28.8" fill="#000000" transform="matrix(1.00, 0.00, -0.00, -1.00, 219.8, 46.5)">С</text><text xml:space="preserve" font-family="CenturyGothic,Century Gothic" font-size="28.8" fill="#000000" transform="matrix(1.00, 0.00, -0.00, -1.00, 243.2, 46.5)">Т</text><text xml:space="preserve" font-family="CenturyGothic,Century Gothic" font-size="28.8" fill="#000000" transform="matrix(1.00, 0.00, -0.00, -1.00, 255.5, 46.5)">В</text><text xml:space="preserve" font-family="CenturyGothic,Century Gothic" font-size="28.8" fill="#000000" transform="matrix(1.00, 0.00, -0.00, -1.00, 272.0, 46.5)">Е</text><text xml:space="preserve" font-family="CenturyGothic,Century Gothic" font-size="28.8" fill="#000000" transform="matrix(1.00, 0.00, -0.00, -1.00, 287.5, 46.5)">Н</text><text xml:space="preserve" font-family="CenturyGothic,Century Gothic" font-size="28.8" fill="#000000" transform="matrix(1.00, 0.00, -0.00, -1.00, 307.2, 46.5)">Н</text><text xml:space="preserve" font-family="CenturyGothic,Century Gothic" font-size="28.8" fill="#000000" transform="matrix(1.00, 0.00, -0.00, -1.00, 326.8, 46.5)">У</text><text xml:space="preserve" font-family="CenturyGothic,Century Gothic" font-size="28.8" fill="#000000" transform="matrix(1.00, 0.00, -0.00, -1.00, 345.4, 46.5)">Ю</text><text xml:space="preserve" font-family="CenturyGothic,Century Gothic" font-size="36.0" fill="#000000" transform="matrix(1.00, 0.00, -0.00, -1.00, 377.0, 46.5)"> </text><image xlink:href="0AC2B6EEA6529E1739DAD12542B17898.png" width="277.00" height="33.00" transform="matrix(1.00, 0.00, -0.00, -1.00, 383.0, 73.0)"></image><text xml:space="preserve" font-family="CenturyGothic,Century Gothic" font-size="28.8" fill="#000000" transform="matrix(1.00, 0.00, -0.00, -1.00, 386.9, 46.5)">С</text><text xml:space="preserve" font-family="CenturyGothic,Century Gothic" font-size="28.8" fill="#000000" transform="matrix(1.00, 0.00, -0.00, -1.00, 410.3, 46.5)">О</text><text xml:space="preserve" font-family="CenturyGothic,Century Gothic" font-size="28.8" fill="#000000" transform="matrix(1.00, 0.00, -0.00, -1.00, 435.4, 46.5)">С</text><text xml:space="preserve" font-family="CenturyGothic,Century Gothic" font-size="28.8" fill="#000000" transform="matrix(1.00, 0.00, -0.00, -1.00, 458.8, 46.5)">Т</text><text xml:space="preserve" font-family="CenturyGothic,Century Gothic" font-size="28.8" fill="#000000" transform="matrix(1.00, 0.00, -0.00, -1.00, 471.0, 46.5)">А</text><text xml:space="preserve" font-family="CenturyGothic,Century Gothic" font-size="28.8" fill="#000000" transform="matrix(1.00, 0.00, -0.00, -1.00, 492.3, 46.5)">В</text><text xml:space="preserve" font-family="CenturyGothic,Century Gothic" font-size="28.8" fill="#000000" transform="matrix(1.00, 0.00, -0.00, -1.00, 508.9, 46.5)">Л</text><text xml:space="preserve" font-family="CenturyGothic,Century Gothic" font-size="28.8" fill="#000000" transform="matrix(1.00, 0.00, -0.00, -1.00, 529.1, 46.5)">Я</text><text xml:space="preserve" font-family="CenturyGothic,Century Gothic" font-size="28.8" fill="#000000" transform="matrix(1.00, 0.00, -0.00, -1.00, 545.9, 46.5)">Ю</text><text xml:space="preserve" font-family="CenturyGothic,Century Gothic" font-size="28.8" fill="#000000" transform="matrix(1.00, 0.00, -0.00, -1.00, 577.5, 46.5)">Щ</text><text xml:space="preserve" font-family="CenturyGothic,Century Gothic" font-size="28.8" fill="#000000" transform="matrix(1.00, 0.00, -0.00, -1.00, 608.2, 46.5)">У</text><text xml:space="preserve" font-family="CenturyGothic,Century Gothic" font-size="28.8" fill="#000000" transform="matrix(1.00, 0.00, -0.00, -1.00, 626.8, 46.5)">Ю</text><image xlink:href="B1DB1CDE73F37DEC84C930A63EBB6198.png" width="14.00" height="17.00" transform="matrix(1.00, 0.00, -0.00, -1.00, 655.0, 57.0)"></image><text xml:space="preserve" font-family="CenturyGothic,Century Gothic" font-size="36.0" fill="#000000" transform="matrix(1.00, 0.00, -0.00, -1.00, 658.3, 46.5)">,</text><text xml:space="preserve" font-family="CenturyGothic,Century Gothic" font-size="36.0" fill="#000000" transform="matrix(1.00, 0.00, -0.00, -1.00, 668.3, 46.5)"> </text><image xlink:href="86B97FB0B6D1707A1FD7BE878F817A2D.png" width="224.00" height="31.00" transform="matrix(1.00, 0.00, -0.00, -1.00, 33.0, 29.0)"></image><text xml:space="preserve" font-family="CenturyGothic,Century Gothic" font-size="28.8" fill="#000000" transform="matrix(1.00, 0.00, -0.00, -1.00, 36.7, 2.5)">О</text><text xml:space="preserve" font-family="CenturyGothic,Century Gothic" font-size="28.8" fill="#000000" transform="matrix(1.00, 0.00, -0.00, -1.00, 61.7, 2.5)">Т</text><text xml:space="preserve" font-family="CenturyGothic,Century Gothic" font-size="28.8" fill="#000000" transform="matrix(1.00, 0.00, -0.00, -1.00, 74.0, 2.5)">Б</text><text xml:space="preserve" font-family="CenturyGothic,Century Gothic" font-size="28.8" fill="#000000" transform="matrix(1.00, 0.00, -0.00, -1.00, 90.5, 2.5)">Р</text><text xml:space="preserve" font-family="CenturyGothic,Century Gothic" font-size="28.8" fill="#000000" transform="matrix(1.00, 0.00, -0.00, -1.00, 107.5, 2.5)">А</text><text xml:space="preserve" font-family="CenturyGothic,Century Gothic" font-size="28.8" fill="#000000" transform="matrix(1.00, 0.00, -0.00, -1.00, 128.8, 2.5)">С</text><text xml:space="preserve" font-family="CenturyGothic,Century Gothic" font-size="28.8" fill="#000000" transform="matrix(1.00, 0.00, -0.00, -1.00, 152.2, 2.5)">Ы</text><text xml:space="preserve" font-family="CenturyGothic,Century Gothic" font-size="28.8" fill="#000000" transform="matrix(1.00, 0.00, -0.00, -1.00, 175.1, 2.5)">В</text><text xml:space="preserve" font-family="CenturyGothic,Century Gothic" font-size="28.8" fill="#000000" transform="matrix(1.00, 0.00, -0.00, -1.00, 191.6, 2.5)">А</text><text xml:space="preserve" font-family="CenturyGothic,Century Gothic" font-size="28.8" fill="#000000" transform="matrix(1.00, 0.00, -0.00, -1.00, 212.9, 2.5)">Е</text><text xml:space="preserve" font-family="CenturyGothic,Century Gothic" font-size="28.8" fill="#000000" transform="matrix(1.00, 0.00, -0.00, -1.00, 228.4, 2.5)">М</text><text xml:space="preserve" font-family="CenturyGothic,Century Gothic" font-size="36.0" fill="#000000" transform="matrix(1.00, 0.00, -0.00, -1.00, 254.9, 2.5)"> </text><image xlink:href="59EA0D025060D6366962EEDCCBC6F7A1.png" width="239.00" height="31.00" transform="matrix(1.00, 0.00, -0.00, -1.00, 262.0, 29.0)"></image><text xml:space="preserve" font-family="CenturyGothic,Century Gothic" font-size="28.8" fill="#000000" transform="matrix(1.00, 0.00, -0.00, -1.00, 264.8, 2.5)">К</text><text xml:space="preserve" font-family="CenturyGothic,Century Gothic" font-size="28.8" fill="#000000" transform="matrix(1.00, 0.00, -0.00, -1.00, 281.8, 2.5)">О</text><text xml:space="preserve" font-family="CenturyGothic,Century Gothic" font-size="28.8" fill="#000000" transform="matrix(1.00, 0.00, -0.00, -1.00, 306.9, 2.5)">М</text><text xml:space="preserve" font-family="CenturyGothic,Century Gothic" font-size="28.8" fill="#000000" transform="matrix(1.00, 0.00, -0.00, -1.00, 333.3, 2.5)">П</text><text xml:space="preserve" font-family="CenturyGothic,Century Gothic" font-size="28.8" fill="#000000" transform="matrix(1.00, 0.00, -0.00, -1.00, 353.0, 2.5)">Л</text><text xml:space="preserve" font-family="CenturyGothic,Century Gothic" font-size="28.8" fill="#000000" transform="matrix(1.00, 0.00, -0.00, -1.00, 373.2, 2.5)">Е</text><text xml:space="preserve" font-family="CenturyGothic,Century Gothic" font-size="28.8" fill="#000000" transform="matrix(1.00, 0.00, -0.00, -1.00, 388.7, 2.5)">К</text><text xml:space="preserve" font-family="CenturyGothic,Century Gothic" font-size="28.8" fill="#000000" transform="matrix(1.00, 0.00, -0.00, -1.00, 405.7, 2.5)">С</text><text xml:space="preserve" font-family="CenturyGothic,Century Gothic" font-size="28.8" fill="#000000" transform="matrix(1.00, 0.00, -0.00, -1.00, 429.1, 2.5)">Н</text><text xml:space="preserve" font-family="CenturyGothic,Century Gothic" font-size="28.8" fill="#000000" transform="matrix(1.00, 0.00, -0.00, -1.00, 448.8, 2.5)">У</text><text xml:space="preserve" font-family="CenturyGothic,Century Gothic" font-size="28.8" fill="#000000" transform="matrix(1.00, 0.00, -0.00, -1.00, 467.4, 2.5)">Ю</text></g></svg>