<?xml version="1.0" encoding="UTF-8" standalone="no"?><svg xmlns="http://www.w3.org/2000/svg" xmlns:xlink="http://www.w3.org/1999/xlink" clip-rule="evenodd" stroke-miterlimit="10" viewBox="0 0 1024 768"><desc>SVG generated by Keynote</desc><defs></defs><g transform="matrix(1.00, 0.00, -0.00, -1.00, 0.0, 768.0)"><path d="M 0.0 768.0 L 1024.0 768.0 L 1024.0 0.0 L 0.0 0.0 Z M 0.0 768.0 " fill="#FFFFFF"></path><image xlink:href="../../2228AE9C-3706-437F-8379-D21BA5B8F0CA/assets/C2129A3EE7512E75FEE2A48785F9B6A3.png" width="1033.00" height="179.00" transform="matrix(0.21, 0.00, -0.00, -0.21, 39.9, 95.6)"></image><image xlink:href="../../FE0B0A28-0C65-4AFA-8D87-E5F44B59A703/assets/7D917A18797F831333D79B70BFD5A31C.png" width="818.00" height="50.00" transform="matrix(1.00, 0.00, -0.00, -1.00, 99.0, 665.0)"></image><text xml:space="preserve" font-family="CenturyGothic,Century Gothic" font-size="47.0" fill="#000000" transform="matrix(1.00, 0.00, -0.00, -1.00, 99.8, 625.5)">D</text><text xml:space="preserve" font-family="CenturyGothic,Century Gothic" font-size="47.0" fill="#000000" transform="matrix(1.00, 0.00, -0.00, -1.00, 134.8, 625.5)">C</text><text xml:space="preserve" font-family="CenturyGothic,Century Gothic" font-size="47.0" fill="#000000" transform="matrix(1.00, 0.00, -0.00, -1.00, 173.0, 625.5)">T</text><text xml:space="preserve" font-family="CenturyGothic,Century Gothic" font-size="47.0" fill="#000000" transform="matrix(1.00, 0.00, -0.00, -1.00, 193.0, 625.5)"> </text><text xml:space="preserve" font-family="CenturyGothic,Century Gothic" font-size="47.0" fill="#000000" transform="matrix(1.00, 0.00, -0.00, -1.00, 206.0, 625.5)">(</text><text xml:space="preserve" font-family="CenturyGothic,Century Gothic" font-size="47.0" fill="#000000" transform="matrix(1.00, 0.00, -0.00, -1.00, 223.3, 625.5)">D</text><text xml:space="preserve" font-family="CenturyGothic,Century Gothic" font-size="47.0" fill="#000000" transform="matrix(1.00, 0.00, -0.00, -1.00, 258.3, 625.5)">I</text><text xml:space="preserve" font-family="CenturyGothic,Century Gothic" font-size="47.0" fill="#000000" transform="matrix(1.00, 0.00, -0.00, -1.00, 268.9, 625.5)">S</text><text xml:space="preserve" font-family="CenturyGothic,Century Gothic" font-size="47.0" fill="#000000" transform="matrix(1.00, 0.00, -0.00, -1.00, 292.3, 625.5)">C</text><text xml:space="preserve" font-family="CenturyGothic,Century Gothic" font-size="47.0" fill="#000000" transform="matrix(1.00, 0.00, -0.00, -1.00, 330.5, 625.5)">R</text><text xml:space="preserve" font-family="CenturyGothic,Century Gothic" font-size="47.0" fill="#000000" transform="matrix(1.00, 0.00, -0.00, -1.00, 359.0, 625.5)">E</text><text xml:space="preserve" font-family="CenturyGothic,Century Gothic" font-size="47.0" fill="#000000" transform="matrix(1.00, 0.00, -0.00, -1.00, 384.2, 625.5)">T</text><text xml:space="preserve" font-family="CenturyGothic,Century Gothic" font-size="47.0" fill="#000000" transform="matrix(1.00, 0.00, -0.00, -1.00, 404.2, 625.5)">E</text><text xml:space="preserve" font-family="CenturyGothic,Century Gothic" font-size="47.0" fill="#000000" transform="matrix(1.00, 0.00, -0.00, -1.00, 429.4, 625.5)"> </text><text xml:space="preserve" font-family="CenturyGothic,Century Gothic" font-size="47.0" fill="#000000" transform="matrix(1.00, 0.00, -0.00, -1.00, 442.4, 625.5)">C</text><text xml:space="preserve" font-family="CenturyGothic,Century Gothic" font-size="47.0" fill="#000000" transform="matrix(1.00, 0.00, -0.00, -1.00, 480.6, 625.5)">O</text><text xml:space="preserve" font-family="CenturyGothic,Century Gothic" font-size="47.0" fill="#000000" transform="matrix(1.00, 0.00, -0.00, -1.00, 521.4, 625.5)">S</text><text xml:space="preserve" font-family="CenturyGothic,Century Gothic" font-size="47.0" fill="#000000" transform="matrix(1.00, 0.00, -0.00, -1.00, 544.8, 625.5)">I</text><text xml:space="preserve" font-family="CenturyGothic,Century Gothic" font-size="47.0" fill="#000000" transform="matrix(1.00, 0.00, -0.00, -1.00, 555.5, 625.5)">N</text><text xml:space="preserve" font-family="CenturyGothic,Century Gothic" font-size="47.0" fill="#000000" transform="matrix(1.00, 0.00, -0.00, -1.00, 590.2, 625.5)">E</text><text xml:space="preserve" font-family="CenturyGothic,Century Gothic" font-size="47.0" fill="#000000" transform="matrix(1.00, 0.00, -0.00, -1.00, 615.4, 625.5)"> </text><text xml:space="preserve" font-family="CenturyGothic,Century Gothic" font-size="47.0" fill="#000000" transform="matrix(1.00, 0.00, -0.00, -1.00, 628.4, 625.5)">T</text><text xml:space="preserve" font-family="CenturyGothic,Century Gothic" font-size="47.0" fill="#000000" transform="matrix(1.00, 0.00, -0.00, -1.00, 648.4, 625.5)">R</text><text xml:space="preserve" font-family="CenturyGothic,Century Gothic" font-size="47.0" fill="#000000" transform="matrix(1.00, 0.00, -0.00, -1.00, 676.9, 625.5)">A</text><text xml:space="preserve" font-family="CenturyGothic,Century Gothic" font-size="47.0" fill="#000000" transform="matrix(1.00, 0.00, -0.00, -1.00, 711.6, 625.5)">N</text><text xml:space="preserve" font-family="CenturyGothic,Century Gothic" font-size="47.0" fill="#000000" transform="matrix(1.00, 0.00, -0.00, -1.00, 746.4, 625.5)">S</text><text xml:space="preserve" font-family="CenturyGothic,Century Gothic" font-size="47.0" fill="#000000" transform="matrix(1.00, 0.00, -0.00, -1.00, 769.8, 625.5)">F</text><text xml:space="preserve" font-family="CenturyGothic,Century Gothic" font-size="47.0" fill="#000000" transform="matrix(1.00, 0.00, -0.00, -1.00, 792.6, 625.5)">O</text><text xml:space="preserve" font-family="CenturyGothic,Century Gothic" font-size="47.0" fill="#000000" transform="matrix(1.00, 0.00, -0.00, -1.00, 833.4, 625.5)">R</text><text xml:space="preserve" font-family="CenturyGothic,Century Gothic" font-size="47.0" fill="#000000" transform="matrix(1.00, 0.00, -0.00, -1.00, 861.9, 625.5)">M</text><text xml:space="preserve" font-family="CenturyGothic,Century Gothic" font-size="47.0" fill="#000000" transform="matrix(1.00, 0.00, -0.00, -1.00, 905.1, 625.5)">)</text><image xlink:href="../../61A58102-22E1-412F-811F-124AF3D36D9D/assets/6DD1E4845FC87C35B0E2E0D05E49391A.png" width="18.00" height="18.00" transform="matrix(1.00, 0.00, -0.00, -1.00, 96.0, 559.0)"></image><text xml:space="preserve" font-family="ArialMT,Arial" font-size="36.0" fill="#000000" transform="matrix(1.00, 0.00, -0.00, -1.00, 99.8, 536.8)">•</text><image xlink:href="../../61A58102-22E1-412F-811F-124AF3D36D9D/assets/F50133F45438EAC485ED8C7F45449C9A.png" width="25.00" height="35.00" transform="matrix(1.00, 0.00, -0.00, -1.00, 127.0, 567.0)"></image><text xml:space="preserve" font-family="CenturyGothic,Century Gothic" font-size="36.0" fill="#000000" transform="matrix(1.00, 0.00, -0.00, -1.00, 131.7, 535.5)">Ч</text><image xlink:href="../../61A58102-22E1-412F-811F-124AF3D36D9D/assets/A2E1B04C13821B62A1AED6D455861424.png" width="127.00" height="36.00" transform="matrix(1.00, 0.00, -0.00, -1.00, 146.0, 567.0)"></image><text xml:space="preserve" font-family="CenturyGothic,Century Gothic" font-size="28.8" fill="#000000" transform="matrix(1.00, 0.00, -0.00, -1.00, 151.1, 535.5)">А</text><text xml:space="preserve" font-family="CenturyGothic,Century Gothic" font-size="28.8" fill="#000000" transform="matrix(1.00, 0.00, -0.00, -1.00, 172.4, 535.5)">С</text><text xml:space="preserve" font-family="CenturyGothic,Century Gothic" font-size="28.8" fill="#000000" transform="matrix(1.00, 0.00, -0.00, -1.00, 195.8, 535.5)">Т</text><text xml:space="preserve" font-family="CenturyGothic,Century Gothic" font-size="28.8" fill="#000000" transform="matrix(1.00, 0.00, -0.00, -1.00, 208.1, 535.5)">Н</text><text xml:space="preserve" font-family="CenturyGothic,Century Gothic" font-size="28.8" fill="#000000" transform="matrix(1.00, 0.00, -0.00, -1.00, 227.8, 535.5)">Ы</text><text xml:space="preserve" font-family="CenturyGothic,Century Gothic" font-size="28.8" fill="#000000" transform="matrix(1.00, 0.00, -0.00, -1.00, 250.6, 535.5)">Й</text><text xml:space="preserve" font-family="CenturyGothic,Century Gothic" font-size="36.0" fill="#000000" transform="matrix(1.00, 0.00, -0.00, -1.00, 271.9, 535.5)"> </text><image xlink:href="../../61A58102-22E1-412F-811F-124AF3D36D9D/assets/2245D78EA4982C217594E9520680F805.png" width="125.00" height="36.00" transform="matrix(1.00, 0.00, -0.00, -1.00, 278.0, 567.0)"></image><text xml:space="preserve" font-family="CenturyGothic,Century Gothic" font-size="28.8" fill="#000000" transform="matrix(1.00, 0.00, -0.00, -1.00, 281.9, 535.5)">С</text><text xml:space="preserve" font-family="CenturyGothic,Century Gothic" font-size="28.8" fill="#000000" transform="matrix(1.00, 0.00, -0.00, -1.00, 305.3, 535.5)">Л</text><text xml:space="preserve" font-family="CenturyGothic,Century Gothic" font-size="28.8" fill="#000000" transform="matrix(1.00, 0.00, -0.00, -1.00, 325.5, 535.5)">У</text><text xml:space="preserve" font-family="CenturyGothic,Century Gothic" font-size="28.8" fill="#000000" transform="matrix(1.00, 0.00, -0.00, -1.00, 344.1, 535.5)">Ч</text><text xml:space="preserve" font-family="CenturyGothic,Century Gothic" font-size="28.8" fill="#000000" transform="matrix(1.00, 0.00, -0.00, -1.00, 359.7, 535.5)">А</text><text xml:space="preserve" font-family="CenturyGothic,Century Gothic" font-size="28.8" fill="#000000" transform="matrix(1.00, 0.00, -0.00, -1.00, 381.0, 535.5)">Й</text><image xlink:href="../../61A58102-22E1-412F-811F-124AF3D36D9D/assets/E4D3DB85E138E5FCDDB4110F130B09E8.png" width="113.00" height="44.00" transform="matrix(1.00, 0.00, -0.00, -1.00, 410.0, 568.0)"></image><text xml:space="preserve" font-family="CenturyGothic,Century Gothic" font-size="36.0" fill="#000000" transform="matrix(1.00, 0.00, -0.00, -1.00, 402.3, 535.5)"> </text><text xml:space="preserve" font-family="CenturyGothic,Century Gothic" font-size="36.0" fill="#000000" transform="matrix(1.00, 0.00, -0.00, -1.00, 412.2, 535.5)">D</text><text xml:space="preserve" font-family="CenturyGothic,Century Gothic" font-size="36.0" fill="#000000" transform="matrix(1.00, 0.00, -0.00, -1.00, 439.0, 535.5)">F</text><text xml:space="preserve" font-family="CenturyGothic,Century Gothic" font-size="36.0" fill="#000000" transform="matrix(1.00, 0.00, -0.00, -1.00, 456.5, 535.5)">T</text><text xml:space="preserve" font-family="CenturyGothic,Century Gothic" font-size="36.0" fill="#000000" transform="matrix(1.00, 0.00, -0.00, -1.00, 471.8, 535.5)"> </text><text xml:space="preserve" font-family="CenturyGothic,Century Gothic" font-size="36.0" fill="#000000" transform="matrix(1.00, 0.00, -0.00, -1.00, 481.7, 535.5)">(</text><text xml:space="preserve" font-family="CenturyGothic,Century Gothic" font-size="36.0" fill="#000000" transform="matrix(1.00, 0.00, -0.00, -1.00, 495.0, 535.5)">D</text><image xlink:href="../../61A58102-22E1-412F-811F-124AF3D36D9D/assets/7A445B41CCC96C9920F22D700A866D51.png" width="110.00" height="31.00" transform="matrix(1.00, 0.00, -0.00, -1.00, 519.0, 562.0)"></image><text xml:space="preserve" font-family="CenturyGothic,Century Gothic" font-size="28.8" fill="#000000" transform="matrix(1.00, 0.00, -0.00, -1.00, 521.8, 535.5)">I</text><text xml:space="preserve" font-family="CenturyGothic,Century Gothic" font-size="28.8" fill="#000000" transform="matrix(1.00, 0.00, -0.00, -1.00, 528.4, 535.5)">S</text><text xml:space="preserve" font-family="CenturyGothic,Century Gothic" font-size="28.8" fill="#000000" transform="matrix(1.00, 0.00, -0.00, -1.00, 542.7, 535.5)">C</text><text xml:space="preserve" font-family="CenturyGothic,Century Gothic" font-size="28.8" fill="#000000" transform="matrix(1.00, 0.00, -0.00, -1.00, 566.1, 535.5)">R</text><text xml:space="preserve" font-family="CenturyGothic,Century Gothic" font-size="28.8" fill="#000000" transform="matrix(1.00, 0.00, -0.00, -1.00, 583.6, 535.5)">E</text><text xml:space="preserve" font-family="CenturyGothic,Century Gothic" font-size="28.8" fill="#000000" transform="matrix(1.00, 0.00, -0.00, -1.00, 599.0, 535.5)">T</text><text xml:space="preserve" font-family="CenturyGothic,Century Gothic" font-size="28.8" fill="#000000" transform="matrix(1.00, 0.00, -0.00, -1.00, 611.3, 535.5)">E</text><image xlink:href="../../61A58102-22E1-412F-811F-124AF3D36D9D/assets/51CFCA8FFB508C60E8AFDFBBE6B62656.png" width="22.00" height="35.00" transform="matrix(1.00, 0.00, -0.00, -1.00, 634.0, 567.0)"></image><text xml:space="preserve" font-family="CenturyGothic,Century Gothic" font-size="36.0" fill="#000000" transform="matrix(1.00, 0.00, -0.00, -1.00, 626.7, 535.5)"> </text><text xml:space="preserve" font-family="CenturyGothic,Century Gothic" font-size="36.0" fill="#000000" transform="matrix(1.00, 0.00, -0.00, -1.00, 636.7, 535.5)">F</text><image xlink:href="../../61A58102-22E1-412F-811F-124AF3D36D9D/assets/C5D94B6CBD1394AC632C796688731B06.png" width="107.00" height="31.00" transform="matrix(1.00, 0.00, -0.00, -1.00, 650.0, 562.0)"></image><text xml:space="preserve" font-family="CenturyGothic,Century Gothic" font-size="28.8" fill="#000000" transform="matrix(1.00, 0.00, -0.00, -1.00, 654.2, 535.5)">O</text><text xml:space="preserve" font-family="CenturyGothic,Century Gothic" font-size="28.8" fill="#000000" transform="matrix(1.00, 0.00, -0.00, -1.00, 679.2, 535.5)">U</text><text xml:space="preserve" font-family="CenturyGothic,Century Gothic" font-size="28.8" fill="#000000" transform="matrix(1.00, 0.00, -0.00, -1.00, 698.1, 535.5)">R</text><text xml:space="preserve" font-family="CenturyGothic,Century Gothic" font-size="28.8" fill="#000000" transform="matrix(1.00, 0.00, -0.00, -1.00, 715.5, 535.5)">I</text><text xml:space="preserve" font-family="CenturyGothic,Century Gothic" font-size="28.8" fill="#000000" transform="matrix(1.00, 0.00, -0.00, -1.00, 722.0, 535.5)">E</text><text xml:space="preserve" font-family="CenturyGothic,Century Gothic" font-size="28.8" fill="#000000" transform="matrix(1.00, 0.00, -0.00, -1.00, 737.5, 535.5)">R</text><image xlink:href="../../61A58102-22E1-412F-811F-124AF3D36D9D/assets/7FA608F4CBCC03392BE6073DD5EDA3FB.png" width="23.00" height="35.00" transform="matrix(1.00, 0.00, -0.00, -1.00, 760.0, 567.0)"></image><text xml:space="preserve" font-family="CenturyGothic,Century Gothic" font-size="36.0" fill="#000000" transform="matrix(1.00, 0.00, -0.00, -1.00, 755.0, 535.5)"> </text><text xml:space="preserve" font-family="CenturyGothic,Century Gothic" font-size="36.0" fill="#000000" transform="matrix(1.00, 0.00, -0.00, -1.00, 764.9, 535.5)">T</text><image xlink:href="../../61A58102-22E1-412F-811F-124AF3D36D9D/assets/093F4DD9B35C9CCCE26D01EAAEA99D5B.png" width="163.00" height="31.00" transform="matrix(1.00, 0.00, -0.00, -1.00, 777.0, 562.0)"></image><text xml:space="preserve" font-family="CenturyGothic,Century Gothic" font-size="28.8" fill="#000000" transform="matrix(1.00, 0.00, -0.00, -1.00, 780.3, 535.5)">R</text><text xml:space="preserve" font-family="CenturyGothic,Century Gothic" font-size="28.8" fill="#000000" transform="matrix(1.00, 0.00, -0.00, -1.00, 797.7, 535.5)">A</text><text xml:space="preserve" font-family="CenturyGothic,Century Gothic" font-size="28.8" fill="#000000" transform="matrix(1.00, 0.00, -0.00, -1.00, 819.0, 535.5)">N</text><text xml:space="preserve" font-family="CenturyGothic,Century Gothic" font-size="28.8" fill="#000000" transform="matrix(1.00, 0.00, -0.00, -1.00, 840.3, 535.5)">S</text><text xml:space="preserve" font-family="CenturyGothic,Century Gothic" font-size="28.8" fill="#000000" transform="matrix(1.00, 0.00, -0.00, -1.00, 854.7, 535.5)">F</text><text xml:space="preserve" font-family="CenturyGothic,Century Gothic" font-size="28.8" fill="#000000" transform="matrix(1.00, 0.00, -0.00, -1.00, 868.6, 535.5)">O</text><text xml:space="preserve" font-family="CenturyGothic,Century Gothic" font-size="28.8" fill="#000000" transform="matrix(1.00, 0.00, -0.00, -1.00, 893.7, 535.5)">R</text><text xml:space="preserve" font-family="CenturyGothic,Century Gothic" font-size="28.8" fill="#000000" transform="matrix(1.00, 0.00, -0.00, -1.00, 911.1, 535.5)">M</text><image xlink:href="../../61A58102-22E1-412F-811F-124AF3D36D9D/assets/6BE85412ED7961FB74F4F092D7DC4F0B.png" width="16.00" height="44.00" transform="matrix(1.00, 0.00, -0.00, -1.00, 934.0, 568.0)"></image><text xml:space="preserve" font-family="CenturyGothic,Century Gothic" font-size="36.0" fill="#000000" transform="matrix(1.00, 0.00, -0.00, -1.00, 937.6, 535.5)">)</text><image xlink:href="../../61A58102-22E1-412F-811F-124AF3D36D9D/assets/6DD1E4845FC87C35B0E2E0D05E49391A.png" width="18.00" height="18.00" transform="matrix(1.00, 0.00, -0.00, -1.00, 96.0, 509.0)"></image><text xml:space="preserve" font-family="ArialMT,Arial" font-size="36.0" fill="#000000" transform="matrix(1.00, 0.00, -0.00, -1.00, 99.8, 486.8)">•</text><image xlink:href="../../61A58102-22E1-412F-811F-124AF3D36D9D/assets/0EC6026C3CE0458BDDF2B1252FE00045.png" width="25.00" height="35.00" transform="matrix(1.00, 0.00, -0.00, -1.00, 129.0, 517.0)"></image><text xml:space="preserve" font-family="CenturyGothic,Century Gothic" font-size="36.0" fill="#000000" transform="matrix(1.00, 0.00, -0.00, -1.00, 131.7, 485.5)">Б</text><image xlink:href="../../61A58102-22E1-412F-811F-124AF3D36D9D/assets/87F73DEA3BF1052A7768FCDE9666C59C.png" width="80.00" height="30.00" transform="matrix(1.00, 0.00, -0.00, -1.00, 149.0, 512.0)"></image><text xml:space="preserve" font-family="CenturyGothic,Century Gothic" font-size="28.8" fill="#000000" transform="matrix(1.00, 0.00, -0.00, -1.00, 152.3, 485.5)">Е</text><text xml:space="preserve" font-family="CenturyGothic,Century Gothic" font-size="28.8" fill="#000000" transform="matrix(1.00, 0.00, -0.00, -1.00, 167.8, 485.5)">Р</text><text xml:space="preserve" font-family="CenturyGothic,Century Gothic" font-size="28.8" fill="#000000" transform="matrix(1.00, 0.00, -0.00, -1.00, 184.8, 485.5)">Е</text><text xml:space="preserve" font-family="CenturyGothic,Century Gothic" font-size="28.8" fill="#000000" transform="matrix(1.00, 0.00, -0.00, -1.00, 200.3, 485.5)">М</text><text xml:space="preserve" font-family="CenturyGothic,Century Gothic" font-size="36.0" fill="#000000" transform="matrix(1.00, 0.00, -0.00, -1.00, 226.7, 485.5)"> </text><image xlink:href="../../61A58102-22E1-412F-811F-124AF3D36D9D/assets/605C78C4889B5035DF0AC8B4BE63ECCA.png" width="240.00" height="33.00" transform="matrix(1.00, 0.00, -0.00, -1.00, 234.0, 512.0)"></image><text xml:space="preserve" font-family="CenturyGothic,Century Gothic" font-size="28.8" fill="#000000" transform="matrix(1.00, 0.00, -0.00, -1.00, 236.7, 485.5)">В</text><text xml:space="preserve" font-family="CenturyGothic,Century Gothic" font-size="28.8" fill="#000000" transform="matrix(1.00, 0.00, -0.00, -1.00, 253.2, 485.5)">Е</text><text xml:space="preserve" font-family="CenturyGothic,Century Gothic" font-size="28.8" fill="#000000" transform="matrix(1.00, 0.00, -0.00, -1.00, 268.7, 485.5)">Щ</text><text xml:space="preserve" font-family="CenturyGothic,Century Gothic" font-size="28.8" fill="#000000" transform="matrix(1.00, 0.00, -0.00, -1.00, 299.4, 485.5)">Е</text><text xml:space="preserve" font-family="CenturyGothic,Century Gothic" font-size="28.8" fill="#000000" transform="matrix(1.00, 0.00, -0.00, -1.00, 314.8, 485.5)">С</text><text xml:space="preserve" font-family="CenturyGothic,Century Gothic" font-size="28.8" fill="#000000" transform="matrix(1.00, 0.00, -0.00, -1.00, 338.2, 485.5)">Т</text><text xml:space="preserve" font-family="CenturyGothic,Century Gothic" font-size="28.8" fill="#000000" transform="matrix(1.00, 0.00, -0.00, -1.00, 350.5, 485.5)">В</text><text xml:space="preserve" font-family="CenturyGothic,Century Gothic" font-size="28.8" fill="#000000" transform="matrix(1.00, 0.00, -0.00, -1.00, 367.0, 485.5)">Е</text><text xml:space="preserve" font-family="CenturyGothic,Century Gothic" font-size="28.8" fill="#000000" transform="matrix(1.00, 0.00, -0.00, -1.00, 382.5, 485.5)">Н</text><text xml:space="preserve" font-family="CenturyGothic,Century Gothic" font-size="28.8" fill="#000000" transform="matrix(1.00, 0.00, -0.00, -1.00, 402.2, 485.5)">Н</text><text xml:space="preserve" font-family="CenturyGothic,Century Gothic" font-size="28.8" fill="#000000" transform="matrix(1.00, 0.00, -0.00, -1.00, 421.8, 485.5)">У</text><text xml:space="preserve" font-family="CenturyGothic,Century Gothic" font-size="28.8" fill="#000000" transform="matrix(1.00, 0.00, -0.00, -1.00, 440.4, 485.5)">Ю</text><text xml:space="preserve" font-family="CenturyGothic,Century Gothic" font-size="36.0" fill="#000000" transform="matrix(1.00, 0.00, -0.00, -1.00, 472.0, 485.5)"> </text><image xlink:href="../../61A58102-22E1-412F-811F-124AF3D36D9D/assets/0AC2B6EEA6529E1739DAD12542B17898.png" width="277.00" height="33.00" transform="matrix(1.00, 0.00, -0.00, -1.00, 478.0, 512.0)"></image><text xml:space="preserve" font-family="CenturyGothic,Century Gothic" font-size="28.8" fill="#000000" transform="matrix(1.00, 0.00, -0.00, -1.00, 481.9, 485.5)">С</text><text xml:space="preserve" font-family="CenturyGothic,Century Gothic" font-size="28.8" fill="#000000" transform="matrix(1.00, 0.00, -0.00, -1.00, 505.3, 485.5)">О</text><text xml:space="preserve" font-family="CenturyGothic,Century Gothic" font-size="28.8" fill="#000000" transform="matrix(1.00, 0.00, -0.00, -1.00, 530.4, 485.5)">С</text><text xml:space="preserve" font-family="CenturyGothic,Century Gothic" font-size="28.8" fill="#000000" transform="matrix(1.00, 0.00, -0.00, -1.00, 553.8, 485.5)">Т</text><text xml:space="preserve" font-family="CenturyGothic,Century Gothic" font-size="28.8" fill="#000000" transform="matrix(1.00, 0.00, -0.00, -1.00, 566.0, 485.5)">А</text><text xml:space="preserve" font-family="CenturyGothic,Century Gothic" font-size="28.8" fill="#000000" transform="matrix(1.00, 0.00, -0.00, -1.00, 587.3, 485.5)">В</text><text xml:space="preserve" font-family="CenturyGothic,Century Gothic" font-size="28.8" fill="#000000" transform="matrix(1.00, 0.00, -0.00, -1.00, 603.9, 485.5)">Л</text><text xml:space="preserve" font-family="CenturyGothic,Century Gothic" font-size="28.8" fill="#000000" transform="matrix(1.00, 0.00, -0.00, -1.00, 624.1, 485.5)">Я</text><text xml:space="preserve" font-family="CenturyGothic,Century Gothic" font-size="28.8" fill="#000000" transform="matrix(1.00, 0.00, -0.00, -1.00, 640.9, 485.5)">Ю</text><text xml:space="preserve" font-family="CenturyGothic,Century Gothic" font-size="28.8" fill="#000000" transform="matrix(1.00, 0.00, -0.00, -1.00, 672.5, 485.5)">Щ</text><text xml:space="preserve" font-family="CenturyGothic,Century Gothic" font-size="28.8" fill="#000000" transform="matrix(1.00, 0.00, -0.00, -1.00, 703.2, 485.5)">У</text><text xml:space="preserve" font-family="CenturyGothic,Century Gothic" font-size="28.8" fill="#000000" transform="matrix(1.00, 0.00, -0.00, -1.00, 721.8, 485.5)">Ю</text><image xlink:href="../../61A58102-22E1-412F-811F-124AF3D36D9D/assets/B1DB1CDE73F37DEC84C930A63EBB6198.png" width="14.00" height="17.00" transform="matrix(1.00, 0.00, -0.00, -1.00, 750.0, 496.0)"></image><text xml:space="preserve" font-family="CenturyGothic,Century Gothic" font-size="36.0" fill="#000000" transform="matrix(1.00, 0.00, -0.00, -1.00, 753.3, 485.5)">,</text><text xml:space="preserve" font-family="CenturyGothic,Century Gothic" font-size="36.0" fill="#000000" transform="matrix(1.00, 0.00, -0.00, -1.00, 763.3, 485.5)"> </text><image xlink:href="../../61A58102-22E1-412F-811F-124AF3D36D9D/assets/86B97FB0B6D1707A1FD7BE878F817A2D.png" width="224.00" height="31.00" transform="matrix(1.00, 0.00, -0.00, -1.00, 128.0, 468.0)"></image><text xml:space="preserve" font-family="CenturyGothic,Century Gothic" font-size="28.8" fill="#000000" transform="matrix(1.00, 0.00, -0.00, -1.00, 131.7, 441.5)">О</text><text xml:space="preserve" font-family="CenturyGothic,Century Gothic" font-size="28.8" fill="#000000" transform="matrix(1.00, 0.00, -0.00, -1.00, 156.7, 441.5)">Т</text><text xml:space="preserve" font-family="CenturyGothic,Century Gothic" font-size="28.8" fill="#000000" transform="matrix(1.00, 0.00, -0.00, -1.00, 169.0, 441.5)">Б</text><text xml:space="preserve" font-family="CenturyGothic,Century Gothic" font-size="28.8" fill="#000000" transform="matrix(1.00, 0.00, -0.00, -1.00, 185.5, 441.5)">Р</text><text xml:space="preserve" font-family="CenturyGothic,Century Gothic" font-size="28.8" fill="#000000" transform="matrix(1.00, 0.00, -0.00, -1.00, 202.5, 441.5)">А</text><text xml:space="preserve" font-family="CenturyGothic,Century Gothic" font-size="28.8" fill="#000000" transform="matrix(1.00, 0.00, -0.00, -1.00, 223.8, 441.5)">С</text><text xml:space="preserve" font-family="CenturyGothic,Century Gothic" font-size="28.8" fill="#000000" transform="matrix(1.00, 0.00, -0.00, -1.00, 247.2, 441.5)">Ы</text><text xml:space="preserve" font-family="CenturyGothic,Century Gothic" font-size="28.8" fill="#000000" transform="matrix(1.00, 0.00, -0.00, -1.00, 270.1, 441.5)">В</text><text xml:space="preserve" font-family="CenturyGothic,Century Gothic" font-size="28.8" fill="#000000" transform="matrix(1.00, 0.00, -0.00, -1.00, 286.6, 441.5)">А</text><text xml:space="preserve" font-family="CenturyGothic,Century Gothic" font-size="28.8" fill="#000000" transform="matrix(1.00, 0.00, -0.00, -1.00, 307.9, 441.5)">Е</text><text xml:space="preserve" font-family="CenturyGothic,Century Gothic" font-size="28.8" fill="#000000" transform="matrix(1.00, 0.00, -0.00, -1.00, 323.4, 441.5)">М</text><text xml:space="preserve" font-family="CenturyGothic,Century Gothic" font-size="36.0" fill="#000000" transform="matrix(1.00, 0.00, -0.00, -1.00, 349.9, 441.5)"> </text><image xlink:href="../../61A58102-22E1-412F-811F-124AF3D36D9D/assets/59EA0D025060D6366962EEDCCBC6F7A1.png" width="239.00" height="31.00" transform="matrix(1.00, 0.00, -0.00, -1.00, 357.0, 468.0)"></image><text xml:space="preserve" font-family="CenturyGothic,Century Gothic" font-size="28.8" fill="#000000" transform="matrix(1.00, 0.00, -0.00, -1.00, 359.8, 441.5)">К</text><text xml:space="preserve" font-family="CenturyGothic,Century Gothic" font-size="28.8" fill="#000000" transform="matrix(1.00, 0.00, -0.00, -1.00, 376.8, 441.5)">О</text><text xml:space="preserve" font-family="CenturyGothic,Century Gothic" font-size="28.8" fill="#000000" transform="matrix(1.00, 0.00, -0.00, -1.00, 401.9, 441.5)">М</text><text xml:space="preserve" font-family="CenturyGothic,Century Gothic" font-size="28.8" fill="#000000" transform="matrix(1.00, 0.00, -0.00, -1.00, 428.3, 441.5)">П</text><text xml:space="preserve" font-family="CenturyGothic,Century Gothic" font-size="28.8" fill="#000000" transform="matrix(1.00, 0.00, -0.00, -1.00, 448.0, 441.5)">Л</text><text xml:space="preserve" font-family="CenturyGothic,Century Gothic" font-size="28.8" fill="#000000" transform="matrix(1.00, 0.00, -0.00, -1.00, 468.2, 441.5)">Е</text><text xml:space="preserve" font-family="CenturyGothic,Century Gothic" font-size="28.8" fill="#000000" transform="matrix(1.00, 0.00, -0.00, -1.00, 483.7, 441.5)">К</text><text xml:space="preserve" font-family="CenturyGothic,Century Gothic" font-size="28.8" fill="#000000" transform="matrix(1.00, 0.00, -0.00, -1.00, 500.7, 441.5)">С</text><text xml:space="preserve" font-family="CenturyGothic,Century Gothic" font-size="28.8" fill="#000000" transform="matrix(1.00, 0.00, -0.00, -1.00, 524.1, 441.5)">Н</text><text xml:space="preserve" font-family="CenturyGothic,Century Gothic" font-size="28.8" fill="#000000" transform="matrix(1.00, 0.00, -0.00, -1.00, 543.8, 441.5)">У</text><text xml:space="preserve" font-family="CenturyGothic,Century Gothic" font-size="28.8" fill="#000000" transform="matrix(1.00, 0.00, -0.00, -1.00, 562.4, 441.5)">Ю</text><image xlink:href="../../61A58102-22E1-412F-811F-124AF3D36D9D/assets/6DD1E4845FC87C35B0E2E0D05E49391A.png" width="18.00" height="18.00" transform="matrix(1.00, 0.00, -0.00, -1.00, 96.0, 415.0)"></image><text xml:space="preserve" font-family="ArialMT,Arial" font-size="36.0" fill="#000000" transform="matrix(1.00, 0.00, -0.00, -1.00, 99.8, 392.8)">•</text><image xlink:href="../../61A58102-22E1-412F-811F-124AF3D36D9D/assets/48C42DC70603406AC0A77F0E27351980.png" width="38.00" height="35.00" transform="matrix(1.00, 0.00, -0.00, -1.00, 128.0, 423.0)"></image><text xml:space="preserve" font-family="CenturyGothic,Century Gothic" font-size="36.0" fill="#000000" transform="matrix(1.00, 0.00, -0.00, -1.00, 131.7, 391.5)">М</text><image xlink:href="../../61A58102-22E1-412F-811F-124AF3D36D9D/assets/9465B689D696B43604CA8C907EE7F669.png" width="102.00" height="30.00" transform="matrix(1.00, 0.00, -0.00, -1.00, 162.0, 418.0)"></image><text xml:space="preserve" font-family="CenturyGothic,Century Gothic" font-size="28.8" fill="#000000" transform="matrix(1.00, 0.00, -0.00, -1.00, 164.8, 391.5)">Е</text><text xml:space="preserve" font-family="CenturyGothic,Century Gothic" font-size="28.8" fill="#000000" transform="matrix(1.00, 0.00, -0.00, -1.00, 180.2, 391.5)">Н</text><text xml:space="preserve" font-family="CenturyGothic,Century Gothic" font-size="28.8" fill="#000000" transform="matrix(1.00, 0.00, -0.00, -1.00, 199.9, 391.5)">Ь</text><text xml:space="preserve" font-family="CenturyGothic,Century Gothic" font-size="28.8" fill="#000000" transform="matrix(1.00, 0.00, -0.00, -1.00, 217.4, 391.5)">Ш</text><text xml:space="preserve" font-family="CenturyGothic,Century Gothic" font-size="28.8" fill="#000000" transform="matrix(1.00, 0.00, -0.00, -1.00, 246.4, 391.5)">Е</text><text xml:space="preserve" font-family="CenturyGothic,Century Gothic" font-size="36.0" fill="#000000" transform="matrix(1.00, 0.00, -0.00, -1.00, 261.8, 391.5)"> </text><image xlink:href="../../61A58102-22E1-412F-811F-124AF3D36D9D/assets/13C7F60B6B6A0164AAFAB6F7C6198BF6.png" width="201.00" height="36.00" transform="matrix(1.00, 0.00, -0.00, -1.00, 269.0, 423.0)"></image><text xml:space="preserve" font-family="CenturyGothic,Century Gothic" font-size="28.8" fill="#000000" transform="matrix(1.00, 0.00, -0.00, -1.00, 271.8, 391.5)">В</text><text xml:space="preserve" font-family="CenturyGothic,Century Gothic" font-size="28.8" fill="#000000" transform="matrix(1.00, 0.00, -0.00, -1.00, 288.3, 391.5)">Ы</text><text xml:space="preserve" font-family="CenturyGothic,Century Gothic" font-size="28.8" fill="#000000" transform="matrix(1.00, 0.00, -0.00, -1.00, 311.2, 391.5)">Ч</text><text xml:space="preserve" font-family="CenturyGothic,Century Gothic" font-size="28.8" fill="#000000" transform="matrix(1.00, 0.00, -0.00, -1.00, 326.7, 391.5)">И</text><text xml:space="preserve" font-family="CenturyGothic,Century Gothic" font-size="28.8" fill="#000000" transform="matrix(1.00, 0.00, -0.00, -1.00, 348.0, 391.5)">С</text><text xml:space="preserve" font-family="CenturyGothic,Century Gothic" font-size="28.8" fill="#000000" transform="matrix(1.00, 0.00, -0.00, -1.00, 371.4, 391.5)">Л</text><text xml:space="preserve" font-family="CenturyGothic,Century Gothic" font-size="28.8" fill="#000000" transform="matrix(1.00, 0.00, -0.00, -1.00, 391.6, 391.5)">Е</text><text xml:space="preserve" font-family="CenturyGothic,Century Gothic" font-size="28.8" fill="#000000" transform="matrix(1.00, 0.00, -0.00, -1.00, 407.1, 391.5)">Н</text><text xml:space="preserve" font-family="CenturyGothic,Century Gothic" font-size="28.8" fill="#000000" transform="matrix(1.00, 0.00, -0.00, -1.00, 426.8, 391.5)">И</text><text xml:space="preserve" font-family="CenturyGothic,Century Gothic" font-size="28.8" fill="#000000" transform="matrix(1.00, 0.00, -0.00, -1.00, 448.1, 391.5)">Й</text><image xlink:href="../../61A58102-22E1-412F-811F-124AF3D36D9D/assets/77361EFEE7094B52DC84EAFB1F73AD21.png" width="14.00" height="17.00" transform="matrix(1.00, 0.00, -0.00, -1.00, 466.0, 402.0)"></image><text xml:space="preserve" font-family="CenturyGothic,Century Gothic" font-size="36.0" fill="#000000" transform="matrix(1.00, 0.00, -0.00, -1.00, 469.4, 391.5)">,</text><text xml:space="preserve" font-family="CenturyGothic,Century Gothic" font-size="36.0" fill="#000000" transform="matrix(1.00, 0.00, -0.00, -1.00, 479.3, 391.5)"> </text><image xlink:href="../../61A58102-22E1-412F-811F-124AF3D36D9D/assets/9B0185086065391A6EC4745297232870.png" width="158.00" height="31.00" transform="matrix(1.00, 0.00, -0.00, -1.00, 486.0, 418.0)"></image><text xml:space="preserve" font-family="CenturyGothic,Century Gothic" font-size="28.8" fill="#000000" transform="matrix(1.00, 0.00, -0.00, -1.00, 489.3, 391.5)">Р</text><text xml:space="preserve" font-family="CenturyGothic,Century Gothic" font-size="28.8" fill="#000000" transform="matrix(1.00, 0.00, -0.00, -1.00, 506.3, 391.5)">Е</text><text xml:space="preserve" font-family="CenturyGothic,Century Gothic" font-size="28.8" fill="#000000" transform="matrix(1.00, 0.00, -0.00, -1.00, 521.8, 391.5)">З</text><text xml:space="preserve" font-family="CenturyGothic,Century Gothic" font-size="28.8" fill="#000000" transform="matrix(1.00, 0.00, -0.00, -1.00, 538.5, 391.5)">У</text><text xml:space="preserve" font-family="CenturyGothic,Century Gothic" font-size="28.8" fill="#000000" transform="matrix(1.00, 0.00, -0.00, -1.00, 557.1, 391.5)">Л</text><text xml:space="preserve" font-family="CenturyGothic,Century Gothic" font-size="28.8" fill="#000000" transform="matrix(1.00, 0.00, -0.00, -1.00, 577.3, 391.5)">Ь</text><text xml:space="preserve" font-family="CenturyGothic,Century Gothic" font-size="28.8" fill="#000000" transform="matrix(1.00, 0.00, -0.00, -1.00, 594.8, 391.5)">Т</text><text xml:space="preserve" font-family="CenturyGothic,Century Gothic" font-size="28.8" fill="#000000" transform="matrix(1.00, 0.00, -0.00, -1.00, 607.0, 391.5)">А</text><text xml:space="preserve" font-family="CenturyGothic,Century Gothic" font-size="28.8" fill="#000000" transform="matrix(1.00, 0.00, -0.00, -1.00, 628.3, 391.5)">Т</text><text xml:space="preserve" font-family="CenturyGothic,Century Gothic" font-size="36.0" fill="#000000" transform="matrix(1.00, 0.00, -0.00, -1.00, 640.6, 391.5)"> </text><image xlink:href="../../61A58102-22E1-412F-811F-124AF3D36D9D/assets/989E63823DE0D50CF0C6A7028CB3AABA.png" width="205.00" height="31.00" transform="matrix(1.00, 0.00, -0.00, -1.00, 648.0, 418.0)"></image><text xml:space="preserve" font-family="CenturyGothic,Century Gothic" font-size="28.8" fill="#000000" transform="matrix(1.00, 0.00, -0.00, -1.00, 650.6, 391.5)">П</text><text xml:space="preserve" font-family="CenturyGothic,Century Gothic" font-size="28.8" fill="#000000" transform="matrix(1.00, 0.00, -0.00, -1.00, 670.3, 391.5)">Р</text><text xml:space="preserve" font-family="CenturyGothic,Century Gothic" font-size="28.8" fill="#000000" transform="matrix(1.00, 0.00, -0.00, -1.00, 687.3, 391.5)">А</text><text xml:space="preserve" font-family="CenturyGothic,Century Gothic" font-size="28.8" fill="#000000" transform="matrix(1.00, 0.00, -0.00, -1.00, 708.6, 391.5)">К</text><text xml:space="preserve" font-family="CenturyGothic,Century Gothic" font-size="28.8" fill="#000000" transform="matrix(1.00, 0.00, -0.00, -1.00, 725.6, 391.5)">Т</text><text xml:space="preserve" font-family="CenturyGothic,Century Gothic" font-size="28.8" fill="#000000" transform="matrix(1.00, 0.00, -0.00, -1.00, 737.9, 391.5)">И</text><text xml:space="preserve" font-family="CenturyGothic,Century Gothic" font-size="28.8" fill="#000000" transform="matrix(1.00, 0.00, -0.00, -1.00, 759.2, 391.5)">Ч</text><text xml:space="preserve" font-family="CenturyGothic,Century Gothic" font-size="28.8" fill="#000000" transform="matrix(1.00, 0.00, -0.00, -1.00, 774.7, 391.5)">Е</text><text xml:space="preserve" font-family="CenturyGothic,Century Gothic" font-size="28.8" fill="#000000" transform="matrix(1.00, 0.00, -0.00, -1.00, 790.1, 391.5)">С</text><text xml:space="preserve" font-family="CenturyGothic,Century Gothic" font-size="28.8" fill="#000000" transform="matrix(1.00, 0.00, -0.00, -1.00, 813.5, 391.5)">К</text><text xml:space="preserve" font-family="CenturyGothic,Century Gothic" font-size="28.8" fill="#000000" transform="matrix(1.00, 0.00, -0.00, -1.00, 830.6, 391.5)">И</text><text xml:space="preserve" font-family="CenturyGothic,Century Gothic" font-size="36.0" fill="#000000" transform="matrix(1.00, 0.00, -0.00, -1.00, 851.9, 391.5)"> </text><image xlink:href="../../61A58102-22E1-412F-811F-124AF3D36D9D/assets/3269EF2DFC7EFA560EE7F59F88B149C5.png" width="57.00" height="31.00" transform="matrix(1.00, 0.00, -0.00, -1.00, 857.0, 418.0)"></image><text xml:space="preserve" font-family="CenturyGothic,Century Gothic" font-size="28.8" fill="#000000" transform="matrix(1.00, 0.00, -0.00, -1.00, 861.9, 391.5)">Т</text><text xml:space="preserve" font-family="CenturyGothic,Century Gothic" font-size="28.8" fill="#000000" transform="matrix(1.00, 0.00, -0.00, -1.00, 874.1, 391.5)">О</text><text xml:space="preserve" font-family="CenturyGothic,Century Gothic" font-size="28.8" fill="#000000" transform="matrix(1.00, 0.00, -0.00, -1.00, 899.1, 391.5)">Т</text><text xml:space="preserve" font-family="CenturyGothic,Century Gothic" font-size="36.0" fill="#000000" transform="matrix(1.00, 0.00, -0.00, -1.00, 911.4, 391.5)"> </text><image xlink:href="../../61A58102-22E1-412F-811F-124AF3D36D9D/assets/AFCDB9A789042C709352F43D1945CAAA.png" width="50.00" height="30.00" transform="matrix(1.00, 0.00, -0.00, -1.00, 916.0, 418.0)"></image><text xml:space="preserve" font-family="CenturyGothic,Century Gothic" font-size="28.8" fill="#000000" transform="matrix(1.00, 0.00, -0.00, -1.00, 921.4, 391.5)">Ж</text><text xml:space="preserve" font-family="CenturyGothic,Century Gothic" font-size="28.8" fill="#000000" transform="matrix(1.00, 0.00, -0.00, -1.00, 948.3, 391.5)">Е</text><text xml:space="preserve" font-family="CenturyGothic-Bold,Century Gothic" font-weight="bold" font-size="28.0" fill="#525252" transform="matrix(1.00, 0.00, -0.00, -1.00, 933.5, 65.6)">2</text><text xml:space="preserve" font-family="CenturyGothic-Bold,Century Gothic" font-weight="bold" font-size="28.0" fill="#525252" transform="matrix(1.00, 0.00, -0.00, -1.00, 949.2, 65.6)">2</text><image xlink:href="../../61A58102-22E1-412F-811F-124AF3D36D9D/assets/6C36030C881BE3B97830DC48ED0EFE37.png" width="627.00" height="130.00" transform="matrix(1.26, 0.00, -0.00, -1.26, 115.9, 336.5)"></image></g></svg>